%TF.GenerationSoftware,KiCad,Pcbnew,8.0.7*%
%TF.CreationDate,2025-02-13T02:08:45-05:00*%
%TF.ProjectId,makropad,6d616b72-6f70-4616-942e-6b696361645f,rev?*%
%TF.SameCoordinates,Original*%
%TF.FileFunction,Soldermask,Bot*%
%TF.FilePolarity,Negative*%
%FSLAX46Y46*%
G04 Gerber Fmt 4.6, Leading zero omitted, Abs format (unit mm)*
G04 Created by KiCad (PCBNEW 8.0.7) date 2025-02-13 02:08:45*
%MOMM*%
%LPD*%
G01*
G04 APERTURE LIST*
G04 Aperture macros list*
%AMRoundRect*
0 Rectangle with rounded corners*
0 $1 Rounding radius*
0 $2 $3 $4 $5 $6 $7 $8 $9 X,Y pos of 4 corners*
0 Add a 4 corners polygon primitive as box body*
4,1,4,$2,$3,$4,$5,$6,$7,$8,$9,$2,$3,0*
0 Add four circle primitives for the rounded corners*
1,1,$1+$1,$2,$3*
1,1,$1+$1,$4,$5*
1,1,$1+$1,$6,$7*
1,1,$1+$1,$8,$9*
0 Add four rect primitives between the rounded corners*
20,1,$1+$1,$2,$3,$4,$5,0*
20,1,$1+$1,$4,$5,$6,$7,0*
20,1,$1+$1,$6,$7,$8,$9,0*
20,1,$1+$1,$8,$9,$2,$3,0*%
%AMOutline5P*
0 Free polygon, 5 corners , with rotation*
0 The origin of the aperture is its center*
0 number of corners: always 5*
0 $1 to $10 corner X, Y*
0 $11 Rotation angle, in degrees counterclockwise*
0 create outline with 5 corners*
4,1,5,$1,$2,$3,$4,$5,$6,$7,$8,$9,$10,$1,$2,$11*%
%AMOutline6P*
0 Free polygon, 6 corners , with rotation*
0 The origin of the aperture is its center*
0 number of corners: always 6*
0 $1 to $12 corner X, Y*
0 $13 Rotation angle, in degrees counterclockwise*
0 create outline with 6 corners*
4,1,6,$1,$2,$3,$4,$5,$6,$7,$8,$9,$10,$11,$12,$1,$2,$13*%
%AMOutline7P*
0 Free polygon, 7 corners , with rotation*
0 The origin of the aperture is its center*
0 number of corners: always 7*
0 $1 to $14 corner X, Y*
0 $15 Rotation angle, in degrees counterclockwise*
0 create outline with 7 corners*
4,1,7,$1,$2,$3,$4,$5,$6,$7,$8,$9,$10,$11,$12,$13,$14,$1,$2,$15*%
%AMOutline8P*
0 Free polygon, 8 corners , with rotation*
0 The origin of the aperture is its center*
0 number of corners: always 8*
0 $1 to $16 corner X, Y*
0 $17 Rotation angle, in degrees counterclockwise*
0 create outline with 8 corners*
4,1,8,$1,$2,$3,$4,$5,$6,$7,$8,$9,$10,$11,$12,$13,$14,$15,$16,$1,$2,$17*%
G04 Aperture macros list end*
%ADD10C,5.100000*%
%ADD11O,1.900000X2.450000*%
%ADD12O,2.450000X1.900000*%
%ADD13R,1.700000X1.700000*%
%ADD14O,1.700000X1.700000*%
%ADD15R,2.000000X2.000000*%
%ADD16C,2.000000*%
%ADD17R,3.200000X2.000000*%
%ADD18C,3.200000*%
%ADD19RoundRect,0.225000X0.375000X-0.225000X0.375000X0.225000X-0.375000X0.225000X-0.375000X-0.225000X0*%
%ADD20R,1.800000X0.820000*%
%ADD21Outline5P,-0.900000X0.410000X0.900000X0.410000X0.900000X-0.246000X0.736000X-0.410000X-0.900000X-0.410000X180.000000*%
%ADD22RoundRect,0.250000X0.625000X-0.312500X0.625000X0.312500X-0.625000X0.312500X-0.625000X-0.312500X0*%
%ADD23RoundRect,0.225000X-0.375000X0.225000X-0.375000X-0.225000X0.375000X-0.225000X0.375000X0.225000X0*%
%ADD24RoundRect,0.250000X0.312500X0.625000X-0.312500X0.625000X-0.312500X-0.625000X0.312500X-0.625000X0*%
%ADD25RoundRect,0.225000X0.225000X0.375000X-0.225000X0.375000X-0.225000X-0.375000X0.225000X-0.375000X0*%
%ADD26RoundRect,0.102000X-0.901700X-0.266700X0.901700X-0.266700X0.901700X0.266700X-0.901700X0.266700X0*%
%ADD27RoundRect,0.225000X-0.225000X-0.375000X0.225000X-0.375000X0.225000X0.375000X-0.225000X0.375000X0*%
%ADD28RoundRect,0.250000X-0.312500X-0.625000X0.312500X-0.625000X0.312500X0.625000X-0.312500X0.625000X0*%
%ADD29R,1.700000X3.500000*%
%ADD30O,1.700000X3.600000*%
%ADD31O,1.700000X3.700000*%
G04 APERTURE END LIST*
D10*
%TO.C,SW4*%
X181100000Y-55370000D03*
D11*
X176700000Y-60070000D03*
D12*
X183700000Y-61120000D03*
%TD*%
D10*
%TO.C,SW10*%
X161970000Y-115500000D03*
D11*
X157570000Y-120200000D03*
D12*
X164570000Y-121250000D03*
%TD*%
D10*
%TO.C,SW1*%
X123950000Y-55370000D03*
D11*
X119550000Y-60070000D03*
D12*
X126550000Y-61120000D03*
%TD*%
D13*
%TO.C,J1*%
X134300000Y-98700000D03*
D14*
X134300000Y-96160000D03*
X134300000Y-93620000D03*
X134300000Y-91080000D03*
%TD*%
D15*
%TO.C,SW12*%
X174250000Y-113000000D03*
D16*
X174250000Y-118000000D03*
X174250000Y-115500000D03*
D17*
X181750000Y-109900000D03*
X181750000Y-121100000D03*
D16*
X188750000Y-118000000D03*
X188750000Y-113000000D03*
%TD*%
D18*
%TO.C,MH4*%
X152500000Y-87500000D03*
%TD*%
D10*
%TO.C,SW6*%
X143000000Y-74420000D03*
D11*
X138600000Y-79120000D03*
D12*
X145600000Y-80170000D03*
%TD*%
D18*
%TO.C,MH4*%
X190000000Y-124500000D03*
%TD*%
D10*
%TO.C,SW2*%
X143000000Y-55370000D03*
D11*
X138600000Y-60070000D03*
D12*
X145600000Y-61120000D03*
%TD*%
D18*
%TO.C,MH1*%
X115000000Y-46500000D03*
%TD*%
%TO.C,MH3*%
X115000000Y-124500000D03*
%TD*%
D10*
%TO.C,SW7*%
X162050000Y-74420000D03*
D11*
X157650000Y-79120000D03*
D12*
X164650000Y-80170000D03*
%TD*%
D15*
%TO.C,SW11*%
X116250000Y-113000000D03*
D16*
X116250000Y-118000000D03*
X116250000Y-115500000D03*
D17*
X123750000Y-109900000D03*
X123750000Y-121100000D03*
D16*
X130750000Y-118000000D03*
X130750000Y-113000000D03*
%TD*%
D10*
%TO.C,SW5*%
X123950000Y-74420000D03*
D11*
X119550000Y-79120000D03*
D12*
X126550000Y-80170000D03*
%TD*%
D18*
%TO.C,MH2*%
X190000000Y-46500000D03*
%TD*%
D10*
%TO.C,SW8*%
X181100000Y-74420000D03*
D11*
X176700000Y-79120000D03*
D12*
X183700000Y-80170000D03*
%TD*%
D13*
%TO.C,J2*%
X148950000Y-126475000D03*
D14*
X151490000Y-126475000D03*
X154030000Y-126475000D03*
X156570000Y-126475000D03*
%TD*%
D10*
%TO.C,SW3*%
X162050000Y-55370000D03*
D11*
X157650000Y-60070000D03*
D12*
X164650000Y-61120000D03*
%TD*%
D10*
%TO.C,SW9*%
X142920000Y-115500000D03*
D11*
X138520000Y-120200000D03*
D12*
X145520000Y-121250000D03*
%TD*%
D19*
%TO.C,D5*%
X132250000Y-83500000D03*
X132250000Y-80200000D03*
%TD*%
D20*
%TO.C,D19*%
X163950000Y-68500000D03*
D21*
X158750000Y-68500000D03*
D20*
X158750000Y-70000000D03*
X163950000Y-70000000D03*
%TD*%
D22*
%TO.C,R4*%
X125200000Y-106623000D03*
X125200000Y-103698000D03*
%TD*%
D19*
%TO.C,D1*%
X132250000Y-64500000D03*
X132250000Y-61200000D03*
%TD*%
D20*
%TO.C,D21*%
X144820000Y-109580000D03*
D21*
X139620000Y-109580000D03*
D20*
X139620000Y-111080000D03*
X144820000Y-111080000D03*
%TD*%
D23*
%TO.C,D10*%
X134600000Y-106950000D03*
X134600000Y-110250000D03*
%TD*%
D24*
%TO.C,R1*%
X142462500Y-104000000D03*
X139537500Y-104000000D03*
%TD*%
D20*
%TO.C,D16*%
X183000000Y-49450000D03*
D21*
X177800000Y-49450000D03*
D20*
X177800000Y-50950000D03*
X183000000Y-50950000D03*
%TD*%
%TO.C,D20*%
X183000000Y-68500000D03*
D21*
X177800000Y-68500000D03*
D20*
X177800000Y-70000000D03*
X183000000Y-70000000D03*
%TD*%
D22*
%TO.C,R5*%
X120000000Y-106712500D03*
X120000000Y-103787500D03*
%TD*%
D19*
%TO.C,D2*%
X151250000Y-64500000D03*
X151250000Y-61200000D03*
%TD*%
%TO.C,D7*%
X170500000Y-83500000D03*
X170500000Y-80200000D03*
%TD*%
D22*
%TO.C,R6*%
X117750000Y-106712500D03*
X117750000Y-103787500D03*
%TD*%
D19*
%TO.C,D8*%
X173000000Y-83500000D03*
X173000000Y-80200000D03*
%TD*%
%TO.C,D3*%
X170250000Y-64500000D03*
X170250000Y-61200000D03*
%TD*%
D20*
%TO.C,D18*%
X144900000Y-68500000D03*
D21*
X139700000Y-68500000D03*
D20*
X139700000Y-70000000D03*
X144900000Y-70000000D03*
%TD*%
%TO.C,D14*%
X144900000Y-49450000D03*
D21*
X139700000Y-49450000D03*
D20*
X139700000Y-50950000D03*
X144900000Y-50950000D03*
%TD*%
%TO.C,D13*%
X125850000Y-49450000D03*
D21*
X120650000Y-49450000D03*
D20*
X120650000Y-50950000D03*
X125850000Y-50950000D03*
%TD*%
%TO.C,D17*%
X125850000Y-68500000D03*
D21*
X120650000Y-68500000D03*
D20*
X120650000Y-70000000D03*
X125850000Y-70000000D03*
%TD*%
D25*
%TO.C,D9*%
X165650000Y-103900000D03*
X162350000Y-103900000D03*
%TD*%
D26*
%TO.C,U1*%
X119449600Y-99890000D03*
X119449600Y-98620000D03*
X119449600Y-97350000D03*
X119449600Y-96080000D03*
X119449600Y-94810000D03*
X119449600Y-93540000D03*
X119449600Y-92270000D03*
X119449600Y-91000000D03*
X129000000Y-91000000D03*
X129000000Y-92270000D03*
X129000000Y-93540000D03*
X129000000Y-94810000D03*
X129000000Y-96080000D03*
X129000000Y-97350000D03*
X129000000Y-98620000D03*
X129000000Y-99890000D03*
%TD*%
D20*
%TO.C,D15*%
X163950000Y-49450000D03*
D21*
X158750000Y-49450000D03*
D20*
X158750000Y-50950000D03*
X163950000Y-50950000D03*
%TD*%
D27*
%TO.C,D11*%
X167150000Y-103900000D03*
X170450000Y-103900000D03*
%TD*%
D28*
%TO.C,R2*%
X134537500Y-104000000D03*
X137462500Y-104000000D03*
%TD*%
D19*
%TO.C,D4*%
X173000000Y-64500000D03*
X173000000Y-61200000D03*
%TD*%
D23*
%TO.C,D12*%
X132200000Y-106950000D03*
X132200000Y-110250000D03*
%TD*%
D22*
%TO.C,R3*%
X127600000Y-106623000D03*
X127600000Y-103698000D03*
%TD*%
D29*
%TO.C,U2*%
X191000000Y-103600000D03*
D30*
X188460000Y-103600000D03*
X185920000Y-103600000D03*
X183380000Y-103600000D03*
X180840000Y-103600000D03*
X178300000Y-103600000D03*
X175760000Y-103600000D03*
X175760000Y-86350000D03*
X178300000Y-86350000D03*
X180840000Y-86350000D03*
D31*
X183380000Y-86350000D03*
X185920000Y-86350000D03*
X188460000Y-86350000D03*
X191000000Y-86350000D03*
%TD*%
D20*
%TO.C,D22*%
X163870000Y-109580000D03*
D21*
X158670000Y-109580000D03*
D20*
X158670000Y-111080000D03*
X163870000Y-111080000D03*
%TD*%
D19*
%TO.C,D6*%
X151500000Y-82650000D03*
X151500000Y-79350000D03*
%TD*%
M02*
