%TF.GenerationSoftware,KiCad,Pcbnew,8.0.7*%
%TF.CreationDate,2025-02-13T02:08:44-05:00*%
%TF.ProjectId,makropad,6d616b72-6f70-4616-942e-6b696361645f,rev?*%
%TF.SameCoordinates,Original*%
%TF.FileFunction,Copper,L1,Top*%
%TF.FilePolarity,Positive*%
%FSLAX46Y46*%
G04 Gerber Fmt 4.6, Leading zero omitted, Abs format (unit mm)*
G04 Created by KiCad (PCBNEW 8.0.7) date 2025-02-13 02:08:44*
%MOMM*%
%LPD*%
G01*
G04 APERTURE LIST*
%TA.AperFunction,SMDPad,CuDef*%
%ADD10R,1.500000X1.000000*%
%TD*%
%TA.AperFunction,ComponentPad*%
%ADD11O,1.900000X2.450000*%
%TD*%
%TA.AperFunction,ComponentPad*%
%ADD12O,2.450000X1.900000*%
%TD*%
%TA.AperFunction,ComponentPad*%
%ADD13R,1.700000X1.700000*%
%TD*%
%TA.AperFunction,ComponentPad*%
%ADD14O,1.700000X1.700000*%
%TD*%
%TA.AperFunction,ComponentPad*%
%ADD15R,2.000000X2.000000*%
%TD*%
%TA.AperFunction,ComponentPad*%
%ADD16C,2.000000*%
%TD*%
%TA.AperFunction,ComponentPad*%
%ADD17R,3.200000X2.000000*%
%TD*%
%TA.AperFunction,ComponentPad*%
%ADD18R,1.700000X3.500000*%
%TD*%
%TA.AperFunction,ComponentPad*%
%ADD19O,1.700000X3.600000*%
%TD*%
%TA.AperFunction,ComponentPad*%
%ADD20O,1.700000X3.700000*%
%TD*%
%TA.AperFunction,ViaPad*%
%ADD21C,0.600000*%
%TD*%
%TA.AperFunction,Conductor*%
%ADD22C,0.200000*%
%TD*%
G04 APERTURE END LIST*
D10*
%TO.P,D25,1,VSS*%
%TO.N,GND*%
X120600000Y-96800000D03*
%TO.P,D25,2,DIN*%
%TO.N,Net-(D24-DOUT)*%
X120600000Y-100000000D03*
%TO.P,D25,3,VDD*%
%TO.N,VCC*%
X125500000Y-100000000D03*
%TO.P,D25,4,DOUT*%
%TO.N,Net-(D25-DOUT)*%
X125500000Y-96800000D03*
%TD*%
%TO.P,D28,1,VSS*%
%TO.N,GND*%
X180000000Y-96800000D03*
%TO.P,D28,2,DIN*%
%TO.N,Net-(D27-DOUT)*%
X180000000Y-100000000D03*
%TO.P,D28,3,VDD*%
%TO.N,VCC*%
X184900000Y-100000000D03*
%TO.P,D28,4,DOUT*%
%TO.N,unconnected-(D28-DOUT-Pad4)*%
X184900000Y-96800000D03*
%TD*%
D11*
%TO.P,SW4,1,1*%
%TO.N,COL3*%
X176700000Y-60070000D03*
D12*
%TO.P,SW4,2,2*%
%TO.N,Net-(D4-A)*%
X183700000Y-61120000D03*
%TD*%
D11*
%TO.P,SW10,1,1*%
%TO.N,COL2*%
X157570000Y-120200000D03*
D12*
%TO.P,SW10,2,2*%
%TO.N,Net-(D11-A)*%
X164570000Y-121250000D03*
%TD*%
D11*
%TO.P,SW1,1,1*%
%TO.N,COL0*%
X119550000Y-60070000D03*
D12*
%TO.P,SW1,2,2*%
%TO.N,Net-(D1-A)*%
X126550000Y-61120000D03*
%TD*%
D13*
%TO.P,J1,1,Pin_1*%
%TO.N,I2C_SDA*%
X134300000Y-98700000D03*
D14*
%TO.P,J1,2,Pin_2*%
%TO.N,I2C_SCL*%
X134300000Y-96160000D03*
%TO.P,J1,3,Pin_3*%
%TO.N,VCC*%
X134300000Y-93620000D03*
%TO.P,J1,4,Pin_4*%
%TO.N,GND*%
X134300000Y-91080000D03*
%TD*%
D10*
%TO.P,D27,1,VSS*%
%TO.N,GND*%
X185550000Y-90000000D03*
%TO.P,D27,2,DIN*%
%TO.N,Net-(D26-DOUT)*%
X185550000Y-93200000D03*
%TO.P,D27,3,VDD*%
%TO.N,VCC*%
X190450000Y-93200000D03*
%TO.P,D27,4,DOUT*%
%TO.N,Net-(D27-DOUT)*%
X190450000Y-90000000D03*
%TD*%
D15*
%TO.P,SW12,A,A*%
%TO.N,ENC_2_A*%
X174250000Y-113000000D03*
D16*
%TO.P,SW12,B,B*%
%TO.N,ENC_2_B*%
X174250000Y-118000000D03*
%TO.P,SW12,C,C*%
%TO.N,GND*%
X174250000Y-115500000D03*
D17*
%TO.P,SW12,MP*%
%TO.N,N/C*%
X181750000Y-109900000D03*
X181750000Y-121100000D03*
D16*
%TO.P,SW12,S1,S1*%
%TO.N,COL0*%
X188750000Y-118000000D03*
%TO.P,SW12,S2,S2*%
%TO.N,ENC_2_SWA*%
X188750000Y-113000000D03*
%TD*%
D10*
%TO.P,D24,1,VSS*%
%TO.N,GND*%
X126150000Y-90000000D03*
%TO.P,D24,2,DIN*%
%TO.N,Net-(D23-DOUT)*%
X126150000Y-93200000D03*
%TO.P,D24,3,VDD*%
%TO.N,VCC*%
X131050000Y-93200000D03*
%TO.P,D24,4,DOUT*%
%TO.N,Net-(D24-DOUT)*%
X131050000Y-90000000D03*
%TD*%
%TO.P,D26,1,VSS*%
%TO.N,GND*%
X174000000Y-90000000D03*
%TO.P,D26,2,DIN*%
%TO.N,Net-(D25-DOUT)*%
X174000000Y-93200000D03*
%TO.P,D26,3,VDD*%
%TO.N,VCC*%
X178900000Y-93200000D03*
%TO.P,D26,4,DOUT*%
%TO.N,Net-(D26-DOUT)*%
X178900000Y-90000000D03*
%TD*%
%TO.P,D23,1,VSS*%
%TO.N,GND*%
X114600000Y-90000000D03*
%TO.P,D23,2,DIN*%
%TO.N,STATUS_LED*%
X114600000Y-93200000D03*
%TO.P,D23,3,VDD*%
%TO.N,VCC*%
X119500000Y-93200000D03*
%TO.P,D23,4,DOUT*%
%TO.N,Net-(D23-DOUT)*%
X119500000Y-90000000D03*
%TD*%
D11*
%TO.P,SW6,1,1*%
%TO.N,COL1*%
X138600000Y-79120000D03*
D12*
%TO.P,SW6,2,2*%
%TO.N,Net-(D6-A)*%
X145600000Y-80170000D03*
%TD*%
D11*
%TO.P,SW2,1,1*%
%TO.N,COL1*%
X138600000Y-60070000D03*
D12*
%TO.P,SW2,2,2*%
%TO.N,Net-(D2-A)*%
X145600000Y-61120000D03*
%TD*%
D11*
%TO.P,SW7,1,1*%
%TO.N,COL2*%
X157650000Y-79120000D03*
D12*
%TO.P,SW7,2,2*%
%TO.N,Net-(D7-A)*%
X164650000Y-80170000D03*
%TD*%
D15*
%TO.P,SW11,A,A*%
%TO.N,ENC_1_A*%
X116250000Y-113000000D03*
D16*
%TO.P,SW11,B,B*%
%TO.N,ENC_1_B*%
X116250000Y-118000000D03*
%TO.P,SW11,C,C*%
%TO.N,GND*%
X116250000Y-115500000D03*
D17*
%TO.P,SW11,MP*%
%TO.N,N/C*%
X123750000Y-109900000D03*
X123750000Y-121100000D03*
D16*
%TO.P,SW11,S1,S1*%
%TO.N,COL3*%
X130750000Y-118000000D03*
%TO.P,SW11,S2,S2*%
%TO.N,ENC_1_SWA*%
X130750000Y-113000000D03*
%TD*%
D11*
%TO.P,SW5,1,1*%
%TO.N,COL0*%
X119550000Y-79120000D03*
D12*
%TO.P,SW5,2,2*%
%TO.N,Net-(D5-A)*%
X126550000Y-80170000D03*
%TD*%
D11*
%TO.P,SW8,1,1*%
%TO.N,COL3*%
X176700000Y-79120000D03*
D12*
%TO.P,SW8,2,2*%
%TO.N,Net-(D8-A)*%
X183700000Y-80170000D03*
%TD*%
D13*
%TO.P,J2,1,Pin_1*%
%TO.N,VCC*%
X148950000Y-126475000D03*
D14*
%TO.P,J2,2,Pin_2*%
%TO.N,I2C_SDA*%
X151490000Y-126475000D03*
%TO.P,J2,3,Pin_3*%
%TO.N,I2C_SCL*%
X154030000Y-126475000D03*
%TO.P,J2,4,Pin_4*%
%TO.N,GND*%
X156570000Y-126475000D03*
%TD*%
D11*
%TO.P,SW3,1,1*%
%TO.N,COL2*%
X157650000Y-60070000D03*
D12*
%TO.P,SW3,2,2*%
%TO.N,Net-(D3-A)*%
X164650000Y-61120000D03*
%TD*%
D11*
%TO.P,SW9,1,1*%
%TO.N,COL1*%
X138520000Y-120200000D03*
D12*
%TO.P,SW9,2,2*%
%TO.N,Net-(D10-A)*%
X145520000Y-121250000D03*
%TD*%
D18*
%TO.P,U2,1,PA02_A0_D0*%
%TO.N,COL0*%
X191000000Y-103600000D03*
D19*
%TO.P,U2,2,PA4_A1_D1*%
%TO.N,COL1*%
X188460000Y-103600000D03*
%TO.P,U2,3,PA10_A2_D2*%
%TO.N,COL2*%
X185920000Y-103600000D03*
%TO.P,U2,4,PA11_A3_D3*%
%TO.N,COL3*%
X183380000Y-103600000D03*
%TO.P,U2,5,PA8_A4_D4_SDA*%
%TO.N,I2C_SDA*%
X180840000Y-103600000D03*
%TO.P,U2,6,PA9_A5_D5_SCL*%
%TO.N,I2C_SCL*%
X178300000Y-103600000D03*
%TO.P,U2,7,PB08_A6_D6_TX*%
%TO.N,unconnected-(U2-PB08_A6_D6_TX-Pad7)*%
X175760000Y-103600000D03*
%TO.P,U2,8,PB09_A7_D7_RX*%
%TO.N,unconnected-(U2-PB09_A7_D7_RX-Pad8)*%
X175760000Y-86350000D03*
%TO.P,U2,9,PA7_A8_D8_SCK*%
%TO.N,ROW2*%
X178300000Y-86350000D03*
%TO.P,U2,10,PA5_A9_D9_MISO*%
%TO.N,ROW0*%
X180840000Y-86350000D03*
D20*
%TO.P,U2,11,PA6_A10_D10_MOSI*%
%TO.N,ROW1*%
X183380000Y-86350000D03*
%TO.P,U2,12,3V3*%
%TO.N,unconnected-(U2-3V3-Pad12)*%
X185920000Y-86350000D03*
%TO.P,U2,13,GND*%
%TO.N,GND*%
X188460000Y-86350000D03*
%TO.P,U2,14,5V*%
%TO.N,VCC*%
X191000000Y-86350000D03*
%TD*%
D21*
%TO.N,ROW0*%
X177861700Y-64500000D03*
%TO.N,ROW2*%
X171976000Y-102988000D03*
%TO.N,Net-(D11-A)*%
X165714000Y-105098000D03*
%TO.N,VCC*%
X148098000Y-112143000D03*
X121735000Y-103941000D03*
X191000000Y-83984700D03*
X118292000Y-71051700D03*
X120750000Y-52470000D03*
X121741000Y-92937100D03*
%TO.N,I2C_SDA*%
X136410000Y-102648000D03*
X151490000Y-102870000D03*
%TO.N,GND*%
X171584000Y-67448300D03*
X137889000Y-107898000D03*
X172000000Y-47750000D03*
X175052000Y-88638300D03*
%TO.N,I2C_SCL*%
X154030000Y-100750000D03*
X177309000Y-100293000D03*
%TO.N,ENC_2_B*%
X167214000Y-102576000D03*
%TO.N,COL1*%
X138520000Y-101912000D03*
%TO.N,COL2*%
X161304000Y-103600000D03*
%TO.N,COL3*%
X176817000Y-96753100D03*
X183489000Y-100878000D03*
X137232000Y-99022700D03*
%TO.N,RGB2*%
X139729000Y-92270000D03*
X139729000Y-108634000D03*
%TO.N,RGB*%
X115804000Y-88234000D03*
X118655000Y-49458500D03*
%TO.N,Net-(D25-DOUT)*%
X175052000Y-94771700D03*
X126552000Y-95509800D03*
%TD*%
D22*
%TO.N,ROW0*%
X180840000Y-87350000D02*
X180840000Y-79353000D01*
X180840000Y-79353000D02*
X177861700Y-76374700D01*
X177861700Y-76374700D02*
X177861700Y-64500000D01*
%TO.N,ROW2*%
X177432000Y-97532200D02*
X177432000Y-89320000D01*
X171976000Y-102988000D02*
X177432000Y-97532200D01*
X177432000Y-89320000D02*
X178300000Y-88451700D01*
X178300000Y-88451700D02*
X178300000Y-87350000D01*
%TO.N,Net-(D11-A)*%
X164570000Y-119998000D02*
X165714000Y-118855000D01*
X164570000Y-121250000D02*
X164570000Y-119998000D01*
X165714000Y-118855000D02*
X165714000Y-105098000D01*
%TO.N,VCC*%
X118292000Y-93043200D02*
X118292000Y-71051700D01*
X191000000Y-87350000D02*
X191000000Y-83984700D01*
X120815000Y-92937100D02*
X120552000Y-93200000D01*
X132522000Y-93620000D02*
X134300000Y-93620000D01*
X119500000Y-93200000D02*
X118448000Y-93200000D01*
X121741000Y-92937100D02*
X120815000Y-92937100D01*
X148950000Y-112995000D02*
X148098000Y-112143000D01*
X126026000Y-100000000D02*
X122085000Y-103941000D01*
X131050000Y-93200000D02*
X132102000Y-93200000D01*
X148950000Y-126475000D02*
X148950000Y-112995000D01*
X126552000Y-100000000D02*
X126026000Y-100000000D01*
X190450000Y-93200000D02*
X190976000Y-93200000D01*
X132102000Y-93200000D02*
X132522000Y-93620000D01*
X184900000Y-100000000D02*
X185952000Y-100000000D01*
X118292000Y-71051700D02*
X118292000Y-54928000D01*
X191502000Y-89003400D02*
X191000000Y-88501700D01*
X179075000Y-100802000D02*
X177848000Y-99574900D01*
X129998000Y-96553400D02*
X126552000Y-100000000D01*
X183516000Y-100000000D02*
X182715000Y-100802000D01*
X129998000Y-93200000D02*
X129998000Y-96553400D01*
X131050000Y-93200000D02*
X129998000Y-93200000D01*
X118448000Y-93200000D02*
X118292000Y-93043200D01*
X185952000Y-98224200D02*
X190976000Y-93200000D01*
X191000000Y-88501700D02*
X191000000Y-87350000D01*
X122085000Y-103941000D02*
X121735000Y-103941000D01*
X177848000Y-99574900D02*
X177848000Y-93200000D01*
X182715000Y-100802000D02*
X179075000Y-100802000D01*
X185952000Y-100000000D02*
X185952000Y-98224200D01*
X125500000Y-100000000D02*
X126026000Y-100000000D01*
X177848000Y-93200000D02*
X178900000Y-93200000D01*
X191502000Y-93200000D02*
X191502000Y-89003400D01*
X120552000Y-93200000D02*
X119500000Y-93200000D01*
X184900000Y-100000000D02*
X183516000Y-100000000D01*
X190976000Y-93200000D02*
X191502000Y-93200000D01*
X118292000Y-54928000D02*
X120750000Y-52470000D01*
%TO.N,I2C_SDA*%
X151490000Y-126475000D02*
X151490000Y-102870000D01*
X134300000Y-99851700D02*
X136410000Y-101962000D01*
X134300000Y-98700000D02*
X134300000Y-99851700D01*
X136410000Y-101962000D02*
X136410000Y-102648000D01*
%TO.N,GND*%
X126150000Y-90000000D02*
X127200000Y-90000000D01*
X188460000Y-88501700D02*
X188460000Y-87350000D01*
X128003000Y-89198300D02*
X127202000Y-90000000D01*
X188100000Y-88501700D02*
X188460000Y-88501700D01*
X126544000Y-94506300D02*
X128499000Y-92550700D01*
X120600000Y-96800000D02*
X121652000Y-96800000D01*
X137889000Y-98828700D02*
X137889000Y-107898000D01*
X186602000Y-90000000D02*
X188100000Y-88501700D01*
X175052000Y-90000000D02*
X175052000Y-88638300D01*
X131986000Y-89198300D02*
X128003000Y-89198300D01*
X134300000Y-91080000D02*
X133724000Y-91080000D01*
X116250000Y-115500000D02*
X119548000Y-112202000D01*
X115652000Y-92903400D02*
X119548000Y-96800000D01*
X174000000Y-90000000D02*
X175052000Y-90000000D01*
X172948000Y-90000000D02*
X171584000Y-88635600D01*
X120600000Y-96800000D02*
X119548000Y-96800000D01*
X133724000Y-91080000D02*
X137463000Y-94819000D01*
X127202000Y-90000000D02*
X127200000Y-90000000D01*
X133724000Y-91080000D02*
X133148000Y-91080000D01*
X171584000Y-48166000D02*
X172000000Y-47750000D01*
X171584000Y-88635600D02*
X171584000Y-67448300D01*
X174250000Y-115500000D02*
X171333000Y-112583000D01*
X137463000Y-98403100D02*
X137889000Y-98828700D01*
X133148000Y-90360200D02*
X131986000Y-89198300D01*
X180000000Y-96800000D02*
X181052000Y-96800000D01*
X123945000Y-94506300D02*
X126544000Y-94506300D01*
X171333000Y-112583000D02*
X171333000Y-91615100D01*
X184498000Y-90000000D02*
X185550000Y-90000000D01*
X174000000Y-90000000D02*
X172948000Y-90000000D01*
X185550000Y-90000000D02*
X186602000Y-90000000D01*
X128499000Y-91299100D02*
X127200000Y-90000000D01*
X119548000Y-112202000D02*
X119548000Y-96800000D01*
X171584000Y-67448300D02*
X171584000Y-48166000D01*
X121652000Y-96800000D02*
X123945000Y-94506300D01*
X115652000Y-90000000D02*
X115652000Y-92903400D01*
X128499000Y-92550700D02*
X128499000Y-91299100D01*
X181052000Y-96800000D02*
X184498000Y-93353400D01*
X184498000Y-93353400D02*
X184498000Y-90000000D01*
X133148000Y-91080000D02*
X133148000Y-90360200D01*
X171333000Y-91615100D02*
X172948000Y-90000000D01*
X114600000Y-90000000D02*
X115652000Y-90000000D01*
X137463000Y-94819000D02*
X137463000Y-98403100D01*
%TO.N,I2C_SCL*%
X178300000Y-101498000D02*
X177309000Y-100507000D01*
X178300000Y-102600000D02*
X178300000Y-101498000D01*
X177309000Y-100507000D02*
X177309000Y-100293000D01*
X154030000Y-126475000D02*
X154030000Y-100750000D01*
%TO.N,ENC_2_B*%
X167214000Y-110964000D02*
X167214000Y-102576000D01*
X174250000Y-118000000D02*
X167214000Y-110964000D01*
%TO.N,COL0*%
X119550000Y-60070000D02*
X119550000Y-79120000D01*
X191000000Y-115750000D02*
X188750000Y-118000000D01*
X191000000Y-102600000D02*
X191000000Y-115750000D01*
%TO.N,COL1*%
X138600000Y-101832000D02*
X138520000Y-101912000D01*
X138600000Y-60070000D02*
X138600000Y-79120000D01*
X138600000Y-79120000D02*
X138600000Y-101832000D01*
X138520000Y-120200000D02*
X138520000Y-101912000D01*
%TO.N,COL2*%
X157650000Y-99946300D02*
X161304000Y-103600000D01*
X157570000Y-120200000D02*
X157570000Y-107334000D01*
X157650000Y-79120000D02*
X157650000Y-99946300D01*
X157570000Y-107334000D02*
X161304000Y-103600000D01*
X157650000Y-60070000D02*
X157650000Y-79120000D01*
%TO.N,COL3*%
X176700000Y-60070000D02*
X176700000Y-79120000D01*
X176948000Y-96622500D02*
X176817000Y-96753100D01*
X176948000Y-80894200D02*
X176948000Y-96622500D01*
X183489000Y-101389000D02*
X183489000Y-100878000D01*
X176700000Y-79120000D02*
X176700000Y-80646700D01*
X137232000Y-111518000D02*
X137232000Y-99022700D01*
X183380000Y-102600000D02*
X183380000Y-101498000D01*
X130750000Y-118000000D02*
X137232000Y-111518000D01*
X183380000Y-101498000D02*
X183489000Y-101389000D01*
X176700000Y-80646700D02*
X176948000Y-80894200D01*
%TO.N,RGB2*%
X139729000Y-108634000D02*
X139729000Y-92270000D01*
%TO.N,RGB*%
X115804000Y-51831200D02*
X118176000Y-49458500D01*
X118176000Y-49458500D02*
X118655000Y-49458500D01*
X115804000Y-88234000D02*
X115804000Y-51831200D01*
%TO.N,Net-(D23-DOUT)*%
X121898000Y-90000000D02*
X119500000Y-90000000D01*
X125098000Y-93200000D02*
X121898000Y-90000000D01*
X126150000Y-93200000D02*
X125098000Y-93200000D01*
%TO.N,Net-(D24-DOUT)*%
X129998000Y-91619700D02*
X129998000Y-90000000D01*
X121652000Y-100000000D02*
X121652000Y-98948300D01*
X129998000Y-90000000D02*
X131050000Y-90000000D01*
X125692000Y-94908000D02*
X126710000Y-94908000D01*
X120600000Y-100000000D02*
X121652000Y-100000000D01*
X126710000Y-94908000D02*
X129998000Y-91619700D01*
X121652000Y-98948300D02*
X125692000Y-94908000D01*
%TO.N,Net-(D25-DOUT)*%
X175052000Y-93200000D02*
X175052000Y-94771700D01*
X174000000Y-93200000D02*
X175052000Y-93200000D01*
X126552000Y-96800000D02*
X126552000Y-95509800D01*
X125500000Y-96800000D02*
X126552000Y-96800000D01*
%TO.N,Net-(D26-DOUT)*%
X179952000Y-94527500D02*
X179952000Y-90000000D01*
X178924000Y-97402000D02*
X178924000Y-95554700D01*
X179952000Y-90000000D02*
X178900000Y-90000000D01*
X185550000Y-93200000D02*
X181131000Y-97619400D01*
X181131000Y-97619400D02*
X179142000Y-97619400D01*
X179142000Y-97619400D02*
X178924000Y-97402000D01*
X178924000Y-95554700D02*
X179952000Y-94527500D01*
%TO.N,Net-(D27-DOUT)*%
X185790000Y-94659800D02*
X189398000Y-91051700D01*
X189398000Y-91051700D02*
X189398000Y-90000000D01*
X181052000Y-100000000D02*
X181052000Y-98948300D01*
X180000000Y-100000000D02*
X181052000Y-100000000D01*
X185340000Y-94659800D02*
X185790000Y-94659800D01*
X181052000Y-98948300D02*
X185340000Y-94659800D01*
X189398000Y-90000000D02*
X190450000Y-90000000D01*
%TD*%
M02*
