%TF.GenerationSoftware,KiCad,Pcbnew,8.0.7*%
%TF.CreationDate,2025-02-09T11:28:35-05:00*%
%TF.ProjectId,makropad,6d616b72-6f70-4616-942e-6b696361645f,rev?*%
%TF.SameCoordinates,Original*%
%TF.FileFunction,Soldermask,Bot*%
%TF.FilePolarity,Negative*%
%FSLAX46Y46*%
G04 Gerber Fmt 4.6, Leading zero omitted, Abs format (unit mm)*
G04 Created by KiCad (PCBNEW 8.0.7) date 2025-02-09 11:28:35*
%MOMM*%
%LPD*%
G01*
G04 APERTURE LIST*
G04 Aperture macros list*
%AMRoundRect*
0 Rectangle with rounded corners*
0 $1 Rounding radius*
0 $2 $3 $4 $5 $6 $7 $8 $9 X,Y pos of 4 corners*
0 Add a 4 corners polygon primitive as box body*
4,1,4,$2,$3,$4,$5,$6,$7,$8,$9,$2,$3,0*
0 Add four circle primitives for the rounded corners*
1,1,$1+$1,$2,$3*
1,1,$1+$1,$4,$5*
1,1,$1+$1,$6,$7*
1,1,$1+$1,$8,$9*
0 Add four rect primitives between the rounded corners*
20,1,$1+$1,$2,$3,$4,$5,0*
20,1,$1+$1,$4,$5,$6,$7,0*
20,1,$1+$1,$6,$7,$8,$9,0*
20,1,$1+$1,$8,$9,$2,$3,0*%
%AMOutline5P*
0 Free polygon, 5 corners , with rotation*
0 The origin of the aperture is its center*
0 number of corners: always 5*
0 $1 to $10 corner X, Y*
0 $11 Rotation angle, in degrees counterclockwise*
0 create outline with 5 corners*
4,1,5,$1,$2,$3,$4,$5,$6,$7,$8,$9,$10,$1,$2,$11*%
%AMOutline6P*
0 Free polygon, 6 corners , with rotation*
0 The origin of the aperture is its center*
0 number of corners: always 6*
0 $1 to $12 corner X, Y*
0 $13 Rotation angle, in degrees counterclockwise*
0 create outline with 6 corners*
4,1,6,$1,$2,$3,$4,$5,$6,$7,$8,$9,$10,$11,$12,$1,$2,$13*%
%AMOutline7P*
0 Free polygon, 7 corners , with rotation*
0 The origin of the aperture is its center*
0 number of corners: always 7*
0 $1 to $14 corner X, Y*
0 $15 Rotation angle, in degrees counterclockwise*
0 create outline with 7 corners*
4,1,7,$1,$2,$3,$4,$5,$6,$7,$8,$9,$10,$11,$12,$13,$14,$1,$2,$15*%
%AMOutline8P*
0 Free polygon, 8 corners , with rotation*
0 The origin of the aperture is its center*
0 number of corners: always 8*
0 $1 to $16 corner X, Y*
0 $17 Rotation angle, in degrees counterclockwise*
0 create outline with 8 corners*
4,1,8,$1,$2,$3,$4,$5,$6,$7,$8,$9,$10,$11,$12,$13,$14,$15,$16,$1,$2,$17*%
G04 Aperture macros list end*
%ADD10C,1.701800*%
%ADD11C,3.987800*%
%ADD12C,2.300000*%
%ADD13R,1.700000X1.700000*%
%ADD14O,1.700000X1.700000*%
%ADD15R,2.000000X2.000000*%
%ADD16C,2.000000*%
%ADD17R,3.200000X2.000000*%
%ADD18RoundRect,0.225000X-0.375000X0.225000X-0.375000X-0.225000X0.375000X-0.225000X0.375000X0.225000X0*%
%ADD19R,1.800000X0.820000*%
%ADD20Outline5P,-0.900000X0.410000X0.900000X0.410000X0.900000X-0.246000X0.736000X-0.410000X-0.900000X-0.410000X180.000000*%
%ADD21RoundRect,0.250000X0.625000X-0.312500X0.625000X0.312500X-0.625000X0.312500X-0.625000X-0.312500X0*%
%ADD22RoundRect,0.250000X0.312500X0.625000X-0.312500X0.625000X-0.312500X-0.625000X0.312500X-0.625000X0*%
%ADD23RoundRect,0.225000X0.225000X0.375000X-0.225000X0.375000X-0.225000X-0.375000X0.225000X-0.375000X0*%
%ADD24RoundRect,0.102000X-0.901700X-0.266700X0.901700X-0.266700X0.901700X0.266700X-0.901700X0.266700X0*%
%ADD25RoundRect,0.225000X-0.225000X-0.375000X0.225000X-0.375000X0.225000X0.375000X-0.225000X0.375000X0*%
%ADD26RoundRect,0.250000X-0.312500X-0.625000X0.312500X-0.625000X0.312500X0.625000X-0.312500X0.625000X0*%
%ADD27R,1.700000X3.500000*%
%ADD28O,1.700000X3.600000*%
%ADD29O,1.700000X3.700000*%
G04 APERTURE END LIST*
D10*
%TO.C,SW4*%
X176020000Y-55370000D03*
D11*
X181100000Y-55370000D03*
D10*
X186180000Y-55370000D03*
D12*
X177290000Y-52830000D03*
X183640000Y-50290000D03*
%TD*%
D10*
%TO.C,SW10*%
X156890000Y-115500000D03*
D11*
X161970000Y-115500000D03*
D10*
X167050000Y-115500000D03*
D12*
X158160000Y-112960000D03*
X164510000Y-110420000D03*
%TD*%
D10*
%TO.C,SW1*%
X118870000Y-55370000D03*
D11*
X123950000Y-55370000D03*
D10*
X129030000Y-55370000D03*
D12*
X120140000Y-52830000D03*
X126490000Y-50290000D03*
%TD*%
D13*
%TO.C,J5*%
X191925000Y-61000000D03*
D14*
X191925000Y-63540000D03*
X191925000Y-66080000D03*
X191925000Y-68620000D03*
%TD*%
D13*
%TO.C,J1*%
X134300000Y-98700000D03*
D14*
X134300000Y-96160000D03*
X134300000Y-93620000D03*
X134300000Y-91080000D03*
%TD*%
D13*
%TO.C,J2*%
X112925000Y-61000000D03*
D14*
X112925000Y-63540000D03*
X112925000Y-66080000D03*
X112925000Y-68620000D03*
%TD*%
D15*
%TO.C,SW12*%
X174250000Y-113000000D03*
D16*
X174250000Y-118000000D03*
X174250000Y-115500000D03*
D17*
X181750000Y-109900000D03*
X181750000Y-121100000D03*
D16*
X188750000Y-118000000D03*
X188750000Y-113000000D03*
%TD*%
D10*
%TO.C,SW6*%
X137920000Y-74420000D03*
D11*
X143000000Y-74420000D03*
D10*
X148080000Y-74420000D03*
D12*
X139190000Y-71880000D03*
X145540000Y-69340000D03*
%TD*%
D13*
%TO.C,J3*%
X148900000Y-44475000D03*
D14*
X151440000Y-44475000D03*
X153980000Y-44475000D03*
X156520000Y-44475000D03*
%TD*%
D10*
%TO.C,SW2*%
X137920000Y-55370000D03*
D11*
X143000000Y-55370000D03*
D10*
X148080000Y-55370000D03*
D12*
X139190000Y-52830000D03*
X145540000Y-50290000D03*
%TD*%
D10*
%TO.C,SW7*%
X156970000Y-74420000D03*
D11*
X162050000Y-74420000D03*
D10*
X167130000Y-74420000D03*
D12*
X158240000Y-71880000D03*
X164590000Y-69340000D03*
%TD*%
D15*
%TO.C,SW11*%
X116250000Y-113000000D03*
D16*
X116250000Y-118000000D03*
X116250000Y-115500000D03*
D17*
X123750000Y-109900000D03*
X123750000Y-121100000D03*
D16*
X130750000Y-118000000D03*
X130750000Y-113000000D03*
%TD*%
D10*
%TO.C,SW5*%
X118870000Y-74420000D03*
D11*
X123950000Y-74420000D03*
D10*
X129030000Y-74420000D03*
D12*
X120140000Y-71880000D03*
X126490000Y-69340000D03*
%TD*%
D13*
%TO.C,J4*%
X148900000Y-126575000D03*
D14*
X151440000Y-126575000D03*
X153980000Y-126575000D03*
X156520000Y-126575000D03*
%TD*%
D10*
%TO.C,SW8*%
X176020000Y-74420000D03*
D11*
X181100000Y-74420000D03*
D10*
X186180000Y-74420000D03*
D12*
X177290000Y-71880000D03*
X183640000Y-69340000D03*
%TD*%
D10*
%TO.C,SW3*%
X156970000Y-55370000D03*
D11*
X162050000Y-55370000D03*
D10*
X167130000Y-55370000D03*
D12*
X158240000Y-52830000D03*
X164590000Y-50290000D03*
%TD*%
D10*
%TO.C,SW9*%
X137840000Y-115500000D03*
D11*
X142920000Y-115500000D03*
D10*
X148000000Y-115500000D03*
D12*
X139110000Y-112960000D03*
X145460000Y-110420000D03*
%TD*%
D18*
%TO.C,D5*%
X132250000Y-66200000D03*
X132250000Y-69500000D03*
%TD*%
D19*
%TO.C,D19*%
X164650000Y-78750000D03*
D20*
X159450000Y-78750000D03*
D19*
X159450000Y-80250000D03*
X164650000Y-80250000D03*
%TD*%
D21*
%TO.C,R4*%
X125200000Y-106623000D03*
X125200000Y-103698000D03*
%TD*%
D18*
%TO.C,D1*%
X132250000Y-47200000D03*
X132250000Y-50500000D03*
%TD*%
D19*
%TO.C,D21*%
X145570000Y-119031900D03*
D20*
X140370000Y-119031900D03*
D19*
X140370000Y-120531900D03*
X145570000Y-120531900D03*
%TD*%
D18*
%TO.C,D10*%
X134600000Y-106950000D03*
X134600000Y-110250000D03*
%TD*%
D22*
%TO.C,R1*%
X142462500Y-104000000D03*
X139537500Y-104000000D03*
%TD*%
D19*
%TO.C,D16*%
X183700000Y-59700000D03*
D20*
X178500000Y-59700000D03*
D19*
X178500000Y-61200000D03*
X183700000Y-61200000D03*
%TD*%
%TO.C,D20*%
X183700000Y-78750000D03*
D20*
X178500000Y-78750000D03*
D19*
X178500000Y-80250000D03*
X183700000Y-80250000D03*
%TD*%
D21*
%TO.C,R5*%
X119500000Y-106423000D03*
X119500000Y-103498000D03*
%TD*%
D18*
%TO.C,D2*%
X151250000Y-47200000D03*
X151250000Y-50500000D03*
%TD*%
%TO.C,D7*%
X170400000Y-66250000D03*
X170400000Y-69550000D03*
%TD*%
D21*
%TO.C,R6*%
X117100000Y-106423000D03*
X117100000Y-103498000D03*
%TD*%
D18*
%TO.C,D8*%
X189300000Y-66350000D03*
X189300000Y-69650000D03*
%TD*%
%TO.C,D3*%
X170500000Y-47200000D03*
X170500000Y-50500000D03*
%TD*%
D19*
%TO.C,D18*%
X145600000Y-78750000D03*
D20*
X140400000Y-78750000D03*
D19*
X140400000Y-80250000D03*
X145600000Y-80250000D03*
%TD*%
%TO.C,D14*%
X145600000Y-59700000D03*
D20*
X140400000Y-59700000D03*
D19*
X140400000Y-61200000D03*
X145600000Y-61200000D03*
%TD*%
%TO.C,D13*%
X126550000Y-59700000D03*
D20*
X121350000Y-59700000D03*
D19*
X121350000Y-61200000D03*
X126550000Y-61200000D03*
%TD*%
%TO.C,D17*%
X126550000Y-78750000D03*
D20*
X121350000Y-78750000D03*
D19*
X121350000Y-80250000D03*
X126550000Y-80250000D03*
%TD*%
D23*
%TO.C,D9*%
X165650000Y-103900000D03*
X162350000Y-103900000D03*
%TD*%
D24*
%TO.C,U1*%
X119449600Y-99890000D03*
X119449600Y-98620000D03*
X119449600Y-97350000D03*
X119449600Y-96080000D03*
X119449600Y-94810000D03*
X119449600Y-93540000D03*
X119449600Y-92270000D03*
X119449600Y-91000000D03*
X129000000Y-91000000D03*
X129000000Y-92270000D03*
X129000000Y-93540000D03*
X129000000Y-94810000D03*
X129000000Y-96080000D03*
X129000000Y-97350000D03*
X129000000Y-98620000D03*
X129000000Y-99890000D03*
%TD*%
D19*
%TO.C,D15*%
X164650000Y-59700000D03*
D20*
X159450000Y-59700000D03*
D19*
X159450000Y-61200000D03*
X164650000Y-61200000D03*
%TD*%
D25*
%TO.C,D11*%
X167150000Y-103900000D03*
X170450000Y-103900000D03*
%TD*%
D26*
%TO.C,R2*%
X134537500Y-104000000D03*
X137462500Y-104000000D03*
%TD*%
D18*
%TO.C,D4*%
X189500000Y-47200000D03*
X189500000Y-50500000D03*
%TD*%
%TO.C,D12*%
X132200000Y-106950000D03*
X132200000Y-110250000D03*
%TD*%
D21*
%TO.C,R3*%
X127600000Y-106623000D03*
X127600000Y-103698000D03*
%TD*%
D27*
%TO.C,U2*%
X191000000Y-103600000D03*
D28*
X188460000Y-103600000D03*
X185920000Y-103600000D03*
X183380000Y-103600000D03*
X180840000Y-103600000D03*
X178300000Y-103600000D03*
X175760000Y-103600000D03*
X175760000Y-86350000D03*
X178300000Y-86350000D03*
X180840000Y-86350000D03*
D29*
X183380000Y-86350000D03*
X185920000Y-86350000D03*
X188460000Y-86350000D03*
X191000000Y-86350000D03*
%TD*%
D19*
%TO.C,D22*%
X164570000Y-119031900D03*
D20*
X159370000Y-119031900D03*
D19*
X159370000Y-120531900D03*
X164570000Y-120531900D03*
%TD*%
D18*
%TO.C,D6*%
X151300000Y-66250000D03*
X151300000Y-69550000D03*
%TD*%
M02*
