%TF.GenerationSoftware,KiCad,Pcbnew,8.0.7*%
%TF.CreationDate,2025-02-09T11:28:35-05:00*%
%TF.ProjectId,makropad,6d616b72-6f70-4616-942e-6b696361645f,rev?*%
%TF.SameCoordinates,Original*%
%TF.FileFunction,Copper,L2,Bot*%
%TF.FilePolarity,Positive*%
%FSLAX46Y46*%
G04 Gerber Fmt 4.6, Leading zero omitted, Abs format (unit mm)*
G04 Created by KiCad (PCBNEW 8.0.7) date 2025-02-09 11:28:35*
%MOMM*%
%LPD*%
G01*
G04 APERTURE LIST*
G04 Aperture macros list*
%AMRoundRect*
0 Rectangle with rounded corners*
0 $1 Rounding radius*
0 $2 $3 $4 $5 $6 $7 $8 $9 X,Y pos of 4 corners*
0 Add a 4 corners polygon primitive as box body*
4,1,4,$2,$3,$4,$5,$6,$7,$8,$9,$2,$3,0*
0 Add four circle primitives for the rounded corners*
1,1,$1+$1,$2,$3*
1,1,$1+$1,$4,$5*
1,1,$1+$1,$6,$7*
1,1,$1+$1,$8,$9*
0 Add four rect primitives between the rounded corners*
20,1,$1+$1,$2,$3,$4,$5,0*
20,1,$1+$1,$4,$5,$6,$7,0*
20,1,$1+$1,$6,$7,$8,$9,0*
20,1,$1+$1,$8,$9,$2,$3,0*%
%AMOutline5P*
0 Free polygon, 5 corners , with rotation*
0 The origin of the aperture is its center*
0 number of corners: always 5*
0 $1 to $10 corner X, Y*
0 $11 Rotation angle, in degrees counterclockwise*
0 create outline with 5 corners*
4,1,5,$1,$2,$3,$4,$5,$6,$7,$8,$9,$10,$1,$2,$11*%
%AMOutline6P*
0 Free polygon, 6 corners , with rotation*
0 The origin of the aperture is its center*
0 number of corners: always 6*
0 $1 to $12 corner X, Y*
0 $13 Rotation angle, in degrees counterclockwise*
0 create outline with 6 corners*
4,1,6,$1,$2,$3,$4,$5,$6,$7,$8,$9,$10,$11,$12,$1,$2,$13*%
%AMOutline7P*
0 Free polygon, 7 corners , with rotation*
0 The origin of the aperture is its center*
0 number of corners: always 7*
0 $1 to $14 corner X, Y*
0 $15 Rotation angle, in degrees counterclockwise*
0 create outline with 7 corners*
4,1,7,$1,$2,$3,$4,$5,$6,$7,$8,$9,$10,$11,$12,$13,$14,$1,$2,$15*%
%AMOutline8P*
0 Free polygon, 8 corners , with rotation*
0 The origin of the aperture is its center*
0 number of corners: always 8*
0 $1 to $16 corner X, Y*
0 $17 Rotation angle, in degrees counterclockwise*
0 create outline with 8 corners*
4,1,8,$1,$2,$3,$4,$5,$6,$7,$8,$9,$10,$11,$12,$13,$14,$15,$16,$1,$2,$17*%
G04 Aperture macros list end*
%TA.AperFunction,ComponentPad*%
%ADD10C,2.300000*%
%TD*%
%TA.AperFunction,ComponentPad*%
%ADD11R,1.700000X1.700000*%
%TD*%
%TA.AperFunction,ComponentPad*%
%ADD12O,1.700000X1.700000*%
%TD*%
%TA.AperFunction,ComponentPad*%
%ADD13R,2.000000X2.000000*%
%TD*%
%TA.AperFunction,ComponentPad*%
%ADD14C,2.000000*%
%TD*%
%TA.AperFunction,ComponentPad*%
%ADD15R,3.200000X2.000000*%
%TD*%
%TA.AperFunction,SMDPad,CuDef*%
%ADD16RoundRect,0.225000X-0.375000X0.225000X-0.375000X-0.225000X0.375000X-0.225000X0.375000X0.225000X0*%
%TD*%
%TA.AperFunction,SMDPad,CuDef*%
%ADD17R,1.800000X0.820000*%
%TD*%
%TA.AperFunction,SMDPad,CuDef*%
%ADD18Outline5P,-0.900000X0.410000X0.900000X0.410000X0.900000X-0.246000X0.736000X-0.410000X-0.900000X-0.410000X180.000000*%
%TD*%
%TA.AperFunction,SMDPad,CuDef*%
%ADD19RoundRect,0.250000X0.625000X-0.312500X0.625000X0.312500X-0.625000X0.312500X-0.625000X-0.312500X0*%
%TD*%
%TA.AperFunction,SMDPad,CuDef*%
%ADD20RoundRect,0.250000X0.312500X0.625000X-0.312500X0.625000X-0.312500X-0.625000X0.312500X-0.625000X0*%
%TD*%
%TA.AperFunction,SMDPad,CuDef*%
%ADD21RoundRect,0.225000X0.225000X0.375000X-0.225000X0.375000X-0.225000X-0.375000X0.225000X-0.375000X0*%
%TD*%
%TA.AperFunction,SMDPad,CuDef*%
%ADD22R,1.803400X0.533400*%
%TD*%
%TA.AperFunction,SMDPad,CuDef*%
%ADD23RoundRect,0.225000X-0.225000X-0.375000X0.225000X-0.375000X0.225000X0.375000X-0.225000X0.375000X0*%
%TD*%
%TA.AperFunction,SMDPad,CuDef*%
%ADD24RoundRect,0.250000X-0.312500X-0.625000X0.312500X-0.625000X0.312500X0.625000X-0.312500X0.625000X0*%
%TD*%
%TA.AperFunction,ComponentPad*%
%ADD25R,1.700000X3.500000*%
%TD*%
%TA.AperFunction,ComponentPad*%
%ADD26O,1.700000X3.600000*%
%TD*%
%TA.AperFunction,ComponentPad*%
%ADD27O,1.700000X3.700000*%
%TD*%
%TA.AperFunction,ViaPad*%
%ADD28C,0.600000*%
%TD*%
%TA.AperFunction,Conductor*%
%ADD29C,0.200000*%
%TD*%
G04 APERTURE END LIST*
D10*
%TO.P,SW4,1,1*%
%TO.N,COL3*%
X177290000Y-52830000D03*
%TO.P,SW4,2,2*%
%TO.N,Net-(D4-A)*%
X183640000Y-50290000D03*
%TD*%
%TO.P,SW10,1,1*%
%TO.N,COL2*%
X158160000Y-112960000D03*
%TO.P,SW10,2,2*%
%TO.N,Net-(D11-A)*%
X164510000Y-110420000D03*
%TD*%
%TO.P,SW1,1,1*%
%TO.N,COL0*%
X120140000Y-52830000D03*
%TO.P,SW1,2,2*%
%TO.N,Net-(D1-A)*%
X126490000Y-50290000D03*
%TD*%
D11*
%TO.P,J5,1,Pin_1*%
%TO.N,VCC*%
X191925000Y-61000000D03*
D12*
%TO.P,J5,2,Pin_2*%
%TO.N,I2C_SDA*%
X191925000Y-63540000D03*
%TO.P,J5,3,Pin_3*%
%TO.N,I2C_SCL*%
X191925000Y-66080000D03*
%TO.P,J5,4,Pin_4*%
%TO.N,GND*%
X191925000Y-68620000D03*
%TD*%
D11*
%TO.P,J1,1,Pin_1*%
%TO.N,I2C_SDA*%
X134300000Y-98700000D03*
D12*
%TO.P,J1,2,Pin_2*%
%TO.N,I2C_SCL*%
X134300000Y-96160000D03*
%TO.P,J1,3,Pin_3*%
%TO.N,VCC*%
X134300000Y-93620000D03*
%TO.P,J1,4,Pin_4*%
%TO.N,GND*%
X134300000Y-91080000D03*
%TD*%
D11*
%TO.P,J2,1,Pin_1*%
%TO.N,VCC*%
X112925000Y-61000000D03*
D12*
%TO.P,J2,2,Pin_2*%
%TO.N,I2C_SDA*%
X112925000Y-63540000D03*
%TO.P,J2,3,Pin_3*%
%TO.N,I2C_SCL*%
X112925000Y-66080000D03*
%TO.P,J2,4,Pin_4*%
%TO.N,GND*%
X112925000Y-68620000D03*
%TD*%
D13*
%TO.P,SW12,A,A*%
%TO.N,ENC_2_A*%
X174250000Y-113000000D03*
D14*
%TO.P,SW12,B,B*%
%TO.N,ENC_2_B*%
X174250000Y-118000000D03*
%TO.P,SW12,C,C*%
%TO.N,GND*%
X174250000Y-115500000D03*
D15*
%TO.P,SW12,MP*%
%TO.N,N/C*%
X181750000Y-109900000D03*
X181750000Y-121100000D03*
D14*
%TO.P,SW12,S1,S1*%
%TO.N,COL0*%
X188750000Y-118000000D03*
%TO.P,SW12,S2,S2*%
%TO.N,ENC_2_SWA*%
X188750000Y-113000000D03*
%TD*%
D10*
%TO.P,SW6,1,1*%
%TO.N,COL1*%
X139190000Y-71880000D03*
%TO.P,SW6,2,2*%
%TO.N,Net-(D6-A)*%
X145540000Y-69340000D03*
%TD*%
D11*
%TO.P,J3,1,Pin_1*%
%TO.N,VCC*%
X148900000Y-44475000D03*
D12*
%TO.P,J3,2,Pin_2*%
%TO.N,I2C_SDA*%
X151440000Y-44475000D03*
%TO.P,J3,3,Pin_3*%
%TO.N,I2C_SCL*%
X153980000Y-44475000D03*
%TO.P,J3,4,Pin_4*%
%TO.N,GND*%
X156520000Y-44475000D03*
%TD*%
D10*
%TO.P,SW2,1,1*%
%TO.N,COL1*%
X139190000Y-52830000D03*
%TO.P,SW2,2,2*%
%TO.N,Net-(D2-A)*%
X145540000Y-50290000D03*
%TD*%
%TO.P,SW7,1,1*%
%TO.N,COL2*%
X158240000Y-71880000D03*
%TO.P,SW7,2,2*%
%TO.N,Net-(D7-A)*%
X164590000Y-69340000D03*
%TD*%
D13*
%TO.P,SW11,A,A*%
%TO.N,ENC_1_A*%
X116250000Y-113000000D03*
D14*
%TO.P,SW11,B,B*%
%TO.N,ENC_1_B*%
X116250000Y-118000000D03*
%TO.P,SW11,C,C*%
%TO.N,GND*%
X116250000Y-115500000D03*
D15*
%TO.P,SW11,MP*%
%TO.N,N/C*%
X123750000Y-109900000D03*
X123750000Y-121100000D03*
D14*
%TO.P,SW11,S1,S1*%
%TO.N,COL3*%
X130750000Y-118000000D03*
%TO.P,SW11,S2,S2*%
%TO.N,ENC_1_SWA*%
X130750000Y-113000000D03*
%TD*%
D10*
%TO.P,SW5,1,1*%
%TO.N,COL0*%
X120140000Y-71880000D03*
%TO.P,SW5,2,2*%
%TO.N,Net-(D5-A)*%
X126490000Y-69340000D03*
%TD*%
D11*
%TO.P,J4,1,Pin_1*%
%TO.N,VCC*%
X148900000Y-126575000D03*
D12*
%TO.P,J4,2,Pin_2*%
%TO.N,I2C_SDA*%
X151440000Y-126575000D03*
%TO.P,J4,3,Pin_3*%
%TO.N,I2C_SCL*%
X153980000Y-126575000D03*
%TO.P,J4,4,Pin_4*%
%TO.N,GND*%
X156520000Y-126575000D03*
%TD*%
D10*
%TO.P,SW8,1,1*%
%TO.N,COL3*%
X177290000Y-71880000D03*
%TO.P,SW8,2,2*%
%TO.N,Net-(D8-A)*%
X183640000Y-69340000D03*
%TD*%
%TO.P,SW3,1,1*%
%TO.N,COL2*%
X158240000Y-52830000D03*
%TO.P,SW3,2,2*%
%TO.N,Net-(D3-A)*%
X164590000Y-50290000D03*
%TD*%
%TO.P,SW9,1,1*%
%TO.N,COL1*%
X139110000Y-112960000D03*
%TO.P,SW9,2,2*%
%TO.N,Net-(D10-A)*%
X145460000Y-110420000D03*
%TD*%
D16*
%TO.P,D5,1,K*%
%TO.N,ROW1*%
X132250000Y-66200000D03*
%TO.P,D5,2,A*%
%TO.N,Net-(D5-A)*%
X132250000Y-69500000D03*
%TD*%
D17*
%TO.P,D19,1,VSS*%
%TO.N,GND*%
X164650000Y-78750000D03*
D18*
%TO.P,D19,2,DIN*%
%TO.N,Net-(D18-DOUT)*%
X159450000Y-78750000D03*
D17*
%TO.P,D19,3,VDD*%
%TO.N,VCC*%
X159450000Y-80250000D03*
%TO.P,D19,4,DOUT*%
%TO.N,Net-(D19-DOUT)*%
X164650000Y-80250000D03*
%TD*%
D19*
%TO.P,R4,1*%
%TO.N,ENC_2_A*%
X125200000Y-106623000D03*
%TO.P,R4,2*%
%TO.N,VCC*%
X125200000Y-103698000D03*
%TD*%
D16*
%TO.P,D1,1,K*%
%TO.N,ROW0*%
X132250000Y-47200000D03*
%TO.P,D1,2,A*%
%TO.N,Net-(D1-A)*%
X132250000Y-50500000D03*
%TD*%
D17*
%TO.P,D21,1,VSS*%
%TO.N,GND*%
X145570000Y-119031900D03*
D18*
%TO.P,D21,2,DIN*%
%TO.N,Net-(D20-DOUT)*%
X140370000Y-119031900D03*
D17*
%TO.P,D21,3,VDD*%
%TO.N,VCC*%
X140370000Y-120531900D03*
%TO.P,D21,4,DOUT*%
%TO.N,Net-(D21-DOUT)*%
X145570000Y-120531900D03*
%TD*%
D16*
%TO.P,D10,1,K*%
%TO.N,ROW2*%
X134600000Y-106950000D03*
%TO.P,D10,2,A*%
%TO.N,Net-(D10-A)*%
X134600000Y-110250000D03*
%TD*%
D20*
%TO.P,R1,1*%
%TO.N,I2C_SDA*%
X142462500Y-104000000D03*
%TO.P,R1,2*%
%TO.N,VCC*%
X139537500Y-104000000D03*
%TD*%
D17*
%TO.P,D16,1,VSS*%
%TO.N,GND*%
X183700000Y-59700000D03*
D18*
%TO.P,D16,2,DIN*%
%TO.N,Net-(D15-DOUT)*%
X178500000Y-59700000D03*
D17*
%TO.P,D16,3,VDD*%
%TO.N,VCC*%
X178500000Y-61200000D03*
%TO.P,D16,4,DOUT*%
%TO.N,Net-(D16-DOUT)*%
X183700000Y-61200000D03*
%TD*%
%TO.P,D20,1,VSS*%
%TO.N,GND*%
X183700000Y-78750000D03*
D18*
%TO.P,D20,2,DIN*%
%TO.N,Net-(D19-DOUT)*%
X178500000Y-78750000D03*
D17*
%TO.P,D20,3,VDD*%
%TO.N,VCC*%
X178500000Y-80250000D03*
%TO.P,D20,4,DOUT*%
%TO.N,Net-(D20-DOUT)*%
X183700000Y-80250000D03*
%TD*%
D19*
%TO.P,R5,1*%
%TO.N,ENC_1_B*%
X119500000Y-106423000D03*
%TO.P,R5,2*%
%TO.N,VCC*%
X119500000Y-103498000D03*
%TD*%
D16*
%TO.P,D2,1,K*%
%TO.N,ROW0*%
X151250000Y-47200000D03*
%TO.P,D2,2,A*%
%TO.N,Net-(D2-A)*%
X151250000Y-50500000D03*
%TD*%
%TO.P,D7,1,K*%
%TO.N,ROW1*%
X170400000Y-66250000D03*
%TO.P,D7,2,A*%
%TO.N,Net-(D7-A)*%
X170400000Y-69550000D03*
%TD*%
D19*
%TO.P,R6,1*%
%TO.N,ENC_1_A*%
X117100000Y-106423000D03*
%TO.P,R6,2*%
%TO.N,VCC*%
X117100000Y-103498000D03*
%TD*%
D16*
%TO.P,D8,1,K*%
%TO.N,ROW1*%
X189300000Y-66350000D03*
%TO.P,D8,2,A*%
%TO.N,Net-(D8-A)*%
X189300000Y-69650000D03*
%TD*%
%TO.P,D3,1,K*%
%TO.N,ROW0*%
X170500000Y-47200000D03*
%TO.P,D3,2,A*%
%TO.N,Net-(D3-A)*%
X170500000Y-50500000D03*
%TD*%
D17*
%TO.P,D18,1,VSS*%
%TO.N,GND*%
X145600000Y-78750000D03*
D18*
%TO.P,D18,2,DIN*%
%TO.N,Net-(D17-DOUT)*%
X140400000Y-78750000D03*
D17*
%TO.P,D18,3,VDD*%
%TO.N,VCC*%
X140400000Y-80250000D03*
%TO.P,D18,4,DOUT*%
%TO.N,Net-(D18-DOUT)*%
X145600000Y-80250000D03*
%TD*%
%TO.P,D14,1,VSS*%
%TO.N,GND*%
X145600000Y-59700000D03*
D18*
%TO.P,D14,2,DIN*%
%TO.N,Net-(D13-DOUT)*%
X140400000Y-59700000D03*
D17*
%TO.P,D14,3,VDD*%
%TO.N,VCC*%
X140400000Y-61200000D03*
%TO.P,D14,4,DOUT*%
%TO.N,Net-(D14-DOUT)*%
X145600000Y-61200000D03*
%TD*%
%TO.P,D13,1,VSS*%
%TO.N,GND*%
X126550000Y-59700000D03*
D18*
%TO.P,D13,2,DIN*%
%TO.N,RGB*%
X121350000Y-59700000D03*
D17*
%TO.P,D13,3,VDD*%
%TO.N,VCC*%
X121350000Y-61200000D03*
%TO.P,D13,4,DOUT*%
%TO.N,Net-(D13-DOUT)*%
X126550000Y-61200000D03*
%TD*%
%TO.P,D17,1,VSS*%
%TO.N,GND*%
X126550000Y-78750000D03*
D18*
%TO.P,D17,2,DIN*%
%TO.N,Net-(D16-DOUT)*%
X121350000Y-78750000D03*
D17*
%TO.P,D17,3,VDD*%
%TO.N,VCC*%
X121350000Y-80250000D03*
%TO.P,D17,4,DOUT*%
%TO.N,Net-(D17-DOUT)*%
X126550000Y-80250000D03*
%TD*%
D21*
%TO.P,D9,1,K*%
%TO.N,ROW2*%
X165650000Y-103900000D03*
%TO.P,D9,2,A*%
%TO.N,ENC_2_SWA*%
X162350000Y-103900000D03*
%TD*%
D22*
%TO.P,U1,1,A0*%
%TO.N,unconnected-(U1-A0-Pad1)*%
X119449600Y-99890000D03*
%TO.P,U1,2,A1*%
%TO.N,unconnected-(U1-A1-Pad2)*%
X119449600Y-98620000D03*
%TO.P,U1,3,A2*%
%TO.N,unconnected-(U1-A2-Pad3)*%
X119449600Y-97350000D03*
%TO.P,U1,4,P0*%
%TO.N,ENC_1_A*%
X119449600Y-96080000D03*
%TO.P,U1,5,P1*%
%TO.N,ENC_1_B*%
X119449600Y-94810000D03*
%TO.P,U1,6,P2*%
%TO.N,ENC_2_A*%
X119449600Y-93540000D03*
%TO.P,U1,7,P3*%
%TO.N,ENC_2_B*%
X119449600Y-92270000D03*
%TO.P,U1,8,VSS*%
%TO.N,GND*%
X119449600Y-91000000D03*
%TO.P,U1,9,P4*%
%TO.N,unconnected-(U1-P4-Pad9)*%
X129000000Y-91000000D03*
%TO.P,U1,10,P5*%
%TO.N,unconnected-(U1-P5-Pad10)*%
X129000000Y-92270000D03*
%TO.P,U1,11,P6*%
%TO.N,unconnected-(U1-P6-Pad11)*%
X129000000Y-93540000D03*
%TO.P,U1,12,P7*%
%TO.N,unconnected-(U1-P7-Pad12)*%
X129000000Y-94810000D03*
%TO.P,U1,13,~{INT}*%
%TO.N,unconnected-(U1-~{INT}-Pad13)*%
X129000000Y-96080000D03*
%TO.P,U1,14,SCL*%
%TO.N,I2C_SCL*%
X129000000Y-97350000D03*
%TO.P,U1,15,SDA*%
%TO.N,I2C_SDA*%
X129000000Y-98620000D03*
%TO.P,U1,16,VDD*%
%TO.N,VCC*%
X129000000Y-99890000D03*
%TD*%
D17*
%TO.P,D15,1,VSS*%
%TO.N,GND*%
X164650000Y-59700000D03*
D18*
%TO.P,D15,2,DIN*%
%TO.N,Net-(D14-DOUT)*%
X159450000Y-59700000D03*
D17*
%TO.P,D15,3,VDD*%
%TO.N,VCC*%
X159450000Y-61200000D03*
%TO.P,D15,4,DOUT*%
%TO.N,Net-(D15-DOUT)*%
X164650000Y-61200000D03*
%TD*%
D23*
%TO.P,D11,1,K*%
%TO.N,ROW2*%
X167150000Y-103900000D03*
%TO.P,D11,2,A*%
%TO.N,Net-(D11-A)*%
X170450000Y-103900000D03*
%TD*%
D24*
%TO.P,R2,1*%
%TO.N,I2C_SCL*%
X134537500Y-104000000D03*
%TO.P,R2,2*%
%TO.N,VCC*%
X137462500Y-104000000D03*
%TD*%
D16*
%TO.P,D4,1,K*%
%TO.N,ROW0*%
X189500000Y-47200000D03*
%TO.P,D4,2,A*%
%TO.N,Net-(D4-A)*%
X189500000Y-50500000D03*
%TD*%
%TO.P,D12,1,K*%
%TO.N,ROW2*%
X132200000Y-106950000D03*
%TO.P,D12,2,A*%
%TO.N,ENC_1_SWA*%
X132200000Y-110250000D03*
%TD*%
D19*
%TO.P,R3,1*%
%TO.N,ENC_2_B*%
X127600000Y-106623000D03*
%TO.P,R3,2*%
%TO.N,VCC*%
X127600000Y-103698000D03*
%TD*%
D25*
%TO.P,U2,1,PA02_A0_D0*%
%TO.N,COL0*%
X191000000Y-103600000D03*
D26*
%TO.P,U2,2,PA4_A1_D1*%
%TO.N,COL1*%
X188460000Y-103600000D03*
%TO.P,U2,3,PA10_A2_D2*%
%TO.N,COL2*%
X185920000Y-103600000D03*
%TO.P,U2,4,PA11_A3_D3*%
%TO.N,COL3*%
X183380000Y-103600000D03*
%TO.P,U2,5,PA8_A4_D4_SDA*%
%TO.N,I2C_SDA*%
X180840000Y-103600000D03*
%TO.P,U2,6,PA9_A5_D5_SCL*%
%TO.N,I2C_SCL*%
X178300000Y-103600000D03*
%TO.P,U2,7,PB08_A6_D6_TX*%
%TO.N,RGB*%
X175760000Y-103600000D03*
%TO.P,U2,8,PB09_A7_D7_RX*%
%TO.N,unconnected-(U2-PB09_A7_D7_RX-Pad8)*%
X175760000Y-86350000D03*
%TO.P,U2,9,PA7_A8_D8_SCK*%
%TO.N,ROW2*%
X178300000Y-86350000D03*
%TO.P,U2,10,PA5_A9_D9_MISO*%
%TO.N,ROW0*%
X180840000Y-86350000D03*
D27*
%TO.P,U2,11,PA6_A10_D10_MOSI*%
%TO.N,ROW1*%
X183380000Y-86350000D03*
%TO.P,U2,12,3V3*%
%TO.N,unconnected-(U2-3V3-Pad12)*%
X185920000Y-86350000D03*
%TO.P,U2,13,GND*%
%TO.N,GND*%
X188460000Y-86350000D03*
%TO.P,U2,14,5V*%
%TO.N,VCC*%
X191000000Y-86350000D03*
%TD*%
D17*
%TO.P,D22,1,VSS*%
%TO.N,GND*%
X164570000Y-119031900D03*
D18*
%TO.P,D22,2,DIN*%
%TO.N,Net-(D21-DOUT)*%
X159370000Y-119031900D03*
D17*
%TO.P,D22,3,VDD*%
%TO.N,VCC*%
X159370000Y-120531900D03*
%TO.P,D22,4,DOUT*%
%TO.N,unconnected-(D22-DOUT-Pad4)*%
X164570000Y-120531900D03*
%TD*%
D16*
%TO.P,D6,1,K*%
%TO.N,ROW1*%
X151300000Y-66250000D03*
%TO.P,D6,2,A*%
%TO.N,Net-(D6-A)*%
X151300000Y-69550000D03*
%TD*%
D28*
%TO.N,ROW0*%
X189500000Y-47450000D03*
%TO.N,ROW1*%
X188029000Y-67871000D03*
%TO.N,ROW2*%
X166500000Y-102300000D03*
X168648000Y-88451700D03*
%TO.N,Net-(D11-A)*%
X169600000Y-105800000D03*
%TO.N,VCC*%
X189000000Y-81000000D03*
X117000000Y-82000000D03*
X150453000Y-62800000D03*
X125500000Y-101900000D03*
X179275736Y-82000000D03*
X122518000Y-94172100D03*
X132750000Y-114250000D03*
X130926000Y-99890000D03*
X185000000Y-82000000D03*
%TO.N,I2C_SDA*%
X151440000Y-63500000D03*
X151440000Y-101325000D03*
%TO.N,GND*%
X177000000Y-77000000D03*
X155900000Y-118300000D03*
X127202000Y-91568400D03*
X114600000Y-90000000D03*
X188629000Y-78950000D03*
X189000000Y-61000000D03*
X155400000Y-58048500D03*
X128001000Y-78501000D03*
%TO.N,I2C_SCL*%
X154000000Y-101725000D03*
X154000000Y-64140000D03*
%TO.N,ENC_2_B*%
X121793000Y-94604600D03*
X121793000Y-104097000D03*
%TO.N,COL0*%
X122850000Y-86650000D03*
%TO.N,COL1*%
X139167597Y-100125000D03*
%TO.N,COL2*%
X158379000Y-100491500D03*
%TO.N,COL3*%
X138567000Y-100725000D03*
%TO.N,RGB*%
X168750000Y-54250000D03*
%TO.N,Net-(D16-DOUT)*%
X180000000Y-70430000D03*
X185143000Y-62000000D03*
%TO.N,Net-(D20-DOUT)*%
X144200000Y-85000000D03*
X139572000Y-117000000D03*
%TO.N,Net-(D25-DOUT)*%
X127200000Y-96111600D03*
X172183935Y-93883935D03*
%TD*%
D29*
%TO.N,ROW0*%
X151250000Y-47200000D02*
X170500000Y-47200000D01*
X132250000Y-47200000D02*
X151250000Y-47200000D01*
X170500000Y-47200000D02*
X189500000Y-47200000D01*
%TO.N,Net-(D1-A)*%
X126530000Y-50250000D02*
X126490000Y-50290000D01*
X126700000Y-50500000D02*
X126490000Y-50290000D01*
X132250000Y-50500000D02*
X126700000Y-50500000D01*
%TO.N,Net-(D2-A)*%
X145750000Y-50500000D02*
X145540000Y-50290000D01*
X145580000Y-50250000D02*
X145540000Y-50290000D01*
X151250000Y-50500000D02*
X145750000Y-50500000D01*
%TO.N,Net-(D3-A)*%
X164630000Y-50250000D02*
X164590000Y-50290000D01*
X164800000Y-50500000D02*
X164590000Y-50290000D01*
X170500000Y-50500000D02*
X164800000Y-50500000D01*
%TO.N,Net-(D4-A)*%
X183680000Y-50250000D02*
X183640000Y-50290000D01*
X183850000Y-50500000D02*
X183640000Y-50290000D01*
X189500000Y-50500000D02*
X183850000Y-50500000D01*
%TO.N,ROW1*%
X189300000Y-66600000D02*
X189200000Y-66500000D01*
X132300000Y-66500000D02*
X132250000Y-66450000D01*
X132250000Y-66200000D02*
X132300000Y-66200000D01*
X170400000Y-66250000D02*
X151300000Y-66250000D01*
X189300000Y-66350000D02*
X188029000Y-67621000D01*
X132300000Y-66200000D02*
X132350000Y-66250000D01*
X189300000Y-66350000D02*
X170500000Y-66350000D01*
X170500000Y-66350000D02*
X170400000Y-66250000D01*
X132350000Y-66250000D02*
X151300000Y-66250000D01*
X188029000Y-67621000D02*
X188029000Y-67871000D01*
%TO.N,Net-(D5-A)*%
X132250000Y-69500000D02*
X132200000Y-69500000D01*
X132200000Y-69500000D02*
X132040000Y-69340000D01*
X132040000Y-69340000D02*
X126490000Y-69340000D01*
X126580000Y-69250000D02*
X126490000Y-69340000D01*
%TO.N,Net-(D6-A)*%
X145750000Y-69550000D02*
X145540000Y-69340000D01*
X151300000Y-69550000D02*
X145750000Y-69550000D01*
X145580000Y-69300000D02*
X145540000Y-69340000D01*
%TO.N,Net-(D7-A)*%
X164800000Y-69550000D02*
X164590000Y-69340000D01*
X164630000Y-69300000D02*
X164590000Y-69340000D01*
X170400000Y-69550000D02*
X164800000Y-69550000D01*
%TO.N,Net-(D8-A)*%
X183950000Y-69650000D02*
X183640000Y-69340000D01*
X189300000Y-69650000D02*
X183950000Y-69650000D01*
%TO.N,ROW2*%
X167400000Y-103900000D02*
X165400000Y-103900000D01*
X166500000Y-102612000D02*
X165306000Y-103806000D01*
X149754000Y-107200000D02*
X154244000Y-102710000D01*
X134600000Y-107200000D02*
X149754000Y-107200000D01*
X165306000Y-103806000D02*
X165400000Y-103900000D01*
X132200000Y-107200000D02*
X134600000Y-107200000D01*
X164210000Y-102710000D02*
X165306000Y-103806000D01*
X168648000Y-88451700D02*
X177198300Y-88451700D01*
X166500000Y-102300000D02*
X166500000Y-102612000D01*
X154244000Y-102710000D02*
X164210000Y-102710000D01*
X177198300Y-88451700D02*
X178300000Y-87350000D01*
%TO.N,ENC_2_SWA*%
X165700000Y-107000000D02*
X162600000Y-103900000D01*
X188750000Y-109250000D02*
X186500000Y-107000000D01*
X186500000Y-107000000D02*
X165700000Y-107000000D01*
X188750000Y-113000000D02*
X188750000Y-109250000D01*
%TO.N,Net-(D10-A)*%
X134600000Y-110000000D02*
X145040000Y-110000000D01*
X145040000Y-110000000D02*
X145460000Y-110420000D01*
%TO.N,Net-(D11-A)*%
X169600000Y-105800000D02*
X170200000Y-105200000D01*
X170200000Y-105200000D02*
X170200000Y-103900000D01*
%TO.N,ENC_1_SWA*%
X130750000Y-111450000D02*
X130750000Y-113000000D01*
X132200000Y-110000000D02*
X130750000Y-111450000D01*
%TO.N,VCC*%
X137350000Y-81950000D02*
X137300000Y-82000000D01*
X158168000Y-120532000D02*
X159370000Y-120532000D01*
X114277000Y-61200000D02*
X114077000Y-61000000D01*
X175200000Y-82000000D02*
X156000000Y-82000000D01*
X188973000Y-62800000D02*
X190773000Y-61000000D01*
X137462000Y-104000000D02*
X133352000Y-99890000D01*
X157450000Y-61200000D02*
X156050000Y-62600000D01*
X156050000Y-62600000D02*
X156050000Y-62800000D01*
X140370000Y-121770000D02*
X142315000Y-123715000D01*
X178500000Y-80250000D02*
X178500000Y-81224264D01*
X121350000Y-62050000D02*
X122100000Y-62800000D01*
X140400000Y-80250000D02*
X139050000Y-80250000D01*
X137000000Y-62800000D02*
X137250000Y-62800000D01*
X137462500Y-104000000D02*
X137462000Y-104000000D01*
X118750000Y-80250000D02*
X117000000Y-82000000D01*
X154985000Y-123715000D02*
X158168000Y-120532000D01*
X140370000Y-120532000D02*
X140370000Y-121770000D01*
X138850000Y-61200000D02*
X140400000Y-61200000D01*
X121350000Y-61200000D02*
X114277000Y-61200000D01*
X122100000Y-62800000D02*
X137000000Y-62800000D01*
X127600000Y-103698000D02*
X125200000Y-103698000D01*
X119503000Y-103495000D02*
X119500000Y-103498000D01*
X132596000Y-94172100D02*
X122518000Y-94172100D01*
X134300000Y-93620000D02*
X133148000Y-93620000D01*
X133352000Y-99890000D02*
X130926000Y-99890000D01*
X176950000Y-80250000D02*
X175200000Y-82000000D01*
X190773000Y-61000000D02*
X191925000Y-61000000D01*
X159450000Y-61200000D02*
X157450000Y-61200000D01*
X125200000Y-102200000D02*
X125200000Y-103698000D01*
X121350000Y-80250000D02*
X118750000Y-80250000D01*
X121350000Y-61200000D02*
X121350000Y-62050000D01*
X133148000Y-93620000D02*
X132596000Y-94172100D01*
X156000000Y-82000000D02*
X137300000Y-82000000D01*
X178500000Y-80250000D02*
X176950000Y-80250000D01*
X176700000Y-61200000D02*
X175100000Y-62800000D01*
X178500000Y-81224264D02*
X179275736Y-82000000D01*
X149000000Y-123715000D02*
X148900000Y-123815000D01*
X139071000Y-120532000D02*
X140369900Y-120532000D01*
X117100000Y-103498000D02*
X119500000Y-103498000D01*
X132789000Y-114250000D02*
X139071000Y-120532000D01*
X150453000Y-62800000D02*
X137000000Y-62800000D01*
X175100000Y-62800000D02*
X188973000Y-62800000D01*
X189000000Y-81000000D02*
X186000000Y-81000000D01*
X125500000Y-101900000D02*
X125200000Y-102200000D01*
X148900000Y-123815000D02*
X148900000Y-126575000D01*
X140369900Y-120532000D02*
X140370000Y-120532000D01*
X130926000Y-99890000D02*
X129000000Y-99890000D01*
X179275736Y-82000000D02*
X175200000Y-82000000D01*
X157750000Y-80250000D02*
X156000000Y-82000000D01*
X137300000Y-82000000D02*
X117000000Y-82000000D01*
X159450000Y-80250000D02*
X157750000Y-80250000D01*
X132750000Y-114250000D02*
X132789000Y-114250000D01*
X156050000Y-62800000D02*
X175100000Y-62800000D01*
X140369900Y-120532000D02*
X140370000Y-120531900D01*
X114077000Y-61000000D02*
X112925000Y-61000000D01*
X149000000Y-123715000D02*
X154985000Y-123715000D01*
X186000000Y-81000000D02*
X185000000Y-82000000D01*
X159370000Y-120531900D02*
X159370000Y-120532000D01*
X137250000Y-62800000D02*
X138850000Y-61200000D01*
X125200000Y-103698000D02*
X124997000Y-103495000D01*
X142315000Y-123715000D02*
X149000000Y-123715000D01*
X178500000Y-61200000D02*
X176700000Y-61200000D01*
X139537500Y-104000000D02*
X137462500Y-104000000D01*
X139050000Y-80250000D02*
X137350000Y-81950000D01*
X124997000Y-103495000D02*
X119503000Y-103495000D01*
X156050000Y-62800000D02*
X150453000Y-62800000D01*
%TO.N,I2C_SDA*%
X158793215Y-101491500D02*
X159193215Y-101091500D01*
X170042942Y-101097000D02*
X179337000Y-101097000D01*
X151440000Y-63500000D02*
X151400000Y-63540000D01*
X134300000Y-98700000D02*
X135452000Y-98700000D01*
X144750000Y-101125000D02*
X151240000Y-101125000D01*
X151640000Y-101125000D02*
X157598285Y-101125000D01*
X157598285Y-101125000D02*
X157964785Y-101491500D01*
X129000000Y-98620000D02*
X129080000Y-98700000D01*
X170037442Y-101091500D02*
X170042942Y-101097000D01*
X157964785Y-101491500D02*
X158793215Y-101491500D01*
X151440000Y-63500000D02*
X151480000Y-63540000D01*
X179337000Y-101097000D02*
X180840000Y-102600000D01*
X138077000Y-101325000D02*
X138815529Y-101325000D01*
X151400000Y-63540000D02*
X112925000Y-63540000D01*
X138815529Y-101325000D02*
X139015529Y-101125000D01*
X151240000Y-101125000D02*
X151440000Y-101325000D01*
X139015529Y-101125000D02*
X144750000Y-101125000D01*
X129080000Y-98700000D02*
X134300000Y-98700000D01*
X159193215Y-101091500D02*
X170037442Y-101091500D01*
X151480000Y-63540000D02*
X191925000Y-63540000D01*
X151440000Y-101325000D02*
X151640000Y-101125000D01*
X144750000Y-101712500D02*
X144750000Y-101125000D01*
X142462500Y-104000000D02*
X144750000Y-101712500D01*
X135452000Y-98700000D02*
X138077000Y-101325000D01*
%TO.N,GND*%
X189000000Y-61000000D02*
X187532900Y-59532900D01*
X155900000Y-118300000D02*
X155366000Y-117766000D01*
X156720000Y-126775000D02*
X156520000Y-126575000D01*
X167000000Y-78750000D02*
X168750000Y-77000000D01*
X129502000Y-77000000D02*
X148500000Y-77000000D01*
X147050000Y-59700000D02*
X145600000Y-59700000D01*
X148037000Y-117766000D02*
X146772000Y-119032000D01*
X148750000Y-58000000D02*
X155351500Y-58000000D01*
X127202000Y-91568400D02*
X132660000Y-91568400D01*
X183700000Y-78750000D02*
X183700000Y-77850000D01*
X129452000Y-58000000D02*
X148750000Y-58000000D01*
X155400000Y-58048500D02*
X167000000Y-58048500D01*
X146772000Y-119032000D02*
X145570100Y-119032000D01*
X148500000Y-77000000D02*
X168750000Y-77000000D01*
X182749000Y-58048500D02*
X183700000Y-59000000D01*
X168750000Y-77000000D02*
X177000000Y-77000000D01*
X166049000Y-120962900D02*
X166049000Y-119309000D01*
X127752000Y-78750000D02*
X126550000Y-78750000D01*
X141949125Y-113156100D02*
X140576100Y-114529125D01*
X145600000Y-78750000D02*
X146750000Y-78750000D01*
X145570100Y-119032000D02*
X145570000Y-119031900D01*
X160436900Y-126575000D02*
X166049000Y-120962900D01*
X166049000Y-119309000D02*
X165772000Y-119032000D01*
X167000000Y-58048500D02*
X165348500Y-59700000D01*
X126550000Y-59700000D02*
X127752000Y-59700000D01*
X164650000Y-78750000D02*
X167000000Y-78750000D01*
X114950000Y-116800000D02*
X116250000Y-115500000D01*
X114950000Y-118538478D02*
X114950000Y-116800000D01*
X188629000Y-78950000D02*
X188429000Y-78750000D01*
X115711522Y-119300000D02*
X114950000Y-118538478D01*
X148750000Y-58000000D02*
X147050000Y-59700000D01*
X127752000Y-59700000D02*
X129452000Y-58000000D01*
X182850000Y-77000000D02*
X177000000Y-77000000D01*
X165348500Y-59700000D02*
X164650000Y-59700000D01*
X156520000Y-126575000D02*
X160436900Y-126575000D01*
X146750000Y-78750000D02*
X148500000Y-77000000D01*
X167000000Y-58048500D02*
X182749000Y-58048500D01*
X155366000Y-117766000D02*
X148037000Y-117766000D01*
X145570000Y-119031900D02*
X145570000Y-114835225D01*
X183700000Y-77850000D02*
X182850000Y-77000000D01*
X119449600Y-91000000D02*
X120653000Y-91000000D01*
X128001000Y-78501000D02*
X127752000Y-78750000D01*
X138567454Y-114529125D02*
X137688329Y-113650000D01*
X121221000Y-91568400D02*
X127202000Y-91568400D01*
X164570100Y-119032000D02*
X164570000Y-119032000D01*
X132660000Y-91568400D02*
X133148000Y-91080000D01*
X175570000Y-116820000D02*
X175570000Y-118518478D01*
X156720000Y-126775000D02*
X156520000Y-126775000D01*
X133148000Y-91080000D02*
X134300000Y-91080000D01*
X145570100Y-119032000D02*
X145570000Y-119032000D01*
X140576100Y-114529125D02*
X138567454Y-114529125D01*
X175570000Y-118518478D02*
X174779478Y-119309000D01*
X117246000Y-90000000D02*
X118246000Y-91000000D01*
X174250000Y-115500000D02*
X175570000Y-116820000D01*
X145570000Y-114835225D02*
X143890875Y-113156100D01*
X165772000Y-119032000D02*
X164570100Y-119032000D01*
X118246000Y-91000000D02*
X119449600Y-91000000D01*
X187532900Y-59532900D02*
X183700000Y-59532900D01*
X155351500Y-58000000D02*
X155400000Y-58048500D01*
X143890875Y-113156100D02*
X141949125Y-113156100D01*
X164570100Y-119032000D02*
X164570000Y-119031900D01*
X114600000Y-90000000D02*
X117246000Y-90000000D01*
X137688329Y-113650000D02*
X132050000Y-113650000D01*
X120653000Y-91000000D02*
X121221000Y-91568400D01*
X183700000Y-59000000D02*
X183700000Y-59532900D01*
X183700000Y-59532900D02*
X183700000Y-59700000D01*
X174779478Y-119309000D02*
X166049000Y-119309000D01*
X126400000Y-119300000D02*
X115711522Y-119300000D01*
X188429000Y-78750000D02*
X183700000Y-78750000D01*
X128001000Y-78501000D02*
X129502000Y-77000000D01*
X132050000Y-113650000D02*
X126400000Y-119300000D01*
%TO.N,I2C_SCL*%
X152475000Y-101525000D02*
X148400000Y-105600000D01*
X154000000Y-101725000D02*
X154200000Y-101525000D01*
X188793000Y-64100000D02*
X190773000Y-66080000D01*
X165600000Y-101500000D02*
X177200000Y-101500000D01*
X136137500Y-105600000D02*
X134537500Y-104000000D01*
X131958000Y-97350000D02*
X129000000Y-97350000D01*
X127798300Y-98053300D02*
X128501600Y-97350000D01*
X131512000Y-104000000D02*
X127798300Y-100286300D01*
X128501600Y-97350000D02*
X129000000Y-97350000D01*
X134300000Y-96160000D02*
X133148000Y-96160000D01*
X158958901Y-101891500D02*
X159358901Y-101491500D01*
X127798300Y-100286300D02*
X127798300Y-98053300D01*
X154000000Y-64140000D02*
X153960000Y-64100000D01*
X190773000Y-66080000D02*
X191925000Y-66080000D01*
X159358901Y-101491500D02*
X165591500Y-101491500D01*
X153960000Y-64100000D02*
X114905000Y-64100000D01*
X134537500Y-104000000D02*
X131512000Y-104000000D01*
X154000000Y-64140000D02*
X154040000Y-64100000D01*
X154000000Y-101725000D02*
X153800000Y-101525000D01*
X153800000Y-101525000D02*
X152475000Y-101525000D01*
X148400000Y-105600000D02*
X136137500Y-105600000D01*
X133148000Y-96160000D02*
X131958000Y-97350000D01*
X114905000Y-64100000D02*
X112925000Y-66080000D01*
X177200000Y-101500000D02*
X178300000Y-102600000D01*
X154200000Y-101525000D02*
X157432600Y-101525000D01*
X165591500Y-101491500D02*
X165600000Y-101500000D01*
X157432600Y-101525000D02*
X157799099Y-101891500D01*
X154040000Y-64100000D02*
X188793000Y-64100000D01*
X157799099Y-101891500D02*
X158958901Y-101891500D01*
%TO.N,ENC_2_B*%
X121793000Y-94604600D02*
X121793000Y-93409700D01*
X127600000Y-106623000D02*
X127600000Y-107502000D01*
X121793000Y-104968000D02*
X121793000Y-104097000D01*
X119450000Y-92270000D02*
X119449600Y-92270000D01*
X121793000Y-93409700D02*
X120653000Y-92270000D01*
X127600000Y-107502000D02*
X128700000Y-108601000D01*
X128700000Y-108601000D02*
X164851000Y-108601000D01*
X124326000Y-107502000D02*
X121793000Y-104968000D01*
X127600000Y-107502000D02*
X124326000Y-107502000D01*
X164851000Y-108601000D02*
X174250000Y-118000000D01*
X120653000Y-92270000D02*
X119450000Y-92270000D01*
%TO.N,ENC_2_A*%
X121191000Y-94991400D02*
X128784000Y-102585000D01*
X119450000Y-93540000D02*
X119449600Y-93540000D01*
X131193000Y-108163000D02*
X168111000Y-108163000D01*
X119450000Y-93540000D02*
X120653000Y-93540000D01*
X168111000Y-108163000D02*
X172948000Y-113000000D01*
X121191000Y-94078000D02*
X121191000Y-94991400D01*
X128784000Y-105754000D02*
X131193000Y-108163000D01*
X125200000Y-106623000D02*
X126069000Y-105754000D01*
X120653000Y-93540000D02*
X121191000Y-94078000D01*
X126069000Y-105754000D02*
X128784000Y-105754000D01*
X128784000Y-102585000D02*
X128784000Y-105754000D01*
X172948000Y-113000000D02*
X174250000Y-113000000D01*
%TO.N,ENC_1_B*%
X115892000Y-102977000D02*
X115892000Y-104012000D01*
X115892000Y-104012000D02*
X117434000Y-105554000D01*
X116250000Y-118000000D02*
X119500000Y-114750000D01*
X119500000Y-114750000D02*
X119500000Y-106423000D01*
X119450000Y-94810000D02*
X119449600Y-94810000D01*
X120653000Y-100282000D02*
X118633000Y-102302000D01*
X117434000Y-105554000D02*
X118631000Y-105554000D01*
X120653000Y-94810000D02*
X120653000Y-100282000D01*
X118631000Y-105554000D02*
X119500000Y-106423000D01*
X118633000Y-102302000D02*
X116567000Y-102302000D01*
X119450000Y-94810000D02*
X120653000Y-94810000D01*
X116567000Y-102302000D02*
X115892000Y-102977000D01*
%TO.N,ENC_1_A*%
X116250000Y-111698000D02*
X116250000Y-113000000D01*
X118246000Y-96080000D02*
X115467000Y-98859000D01*
X117100000Y-106423000D02*
X117100000Y-110848000D01*
X117100000Y-110848000D02*
X116250000Y-111698000D01*
X119449600Y-96080000D02*
X118246000Y-96080000D01*
X115467000Y-98859000D02*
X115467000Y-104790000D01*
X115467000Y-104790000D02*
X117100000Y-106423000D01*
%TO.N,COL0*%
X174733000Y-89106300D02*
X174734000Y-89104800D01*
X169198000Y-89104800D02*
X169200000Y-89106300D01*
X179704800Y-89104800D02*
X191000000Y-100400000D01*
X191000000Y-100400000D02*
X191000000Y-102600000D01*
X125304800Y-89104800D02*
X169198000Y-89104800D01*
X174734000Y-89104800D02*
X179704800Y-89104800D01*
X122850000Y-86650000D02*
X125304800Y-89104800D01*
X169200000Y-89106300D02*
X174733000Y-89106300D01*
%TO.N,COL1*%
X185751500Y-99891500D02*
X188460000Y-102600000D01*
X158130471Y-99891500D02*
X185751500Y-99891500D01*
X157696971Y-100325000D02*
X158130471Y-99891500D01*
X139367597Y-100325000D02*
X139167597Y-100125000D01*
X157696971Y-100325000D02*
X139367597Y-100325000D01*
%TO.N,COL2*%
X170368814Y-100291500D02*
X170372314Y-100295000D01*
X158379000Y-100491500D02*
X158579000Y-100291500D01*
X170372314Y-100295000D02*
X183615000Y-100295000D01*
X183615000Y-100295000D02*
X185920000Y-102600000D01*
X158579000Y-100291500D02*
X170368814Y-100291500D01*
%TO.N,COL3*%
X157779000Y-100725000D02*
X138567000Y-100725000D01*
X158130471Y-101091500D02*
X157779000Y-100740029D01*
X158627529Y-101091500D02*
X158130471Y-101091500D01*
X183380000Y-102600000D02*
X181475000Y-100695000D01*
X170203128Y-100691500D02*
X159027529Y-100691500D01*
X181475000Y-100695000D02*
X170206628Y-100695000D01*
X170206628Y-100695000D02*
X170203128Y-100691500D01*
X159027529Y-100691500D02*
X158627529Y-101091500D01*
X157779000Y-100740029D02*
X157779000Y-100725000D01*
%TO.N,RGB*%
X167490500Y-52990500D02*
X164174000Y-52990500D01*
X126513000Y-57900000D02*
X122400000Y-57900000D01*
X127579000Y-56834200D02*
X126513000Y-57900000D01*
X162554000Y-51371000D02*
X148788000Y-51371000D01*
X121350000Y-58950000D02*
X121350000Y-59700000D01*
X168750000Y-54250000D02*
X167490500Y-52990500D01*
X164174000Y-52990500D02*
X162554000Y-51371000D01*
X148788000Y-51371000D02*
X148404000Y-51754100D01*
X148404000Y-51754100D02*
X143012000Y-51754100D01*
X143012000Y-51754100D02*
X139652000Y-55114700D01*
X138451000Y-56834200D02*
X127579000Y-56834200D01*
X122400000Y-57900000D02*
X121350000Y-58950000D01*
X139652000Y-55114700D02*
X139652000Y-55633200D01*
X139652000Y-55633200D02*
X138451000Y-56834200D01*
%TO.N,Net-(D13-DOUT)*%
X127752000Y-61200000D02*
X129252000Y-59700000D01*
X126550000Y-61200000D02*
X127752000Y-61200000D01*
X129252000Y-59700000D02*
X140400000Y-59700000D01*
%TO.N,Net-(D14-DOUT)*%
X159450000Y-59700000D02*
X158248000Y-59700000D01*
X158248000Y-59700000D02*
X156748000Y-61200000D01*
X156748000Y-61200000D02*
X145600000Y-61200000D01*
%TO.N,Net-(D15-DOUT)*%
X173731000Y-61200000D02*
X175231000Y-59700000D01*
X175231000Y-59700000D02*
X178500000Y-59700000D01*
X164650000Y-61200000D02*
X173731000Y-61200000D01*
%TO.N,Net-(D16-DOUT)*%
X176689000Y-70430000D02*
X176319000Y-70800000D01*
X158841000Y-70430000D02*
X157639000Y-70430000D01*
X138589000Y-70430000D02*
X138219000Y-70800000D01*
X185143000Y-61441000D02*
X184902000Y-61200000D01*
X121350000Y-73705200D02*
X121350000Y-78750000D01*
X184902000Y-61200000D02*
X183700000Y-61200000D01*
X159211000Y-70800000D02*
X158841000Y-70430000D01*
X124255000Y-70800000D02*
X121350000Y-73705200D01*
X176319000Y-70800000D02*
X159211000Y-70800000D01*
X140161000Y-70800000D02*
X139791000Y-70430000D01*
X157269000Y-70800000D02*
X140161000Y-70800000D01*
X139791000Y-70430000D02*
X138589000Y-70430000D01*
X157639000Y-70430000D02*
X157269000Y-70800000D01*
X180000000Y-70430000D02*
X176689000Y-70430000D01*
X138219000Y-70800000D02*
X124255000Y-70800000D01*
X185143000Y-62000000D02*
X185143000Y-61441000D01*
%TO.N,Net-(D17-DOUT)*%
X127752000Y-80250000D02*
X129252000Y-78750000D01*
X126550000Y-80250000D02*
X127752000Y-80250000D01*
X129252000Y-78750000D02*
X140400000Y-78750000D01*
%TO.N,Net-(D18-DOUT)*%
X148302000Y-78750000D02*
X159450000Y-78750000D01*
X146802000Y-80250000D02*
X148302000Y-78750000D01*
X145600000Y-80250000D02*
X146802000Y-80250000D01*
%TO.N,Net-(D19-DOUT)*%
X177298000Y-78750000D02*
X175798000Y-80250000D01*
X175798000Y-80250000D02*
X164650000Y-80250000D01*
X178500000Y-78750000D02*
X177298000Y-78750000D01*
%TO.N,Net-(D20-DOUT)*%
X182100000Y-83000000D02*
X183700000Y-81400000D01*
X183700000Y-81400000D02*
X183700000Y-80250000D01*
X140370000Y-119031900D02*
X139572000Y-118233900D01*
X144200000Y-85000000D02*
X146200000Y-83000000D01*
X146200000Y-83000000D02*
X182100000Y-83000000D01*
X139572000Y-118233900D02*
X139572000Y-117000000D01*
%TO.N,Net-(D21-DOUT)*%
X159369900Y-119032000D02*
X150057000Y-119032000D01*
X145570100Y-120532000D02*
X145570000Y-120531900D01*
X148557000Y-120532000D02*
X145570100Y-120532000D01*
X150057000Y-119032000D02*
X148557000Y-120532000D01*
X145570100Y-120532000D02*
X145570000Y-120532000D01*
X159370000Y-119032000D02*
X159369900Y-119032000D01*
X159369900Y-119032000D02*
X159370000Y-119031900D01*
%TO.N,Net-(D25-DOUT)*%
X127933200Y-95378400D02*
X127200000Y-96111600D01*
X130027000Y-95378400D02*
X127933200Y-95378400D01*
X172183935Y-93883935D02*
X171296170Y-94771700D01*
X130633000Y-94771700D02*
X130027000Y-95378400D01*
X171296170Y-94771700D02*
X130633000Y-94771700D01*
%TD*%
M02*
