%TF.GenerationSoftware,KiCad,Pcbnew,8.0.7*%
%TF.CreationDate,2025-02-14T00:11:11-05:00*%
%TF.ProjectId,makropad,6d616b72-6f70-4616-942e-6b696361645f,rev?*%
%TF.SameCoordinates,Original*%
%TF.FileFunction,Copper,L1,Top*%
%TF.FilePolarity,Positive*%
%FSLAX46Y46*%
G04 Gerber Fmt 4.6, Leading zero omitted, Abs format (unit mm)*
G04 Created by KiCad (PCBNEW 8.0.7) date 2025-02-14 00:11:11*
%MOMM*%
%LPD*%
G01*
G04 APERTURE LIST*
%TA.AperFunction,SMDPad,CuDef*%
%ADD10R,1.600000X0.850000*%
%TD*%
%TA.AperFunction,ComponentPad*%
%ADD11O,1.900000X2.450000*%
%TD*%
%TA.AperFunction,ComponentPad*%
%ADD12O,2.450000X1.900000*%
%TD*%
%TA.AperFunction,ComponentPad*%
%ADD13R,1.700000X1.700000*%
%TD*%
%TA.AperFunction,ComponentPad*%
%ADD14O,1.700000X1.700000*%
%TD*%
%TA.AperFunction,ComponentPad*%
%ADD15R,2.000000X2.000000*%
%TD*%
%TA.AperFunction,ComponentPad*%
%ADD16C,2.000000*%
%TD*%
%TA.AperFunction,ComponentPad*%
%ADD17R,3.200000X2.000000*%
%TD*%
%TA.AperFunction,ComponentPad*%
%ADD18R,1.700000X3.500000*%
%TD*%
%TA.AperFunction,ComponentPad*%
%ADD19O,1.700000X3.600000*%
%TD*%
%TA.AperFunction,ComponentPad*%
%ADD20O,1.700000X3.700000*%
%TD*%
%TA.AperFunction,ViaPad*%
%ADD21C,0.600000*%
%TD*%
%TA.AperFunction,Conductor*%
%ADD22C,0.200000*%
%TD*%
G04 APERTURE END LIST*
D10*
%TO.P,D25,1,DOUT*%
%TO.N,Net-(D25-DOUT)*%
X121300000Y-97525000D03*
%TO.P,D25,2,VSS*%
%TO.N,GND*%
X121300000Y-99275000D03*
%TO.P,D25,3,DIN*%
%TO.N,Net-(D24-DOUT)*%
X124800000Y-99275000D03*
%TO.P,D25,4,VDD*%
%TO.N,VCC*%
X124800000Y-97525000D03*
%TD*%
%TO.P,D28,1,DOUT*%
%TO.N,unconnected-(D28-DOUT-Pad1)*%
X180700000Y-97525000D03*
%TO.P,D28,2,VSS*%
%TO.N,GND*%
X180700000Y-99275000D03*
%TO.P,D28,3,DIN*%
%TO.N,Net-(D27-DOUT)*%
X184200000Y-99275000D03*
%TO.P,D28,4,VDD*%
%TO.N,VCC*%
X184200000Y-97525000D03*
%TD*%
D11*
%TO.P,SW4,1,1*%
%TO.N,COL3*%
X176700000Y-60070000D03*
D12*
%TO.P,SW4,2,2*%
%TO.N,Net-(D4-A)*%
X183700000Y-61120000D03*
%TD*%
D11*
%TO.P,SW10,1,1*%
%TO.N,COL2*%
X157570000Y-120200000D03*
D12*
%TO.P,SW10,2,2*%
%TO.N,Net-(D11-A)*%
X164570000Y-121250000D03*
%TD*%
D11*
%TO.P,SW1,1,1*%
%TO.N,COL0*%
X119550000Y-60070000D03*
D12*
%TO.P,SW1,2,2*%
%TO.N,Net-(D1-A)*%
X126550000Y-61120000D03*
%TD*%
D13*
%TO.P,J1,1,Pin_1*%
%TO.N,I2C_SDA*%
X134300000Y-98700000D03*
D14*
%TO.P,J1,2,Pin_2*%
%TO.N,I2C_SCL*%
X134300000Y-96160000D03*
%TO.P,J1,3,Pin_3*%
%TO.N,VCC*%
X134300000Y-93620000D03*
%TO.P,J1,4,Pin_4*%
%TO.N,GND*%
X134300000Y-91080000D03*
%TD*%
D10*
%TO.P,D27,1,DOUT*%
%TO.N,Net-(D27-DOUT)*%
X186250000Y-90725000D03*
%TO.P,D27,2,VSS*%
%TO.N,GND*%
X186250000Y-92475000D03*
%TO.P,D27,3,DIN*%
%TO.N,Net-(D26-DOUT)*%
X189750000Y-92475000D03*
%TO.P,D27,4,VDD*%
%TO.N,VCC*%
X189750000Y-90725000D03*
%TD*%
D15*
%TO.P,SW12,A,A*%
%TO.N,ENC_2_A*%
X174250000Y-113000000D03*
D16*
%TO.P,SW12,B,B*%
%TO.N,ENC_2_B*%
X174250000Y-118000000D03*
%TO.P,SW12,C,C*%
%TO.N,GND*%
X174250000Y-115500000D03*
D17*
%TO.P,SW12,MP*%
%TO.N,N/C*%
X181750000Y-109900000D03*
X181750000Y-121100000D03*
D16*
%TO.P,SW12,S1,S1*%
%TO.N,COL0*%
X188750000Y-118000000D03*
%TO.P,SW12,S2,S2*%
%TO.N,ENC_2_SWA*%
X188750000Y-113000000D03*
%TD*%
D10*
%TO.P,D24,1,DOUT*%
%TO.N,Net-(D24-DOUT)*%
X126850000Y-90725000D03*
%TO.P,D24,2,VSS*%
%TO.N,GND*%
X126850000Y-92475000D03*
%TO.P,D24,3,DIN*%
%TO.N,Net-(D23-DOUT)*%
X130350000Y-92475000D03*
%TO.P,D24,4,VDD*%
%TO.N,VCC*%
X130350000Y-90725000D03*
%TD*%
%TO.P,D26,1,DOUT*%
%TO.N,Net-(D26-DOUT)*%
X174700000Y-90725000D03*
%TO.P,D26,2,VSS*%
%TO.N,GND*%
X174700000Y-92475000D03*
%TO.P,D26,3,DIN*%
%TO.N,Net-(D25-DOUT)*%
X178200000Y-92475000D03*
%TO.P,D26,4,VDD*%
%TO.N,VCC*%
X178200000Y-90725000D03*
%TD*%
%TO.P,D23,1,DOUT*%
%TO.N,Net-(D23-DOUT)*%
X115300000Y-90725000D03*
%TO.P,D23,2,VSS*%
%TO.N,GND*%
X115300000Y-92475000D03*
%TO.P,D23,3,DIN*%
%TO.N,STATUS_LED*%
X118800000Y-92475000D03*
%TO.P,D23,4,VDD*%
%TO.N,VCC*%
X118800000Y-90725000D03*
%TD*%
D11*
%TO.P,SW6,1,1*%
%TO.N,COL1*%
X138600000Y-79120000D03*
D12*
%TO.P,SW6,2,2*%
%TO.N,Net-(D6-A)*%
X145600000Y-80170000D03*
%TD*%
D11*
%TO.P,SW2,1,1*%
%TO.N,COL1*%
X138600000Y-60070000D03*
D12*
%TO.P,SW2,2,2*%
%TO.N,Net-(D2-A)*%
X145600000Y-61120000D03*
%TD*%
D11*
%TO.P,SW7,1,1*%
%TO.N,COL2*%
X157650000Y-79120000D03*
D12*
%TO.P,SW7,2,2*%
%TO.N,Net-(D7-A)*%
X164650000Y-80170000D03*
%TD*%
D15*
%TO.P,SW11,A,A*%
%TO.N,ENC_1_A*%
X116250000Y-113000000D03*
D16*
%TO.P,SW11,B,B*%
%TO.N,ENC_1_B*%
X116250000Y-118000000D03*
%TO.P,SW11,C,C*%
%TO.N,GND*%
X116250000Y-115500000D03*
D17*
%TO.P,SW11,MP*%
%TO.N,N/C*%
X123750000Y-109900000D03*
X123750000Y-121100000D03*
D16*
%TO.P,SW11,S1,S1*%
%TO.N,COL3*%
X130750000Y-118000000D03*
%TO.P,SW11,S2,S2*%
%TO.N,ENC_1_SWA*%
X130750000Y-113000000D03*
%TD*%
D11*
%TO.P,SW5,1,1*%
%TO.N,COL0*%
X119550000Y-79120000D03*
D12*
%TO.P,SW5,2,2*%
%TO.N,Net-(D5-A)*%
X126550000Y-80170000D03*
%TD*%
D11*
%TO.P,SW8,1,1*%
%TO.N,COL3*%
X176700000Y-79120000D03*
D12*
%TO.P,SW8,2,2*%
%TO.N,Net-(D8-A)*%
X183700000Y-80170000D03*
%TD*%
D13*
%TO.P,J2,1,Pin_1*%
%TO.N,VCC*%
X148950000Y-126475000D03*
D14*
%TO.P,J2,2,Pin_2*%
%TO.N,I2C_SDA*%
X151490000Y-126475000D03*
%TO.P,J2,3,Pin_3*%
%TO.N,I2C_SCL*%
X154030000Y-126475000D03*
%TO.P,J2,4,Pin_4*%
%TO.N,GND*%
X156570000Y-126475000D03*
%TD*%
D11*
%TO.P,SW3,1,1*%
%TO.N,COL2*%
X157650000Y-60070000D03*
D12*
%TO.P,SW3,2,2*%
%TO.N,Net-(D3-A)*%
X164650000Y-61120000D03*
%TD*%
D11*
%TO.P,SW9,1,1*%
%TO.N,COL1*%
X138520000Y-120200000D03*
D12*
%TO.P,SW9,2,2*%
%TO.N,Net-(D10-A)*%
X145520000Y-121250000D03*
%TD*%
D18*
%TO.P,U2,1,PA02_A0_D0*%
%TO.N,COL0*%
X191000000Y-103600000D03*
D19*
%TO.P,U2,2,PA4_A1_D1*%
%TO.N,COL1*%
X188460000Y-103600000D03*
%TO.P,U2,3,PA10_A2_D2*%
%TO.N,COL2*%
X185920000Y-103600000D03*
%TO.P,U2,4,PA11_A3_D3*%
%TO.N,COL3*%
X183380000Y-103600000D03*
%TO.P,U2,5,PA8_A4_D4_SDA*%
%TO.N,I2C_SDA*%
X180840000Y-103600000D03*
%TO.P,U2,6,PA9_A5_D5_SCL*%
%TO.N,I2C_SCL*%
X178300000Y-103600000D03*
%TO.P,U2,7,PB08_A6_D6_TX*%
%TO.N,STATUS_LED*%
X175760000Y-103600000D03*
%TO.P,U2,8,PB09_A7_D7_RX*%
%TO.N,RGB*%
X175760000Y-86350000D03*
%TO.P,U2,9,PA7_A8_D8_SCK*%
%TO.N,ROW2*%
X178300000Y-86350000D03*
%TO.P,U2,10,PA5_A9_D9_MISO*%
%TO.N,ROW0*%
X180840000Y-86350000D03*
D20*
%TO.P,U2,11,PA6_A10_D10_MOSI*%
%TO.N,ROW1*%
X183380000Y-86350000D03*
%TO.P,U2,12,3V3*%
%TO.N,+3.3V*%
X185920000Y-86350000D03*
%TO.P,U2,13,GND*%
%TO.N,GND*%
X188460000Y-86350000D03*
%TO.P,U2,14,5V*%
%TO.N,VCC*%
X191000000Y-86350000D03*
%TD*%
D21*
%TO.N,GND*%
X129500000Y-103500000D03*
X121300000Y-99275000D03*
X119449600Y-99890000D03*
X158750000Y-68500000D03*
X115300000Y-92475000D03*
%TO.N,STATUS_LED*%
X136250000Y-105000000D03*
%TO.N,ROW0*%
X176600000Y-64800000D03*
%TO.N,ROW2*%
X168648000Y-103079000D03*
X168648000Y-88305100D03*
%TO.N,Net-(D11-A)*%
X166800000Y-106400000D03*
%TO.N,VCC*%
X144820000Y-111080000D03*
X130400000Y-87600000D03*
X184875000Y-95200000D03*
X121600000Y-91703300D03*
X148950000Y-113500000D03*
X135673000Y-53820300D03*
X141200000Y-104400000D03*
X126753000Y-99858700D03*
X135673000Y-71924600D03*
%TO.N,I2C_SDA*%
X151490000Y-101498000D03*
%TO.N,GND*%
X136200000Y-51200000D03*
X154000000Y-70000000D03*
X143250000Y-103250000D03*
X152775000Y-112500000D03*
X126000000Y-91800000D03*
X153000000Y-109500000D03*
X151000000Y-75750000D03*
X126250000Y-94500000D03*
X186250000Y-92475000D03*
X125650000Y-87600000D03*
X163800000Y-86900000D03*
X146000000Y-86900000D03*
X137000000Y-70000000D03*
X154400000Y-51000000D03*
X139750000Y-108500000D03*
X170750000Y-73600000D03*
X132600000Y-89800000D03*
X149400000Y-105400000D03*
X151700000Y-98350000D03*
X184000000Y-52600000D03*
X132000000Y-76000000D03*
X143250000Y-96775000D03*
X158670000Y-109580000D03*
X165600000Y-104600000D03*
X134250000Y-101000000D03*
X172500000Y-51250000D03*
X164000000Y-97200000D03*
X170275000Y-115525000D03*
X147025000Y-109500000D03*
X182400000Y-97400000D03*
X177800000Y-68500000D03*
X113875000Y-116800000D03*
X177800000Y-82600000D03*
X140000000Y-113500000D03*
X128500000Y-57000000D03*
X116750000Y-101250000D03*
X121200000Y-88800000D03*
X128400000Y-66200000D03*
X170450000Y-56025000D03*
X190450000Y-97000000D03*
X180200000Y-94600000D03*
X188600000Y-82400000D03*
X147000000Y-93250000D03*
X165400000Y-102200000D03*
X147625000Y-56250000D03*
%TO.N,I2C_SCL*%
X174000000Y-99200000D03*
X154030000Y-99200000D03*
%TO.N,ENC_2_B*%
X171584000Y-94947000D03*
%TO.N,ENC_1_B*%
X117907000Y-100907000D03*
%TO.N,ENC_1_A*%
X116250000Y-103127000D03*
%TO.N,COL1*%
X138520000Y-100498000D03*
%TO.N,COL2*%
X157570000Y-100097000D03*
%TO.N,COL3*%
X137355000Y-100898000D03*
X176478000Y-100486000D03*
%TO.N,+3.3V*%
X149400000Y-96675000D03*
X152750000Y-93250000D03*
%TO.N,Net-(D20-DOUT)*%
X140046000Y-65600000D03*
X139620000Y-111080000D03*
%TO.N,Net-(D25-DOUT)*%
X121300000Y-97525000D03*
X132371000Y-95547000D03*
X137920000Y-91871500D03*
X173164000Y-89964200D03*
%TD*%
D22*
%TO.N,STATUS_LED*%
X113750000Y-95750000D02*
X123000000Y-105000000D01*
X114200000Y-90000000D02*
X113750000Y-90450000D01*
X113750000Y-90450000D02*
X113750000Y-95750000D01*
X116400000Y-90000000D02*
X114200000Y-90000000D01*
X123000000Y-105000000D02*
X136250000Y-105000000D01*
X118800000Y-92400000D02*
X116400000Y-90000000D01*
X118800000Y-92475000D02*
X118800000Y-92400000D01*
%TO.N,ENC_1_B*%
X118566000Y-115684000D02*
X116250000Y-118000000D01*
X118566000Y-101566000D02*
X118566000Y-115684000D01*
X117907000Y-100907000D02*
X118566000Y-101566000D01*
%TO.N,STATUS_LED*%
X118275000Y-92475000D02*
X118000000Y-92750000D01*
X118800000Y-92475000D02*
X118275000Y-92475000D01*
%TO.N,Net-(D23-DOUT)*%
X115300000Y-90800000D02*
X115300000Y-90725000D01*
X119000000Y-94500000D02*
X115300000Y-90800000D01*
X119000000Y-97050000D02*
X119000000Y-94500000D01*
X121950000Y-98250000D02*
X120200000Y-98250000D01*
X129425000Y-98035200D02*
X127002000Y-100459000D01*
X129425000Y-93400000D02*
X129425000Y-98035200D01*
X120200000Y-98250000D02*
X119000000Y-97050000D01*
X124159000Y-100459000D02*
X121950000Y-98250000D01*
X127002000Y-100459000D02*
X124159000Y-100459000D01*
X130350000Y-92475000D02*
X129425000Y-93400000D01*
%TO.N,ROW0*%
X176400000Y-65000000D02*
X176400000Y-70565700D01*
X176400000Y-70565700D02*
X176200000Y-70765700D01*
X176200000Y-70765700D02*
X176200000Y-75961900D01*
X176600000Y-64800000D02*
X176400000Y-65000000D01*
X176200000Y-75961900D02*
X180840000Y-80601900D01*
X180840000Y-80601900D02*
X180840000Y-87350000D01*
%TO.N,ROW2*%
X168648000Y-103079000D02*
X168648000Y-88305100D01*
%TO.N,Net-(D11-A)*%
X166800000Y-106400000D02*
X165712000Y-107488000D01*
X164570000Y-119998000D02*
X164570000Y-121250000D01*
X165712000Y-118856000D02*
X164570000Y-119998000D01*
X165712000Y-107488000D02*
X165712000Y-118856000D01*
%TO.N,VCC*%
X121600000Y-91703300D02*
X120622000Y-90725000D01*
X130400000Y-87600000D02*
X135673000Y-82327100D01*
X141200000Y-104400000D02*
X141200000Y-104431000D01*
X180125000Y-88800000D02*
X178200000Y-90725000D01*
X124800000Y-97525000D02*
X124875000Y-97525000D01*
X189750000Y-90725000D02*
X189750000Y-89000000D01*
X131405000Y-90725000D02*
X134300000Y-93620000D01*
X141200000Y-104431000D02*
X144820000Y-108051000D01*
X144820000Y-111220000D02*
X144820000Y-111080000D01*
X189550000Y-88800000D02*
X191000000Y-87350000D01*
X144820000Y-108051000D02*
X144820000Y-111080000D01*
X146000000Y-112400000D02*
X144820000Y-111220000D01*
X148950000Y-113500000D02*
X148950000Y-126475000D01*
X126753000Y-99858700D02*
X128800000Y-97811700D01*
X189550000Y-88800000D02*
X180125000Y-88800000D01*
X128800000Y-92275000D02*
X130350000Y-90725000D01*
X147850000Y-112400000D02*
X146000000Y-112400000D01*
X148950000Y-113500000D02*
X147850000Y-112400000D01*
X184200000Y-95875000D02*
X184875000Y-95200000D01*
X128800000Y-97811700D02*
X128800000Y-92275000D01*
X124875000Y-97525000D02*
X126753000Y-99403000D01*
X189750000Y-89000000D02*
X189550000Y-88800000D01*
X130350000Y-90725000D02*
X131405000Y-90725000D01*
X135673000Y-53820300D02*
X135673000Y-71924600D01*
X120622000Y-90725000D02*
X118800000Y-90725000D01*
X184200000Y-97525000D02*
X184200000Y-95875000D01*
X135673000Y-82327100D02*
X135673000Y-71924600D01*
X126753000Y-99403000D02*
X126753000Y-99858700D01*
%TO.N,I2C_SDA*%
X151490000Y-126475000D02*
X151490000Y-101498000D01*
%TO.N,GND*%
X133020000Y-89800000D02*
X134300000Y-91080000D01*
X126000000Y-91800000D02*
X126175000Y-91800000D01*
X127950000Y-89900000D02*
X127950000Y-91375000D01*
X125650000Y-87600000D02*
X127950000Y-89900000D01*
X132600000Y-89800000D02*
X133020000Y-89800000D01*
X188600000Y-87210000D02*
X188460000Y-87350000D01*
X127950000Y-91375000D02*
X126850000Y-92475000D01*
X188600000Y-82400000D02*
X188600000Y-87210000D01*
X126175000Y-91800000D02*
X126850000Y-92475000D01*
%TO.N,I2C_SCL*%
X178300000Y-102600000D02*
X177200000Y-101500000D01*
X177200000Y-101500000D02*
X176300000Y-101500000D01*
X154030000Y-99200000D02*
X154030000Y-126475000D01*
X176300000Y-101500000D02*
X174000000Y-99200000D01*
%TO.N,ENC_2_B*%
X171584000Y-115334000D02*
X171584000Y-94947000D01*
X174250000Y-118000000D02*
X171584000Y-115334000D01*
%TO.N,ENC_1_A*%
X116250000Y-113000000D02*
X116250000Y-103127000D01*
%TO.N,COL0*%
X191000000Y-115750000D02*
X188750000Y-118000000D01*
X191000000Y-102600000D02*
X191000000Y-115750000D01*
X119550000Y-79120000D02*
X119550000Y-60070000D01*
%TO.N,COL1*%
X138520000Y-120200000D02*
X138520000Y-100498000D01*
X138600000Y-60070000D02*
X138600000Y-79120000D01*
X138520000Y-79200000D02*
X138600000Y-79120000D01*
X138520000Y-100498000D02*
X138520000Y-79200000D01*
%TO.N,COL2*%
X157570000Y-120200000D02*
X157570000Y-100097000D01*
X157570000Y-100097000D02*
X157650000Y-100017000D01*
X157650000Y-100017000D02*
X157650000Y-79120000D01*
X157650000Y-60070000D02*
X157650000Y-79120000D01*
%TO.N,COL3*%
X176700000Y-77593300D02*
X175800000Y-76693300D01*
X137355000Y-100898000D02*
X137250000Y-101003000D01*
X137250000Y-111500000D02*
X130750000Y-118000000D01*
X174000000Y-84013700D02*
X174000000Y-85533700D01*
X176400000Y-64151500D02*
X176400000Y-60370000D01*
X175000000Y-83013700D02*
X174000000Y-84013700D01*
X176400000Y-60370000D02*
X176700000Y-60070000D01*
X176700000Y-79120000D02*
X176700000Y-77593300D01*
X175800000Y-70600000D02*
X176000000Y-70400000D01*
X176700000Y-79120000D02*
X175000000Y-80820000D01*
X172400000Y-87133700D02*
X172400000Y-96408000D01*
X137250000Y-101003000D02*
X137250000Y-111500000D01*
X175000000Y-80820000D02*
X175000000Y-83013700D01*
X172400000Y-96408000D02*
X176478000Y-100486000D01*
X174000000Y-85533700D02*
X172400000Y-87133700D01*
X176000000Y-64551500D02*
X176400000Y-64151500D01*
X176000000Y-70400000D02*
X176000000Y-64551500D01*
X175800000Y-76693300D02*
X175800000Y-70600000D01*
%TO.N,+3.3V*%
X152750000Y-93250000D02*
X149400000Y-96600000D01*
X149400000Y-96600000D02*
X149400000Y-96675000D01*
%TO.N,Net-(D20-DOUT)*%
X139004000Y-100862529D02*
X139004000Y-110464000D01*
X139850000Y-65796000D02*
X139850000Y-100016529D01*
X139004000Y-110464000D02*
X139620000Y-111080000D01*
X139850000Y-100016529D02*
X139004000Y-100862529D01*
X140046000Y-65600000D02*
X139850000Y-65796000D01*
%TO.N,Net-(D24-DOUT)*%
X123633000Y-98107800D02*
X124800000Y-99275000D01*
X126075000Y-90725000D02*
X123633000Y-93167200D01*
X123633000Y-93167200D02*
X123633000Y-98107800D01*
X126850000Y-90725000D02*
X126075000Y-90725000D01*
%TO.N,Net-(D25-DOUT)*%
X136190000Y-95010000D02*
X132908000Y-95010000D01*
X175689000Y-89964200D02*
X178200000Y-92475000D01*
X137920000Y-91871500D02*
X136600000Y-93191500D01*
X173164000Y-89964200D02*
X175689000Y-89964200D01*
X136600000Y-94600000D02*
X136190000Y-95010000D01*
X136600000Y-93191500D02*
X136600000Y-94600000D01*
X132908000Y-95010000D02*
X132371000Y-95547000D01*
%TO.N,Net-(D26-DOUT)*%
X174700000Y-90725000D02*
X177375000Y-93400000D01*
X177375000Y-93400000D02*
X188825000Y-93400000D01*
X188825000Y-93400000D02*
X189750000Y-92475000D01*
%TO.N,Net-(D27-DOUT)*%
X187275000Y-91750000D02*
X190850000Y-91750000D01*
X190275000Y-93200000D02*
X184200000Y-99275000D01*
X186250000Y-90725000D02*
X187275000Y-91750000D01*
X190850000Y-91750000D02*
X190850000Y-93200000D01*
X190850000Y-93200000D02*
X190275000Y-93200000D01*
%TD*%
%TA.AperFunction,Conductor*%
%TO.N,GND*%
G36*
X189092539Y-89420185D02*
G01*
X189138294Y-89472989D01*
X189149500Y-89524500D01*
X189149500Y-89675500D01*
X189129815Y-89742539D01*
X189077011Y-89788294D01*
X189025501Y-89799500D01*
X188902130Y-89799500D01*
X188902123Y-89799501D01*
X188842516Y-89805908D01*
X188707671Y-89856202D01*
X188707664Y-89856206D01*
X188592455Y-89942452D01*
X188592452Y-89942455D01*
X188506206Y-90057664D01*
X188506202Y-90057671D01*
X188455908Y-90192517D01*
X188450316Y-90244536D01*
X188449500Y-90252127D01*
X188449500Y-90679901D01*
X188449501Y-91025500D01*
X188429817Y-91092539D01*
X188377013Y-91138294D01*
X188325501Y-91149500D01*
X187674500Y-91149500D01*
X187607461Y-91129815D01*
X187561706Y-91077011D01*
X187550500Y-91025500D01*
X187550499Y-90252129D01*
X187550498Y-90252123D01*
X187550497Y-90252116D01*
X187544091Y-90192517D01*
X187541530Y-90185651D01*
X187493797Y-90057671D01*
X187493793Y-90057664D01*
X187407547Y-89942455D01*
X187407544Y-89942452D01*
X187292335Y-89856206D01*
X187292328Y-89856202D01*
X187157482Y-89805908D01*
X187157483Y-89805908D01*
X187097883Y-89799501D01*
X187097881Y-89799500D01*
X187097873Y-89799500D01*
X187097864Y-89799500D01*
X185402129Y-89799500D01*
X185402123Y-89799501D01*
X185342516Y-89805908D01*
X185207671Y-89856202D01*
X185207664Y-89856206D01*
X185092455Y-89942452D01*
X185092452Y-89942455D01*
X185006206Y-90057664D01*
X185006202Y-90057671D01*
X184955908Y-90192517D01*
X184950316Y-90244536D01*
X184949501Y-90252123D01*
X184949500Y-90252135D01*
X184949500Y-91197870D01*
X184949501Y-91197876D01*
X184955908Y-91257483D01*
X185006202Y-91392328D01*
X185006206Y-91392335D01*
X185092452Y-91507544D01*
X185097584Y-91512676D01*
X185131069Y-91573999D01*
X185126085Y-91643691D01*
X185097584Y-91688038D01*
X185092809Y-91692812D01*
X185006649Y-91807906D01*
X185006645Y-91807913D01*
X184956403Y-91942620D01*
X184956401Y-91942627D01*
X184950000Y-92002155D01*
X184950000Y-92225000D01*
X186863498Y-92225000D01*
X186925495Y-92241611D01*
X186965728Y-92264839D01*
X186993095Y-92280639D01*
X186993097Y-92280641D01*
X187031151Y-92302611D01*
X187043215Y-92309577D01*
X187195943Y-92350501D01*
X187195946Y-92350501D01*
X187361653Y-92350501D01*
X187361669Y-92350500D01*
X188325500Y-92350500D01*
X188392539Y-92370185D01*
X188438294Y-92422989D01*
X188449500Y-92474499D01*
X188449501Y-92675499D01*
X188429817Y-92742539D01*
X188377013Y-92788294D01*
X188325501Y-92799500D01*
X187674000Y-92799500D01*
X187606961Y-92779815D01*
X187588791Y-92758846D01*
X187586319Y-92761319D01*
X187550000Y-92725000D01*
X184950000Y-92725000D01*
X184913681Y-92761319D01*
X184911341Y-92758979D01*
X184877511Y-92788294D01*
X184826000Y-92799500D01*
X179624500Y-92799500D01*
X179557461Y-92779815D01*
X179511706Y-92727011D01*
X179500500Y-92675500D01*
X179500499Y-92002129D01*
X179500498Y-92002123D01*
X179499878Y-91996358D01*
X179494091Y-91942517D01*
X179491781Y-91936324D01*
X179443797Y-91807671D01*
X179443793Y-91807664D01*
X179357547Y-91692455D01*
X179352773Y-91687681D01*
X179319288Y-91626358D01*
X179324272Y-91556666D01*
X179352773Y-91512319D01*
X179357542Y-91507548D01*
X179357546Y-91507546D01*
X179443796Y-91392331D01*
X179494091Y-91257483D01*
X179500500Y-91197873D01*
X179500499Y-90325095D01*
X179520183Y-90258057D01*
X179536813Y-90237420D01*
X180337416Y-89436819D01*
X180398739Y-89403334D01*
X180425097Y-89400500D01*
X189025500Y-89400500D01*
X189092539Y-89420185D01*
G37*
%TD.AperFunction*%
%TA.AperFunction,Conductor*%
G36*
X178355703Y-78967284D02*
G01*
X178362181Y-78973316D01*
X180203181Y-80814316D01*
X180236666Y-80875639D01*
X180239500Y-80901997D01*
X180239500Y-84114281D01*
X180219815Y-84181320D01*
X180171795Y-84224765D01*
X180132185Y-84244947D01*
X180132184Y-84244948D01*
X179960213Y-84369890D01*
X179809890Y-84520213D01*
X179684949Y-84692182D01*
X179680484Y-84700946D01*
X179632509Y-84751742D01*
X179564688Y-84768536D01*
X179498553Y-84745998D01*
X179459516Y-84700946D01*
X179455050Y-84692182D01*
X179330109Y-84520213D01*
X179179786Y-84369890D01*
X179007820Y-84244951D01*
X178818414Y-84148444D01*
X178818413Y-84148443D01*
X178818412Y-84148443D01*
X178616243Y-84082754D01*
X178616241Y-84082753D01*
X178616240Y-84082753D01*
X178454957Y-84057208D01*
X178406287Y-84049500D01*
X178193713Y-84049500D01*
X178145042Y-84057208D01*
X177983760Y-84082753D01*
X177781585Y-84148444D01*
X177592179Y-84244951D01*
X177420213Y-84369890D01*
X177269890Y-84520213D01*
X177144949Y-84692182D01*
X177140484Y-84700946D01*
X177092509Y-84751742D01*
X177024688Y-84768536D01*
X176958553Y-84745998D01*
X176919516Y-84700946D01*
X176915050Y-84692182D01*
X176790109Y-84520213D01*
X176639786Y-84369890D01*
X176467820Y-84244951D01*
X176278414Y-84148444D01*
X176278413Y-84148443D01*
X176278412Y-84148443D01*
X176076243Y-84082754D01*
X176076241Y-84082753D01*
X176076240Y-84082753D01*
X175914957Y-84057208D01*
X175866287Y-84049500D01*
X175653713Y-84049500D01*
X175605042Y-84057208D01*
X175443760Y-84082753D01*
X175241585Y-84148444D01*
X175052179Y-84244951D01*
X174880213Y-84369890D01*
X174880209Y-84369894D01*
X174812181Y-84437923D01*
X174750858Y-84471408D01*
X174681166Y-84466424D01*
X174625233Y-84424552D01*
X174600816Y-84359088D01*
X174600500Y-84350242D01*
X174600500Y-84313797D01*
X174620185Y-84246758D01*
X174636819Y-84226116D01*
X174928292Y-83934643D01*
X175480520Y-83382416D01*
X175559577Y-83245484D01*
X175600501Y-83092757D01*
X175600501Y-82934642D01*
X175600501Y-82927047D01*
X175600500Y-82927029D01*
X175600500Y-81120096D01*
X175620185Y-81053057D01*
X175636815Y-81032419D01*
X175938263Y-80730970D01*
X175999584Y-80697487D01*
X176069275Y-80702471D01*
X176082237Y-80708168D01*
X176143196Y-80739229D01*
X176143198Y-80739229D01*
X176143201Y-80739231D01*
X176259592Y-80777049D01*
X176360339Y-80809784D01*
X176585838Y-80845500D01*
X176585843Y-80845500D01*
X176814162Y-80845500D01*
X177039660Y-80809784D01*
X177091466Y-80792951D01*
X177256799Y-80739231D01*
X177460228Y-80635579D01*
X177644937Y-80501379D01*
X177806379Y-80339937D01*
X177940579Y-80155228D01*
X178044231Y-79951799D01*
X178114784Y-79734660D01*
X178131383Y-79629859D01*
X178150500Y-79509162D01*
X178150500Y-79060997D01*
X178170185Y-78993958D01*
X178222989Y-78948203D01*
X178292147Y-78938259D01*
X178355703Y-78967284D01*
G37*
%TD.AperFunction*%
%TA.AperFunction,Conductor*%
G36*
X192942539Y-43520185D02*
G01*
X192988294Y-43572989D01*
X192999500Y-43624500D01*
X192999500Y-127375500D01*
X192979815Y-127442539D01*
X192927011Y-127488294D01*
X192875500Y-127499500D01*
X157738884Y-127499500D01*
X157671845Y-127479815D01*
X157626090Y-127427011D01*
X157616146Y-127357853D01*
X157637310Y-127304376D01*
X157743595Y-127152585D01*
X157743599Y-127152579D01*
X157843429Y-126938492D01*
X157843432Y-126938486D01*
X157900636Y-126725000D01*
X157003012Y-126725000D01*
X157035925Y-126667993D01*
X157070000Y-126540826D01*
X157070000Y-126409174D01*
X157035925Y-126282007D01*
X157003012Y-126225000D01*
X157900636Y-126225000D01*
X157900635Y-126224999D01*
X157843432Y-126011513D01*
X157843429Y-126011507D01*
X157743600Y-125797422D01*
X157743599Y-125797420D01*
X157608113Y-125603926D01*
X157608108Y-125603920D01*
X157441082Y-125436894D01*
X157247578Y-125301399D01*
X157033492Y-125201570D01*
X157033486Y-125201567D01*
X156820000Y-125144364D01*
X156820000Y-126041988D01*
X156762993Y-126009075D01*
X156635826Y-125975000D01*
X156504174Y-125975000D01*
X156377007Y-126009075D01*
X156320000Y-126041988D01*
X156320000Y-125144364D01*
X156319999Y-125144364D01*
X156106513Y-125201567D01*
X156106507Y-125201570D01*
X155892422Y-125301399D01*
X155892420Y-125301400D01*
X155698926Y-125436886D01*
X155698920Y-125436891D01*
X155531891Y-125603920D01*
X155531890Y-125603922D01*
X155401880Y-125789595D01*
X155347303Y-125833219D01*
X155277804Y-125840412D01*
X155215450Y-125808890D01*
X155198730Y-125789594D01*
X155068494Y-125603597D01*
X154901402Y-125436506D01*
X154901395Y-125436501D01*
X154707831Y-125300965D01*
X154707826Y-125300962D01*
X154702091Y-125298288D01*
X154649653Y-125252113D01*
X154630500Y-125185908D01*
X154630500Y-123878711D01*
X187649500Y-123878711D01*
X187649500Y-124121288D01*
X187681161Y-124361785D01*
X187743947Y-124596104D01*
X187836773Y-124820205D01*
X187836776Y-124820212D01*
X187958064Y-125030289D01*
X187958066Y-125030292D01*
X187958067Y-125030293D01*
X188105733Y-125222736D01*
X188105739Y-125222743D01*
X188277256Y-125394260D01*
X188277262Y-125394265D01*
X188469711Y-125541936D01*
X188679788Y-125663224D01*
X188903900Y-125756054D01*
X189138211Y-125818838D01*
X189302085Y-125840412D01*
X189378711Y-125850500D01*
X189378712Y-125850500D01*
X189621289Y-125850500D01*
X189697915Y-125840412D01*
X189861789Y-125818838D01*
X190096100Y-125756054D01*
X190320212Y-125663224D01*
X190530289Y-125541936D01*
X190722738Y-125394265D01*
X190894265Y-125222738D01*
X191041936Y-125030289D01*
X191163224Y-124820212D01*
X191256054Y-124596100D01*
X191318838Y-124361789D01*
X191350500Y-124121288D01*
X191350500Y-123878712D01*
X191318838Y-123638211D01*
X191256054Y-123403900D01*
X191163224Y-123179788D01*
X191041936Y-122969711D01*
X190894265Y-122777262D01*
X190894260Y-122777256D01*
X190722743Y-122605739D01*
X190722736Y-122605733D01*
X190530293Y-122458067D01*
X190530292Y-122458066D01*
X190530289Y-122458064D01*
X190354162Y-122356377D01*
X190320214Y-122336777D01*
X190320205Y-122336773D01*
X190096104Y-122243947D01*
X189913201Y-122194938D01*
X189861789Y-122181162D01*
X189861788Y-122181161D01*
X189861785Y-122181161D01*
X189621289Y-122149500D01*
X189621288Y-122149500D01*
X189378712Y-122149500D01*
X189378711Y-122149500D01*
X189138214Y-122181161D01*
X188903895Y-122243947D01*
X188679794Y-122336773D01*
X188679785Y-122336777D01*
X188497851Y-122441817D01*
X188470607Y-122457547D01*
X188469706Y-122458067D01*
X188277263Y-122605733D01*
X188277256Y-122605739D01*
X188105739Y-122777256D01*
X188105733Y-122777263D01*
X187958067Y-122969706D01*
X187836777Y-123179785D01*
X187836773Y-123179794D01*
X187743947Y-123403895D01*
X187681161Y-123638214D01*
X187649500Y-123878711D01*
X154630500Y-123878711D01*
X154630500Y-119810837D01*
X156119500Y-119810837D01*
X156119500Y-120589162D01*
X156155215Y-120814660D01*
X156225770Y-121031803D01*
X156329421Y-121235228D01*
X156463621Y-121419937D01*
X156625063Y-121581379D01*
X156809772Y-121715579D01*
X156905884Y-121764550D01*
X157013196Y-121819229D01*
X157013198Y-121819229D01*
X157013201Y-121819231D01*
X157129592Y-121857049D01*
X157230339Y-121889784D01*
X157455838Y-121925500D01*
X157455843Y-121925500D01*
X157684162Y-121925500D01*
X157909660Y-121889784D01*
X158126799Y-121819231D01*
X158330228Y-121715579D01*
X158514937Y-121581379D01*
X158676379Y-121419937D01*
X158810579Y-121235228D01*
X158861221Y-121135837D01*
X162844500Y-121135837D01*
X162844500Y-121364162D01*
X162880215Y-121589660D01*
X162950770Y-121806803D01*
X163011250Y-121925500D01*
X163054421Y-122010228D01*
X163188621Y-122194937D01*
X163350063Y-122356379D01*
X163534772Y-122490579D01*
X163630884Y-122539550D01*
X163738196Y-122594229D01*
X163738198Y-122594229D01*
X163738201Y-122594231D01*
X163854592Y-122632049D01*
X163955339Y-122664784D01*
X164180838Y-122700500D01*
X164180843Y-122700500D01*
X164959162Y-122700500D01*
X165184660Y-122664784D01*
X165401799Y-122594231D01*
X165605228Y-122490579D01*
X165789937Y-122356379D01*
X165951379Y-122194937D01*
X166085579Y-122010228D01*
X166189231Y-121806799D01*
X166259784Y-121589660D01*
X166261096Y-121581377D01*
X166295500Y-121364162D01*
X166295500Y-121135837D01*
X166259784Y-120910339D01*
X166189229Y-120693196D01*
X166085578Y-120489771D01*
X165951379Y-120305063D01*
X165789937Y-120143621D01*
X165664019Y-120052135D01*
X179649500Y-120052135D01*
X179649500Y-122147870D01*
X179649501Y-122147876D01*
X179655908Y-122207483D01*
X179706202Y-122342328D01*
X179706206Y-122342335D01*
X179792452Y-122457544D01*
X179792455Y-122457547D01*
X179907664Y-122543793D01*
X179907671Y-122543797D01*
X180042517Y-122594091D01*
X180042516Y-122594091D01*
X180049444Y-122594835D01*
X180102127Y-122600500D01*
X183397872Y-122600499D01*
X183457483Y-122594091D01*
X183592331Y-122543796D01*
X183707546Y-122457546D01*
X183793796Y-122342331D01*
X183844091Y-122207483D01*
X183850500Y-122147873D01*
X183850499Y-120052128D01*
X183844091Y-119992517D01*
X183825542Y-119942785D01*
X183793797Y-119857671D01*
X183793793Y-119857664D01*
X183707547Y-119742455D01*
X183707544Y-119742452D01*
X183592335Y-119656206D01*
X183592328Y-119656202D01*
X183457482Y-119605908D01*
X183457483Y-119605908D01*
X183397883Y-119599501D01*
X183397881Y-119599500D01*
X183397873Y-119599500D01*
X183397864Y-119599500D01*
X180102129Y-119599500D01*
X180102123Y-119599501D01*
X180042516Y-119605908D01*
X179907671Y-119656202D01*
X179907664Y-119656206D01*
X179792455Y-119742452D01*
X179792452Y-119742455D01*
X179706206Y-119857664D01*
X179706202Y-119857671D01*
X179655908Y-119992517D01*
X179653848Y-120011684D01*
X179649501Y-120052123D01*
X179649500Y-120052135D01*
X165664019Y-120052135D01*
X165608343Y-120011684D01*
X165565678Y-119956353D01*
X165559699Y-119886740D01*
X165592305Y-119824945D01*
X165593474Y-119823759D01*
X166070506Y-119346728D01*
X166070511Y-119346724D01*
X166080714Y-119336520D01*
X166080716Y-119336520D01*
X166192520Y-119224716D01*
X166260057Y-119107738D01*
X166271577Y-119087785D01*
X166312501Y-118935057D01*
X166312501Y-118776943D01*
X166312501Y-118769348D01*
X166312500Y-118769330D01*
X166312500Y-107788096D01*
X166332185Y-107721057D01*
X166348815Y-107700419D01*
X166818535Y-107230698D01*
X166879856Y-107197215D01*
X166892311Y-107195163D01*
X166979255Y-107185368D01*
X167149522Y-107125789D01*
X167302262Y-107029816D01*
X167429816Y-106902262D01*
X167525789Y-106749522D01*
X167585368Y-106579255D01*
X167605565Y-106400000D01*
X167602419Y-106372082D01*
X167585369Y-106220750D01*
X167585368Y-106220745D01*
X167525788Y-106050476D01*
X167445681Y-105922987D01*
X167429816Y-105897738D01*
X167302262Y-105770184D01*
X167231608Y-105725789D01*
X167149523Y-105674211D01*
X166979254Y-105614631D01*
X166979249Y-105614630D01*
X166800004Y-105594435D01*
X166799996Y-105594435D01*
X166620750Y-105614630D01*
X166620745Y-105614631D01*
X166450476Y-105674211D01*
X166297737Y-105770184D01*
X166170184Y-105897737D01*
X166074210Y-106050478D01*
X166014630Y-106220750D01*
X166004837Y-106307668D01*
X165977770Y-106372082D01*
X165969298Y-106381465D01*
X165343286Y-107007478D01*
X165231481Y-107119282D01*
X165231477Y-107119287D01*
X165193327Y-107185367D01*
X165193327Y-107185368D01*
X165152423Y-107256214D01*
X165152423Y-107256215D01*
X165111499Y-107408943D01*
X165111499Y-107408945D01*
X165111499Y-107577046D01*
X165111500Y-107577059D01*
X165111500Y-118555902D01*
X165091815Y-118622941D01*
X165075181Y-118643583D01*
X164089481Y-119629282D01*
X164089479Y-119629285D01*
X164039361Y-119716094D01*
X164039360Y-119716095D01*
X164010422Y-119766216D01*
X164007833Y-119772466D01*
X163963986Y-119826864D01*
X163931596Y-119842931D01*
X163738196Y-119905770D01*
X163534771Y-120009421D01*
X163350061Y-120143622D01*
X163188622Y-120305061D01*
X163054421Y-120489771D01*
X162950770Y-120693196D01*
X162880215Y-120910339D01*
X162844500Y-121135837D01*
X158861221Y-121135837D01*
X158914231Y-121031799D01*
X158984784Y-120814660D01*
X159020500Y-120589162D01*
X159020500Y-119810837D01*
X158984784Y-119585339D01*
X158943919Y-119459570D01*
X158914231Y-119368201D01*
X158914229Y-119368198D01*
X158914229Y-119368196D01*
X158810578Y-119164771D01*
X158676379Y-118980063D01*
X158514937Y-118818621D01*
X158330228Y-118684421D01*
X158330227Y-118684420D01*
X158330225Y-118684419D01*
X158238204Y-118637531D01*
X158187409Y-118589556D01*
X158170500Y-118527047D01*
X158170500Y-115342722D01*
X159169500Y-115342722D01*
X159169500Y-115657277D01*
X159204716Y-115969827D01*
X159204718Y-115969843D01*
X159274710Y-116276499D01*
X159274711Y-116276501D01*
X159378598Y-116573395D01*
X159515072Y-116856786D01*
X159515074Y-116856789D01*
X159682423Y-117123123D01*
X159878539Y-117369044D01*
X160100956Y-117591461D01*
X160346877Y-117787577D01*
X160613211Y-117954926D01*
X160896606Y-118091402D01*
X161193500Y-118195289D01*
X161500160Y-118265282D01*
X161812723Y-118300499D01*
X161812724Y-118300500D01*
X161812727Y-118300500D01*
X162127276Y-118300500D01*
X162127276Y-118300499D01*
X162439840Y-118265282D01*
X162746500Y-118195289D01*
X163043394Y-118091402D01*
X163326789Y-117954926D01*
X163593123Y-117787577D01*
X163839044Y-117591461D01*
X164061461Y-117369044D01*
X164257577Y-117123123D01*
X164424926Y-116856789D01*
X164561402Y-116573394D01*
X164665289Y-116276500D01*
X164735282Y-115969840D01*
X164770500Y-115657273D01*
X164770500Y-115342727D01*
X164735282Y-115030160D01*
X164665289Y-114723500D01*
X164561402Y-114426606D01*
X164424926Y-114143211D01*
X164257577Y-113876877D01*
X164061461Y-113630956D01*
X163839044Y-113408539D01*
X163593123Y-113212423D01*
X163326789Y-113045074D01*
X163326786Y-113045072D01*
X163043395Y-112908598D01*
X162746501Y-112804711D01*
X162746499Y-112804710D01*
X162439843Y-112734718D01*
X162439827Y-112734716D01*
X162127277Y-112699500D01*
X162127273Y-112699500D01*
X161812727Y-112699500D01*
X161812722Y-112699500D01*
X161500172Y-112734716D01*
X161500156Y-112734718D01*
X161193500Y-112804710D01*
X161193498Y-112804711D01*
X160896604Y-112908598D01*
X160613213Y-113045072D01*
X160346878Y-113212422D01*
X160100956Y-113408538D01*
X159878538Y-113630956D01*
X159682422Y-113876878D01*
X159515072Y-114143213D01*
X159378598Y-114426604D01*
X159274711Y-114723498D01*
X159274710Y-114723500D01*
X159204718Y-115030156D01*
X159204716Y-115030172D01*
X159169500Y-115342722D01*
X158170500Y-115342722D01*
X158170500Y-108764108D01*
X159069500Y-108764108D01*
X159069500Y-111895891D01*
X159103608Y-112023187D01*
X159133647Y-112075215D01*
X159169500Y-112137314D01*
X159262686Y-112230500D01*
X159376814Y-112296392D01*
X159504108Y-112330500D01*
X159504110Y-112330500D01*
X163035890Y-112330500D01*
X163035892Y-112330500D01*
X163163186Y-112296392D01*
X163277314Y-112230500D01*
X163370500Y-112137314D01*
X163436392Y-112023186D01*
X163470500Y-111895892D01*
X163470500Y-108764108D01*
X163436392Y-108636814D01*
X163370500Y-108522686D01*
X163277314Y-108429500D01*
X163220250Y-108396554D01*
X163163187Y-108363608D01*
X163099539Y-108346554D01*
X163035892Y-108329500D01*
X159635892Y-108329500D01*
X159504108Y-108329500D01*
X159376812Y-108363608D01*
X159262686Y-108429500D01*
X159262683Y-108429502D01*
X159169502Y-108522683D01*
X159169500Y-108522686D01*
X159103608Y-108636812D01*
X159069500Y-108764108D01*
X158170500Y-108764108D01*
X158170500Y-100679412D01*
X158190185Y-100612373D01*
X158197555Y-100602097D01*
X158199810Y-100599267D01*
X158199816Y-100599262D01*
X158295789Y-100446522D01*
X158355368Y-100276255D01*
X158356273Y-100268227D01*
X158375565Y-100097003D01*
X158375565Y-100096996D01*
X158355369Y-99917750D01*
X158355368Y-99917745D01*
X158351799Y-99907546D01*
X158295789Y-99747478D01*
X158295788Y-99747476D01*
X158269506Y-99705648D01*
X158250500Y-99639676D01*
X158250500Y-88305096D01*
X167842435Y-88305096D01*
X167842435Y-88305103D01*
X167862630Y-88484349D01*
X167862631Y-88484354D01*
X167922211Y-88654623D01*
X168018185Y-88807363D01*
X168020445Y-88810197D01*
X168021334Y-88812375D01*
X168021889Y-88813258D01*
X168021734Y-88813355D01*
X168046855Y-88874883D01*
X168047500Y-88887512D01*
X168047500Y-102496587D01*
X168027815Y-102563626D01*
X168020450Y-102573896D01*
X168018186Y-102576734D01*
X167922211Y-102729476D01*
X167862631Y-102899745D01*
X167862630Y-102899750D01*
X167842435Y-103078996D01*
X167842435Y-103079003D01*
X167862630Y-103258249D01*
X167862631Y-103258254D01*
X167922211Y-103428523D01*
X167952371Y-103476522D01*
X168018184Y-103581262D01*
X168145738Y-103708816D01*
X168146687Y-103709412D01*
X168243404Y-103770184D01*
X168298478Y-103804789D01*
X168468745Y-103864368D01*
X168468750Y-103864369D01*
X168647996Y-103884565D01*
X168648000Y-103884565D01*
X168648004Y-103884565D01*
X168827249Y-103864369D01*
X168827252Y-103864368D01*
X168827255Y-103864368D01*
X168997522Y-103804789D01*
X169150262Y-103708816D01*
X169277816Y-103581262D01*
X169373789Y-103428522D01*
X169433368Y-103258255D01*
X169433369Y-103258249D01*
X169453565Y-103079003D01*
X169453565Y-103078996D01*
X169433369Y-102899750D01*
X169433368Y-102899745D01*
X169373788Y-102729476D01*
X169277813Y-102576734D01*
X169275550Y-102573896D01*
X169274659Y-102571715D01*
X169274111Y-102570842D01*
X169274264Y-102570745D01*
X169249144Y-102509209D01*
X169248500Y-102496587D01*
X169248500Y-94946996D01*
X170778435Y-94946996D01*
X170778435Y-94947003D01*
X170798630Y-95126249D01*
X170798631Y-95126254D01*
X170858211Y-95296523D01*
X170954185Y-95449263D01*
X170956445Y-95452097D01*
X170957334Y-95454275D01*
X170957889Y-95455158D01*
X170957734Y-95455255D01*
X170982855Y-95516783D01*
X170983500Y-95529412D01*
X170983500Y-115247330D01*
X170983499Y-115247348D01*
X170983499Y-115413054D01*
X170983498Y-115413054D01*
X170983499Y-115413057D01*
X171024423Y-115565785D01*
X171042635Y-115597329D01*
X171047029Y-115604938D01*
X171047030Y-115604942D01*
X171047031Y-115604942D01*
X171103479Y-115702714D01*
X171103481Y-115702717D01*
X171222349Y-115821585D01*
X171222355Y-115821590D01*
X172793482Y-117392717D01*
X172826967Y-117454040D01*
X172826007Y-117510838D01*
X172764892Y-117752174D01*
X172764890Y-117752187D01*
X172744357Y-117999994D01*
X172744357Y-118000005D01*
X172764890Y-118247812D01*
X172764892Y-118247824D01*
X172825936Y-118488881D01*
X172925826Y-118716606D01*
X173061833Y-118924782D01*
X173061836Y-118924785D01*
X173230256Y-119107738D01*
X173426491Y-119260474D01*
X173426493Y-119260475D01*
X173567013Y-119336521D01*
X173645190Y-119378828D01*
X173880386Y-119459571D01*
X174125665Y-119500500D01*
X174374335Y-119500500D01*
X174619614Y-119459571D01*
X174854810Y-119378828D01*
X175073509Y-119260474D01*
X175269744Y-119107738D01*
X175438164Y-118924785D01*
X175574173Y-118716607D01*
X175674063Y-118488881D01*
X175735108Y-118247821D01*
X175739461Y-118195288D01*
X175755643Y-118000005D01*
X175755643Y-117999994D01*
X175735109Y-117752187D01*
X175735107Y-117752175D01*
X175674063Y-117511118D01*
X175574173Y-117283393D01*
X175438166Y-117075217D01*
X175417860Y-117053159D01*
X175269744Y-116892262D01*
X175224168Y-116856789D01*
X175168622Y-116813555D01*
X175127809Y-116756845D01*
X175123695Y-116727249D01*
X174379408Y-115982962D01*
X174442993Y-115965925D01*
X174557007Y-115900099D01*
X174650099Y-115807007D01*
X174715925Y-115692993D01*
X174732962Y-115629409D01*
X175473435Y-116369882D01*
X175573733Y-116216364D01*
X175673587Y-115988717D01*
X175734612Y-115747738D01*
X175734614Y-115747729D01*
X175755141Y-115500005D01*
X175755141Y-115499994D01*
X175734614Y-115252270D01*
X175734612Y-115252261D01*
X175673587Y-115011282D01*
X175573732Y-114783632D01*
X175461515Y-114611870D01*
X175441328Y-114544981D01*
X175460508Y-114477795D01*
X175491013Y-114444782D01*
X175492329Y-114443796D01*
X175492331Y-114443796D01*
X175607546Y-114357546D01*
X175693796Y-114242331D01*
X175744091Y-114107483D01*
X175750500Y-114047873D01*
X175750499Y-111952128D01*
X175744091Y-111892517D01*
X175736488Y-111872133D01*
X175693797Y-111757671D01*
X175693793Y-111757664D01*
X175607547Y-111642455D01*
X175607544Y-111642452D01*
X175492335Y-111556206D01*
X175492328Y-111556202D01*
X175357482Y-111505908D01*
X175357483Y-111505908D01*
X175297883Y-111499501D01*
X175297881Y-111499500D01*
X175297873Y-111499500D01*
X175297864Y-111499500D01*
X173202129Y-111499500D01*
X173202123Y-111499501D01*
X173142516Y-111505908D01*
X173007671Y-111556202D01*
X173007664Y-111556206D01*
X172892455Y-111642452D01*
X172892452Y-111642455D01*
X172806206Y-111757664D01*
X172806202Y-111757671D01*
X172755908Y-111892517D01*
X172752783Y-111921588D01*
X172749501Y-111952123D01*
X172749500Y-111952135D01*
X172749500Y-114047870D01*
X172749501Y-114047876D01*
X172755908Y-114107483D01*
X172806202Y-114242328D01*
X172806206Y-114242335D01*
X172892452Y-114357544D01*
X172892455Y-114357547D01*
X173008986Y-114444783D01*
X173050857Y-114500717D01*
X173055841Y-114570408D01*
X173038484Y-114611870D01*
X172926267Y-114783631D01*
X172826412Y-115011282D01*
X172765387Y-115252261D01*
X172765385Y-115252269D01*
X172755806Y-115367874D01*
X172730653Y-115433058D01*
X172674250Y-115474296D01*
X172604507Y-115478494D01*
X172544549Y-115445314D01*
X172220819Y-115121584D01*
X172187334Y-115060261D01*
X172184500Y-115033903D01*
X172184500Y-108852135D01*
X179649500Y-108852135D01*
X179649500Y-110947870D01*
X179649501Y-110947876D01*
X179655908Y-111007483D01*
X179706202Y-111142328D01*
X179706206Y-111142335D01*
X179792452Y-111257544D01*
X179792455Y-111257547D01*
X179907664Y-111343793D01*
X179907671Y-111343797D01*
X180042517Y-111394091D01*
X180042516Y-111394091D01*
X180049444Y-111394835D01*
X180102127Y-111400500D01*
X183397872Y-111400499D01*
X183457483Y-111394091D01*
X183592331Y-111343796D01*
X183707546Y-111257546D01*
X183793796Y-111142331D01*
X183844091Y-111007483D01*
X183850500Y-110947873D01*
X183850499Y-108852128D01*
X183844091Y-108792517D01*
X183793796Y-108657669D01*
X183793795Y-108657668D01*
X183793793Y-108657664D01*
X183707547Y-108542455D01*
X183707544Y-108542452D01*
X183592335Y-108456206D01*
X183592328Y-108456202D01*
X183457482Y-108405908D01*
X183457483Y-108405908D01*
X183397883Y-108399501D01*
X183397881Y-108399500D01*
X183397873Y-108399500D01*
X183397864Y-108399500D01*
X180102129Y-108399500D01*
X180102123Y-108399501D01*
X180042516Y-108405908D01*
X179907671Y-108456202D01*
X179907664Y-108456206D01*
X179792455Y-108542452D01*
X179792452Y-108542455D01*
X179706206Y-108657664D01*
X179706202Y-108657671D01*
X179655908Y-108792517D01*
X179649501Y-108852116D01*
X179649501Y-108852123D01*
X179649500Y-108852135D01*
X172184500Y-108852135D01*
X172184500Y-97341097D01*
X172204185Y-97274058D01*
X172256989Y-97228303D01*
X172326147Y-97218359D01*
X172389703Y-97247384D01*
X172396181Y-97253416D01*
X173519954Y-98377189D01*
X173553439Y-98438512D01*
X173548455Y-98508204D01*
X173506583Y-98564137D01*
X173498258Y-98569856D01*
X173497743Y-98570179D01*
X173497739Y-98570182D01*
X173370184Y-98697737D01*
X173274211Y-98850476D01*
X173214631Y-99020745D01*
X173214630Y-99020750D01*
X173194435Y-99199996D01*
X173194435Y-99200003D01*
X173214630Y-99379249D01*
X173214631Y-99379254D01*
X173274211Y-99549523D01*
X173342047Y-99657482D01*
X173370184Y-99702262D01*
X173497738Y-99829816D01*
X173650478Y-99925789D01*
X173820745Y-99985368D01*
X173907669Y-99995161D01*
X173972080Y-100022226D01*
X173981465Y-100030700D01*
X175192198Y-101241433D01*
X175225683Y-101302756D01*
X175220699Y-101372448D01*
X175178827Y-101428381D01*
X175160813Y-101439598D01*
X175052182Y-101494949D01*
X174880213Y-101619890D01*
X174729890Y-101770213D01*
X174604951Y-101942179D01*
X174508444Y-102131585D01*
X174442753Y-102333760D01*
X174414965Y-102509209D01*
X174409500Y-102543713D01*
X174409500Y-104656287D01*
X174442754Y-104866243D01*
X174495902Y-105029816D01*
X174508444Y-105068414D01*
X174604951Y-105257820D01*
X174729890Y-105429786D01*
X174880213Y-105580109D01*
X175052179Y-105705048D01*
X175052181Y-105705049D01*
X175052184Y-105705051D01*
X175241588Y-105801557D01*
X175443757Y-105867246D01*
X175653713Y-105900500D01*
X175653714Y-105900500D01*
X175866286Y-105900500D01*
X175866287Y-105900500D01*
X176076243Y-105867246D01*
X176278412Y-105801557D01*
X176467816Y-105705051D01*
X176584625Y-105620185D01*
X176639786Y-105580109D01*
X176639788Y-105580106D01*
X176639792Y-105580104D01*
X176790104Y-105429792D01*
X176790106Y-105429788D01*
X176790109Y-105429786D01*
X176915048Y-105257820D01*
X176915047Y-105257820D01*
X176915051Y-105257816D01*
X176919514Y-105249054D01*
X176967488Y-105198259D01*
X177035308Y-105181463D01*
X177101444Y-105203999D01*
X177140486Y-105249056D01*
X177144951Y-105257820D01*
X177269890Y-105429786D01*
X177420213Y-105580109D01*
X177592179Y-105705048D01*
X177592181Y-105705049D01*
X177592184Y-105705051D01*
X177781588Y-105801557D01*
X177983757Y-105867246D01*
X178193713Y-105900500D01*
X178193714Y-105900500D01*
X178406286Y-105900500D01*
X178406287Y-105900500D01*
X178616243Y-105867246D01*
X178818412Y-105801557D01*
X179007816Y-105705051D01*
X179124625Y-105620185D01*
X179179786Y-105580109D01*
X179179788Y-105580106D01*
X179179792Y-105580104D01*
X179330104Y-105429792D01*
X179330106Y-105429788D01*
X179330109Y-105429786D01*
X179455048Y-105257820D01*
X179455047Y-105257820D01*
X179455051Y-105257816D01*
X179459514Y-105249054D01*
X179507488Y-105198259D01*
X179575308Y-105181463D01*
X179641444Y-105203999D01*
X179680486Y-105249056D01*
X179684951Y-105257820D01*
X179809890Y-105429786D01*
X179960213Y-105580109D01*
X180132179Y-105705048D01*
X180132181Y-105705049D01*
X180132184Y-105705051D01*
X180321588Y-105801557D01*
X180523757Y-105867246D01*
X180733713Y-105900500D01*
X180733714Y-105900500D01*
X180946286Y-105900500D01*
X180946287Y-105900500D01*
X181156243Y-105867246D01*
X181358412Y-105801557D01*
X181547816Y-105705051D01*
X181664625Y-105620185D01*
X181719786Y-105580109D01*
X181719788Y-105580106D01*
X181719792Y-105580104D01*
X181870104Y-105429792D01*
X181870106Y-105429788D01*
X181870109Y-105429786D01*
X181995048Y-105257820D01*
X181995047Y-105257820D01*
X181995051Y-105257816D01*
X181999514Y-105249054D01*
X182047488Y-105198259D01*
X182115308Y-105181463D01*
X182181444Y-105203999D01*
X182220486Y-105249056D01*
X182224951Y-105257820D01*
X182349890Y-105429786D01*
X182500213Y-105580109D01*
X182672179Y-105705048D01*
X182672181Y-105705049D01*
X182672184Y-105705051D01*
X182861588Y-105801557D01*
X183063757Y-105867246D01*
X183273713Y-105900500D01*
X183273714Y-105900500D01*
X183486286Y-105900500D01*
X183486287Y-105900500D01*
X183696243Y-105867246D01*
X183898412Y-105801557D01*
X184087816Y-105705051D01*
X184204625Y-105620185D01*
X184259786Y-105580109D01*
X184259788Y-105580106D01*
X184259792Y-105580104D01*
X184410104Y-105429792D01*
X184410106Y-105429788D01*
X184410109Y-105429786D01*
X184535048Y-105257820D01*
X184535047Y-105257820D01*
X184535051Y-105257816D01*
X184539514Y-105249054D01*
X184587488Y-105198259D01*
X184655308Y-105181463D01*
X184721444Y-105203999D01*
X184760486Y-105249056D01*
X184764951Y-105257820D01*
X184889890Y-105429786D01*
X185040213Y-105580109D01*
X185212179Y-105705048D01*
X185212181Y-105705049D01*
X185212184Y-105705051D01*
X185401588Y-105801557D01*
X185603757Y-105867246D01*
X185813713Y-105900500D01*
X185813714Y-105900500D01*
X186026286Y-105900500D01*
X186026287Y-105900500D01*
X186236243Y-105867246D01*
X186438412Y-105801557D01*
X186627816Y-105705051D01*
X186744625Y-105620185D01*
X186799786Y-105580109D01*
X186799788Y-105580106D01*
X186799792Y-105580104D01*
X186950104Y-105429792D01*
X186950106Y-105429788D01*
X186950109Y-105429786D01*
X187075048Y-105257820D01*
X187075047Y-105257820D01*
X187075051Y-105257816D01*
X187079514Y-105249054D01*
X187127488Y-105198259D01*
X187195308Y-105181463D01*
X187261444Y-105203999D01*
X187300486Y-105249056D01*
X187304951Y-105257820D01*
X187429890Y-105429786D01*
X187580213Y-105580109D01*
X187752179Y-105705048D01*
X187752181Y-105705049D01*
X187752184Y-105705051D01*
X187941588Y-105801557D01*
X188143757Y-105867246D01*
X188353713Y-105900500D01*
X188353714Y-105900500D01*
X188566286Y-105900500D01*
X188566287Y-105900500D01*
X188776243Y-105867246D01*
X188978412Y-105801557D01*
X189167816Y-105705051D01*
X189320067Y-105594435D01*
X189339784Y-105580110D01*
X189339784Y-105580109D01*
X189339792Y-105580104D01*
X189466912Y-105452983D01*
X189528231Y-105419501D01*
X189597923Y-105424485D01*
X189653857Y-105466356D01*
X189670772Y-105497334D01*
X189706202Y-105592328D01*
X189706206Y-105592335D01*
X189792452Y-105707544D01*
X189792455Y-105707547D01*
X189907664Y-105793793D01*
X189907671Y-105793797D01*
X189916758Y-105797186D01*
X190042517Y-105844091D01*
X190102127Y-105850500D01*
X190275500Y-105850499D01*
X190342539Y-105870183D01*
X190388294Y-105922987D01*
X190399500Y-105974499D01*
X190399500Y-112433680D01*
X190379815Y-112500719D01*
X190327011Y-112546474D01*
X190257853Y-112556418D01*
X190194297Y-112527393D01*
X190161944Y-112483490D01*
X190074173Y-112283393D01*
X189938166Y-112075217D01*
X189904229Y-112038352D01*
X189769744Y-111892262D01*
X189573509Y-111739526D01*
X189573507Y-111739525D01*
X189573506Y-111739524D01*
X189354811Y-111621172D01*
X189354802Y-111621169D01*
X189119616Y-111540429D01*
X188874335Y-111499500D01*
X188625665Y-111499500D01*
X188380383Y-111540429D01*
X188145197Y-111621169D01*
X188145188Y-111621172D01*
X187926493Y-111739524D01*
X187730257Y-111892261D01*
X187561833Y-112075217D01*
X187425826Y-112283393D01*
X187325936Y-112511118D01*
X187264892Y-112752175D01*
X187264890Y-112752187D01*
X187244357Y-112999994D01*
X187244357Y-113000005D01*
X187264890Y-113247812D01*
X187264892Y-113247824D01*
X187325936Y-113488881D01*
X187425826Y-113716606D01*
X187561833Y-113924782D01*
X187561836Y-113924785D01*
X187730256Y-114107738D01*
X187926491Y-114260474D01*
X188145190Y-114378828D01*
X188380386Y-114459571D01*
X188625665Y-114500500D01*
X188874335Y-114500500D01*
X189119614Y-114459571D01*
X189354810Y-114378828D01*
X189573509Y-114260474D01*
X189769744Y-114107738D01*
X189938164Y-113924785D01*
X190074173Y-113716607D01*
X190161944Y-113516508D01*
X190206900Y-113463023D01*
X190273636Y-113442333D01*
X190340964Y-113461008D01*
X190387507Y-113513118D01*
X190399500Y-113566319D01*
X190399500Y-115449902D01*
X190379815Y-115516941D01*
X190363181Y-115537583D01*
X189353548Y-116547215D01*
X189292225Y-116580700D01*
X189225604Y-116576815D01*
X189119616Y-116540429D01*
X188874335Y-116499500D01*
X188625665Y-116499500D01*
X188380383Y-116540429D01*
X188145197Y-116621169D01*
X188145188Y-116621172D01*
X187926493Y-116739524D01*
X187730257Y-116892261D01*
X187561833Y-117075217D01*
X187425826Y-117283393D01*
X187325936Y-117511118D01*
X187264892Y-117752175D01*
X187264890Y-117752187D01*
X187244357Y-117999994D01*
X187244357Y-118000005D01*
X187264890Y-118247812D01*
X187264892Y-118247824D01*
X187325936Y-118488881D01*
X187425826Y-118716606D01*
X187561833Y-118924782D01*
X187561836Y-118924785D01*
X187730256Y-119107738D01*
X187926491Y-119260474D01*
X187926493Y-119260475D01*
X188067013Y-119336521D01*
X188145190Y-119378828D01*
X188380386Y-119459571D01*
X188625665Y-119500500D01*
X188874335Y-119500500D01*
X189119614Y-119459571D01*
X189354810Y-119378828D01*
X189573509Y-119260474D01*
X189769744Y-119107738D01*
X189938164Y-118924785D01*
X190074173Y-118716607D01*
X190174063Y-118488881D01*
X190235108Y-118247821D01*
X190239461Y-118195288D01*
X190255643Y-118000005D01*
X190255643Y-117999994D01*
X190235109Y-117752187D01*
X190235108Y-117752183D01*
X190235108Y-117752179D01*
X190174063Y-117511119D01*
X190174062Y-117511118D01*
X190173992Y-117510839D01*
X190176616Y-117441018D01*
X190206514Y-117392719D01*
X191480520Y-116118716D01*
X191559577Y-115981784D01*
X191600501Y-115829057D01*
X191600501Y-115670942D01*
X191600501Y-115663347D01*
X191600500Y-115663329D01*
X191600500Y-105974499D01*
X191620185Y-105907460D01*
X191672989Y-105861705D01*
X191724500Y-105850499D01*
X191897871Y-105850499D01*
X191897872Y-105850499D01*
X191957483Y-105844091D01*
X192092331Y-105793796D01*
X192207546Y-105707546D01*
X192293796Y-105592331D01*
X192344091Y-105457483D01*
X192350500Y-105397873D01*
X192350499Y-101802128D01*
X192344091Y-101742517D01*
X192342294Y-101737700D01*
X192293797Y-101607671D01*
X192293793Y-101607664D01*
X192207547Y-101492455D01*
X192207544Y-101492452D01*
X192092335Y-101406206D01*
X192092328Y-101406202D01*
X191957482Y-101355908D01*
X191957483Y-101355908D01*
X191897883Y-101349501D01*
X191897881Y-101349500D01*
X191897873Y-101349500D01*
X191897864Y-101349500D01*
X190102129Y-101349500D01*
X190102123Y-101349501D01*
X190042516Y-101355908D01*
X189907671Y-101406202D01*
X189907664Y-101406206D01*
X189792455Y-101492452D01*
X189792452Y-101492455D01*
X189706206Y-101607664D01*
X189706202Y-101607671D01*
X189670772Y-101702665D01*
X189628901Y-101758599D01*
X189563436Y-101783016D01*
X189495163Y-101768164D01*
X189466909Y-101747013D01*
X189339786Y-101619890D01*
X189167820Y-101494951D01*
X188978414Y-101398444D01*
X188978413Y-101398443D01*
X188978412Y-101398443D01*
X188776243Y-101332754D01*
X188776241Y-101332753D01*
X188776240Y-101332753D01*
X188586844Y-101302756D01*
X188566287Y-101299500D01*
X188353713Y-101299500D01*
X188333156Y-101302756D01*
X188143760Y-101332753D01*
X187941585Y-101398444D01*
X187752179Y-101494951D01*
X187580213Y-101619890D01*
X187429890Y-101770213D01*
X187304949Y-101942182D01*
X187300484Y-101950946D01*
X187252509Y-102001742D01*
X187184688Y-102018536D01*
X187118553Y-101995998D01*
X187079516Y-101950946D01*
X187075050Y-101942182D01*
X186950109Y-101770213D01*
X186799786Y-101619890D01*
X186627820Y-101494951D01*
X186438414Y-101398444D01*
X186438413Y-101398443D01*
X186438412Y-101398443D01*
X186236243Y-101332754D01*
X186236241Y-101332753D01*
X186236240Y-101332753D01*
X186046844Y-101302756D01*
X186026287Y-101299500D01*
X185813713Y-101299500D01*
X185793156Y-101302756D01*
X185603760Y-101332753D01*
X185401585Y-101398444D01*
X185212179Y-101494951D01*
X185040213Y-101619890D01*
X184889890Y-101770213D01*
X184764949Y-101942182D01*
X184760484Y-101950946D01*
X184712509Y-102001742D01*
X184644688Y-102018536D01*
X184578553Y-101995998D01*
X184539516Y-101950946D01*
X184535050Y-101942182D01*
X184410109Y-101770213D01*
X184259786Y-101619890D01*
X184087820Y-101494951D01*
X183898414Y-101398444D01*
X183898413Y-101398443D01*
X183898412Y-101398443D01*
X183696243Y-101332754D01*
X183696241Y-101332753D01*
X183696240Y-101332753D01*
X183506844Y-101302756D01*
X183486287Y-101299500D01*
X183273713Y-101299500D01*
X183253156Y-101302756D01*
X183063760Y-101332753D01*
X182861585Y-101398444D01*
X182672179Y-101494951D01*
X182500213Y-101619890D01*
X182349890Y-101770213D01*
X182224949Y-101942182D01*
X182220484Y-101950946D01*
X182172509Y-102001742D01*
X182104688Y-102018536D01*
X182038553Y-101995998D01*
X181999516Y-101950946D01*
X181995050Y-101942182D01*
X181870109Y-101770213D01*
X181719786Y-101619890D01*
X181547820Y-101494951D01*
X181358414Y-101398444D01*
X181358413Y-101398443D01*
X181358412Y-101398443D01*
X181156243Y-101332754D01*
X181156241Y-101332753D01*
X181156240Y-101332753D01*
X180966844Y-101302756D01*
X180946287Y-101299500D01*
X180733713Y-101299500D01*
X180713156Y-101302756D01*
X180523760Y-101332753D01*
X180321585Y-101398444D01*
X180132179Y-101494951D01*
X179960213Y-101619890D01*
X179809890Y-101770213D01*
X179684949Y-101942182D01*
X179680484Y-101950946D01*
X179632509Y-102001742D01*
X179564688Y-102018536D01*
X179498553Y-101995998D01*
X179459516Y-101950946D01*
X179455050Y-101942182D01*
X179330109Y-101770213D01*
X179179786Y-101619890D01*
X179007820Y-101494951D01*
X178818414Y-101398444D01*
X178818413Y-101398443D01*
X178818412Y-101398443D01*
X178616243Y-101332754D01*
X178616241Y-101332753D01*
X178616240Y-101332753D01*
X178426844Y-101302756D01*
X178406287Y-101299500D01*
X178193713Y-101299500D01*
X178173156Y-101302756D01*
X177983753Y-101332754D01*
X177983749Y-101332755D01*
X177979200Y-101334233D01*
X177909359Y-101336221D01*
X177853214Y-101303979D01*
X177687590Y-101138355D01*
X177687588Y-101138352D01*
X177568717Y-101019481D01*
X177568716Y-101019480D01*
X177475219Y-100965500D01*
X177431785Y-100940423D01*
X177318859Y-100910164D01*
X177259198Y-100873798D01*
X177228670Y-100810951D01*
X177233911Y-100749436D01*
X177263368Y-100665255D01*
X177263369Y-100665249D01*
X177283565Y-100486003D01*
X177283565Y-100485996D01*
X177263369Y-100306750D01*
X177263368Y-100306745D01*
X177226191Y-100200499D01*
X177203789Y-100136478D01*
X177107816Y-99983738D01*
X176980262Y-99856184D01*
X176902755Y-99807483D01*
X176827521Y-99760210D01*
X176792181Y-99747844D01*
X179400000Y-99747844D01*
X179406401Y-99807372D01*
X179406403Y-99807379D01*
X179456645Y-99942086D01*
X179456649Y-99942093D01*
X179542809Y-100057187D01*
X179542812Y-100057190D01*
X179657906Y-100143350D01*
X179657913Y-100143354D01*
X179792620Y-100193596D01*
X179792627Y-100193598D01*
X179852155Y-100199999D01*
X179852172Y-100200000D01*
X180450000Y-100200000D01*
X180950000Y-100200000D01*
X181547828Y-100200000D01*
X181547844Y-100199999D01*
X181607372Y-100193598D01*
X181607379Y-100193596D01*
X181742086Y-100143354D01*
X181742093Y-100143350D01*
X181857187Y-100057190D01*
X181857190Y-100057187D01*
X181943350Y-99942093D01*
X181943354Y-99942086D01*
X181993596Y-99807379D01*
X181993598Y-99807372D01*
X181999999Y-99747844D01*
X182000000Y-99747827D01*
X182000000Y-99525000D01*
X180950000Y-99525000D01*
X180950000Y-100200000D01*
X180450000Y-100200000D01*
X180450000Y-99525000D01*
X179400000Y-99525000D01*
X179400000Y-99747844D01*
X176792181Y-99747844D01*
X176657249Y-99700630D01*
X176570330Y-99690837D01*
X176505916Y-99663770D01*
X176496533Y-99655298D01*
X173893370Y-97052135D01*
X179399500Y-97052135D01*
X179399500Y-97997870D01*
X179399501Y-97997876D01*
X179405908Y-98057483D01*
X179456202Y-98192328D01*
X179456206Y-98192335D01*
X179542452Y-98307544D01*
X179547584Y-98312676D01*
X179581069Y-98373999D01*
X179576085Y-98443691D01*
X179547584Y-98488038D01*
X179542809Y-98492812D01*
X179456649Y-98607906D01*
X179456645Y-98607913D01*
X179406403Y-98742620D01*
X179406401Y-98742627D01*
X179400000Y-98802155D01*
X179400000Y-99025000D01*
X182000000Y-99025000D01*
X182000000Y-98802172D01*
X181999999Y-98802155D01*
X181993598Y-98742627D01*
X181993596Y-98742620D01*
X181943354Y-98607913D01*
X181943350Y-98607906D01*
X181857190Y-98492812D01*
X181852416Y-98488038D01*
X181818931Y-98426715D01*
X181823915Y-98357023D01*
X181852416Y-98312676D01*
X181857542Y-98307548D01*
X181857546Y-98307546D01*
X181943796Y-98192331D01*
X181994091Y-98057483D01*
X182000500Y-97997873D01*
X182000499Y-97052128D01*
X181994091Y-96992517D01*
X181993495Y-96990920D01*
X181943797Y-96857671D01*
X181943793Y-96857664D01*
X181857547Y-96742455D01*
X181857544Y-96742452D01*
X181742335Y-96656206D01*
X181742328Y-96656202D01*
X181607482Y-96605908D01*
X181607483Y-96605908D01*
X181547883Y-96599501D01*
X181547881Y-96599500D01*
X181547873Y-96599500D01*
X181547864Y-96599500D01*
X179852129Y-96599500D01*
X179852123Y-96599501D01*
X179792516Y-96605908D01*
X179657671Y-96656202D01*
X179657664Y-96656206D01*
X179542455Y-96742452D01*
X179542452Y-96742455D01*
X179456206Y-96857664D01*
X179456202Y-96857671D01*
X179405908Y-96992517D01*
X179400617Y-97041735D01*
X179399501Y-97052123D01*
X179399500Y-97052135D01*
X173893370Y-97052135D01*
X173036819Y-96195584D01*
X173003334Y-96134261D01*
X173000500Y-96107903D01*
X173000500Y-92947844D01*
X173400000Y-92947844D01*
X173406401Y-93007372D01*
X173406403Y-93007379D01*
X173456645Y-93142086D01*
X173456649Y-93142093D01*
X173542809Y-93257187D01*
X173542812Y-93257190D01*
X173657906Y-93343350D01*
X173657913Y-93343354D01*
X173792620Y-93393596D01*
X173792627Y-93393598D01*
X173852155Y-93399999D01*
X173852172Y-93400000D01*
X174450000Y-93400000D01*
X174450000Y-92725000D01*
X173400000Y-92725000D01*
X173400000Y-92947844D01*
X173000500Y-92947844D01*
X173000500Y-90890099D01*
X173020185Y-90823060D01*
X173072989Y-90777305D01*
X173138384Y-90766879D01*
X173163997Y-90769765D01*
X173164000Y-90769765D01*
X173164002Y-90769765D01*
X173198056Y-90765927D01*
X173261617Y-90758766D01*
X173330438Y-90770820D01*
X173381817Y-90818169D01*
X173399500Y-90881986D01*
X173399500Y-91197869D01*
X173399501Y-91197876D01*
X173405908Y-91257483D01*
X173456202Y-91392328D01*
X173456206Y-91392335D01*
X173542452Y-91507544D01*
X173547584Y-91512676D01*
X173581069Y-91573999D01*
X173576085Y-91643691D01*
X173547584Y-91688038D01*
X173542809Y-91692812D01*
X173456649Y-91807906D01*
X173456645Y-91807913D01*
X173406403Y-91942620D01*
X173406401Y-91942627D01*
X173400000Y-92002155D01*
X173400000Y-92225000D01*
X174576000Y-92225000D01*
X174643039Y-92244685D01*
X174688794Y-92297489D01*
X174700000Y-92349000D01*
X174700000Y-92475000D01*
X174826000Y-92475000D01*
X174893039Y-92494685D01*
X174938794Y-92547489D01*
X174950000Y-92599000D01*
X174950000Y-93400000D01*
X175547828Y-93400000D01*
X175547844Y-93399999D01*
X175607372Y-93393598D01*
X175607379Y-93393596D01*
X175742086Y-93343354D01*
X175742093Y-93343350D01*
X175857187Y-93257190D01*
X175857190Y-93257187D01*
X175943350Y-93142093D01*
X175943353Y-93142088D01*
X175964076Y-93086525D01*
X176005947Y-93030590D01*
X176071410Y-93006172D01*
X176139684Y-93021023D01*
X176167940Y-93042175D01*
X176890139Y-93764374D01*
X176890149Y-93764385D01*
X176894479Y-93768715D01*
X176894480Y-93768716D01*
X177006284Y-93880520D01*
X177006286Y-93880521D01*
X177006290Y-93880524D01*
X177060521Y-93911834D01*
X177060526Y-93911836D01*
X177143209Y-93959574D01*
X177143210Y-93959574D01*
X177143215Y-93959577D01*
X177295942Y-94000500D01*
X177295943Y-94000500D01*
X188325903Y-94000500D01*
X188392942Y-94020185D01*
X188438697Y-94072989D01*
X188448641Y-94142147D01*
X188419616Y-94205703D01*
X188413584Y-94212181D01*
X185668328Y-96957435D01*
X185607005Y-96990920D01*
X185537313Y-96985936D01*
X185481380Y-96944064D01*
X185464466Y-96913089D01*
X185443796Y-96857669D01*
X185443793Y-96857664D01*
X185357547Y-96742455D01*
X185357544Y-96742452D01*
X185242335Y-96656206D01*
X185242328Y-96656202D01*
X185107482Y-96605908D01*
X185107483Y-96605908D01*
X185047883Y-96599501D01*
X185047881Y-96599500D01*
X185047873Y-96599500D01*
X185047865Y-96599500D01*
X184924500Y-96599500D01*
X184857461Y-96579815D01*
X184811706Y-96527011D01*
X184800500Y-96475500D01*
X184800500Y-96175097D01*
X184820185Y-96108058D01*
X184836818Y-96087417D01*
X184893533Y-96030701D01*
X184954856Y-95997215D01*
X184967311Y-95995163D01*
X185054255Y-95985368D01*
X185224522Y-95925789D01*
X185377262Y-95829816D01*
X185504816Y-95702262D01*
X185600789Y-95549522D01*
X185660368Y-95379255D01*
X185661226Y-95371644D01*
X185680565Y-95200003D01*
X185680565Y-95199996D01*
X185660369Y-95020750D01*
X185660368Y-95020745D01*
X185642160Y-94968709D01*
X185600789Y-94850478D01*
X185589043Y-94831785D01*
X185537518Y-94749783D01*
X185504816Y-94697738D01*
X185377262Y-94570184D01*
X185286778Y-94513329D01*
X185224523Y-94474211D01*
X185054254Y-94414631D01*
X185054249Y-94414630D01*
X184875004Y-94394435D01*
X184874996Y-94394435D01*
X184695750Y-94414630D01*
X184695745Y-94414631D01*
X184525476Y-94474211D01*
X184372737Y-94570184D01*
X184245184Y-94697737D01*
X184149210Y-94850478D01*
X184089630Y-95020750D01*
X184079837Y-95107668D01*
X184052770Y-95172082D01*
X184044298Y-95181465D01*
X183929242Y-95296522D01*
X183831286Y-95394478D01*
X183831284Y-95394480D01*
X183776502Y-95449262D01*
X183719479Y-95506284D01*
X183711220Y-95520590D01*
X183710281Y-95522218D01*
X183640423Y-95643215D01*
X183599499Y-95795943D01*
X183599499Y-95795945D01*
X183599499Y-95964046D01*
X183599500Y-95964059D01*
X183599500Y-96475500D01*
X183579815Y-96542539D01*
X183527011Y-96588294D01*
X183475501Y-96599500D01*
X183352130Y-96599500D01*
X183352123Y-96599501D01*
X183292516Y-96605908D01*
X183157671Y-96656202D01*
X183157664Y-96656206D01*
X183042455Y-96742452D01*
X183042452Y-96742455D01*
X182956206Y-96857664D01*
X182956202Y-96857671D01*
X182905908Y-96992517D01*
X182900617Y-97041735D01*
X182899501Y-97052123D01*
X182899500Y-97052135D01*
X182899500Y-97997870D01*
X182899501Y-97997876D01*
X182905908Y-98057483D01*
X182956202Y-98192328D01*
X182956206Y-98192335D01*
X183042452Y-98307544D01*
X183047227Y-98312319D01*
X183080712Y-98373642D01*
X183075728Y-98443334D01*
X183047227Y-98487681D01*
X183042452Y-98492455D01*
X182956206Y-98607664D01*
X182956202Y-98607671D01*
X182905908Y-98742517D01*
X182899501Y-98802116D01*
X182899500Y-98802135D01*
X182899500Y-99747870D01*
X182899501Y-99747876D01*
X182905908Y-99807483D01*
X182956202Y-99942328D01*
X182956206Y-99942335D01*
X183042452Y-100057544D01*
X183042455Y-100057547D01*
X183157664Y-100143793D01*
X183157671Y-100143797D01*
X183292517Y-100194091D01*
X183292516Y-100194091D01*
X183299444Y-100194835D01*
X183352127Y-100200500D01*
X185047872Y-100200499D01*
X185107483Y-100194091D01*
X185242331Y-100143796D01*
X185357546Y-100057546D01*
X185443796Y-99942331D01*
X185494091Y-99807483D01*
X185500500Y-99747873D01*
X185500499Y-98875095D01*
X185520183Y-98808057D01*
X185536813Y-98787420D01*
X190487416Y-93836819D01*
X190548739Y-93803334D01*
X190575097Y-93800500D01*
X190929055Y-93800500D01*
X190929057Y-93800500D01*
X191081784Y-93759577D01*
X191218716Y-93680520D01*
X191330520Y-93568716D01*
X191409577Y-93431784D01*
X191450500Y-93279057D01*
X191450500Y-91670943D01*
X191409577Y-91518216D01*
X191403416Y-91507544D01*
X191330524Y-91381290D01*
X191330518Y-91381282D01*
X191218717Y-91269481D01*
X191218709Y-91269475D01*
X191112500Y-91208156D01*
X191064284Y-91157590D01*
X191050499Y-91100769D01*
X191050499Y-90252129D01*
X191050498Y-90252123D01*
X191050497Y-90252116D01*
X191044091Y-90192517D01*
X191041530Y-90185651D01*
X190993797Y-90057671D01*
X190993793Y-90057664D01*
X190907547Y-89942455D01*
X190907544Y-89942452D01*
X190792335Y-89856206D01*
X190792328Y-89856202D01*
X190657482Y-89805908D01*
X190657483Y-89805908D01*
X190597883Y-89799501D01*
X190597881Y-89799500D01*
X190597873Y-89799500D01*
X190597865Y-89799500D01*
X190474500Y-89799500D01*
X190407461Y-89779815D01*
X190361706Y-89727011D01*
X190350500Y-89675500D01*
X190350500Y-89089060D01*
X190350501Y-89089047D01*
X190350501Y-88920945D01*
X190350082Y-88917763D01*
X190350501Y-88915075D01*
X190350501Y-88912815D01*
X190350854Y-88912815D01*
X190360847Y-88848727D01*
X190385334Y-88813900D01*
X190515479Y-88683754D01*
X190576798Y-88650272D01*
X190641473Y-88653506D01*
X190683757Y-88667246D01*
X190893713Y-88700500D01*
X190893714Y-88700500D01*
X191106286Y-88700500D01*
X191106287Y-88700500D01*
X191316243Y-88667246D01*
X191518412Y-88601557D01*
X191707816Y-88505051D01*
X191809346Y-88431286D01*
X191879786Y-88380109D01*
X191879788Y-88380106D01*
X191879792Y-88380104D01*
X192030104Y-88229792D01*
X192030106Y-88229788D01*
X192030109Y-88229786D01*
X192155048Y-88057820D01*
X192155047Y-88057820D01*
X192155051Y-88057816D01*
X192251557Y-87868412D01*
X192317246Y-87666243D01*
X192350500Y-87456287D01*
X192350500Y-85243713D01*
X192317246Y-85033757D01*
X192251557Y-84831588D01*
X192155051Y-84642184D01*
X192155049Y-84642181D01*
X192155048Y-84642179D01*
X192030109Y-84470213D01*
X191879786Y-84319890D01*
X191707820Y-84194951D01*
X191518414Y-84098444D01*
X191518413Y-84098443D01*
X191518412Y-84098443D01*
X191316243Y-84032754D01*
X191316241Y-84032753D01*
X191316240Y-84032753D01*
X191154957Y-84007208D01*
X191106287Y-83999500D01*
X190893713Y-83999500D01*
X190845042Y-84007208D01*
X190683760Y-84032753D01*
X190481585Y-84098444D01*
X190292179Y-84194951D01*
X190120213Y-84319890D01*
X189969890Y-84470213D01*
X189844949Y-84642182D01*
X189840202Y-84651499D01*
X189792227Y-84702293D01*
X189724405Y-84719087D01*
X189658271Y-84696548D01*
X189619234Y-84651495D01*
X189614622Y-84642444D01*
X189489727Y-84470540D01*
X189489723Y-84470535D01*
X189339464Y-84320276D01*
X189339459Y-84320272D01*
X189167557Y-84195379D01*
X188978215Y-84098903D01*
X188776124Y-84033241D01*
X188710000Y-84022768D01*
X188710000Y-86226000D01*
X188690315Y-86293039D01*
X188637511Y-86338794D01*
X188586000Y-86350000D01*
X188334000Y-86350000D01*
X188266961Y-86330315D01*
X188221206Y-86277511D01*
X188210000Y-86226000D01*
X188210000Y-84022768D01*
X188209999Y-84022768D01*
X188143875Y-84033241D01*
X187941784Y-84098903D01*
X187752442Y-84195379D01*
X187580540Y-84320272D01*
X187580535Y-84320276D01*
X187430276Y-84470535D01*
X187430272Y-84470540D01*
X187305378Y-84642443D01*
X187300762Y-84651502D01*
X187252784Y-84702295D01*
X187184963Y-84719087D01*
X187118829Y-84696546D01*
X187079794Y-84651493D01*
X187075051Y-84642184D01*
X187075049Y-84642181D01*
X187075048Y-84642179D01*
X186950109Y-84470213D01*
X186799786Y-84319890D01*
X186627820Y-84194951D01*
X186438414Y-84098444D01*
X186438413Y-84098443D01*
X186438412Y-84098443D01*
X186236243Y-84032754D01*
X186236241Y-84032753D01*
X186236240Y-84032753D01*
X186074957Y-84007208D01*
X186026287Y-83999500D01*
X185813713Y-83999500D01*
X185765042Y-84007208D01*
X185603760Y-84032753D01*
X185401585Y-84098444D01*
X185212179Y-84194951D01*
X185040213Y-84319890D01*
X184889890Y-84470213D01*
X184764949Y-84642182D01*
X184760484Y-84650946D01*
X184712509Y-84701742D01*
X184644688Y-84718536D01*
X184578553Y-84695998D01*
X184539516Y-84650946D01*
X184535050Y-84642182D01*
X184410109Y-84470213D01*
X184259786Y-84319890D01*
X184087820Y-84194951D01*
X183898414Y-84098444D01*
X183898413Y-84098443D01*
X183898412Y-84098443D01*
X183696243Y-84032754D01*
X183696241Y-84032753D01*
X183696240Y-84032753D01*
X183534957Y-84007208D01*
X183486287Y-83999500D01*
X183273713Y-83999500D01*
X183225042Y-84007208D01*
X183063760Y-84032753D01*
X182861585Y-84098444D01*
X182672179Y-84194951D01*
X182500213Y-84319890D01*
X182349890Y-84470213D01*
X182224949Y-84642182D01*
X182207071Y-84677270D01*
X182159096Y-84728065D01*
X182091275Y-84744860D01*
X182025141Y-84722322D01*
X181996269Y-84693859D01*
X181870109Y-84520214D01*
X181870105Y-84520209D01*
X181719786Y-84369890D01*
X181547815Y-84244948D01*
X181547814Y-84244947D01*
X181508205Y-84224765D01*
X181457409Y-84176791D01*
X181440500Y-84114281D01*
X181440500Y-80690959D01*
X181440501Y-80690946D01*
X181440501Y-80522845D01*
X181440501Y-80522843D01*
X181399577Y-80370115D01*
X181349951Y-80284160D01*
X181974499Y-80284160D01*
X182010215Y-80509660D01*
X182080770Y-80726803D01*
X182173628Y-80909046D01*
X182184421Y-80930228D01*
X182318621Y-81114937D01*
X182480063Y-81276379D01*
X182664772Y-81410579D01*
X182760884Y-81459550D01*
X182868196Y-81514229D01*
X182868198Y-81514229D01*
X182868201Y-81514231D01*
X182984592Y-81552049D01*
X183085339Y-81584784D01*
X183310838Y-81620500D01*
X183310843Y-81620500D01*
X184089162Y-81620500D01*
X184314660Y-81584784D01*
X184531799Y-81514231D01*
X184735228Y-81410579D01*
X184919937Y-81276379D01*
X185081379Y-81114937D01*
X185215579Y-80930228D01*
X185319231Y-80726799D01*
X185389784Y-80509660D01*
X185411886Y-80370113D01*
X185425500Y-80284160D01*
X185425500Y-80055837D01*
X185389784Y-79830339D01*
X185344920Y-79692263D01*
X185319231Y-79613201D01*
X185319229Y-79613198D01*
X185319229Y-79613196D01*
X185215578Y-79409771D01*
X185081379Y-79225063D01*
X184919937Y-79063621D01*
X184735228Y-78929421D01*
X184531803Y-78825770D01*
X184314660Y-78755215D01*
X184089162Y-78719500D01*
X184089157Y-78719500D01*
X183310843Y-78719500D01*
X183310838Y-78719500D01*
X183085339Y-78755215D01*
X182868196Y-78825770D01*
X182664771Y-78929421D01*
X182480061Y-79063622D01*
X182318622Y-79225061D01*
X182184421Y-79409771D01*
X182080770Y-79613196D01*
X182010215Y-79830339D01*
X181974500Y-80055837D01*
X181974500Y-80284158D01*
X181974499Y-80284160D01*
X181349951Y-80284160D01*
X181349949Y-80284157D01*
X181320520Y-80233184D01*
X181208716Y-80121380D01*
X181204385Y-80117049D01*
X181204374Y-80117039D01*
X176836819Y-75749484D01*
X176803334Y-75688161D01*
X176800500Y-75661803D01*
X176800500Y-74262722D01*
X178299500Y-74262722D01*
X178299500Y-74577277D01*
X178334716Y-74889827D01*
X178334718Y-74889843D01*
X178404710Y-75196499D01*
X178404711Y-75196501D01*
X178508598Y-75493395D01*
X178645072Y-75776786D01*
X178645074Y-75776789D01*
X178812423Y-76043123D01*
X179008539Y-76289044D01*
X179230956Y-76511461D01*
X179476877Y-76707577D01*
X179743211Y-76874926D01*
X180026606Y-77011402D01*
X180323500Y-77115289D01*
X180630160Y-77185282D01*
X180942723Y-77220499D01*
X180942724Y-77220500D01*
X180942727Y-77220500D01*
X181257276Y-77220500D01*
X181257276Y-77220499D01*
X181569840Y-77185282D01*
X181876500Y-77115289D01*
X182173394Y-77011402D01*
X182456789Y-76874926D01*
X182723123Y-76707577D01*
X182969044Y-76511461D01*
X183191461Y-76289044D01*
X183387577Y-76043123D01*
X183554926Y-75776789D01*
X183691402Y-75493394D01*
X183795289Y-75196500D01*
X183865282Y-74889840D01*
X183900500Y-74577273D01*
X183900500Y-74262727D01*
X183865282Y-73950160D01*
X183795289Y-73643500D01*
X183691402Y-73346606D01*
X183554926Y-73063211D01*
X183387577Y-72796877D01*
X183191461Y-72550956D01*
X182969044Y-72328539D01*
X182723123Y-72132423D01*
X182456789Y-71965074D01*
X182456786Y-71965072D01*
X182173395Y-71828598D01*
X181876501Y-71724711D01*
X181876499Y-71724710D01*
X181569843Y-71654718D01*
X181569827Y-71654716D01*
X181257277Y-71619500D01*
X181257273Y-71619500D01*
X180942727Y-71619500D01*
X180942722Y-71619500D01*
X180630172Y-71654716D01*
X180630156Y-71654718D01*
X180323500Y-71724710D01*
X180323498Y-71724711D01*
X180026604Y-71828598D01*
X179743213Y-71965072D01*
X179476878Y-72132422D01*
X179230956Y-72328538D01*
X179008538Y-72550956D01*
X178812422Y-72796878D01*
X178645072Y-73063213D01*
X178508598Y-73346604D01*
X178404711Y-73643498D01*
X178404710Y-73643500D01*
X178334718Y-73950156D01*
X178334716Y-73950172D01*
X178299500Y-74262722D01*
X176800500Y-74262722D01*
X176800500Y-71065798D01*
X176820185Y-70998759D01*
X176836820Y-70978116D01*
X176880517Y-70934419D01*
X176880517Y-70934418D01*
X176880520Y-70934416D01*
X176959577Y-70797484D01*
X177000501Y-70644757D01*
X177000501Y-70486642D01*
X177000501Y-70479047D01*
X177000500Y-70479029D01*
X177000500Y-67684108D01*
X178199500Y-67684108D01*
X178199500Y-70815891D01*
X178233608Y-70943187D01*
X178253775Y-70978116D01*
X178299500Y-71057314D01*
X178392686Y-71150500D01*
X178506814Y-71216392D01*
X178634108Y-71250500D01*
X178634110Y-71250500D01*
X182165890Y-71250500D01*
X182165892Y-71250500D01*
X182293186Y-71216392D01*
X182407314Y-71150500D01*
X182500500Y-71057314D01*
X182566392Y-70943186D01*
X182600500Y-70815892D01*
X182600500Y-67684108D01*
X182566392Y-67556814D01*
X182500500Y-67442686D01*
X182407314Y-67349500D01*
X182350250Y-67316554D01*
X182293187Y-67283608D01*
X182229539Y-67266554D01*
X182165892Y-67249500D01*
X178765892Y-67249500D01*
X178634108Y-67249500D01*
X178506812Y-67283608D01*
X178392686Y-67349500D01*
X178392683Y-67349502D01*
X178299502Y-67442683D01*
X178299500Y-67442686D01*
X178233608Y-67556812D01*
X178199500Y-67684108D01*
X177000500Y-67684108D01*
X177000500Y-65562289D01*
X177020185Y-65495250D01*
X177058529Y-65457295D01*
X177102262Y-65429816D01*
X177229816Y-65302262D01*
X177325789Y-65149522D01*
X177385368Y-64979255D01*
X177397204Y-64874211D01*
X177405565Y-64800003D01*
X177405565Y-64799996D01*
X177385369Y-64620750D01*
X177385368Y-64620745D01*
X177325789Y-64450478D01*
X177229816Y-64297738D01*
X177102262Y-64170184D01*
X177102261Y-64170183D01*
X177058528Y-64142704D01*
X177012237Y-64090370D01*
X177000500Y-64037710D01*
X177000500Y-61862599D01*
X177020185Y-61795560D01*
X177072989Y-61749805D01*
X177086182Y-61744668D01*
X177091466Y-61742951D01*
X177256799Y-61689231D01*
X177460228Y-61585579D01*
X177644937Y-61451379D01*
X177806379Y-61289937D01*
X177940579Y-61105228D01*
X177991221Y-61005837D01*
X181974500Y-61005837D01*
X181974500Y-61234162D01*
X182010215Y-61459660D01*
X182080770Y-61676803D01*
X182175439Y-61862599D01*
X182184421Y-61880228D01*
X182318621Y-62064937D01*
X182480063Y-62226379D01*
X182664772Y-62360579D01*
X182760884Y-62409550D01*
X182868196Y-62464229D01*
X182868198Y-62464229D01*
X182868201Y-62464231D01*
X182984592Y-62502049D01*
X183085339Y-62534784D01*
X183310838Y-62570500D01*
X183310843Y-62570500D01*
X184089162Y-62570500D01*
X184314660Y-62534784D01*
X184531799Y-62464231D01*
X184735228Y-62360579D01*
X184919937Y-62226379D01*
X185081379Y-62064937D01*
X185215579Y-61880228D01*
X185319231Y-61676799D01*
X185389784Y-61459660D01*
X185391097Y-61451373D01*
X185425500Y-61234162D01*
X185425500Y-61005837D01*
X185389784Y-60780339D01*
X185319229Y-60563196D01*
X185215578Y-60359771D01*
X185081379Y-60175063D01*
X184919937Y-60013621D01*
X184735228Y-59879421D01*
X184531803Y-59775770D01*
X184314660Y-59705215D01*
X184089162Y-59669500D01*
X184089157Y-59669500D01*
X183310843Y-59669500D01*
X183310838Y-59669500D01*
X183085339Y-59705215D01*
X182868196Y-59775770D01*
X182664771Y-59879421D01*
X182480061Y-60013622D01*
X182318622Y-60175061D01*
X182184421Y-60359771D01*
X182080770Y-60563196D01*
X182010215Y-60780339D01*
X181974500Y-61005837D01*
X177991221Y-61005837D01*
X178044231Y-60901799D01*
X178114784Y-60684660D01*
X178150500Y-60459162D01*
X178150500Y-59680837D01*
X178114784Y-59455339D01*
X178044229Y-59238196D01*
X177940578Y-59034771D01*
X177806379Y-58850063D01*
X177644937Y-58688621D01*
X177460228Y-58554421D01*
X177256803Y-58450770D01*
X177039660Y-58380215D01*
X176814162Y-58344500D01*
X176814157Y-58344500D01*
X176585843Y-58344500D01*
X176585838Y-58344500D01*
X176360339Y-58380215D01*
X176143196Y-58450770D01*
X175939771Y-58554421D01*
X175755061Y-58688622D01*
X175593622Y-58850061D01*
X175459421Y-59034771D01*
X175355770Y-59238196D01*
X175285215Y-59455339D01*
X175249500Y-59680837D01*
X175249500Y-60459162D01*
X175285215Y-60684660D01*
X175355770Y-60901803D01*
X175459421Y-61105228D01*
X175593621Y-61289937D01*
X175755063Y-61451379D01*
X175755069Y-61451383D01*
X175756030Y-61452204D01*
X175756296Y-61452612D01*
X175758508Y-61454824D01*
X175758043Y-61455288D01*
X175794224Y-61510711D01*
X175799500Y-61546496D01*
X175799500Y-63851402D01*
X175779815Y-63918441D01*
X175763181Y-63939083D01*
X175519481Y-64182782D01*
X175519477Y-64182787D01*
X175474486Y-64260716D01*
X175474486Y-64260717D01*
X175440423Y-64319714D01*
X175440423Y-64319715D01*
X175399499Y-64472443D01*
X175399499Y-64472445D01*
X175399499Y-64640546D01*
X175399500Y-64640559D01*
X175399500Y-70099902D01*
X175379815Y-70166941D01*
X175363181Y-70187583D01*
X175319481Y-70231282D01*
X175319479Y-70231285D01*
X175269361Y-70318094D01*
X175269359Y-70318096D01*
X175240425Y-70368209D01*
X175240424Y-70368210D01*
X175240423Y-70368215D01*
X175199499Y-70520943D01*
X175199499Y-70520945D01*
X175199499Y-70689046D01*
X175199500Y-70689059D01*
X175199500Y-76606630D01*
X175199499Y-76606648D01*
X175199499Y-76772354D01*
X175199498Y-76772354D01*
X175240423Y-76925085D01*
X175269358Y-76975200D01*
X175269359Y-76975204D01*
X175269360Y-76975204D01*
X175319479Y-77062014D01*
X175319481Y-77062017D01*
X175438349Y-77180885D01*
X175438355Y-77180890D01*
X175792000Y-77534535D01*
X175825485Y-77595858D01*
X175820501Y-77665550D01*
X175778629Y-77721483D01*
X175777206Y-77722533D01*
X175755063Y-77738620D01*
X175593622Y-77900061D01*
X175459421Y-78084771D01*
X175355770Y-78288196D01*
X175285215Y-78505339D01*
X175249500Y-78730837D01*
X175249500Y-79509162D01*
X175268617Y-79629859D01*
X175259663Y-79699152D01*
X175233825Y-79736938D01*
X174631286Y-80339478D01*
X174519481Y-80451282D01*
X174519479Y-80451284D01*
X174499150Y-80486495D01*
X174490558Y-80501379D01*
X174440423Y-80588215D01*
X174399499Y-80740943D01*
X174399499Y-80740945D01*
X174399499Y-80909046D01*
X174399500Y-80909059D01*
X174399500Y-82713602D01*
X174379815Y-82780641D01*
X174363181Y-82801283D01*
X173519481Y-83644982D01*
X173519479Y-83644985D01*
X173469361Y-83731794D01*
X173469359Y-83731796D01*
X173440425Y-83781909D01*
X173440424Y-83781910D01*
X173440423Y-83781915D01*
X173399499Y-83934643D01*
X173399499Y-83934645D01*
X173399499Y-84102746D01*
X173399500Y-84102759D01*
X173399500Y-85233602D01*
X173379815Y-85300641D01*
X173363181Y-85321283D01*
X171919482Y-86764981D01*
X171919480Y-86764983D01*
X171916989Y-86769298D01*
X171902477Y-86794435D01*
X171840423Y-86901915D01*
X171799499Y-87054643D01*
X171799499Y-87054645D01*
X171799499Y-87222746D01*
X171799500Y-87222759D01*
X171799500Y-94026959D01*
X171779815Y-94093998D01*
X171727011Y-94139753D01*
X171661618Y-94150179D01*
X171584005Y-94141435D01*
X171583996Y-94141435D01*
X171404750Y-94161630D01*
X171404745Y-94161631D01*
X171234476Y-94221211D01*
X171081737Y-94317184D01*
X170954184Y-94444737D01*
X170858211Y-94597476D01*
X170798631Y-94767745D01*
X170798630Y-94767750D01*
X170778435Y-94946996D01*
X169248500Y-94946996D01*
X169248500Y-88887512D01*
X169268185Y-88820473D01*
X169275555Y-88810197D01*
X169277810Y-88807367D01*
X169277816Y-88807362D01*
X169373789Y-88654622D01*
X169433368Y-88484355D01*
X169436670Y-88455048D01*
X169453565Y-88305103D01*
X169453565Y-88305096D01*
X169433369Y-88125850D01*
X169433368Y-88125845D01*
X169392068Y-88007816D01*
X169373789Y-87955578D01*
X169369984Y-87949523D01*
X169287603Y-87818414D01*
X169277816Y-87802838D01*
X169150262Y-87675284D01*
X169135867Y-87666239D01*
X168997523Y-87579311D01*
X168827254Y-87519731D01*
X168827249Y-87519730D01*
X168648004Y-87499535D01*
X168647996Y-87499535D01*
X168468750Y-87519730D01*
X168468745Y-87519731D01*
X168298476Y-87579311D01*
X168145737Y-87675284D01*
X168018184Y-87802837D01*
X167922211Y-87955576D01*
X167862631Y-88125845D01*
X167862630Y-88125850D01*
X167842435Y-88305096D01*
X158250500Y-88305096D01*
X158250500Y-80792951D01*
X158270185Y-80725912D01*
X158318205Y-80682466D01*
X158410228Y-80635579D01*
X158594937Y-80501379D01*
X158756379Y-80339937D01*
X158796904Y-80284160D01*
X162924499Y-80284160D01*
X162960215Y-80509660D01*
X163030770Y-80726803D01*
X163123628Y-80909046D01*
X163134421Y-80930228D01*
X163268621Y-81114937D01*
X163430063Y-81276379D01*
X163614772Y-81410579D01*
X163710884Y-81459550D01*
X163818196Y-81514229D01*
X163818198Y-81514229D01*
X163818201Y-81514231D01*
X163934592Y-81552049D01*
X164035339Y-81584784D01*
X164260838Y-81620500D01*
X164260843Y-81620500D01*
X165039162Y-81620500D01*
X165264660Y-81584784D01*
X165481799Y-81514231D01*
X165685228Y-81410579D01*
X165869937Y-81276379D01*
X166031379Y-81114937D01*
X166165579Y-80930228D01*
X166269231Y-80726799D01*
X166339784Y-80509660D01*
X166361886Y-80370113D01*
X166375500Y-80284160D01*
X166375500Y-80055837D01*
X166339784Y-79830339D01*
X166294920Y-79692263D01*
X166269231Y-79613201D01*
X166269229Y-79613198D01*
X166269229Y-79613196D01*
X166165578Y-79409771D01*
X166031379Y-79225063D01*
X165869937Y-79063621D01*
X165685228Y-78929421D01*
X165481803Y-78825770D01*
X165264660Y-78755215D01*
X165039162Y-78719500D01*
X165039157Y-78719500D01*
X164260843Y-78719500D01*
X164260838Y-78719500D01*
X164035339Y-78755215D01*
X163818196Y-78825770D01*
X163614771Y-78929421D01*
X163430061Y-79063622D01*
X163268622Y-79225061D01*
X163134421Y-79409771D01*
X163030770Y-79613196D01*
X162960215Y-79830339D01*
X162924500Y-80055837D01*
X162924500Y-80284158D01*
X162924499Y-80284160D01*
X158796904Y-80284160D01*
X158890579Y-80155228D01*
X158994231Y-79951799D01*
X159064784Y-79734660D01*
X159081383Y-79629859D01*
X159100500Y-79509162D01*
X159100500Y-78730837D01*
X159064784Y-78505339D01*
X158994229Y-78288196D01*
X158890578Y-78084771D01*
X158756379Y-77900063D01*
X158594937Y-77738621D01*
X158410228Y-77604421D01*
X158410227Y-77604420D01*
X158410225Y-77604419D01*
X158318204Y-77557531D01*
X158267409Y-77509556D01*
X158250500Y-77447047D01*
X158250500Y-74262722D01*
X159249500Y-74262722D01*
X159249500Y-74577277D01*
X159284716Y-74889827D01*
X159284718Y-74889843D01*
X159354710Y-75196499D01*
X159354711Y-75196501D01*
X159458598Y-75493395D01*
X159595072Y-75776786D01*
X159595074Y-75776789D01*
X159762423Y-76043123D01*
X159958539Y-76289044D01*
X160180956Y-76511461D01*
X160426877Y-76707577D01*
X160693211Y-76874926D01*
X160976606Y-77011402D01*
X161273500Y-77115289D01*
X161580160Y-77185282D01*
X161892723Y-77220499D01*
X161892724Y-77220500D01*
X161892727Y-77220500D01*
X162207276Y-77220500D01*
X162207276Y-77220499D01*
X162519840Y-77185282D01*
X162826500Y-77115289D01*
X163123394Y-77011402D01*
X163406789Y-76874926D01*
X163673123Y-76707577D01*
X163919044Y-76511461D01*
X164141461Y-76289044D01*
X164337577Y-76043123D01*
X164504926Y-75776789D01*
X164641402Y-75493394D01*
X164745289Y-75196500D01*
X164815282Y-74889840D01*
X164850500Y-74577273D01*
X164850500Y-74262727D01*
X164815282Y-73950160D01*
X164745289Y-73643500D01*
X164641402Y-73346606D01*
X164504926Y-73063211D01*
X164337577Y-72796877D01*
X164141461Y-72550956D01*
X163919044Y-72328539D01*
X163673123Y-72132423D01*
X163406789Y-71965074D01*
X163406786Y-71965072D01*
X163123395Y-71828598D01*
X162826501Y-71724711D01*
X162826499Y-71724710D01*
X162519843Y-71654718D01*
X162519827Y-71654716D01*
X162207277Y-71619500D01*
X162207273Y-71619500D01*
X161892727Y-71619500D01*
X161892722Y-71619500D01*
X161580172Y-71654716D01*
X161580156Y-71654718D01*
X161273500Y-71724710D01*
X161273498Y-71724711D01*
X160976604Y-71828598D01*
X160693213Y-71965072D01*
X160426878Y-72132422D01*
X160180956Y-72328538D01*
X159958538Y-72550956D01*
X159762422Y-72796878D01*
X159595072Y-73063213D01*
X159458598Y-73346604D01*
X159354711Y-73643498D01*
X159354710Y-73643500D01*
X159284718Y-73950156D01*
X159284716Y-73950172D01*
X159249500Y-74262722D01*
X158250500Y-74262722D01*
X158250500Y-67684108D01*
X159149500Y-67684108D01*
X159149500Y-70815891D01*
X159183608Y-70943187D01*
X159203775Y-70978116D01*
X159249500Y-71057314D01*
X159342686Y-71150500D01*
X159456814Y-71216392D01*
X159584108Y-71250500D01*
X159584110Y-71250500D01*
X163115890Y-71250500D01*
X163115892Y-71250500D01*
X163243186Y-71216392D01*
X163357314Y-71150500D01*
X163450500Y-71057314D01*
X163516392Y-70943186D01*
X163550500Y-70815892D01*
X163550500Y-67684108D01*
X163516392Y-67556814D01*
X163450500Y-67442686D01*
X163357314Y-67349500D01*
X163300250Y-67316554D01*
X163243187Y-67283608D01*
X163179539Y-67266554D01*
X163115892Y-67249500D01*
X159715892Y-67249500D01*
X159584108Y-67249500D01*
X159456812Y-67283608D01*
X159342686Y-67349500D01*
X159342683Y-67349502D01*
X159249502Y-67442683D01*
X159249500Y-67442686D01*
X159183608Y-67556812D01*
X159149500Y-67684108D01*
X158250500Y-67684108D01*
X158250500Y-61742951D01*
X158270185Y-61675912D01*
X158318205Y-61632466D01*
X158410228Y-61585579D01*
X158594937Y-61451379D01*
X158756379Y-61289937D01*
X158890579Y-61105228D01*
X158941221Y-61005837D01*
X162924500Y-61005837D01*
X162924500Y-61234162D01*
X162960215Y-61459660D01*
X163030770Y-61676803D01*
X163125439Y-61862599D01*
X163134421Y-61880228D01*
X163268621Y-62064937D01*
X163430063Y-62226379D01*
X163614772Y-62360579D01*
X163710884Y-62409550D01*
X163818196Y-62464229D01*
X163818198Y-62464229D01*
X163818201Y-62464231D01*
X163934592Y-62502049D01*
X164035339Y-62534784D01*
X164260838Y-62570500D01*
X164260843Y-62570500D01*
X165039162Y-62570500D01*
X165264660Y-62534784D01*
X165481799Y-62464231D01*
X165685228Y-62360579D01*
X165869937Y-62226379D01*
X166031379Y-62064937D01*
X166165579Y-61880228D01*
X166269231Y-61676799D01*
X166339784Y-61459660D01*
X166341097Y-61451373D01*
X166375500Y-61234162D01*
X166375500Y-61005837D01*
X166339784Y-60780339D01*
X166269229Y-60563196D01*
X166165578Y-60359771D01*
X166031379Y-60175063D01*
X165869937Y-60013621D01*
X165685228Y-59879421D01*
X165481803Y-59775770D01*
X165264660Y-59705215D01*
X165039162Y-59669500D01*
X165039157Y-59669500D01*
X164260843Y-59669500D01*
X164260838Y-59669500D01*
X164035339Y-59705215D01*
X163818196Y-59775770D01*
X163614771Y-59879421D01*
X163430061Y-60013622D01*
X163268622Y-60175061D01*
X163134421Y-60359771D01*
X163030770Y-60563196D01*
X162960215Y-60780339D01*
X162924500Y-61005837D01*
X158941221Y-61005837D01*
X158994231Y-60901799D01*
X159064784Y-60684660D01*
X159100500Y-60459162D01*
X159100500Y-59680837D01*
X159064784Y-59455339D01*
X158994229Y-59238196D01*
X158890578Y-59034771D01*
X158756379Y-58850063D01*
X158594937Y-58688621D01*
X158410228Y-58554421D01*
X158206803Y-58450770D01*
X157989660Y-58380215D01*
X157764162Y-58344500D01*
X157764157Y-58344500D01*
X157535843Y-58344500D01*
X157535838Y-58344500D01*
X157310339Y-58380215D01*
X157093196Y-58450770D01*
X156889771Y-58554421D01*
X156705061Y-58688622D01*
X156543622Y-58850061D01*
X156409421Y-59034771D01*
X156305770Y-59238196D01*
X156235215Y-59455339D01*
X156199500Y-59680837D01*
X156199500Y-60459162D01*
X156235215Y-60684660D01*
X156305770Y-60901803D01*
X156409421Y-61105228D01*
X156543621Y-61289937D01*
X156705063Y-61451379D01*
X156786726Y-61510711D01*
X156889773Y-61585580D01*
X156948827Y-61615669D01*
X156981794Y-61632466D01*
X157032590Y-61680440D01*
X157049500Y-61742951D01*
X157049500Y-77447047D01*
X157029815Y-77514086D01*
X156981796Y-77557531D01*
X156889774Y-77604419D01*
X156705061Y-77738622D01*
X156543622Y-77900061D01*
X156409421Y-78084771D01*
X156305770Y-78288196D01*
X156235215Y-78505339D01*
X156199500Y-78730837D01*
X156199500Y-79509162D01*
X156235215Y-79734660D01*
X156305770Y-79951803D01*
X156409421Y-80155228D01*
X156543621Y-80339937D01*
X156705063Y-80501379D01*
X156824579Y-80588213D01*
X156889773Y-80635580D01*
X156948827Y-80665669D01*
X156981794Y-80682466D01*
X157032590Y-80730440D01*
X157049500Y-80792951D01*
X157049500Y-99434060D01*
X157029815Y-99501099D01*
X157013181Y-99521741D01*
X156940184Y-99594737D01*
X156844211Y-99747476D01*
X156784631Y-99917745D01*
X156784630Y-99917750D01*
X156764435Y-100096996D01*
X156764435Y-100097003D01*
X156784630Y-100276249D01*
X156784631Y-100276254D01*
X156844211Y-100446523D01*
X156940185Y-100599263D01*
X156942445Y-100602097D01*
X156943334Y-100604275D01*
X156943889Y-100605158D01*
X156943734Y-100605255D01*
X156968855Y-100666783D01*
X156969500Y-100679412D01*
X156969500Y-118527047D01*
X156949815Y-118594086D01*
X156901796Y-118637531D01*
X156809774Y-118684419D01*
X156625061Y-118818622D01*
X156463622Y-118980061D01*
X156329421Y-119164771D01*
X156225770Y-119368196D01*
X156155215Y-119585339D01*
X156119500Y-119810837D01*
X154630500Y-119810837D01*
X154630500Y-99782412D01*
X154650185Y-99715373D01*
X154657555Y-99705097D01*
X154659810Y-99702267D01*
X154659816Y-99702262D01*
X154755789Y-99549522D01*
X154815368Y-99379255D01*
X154835565Y-99200000D01*
X154818065Y-99044685D01*
X154815369Y-99020750D01*
X154815368Y-99020745D01*
X154764403Y-98875096D01*
X154755789Y-98850478D01*
X154659816Y-98697738D01*
X154532262Y-98570184D01*
X154522638Y-98564137D01*
X154379523Y-98474211D01*
X154209254Y-98414631D01*
X154209249Y-98414630D01*
X154030004Y-98394435D01*
X154029996Y-98394435D01*
X153850750Y-98414630D01*
X153850745Y-98414631D01*
X153680476Y-98474211D01*
X153527737Y-98570184D01*
X153400184Y-98697737D01*
X153304211Y-98850476D01*
X153244631Y-99020745D01*
X153244630Y-99020750D01*
X153224435Y-99199996D01*
X153224435Y-99200003D01*
X153244630Y-99379249D01*
X153244631Y-99379254D01*
X153304211Y-99549523D01*
X153332621Y-99594737D01*
X153389953Y-99685980D01*
X153400185Y-99702263D01*
X153402445Y-99705097D01*
X153403334Y-99707275D01*
X153403889Y-99708158D01*
X153403734Y-99708255D01*
X153428855Y-99769783D01*
X153429500Y-99782412D01*
X153429500Y-125185908D01*
X153409815Y-125252947D01*
X153357914Y-125298286D01*
X153352173Y-125300963D01*
X153352169Y-125300965D01*
X153158597Y-125436505D01*
X152991505Y-125603597D01*
X152861575Y-125789158D01*
X152806998Y-125832783D01*
X152737500Y-125839977D01*
X152675145Y-125808454D01*
X152658425Y-125789158D01*
X152528494Y-125603597D01*
X152361402Y-125436506D01*
X152361395Y-125436501D01*
X152167831Y-125300965D01*
X152167826Y-125300962D01*
X152162091Y-125298288D01*
X152109653Y-125252113D01*
X152090500Y-125185908D01*
X152090500Y-102080412D01*
X152110185Y-102013373D01*
X152117555Y-102003097D01*
X152119810Y-102000267D01*
X152119816Y-102000262D01*
X152215789Y-101847522D01*
X152275368Y-101677255D01*
X152281831Y-101619896D01*
X152295565Y-101498003D01*
X152295565Y-101497996D01*
X152275369Y-101318750D01*
X152275368Y-101318745D01*
X152261744Y-101279811D01*
X152215789Y-101148478D01*
X152209428Y-101138355D01*
X152159872Y-101059487D01*
X152119816Y-100995738D01*
X151992262Y-100868184D01*
X151927783Y-100827669D01*
X151839523Y-100772211D01*
X151669254Y-100712631D01*
X151669249Y-100712630D01*
X151490004Y-100692435D01*
X151489996Y-100692435D01*
X151310750Y-100712630D01*
X151310745Y-100712631D01*
X151140476Y-100772211D01*
X150987737Y-100868184D01*
X150860184Y-100995737D01*
X150764211Y-101148476D01*
X150704631Y-101318745D01*
X150704630Y-101318750D01*
X150684435Y-101497996D01*
X150684435Y-101498003D01*
X150704630Y-101677249D01*
X150704631Y-101677254D01*
X150764211Y-101847523D01*
X150860185Y-102000263D01*
X150862445Y-102003097D01*
X150863334Y-102005275D01*
X150863889Y-102006158D01*
X150863734Y-102006255D01*
X150888855Y-102067783D01*
X150889500Y-102080412D01*
X150889500Y-125185908D01*
X150869815Y-125252947D01*
X150817914Y-125298286D01*
X150812173Y-125300963D01*
X150812169Y-125300965D01*
X150618600Y-125436503D01*
X150496673Y-125558430D01*
X150435350Y-125591914D01*
X150365658Y-125586930D01*
X150309725Y-125545058D01*
X150292810Y-125514081D01*
X150243797Y-125382671D01*
X150243793Y-125382664D01*
X150157547Y-125267455D01*
X150157544Y-125267452D01*
X150042335Y-125181206D01*
X150042328Y-125181202D01*
X149907482Y-125130908D01*
X149907483Y-125130908D01*
X149847883Y-125124501D01*
X149847881Y-125124500D01*
X149847873Y-125124500D01*
X149847865Y-125124500D01*
X149674500Y-125124500D01*
X149607461Y-125104815D01*
X149561706Y-125052011D01*
X149550500Y-125000500D01*
X149550500Y-114082412D01*
X149570185Y-114015373D01*
X149577555Y-114005097D01*
X149579810Y-114002267D01*
X149579816Y-114002262D01*
X149675789Y-113849522D01*
X149735368Y-113679255D01*
X149745162Y-113592330D01*
X149755565Y-113500003D01*
X149755565Y-113499996D01*
X149735369Y-113320750D01*
X149735368Y-113320745D01*
X149675788Y-113150476D01*
X149581237Y-113000000D01*
X149579816Y-112997738D01*
X149452262Y-112870184D01*
X149299521Y-112774210D01*
X149129249Y-112714630D01*
X149042330Y-112704837D01*
X148977916Y-112677770D01*
X148968533Y-112669298D01*
X148337590Y-112038355D01*
X148337588Y-112038352D01*
X148218717Y-111919481D01*
X148218709Y-111919475D01*
X148130789Y-111868715D01*
X148130788Y-111868715D01*
X148085841Y-111842765D01*
X148081785Y-111840423D01*
X147929057Y-111799499D01*
X147770943Y-111799499D01*
X147763347Y-111799499D01*
X147763331Y-111799500D01*
X146300097Y-111799500D01*
X146233058Y-111779815D01*
X146212416Y-111763181D01*
X145658035Y-111208800D01*
X145624550Y-111147477D01*
X145622496Y-111107233D01*
X145625565Y-111079999D01*
X145625565Y-111079997D01*
X145605369Y-110900750D01*
X145605368Y-110900745D01*
X145545788Y-110730476D01*
X145449813Y-110577734D01*
X145447550Y-110574896D01*
X145446659Y-110572715D01*
X145446111Y-110571842D01*
X145446264Y-110571745D01*
X145421144Y-110510209D01*
X145420500Y-110497587D01*
X145420500Y-107971945D01*
X145420500Y-107971943D01*
X145379577Y-107819216D01*
X145379577Y-107819215D01*
X145379577Y-107819214D01*
X145350639Y-107769095D01*
X145350637Y-107769092D01*
X145322905Y-107721057D01*
X145300520Y-107682284D01*
X145188716Y-107570480D01*
X145188715Y-107570479D01*
X145184385Y-107566149D01*
X145184374Y-107566139D01*
X142034637Y-104416402D01*
X142001152Y-104355079D01*
X141999098Y-104342604D01*
X141985369Y-104220749D01*
X141985368Y-104220745D01*
X141972502Y-104183975D01*
X141925789Y-104050478D01*
X141829816Y-103897738D01*
X141702262Y-103770184D01*
X141549523Y-103674211D01*
X141379254Y-103614631D01*
X141379249Y-103614630D01*
X141200004Y-103594435D01*
X141199996Y-103594435D01*
X141020750Y-103614630D01*
X141020745Y-103614631D01*
X140850476Y-103674211D01*
X140697737Y-103770184D01*
X140570184Y-103897737D01*
X140474211Y-104050476D01*
X140414631Y-104220745D01*
X140414630Y-104220750D01*
X140394435Y-104399996D01*
X140394435Y-104400003D01*
X140414630Y-104579249D01*
X140414631Y-104579254D01*
X140474211Y-104749523D01*
X140547549Y-104866239D01*
X140570184Y-104902262D01*
X140697738Y-105029816D01*
X140850478Y-105125789D01*
X141020745Y-105185368D01*
X141072731Y-105191225D01*
X141137144Y-105218290D01*
X141146529Y-105226764D01*
X144037584Y-108117819D01*
X144071069Y-108179142D01*
X144066085Y-108248834D01*
X144024213Y-108304767D01*
X143958749Y-108329184D01*
X143949903Y-108329500D01*
X140454108Y-108329500D01*
X140326812Y-108363608D01*
X140212686Y-108429500D01*
X140212683Y-108429502D01*
X140119502Y-108522683D01*
X140119500Y-108522686D01*
X140053608Y-108636812D01*
X140019500Y-108764108D01*
X140019500Y-110196937D01*
X139999815Y-110263976D01*
X139947011Y-110309731D01*
X139877853Y-110319675D01*
X139854547Y-110313979D01*
X139799249Y-110294630D01*
X139799251Y-110294630D01*
X139714617Y-110285095D01*
X139650203Y-110258029D01*
X139610647Y-110200434D01*
X139604500Y-110161875D01*
X139604500Y-101162626D01*
X139624185Y-101095587D01*
X139640819Y-101074945D01*
X139966331Y-100749433D01*
X140330520Y-100385245D01*
X140409577Y-100248313D01*
X140450501Y-100095586D01*
X140450501Y-99937471D01*
X140450501Y-99929876D01*
X140450500Y-99929858D01*
X140450500Y-96674996D01*
X148594435Y-96674996D01*
X148594435Y-96675003D01*
X148614630Y-96854249D01*
X148614631Y-96854254D01*
X148674211Y-97024523D01*
X148691561Y-97052135D01*
X148770184Y-97177262D01*
X148897738Y-97304816D01*
X149050478Y-97400789D01*
X149220745Y-97460368D01*
X149220750Y-97460369D01*
X149399996Y-97480565D01*
X149400000Y-97480565D01*
X149400004Y-97480565D01*
X149579249Y-97460369D01*
X149579252Y-97460368D01*
X149579255Y-97460368D01*
X149749522Y-97400789D01*
X149902262Y-97304816D01*
X150029816Y-97177262D01*
X150125789Y-97024522D01*
X150185368Y-96854255D01*
X150187247Y-96837584D01*
X150194379Y-96774276D01*
X150204685Y-96682805D01*
X150231751Y-96618393D01*
X150240214Y-96609019D01*
X152768535Y-94080698D01*
X152829856Y-94047215D01*
X152842311Y-94045163D01*
X152929255Y-94035368D01*
X153099522Y-93975789D01*
X153252262Y-93879816D01*
X153379816Y-93752262D01*
X153475789Y-93599522D01*
X153535368Y-93429255D01*
X153535369Y-93429249D01*
X153555565Y-93250003D01*
X153555565Y-93249996D01*
X153535369Y-93070750D01*
X153535368Y-93070745D01*
X153521317Y-93030590D01*
X153475789Y-92900478D01*
X153446007Y-92853081D01*
X153411714Y-92798504D01*
X153379816Y-92747738D01*
X153252262Y-92620184D01*
X153218548Y-92599000D01*
X153099523Y-92524211D01*
X152929254Y-92464631D01*
X152929249Y-92464630D01*
X152750004Y-92444435D01*
X152749996Y-92444435D01*
X152570750Y-92464630D01*
X152570745Y-92464631D01*
X152400476Y-92524211D01*
X152247737Y-92620184D01*
X152120184Y-92747737D01*
X152024211Y-92900477D01*
X151964630Y-93070750D01*
X151954837Y-93157668D01*
X151927770Y-93222082D01*
X151919298Y-93231465D01*
X149296941Y-95853822D01*
X149235618Y-95887307D01*
X149223155Y-95889360D01*
X149220752Y-95889630D01*
X149220744Y-95889632D01*
X149050478Y-95949210D01*
X148897737Y-96045184D01*
X148770184Y-96172737D01*
X148674211Y-96325476D01*
X148614631Y-96495745D01*
X148614630Y-96495750D01*
X148594435Y-96674996D01*
X140450500Y-96674996D01*
X140450500Y-87378711D01*
X150149500Y-87378711D01*
X150149500Y-87621288D01*
X150181161Y-87861785D01*
X150243947Y-88096104D01*
X150291600Y-88211148D01*
X150336776Y-88320212D01*
X150458064Y-88530289D01*
X150458066Y-88530292D01*
X150458067Y-88530293D01*
X150605733Y-88722736D01*
X150605739Y-88722743D01*
X150777256Y-88894260D01*
X150777263Y-88894266D01*
X150812032Y-88920945D01*
X150969711Y-89041936D01*
X151179788Y-89163224D01*
X151403900Y-89256054D01*
X151638211Y-89318838D01*
X151818586Y-89342584D01*
X151878711Y-89350500D01*
X151878712Y-89350500D01*
X152121289Y-89350500D01*
X152170547Y-89344015D01*
X152361789Y-89318838D01*
X152596100Y-89256054D01*
X152820212Y-89163224D01*
X153030289Y-89041936D01*
X153222738Y-88894265D01*
X153394265Y-88722738D01*
X153541936Y-88530289D01*
X153663224Y-88320212D01*
X153756054Y-88096100D01*
X153818838Y-87861789D01*
X153850500Y-87621288D01*
X153850500Y-87378712D01*
X153818838Y-87138211D01*
X153756054Y-86903900D01*
X153663224Y-86679788D01*
X153541936Y-86469711D01*
X153394265Y-86277262D01*
X153394260Y-86277256D01*
X153222743Y-86105739D01*
X153222736Y-86105733D01*
X153030293Y-85958067D01*
X153030292Y-85958066D01*
X153030289Y-85958064D01*
X152820212Y-85836776D01*
X152820205Y-85836773D01*
X152596104Y-85743947D01*
X152361785Y-85681161D01*
X152121289Y-85649500D01*
X152121288Y-85649500D01*
X151878712Y-85649500D01*
X151878711Y-85649500D01*
X151638214Y-85681161D01*
X151403895Y-85743947D01*
X151179794Y-85836773D01*
X151179785Y-85836777D01*
X150969706Y-85958067D01*
X150777263Y-86105733D01*
X150777256Y-86105739D01*
X150605739Y-86277256D01*
X150605733Y-86277263D01*
X150458067Y-86469706D01*
X150336777Y-86679785D01*
X150336773Y-86679794D01*
X150243947Y-86903895D01*
X150181161Y-87138214D01*
X150149500Y-87378711D01*
X140450500Y-87378711D01*
X140450500Y-80284160D01*
X143874499Y-80284160D01*
X143910215Y-80509660D01*
X143980770Y-80726803D01*
X144073628Y-80909046D01*
X144084421Y-80930228D01*
X144218621Y-81114937D01*
X144380063Y-81276379D01*
X144564772Y-81410579D01*
X144660884Y-81459550D01*
X144768196Y-81514229D01*
X144768198Y-81514229D01*
X144768201Y-81514231D01*
X144884592Y-81552049D01*
X144985339Y-81584784D01*
X145210838Y-81620500D01*
X145210843Y-81620500D01*
X145989162Y-81620500D01*
X146214660Y-81584784D01*
X146431799Y-81514231D01*
X146635228Y-81410579D01*
X146819937Y-81276379D01*
X146981379Y-81114937D01*
X147115579Y-80930228D01*
X147219231Y-80726799D01*
X147289784Y-80509660D01*
X147311886Y-80370113D01*
X147325500Y-80284160D01*
X147325500Y-80055837D01*
X147289784Y-79830339D01*
X147244920Y-79692263D01*
X147219231Y-79613201D01*
X147219229Y-79613198D01*
X147219229Y-79613196D01*
X147115578Y-79409771D01*
X146981379Y-79225063D01*
X146819937Y-79063621D01*
X146635228Y-78929421D01*
X146431803Y-78825770D01*
X146214660Y-78755215D01*
X145989162Y-78719500D01*
X145989157Y-78719500D01*
X145210843Y-78719500D01*
X145210838Y-78719500D01*
X144985339Y-78755215D01*
X144768196Y-78825770D01*
X144564771Y-78929421D01*
X144380061Y-79063622D01*
X144218622Y-79225061D01*
X144084421Y-79409771D01*
X143980770Y-79613196D01*
X143910215Y-79830339D01*
X143874500Y-80055837D01*
X143874500Y-80284158D01*
X143874499Y-80284160D01*
X140450500Y-80284160D01*
X140450500Y-76056688D01*
X140470185Y-75989649D01*
X140522989Y-75943894D01*
X140592147Y-75933950D01*
X140655703Y-75962975D01*
X140679494Y-75990717D01*
X140712419Y-76043118D01*
X140712423Y-76043123D01*
X140908539Y-76289044D01*
X141130956Y-76511461D01*
X141376877Y-76707577D01*
X141643211Y-76874926D01*
X141926606Y-77011402D01*
X142223500Y-77115289D01*
X142530160Y-77185282D01*
X142842723Y-77220499D01*
X142842724Y-77220500D01*
X142842727Y-77220500D01*
X143157276Y-77220500D01*
X143157276Y-77220499D01*
X143469840Y-77185282D01*
X143776500Y-77115289D01*
X144073394Y-77011402D01*
X144356789Y-76874926D01*
X144623123Y-76707577D01*
X144869044Y-76511461D01*
X145091461Y-76289044D01*
X145287577Y-76043123D01*
X145454926Y-75776789D01*
X145591402Y-75493394D01*
X145695289Y-75196500D01*
X145765282Y-74889840D01*
X145800500Y-74577273D01*
X145800500Y-74262727D01*
X145765282Y-73950160D01*
X145695289Y-73643500D01*
X145591402Y-73346606D01*
X145454926Y-73063211D01*
X145287577Y-72796877D01*
X145091461Y-72550956D01*
X144869044Y-72328539D01*
X144623123Y-72132423D01*
X144356789Y-71965074D01*
X144356786Y-71965072D01*
X144073395Y-71828598D01*
X143776501Y-71724711D01*
X143776499Y-71724710D01*
X143469843Y-71654718D01*
X143469827Y-71654716D01*
X143157277Y-71619500D01*
X143157273Y-71619500D01*
X142842727Y-71619500D01*
X142842722Y-71619500D01*
X142530172Y-71654716D01*
X142530156Y-71654718D01*
X142223500Y-71724710D01*
X142223498Y-71724711D01*
X141926604Y-71828598D01*
X141643213Y-71965072D01*
X141376878Y-72132422D01*
X141130956Y-72328538D01*
X140908538Y-72550956D01*
X140712422Y-72796878D01*
X140679494Y-72849283D01*
X140627159Y-72895574D01*
X140558106Y-72906222D01*
X140494257Y-72877847D01*
X140455885Y-72819458D01*
X140450500Y-72783311D01*
X140450500Y-71374500D01*
X140470185Y-71307461D01*
X140522989Y-71261706D01*
X140574500Y-71250500D01*
X144065890Y-71250500D01*
X144065892Y-71250500D01*
X144193186Y-71216392D01*
X144307314Y-71150500D01*
X144400500Y-71057314D01*
X144466392Y-70943186D01*
X144500500Y-70815892D01*
X144500500Y-67684108D01*
X144466392Y-67556814D01*
X144400500Y-67442686D01*
X144307314Y-67349500D01*
X144250250Y-67316554D01*
X144193187Y-67283608D01*
X144129539Y-67266554D01*
X144065892Y-67249500D01*
X140665892Y-67249500D01*
X140574500Y-67249500D01*
X140507461Y-67229815D01*
X140461706Y-67177011D01*
X140450500Y-67125500D01*
X140450500Y-66359775D01*
X140470185Y-66292736D01*
X140508527Y-66254782D01*
X140548262Y-66229816D01*
X140675816Y-66102262D01*
X140771789Y-65949522D01*
X140831368Y-65779255D01*
X140851565Y-65600000D01*
X140839594Y-65493757D01*
X140831369Y-65420750D01*
X140831368Y-65420745D01*
X140771788Y-65250476D01*
X140699371Y-65135226D01*
X140675816Y-65097738D01*
X140548262Y-64970184D01*
X140395523Y-64874211D01*
X140225254Y-64814631D01*
X140225249Y-64814630D01*
X140046004Y-64794435D01*
X140045996Y-64794435D01*
X139866750Y-64814630D01*
X139866745Y-64814631D01*
X139696476Y-64874211D01*
X139543737Y-64970184D01*
X139412181Y-65101741D01*
X139350858Y-65135226D01*
X139281166Y-65130242D01*
X139225233Y-65088370D01*
X139200816Y-65022906D01*
X139200500Y-65014060D01*
X139200500Y-61742951D01*
X139220185Y-61675912D01*
X139268205Y-61632466D01*
X139360228Y-61585579D01*
X139544937Y-61451379D01*
X139706379Y-61289937D01*
X139840579Y-61105228D01*
X139891221Y-61005837D01*
X143874500Y-61005837D01*
X143874500Y-61234162D01*
X143910215Y-61459660D01*
X143980770Y-61676803D01*
X144075439Y-61862599D01*
X144084421Y-61880228D01*
X144218621Y-62064937D01*
X144380063Y-62226379D01*
X144564772Y-62360579D01*
X144660884Y-62409550D01*
X144768196Y-62464229D01*
X144768198Y-62464229D01*
X144768201Y-62464231D01*
X144884592Y-62502049D01*
X144985339Y-62534784D01*
X145210838Y-62570500D01*
X145210843Y-62570500D01*
X145989162Y-62570500D01*
X146214660Y-62534784D01*
X146431799Y-62464231D01*
X146635228Y-62360579D01*
X146819937Y-62226379D01*
X146981379Y-62064937D01*
X147115579Y-61880228D01*
X147219231Y-61676799D01*
X147289784Y-61459660D01*
X147291097Y-61451373D01*
X147325500Y-61234162D01*
X147325500Y-61005837D01*
X147289784Y-60780339D01*
X147219229Y-60563196D01*
X147115578Y-60359771D01*
X146981379Y-60175063D01*
X146819937Y-60013621D01*
X146635228Y-59879421D01*
X146431803Y-59775770D01*
X146214660Y-59705215D01*
X145989162Y-59669500D01*
X145989157Y-59669500D01*
X145210843Y-59669500D01*
X145210838Y-59669500D01*
X144985339Y-59705215D01*
X144768196Y-59775770D01*
X144564771Y-59879421D01*
X144380061Y-60013622D01*
X144218622Y-60175061D01*
X144084421Y-60359771D01*
X143980770Y-60563196D01*
X143910215Y-60780339D01*
X143874500Y-61005837D01*
X139891221Y-61005837D01*
X139944231Y-60901799D01*
X140014784Y-60684660D01*
X140050500Y-60459162D01*
X140050500Y-59680837D01*
X140014784Y-59455339D01*
X139944229Y-59238196D01*
X139840578Y-59034771D01*
X139706379Y-58850063D01*
X139544937Y-58688621D01*
X139360228Y-58554421D01*
X139156803Y-58450770D01*
X138939660Y-58380215D01*
X138714162Y-58344500D01*
X138714157Y-58344500D01*
X138485843Y-58344500D01*
X138485838Y-58344500D01*
X138260339Y-58380215D01*
X138043196Y-58450770D01*
X137839771Y-58554421D01*
X137655061Y-58688622D01*
X137493622Y-58850061D01*
X137359421Y-59034771D01*
X137255770Y-59238196D01*
X137185215Y-59455339D01*
X137149500Y-59680837D01*
X137149500Y-60459162D01*
X137185215Y-60684660D01*
X137255770Y-60901803D01*
X137359421Y-61105228D01*
X137493621Y-61289937D01*
X137655063Y-61451379D01*
X137736726Y-61510711D01*
X137839773Y-61585580D01*
X137898827Y-61615669D01*
X137931794Y-61632466D01*
X137982590Y-61680440D01*
X137999500Y-61742951D01*
X137999500Y-77447047D01*
X137979815Y-77514086D01*
X137931796Y-77557531D01*
X137839774Y-77604419D01*
X137655061Y-77738622D01*
X137493622Y-77900061D01*
X137359421Y-78084771D01*
X137255770Y-78288196D01*
X137185215Y-78505339D01*
X137149500Y-78730837D01*
X137149500Y-79509162D01*
X137185215Y-79734660D01*
X137255770Y-79951803D01*
X137359421Y-80155228D01*
X137493621Y-80339937D01*
X137655063Y-80501379D01*
X137839772Y-80635579D01*
X137851790Y-80641702D01*
X137902588Y-80689674D01*
X137919500Y-80752189D01*
X137919500Y-90955177D01*
X137899815Y-91022216D01*
X137847011Y-91067971D01*
X137809384Y-91078397D01*
X137740750Y-91086130D01*
X137570478Y-91145710D01*
X137417737Y-91241684D01*
X137290184Y-91369237D01*
X137194210Y-91521978D01*
X137134630Y-91692250D01*
X137124837Y-91779168D01*
X137097770Y-91843582D01*
X137089298Y-91852965D01*
X136231286Y-92710978D01*
X136119481Y-92822782D01*
X136119477Y-92822787D01*
X136074624Y-92900477D01*
X136074624Y-92900478D01*
X136040423Y-92959714D01*
X136040423Y-92959715D01*
X135999499Y-93112443D01*
X135999499Y-93112445D01*
X135999499Y-93280546D01*
X135999500Y-93280559D01*
X135999500Y-94285500D01*
X135979815Y-94352539D01*
X135927011Y-94398294D01*
X135875500Y-94409500D01*
X135616603Y-94409500D01*
X135549564Y-94389815D01*
X135503809Y-94337011D01*
X135493865Y-94267853D01*
X135504220Y-94233098D01*
X135573903Y-94083663D01*
X135635063Y-93855408D01*
X135655659Y-93620000D01*
X135653867Y-93599523D01*
X135642297Y-93467280D01*
X135635063Y-93384592D01*
X135573903Y-93156337D01*
X135474035Y-92942171D01*
X135469322Y-92935439D01*
X135338494Y-92748597D01*
X135171402Y-92581506D01*
X135171401Y-92581505D01*
X134985405Y-92451269D01*
X134941781Y-92396692D01*
X134934588Y-92327193D01*
X134966110Y-92264839D01*
X134985405Y-92248119D01*
X135171082Y-92118105D01*
X135338105Y-91951082D01*
X135473600Y-91757578D01*
X135573429Y-91543492D01*
X135573432Y-91543486D01*
X135630636Y-91330000D01*
X134733012Y-91330000D01*
X134765925Y-91272993D01*
X134800000Y-91145826D01*
X134800000Y-91014174D01*
X134765925Y-90887007D01*
X134733012Y-90830000D01*
X135630636Y-90830000D01*
X135630635Y-90829999D01*
X135573432Y-90616513D01*
X135573429Y-90616507D01*
X135473600Y-90402422D01*
X135473599Y-90402420D01*
X135338113Y-90208926D01*
X135338108Y-90208920D01*
X135171082Y-90041894D01*
X134977578Y-89906399D01*
X134763492Y-89806570D01*
X134763486Y-89806567D01*
X134550000Y-89749364D01*
X134550000Y-90646988D01*
X134492993Y-90614075D01*
X134365826Y-90580000D01*
X134234174Y-90580000D01*
X134107007Y-90614075D01*
X134050000Y-90646988D01*
X134050000Y-89749364D01*
X134049999Y-89749364D01*
X133836513Y-89806567D01*
X133836507Y-89806570D01*
X133622422Y-89906399D01*
X133622420Y-89906400D01*
X133428926Y-90041886D01*
X133428920Y-90041891D01*
X133261891Y-90208920D01*
X133261886Y-90208926D01*
X133126400Y-90402420D01*
X133126399Y-90402422D01*
X133026570Y-90616507D01*
X133026567Y-90616513D01*
X132969364Y-90829999D01*
X132969364Y-90830000D01*
X133866988Y-90830000D01*
X133834075Y-90887007D01*
X133800000Y-91014174D01*
X133800000Y-91145826D01*
X133834075Y-91272993D01*
X133866988Y-91330000D01*
X132910597Y-91330000D01*
X132843558Y-91310315D01*
X132822916Y-91293681D01*
X131892590Y-90363355D01*
X131892588Y-90363352D01*
X131773717Y-90244481D01*
X131773709Y-90244475D01*
X131683714Y-90192517D01*
X131683713Y-90192517D01*
X131671819Y-90185649D01*
X131623605Y-90135083D01*
X131617639Y-90121596D01*
X131593796Y-90057669D01*
X131593794Y-90057666D01*
X131507547Y-89942455D01*
X131507544Y-89942452D01*
X131392335Y-89856206D01*
X131392328Y-89856202D01*
X131257482Y-89805908D01*
X131257483Y-89805908D01*
X131197883Y-89799501D01*
X131197881Y-89799500D01*
X131197873Y-89799500D01*
X131197864Y-89799500D01*
X129502129Y-89799500D01*
X129502123Y-89799501D01*
X129442516Y-89805908D01*
X129307671Y-89856202D01*
X129307664Y-89856206D01*
X129192455Y-89942452D01*
X129192452Y-89942455D01*
X129106206Y-90057664D01*
X129106202Y-90057671D01*
X129055908Y-90192517D01*
X129050316Y-90244536D01*
X129049501Y-90252123D01*
X129049500Y-90252135D01*
X129049500Y-91124902D01*
X129029815Y-91191941D01*
X129013181Y-91212583D01*
X128431286Y-91794478D01*
X128431284Y-91794480D01*
X128372799Y-91852965D01*
X128317940Y-91907824D01*
X128256617Y-91941308D01*
X128186925Y-91936324D01*
X128130992Y-91894452D01*
X128114077Y-91863474D01*
X128093355Y-91807915D01*
X128093350Y-91807906D01*
X128007190Y-91692812D01*
X128002416Y-91688038D01*
X127968931Y-91626715D01*
X127973915Y-91557023D01*
X128002416Y-91512676D01*
X128007542Y-91507548D01*
X128007546Y-91507546D01*
X128093796Y-91392331D01*
X128144091Y-91257483D01*
X128150500Y-91197873D01*
X128150499Y-90252128D01*
X128144091Y-90192517D01*
X128141530Y-90185651D01*
X128093797Y-90057671D01*
X128093793Y-90057664D01*
X128007547Y-89942455D01*
X128007544Y-89942452D01*
X127892335Y-89856206D01*
X127892328Y-89856202D01*
X127757482Y-89805908D01*
X127757483Y-89805908D01*
X127697883Y-89799501D01*
X127697881Y-89799500D01*
X127697873Y-89799500D01*
X127697864Y-89799500D01*
X126002129Y-89799500D01*
X126002123Y-89799501D01*
X125942516Y-89805908D01*
X125807671Y-89856202D01*
X125807664Y-89856206D01*
X125692455Y-89942452D01*
X125692452Y-89942455D01*
X125606206Y-90057664D01*
X125606202Y-90057671D01*
X125555908Y-90192517D01*
X125550316Y-90244536D01*
X125549501Y-90252123D01*
X125549500Y-90252135D01*
X125549500Y-90349912D01*
X125529815Y-90416951D01*
X125513185Y-90437590D01*
X123231484Y-92719480D01*
X123152471Y-92798493D01*
X123120956Y-92853080D01*
X123120957Y-92853081D01*
X123073423Y-92935416D01*
X123073415Y-92935433D01*
X123073413Y-92935439D01*
X123051238Y-93018211D01*
X123051237Y-93018215D01*
X123032497Y-93088153D01*
X123032496Y-93088162D01*
X123032500Y-93168215D01*
X123032500Y-98101679D01*
X123032492Y-98183907D01*
X123012801Y-98250945D01*
X122959992Y-98296694D01*
X122890833Y-98306631D01*
X122827280Y-98277600D01*
X122820811Y-98271576D01*
X122636818Y-98087583D01*
X122603333Y-98026260D01*
X122600499Y-97999902D01*
X122600499Y-97997882D01*
X122600500Y-97997873D01*
X122600499Y-97052128D01*
X122594091Y-96992517D01*
X122593495Y-96990920D01*
X122543797Y-96857671D01*
X122543793Y-96857664D01*
X122457547Y-96742455D01*
X122457544Y-96742452D01*
X122342335Y-96656206D01*
X122342328Y-96656202D01*
X122207482Y-96605908D01*
X122207483Y-96605908D01*
X122147883Y-96599501D01*
X122147881Y-96599500D01*
X122147873Y-96599500D01*
X122147864Y-96599500D01*
X120452129Y-96599500D01*
X120452123Y-96599501D01*
X120392516Y-96605908D01*
X120257671Y-96656202D01*
X120257664Y-96656206D01*
X120142455Y-96742452D01*
X120142452Y-96742455D01*
X120056206Y-96857664D01*
X120056203Y-96857669D01*
X120015159Y-96967714D01*
X119973287Y-97023647D01*
X119907823Y-97048064D01*
X119839550Y-97033212D01*
X119811296Y-97012061D01*
X119636819Y-96837584D01*
X119603334Y-96776261D01*
X119600500Y-96749903D01*
X119600500Y-94420945D01*
X119600500Y-94420943D01*
X119559577Y-94268216D01*
X119559577Y-94268215D01*
X119559577Y-94268214D01*
X119530639Y-94218095D01*
X119530637Y-94218092D01*
X119480520Y-94131284D01*
X119368716Y-94019480D01*
X119368715Y-94019479D01*
X119364385Y-94015149D01*
X119364374Y-94015139D01*
X118961415Y-93612180D01*
X118927930Y-93550857D01*
X118932914Y-93481165D01*
X118974786Y-93425232D01*
X119040250Y-93400815D01*
X119049096Y-93400499D01*
X119647871Y-93400499D01*
X119647872Y-93400499D01*
X119707483Y-93394091D01*
X119842331Y-93343796D01*
X119957546Y-93257546D01*
X120043796Y-93142331D01*
X120094091Y-93007483D01*
X120100500Y-92947873D01*
X120100499Y-92002128D01*
X120094091Y-91942517D01*
X120091781Y-91936324D01*
X120043797Y-91807671D01*
X120043793Y-91807664D01*
X119957547Y-91692455D01*
X119952773Y-91687681D01*
X119919288Y-91626358D01*
X119924272Y-91556666D01*
X119952773Y-91512319D01*
X119957542Y-91507548D01*
X119957546Y-91507546D01*
X120043796Y-91392331D01*
X120043798Y-91392323D01*
X120045027Y-91390076D01*
X120046849Y-91388253D01*
X120049112Y-91385231D01*
X120049546Y-91385556D01*
X120094431Y-91340669D01*
X120153861Y-91325500D01*
X120321837Y-91325500D01*
X120388876Y-91345185D01*
X120409530Y-91361831D01*
X120526581Y-91478918D01*
X120769296Y-91721708D01*
X120802771Y-91783037D01*
X120804821Y-91795492D01*
X120814630Y-91882549D01*
X120874210Y-92052821D01*
X120964140Y-92195943D01*
X120970184Y-92205562D01*
X121097738Y-92333116D01*
X121156733Y-92370185D01*
X121198918Y-92396692D01*
X121250478Y-92429089D01*
X121381684Y-92475000D01*
X121420745Y-92488668D01*
X121420750Y-92488669D01*
X121599996Y-92508865D01*
X121600000Y-92508865D01*
X121600004Y-92508865D01*
X121779249Y-92488669D01*
X121779252Y-92488668D01*
X121779255Y-92488668D01*
X121949522Y-92429089D01*
X122102262Y-92333116D01*
X122229816Y-92205562D01*
X122325789Y-92052822D01*
X122385368Y-91882555D01*
X122393779Y-91807906D01*
X122405565Y-91703303D01*
X122405565Y-91703296D01*
X122385369Y-91524050D01*
X122385368Y-91524045D01*
X122339281Y-91392336D01*
X122325789Y-91353778D01*
X122229816Y-91201038D01*
X122102262Y-91073484D01*
X122007871Y-91014174D01*
X121949521Y-90977510D01*
X121779249Y-90917930D01*
X121692472Y-90908153D01*
X121628058Y-90881086D01*
X121618661Y-90872601D01*
X121519083Y-90772993D01*
X121108585Y-90362369D01*
X121108454Y-90362218D01*
X121096148Y-90349912D01*
X121046103Y-90299867D01*
X121046095Y-90299853D01*
X121046093Y-90299856D01*
X120990790Y-90244536D01*
X120990712Y-90244476D01*
X120920799Y-90204113D01*
X120920782Y-90204104D01*
X120853865Y-90165456D01*
X120853789Y-90165424D01*
X120776599Y-90144741D01*
X120776599Y-90144738D01*
X120776580Y-90144736D01*
X120754488Y-90138813D01*
X120701149Y-90124512D01*
X120701148Y-90124511D01*
X120701104Y-90124500D01*
X120701057Y-90124500D01*
X120625255Y-90124500D01*
X120625198Y-90124499D01*
X120543035Y-90124487D01*
X120543034Y-90124487D01*
X120535106Y-90124486D01*
X120534892Y-90124500D01*
X120153861Y-90124500D01*
X120086822Y-90104815D01*
X120049362Y-90064581D01*
X120049112Y-90064769D01*
X120047364Y-90062434D01*
X120045027Y-90059924D01*
X120043797Y-90057673D01*
X120043796Y-90057669D01*
X120043793Y-90057665D01*
X120043792Y-90057663D01*
X119957547Y-89942455D01*
X119957544Y-89942452D01*
X119842335Y-89856206D01*
X119842328Y-89856202D01*
X119707482Y-89805908D01*
X119707483Y-89805908D01*
X119647883Y-89799501D01*
X119647881Y-89799500D01*
X119647873Y-89799500D01*
X119647864Y-89799500D01*
X117952129Y-89799500D01*
X117952123Y-89799501D01*
X117892516Y-89805908D01*
X117757671Y-89856202D01*
X117757664Y-89856206D01*
X117642455Y-89942452D01*
X117642452Y-89942455D01*
X117556206Y-90057664D01*
X117556198Y-90057678D01*
X117555902Y-90058474D01*
X117555393Y-90059152D01*
X117551953Y-90065454D01*
X117551046Y-90064958D01*
X117514025Y-90114403D01*
X117448558Y-90138813D01*
X117380286Y-90123954D01*
X117352044Y-90102809D01*
X116887590Y-89638355D01*
X116887588Y-89638352D01*
X116768717Y-89519481D01*
X116768716Y-89519480D01*
X116681904Y-89469360D01*
X116681904Y-89469359D01*
X116681900Y-89469358D01*
X116631785Y-89440423D01*
X116479057Y-89399499D01*
X116320943Y-89399499D01*
X116313347Y-89399499D01*
X116313331Y-89399500D01*
X114279057Y-89399500D01*
X114120943Y-89399500D01*
X113968215Y-89440423D01*
X113968214Y-89440423D01*
X113968212Y-89440424D01*
X113968209Y-89440425D01*
X113918096Y-89469359D01*
X113918095Y-89469360D01*
X113893316Y-89483666D01*
X113831285Y-89519479D01*
X113831282Y-89519481D01*
X113269479Y-90081284D01*
X113251941Y-90111662D01*
X113244528Y-90124503D01*
X113213240Y-90178695D01*
X113195790Y-90208920D01*
X113190423Y-90218215D01*
X113149499Y-90370943D01*
X113149499Y-90370945D01*
X113149499Y-90539046D01*
X113149500Y-90539059D01*
X113149500Y-95663330D01*
X113149499Y-95663348D01*
X113149499Y-95670943D01*
X113149499Y-95829057D01*
X113156135Y-95853822D01*
X113190422Y-95981783D01*
X113192493Y-95985370D01*
X113192492Y-95985370D01*
X113192496Y-95985375D01*
X113269477Y-96118712D01*
X113269481Y-96118717D01*
X113388349Y-96237585D01*
X113388355Y-96237590D01*
X117328662Y-100177897D01*
X117362147Y-100239220D01*
X117357163Y-100308912D01*
X117328663Y-100353258D01*
X117277184Y-100404737D01*
X117181211Y-100557476D01*
X117121631Y-100727745D01*
X117121630Y-100727750D01*
X117101435Y-100906996D01*
X117101435Y-100907003D01*
X117121630Y-101086249D01*
X117121631Y-101086254D01*
X117181211Y-101256523D01*
X117243659Y-101355908D01*
X117277184Y-101409262D01*
X117404738Y-101536816D01*
X117557478Y-101632789D01*
X117727745Y-101692368D01*
X117814669Y-101702161D01*
X117879080Y-101729226D01*
X117888465Y-101737700D01*
X117929181Y-101778416D01*
X117962666Y-101839739D01*
X117965500Y-101866097D01*
X117965500Y-111798850D01*
X117945815Y-111865889D01*
X117893011Y-111911644D01*
X117823853Y-111921588D01*
X117760297Y-111892563D01*
X117725318Y-111842183D01*
X117693797Y-111757671D01*
X117693793Y-111757664D01*
X117607547Y-111642455D01*
X117607544Y-111642452D01*
X117492335Y-111556206D01*
X117492328Y-111556202D01*
X117357482Y-111505908D01*
X117357483Y-111505908D01*
X117297883Y-111499501D01*
X117297881Y-111499500D01*
X117297873Y-111499500D01*
X117297865Y-111499500D01*
X116974500Y-111499500D01*
X116907461Y-111479815D01*
X116861706Y-111427011D01*
X116850500Y-111375500D01*
X116850500Y-103709412D01*
X116870185Y-103642373D01*
X116877555Y-103632097D01*
X116879810Y-103629267D01*
X116879816Y-103629262D01*
X116975789Y-103476522D01*
X117035368Y-103306255D01*
X117035369Y-103306249D01*
X117055565Y-103127003D01*
X117055565Y-103126996D01*
X117035369Y-102947750D01*
X117035368Y-102947745D01*
X116975788Y-102777476D01*
X116879815Y-102624737D01*
X116752262Y-102497184D01*
X116599523Y-102401211D01*
X116429254Y-102341631D01*
X116429249Y-102341630D01*
X116250004Y-102321435D01*
X116249996Y-102321435D01*
X116070750Y-102341630D01*
X116070745Y-102341631D01*
X115900476Y-102401211D01*
X115747737Y-102497184D01*
X115620184Y-102624737D01*
X115524211Y-102777476D01*
X115464631Y-102947745D01*
X115464630Y-102947750D01*
X115444435Y-103126996D01*
X115444435Y-103127003D01*
X115464630Y-103306249D01*
X115464631Y-103306254D01*
X115524211Y-103476523D01*
X115584515Y-103572496D01*
X115610991Y-103614632D01*
X115620185Y-103629263D01*
X115622445Y-103632097D01*
X115623334Y-103634275D01*
X115623889Y-103635158D01*
X115623734Y-103635255D01*
X115648855Y-103696783D01*
X115649500Y-103709412D01*
X115649500Y-111375500D01*
X115629815Y-111442539D01*
X115577011Y-111488294D01*
X115525500Y-111499500D01*
X115202130Y-111499500D01*
X115202123Y-111499501D01*
X115142516Y-111505908D01*
X115007671Y-111556202D01*
X115007664Y-111556206D01*
X114892455Y-111642452D01*
X114892452Y-111642455D01*
X114806206Y-111757664D01*
X114806202Y-111757671D01*
X114755908Y-111892517D01*
X114752783Y-111921588D01*
X114749501Y-111952123D01*
X114749500Y-111952135D01*
X114749500Y-114047870D01*
X114749501Y-114047876D01*
X114755908Y-114107483D01*
X114806202Y-114242328D01*
X114806206Y-114242335D01*
X114892452Y-114357544D01*
X114892455Y-114357547D01*
X115008986Y-114444783D01*
X115050857Y-114500717D01*
X115055841Y-114570408D01*
X115038484Y-114611870D01*
X114926267Y-114783631D01*
X114826412Y-115011282D01*
X114765387Y-115252261D01*
X114765385Y-115252270D01*
X114744859Y-115499994D01*
X114744859Y-115500005D01*
X114765385Y-115747729D01*
X114765387Y-115747738D01*
X114826412Y-115988717D01*
X114926267Y-116216367D01*
X115026562Y-116369881D01*
X115767036Y-115629406D01*
X115784075Y-115692993D01*
X115849901Y-115807007D01*
X115942993Y-115900099D01*
X116057007Y-115965925D01*
X116120589Y-115982962D01*
X115374101Y-116729451D01*
X115363481Y-116776151D01*
X115331376Y-116813556D01*
X115230258Y-116892260D01*
X115061833Y-117075217D01*
X114925826Y-117283393D01*
X114825936Y-117511118D01*
X114764892Y-117752175D01*
X114764890Y-117752187D01*
X114744357Y-117999994D01*
X114744357Y-118000005D01*
X114764890Y-118247812D01*
X114764892Y-118247824D01*
X114825936Y-118488881D01*
X114925826Y-118716606D01*
X115061833Y-118924782D01*
X115061836Y-118924785D01*
X115230256Y-119107738D01*
X115426491Y-119260474D01*
X115426493Y-119260475D01*
X115567013Y-119336521D01*
X115645190Y-119378828D01*
X115880386Y-119459571D01*
X116125665Y-119500500D01*
X116374335Y-119500500D01*
X116619614Y-119459571D01*
X116854810Y-119378828D01*
X117073509Y-119260474D01*
X117269744Y-119107738D01*
X117438164Y-118924785D01*
X117574173Y-118716607D01*
X117674063Y-118488881D01*
X117735108Y-118247821D01*
X117739461Y-118195288D01*
X117755643Y-118000005D01*
X117755643Y-117999994D01*
X117735109Y-117752187D01*
X117735108Y-117752183D01*
X117735108Y-117752179D01*
X117674063Y-117511119D01*
X117674062Y-117511118D01*
X117673992Y-117510839D01*
X117676616Y-117441018D01*
X117706514Y-117392719D01*
X119046520Y-116052716D01*
X119125577Y-115915784D01*
X119166501Y-115763057D01*
X119166501Y-115604942D01*
X119166501Y-115597347D01*
X119166500Y-115597329D01*
X119166500Y-112999994D01*
X129244357Y-112999994D01*
X129244357Y-113000005D01*
X129264890Y-113247812D01*
X129264892Y-113247824D01*
X129325936Y-113488881D01*
X129425826Y-113716606D01*
X129561833Y-113924782D01*
X129561836Y-113924785D01*
X129730256Y-114107738D01*
X129926491Y-114260474D01*
X130145190Y-114378828D01*
X130380386Y-114459571D01*
X130625665Y-114500500D01*
X130874335Y-114500500D01*
X131119614Y-114459571D01*
X131354810Y-114378828D01*
X131573509Y-114260474D01*
X131769744Y-114107738D01*
X131938164Y-113924785D01*
X132074173Y-113716607D01*
X132174063Y-113488881D01*
X132235108Y-113247821D01*
X132238041Y-113212423D01*
X132255643Y-113000005D01*
X132255643Y-112999994D01*
X132235109Y-112752187D01*
X132235107Y-112752175D01*
X132174063Y-112511118D01*
X132074173Y-112283393D01*
X131938166Y-112075217D01*
X131904229Y-112038352D01*
X131769744Y-111892262D01*
X131573509Y-111739526D01*
X131573507Y-111739525D01*
X131573506Y-111739524D01*
X131354811Y-111621172D01*
X131354802Y-111621169D01*
X131119616Y-111540429D01*
X130874335Y-111499500D01*
X130625665Y-111499500D01*
X130380383Y-111540429D01*
X130145197Y-111621169D01*
X130145188Y-111621172D01*
X129926493Y-111739524D01*
X129730257Y-111892261D01*
X129561833Y-112075217D01*
X129425826Y-112283393D01*
X129325936Y-112511118D01*
X129264892Y-112752175D01*
X129264890Y-112752187D01*
X129244357Y-112999994D01*
X119166500Y-112999994D01*
X119166500Y-108852135D01*
X121649500Y-108852135D01*
X121649500Y-110947870D01*
X121649501Y-110947876D01*
X121655908Y-111007483D01*
X121706202Y-111142328D01*
X121706206Y-111142335D01*
X121792452Y-111257544D01*
X121792455Y-111257547D01*
X121907664Y-111343793D01*
X121907671Y-111343797D01*
X122042517Y-111394091D01*
X122042516Y-111394091D01*
X122049444Y-111394835D01*
X122102127Y-111400500D01*
X125397872Y-111400499D01*
X125457483Y-111394091D01*
X125592331Y-111343796D01*
X125707546Y-111257546D01*
X125793796Y-111142331D01*
X125844091Y-111007483D01*
X125850500Y-110947873D01*
X125850499Y-108852128D01*
X125844091Y-108792517D01*
X125793796Y-108657669D01*
X125793795Y-108657668D01*
X125793793Y-108657664D01*
X125707547Y-108542455D01*
X125707544Y-108542452D01*
X125592335Y-108456206D01*
X125592328Y-108456202D01*
X125457482Y-108405908D01*
X125457483Y-108405908D01*
X125397883Y-108399501D01*
X125397881Y-108399500D01*
X125397873Y-108399500D01*
X125397864Y-108399500D01*
X122102129Y-108399500D01*
X122102123Y-108399501D01*
X122042516Y-108405908D01*
X121907671Y-108456202D01*
X121907664Y-108456206D01*
X121792455Y-108542452D01*
X121792452Y-108542455D01*
X121706206Y-108657664D01*
X121706202Y-108657671D01*
X121655908Y-108792517D01*
X121649501Y-108852116D01*
X121649501Y-108852123D01*
X121649500Y-108852135D01*
X119166500Y-108852135D01*
X119166500Y-102315097D01*
X119186185Y-102248058D01*
X119238989Y-102202303D01*
X119308147Y-102192359D01*
X119371703Y-102221384D01*
X119378181Y-102227416D01*
X122515139Y-105364374D01*
X122515149Y-105364385D01*
X122519479Y-105368715D01*
X122519480Y-105368716D01*
X122631284Y-105480520D01*
X122631286Y-105480521D01*
X122631290Y-105480524D01*
X122768209Y-105559573D01*
X122768216Y-105559577D01*
X122880019Y-105589534D01*
X122920942Y-105600500D01*
X122920943Y-105600500D01*
X135667588Y-105600500D01*
X135734627Y-105620185D01*
X135744903Y-105627555D01*
X135747736Y-105629814D01*
X135747738Y-105629816D01*
X135900478Y-105725789D01*
X136027352Y-105770184D01*
X136070745Y-105785368D01*
X136070750Y-105785369D01*
X136249996Y-105805565D01*
X136250000Y-105805565D01*
X136250004Y-105805565D01*
X136429249Y-105785369D01*
X136429250Y-105785368D01*
X136429255Y-105785368D01*
X136484545Y-105766020D01*
X136554322Y-105762458D01*
X136614950Y-105797186D01*
X136647178Y-105859179D01*
X136649500Y-105883062D01*
X136649500Y-111199902D01*
X136629815Y-111266941D01*
X136613181Y-111287583D01*
X131353548Y-116547215D01*
X131292225Y-116580700D01*
X131225604Y-116576815D01*
X131119616Y-116540429D01*
X130874335Y-116499500D01*
X130625665Y-116499500D01*
X130380383Y-116540429D01*
X130145197Y-116621169D01*
X130145188Y-116621172D01*
X129926493Y-116739524D01*
X129730257Y-116892261D01*
X129561833Y-117075217D01*
X129425826Y-117283393D01*
X129325936Y-117511118D01*
X129264892Y-117752175D01*
X129264890Y-117752187D01*
X129244357Y-117999994D01*
X129244357Y-118000005D01*
X129264890Y-118247812D01*
X129264892Y-118247824D01*
X129325936Y-118488881D01*
X129425826Y-118716606D01*
X129561833Y-118924782D01*
X129561836Y-118924785D01*
X129730256Y-119107738D01*
X129926491Y-119260474D01*
X129926493Y-119260475D01*
X130067013Y-119336521D01*
X130145190Y-119378828D01*
X130380386Y-119459571D01*
X130625665Y-119500500D01*
X130874335Y-119500500D01*
X131119614Y-119459571D01*
X131354810Y-119378828D01*
X131573509Y-119260474D01*
X131769744Y-119107738D01*
X131938164Y-118924785D01*
X132074173Y-118716607D01*
X132174063Y-118488881D01*
X132235108Y-118247821D01*
X132239461Y-118195288D01*
X132255643Y-118000005D01*
X132255643Y-117999994D01*
X132235109Y-117752187D01*
X132235108Y-117752183D01*
X132235108Y-117752179D01*
X132174063Y-117511119D01*
X132174062Y-117511118D01*
X132173992Y-117510839D01*
X132176616Y-117441018D01*
X132206514Y-117392719D01*
X137608506Y-111990728D01*
X137608511Y-111990724D01*
X137618714Y-111980520D01*
X137618716Y-111980520D01*
X137707819Y-111891417D01*
X137769142Y-111857932D01*
X137838834Y-111862916D01*
X137894767Y-111904788D01*
X137919184Y-111970252D01*
X137919500Y-111979098D01*
X137919500Y-118527047D01*
X137899815Y-118594086D01*
X137851796Y-118637531D01*
X137759774Y-118684419D01*
X137575061Y-118818622D01*
X137413622Y-118980061D01*
X137279421Y-119164771D01*
X137175770Y-119368196D01*
X137105215Y-119585339D01*
X137069500Y-119810837D01*
X137069500Y-120589162D01*
X137105215Y-120814660D01*
X137175770Y-121031803D01*
X137279421Y-121235228D01*
X137413621Y-121419937D01*
X137575063Y-121581379D01*
X137759772Y-121715579D01*
X137855884Y-121764550D01*
X137963196Y-121819229D01*
X137963198Y-121819229D01*
X137963201Y-121819231D01*
X138079592Y-121857049D01*
X138180339Y-121889784D01*
X138405838Y-121925500D01*
X138405843Y-121925500D01*
X138634162Y-121925500D01*
X138859660Y-121889784D01*
X139076799Y-121819231D01*
X139280228Y-121715579D01*
X139464937Y-121581379D01*
X139626379Y-121419937D01*
X139760579Y-121235228D01*
X139811221Y-121135837D01*
X143794500Y-121135837D01*
X143794500Y-121364162D01*
X143830215Y-121589660D01*
X143900770Y-121806803D01*
X143961250Y-121925500D01*
X144004421Y-122010228D01*
X144138621Y-122194937D01*
X144300063Y-122356379D01*
X144484772Y-122490579D01*
X144580884Y-122539550D01*
X144688196Y-122594229D01*
X144688198Y-122594229D01*
X144688201Y-122594231D01*
X144804592Y-122632049D01*
X144905339Y-122664784D01*
X145130838Y-122700500D01*
X145130843Y-122700500D01*
X145909162Y-122700500D01*
X146134660Y-122664784D01*
X146351799Y-122594231D01*
X146555228Y-122490579D01*
X146739937Y-122356379D01*
X146901379Y-122194937D01*
X147035579Y-122010228D01*
X147139231Y-121806799D01*
X147209784Y-121589660D01*
X147211096Y-121581377D01*
X147245500Y-121364162D01*
X147245500Y-121135837D01*
X147209784Y-120910339D01*
X147139229Y-120693196D01*
X147035578Y-120489771D01*
X146901379Y-120305063D01*
X146739937Y-120143621D01*
X146555228Y-120009421D01*
X146522050Y-119992516D01*
X146351803Y-119905770D01*
X146134660Y-119835215D01*
X145909162Y-119799500D01*
X145909157Y-119799500D01*
X145130843Y-119799500D01*
X145130838Y-119799500D01*
X144905339Y-119835215D01*
X144688196Y-119905770D01*
X144484771Y-120009421D01*
X144300061Y-120143622D01*
X144138622Y-120305061D01*
X144004421Y-120489771D01*
X143900770Y-120693196D01*
X143830215Y-120910339D01*
X143794500Y-121135837D01*
X139811221Y-121135837D01*
X139864231Y-121031799D01*
X139934784Y-120814660D01*
X139970500Y-120589162D01*
X139970500Y-119810837D01*
X139934784Y-119585339D01*
X139893919Y-119459570D01*
X139864231Y-119368201D01*
X139864229Y-119368198D01*
X139864229Y-119368196D01*
X139760578Y-119164771D01*
X139626379Y-118980063D01*
X139464937Y-118818621D01*
X139280228Y-118684421D01*
X139280227Y-118684420D01*
X139280225Y-118684419D01*
X139188204Y-118637531D01*
X139137409Y-118589556D01*
X139120500Y-118527047D01*
X139120500Y-115342722D01*
X140119500Y-115342722D01*
X140119500Y-115657277D01*
X140154716Y-115969827D01*
X140154718Y-115969843D01*
X140224710Y-116276499D01*
X140224711Y-116276501D01*
X140328598Y-116573395D01*
X140465072Y-116856786D01*
X140465074Y-116856789D01*
X140632423Y-117123123D01*
X140828539Y-117369044D01*
X141050956Y-117591461D01*
X141296877Y-117787577D01*
X141563211Y-117954926D01*
X141846606Y-118091402D01*
X142143500Y-118195289D01*
X142450160Y-118265282D01*
X142762723Y-118300499D01*
X142762724Y-118300500D01*
X142762727Y-118300500D01*
X143077276Y-118300500D01*
X143077276Y-118300499D01*
X143389840Y-118265282D01*
X143696500Y-118195289D01*
X143993394Y-118091402D01*
X144276789Y-117954926D01*
X144543123Y-117787577D01*
X144789044Y-117591461D01*
X145011461Y-117369044D01*
X145207577Y-117123123D01*
X145374926Y-116856789D01*
X145511402Y-116573394D01*
X145615289Y-116276500D01*
X145685282Y-115969840D01*
X145720500Y-115657273D01*
X145720500Y-115342727D01*
X145685282Y-115030160D01*
X145615289Y-114723500D01*
X145511402Y-114426606D01*
X145374926Y-114143211D01*
X145207577Y-113876877D01*
X145011461Y-113630956D01*
X144789044Y-113408539D01*
X144543123Y-113212423D01*
X144276789Y-113045074D01*
X144276786Y-113045072D01*
X143993395Y-112908598D01*
X143696501Y-112804711D01*
X143696499Y-112804710D01*
X143389843Y-112734718D01*
X143389827Y-112734716D01*
X143077277Y-112699500D01*
X143077273Y-112699500D01*
X142762727Y-112699500D01*
X142762722Y-112699500D01*
X142450172Y-112734716D01*
X142450156Y-112734718D01*
X142143500Y-112804710D01*
X142143498Y-112804711D01*
X141846604Y-112908598D01*
X141563213Y-113045072D01*
X141296878Y-113212422D01*
X141050956Y-113408538D01*
X140828538Y-113630956D01*
X140632422Y-113876878D01*
X140465072Y-114143213D01*
X140328598Y-114426604D01*
X140224711Y-114723498D01*
X140224710Y-114723500D01*
X140154718Y-115030156D01*
X140154716Y-115030172D01*
X140119500Y-115342722D01*
X139120500Y-115342722D01*
X139120500Y-111928071D01*
X139140185Y-111861032D01*
X139192989Y-111815277D01*
X139262147Y-111805333D01*
X139285455Y-111811030D01*
X139440737Y-111865366D01*
X139440743Y-111865367D01*
X139440745Y-111865368D01*
X139440746Y-111865368D01*
X139440750Y-111865369D01*
X139619996Y-111885565D01*
X139620000Y-111885565D01*
X139620004Y-111885565D01*
X139799249Y-111865369D01*
X139799252Y-111865368D01*
X139799255Y-111865368D01*
X139799256Y-111865367D01*
X139799259Y-111865367D01*
X139867000Y-111841663D01*
X139936779Y-111838100D01*
X139997407Y-111872829D01*
X140027730Y-111926609D01*
X140053608Y-112023186D01*
X140119500Y-112137314D01*
X140212686Y-112230500D01*
X140326814Y-112296392D01*
X140454108Y-112330500D01*
X140454110Y-112330500D01*
X143985890Y-112330500D01*
X143985892Y-112330500D01*
X144113186Y-112296392D01*
X144227314Y-112230500D01*
X144320500Y-112137314D01*
X144386392Y-112023186D01*
X144412269Y-111926608D01*
X144448632Y-111866951D01*
X144511479Y-111836421D01*
X144572977Y-111841655D01*
X144573000Y-111841663D01*
X144576152Y-111842765D01*
X144622898Y-111872133D01*
X145515139Y-112764374D01*
X145515149Y-112764385D01*
X145519479Y-112768715D01*
X145519480Y-112768716D01*
X145631284Y-112880520D01*
X145679918Y-112908598D01*
X145718095Y-112930639D01*
X145718097Y-112930641D01*
X145756151Y-112952611D01*
X145768215Y-112959577D01*
X145920943Y-113000501D01*
X145920946Y-113000501D01*
X146086653Y-113000501D01*
X146086669Y-113000500D01*
X147549903Y-113000500D01*
X147616942Y-113020185D01*
X147637584Y-113036819D01*
X148119298Y-113518533D01*
X148152783Y-113579856D01*
X148154837Y-113592330D01*
X148164630Y-113679249D01*
X148224210Y-113849521D01*
X148320185Y-114002263D01*
X148322445Y-114005097D01*
X148323334Y-114007275D01*
X148323889Y-114008158D01*
X148323734Y-114008255D01*
X148348855Y-114069783D01*
X148349500Y-114082412D01*
X148349500Y-125000500D01*
X148329815Y-125067539D01*
X148277011Y-125113294D01*
X148225501Y-125124500D01*
X148052130Y-125124500D01*
X148052123Y-125124501D01*
X147992516Y-125130908D01*
X147857671Y-125181202D01*
X147857664Y-125181206D01*
X147742455Y-125267452D01*
X147742452Y-125267455D01*
X147656206Y-125382664D01*
X147656202Y-125382671D01*
X147605908Y-125517517D01*
X147599501Y-125577116D01*
X147599500Y-125577135D01*
X147599501Y-127375500D01*
X147579816Y-127442539D01*
X147527013Y-127488294D01*
X147475501Y-127499500D01*
X112124500Y-127499500D01*
X112057461Y-127479815D01*
X112011706Y-127427011D01*
X112000500Y-127375500D01*
X112000500Y-123878711D01*
X113649500Y-123878711D01*
X113649500Y-124121288D01*
X113681161Y-124361785D01*
X113743947Y-124596104D01*
X113836773Y-124820205D01*
X113836776Y-124820212D01*
X113958064Y-125030289D01*
X113958066Y-125030292D01*
X113958067Y-125030293D01*
X114105733Y-125222736D01*
X114105739Y-125222743D01*
X114277256Y-125394260D01*
X114277262Y-125394265D01*
X114469711Y-125541936D01*
X114679788Y-125663224D01*
X114903900Y-125756054D01*
X115138211Y-125818838D01*
X115302085Y-125840412D01*
X115378711Y-125850500D01*
X115378712Y-125850500D01*
X115621289Y-125850500D01*
X115697915Y-125840412D01*
X115861789Y-125818838D01*
X116096100Y-125756054D01*
X116320212Y-125663224D01*
X116530289Y-125541936D01*
X116722738Y-125394265D01*
X116894265Y-125222738D01*
X117041936Y-125030289D01*
X117163224Y-124820212D01*
X117256054Y-124596100D01*
X117318838Y-124361789D01*
X117350500Y-124121288D01*
X117350500Y-123878712D01*
X117318838Y-123638211D01*
X117256054Y-123403900D01*
X117163224Y-123179788D01*
X117041936Y-122969711D01*
X116894265Y-122777262D01*
X116894260Y-122777256D01*
X116722743Y-122605739D01*
X116722736Y-122605733D01*
X116530293Y-122458067D01*
X116530292Y-122458066D01*
X116530289Y-122458064D01*
X116354162Y-122356377D01*
X116320214Y-122336777D01*
X116320205Y-122336773D01*
X116096104Y-122243947D01*
X115913201Y-122194938D01*
X115861789Y-122181162D01*
X115861788Y-122181161D01*
X115861785Y-122181161D01*
X115621289Y-122149500D01*
X115621288Y-122149500D01*
X115378712Y-122149500D01*
X115378711Y-122149500D01*
X115138214Y-122181161D01*
X114903895Y-122243947D01*
X114679794Y-122336773D01*
X114679785Y-122336777D01*
X114497851Y-122441817D01*
X114470607Y-122457547D01*
X114469706Y-122458067D01*
X114277263Y-122605733D01*
X114277256Y-122605739D01*
X114105739Y-122777256D01*
X114105733Y-122777263D01*
X113958067Y-122969706D01*
X113836777Y-123179785D01*
X113836773Y-123179794D01*
X113743947Y-123403895D01*
X113681161Y-123638214D01*
X113649500Y-123878711D01*
X112000500Y-123878711D01*
X112000500Y-120052135D01*
X121649500Y-120052135D01*
X121649500Y-122147870D01*
X121649501Y-122147876D01*
X121655908Y-122207483D01*
X121706202Y-122342328D01*
X121706206Y-122342335D01*
X121792452Y-122457544D01*
X121792455Y-122457547D01*
X121907664Y-122543793D01*
X121907671Y-122543797D01*
X122042517Y-122594091D01*
X122042516Y-122594091D01*
X122049444Y-122594835D01*
X122102127Y-122600500D01*
X125397872Y-122600499D01*
X125457483Y-122594091D01*
X125592331Y-122543796D01*
X125707546Y-122457546D01*
X125793796Y-122342331D01*
X125844091Y-122207483D01*
X125850500Y-122147873D01*
X125850499Y-120052128D01*
X125844091Y-119992517D01*
X125825542Y-119942785D01*
X125793797Y-119857671D01*
X125793793Y-119857664D01*
X125707547Y-119742455D01*
X125707544Y-119742452D01*
X125592335Y-119656206D01*
X125592328Y-119656202D01*
X125457482Y-119605908D01*
X125457483Y-119605908D01*
X125397883Y-119599501D01*
X125397881Y-119599500D01*
X125397873Y-119599500D01*
X125397864Y-119599500D01*
X122102129Y-119599500D01*
X122102123Y-119599501D01*
X122042516Y-119605908D01*
X121907671Y-119656202D01*
X121907664Y-119656206D01*
X121792455Y-119742452D01*
X121792452Y-119742455D01*
X121706206Y-119857664D01*
X121706202Y-119857671D01*
X121655908Y-119992517D01*
X121653848Y-120011684D01*
X121649501Y-120052123D01*
X121649500Y-120052135D01*
X112000500Y-120052135D01*
X112000500Y-87599996D01*
X129594435Y-87599996D01*
X129594435Y-87600003D01*
X129614630Y-87779249D01*
X129614631Y-87779254D01*
X129674211Y-87949523D01*
X129710842Y-88007820D01*
X129770184Y-88102262D01*
X129897738Y-88229816D01*
X129927835Y-88248727D01*
X130040435Y-88319479D01*
X130050478Y-88325789D01*
X130205701Y-88380104D01*
X130220745Y-88385368D01*
X130220750Y-88385369D01*
X130399996Y-88405565D01*
X130400000Y-88405565D01*
X130400004Y-88405565D01*
X130579249Y-88385369D01*
X130579252Y-88385368D01*
X130579255Y-88385368D01*
X130749522Y-88325789D01*
X130902262Y-88229816D01*
X131029816Y-88102262D01*
X131125789Y-87949522D01*
X131185368Y-87779255D01*
X131195160Y-87692338D01*
X131222225Y-87627927D01*
X131230694Y-87618547D01*
X136031504Y-82817828D01*
X136031512Y-82817823D01*
X136041714Y-82807620D01*
X136041716Y-82807620D01*
X136101234Y-82748100D01*
X136101236Y-82748100D01*
X136144841Y-82704496D01*
X136147175Y-82702582D01*
X136152125Y-82697302D01*
X136153529Y-82695851D01*
X136154508Y-82694214D01*
X136158613Y-82687573D01*
X136159789Y-82684956D01*
X136232577Y-82558884D01*
X136261064Y-82452568D01*
X136272547Y-82409715D01*
X136273442Y-82406733D01*
X136273500Y-82406344D01*
X136273500Y-82327106D01*
X136273501Y-82248049D01*
X136273500Y-82248045D01*
X136273500Y-72507012D01*
X136293185Y-72439973D01*
X136300555Y-72429697D01*
X136302810Y-72426867D01*
X136302816Y-72426862D01*
X136398789Y-72274122D01*
X136458368Y-72103855D01*
X136478565Y-71924600D01*
X136467748Y-71828598D01*
X136458369Y-71745350D01*
X136458368Y-71745345D01*
X136451148Y-71724711D01*
X136398789Y-71575078D01*
X136302816Y-71422338D01*
X136302814Y-71422336D01*
X136302813Y-71422334D01*
X136300550Y-71419496D01*
X136299659Y-71417315D01*
X136299111Y-71416442D01*
X136299264Y-71416345D01*
X136274144Y-71354809D01*
X136273500Y-71342187D01*
X136273500Y-55212722D01*
X140199500Y-55212722D01*
X140199500Y-55527277D01*
X140234716Y-55839827D01*
X140234718Y-55839843D01*
X140304710Y-56146499D01*
X140304711Y-56146501D01*
X140408598Y-56443395D01*
X140545072Y-56726786D01*
X140545074Y-56726789D01*
X140712423Y-56993123D01*
X140908539Y-57239044D01*
X141130956Y-57461461D01*
X141376877Y-57657577D01*
X141643211Y-57824926D01*
X141926606Y-57961402D01*
X142223500Y-58065289D01*
X142530160Y-58135282D01*
X142842723Y-58170499D01*
X142842724Y-58170500D01*
X142842727Y-58170500D01*
X143157276Y-58170500D01*
X143157276Y-58170499D01*
X143469840Y-58135282D01*
X143776500Y-58065289D01*
X144073394Y-57961402D01*
X144356789Y-57824926D01*
X144623123Y-57657577D01*
X144869044Y-57461461D01*
X145091461Y-57239044D01*
X145287577Y-56993123D01*
X145454926Y-56726789D01*
X145591402Y-56443394D01*
X145695289Y-56146500D01*
X145765282Y-55839840D01*
X145800500Y-55527273D01*
X145800500Y-55212727D01*
X145800499Y-55212722D01*
X159249500Y-55212722D01*
X159249500Y-55527277D01*
X159284716Y-55839827D01*
X159284718Y-55839843D01*
X159354710Y-56146499D01*
X159354711Y-56146501D01*
X159458598Y-56443395D01*
X159595072Y-56726786D01*
X159595074Y-56726789D01*
X159762423Y-56993123D01*
X159958539Y-57239044D01*
X160180956Y-57461461D01*
X160426877Y-57657577D01*
X160693211Y-57824926D01*
X160976606Y-57961402D01*
X161273500Y-58065289D01*
X161580160Y-58135282D01*
X161892723Y-58170499D01*
X161892724Y-58170500D01*
X161892727Y-58170500D01*
X162207276Y-58170500D01*
X162207276Y-58170499D01*
X162519840Y-58135282D01*
X162826500Y-58065289D01*
X163123394Y-57961402D01*
X163406789Y-57824926D01*
X163673123Y-57657577D01*
X163919044Y-57461461D01*
X164141461Y-57239044D01*
X164337577Y-56993123D01*
X164504926Y-56726789D01*
X164641402Y-56443394D01*
X164745289Y-56146500D01*
X164815282Y-55839840D01*
X164850500Y-55527273D01*
X164850500Y-55212727D01*
X164850499Y-55212722D01*
X178299500Y-55212722D01*
X178299500Y-55527277D01*
X178334716Y-55839827D01*
X178334718Y-55839843D01*
X178404710Y-56146499D01*
X178404711Y-56146501D01*
X178508598Y-56443395D01*
X178645072Y-56726786D01*
X178645074Y-56726789D01*
X178812423Y-56993123D01*
X179008539Y-57239044D01*
X179230956Y-57461461D01*
X179476877Y-57657577D01*
X179743211Y-57824926D01*
X180026606Y-57961402D01*
X180323500Y-58065289D01*
X180630160Y-58135282D01*
X180942723Y-58170499D01*
X180942724Y-58170500D01*
X180942727Y-58170500D01*
X181257276Y-58170500D01*
X181257276Y-58170499D01*
X181569840Y-58135282D01*
X181876500Y-58065289D01*
X182173394Y-57961402D01*
X182456789Y-57824926D01*
X182723123Y-57657577D01*
X182969044Y-57461461D01*
X183191461Y-57239044D01*
X183387577Y-56993123D01*
X183554926Y-56726789D01*
X183691402Y-56443394D01*
X183795289Y-56146500D01*
X183865282Y-55839840D01*
X183900500Y-55527273D01*
X183900500Y-55212727D01*
X183865282Y-54900160D01*
X183795289Y-54593500D01*
X183691402Y-54296606D01*
X183554926Y-54013211D01*
X183387577Y-53746877D01*
X183191461Y-53500956D01*
X182969044Y-53278539D01*
X182723123Y-53082423D01*
X182456789Y-52915074D01*
X182456786Y-52915072D01*
X182173395Y-52778598D01*
X181876501Y-52674711D01*
X181876499Y-52674710D01*
X181569843Y-52604718D01*
X181569827Y-52604716D01*
X181257277Y-52569500D01*
X181257273Y-52569500D01*
X180942727Y-52569500D01*
X180942722Y-52569500D01*
X180630172Y-52604716D01*
X180630156Y-52604718D01*
X180323500Y-52674710D01*
X180323498Y-52674711D01*
X180026604Y-52778598D01*
X179743213Y-52915072D01*
X179476878Y-53082422D01*
X179230956Y-53278538D01*
X179008538Y-53500956D01*
X178812422Y-53746878D01*
X178645072Y-54013213D01*
X178508598Y-54296604D01*
X178404711Y-54593498D01*
X178404710Y-54593500D01*
X178334718Y-54900156D01*
X178334716Y-54900172D01*
X178299500Y-55212722D01*
X164850499Y-55212722D01*
X164815282Y-54900160D01*
X164745289Y-54593500D01*
X164641402Y-54296606D01*
X164504926Y-54013211D01*
X164337577Y-53746877D01*
X164141461Y-53500956D01*
X163919044Y-53278539D01*
X163673123Y-53082423D01*
X163406789Y-52915074D01*
X163406786Y-52915072D01*
X163123395Y-52778598D01*
X162826501Y-52674711D01*
X162826499Y-52674710D01*
X162519843Y-52604718D01*
X162519827Y-52604716D01*
X162207277Y-52569500D01*
X162207273Y-52569500D01*
X161892727Y-52569500D01*
X161892722Y-52569500D01*
X161580172Y-52604716D01*
X161580156Y-52604718D01*
X161273500Y-52674710D01*
X161273498Y-52674711D01*
X160976604Y-52778598D01*
X160693213Y-52915072D01*
X160426878Y-53082422D01*
X160180956Y-53278538D01*
X159958538Y-53500956D01*
X159762422Y-53746878D01*
X159595072Y-54013213D01*
X159458598Y-54296604D01*
X159354711Y-54593498D01*
X159354710Y-54593500D01*
X159284718Y-54900156D01*
X159284716Y-54900172D01*
X159249500Y-55212722D01*
X145800499Y-55212722D01*
X145765282Y-54900160D01*
X145695289Y-54593500D01*
X145591402Y-54296606D01*
X145454926Y-54013211D01*
X145287577Y-53746877D01*
X145091461Y-53500956D01*
X144869044Y-53278539D01*
X144623123Y-53082423D01*
X144356789Y-52915074D01*
X144356786Y-52915072D01*
X144073395Y-52778598D01*
X143776501Y-52674711D01*
X143776499Y-52674710D01*
X143469843Y-52604718D01*
X143469827Y-52604716D01*
X143157277Y-52569500D01*
X143157273Y-52569500D01*
X142842727Y-52569500D01*
X142842722Y-52569500D01*
X142530172Y-52604716D01*
X142530156Y-52604718D01*
X142223500Y-52674710D01*
X142223498Y-52674711D01*
X141926604Y-52778598D01*
X141643213Y-52915072D01*
X141376878Y-53082422D01*
X141130956Y-53278538D01*
X140908538Y-53500956D01*
X140712422Y-53746878D01*
X140545072Y-54013213D01*
X140408598Y-54296604D01*
X140304711Y-54593498D01*
X140304710Y-54593500D01*
X140234718Y-54900156D01*
X140234716Y-54900172D01*
X140199500Y-55212722D01*
X136273500Y-55212722D01*
X136273500Y-54402712D01*
X136293185Y-54335673D01*
X136300555Y-54325397D01*
X136302810Y-54322567D01*
X136302816Y-54322562D01*
X136398789Y-54169822D01*
X136458368Y-53999555D01*
X136478565Y-53820300D01*
X136470292Y-53746878D01*
X136458369Y-53641050D01*
X136458368Y-53641045D01*
X136398789Y-53470778D01*
X136302816Y-53318038D01*
X136175262Y-53190484D01*
X136022523Y-53094511D01*
X135852254Y-53034931D01*
X135852249Y-53034930D01*
X135673004Y-53014735D01*
X135672996Y-53014735D01*
X135493750Y-53034930D01*
X135493745Y-53034931D01*
X135323476Y-53094511D01*
X135170737Y-53190484D01*
X135043184Y-53318037D01*
X134947211Y-53470776D01*
X134887631Y-53641045D01*
X134887630Y-53641050D01*
X134867435Y-53820296D01*
X134867435Y-53820303D01*
X134887630Y-53999549D01*
X134887631Y-53999554D01*
X134947211Y-54169823D01*
X135007515Y-54265796D01*
X135026873Y-54296604D01*
X135043185Y-54322563D01*
X135045445Y-54325397D01*
X135046334Y-54327575D01*
X135046889Y-54328458D01*
X135046734Y-54328555D01*
X135071855Y-54390083D01*
X135072500Y-54402712D01*
X135072500Y-71342187D01*
X135052815Y-71409226D01*
X135045450Y-71419496D01*
X135043186Y-71422334D01*
X134947211Y-71575076D01*
X134887631Y-71745345D01*
X134887630Y-71745350D01*
X134867435Y-71924596D01*
X134867435Y-71924603D01*
X134887630Y-72103849D01*
X134887631Y-72103854D01*
X134947211Y-72274123D01*
X135043185Y-72426863D01*
X135045445Y-72429697D01*
X135046334Y-72431875D01*
X135046889Y-72432758D01*
X135046734Y-72432855D01*
X135071855Y-72494383D01*
X135072500Y-72507012D01*
X135072500Y-82026997D01*
X135052815Y-82094036D01*
X135036180Y-82114679D01*
X130381472Y-86769298D01*
X130320149Y-86802782D01*
X130307676Y-86804836D01*
X130220750Y-86814630D01*
X130050478Y-86874210D01*
X129897737Y-86970184D01*
X129770184Y-87097737D01*
X129674211Y-87250476D01*
X129614631Y-87420745D01*
X129614630Y-87420750D01*
X129594435Y-87599996D01*
X112000500Y-87599996D01*
X112000500Y-59680837D01*
X118099500Y-59680837D01*
X118099500Y-60459162D01*
X118135215Y-60684660D01*
X118205770Y-60901803D01*
X118309421Y-61105228D01*
X118443621Y-61289937D01*
X118605063Y-61451379D01*
X118686726Y-61510711D01*
X118789773Y-61585580D01*
X118848827Y-61615669D01*
X118881794Y-61632466D01*
X118932590Y-61680440D01*
X118949500Y-61742951D01*
X118949500Y-77447047D01*
X118929815Y-77514086D01*
X118881796Y-77557531D01*
X118789774Y-77604419D01*
X118605061Y-77738622D01*
X118443622Y-77900061D01*
X118309421Y-78084771D01*
X118205770Y-78288196D01*
X118135215Y-78505339D01*
X118099500Y-78730837D01*
X118099500Y-79509162D01*
X118135215Y-79734660D01*
X118205770Y-79951803D01*
X118309421Y-80155228D01*
X118443621Y-80339937D01*
X118605063Y-80501379D01*
X118789772Y-80635579D01*
X118881793Y-80682466D01*
X118993196Y-80739229D01*
X118993198Y-80739229D01*
X118993201Y-80739231D01*
X119109592Y-80777049D01*
X119210339Y-80809784D01*
X119435838Y-80845500D01*
X119435843Y-80845500D01*
X119664162Y-80845500D01*
X119889660Y-80809784D01*
X119941466Y-80792951D01*
X120106799Y-80739231D01*
X120310228Y-80635579D01*
X120494937Y-80501379D01*
X120656379Y-80339937D01*
X120696904Y-80284160D01*
X124824499Y-80284160D01*
X124860215Y-80509660D01*
X124930770Y-80726803D01*
X125023628Y-80909046D01*
X125034421Y-80930228D01*
X125168621Y-81114937D01*
X125330063Y-81276379D01*
X125514772Y-81410579D01*
X125610884Y-81459550D01*
X125718196Y-81514229D01*
X125718198Y-81514229D01*
X125718201Y-81514231D01*
X125834592Y-81552049D01*
X125935339Y-81584784D01*
X126160838Y-81620500D01*
X126160843Y-81620500D01*
X126939162Y-81620500D01*
X127164660Y-81584784D01*
X127381799Y-81514231D01*
X127585228Y-81410579D01*
X127769937Y-81276379D01*
X127931379Y-81114937D01*
X128065579Y-80930228D01*
X128169231Y-80726799D01*
X128239784Y-80509660D01*
X128261886Y-80370113D01*
X128275500Y-80284160D01*
X128275500Y-80055837D01*
X128239784Y-79830339D01*
X128194920Y-79692263D01*
X128169231Y-79613201D01*
X128169229Y-79613198D01*
X128169229Y-79613196D01*
X128065578Y-79409771D01*
X127931379Y-79225063D01*
X127769937Y-79063621D01*
X127585228Y-78929421D01*
X127381803Y-78825770D01*
X127164660Y-78755215D01*
X126939162Y-78719500D01*
X126939157Y-78719500D01*
X126160843Y-78719500D01*
X126160838Y-78719500D01*
X125935339Y-78755215D01*
X125718196Y-78825770D01*
X125514771Y-78929421D01*
X125330061Y-79063622D01*
X125168622Y-79225061D01*
X125034421Y-79409771D01*
X124930770Y-79613196D01*
X124860215Y-79830339D01*
X124824500Y-80055837D01*
X124824500Y-80284158D01*
X124824499Y-80284160D01*
X120696904Y-80284160D01*
X120790579Y-80155228D01*
X120894231Y-79951799D01*
X120964784Y-79734660D01*
X120981383Y-79629859D01*
X121000500Y-79509162D01*
X121000500Y-78730837D01*
X120964784Y-78505339D01*
X120894229Y-78288196D01*
X120790578Y-78084771D01*
X120656379Y-77900063D01*
X120494937Y-77738621D01*
X120310228Y-77604421D01*
X120310227Y-77604420D01*
X120310225Y-77604419D01*
X120218204Y-77557531D01*
X120167409Y-77509556D01*
X120150500Y-77447047D01*
X120150500Y-74262722D01*
X121149500Y-74262722D01*
X121149500Y-74577277D01*
X121184716Y-74889827D01*
X121184718Y-74889843D01*
X121254710Y-75196499D01*
X121254711Y-75196501D01*
X121358598Y-75493395D01*
X121495072Y-75776786D01*
X121495074Y-75776789D01*
X121662423Y-76043123D01*
X121858539Y-76289044D01*
X122080956Y-76511461D01*
X122326877Y-76707577D01*
X122593211Y-76874926D01*
X122876606Y-77011402D01*
X123173500Y-77115289D01*
X123480160Y-77185282D01*
X123792723Y-77220499D01*
X123792724Y-77220500D01*
X123792727Y-77220500D01*
X124107276Y-77220500D01*
X124107276Y-77220499D01*
X124419840Y-77185282D01*
X124726500Y-77115289D01*
X125023394Y-77011402D01*
X125306789Y-76874926D01*
X125573123Y-76707577D01*
X125819044Y-76511461D01*
X126041461Y-76289044D01*
X126237577Y-76043123D01*
X126404926Y-75776789D01*
X126541402Y-75493394D01*
X126645289Y-75196500D01*
X126715282Y-74889840D01*
X126750500Y-74577273D01*
X126750500Y-74262727D01*
X126715282Y-73950160D01*
X126645289Y-73643500D01*
X126541402Y-73346606D01*
X126404926Y-73063211D01*
X126237577Y-72796877D01*
X126041461Y-72550956D01*
X125819044Y-72328539D01*
X125573123Y-72132423D01*
X125306789Y-71965074D01*
X125306786Y-71965072D01*
X125023395Y-71828598D01*
X124726501Y-71724711D01*
X124726499Y-71724710D01*
X124419843Y-71654718D01*
X124419827Y-71654716D01*
X124107277Y-71619500D01*
X124107273Y-71619500D01*
X123792727Y-71619500D01*
X123792722Y-71619500D01*
X123480172Y-71654716D01*
X123480156Y-71654718D01*
X123173500Y-71724710D01*
X123173498Y-71724711D01*
X122876604Y-71828598D01*
X122593213Y-71965072D01*
X122326878Y-72132422D01*
X122080956Y-72328538D01*
X121858538Y-72550956D01*
X121662422Y-72796878D01*
X121495072Y-73063213D01*
X121358598Y-73346604D01*
X121254711Y-73643498D01*
X121254710Y-73643500D01*
X121184718Y-73950156D01*
X121184716Y-73950172D01*
X121149500Y-74262722D01*
X120150500Y-74262722D01*
X120150500Y-67684108D01*
X121049500Y-67684108D01*
X121049500Y-70815891D01*
X121083608Y-70943187D01*
X121103775Y-70978116D01*
X121149500Y-71057314D01*
X121242686Y-71150500D01*
X121356814Y-71216392D01*
X121484108Y-71250500D01*
X121484110Y-71250500D01*
X125015890Y-71250500D01*
X125015892Y-71250500D01*
X125143186Y-71216392D01*
X125257314Y-71150500D01*
X125350500Y-71057314D01*
X125416392Y-70943186D01*
X125450500Y-70815892D01*
X125450500Y-67684108D01*
X125416392Y-67556814D01*
X125350500Y-67442686D01*
X125257314Y-67349500D01*
X125200250Y-67316554D01*
X125143187Y-67283608D01*
X125079539Y-67266554D01*
X125015892Y-67249500D01*
X121615892Y-67249500D01*
X121484108Y-67249500D01*
X121356812Y-67283608D01*
X121242686Y-67349500D01*
X121242683Y-67349502D01*
X121149502Y-67442683D01*
X121149500Y-67442686D01*
X121083608Y-67556812D01*
X121049500Y-67684108D01*
X120150500Y-67684108D01*
X120150500Y-61742951D01*
X120170185Y-61675912D01*
X120218205Y-61632466D01*
X120310228Y-61585579D01*
X120494937Y-61451379D01*
X120656379Y-61289937D01*
X120790579Y-61105228D01*
X120841221Y-61005837D01*
X124824500Y-61005837D01*
X124824500Y-61234162D01*
X124860215Y-61459660D01*
X124930770Y-61676803D01*
X125025439Y-61862599D01*
X125034421Y-61880228D01*
X125168621Y-62064937D01*
X125330063Y-62226379D01*
X125514772Y-62360579D01*
X125610884Y-62409550D01*
X125718196Y-62464229D01*
X125718198Y-62464229D01*
X125718201Y-62464231D01*
X125834592Y-62502049D01*
X125935339Y-62534784D01*
X126160838Y-62570500D01*
X126160843Y-62570500D01*
X126939162Y-62570500D01*
X127164660Y-62534784D01*
X127381799Y-62464231D01*
X127585228Y-62360579D01*
X127769937Y-62226379D01*
X127931379Y-62064937D01*
X128065579Y-61880228D01*
X128169231Y-61676799D01*
X128239784Y-61459660D01*
X128241097Y-61451373D01*
X128275500Y-61234162D01*
X128275500Y-61005837D01*
X128239784Y-60780339D01*
X128169229Y-60563196D01*
X128065578Y-60359771D01*
X127931379Y-60175063D01*
X127769937Y-60013621D01*
X127585228Y-59879421D01*
X127381803Y-59775770D01*
X127164660Y-59705215D01*
X126939162Y-59669500D01*
X126939157Y-59669500D01*
X126160843Y-59669500D01*
X126160838Y-59669500D01*
X125935339Y-59705215D01*
X125718196Y-59775770D01*
X125514771Y-59879421D01*
X125330061Y-60013622D01*
X125168622Y-60175061D01*
X125034421Y-60359771D01*
X124930770Y-60563196D01*
X124860215Y-60780339D01*
X124824500Y-61005837D01*
X120841221Y-61005837D01*
X120894231Y-60901799D01*
X120964784Y-60684660D01*
X121000500Y-60459162D01*
X121000500Y-59680837D01*
X120964784Y-59455339D01*
X120894229Y-59238196D01*
X120790578Y-59034771D01*
X120656379Y-58850063D01*
X120494937Y-58688621D01*
X120310228Y-58554421D01*
X120106803Y-58450770D01*
X119889660Y-58380215D01*
X119664162Y-58344500D01*
X119664157Y-58344500D01*
X119435843Y-58344500D01*
X119435838Y-58344500D01*
X119210339Y-58380215D01*
X118993196Y-58450770D01*
X118789771Y-58554421D01*
X118605061Y-58688622D01*
X118443622Y-58850061D01*
X118309421Y-59034771D01*
X118205770Y-59238196D01*
X118135215Y-59455339D01*
X118099500Y-59680837D01*
X112000500Y-59680837D01*
X112000500Y-55212722D01*
X121149500Y-55212722D01*
X121149500Y-55527277D01*
X121184716Y-55839827D01*
X121184718Y-55839843D01*
X121254710Y-56146499D01*
X121254711Y-56146501D01*
X121358598Y-56443395D01*
X121495072Y-56726786D01*
X121495074Y-56726789D01*
X121662423Y-56993123D01*
X121858539Y-57239044D01*
X122080956Y-57461461D01*
X122326877Y-57657577D01*
X122593211Y-57824926D01*
X122876606Y-57961402D01*
X123173500Y-58065289D01*
X123480160Y-58135282D01*
X123792723Y-58170499D01*
X123792724Y-58170500D01*
X123792727Y-58170500D01*
X124107276Y-58170500D01*
X124107276Y-58170499D01*
X124419840Y-58135282D01*
X124726500Y-58065289D01*
X125023394Y-57961402D01*
X125306789Y-57824926D01*
X125573123Y-57657577D01*
X125819044Y-57461461D01*
X126041461Y-57239044D01*
X126237577Y-56993123D01*
X126404926Y-56726789D01*
X126541402Y-56443394D01*
X126645289Y-56146500D01*
X126715282Y-55839840D01*
X126750500Y-55527273D01*
X126750500Y-55212727D01*
X126715282Y-54900160D01*
X126645289Y-54593500D01*
X126541402Y-54296606D01*
X126404926Y-54013211D01*
X126237577Y-53746877D01*
X126041461Y-53500956D01*
X125819044Y-53278539D01*
X125573123Y-53082423D01*
X125306789Y-52915074D01*
X125306786Y-52915072D01*
X125023395Y-52778598D01*
X124726501Y-52674711D01*
X124726499Y-52674710D01*
X124419843Y-52604718D01*
X124419827Y-52604716D01*
X124107277Y-52569500D01*
X124107273Y-52569500D01*
X123792727Y-52569500D01*
X123792722Y-52569500D01*
X123480172Y-52604716D01*
X123480156Y-52604718D01*
X123173500Y-52674710D01*
X123173498Y-52674711D01*
X122876604Y-52778598D01*
X122593213Y-52915072D01*
X122326878Y-53082422D01*
X122080956Y-53278538D01*
X121858538Y-53500956D01*
X121662422Y-53746878D01*
X121495072Y-54013213D01*
X121358598Y-54296604D01*
X121254711Y-54593498D01*
X121254710Y-54593500D01*
X121184718Y-54900156D01*
X121184716Y-54900172D01*
X121149500Y-55212722D01*
X112000500Y-55212722D01*
X112000500Y-46878711D01*
X113649500Y-46878711D01*
X113649500Y-47121288D01*
X113681161Y-47361785D01*
X113743947Y-47596104D01*
X113836773Y-47820205D01*
X113836776Y-47820212D01*
X113958064Y-48030289D01*
X113958066Y-48030292D01*
X113958067Y-48030293D01*
X114105733Y-48222736D01*
X114105739Y-48222743D01*
X114277256Y-48394260D01*
X114277262Y-48394265D01*
X114469711Y-48541936D01*
X114679788Y-48663224D01*
X114903900Y-48756054D01*
X115138211Y-48818838D01*
X115318586Y-48842584D01*
X115378711Y-48850500D01*
X115378712Y-48850500D01*
X115621289Y-48850500D01*
X115669388Y-48844167D01*
X115861789Y-48818838D01*
X116096100Y-48756054D01*
X116320212Y-48663224D01*
X116370642Y-48634108D01*
X121049500Y-48634108D01*
X121049500Y-51765891D01*
X121083608Y-51893187D01*
X121116554Y-51950250D01*
X121149500Y-52007314D01*
X121242686Y-52100500D01*
X121356814Y-52166392D01*
X121484108Y-52200500D01*
X121484110Y-52200500D01*
X125015890Y-52200500D01*
X125015892Y-52200500D01*
X125143186Y-52166392D01*
X125257314Y-52100500D01*
X125350500Y-52007314D01*
X125416392Y-51893186D01*
X125450500Y-51765892D01*
X125450500Y-48634108D01*
X140099500Y-48634108D01*
X140099500Y-51765891D01*
X140133608Y-51893187D01*
X140166554Y-51950250D01*
X140199500Y-52007314D01*
X140292686Y-52100500D01*
X140406814Y-52166392D01*
X140534108Y-52200500D01*
X140534110Y-52200500D01*
X144065890Y-52200500D01*
X144065892Y-52200500D01*
X144193186Y-52166392D01*
X144307314Y-52100500D01*
X144400500Y-52007314D01*
X144466392Y-51893186D01*
X144500500Y-51765892D01*
X144500500Y-48634108D01*
X159149500Y-48634108D01*
X159149500Y-51765891D01*
X159183608Y-51893187D01*
X159216554Y-51950250D01*
X159249500Y-52007314D01*
X159342686Y-52100500D01*
X159456814Y-52166392D01*
X159584108Y-52200500D01*
X159584110Y-52200500D01*
X163115890Y-52200500D01*
X163115892Y-52200500D01*
X163243186Y-52166392D01*
X163357314Y-52100500D01*
X163450500Y-52007314D01*
X163516392Y-51893186D01*
X163550500Y-51765892D01*
X163550500Y-48634108D01*
X178199500Y-48634108D01*
X178199500Y-51765891D01*
X178233608Y-51893187D01*
X178266554Y-51950250D01*
X178299500Y-52007314D01*
X178392686Y-52100500D01*
X178506814Y-52166392D01*
X178634108Y-52200500D01*
X178634110Y-52200500D01*
X182165890Y-52200500D01*
X182165892Y-52200500D01*
X182293186Y-52166392D01*
X182407314Y-52100500D01*
X182500500Y-52007314D01*
X182566392Y-51893186D01*
X182600500Y-51765892D01*
X182600500Y-48634108D01*
X182566392Y-48506814D01*
X182500500Y-48392686D01*
X182407314Y-48299500D01*
X182350250Y-48266554D01*
X182293187Y-48233608D01*
X182229539Y-48216554D01*
X182165892Y-48199500D01*
X178765892Y-48199500D01*
X178634108Y-48199500D01*
X178506812Y-48233608D01*
X178392686Y-48299500D01*
X178392683Y-48299502D01*
X178299502Y-48392683D01*
X178299500Y-48392686D01*
X178233608Y-48506812D01*
X178199500Y-48634108D01*
X163550500Y-48634108D01*
X163516392Y-48506814D01*
X163450500Y-48392686D01*
X163357314Y-48299500D01*
X163300250Y-48266554D01*
X163243187Y-48233608D01*
X163179539Y-48216554D01*
X163115892Y-48199500D01*
X159715892Y-48199500D01*
X159584108Y-48199500D01*
X159456812Y-48233608D01*
X159342686Y-48299500D01*
X159342683Y-48299502D01*
X159249502Y-48392683D01*
X159249500Y-48392686D01*
X159183608Y-48506812D01*
X159149500Y-48634108D01*
X144500500Y-48634108D01*
X144466392Y-48506814D01*
X144400500Y-48392686D01*
X144307314Y-48299500D01*
X144250250Y-48266554D01*
X144193187Y-48233608D01*
X144129539Y-48216554D01*
X144065892Y-48199500D01*
X140665892Y-48199500D01*
X140534108Y-48199500D01*
X140406812Y-48233608D01*
X140292686Y-48299500D01*
X140292683Y-48299502D01*
X140199502Y-48392683D01*
X140199500Y-48392686D01*
X140133608Y-48506812D01*
X140099500Y-48634108D01*
X125450500Y-48634108D01*
X125416392Y-48506814D01*
X125350500Y-48392686D01*
X125257314Y-48299500D01*
X125200250Y-48266554D01*
X125143187Y-48233608D01*
X125079539Y-48216554D01*
X125015892Y-48199500D01*
X121615892Y-48199500D01*
X121484108Y-48199500D01*
X121356812Y-48233608D01*
X121242686Y-48299500D01*
X121242683Y-48299502D01*
X121149502Y-48392683D01*
X121149500Y-48392686D01*
X121083608Y-48506812D01*
X121049500Y-48634108D01*
X116370642Y-48634108D01*
X116530289Y-48541936D01*
X116722738Y-48394265D01*
X116894265Y-48222738D01*
X117041936Y-48030289D01*
X117163224Y-47820212D01*
X117256054Y-47596100D01*
X117318838Y-47361789D01*
X117350500Y-47121288D01*
X117350500Y-46878712D01*
X117350500Y-46878711D01*
X187649500Y-46878711D01*
X187649500Y-47121288D01*
X187681161Y-47361785D01*
X187743947Y-47596104D01*
X187836773Y-47820205D01*
X187836776Y-47820212D01*
X187958064Y-48030289D01*
X187958066Y-48030292D01*
X187958067Y-48030293D01*
X188105733Y-48222736D01*
X188105739Y-48222743D01*
X188277256Y-48394260D01*
X188277262Y-48394265D01*
X188469711Y-48541936D01*
X188679788Y-48663224D01*
X188903900Y-48756054D01*
X189138211Y-48818838D01*
X189318586Y-48842584D01*
X189378711Y-48850500D01*
X189378712Y-48850500D01*
X189621289Y-48850500D01*
X189669388Y-48844167D01*
X189861789Y-48818838D01*
X190096100Y-48756054D01*
X190320212Y-48663224D01*
X190530289Y-48541936D01*
X190722738Y-48394265D01*
X190894265Y-48222738D01*
X191041936Y-48030289D01*
X191163224Y-47820212D01*
X191256054Y-47596100D01*
X191318838Y-47361789D01*
X191350500Y-47121288D01*
X191350500Y-46878712D01*
X191318838Y-46638211D01*
X191256054Y-46403900D01*
X191163224Y-46179788D01*
X191041936Y-45969711D01*
X190894265Y-45777262D01*
X190894260Y-45777256D01*
X190722743Y-45605739D01*
X190722736Y-45605733D01*
X190530293Y-45458067D01*
X190530292Y-45458066D01*
X190530289Y-45458064D01*
X190320212Y-45336776D01*
X190320205Y-45336773D01*
X190096104Y-45243947D01*
X189861785Y-45181161D01*
X189621289Y-45149500D01*
X189621288Y-45149500D01*
X189378712Y-45149500D01*
X189378711Y-45149500D01*
X189138214Y-45181161D01*
X188903895Y-45243947D01*
X188679794Y-45336773D01*
X188679785Y-45336777D01*
X188469706Y-45458067D01*
X188277263Y-45605733D01*
X188277256Y-45605739D01*
X188105739Y-45777256D01*
X188105733Y-45777263D01*
X187958067Y-45969706D01*
X187836777Y-46179785D01*
X187836773Y-46179794D01*
X187743947Y-46403895D01*
X187681161Y-46638214D01*
X187649500Y-46878711D01*
X117350500Y-46878711D01*
X117318838Y-46638211D01*
X117256054Y-46403900D01*
X117163224Y-46179788D01*
X117041936Y-45969711D01*
X116894265Y-45777262D01*
X116894260Y-45777256D01*
X116722743Y-45605739D01*
X116722736Y-45605733D01*
X116530293Y-45458067D01*
X116530292Y-45458066D01*
X116530289Y-45458064D01*
X116320212Y-45336776D01*
X116320205Y-45336773D01*
X116096104Y-45243947D01*
X115861785Y-45181161D01*
X115621289Y-45149500D01*
X115621288Y-45149500D01*
X115378712Y-45149500D01*
X115378711Y-45149500D01*
X115138214Y-45181161D01*
X114903895Y-45243947D01*
X114679794Y-45336773D01*
X114679785Y-45336777D01*
X114469706Y-45458067D01*
X114277263Y-45605733D01*
X114277256Y-45605739D01*
X114105739Y-45777256D01*
X114105733Y-45777263D01*
X113958067Y-45969706D01*
X113836777Y-46179785D01*
X113836773Y-46179794D01*
X113743947Y-46403895D01*
X113681161Y-46638214D01*
X113649500Y-46878711D01*
X112000500Y-46878711D01*
X112000500Y-43624500D01*
X112020185Y-43557461D01*
X112072989Y-43511706D01*
X112124500Y-43500500D01*
X192875500Y-43500500D01*
X192942539Y-43520185D01*
G37*
%TD.AperFunction*%
%TA.AperFunction,Conductor*%
G36*
X131855702Y-92025383D02*
G01*
X131862180Y-92031415D01*
X132967233Y-93136468D01*
X133000718Y-93197791D01*
X132999327Y-93256241D01*
X132964939Y-93384583D01*
X132964936Y-93384596D01*
X132944341Y-93619999D01*
X132944341Y-93620000D01*
X132964936Y-93855403D01*
X132964938Y-93855413D01*
X133026094Y-94083655D01*
X133026096Y-94083659D01*
X133026097Y-94083663D01*
X133083005Y-94205703D01*
X133095778Y-94233094D01*
X133106270Y-94302172D01*
X133077750Y-94365956D01*
X133019274Y-94404195D01*
X132983396Y-94409499D01*
X132828943Y-94409499D01*
X132752579Y-94429961D01*
X132676214Y-94450423D01*
X132676209Y-94450426D01*
X132539290Y-94529475D01*
X132539282Y-94529481D01*
X132352465Y-94716298D01*
X132291142Y-94749783D01*
X132278668Y-94751837D01*
X132191750Y-94761630D01*
X132021478Y-94821210D01*
X131868737Y-94917184D01*
X131741184Y-95044737D01*
X131645211Y-95197476D01*
X131585631Y-95367745D01*
X131585630Y-95367750D01*
X131565435Y-95546996D01*
X131565435Y-95547003D01*
X131585630Y-95726249D01*
X131585631Y-95726254D01*
X131645211Y-95896523D01*
X131729521Y-96030701D01*
X131741184Y-96049262D01*
X131868738Y-96176816D01*
X132021478Y-96272789D01*
X132172049Y-96325476D01*
X132191745Y-96332368D01*
X132191750Y-96332369D01*
X132370996Y-96352565D01*
X132371000Y-96352565D01*
X132371004Y-96352565D01*
X132550249Y-96332369D01*
X132550252Y-96332368D01*
X132550255Y-96332368D01*
X132720522Y-96272789D01*
X132770216Y-96241563D01*
X132837452Y-96222563D01*
X132904288Y-96242930D01*
X132949502Y-96296197D01*
X132959717Y-96335748D01*
X132964936Y-96395404D01*
X132964938Y-96395413D01*
X133026094Y-96623655D01*
X133026096Y-96623659D01*
X133026097Y-96623663D01*
X133125850Y-96837584D01*
X133125965Y-96837830D01*
X133125967Y-96837834D01*
X133178659Y-96913085D01*
X133261501Y-97031396D01*
X133261506Y-97031402D01*
X133383430Y-97153326D01*
X133416915Y-97214649D01*
X133411931Y-97284341D01*
X133370059Y-97340274D01*
X133339083Y-97357189D01*
X133207669Y-97406203D01*
X133207664Y-97406206D01*
X133092455Y-97492452D01*
X133092452Y-97492455D01*
X133006206Y-97607664D01*
X133006202Y-97607671D01*
X132955908Y-97742517D01*
X132949501Y-97802116D01*
X132949501Y-97802123D01*
X132949500Y-97802135D01*
X132949500Y-99597870D01*
X132949501Y-99597876D01*
X132955908Y-99657483D01*
X133006202Y-99792328D01*
X133006206Y-99792335D01*
X133092452Y-99907544D01*
X133092455Y-99907547D01*
X133207664Y-99993793D01*
X133207671Y-99993797D01*
X133342517Y-100044091D01*
X133342516Y-100044091D01*
X133349444Y-100044835D01*
X133402127Y-100050500D01*
X135197872Y-100050499D01*
X135257483Y-100044091D01*
X135392331Y-99993796D01*
X135507546Y-99907546D01*
X135593796Y-99792331D01*
X135644091Y-99657483D01*
X135650500Y-99597873D01*
X135650499Y-97802128D01*
X135644091Y-97742517D01*
X135593796Y-97607669D01*
X135593795Y-97607668D01*
X135593793Y-97607664D01*
X135507547Y-97492455D01*
X135507544Y-97492452D01*
X135392335Y-97406206D01*
X135392328Y-97406202D01*
X135260917Y-97357189D01*
X135204983Y-97315318D01*
X135180566Y-97249853D01*
X135195418Y-97181580D01*
X135216563Y-97153332D01*
X135338495Y-97031401D01*
X135474035Y-96837830D01*
X135573903Y-96623663D01*
X135635063Y-96395408D01*
X135655659Y-96160000D01*
X135635063Y-95924592D01*
X135592728Y-95766593D01*
X135594391Y-95696743D01*
X135633554Y-95638881D01*
X135697782Y-95611377D01*
X135712503Y-95610500D01*
X136103331Y-95610500D01*
X136103347Y-95610501D01*
X136110943Y-95610501D01*
X136269054Y-95610501D01*
X136269057Y-95610501D01*
X136421785Y-95569577D01*
X136471904Y-95540639D01*
X136558716Y-95490520D01*
X136670520Y-95378716D01*
X136670521Y-95378714D01*
X137080520Y-94968716D01*
X137159577Y-94831784D01*
X137200501Y-94679057D01*
X137200501Y-94520942D01*
X137200501Y-94513347D01*
X137200500Y-94513329D01*
X137200500Y-93491597D01*
X137220185Y-93424558D01*
X137236819Y-93403916D01*
X137707819Y-92932916D01*
X137769142Y-92899431D01*
X137838834Y-92904415D01*
X137894767Y-92946287D01*
X137919184Y-93011751D01*
X137919500Y-93020597D01*
X137919500Y-99915587D01*
X137899815Y-99982626D01*
X137892450Y-99992896D01*
X137890186Y-99995734D01*
X137818432Y-100109930D01*
X137766097Y-100156221D01*
X137697043Y-100166869D01*
X137672483Y-100161000D01*
X137534254Y-100112631D01*
X137534249Y-100112630D01*
X137355004Y-100092435D01*
X137354996Y-100092435D01*
X137175750Y-100112630D01*
X137175745Y-100112631D01*
X137005476Y-100172211D01*
X136852737Y-100268184D01*
X136725184Y-100395737D01*
X136629211Y-100548476D01*
X136569631Y-100718745D01*
X136569630Y-100718750D01*
X136549435Y-100897996D01*
X136549435Y-100898003D01*
X136569630Y-101077249D01*
X136569633Y-101077262D01*
X136627080Y-101241433D01*
X136629211Y-101247522D01*
X136630491Y-101249559D01*
X136630936Y-101251105D01*
X136632234Y-101253799D01*
X136631776Y-101254019D01*
X136649500Y-101315535D01*
X136649500Y-104116936D01*
X136629815Y-104183975D01*
X136577011Y-104229730D01*
X136507853Y-104239674D01*
X136484547Y-104233978D01*
X136429260Y-104214633D01*
X136429249Y-104214630D01*
X136250004Y-104194435D01*
X136249996Y-104194435D01*
X136070750Y-104214630D01*
X136070745Y-104214631D01*
X135900476Y-104274211D01*
X135747736Y-104370185D01*
X135744903Y-104372445D01*
X135742724Y-104373334D01*
X135741842Y-104373889D01*
X135741744Y-104373734D01*
X135680217Y-104398855D01*
X135667588Y-104399500D01*
X123300097Y-104399500D01*
X123233058Y-104379815D01*
X123212416Y-104363181D01*
X118597079Y-99747844D01*
X120000000Y-99747844D01*
X120006401Y-99807372D01*
X120006403Y-99807379D01*
X120056645Y-99942086D01*
X120056649Y-99942093D01*
X120142809Y-100057187D01*
X120142812Y-100057190D01*
X120257906Y-100143350D01*
X120257913Y-100143354D01*
X120392620Y-100193596D01*
X120392627Y-100193598D01*
X120452155Y-100199999D01*
X120452172Y-100200000D01*
X121050000Y-100200000D01*
X121050000Y-99525000D01*
X120000000Y-99525000D01*
X120000000Y-99747844D01*
X118597079Y-99747844D01*
X114386819Y-95537584D01*
X114353334Y-95476261D01*
X114350500Y-95449903D01*
X114350500Y-93524000D01*
X114370185Y-93456961D01*
X114422989Y-93411206D01*
X114474500Y-93400000D01*
X115050000Y-93400000D01*
X115050000Y-92599000D01*
X115069685Y-92531961D01*
X115122489Y-92486206D01*
X115174000Y-92475000D01*
X115426000Y-92475000D01*
X115493039Y-92494685D01*
X115538794Y-92547489D01*
X115550000Y-92599000D01*
X115550000Y-93400000D01*
X116147828Y-93400000D01*
X116147844Y-93399999D01*
X116207372Y-93393598D01*
X116207379Y-93393596D01*
X116342086Y-93343354D01*
X116342093Y-93343350D01*
X116457187Y-93257190D01*
X116457190Y-93257187D01*
X116543350Y-93142093D01*
X116543351Y-93142090D01*
X116543699Y-93141160D01*
X116544295Y-93140363D01*
X116547604Y-93134304D01*
X116548474Y-93134779D01*
X116585564Y-93085222D01*
X116651026Y-93060799D01*
X116719301Y-93075644D01*
X116747566Y-93096801D01*
X118363181Y-94712416D01*
X118396666Y-94773739D01*
X118399500Y-94800097D01*
X118399500Y-96963330D01*
X118399499Y-96963348D01*
X118399499Y-97129054D01*
X118399498Y-97129054D01*
X118399499Y-97129057D01*
X118440423Y-97281785D01*
X118440424Y-97281787D01*
X118440423Y-97281787D01*
X118447023Y-97293217D01*
X118447024Y-97293218D01*
X118519477Y-97418712D01*
X118519481Y-97418717D01*
X118638349Y-97537585D01*
X118638355Y-97537590D01*
X119715139Y-98614374D01*
X119715149Y-98614385D01*
X119719479Y-98618715D01*
X119719480Y-98618716D01*
X119831284Y-98730520D01*
X119831286Y-98730521D01*
X119831290Y-98730524D01*
X119891812Y-98765466D01*
X119891815Y-98765467D01*
X119891820Y-98765470D01*
X119938002Y-98792133D01*
X119986216Y-98842700D01*
X120000000Y-98899519D01*
X120000000Y-99025000D01*
X121176000Y-99025000D01*
X121243039Y-99044685D01*
X121288794Y-99097489D01*
X121300000Y-99149000D01*
X121300000Y-99275000D01*
X121426000Y-99275000D01*
X121493039Y-99294685D01*
X121538794Y-99347489D01*
X121550000Y-99399000D01*
X121550000Y-100200000D01*
X122147828Y-100200000D01*
X122147844Y-100199999D01*
X122207372Y-100193598D01*
X122207379Y-100193596D01*
X122342086Y-100143354D01*
X122342093Y-100143350D01*
X122457187Y-100057190D01*
X122457190Y-100057187D01*
X122543350Y-99942093D01*
X122543351Y-99942090D01*
X122543699Y-99941160D01*
X122544295Y-99940363D01*
X122547604Y-99934304D01*
X122548474Y-99934779D01*
X122585564Y-99885222D01*
X122651026Y-99860799D01*
X122719301Y-99875644D01*
X122747564Y-99896799D01*
X123790284Y-100939520D01*
X123790286Y-100939521D01*
X123790290Y-100939524D01*
X123887657Y-100995738D01*
X123927216Y-101018577D01*
X124079943Y-101059501D01*
X124079945Y-101059501D01*
X124245654Y-101059501D01*
X124245670Y-101059500D01*
X126914780Y-101059500D01*
X126915006Y-101059514D01*
X126923037Y-101059512D01*
X126923042Y-101059514D01*
X127005027Y-101059500D01*
X127081057Y-101059500D01*
X127081058Y-101059499D01*
X127081070Y-101059498D01*
X127081146Y-101059487D01*
X127081156Y-101059487D01*
X127155965Y-101039428D01*
X127155985Y-101039428D01*
X127155984Y-101039423D01*
X127233697Y-101018600D01*
X127233828Y-101018566D01*
X127233875Y-101018538D01*
X127233877Y-101018538D01*
X127298589Y-100981161D01*
X127298598Y-100981157D01*
X127315219Y-100971560D01*
X127370716Y-100939520D01*
X127370719Y-100939516D01*
X127370743Y-100939503D01*
X127370760Y-100939490D01*
X127370788Y-100939461D01*
X127370795Y-100939458D01*
X127422325Y-100887909D01*
X127422339Y-100887897D01*
X127453788Y-100856447D01*
X127482520Y-100827716D01*
X127482521Y-100827713D01*
X127488212Y-100822023D01*
X127488359Y-100821854D01*
X129847971Y-98461464D01*
X129847973Y-98461466D01*
X129847983Y-98461451D01*
X129905520Y-98403916D01*
X129905522Y-98403911D01*
X129905552Y-98403882D01*
X129905562Y-98403868D01*
X129905580Y-98403837D01*
X129932598Y-98357023D01*
X129944127Y-98337047D01*
X129944130Y-98337039D01*
X129984577Y-98266984D01*
X129984578Y-98266976D01*
X129984610Y-98266898D01*
X129984615Y-98266892D01*
X130004923Y-98191048D01*
X130004932Y-98191034D01*
X130004928Y-98191033D01*
X130010071Y-98171837D01*
X130025500Y-98114257D01*
X130025500Y-98114251D01*
X130025513Y-98114158D01*
X130025500Y-98035101D01*
X130025500Y-93700096D01*
X130045185Y-93633057D01*
X130061815Y-93612419D01*
X130237416Y-93436817D01*
X130298739Y-93403333D01*
X130325097Y-93400499D01*
X131197871Y-93400499D01*
X131197872Y-93400499D01*
X131257483Y-93394091D01*
X131392331Y-93343796D01*
X131507546Y-93257546D01*
X131593796Y-93142331D01*
X131644091Y-93007483D01*
X131650500Y-92947873D01*
X131650499Y-92119095D01*
X131670183Y-92052057D01*
X131722987Y-92006302D01*
X131792146Y-91996358D01*
X131855702Y-92025383D01*
G37*
%TD.AperFunction*%
%TA.AperFunction,Conductor*%
G36*
X125530491Y-92221340D02*
G01*
X125536186Y-92225000D01*
X126726000Y-92225000D01*
X126793039Y-92244685D01*
X126838794Y-92297489D01*
X126850000Y-92349000D01*
X126850000Y-92475000D01*
X126976000Y-92475000D01*
X127043039Y-92494685D01*
X127088794Y-92547489D01*
X127100000Y-92599000D01*
X127100000Y-93400000D01*
X127697828Y-93400000D01*
X127697844Y-93399999D01*
X127757372Y-93393598D01*
X127757379Y-93393596D01*
X127892086Y-93343354D01*
X127892089Y-93343352D01*
X128001188Y-93261680D01*
X128066652Y-93237262D01*
X128134925Y-93252113D01*
X128184331Y-93301517D01*
X128199500Y-93360946D01*
X128199500Y-97511603D01*
X128179815Y-97578642D01*
X128163181Y-97599284D01*
X127068531Y-98693934D01*
X127007208Y-98727419D01*
X126937516Y-98722435D01*
X126893169Y-98693934D01*
X126136818Y-97937583D01*
X126103333Y-97876260D01*
X126100499Y-97849902D01*
X126100499Y-97052129D01*
X126100498Y-97052123D01*
X126100497Y-97052116D01*
X126094091Y-96992517D01*
X126093495Y-96990920D01*
X126043797Y-96857671D01*
X126043793Y-96857664D01*
X125957547Y-96742455D01*
X125957544Y-96742452D01*
X125842335Y-96656206D01*
X125842328Y-96656202D01*
X125707482Y-96605908D01*
X125707483Y-96605908D01*
X125647883Y-96599501D01*
X125647881Y-96599500D01*
X125647873Y-96599500D01*
X125647865Y-96599500D01*
X124357500Y-96599500D01*
X124290461Y-96579815D01*
X124244706Y-96527011D01*
X124233500Y-96475500D01*
X124233500Y-93467280D01*
X124253185Y-93400241D01*
X124269810Y-93379607D01*
X124701537Y-92947844D01*
X125550000Y-92947844D01*
X125556401Y-93007372D01*
X125556403Y-93007379D01*
X125606645Y-93142086D01*
X125606649Y-93142093D01*
X125692809Y-93257187D01*
X125692812Y-93257190D01*
X125807906Y-93343350D01*
X125807913Y-93343354D01*
X125942620Y-93393596D01*
X125942627Y-93393598D01*
X126002155Y-93399999D01*
X126002172Y-93400000D01*
X126600000Y-93400000D01*
X126600000Y-92725000D01*
X125550000Y-92725000D01*
X125550000Y-92947844D01*
X124701537Y-92947844D01*
X125399480Y-92249844D01*
X125460799Y-92216359D01*
X125530491Y-92221340D01*
G37*
%TD.AperFunction*%
%TD*%
M02*
