%TF.GenerationSoftware,KiCad,Pcbnew,8.0.7*%
%TF.CreationDate,2025-02-09T11:28:35-05:00*%
%TF.ProjectId,makropad,6d616b72-6f70-4616-942e-6b696361645f,rev?*%
%TF.SameCoordinates,Original*%
%TF.FileFunction,Legend,Top*%
%TF.FilePolarity,Positive*%
%FSLAX46Y46*%
G04 Gerber Fmt 4.6, Leading zero omitted, Abs format (unit mm)*
G04 Created by KiCad (PCBNEW 8.0.7) date 2025-02-09 11:28:35*
%MOMM*%
%LPD*%
G01*
G04 APERTURE LIST*
%ADD10C,0.150000*%
%ADD11C,0.120000*%
%ADD12C,0.040000*%
%ADD13R,1.500000X1.000000*%
%ADD14C,1.701800*%
%ADD15C,3.987800*%
%ADD16R,1.700000X1.700000*%
%ADD17O,1.700000X1.700000*%
%ADD18R,2.000000X2.000000*%
%ADD19C,2.000000*%
%ADD20R,3.200000X2.000000*%
%ADD21R,1.700000X3.500000*%
%ADD22O,1.700000X3.600000*%
%ADD23O,1.700000X3.700000*%
G04 APERTURE END LIST*
D10*
X121835714Y-98854819D02*
X121835714Y-97854819D01*
X121835714Y-97854819D02*
X122073809Y-97854819D01*
X122073809Y-97854819D02*
X122216666Y-97902438D01*
X122216666Y-97902438D02*
X122311904Y-97997676D01*
X122311904Y-97997676D02*
X122359523Y-98092914D01*
X122359523Y-98092914D02*
X122407142Y-98283390D01*
X122407142Y-98283390D02*
X122407142Y-98426247D01*
X122407142Y-98426247D02*
X122359523Y-98616723D01*
X122359523Y-98616723D02*
X122311904Y-98711961D01*
X122311904Y-98711961D02*
X122216666Y-98807200D01*
X122216666Y-98807200D02*
X122073809Y-98854819D01*
X122073809Y-98854819D02*
X121835714Y-98854819D01*
X122788095Y-97950057D02*
X122835714Y-97902438D01*
X122835714Y-97902438D02*
X122930952Y-97854819D01*
X122930952Y-97854819D02*
X123169047Y-97854819D01*
X123169047Y-97854819D02*
X123264285Y-97902438D01*
X123264285Y-97902438D02*
X123311904Y-97950057D01*
X123311904Y-97950057D02*
X123359523Y-98045295D01*
X123359523Y-98045295D02*
X123359523Y-98140533D01*
X123359523Y-98140533D02*
X123311904Y-98283390D01*
X123311904Y-98283390D02*
X122740476Y-98854819D01*
X122740476Y-98854819D02*
X123359523Y-98854819D01*
X124264285Y-97854819D02*
X123788095Y-97854819D01*
X123788095Y-97854819D02*
X123740476Y-98331009D01*
X123740476Y-98331009D02*
X123788095Y-98283390D01*
X123788095Y-98283390D02*
X123883333Y-98235771D01*
X123883333Y-98235771D02*
X124121428Y-98235771D01*
X124121428Y-98235771D02*
X124216666Y-98283390D01*
X124216666Y-98283390D02*
X124264285Y-98331009D01*
X124264285Y-98331009D02*
X124311904Y-98426247D01*
X124311904Y-98426247D02*
X124311904Y-98664342D01*
X124311904Y-98664342D02*
X124264285Y-98759580D01*
X124264285Y-98759580D02*
X124216666Y-98807200D01*
X124216666Y-98807200D02*
X124121428Y-98854819D01*
X124121428Y-98854819D02*
X123883333Y-98854819D01*
X123883333Y-98854819D02*
X123788095Y-98807200D01*
X123788095Y-98807200D02*
X123740476Y-98759580D01*
X181235714Y-98854819D02*
X181235714Y-97854819D01*
X181235714Y-97854819D02*
X181473809Y-97854819D01*
X181473809Y-97854819D02*
X181616666Y-97902438D01*
X181616666Y-97902438D02*
X181711904Y-97997676D01*
X181711904Y-97997676D02*
X181759523Y-98092914D01*
X181759523Y-98092914D02*
X181807142Y-98283390D01*
X181807142Y-98283390D02*
X181807142Y-98426247D01*
X181807142Y-98426247D02*
X181759523Y-98616723D01*
X181759523Y-98616723D02*
X181711904Y-98711961D01*
X181711904Y-98711961D02*
X181616666Y-98807200D01*
X181616666Y-98807200D02*
X181473809Y-98854819D01*
X181473809Y-98854819D02*
X181235714Y-98854819D01*
X182188095Y-97950057D02*
X182235714Y-97902438D01*
X182235714Y-97902438D02*
X182330952Y-97854819D01*
X182330952Y-97854819D02*
X182569047Y-97854819D01*
X182569047Y-97854819D02*
X182664285Y-97902438D01*
X182664285Y-97902438D02*
X182711904Y-97950057D01*
X182711904Y-97950057D02*
X182759523Y-98045295D01*
X182759523Y-98045295D02*
X182759523Y-98140533D01*
X182759523Y-98140533D02*
X182711904Y-98283390D01*
X182711904Y-98283390D02*
X182140476Y-98854819D01*
X182140476Y-98854819D02*
X182759523Y-98854819D01*
X183330952Y-98283390D02*
X183235714Y-98235771D01*
X183235714Y-98235771D02*
X183188095Y-98188152D01*
X183188095Y-98188152D02*
X183140476Y-98092914D01*
X183140476Y-98092914D02*
X183140476Y-98045295D01*
X183140476Y-98045295D02*
X183188095Y-97950057D01*
X183188095Y-97950057D02*
X183235714Y-97902438D01*
X183235714Y-97902438D02*
X183330952Y-97854819D01*
X183330952Y-97854819D02*
X183521428Y-97854819D01*
X183521428Y-97854819D02*
X183616666Y-97902438D01*
X183616666Y-97902438D02*
X183664285Y-97950057D01*
X183664285Y-97950057D02*
X183711904Y-98045295D01*
X183711904Y-98045295D02*
X183711904Y-98092914D01*
X183711904Y-98092914D02*
X183664285Y-98188152D01*
X183664285Y-98188152D02*
X183616666Y-98235771D01*
X183616666Y-98235771D02*
X183521428Y-98283390D01*
X183521428Y-98283390D02*
X183330952Y-98283390D01*
X183330952Y-98283390D02*
X183235714Y-98331009D01*
X183235714Y-98331009D02*
X183188095Y-98378628D01*
X183188095Y-98378628D02*
X183140476Y-98473866D01*
X183140476Y-98473866D02*
X183140476Y-98664342D01*
X183140476Y-98664342D02*
X183188095Y-98759580D01*
X183188095Y-98759580D02*
X183235714Y-98807200D01*
X183235714Y-98807200D02*
X183330952Y-98854819D01*
X183330952Y-98854819D02*
X183521428Y-98854819D01*
X183521428Y-98854819D02*
X183616666Y-98807200D01*
X183616666Y-98807200D02*
X183664285Y-98759580D01*
X183664285Y-98759580D02*
X183711904Y-98664342D01*
X183711904Y-98664342D02*
X183711904Y-98473866D01*
X183711904Y-98473866D02*
X183664285Y-98378628D01*
X183664285Y-98378628D02*
X183616666Y-98331009D01*
X183616666Y-98331009D02*
X183521428Y-98283390D01*
X135889164Y-97159999D02*
X136639164Y-96909999D01*
X136639164Y-96909999D02*
X135889164Y-96659999D01*
X136567735Y-95981428D02*
X136603450Y-96017142D01*
X136603450Y-96017142D02*
X136639164Y-96124285D01*
X136639164Y-96124285D02*
X136639164Y-96195713D01*
X136639164Y-96195713D02*
X136603450Y-96302856D01*
X136603450Y-96302856D02*
X136532021Y-96374285D01*
X136532021Y-96374285D02*
X136460592Y-96409999D01*
X136460592Y-96409999D02*
X136317735Y-96445713D01*
X136317735Y-96445713D02*
X136210592Y-96445713D01*
X136210592Y-96445713D02*
X136067735Y-96409999D01*
X136067735Y-96409999D02*
X135996307Y-96374285D01*
X135996307Y-96374285D02*
X135924878Y-96302856D01*
X135924878Y-96302856D02*
X135889164Y-96195713D01*
X135889164Y-96195713D02*
X135889164Y-96124285D01*
X135889164Y-96124285D02*
X135924878Y-96017142D01*
X135924878Y-96017142D02*
X135960592Y-95981428D01*
X136567735Y-95231428D02*
X136603450Y-95267142D01*
X136603450Y-95267142D02*
X136639164Y-95374285D01*
X136639164Y-95374285D02*
X136639164Y-95445713D01*
X136639164Y-95445713D02*
X136603450Y-95552856D01*
X136603450Y-95552856D02*
X136532021Y-95624285D01*
X136532021Y-95624285D02*
X136460592Y-95659999D01*
X136460592Y-95659999D02*
X136317735Y-95695713D01*
X136317735Y-95695713D02*
X136210592Y-95695713D01*
X136210592Y-95695713D02*
X136067735Y-95659999D01*
X136067735Y-95659999D02*
X135996307Y-95624285D01*
X135996307Y-95624285D02*
X135924878Y-95552856D01*
X135924878Y-95552856D02*
X135889164Y-95445713D01*
X135889164Y-95445713D02*
X135889164Y-95374285D01*
X135889164Y-95374285D02*
X135924878Y-95267142D01*
X135924878Y-95267142D02*
X135960592Y-95231428D01*
X136603450Y-91990713D02*
X136639164Y-91883571D01*
X136639164Y-91883571D02*
X136639164Y-91704999D01*
X136639164Y-91704999D02*
X136603450Y-91633571D01*
X136603450Y-91633571D02*
X136567735Y-91597856D01*
X136567735Y-91597856D02*
X136496307Y-91562142D01*
X136496307Y-91562142D02*
X136424878Y-91562142D01*
X136424878Y-91562142D02*
X136353450Y-91597856D01*
X136353450Y-91597856D02*
X136317735Y-91633571D01*
X136317735Y-91633571D02*
X136282021Y-91704999D01*
X136282021Y-91704999D02*
X136246307Y-91847856D01*
X136246307Y-91847856D02*
X136210592Y-91919285D01*
X136210592Y-91919285D02*
X136174878Y-91954999D01*
X136174878Y-91954999D02*
X136103450Y-91990713D01*
X136103450Y-91990713D02*
X136032021Y-91990713D01*
X136032021Y-91990713D02*
X135960592Y-91954999D01*
X135960592Y-91954999D02*
X135924878Y-91919285D01*
X135924878Y-91919285D02*
X135889164Y-91847856D01*
X135889164Y-91847856D02*
X135889164Y-91669285D01*
X135889164Y-91669285D02*
X135924878Y-91562142D01*
X136639164Y-91240713D02*
X135889164Y-91240713D01*
X135889164Y-91240713D02*
X135889164Y-91062142D01*
X135889164Y-91062142D02*
X135924878Y-90954999D01*
X135924878Y-90954999D02*
X135996307Y-90883570D01*
X135996307Y-90883570D02*
X136067735Y-90847856D01*
X136067735Y-90847856D02*
X136210592Y-90812142D01*
X136210592Y-90812142D02*
X136317735Y-90812142D01*
X136317735Y-90812142D02*
X136460592Y-90847856D01*
X136460592Y-90847856D02*
X136532021Y-90883570D01*
X136532021Y-90883570D02*
X136603450Y-90954999D01*
X136603450Y-90954999D02*
X136639164Y-91062142D01*
X136639164Y-91062142D02*
X136639164Y-91240713D01*
X136424878Y-90526427D02*
X136424878Y-90169285D01*
X136639164Y-90597856D02*
X135889164Y-90347856D01*
X135889164Y-90347856D02*
X136639164Y-90097856D01*
X135924878Y-99271428D02*
X135889164Y-99342857D01*
X135889164Y-99342857D02*
X135889164Y-99449999D01*
X135889164Y-99449999D02*
X135924878Y-99557142D01*
X135924878Y-99557142D02*
X135996307Y-99628571D01*
X135996307Y-99628571D02*
X136067735Y-99664285D01*
X136067735Y-99664285D02*
X136210592Y-99699999D01*
X136210592Y-99699999D02*
X136317735Y-99699999D01*
X136317735Y-99699999D02*
X136460592Y-99664285D01*
X136460592Y-99664285D02*
X136532021Y-99628571D01*
X136532021Y-99628571D02*
X136603450Y-99557142D01*
X136603450Y-99557142D02*
X136639164Y-99449999D01*
X136639164Y-99449999D02*
X136639164Y-99378571D01*
X136639164Y-99378571D02*
X136603450Y-99271428D01*
X136603450Y-99271428D02*
X136567735Y-99235714D01*
X136567735Y-99235714D02*
X136317735Y-99235714D01*
X136317735Y-99235714D02*
X136317735Y-99378571D01*
X136639164Y-98914285D02*
X135889164Y-98914285D01*
X135889164Y-98914285D02*
X136639164Y-98485714D01*
X136639164Y-98485714D02*
X135889164Y-98485714D01*
X136639164Y-98128571D02*
X135889164Y-98128571D01*
X135889164Y-98128571D02*
X135889164Y-97950000D01*
X135889164Y-97950000D02*
X135924878Y-97842857D01*
X135924878Y-97842857D02*
X135996307Y-97771428D01*
X135996307Y-97771428D02*
X136067735Y-97735714D01*
X136067735Y-97735714D02*
X136210592Y-97700000D01*
X136210592Y-97700000D02*
X136317735Y-97700000D01*
X136317735Y-97700000D02*
X136460592Y-97735714D01*
X136460592Y-97735714D02*
X136532021Y-97771428D01*
X136532021Y-97771428D02*
X136603450Y-97842857D01*
X136603450Y-97842857D02*
X136639164Y-97950000D01*
X136639164Y-97950000D02*
X136639164Y-98128571D01*
X136603450Y-94512856D02*
X136639164Y-94405714D01*
X136639164Y-94405714D02*
X136639164Y-94227142D01*
X136639164Y-94227142D02*
X136603450Y-94155714D01*
X136603450Y-94155714D02*
X136567735Y-94119999D01*
X136567735Y-94119999D02*
X136496307Y-94084285D01*
X136496307Y-94084285D02*
X136424878Y-94084285D01*
X136424878Y-94084285D02*
X136353450Y-94119999D01*
X136353450Y-94119999D02*
X136317735Y-94155714D01*
X136317735Y-94155714D02*
X136282021Y-94227142D01*
X136282021Y-94227142D02*
X136246307Y-94369999D01*
X136246307Y-94369999D02*
X136210592Y-94441428D01*
X136210592Y-94441428D02*
X136174878Y-94477142D01*
X136174878Y-94477142D02*
X136103450Y-94512856D01*
X136103450Y-94512856D02*
X136032021Y-94512856D01*
X136032021Y-94512856D02*
X135960592Y-94477142D01*
X135960592Y-94477142D02*
X135924878Y-94441428D01*
X135924878Y-94441428D02*
X135889164Y-94369999D01*
X135889164Y-94369999D02*
X135889164Y-94191428D01*
X135889164Y-94191428D02*
X135924878Y-94084285D01*
X136567735Y-93334285D02*
X136603450Y-93369999D01*
X136603450Y-93369999D02*
X136639164Y-93477142D01*
X136639164Y-93477142D02*
X136639164Y-93548570D01*
X136639164Y-93548570D02*
X136603450Y-93655713D01*
X136603450Y-93655713D02*
X136532021Y-93727142D01*
X136532021Y-93727142D02*
X136460592Y-93762856D01*
X136460592Y-93762856D02*
X136317735Y-93798570D01*
X136317735Y-93798570D02*
X136210592Y-93798570D01*
X136210592Y-93798570D02*
X136067735Y-93762856D01*
X136067735Y-93762856D02*
X135996307Y-93727142D01*
X135996307Y-93727142D02*
X135924878Y-93655713D01*
X135924878Y-93655713D02*
X135889164Y-93548570D01*
X135889164Y-93548570D02*
X135889164Y-93477142D01*
X135889164Y-93477142D02*
X135924878Y-93369999D01*
X135924878Y-93369999D02*
X135960592Y-93334285D01*
X136639164Y-92655713D02*
X136639164Y-93012856D01*
X136639164Y-93012856D02*
X135889164Y-93012856D01*
X186785714Y-92054819D02*
X186785714Y-91054819D01*
X186785714Y-91054819D02*
X187023809Y-91054819D01*
X187023809Y-91054819D02*
X187166666Y-91102438D01*
X187166666Y-91102438D02*
X187261904Y-91197676D01*
X187261904Y-91197676D02*
X187309523Y-91292914D01*
X187309523Y-91292914D02*
X187357142Y-91483390D01*
X187357142Y-91483390D02*
X187357142Y-91626247D01*
X187357142Y-91626247D02*
X187309523Y-91816723D01*
X187309523Y-91816723D02*
X187261904Y-91911961D01*
X187261904Y-91911961D02*
X187166666Y-92007200D01*
X187166666Y-92007200D02*
X187023809Y-92054819D01*
X187023809Y-92054819D02*
X186785714Y-92054819D01*
X187738095Y-91150057D02*
X187785714Y-91102438D01*
X187785714Y-91102438D02*
X187880952Y-91054819D01*
X187880952Y-91054819D02*
X188119047Y-91054819D01*
X188119047Y-91054819D02*
X188214285Y-91102438D01*
X188214285Y-91102438D02*
X188261904Y-91150057D01*
X188261904Y-91150057D02*
X188309523Y-91245295D01*
X188309523Y-91245295D02*
X188309523Y-91340533D01*
X188309523Y-91340533D02*
X188261904Y-91483390D01*
X188261904Y-91483390D02*
X187690476Y-92054819D01*
X187690476Y-92054819D02*
X188309523Y-92054819D01*
X188642857Y-91054819D02*
X189309523Y-91054819D01*
X189309523Y-91054819D02*
X188880952Y-92054819D01*
X176090476Y-111857200D02*
X176233333Y-111904819D01*
X176233333Y-111904819D02*
X176471428Y-111904819D01*
X176471428Y-111904819D02*
X176566666Y-111857200D01*
X176566666Y-111857200D02*
X176614285Y-111809580D01*
X176614285Y-111809580D02*
X176661904Y-111714342D01*
X176661904Y-111714342D02*
X176661904Y-111619104D01*
X176661904Y-111619104D02*
X176614285Y-111523866D01*
X176614285Y-111523866D02*
X176566666Y-111476247D01*
X176566666Y-111476247D02*
X176471428Y-111428628D01*
X176471428Y-111428628D02*
X176280952Y-111381009D01*
X176280952Y-111381009D02*
X176185714Y-111333390D01*
X176185714Y-111333390D02*
X176138095Y-111285771D01*
X176138095Y-111285771D02*
X176090476Y-111190533D01*
X176090476Y-111190533D02*
X176090476Y-111095295D01*
X176090476Y-111095295D02*
X176138095Y-111000057D01*
X176138095Y-111000057D02*
X176185714Y-110952438D01*
X176185714Y-110952438D02*
X176280952Y-110904819D01*
X176280952Y-110904819D02*
X176519047Y-110904819D01*
X176519047Y-110904819D02*
X176661904Y-110952438D01*
X176995238Y-110904819D02*
X177233333Y-111904819D01*
X177233333Y-111904819D02*
X177423809Y-111190533D01*
X177423809Y-111190533D02*
X177614285Y-111904819D01*
X177614285Y-111904819D02*
X177852381Y-110904819D01*
X178757142Y-111904819D02*
X178185714Y-111904819D01*
X178471428Y-111904819D02*
X178471428Y-110904819D01*
X178471428Y-110904819D02*
X178376190Y-111047676D01*
X178376190Y-111047676D02*
X178280952Y-111142914D01*
X178280952Y-111142914D02*
X178185714Y-111190533D01*
X179138095Y-111000057D02*
X179185714Y-110952438D01*
X179185714Y-110952438D02*
X179280952Y-110904819D01*
X179280952Y-110904819D02*
X179519047Y-110904819D01*
X179519047Y-110904819D02*
X179614285Y-110952438D01*
X179614285Y-110952438D02*
X179661904Y-111000057D01*
X179661904Y-111000057D02*
X179709523Y-111095295D01*
X179709523Y-111095295D02*
X179709523Y-111190533D01*
X179709523Y-111190533D02*
X179661904Y-111333390D01*
X179661904Y-111333390D02*
X179090476Y-111904819D01*
X179090476Y-111904819D02*
X179709523Y-111904819D01*
X127385714Y-92054819D02*
X127385714Y-91054819D01*
X127385714Y-91054819D02*
X127623809Y-91054819D01*
X127623809Y-91054819D02*
X127766666Y-91102438D01*
X127766666Y-91102438D02*
X127861904Y-91197676D01*
X127861904Y-91197676D02*
X127909523Y-91292914D01*
X127909523Y-91292914D02*
X127957142Y-91483390D01*
X127957142Y-91483390D02*
X127957142Y-91626247D01*
X127957142Y-91626247D02*
X127909523Y-91816723D01*
X127909523Y-91816723D02*
X127861904Y-91911961D01*
X127861904Y-91911961D02*
X127766666Y-92007200D01*
X127766666Y-92007200D02*
X127623809Y-92054819D01*
X127623809Y-92054819D02*
X127385714Y-92054819D01*
X128338095Y-91150057D02*
X128385714Y-91102438D01*
X128385714Y-91102438D02*
X128480952Y-91054819D01*
X128480952Y-91054819D02*
X128719047Y-91054819D01*
X128719047Y-91054819D02*
X128814285Y-91102438D01*
X128814285Y-91102438D02*
X128861904Y-91150057D01*
X128861904Y-91150057D02*
X128909523Y-91245295D01*
X128909523Y-91245295D02*
X128909523Y-91340533D01*
X128909523Y-91340533D02*
X128861904Y-91483390D01*
X128861904Y-91483390D02*
X128290476Y-92054819D01*
X128290476Y-92054819D02*
X128909523Y-92054819D01*
X129766666Y-91388152D02*
X129766666Y-92054819D01*
X129528571Y-91007200D02*
X129290476Y-91721485D01*
X129290476Y-91721485D02*
X129909523Y-91721485D01*
X175235714Y-92054819D02*
X175235714Y-91054819D01*
X175235714Y-91054819D02*
X175473809Y-91054819D01*
X175473809Y-91054819D02*
X175616666Y-91102438D01*
X175616666Y-91102438D02*
X175711904Y-91197676D01*
X175711904Y-91197676D02*
X175759523Y-91292914D01*
X175759523Y-91292914D02*
X175807142Y-91483390D01*
X175807142Y-91483390D02*
X175807142Y-91626247D01*
X175807142Y-91626247D02*
X175759523Y-91816723D01*
X175759523Y-91816723D02*
X175711904Y-91911961D01*
X175711904Y-91911961D02*
X175616666Y-92007200D01*
X175616666Y-92007200D02*
X175473809Y-92054819D01*
X175473809Y-92054819D02*
X175235714Y-92054819D01*
X176188095Y-91150057D02*
X176235714Y-91102438D01*
X176235714Y-91102438D02*
X176330952Y-91054819D01*
X176330952Y-91054819D02*
X176569047Y-91054819D01*
X176569047Y-91054819D02*
X176664285Y-91102438D01*
X176664285Y-91102438D02*
X176711904Y-91150057D01*
X176711904Y-91150057D02*
X176759523Y-91245295D01*
X176759523Y-91245295D02*
X176759523Y-91340533D01*
X176759523Y-91340533D02*
X176711904Y-91483390D01*
X176711904Y-91483390D02*
X176140476Y-92054819D01*
X176140476Y-92054819D02*
X176759523Y-92054819D01*
X177616666Y-91054819D02*
X177426190Y-91054819D01*
X177426190Y-91054819D02*
X177330952Y-91102438D01*
X177330952Y-91102438D02*
X177283333Y-91150057D01*
X177283333Y-91150057D02*
X177188095Y-91292914D01*
X177188095Y-91292914D02*
X177140476Y-91483390D01*
X177140476Y-91483390D02*
X177140476Y-91864342D01*
X177140476Y-91864342D02*
X177188095Y-91959580D01*
X177188095Y-91959580D02*
X177235714Y-92007200D01*
X177235714Y-92007200D02*
X177330952Y-92054819D01*
X177330952Y-92054819D02*
X177521428Y-92054819D01*
X177521428Y-92054819D02*
X177616666Y-92007200D01*
X177616666Y-92007200D02*
X177664285Y-91959580D01*
X177664285Y-91959580D02*
X177711904Y-91864342D01*
X177711904Y-91864342D02*
X177711904Y-91626247D01*
X177711904Y-91626247D02*
X177664285Y-91531009D01*
X177664285Y-91531009D02*
X177616666Y-91483390D01*
X177616666Y-91483390D02*
X177521428Y-91435771D01*
X177521428Y-91435771D02*
X177330952Y-91435771D01*
X177330952Y-91435771D02*
X177235714Y-91483390D01*
X177235714Y-91483390D02*
X177188095Y-91531009D01*
X177188095Y-91531009D02*
X177140476Y-91626247D01*
X115835714Y-92054819D02*
X115835714Y-91054819D01*
X115835714Y-91054819D02*
X116073809Y-91054819D01*
X116073809Y-91054819D02*
X116216666Y-91102438D01*
X116216666Y-91102438D02*
X116311904Y-91197676D01*
X116311904Y-91197676D02*
X116359523Y-91292914D01*
X116359523Y-91292914D02*
X116407142Y-91483390D01*
X116407142Y-91483390D02*
X116407142Y-91626247D01*
X116407142Y-91626247D02*
X116359523Y-91816723D01*
X116359523Y-91816723D02*
X116311904Y-91911961D01*
X116311904Y-91911961D02*
X116216666Y-92007200D01*
X116216666Y-92007200D02*
X116073809Y-92054819D01*
X116073809Y-92054819D02*
X115835714Y-92054819D01*
X116788095Y-91150057D02*
X116835714Y-91102438D01*
X116835714Y-91102438D02*
X116930952Y-91054819D01*
X116930952Y-91054819D02*
X117169047Y-91054819D01*
X117169047Y-91054819D02*
X117264285Y-91102438D01*
X117264285Y-91102438D02*
X117311904Y-91150057D01*
X117311904Y-91150057D02*
X117359523Y-91245295D01*
X117359523Y-91245295D02*
X117359523Y-91340533D01*
X117359523Y-91340533D02*
X117311904Y-91483390D01*
X117311904Y-91483390D02*
X116740476Y-92054819D01*
X116740476Y-92054819D02*
X117359523Y-92054819D01*
X117692857Y-91054819D02*
X118311904Y-91054819D01*
X118311904Y-91054819D02*
X117978571Y-91435771D01*
X117978571Y-91435771D02*
X118121428Y-91435771D01*
X118121428Y-91435771D02*
X118216666Y-91483390D01*
X118216666Y-91483390D02*
X118264285Y-91531009D01*
X118264285Y-91531009D02*
X118311904Y-91626247D01*
X118311904Y-91626247D02*
X118311904Y-91864342D01*
X118311904Y-91864342D02*
X118264285Y-91959580D01*
X118264285Y-91959580D02*
X118216666Y-92007200D01*
X118216666Y-92007200D02*
X118121428Y-92054819D01*
X118121428Y-92054819D02*
X117835714Y-92054819D01*
X117835714Y-92054819D02*
X117740476Y-92007200D01*
X117740476Y-92007200D02*
X117692857Y-91959580D01*
X118040476Y-111957200D02*
X118183333Y-112004819D01*
X118183333Y-112004819D02*
X118421428Y-112004819D01*
X118421428Y-112004819D02*
X118516666Y-111957200D01*
X118516666Y-111957200D02*
X118564285Y-111909580D01*
X118564285Y-111909580D02*
X118611904Y-111814342D01*
X118611904Y-111814342D02*
X118611904Y-111719104D01*
X118611904Y-111719104D02*
X118564285Y-111623866D01*
X118564285Y-111623866D02*
X118516666Y-111576247D01*
X118516666Y-111576247D02*
X118421428Y-111528628D01*
X118421428Y-111528628D02*
X118230952Y-111481009D01*
X118230952Y-111481009D02*
X118135714Y-111433390D01*
X118135714Y-111433390D02*
X118088095Y-111385771D01*
X118088095Y-111385771D02*
X118040476Y-111290533D01*
X118040476Y-111290533D02*
X118040476Y-111195295D01*
X118040476Y-111195295D02*
X118088095Y-111100057D01*
X118088095Y-111100057D02*
X118135714Y-111052438D01*
X118135714Y-111052438D02*
X118230952Y-111004819D01*
X118230952Y-111004819D02*
X118469047Y-111004819D01*
X118469047Y-111004819D02*
X118611904Y-111052438D01*
X118945238Y-111004819D02*
X119183333Y-112004819D01*
X119183333Y-112004819D02*
X119373809Y-111290533D01*
X119373809Y-111290533D02*
X119564285Y-112004819D01*
X119564285Y-112004819D02*
X119802381Y-111004819D01*
X120707142Y-112004819D02*
X120135714Y-112004819D01*
X120421428Y-112004819D02*
X120421428Y-111004819D01*
X120421428Y-111004819D02*
X120326190Y-111147676D01*
X120326190Y-111147676D02*
X120230952Y-111242914D01*
X120230952Y-111242914D02*
X120135714Y-111290533D01*
X121659523Y-112004819D02*
X121088095Y-112004819D01*
X121373809Y-112004819D02*
X121373809Y-111004819D01*
X121373809Y-111004819D02*
X121278571Y-111147676D01*
X121278571Y-111147676D02*
X121183333Y-111242914D01*
X121183333Y-111242914D02*
X121088095Y-111290533D01*
D11*
%TO.C,D25*%
X119550000Y-96100000D02*
X119550000Y-101150000D01*
X120000000Y-95650000D02*
X119550000Y-96100000D01*
X120350000Y-97500000D02*
X120350000Y-99300000D01*
X125750000Y-97500000D02*
X125750000Y-99300000D01*
X126550000Y-95650000D02*
X120000000Y-95650000D01*
X126550000Y-101150000D02*
X119550000Y-101150000D01*
X126550000Y-101150000D02*
X126550000Y-95650000D01*
%TO.C,D28*%
X178950000Y-96100000D02*
X178950000Y-101150000D01*
X179400000Y-95650000D02*
X178950000Y-96100000D01*
X179750000Y-97500000D02*
X179750000Y-99300000D01*
X185150000Y-97500000D02*
X185150000Y-99300000D01*
X185950000Y-95650000D02*
X179400000Y-95650000D01*
X185950000Y-101150000D02*
X178950000Y-101150000D01*
X185950000Y-101150000D02*
X185950000Y-95650000D01*
%TO.C,J5*%
X190595000Y-62270000D02*
X190595000Y-69950000D01*
X190595000Y-62270000D02*
X193255000Y-62270000D01*
X190595000Y-69950000D02*
X193255000Y-69950000D01*
X191925000Y-59670000D02*
X193255000Y-59670000D01*
X193255000Y-59670000D02*
X193255000Y-61000000D01*
X193255000Y-62270000D02*
X193255000Y-69950000D01*
D12*
%TO.C,J1*%
X132800000Y-88890000D02*
X132800000Y-100890000D01*
X132800000Y-100890000D02*
X170800000Y-100890000D01*
X137800000Y-100890000D02*
X137800000Y-88890000D01*
X167300000Y-100890000D02*
X167300000Y-88890000D01*
X170800000Y-88890000D02*
X132800000Y-88890000D01*
X170800000Y-100890000D02*
X170800000Y-88890000D01*
D11*
%TO.C,D27*%
X184500000Y-89300000D02*
X184500000Y-94350000D01*
X184950000Y-88850000D02*
X184500000Y-89300000D01*
X185300000Y-90700000D02*
X185300000Y-92500000D01*
X190700000Y-90700000D02*
X190700000Y-92500000D01*
X191500000Y-88850000D02*
X184950000Y-88850000D01*
X191500000Y-94350000D02*
X184500000Y-94350000D01*
X191500000Y-94350000D02*
X191500000Y-88850000D01*
%TO.C,J2*%
X111595000Y-62270000D02*
X111595000Y-69950000D01*
X111595000Y-62270000D02*
X114255000Y-62270000D01*
X111595000Y-69950000D02*
X114255000Y-69950000D01*
X112925000Y-59670000D02*
X114255000Y-59670000D01*
X114255000Y-59670000D02*
X114255000Y-61000000D01*
X114255000Y-62270000D02*
X114255000Y-69950000D01*
%TO.C,SW12*%
X173950000Y-111400000D02*
X174550000Y-111400000D01*
X174250000Y-111700000D02*
X173950000Y-111400000D01*
X174550000Y-111400000D02*
X174250000Y-111700000D01*
X175650000Y-109600000D02*
X175650000Y-121400000D01*
X179750000Y-109600000D02*
X175650000Y-109600000D01*
X179750000Y-121400000D02*
X175650000Y-121400000D01*
X181250000Y-115500000D02*
X182250000Y-115500000D01*
X181750000Y-115000000D02*
X181750000Y-116000000D01*
X183750000Y-109600000D02*
X187850000Y-109600000D01*
X187850000Y-109600000D02*
X187850000Y-112000000D01*
X187850000Y-114200000D02*
X187850000Y-116800000D01*
X187850000Y-119000000D02*
X187850000Y-121400000D01*
X187850000Y-121400000D02*
X183750000Y-121400000D01*
X184750000Y-115500000D02*
G75*
G02*
X178750000Y-115500000I-3000000J0D01*
G01*
X178750000Y-115500000D02*
G75*
G02*
X184750000Y-115500000I3000000J0D01*
G01*
%TO.C,D24*%
X125100000Y-89300000D02*
X125100000Y-94350000D01*
X125550000Y-88850000D02*
X125100000Y-89300000D01*
X125900000Y-90700000D02*
X125900000Y-92500000D01*
X131300000Y-90700000D02*
X131300000Y-92500000D01*
X132100000Y-88850000D02*
X125550000Y-88850000D01*
X132100000Y-94350000D02*
X125100000Y-94350000D01*
X132100000Y-94350000D02*
X132100000Y-88850000D01*
%TO.C,D26*%
X172950000Y-89300000D02*
X172950000Y-94350000D01*
X173400000Y-88850000D02*
X172950000Y-89300000D01*
X173750000Y-90700000D02*
X173750000Y-92500000D01*
X179150000Y-90700000D02*
X179150000Y-92500000D01*
X179950000Y-88850000D02*
X173400000Y-88850000D01*
X179950000Y-94350000D02*
X172950000Y-94350000D01*
X179950000Y-94350000D02*
X179950000Y-88850000D01*
%TO.C,D23*%
X113550000Y-89300000D02*
X113550000Y-94350000D01*
X114000000Y-88850000D02*
X113550000Y-89300000D01*
X114350000Y-90700000D02*
X114350000Y-92500000D01*
X119750000Y-90700000D02*
X119750000Y-92500000D01*
X120550000Y-88850000D02*
X114000000Y-88850000D01*
X120550000Y-94350000D02*
X113550000Y-94350000D01*
X120550000Y-94350000D02*
X120550000Y-88850000D01*
%TO.C,J3*%
X147570000Y-43145000D02*
X148900000Y-43145000D01*
X147570000Y-44475000D02*
X147570000Y-43145000D01*
X150170000Y-43145000D02*
X157850000Y-43145000D01*
X150170000Y-45805000D02*
X150170000Y-43145000D01*
X150170000Y-45805000D02*
X157850000Y-45805000D01*
X157850000Y-45805000D02*
X157850000Y-43145000D01*
%TO.C,SW11*%
X115950000Y-111400000D02*
X116550000Y-111400000D01*
X116250000Y-111700000D02*
X115950000Y-111400000D01*
X116550000Y-111400000D02*
X116250000Y-111700000D01*
X117650000Y-109600000D02*
X117650000Y-121400000D01*
X121750000Y-109600000D02*
X117650000Y-109600000D01*
X121750000Y-121400000D02*
X117650000Y-121400000D01*
X123250000Y-115500000D02*
X124250000Y-115500000D01*
X123750000Y-115000000D02*
X123750000Y-116000000D01*
X125750000Y-109600000D02*
X129850000Y-109600000D01*
X129850000Y-109600000D02*
X129850000Y-112000000D01*
X129850000Y-114200000D02*
X129850000Y-116800000D01*
X129850000Y-119000000D02*
X129850000Y-121400000D01*
X129850000Y-121400000D02*
X125750000Y-121400000D01*
X126750000Y-115500000D02*
G75*
G02*
X120750000Y-115500000I-3000000J0D01*
G01*
X120750000Y-115500000D02*
G75*
G02*
X126750000Y-115500000I3000000J0D01*
G01*
%TO.C,J4*%
X147570000Y-125245000D02*
X148900000Y-125245000D01*
X147570000Y-126575000D02*
X147570000Y-125245000D01*
X150170000Y-125245000D02*
X157850000Y-125245000D01*
X150170000Y-127905000D02*
X150170000Y-125245000D01*
X150170000Y-127905000D02*
X157850000Y-127905000D01*
X157850000Y-127905000D02*
X157850000Y-125245000D01*
%TD*%
%LPC*%
D13*
%TO.C,D25*%
X120600000Y-96800000D03*
X120600000Y-100000000D03*
X125500000Y-100000000D03*
X125500000Y-96800000D03*
%TD*%
%TO.C,D28*%
X180000000Y-96800000D03*
X180000000Y-100000000D03*
X184900000Y-100000000D03*
X184900000Y-96800000D03*
%TD*%
D14*
%TO.C,SW4*%
X176020000Y-55370000D03*
D15*
X181100000Y-55370000D03*
D14*
X186180000Y-55370000D03*
%TD*%
%TO.C,SW10*%
X156890000Y-115500000D03*
D15*
X161970000Y-115500000D03*
D14*
X167050000Y-115500000D03*
%TD*%
%TO.C,SW1*%
X118870000Y-55370000D03*
D15*
X123950000Y-55370000D03*
D14*
X129030000Y-55370000D03*
%TD*%
D16*
%TO.C,J5*%
X191925000Y-61000000D03*
D17*
X191925000Y-63540000D03*
X191925000Y-66080000D03*
X191925000Y-68620000D03*
%TD*%
D16*
%TO.C,J1*%
X134300000Y-98700000D03*
D17*
X134300000Y-96160000D03*
X134300000Y-93620000D03*
X134300000Y-91080000D03*
%TD*%
D13*
%TO.C,D27*%
X185550000Y-90000000D03*
X185550000Y-93200000D03*
X190450000Y-93200000D03*
X190450000Y-90000000D03*
%TD*%
D16*
%TO.C,J2*%
X112925000Y-61000000D03*
D17*
X112925000Y-63540000D03*
X112925000Y-66080000D03*
X112925000Y-68620000D03*
%TD*%
D18*
%TO.C,SW12*%
X174250000Y-113000000D03*
D19*
X174250000Y-118000000D03*
X174250000Y-115500000D03*
D20*
X181750000Y-109900000D03*
X181750000Y-121100000D03*
D19*
X188750000Y-118000000D03*
X188750000Y-113000000D03*
%TD*%
D13*
%TO.C,D24*%
X126150000Y-90000000D03*
X126150000Y-93200000D03*
X131050000Y-93200000D03*
X131050000Y-90000000D03*
%TD*%
%TO.C,D26*%
X174000000Y-90000000D03*
X174000000Y-93200000D03*
X178900000Y-93200000D03*
X178900000Y-90000000D03*
%TD*%
%TO.C,D23*%
X114600000Y-90000000D03*
X114600000Y-93200000D03*
X119500000Y-93200000D03*
X119500000Y-90000000D03*
%TD*%
D14*
%TO.C,SW6*%
X137920000Y-74420000D03*
D15*
X143000000Y-74420000D03*
D14*
X148080000Y-74420000D03*
%TD*%
D16*
%TO.C,J3*%
X148900000Y-44475000D03*
D17*
X151440000Y-44475000D03*
X153980000Y-44475000D03*
X156520000Y-44475000D03*
%TD*%
D14*
%TO.C,SW2*%
X137920000Y-55370000D03*
D15*
X143000000Y-55370000D03*
D14*
X148080000Y-55370000D03*
%TD*%
%TO.C,SW7*%
X156970000Y-74420000D03*
D15*
X162050000Y-74420000D03*
D14*
X167130000Y-74420000D03*
%TD*%
D18*
%TO.C,SW11*%
X116250000Y-113000000D03*
D19*
X116250000Y-118000000D03*
X116250000Y-115500000D03*
D20*
X123750000Y-109900000D03*
X123750000Y-121100000D03*
D19*
X130750000Y-118000000D03*
X130750000Y-113000000D03*
%TD*%
D14*
%TO.C,SW5*%
X118870000Y-74420000D03*
D15*
X123950000Y-74420000D03*
D14*
X129030000Y-74420000D03*
%TD*%
D16*
%TO.C,J4*%
X148900000Y-126575000D03*
D17*
X151440000Y-126575000D03*
X153980000Y-126575000D03*
X156520000Y-126575000D03*
%TD*%
D14*
%TO.C,SW8*%
X176020000Y-74420000D03*
D15*
X181100000Y-74420000D03*
D14*
X186180000Y-74420000D03*
%TD*%
%TO.C,SW3*%
X156970000Y-55370000D03*
D15*
X162050000Y-55370000D03*
D14*
X167130000Y-55370000D03*
%TD*%
%TO.C,SW9*%
X137840000Y-115500000D03*
D15*
X142920000Y-115500000D03*
D14*
X148000000Y-115500000D03*
%TD*%
D21*
%TO.C,U2*%
X191000000Y-103600000D03*
D22*
X188460000Y-103600000D03*
X185920000Y-103600000D03*
X183380000Y-103600000D03*
X180840000Y-103600000D03*
X178300000Y-103600000D03*
X175760000Y-103600000D03*
X175760000Y-86350000D03*
X178300000Y-86350000D03*
X180840000Y-86350000D03*
D23*
X183380000Y-86350000D03*
X185920000Y-86350000D03*
X188460000Y-86350000D03*
X191000000Y-86350000D03*
%TD*%
%LPD*%
M02*
