%TF.GenerationSoftware,KiCad,Pcbnew,8.0.7*%
%TF.CreationDate,2025-02-09T12:27:28-05:00*%
%TF.ProjectId,makropad,6d616b72-6f70-4616-942e-6b696361645f,rev?*%
%TF.SameCoordinates,Original*%
%TF.FileFunction,Legend,Bot*%
%TF.FilePolarity,Positive*%
%FSLAX46Y46*%
G04 Gerber Fmt 4.6, Leading zero omitted, Abs format (unit mm)*
G04 Created by KiCad (PCBNEW 8.0.7) date 2025-02-09 12:27:28*
%MOMM*%
%LPD*%
G01*
G04 APERTURE LIST*
G04 Aperture macros list*
%AMRoundRect*
0 Rectangle with rounded corners*
0 $1 Rounding radius*
0 $2 $3 $4 $5 $6 $7 $8 $9 X,Y pos of 4 corners*
0 Add a 4 corners polygon primitive as box body*
4,1,4,$2,$3,$4,$5,$6,$7,$8,$9,$2,$3,0*
0 Add four circle primitives for the rounded corners*
1,1,$1+$1,$2,$3*
1,1,$1+$1,$4,$5*
1,1,$1+$1,$6,$7*
1,1,$1+$1,$8,$9*
0 Add four rect primitives between the rounded corners*
20,1,$1+$1,$2,$3,$4,$5,0*
20,1,$1+$1,$4,$5,$6,$7,0*
20,1,$1+$1,$6,$7,$8,$9,0*
20,1,$1+$1,$8,$9,$2,$3,0*%
%AMOutline5P*
0 Free polygon, 5 corners , with rotation*
0 The origin of the aperture is its center*
0 number of corners: always 5*
0 $1 to $10 corner X, Y*
0 $11 Rotation angle, in degrees counterclockwise*
0 create outline with 5 corners*
4,1,5,$1,$2,$3,$4,$5,$6,$7,$8,$9,$10,$1,$2,$11*%
%AMOutline6P*
0 Free polygon, 6 corners , with rotation*
0 The origin of the aperture is its center*
0 number of corners: always 6*
0 $1 to $12 corner X, Y*
0 $13 Rotation angle, in degrees counterclockwise*
0 create outline with 6 corners*
4,1,6,$1,$2,$3,$4,$5,$6,$7,$8,$9,$10,$11,$12,$1,$2,$13*%
%AMOutline7P*
0 Free polygon, 7 corners , with rotation*
0 The origin of the aperture is its center*
0 number of corners: always 7*
0 $1 to $14 corner X, Y*
0 $15 Rotation angle, in degrees counterclockwise*
0 create outline with 7 corners*
4,1,7,$1,$2,$3,$4,$5,$6,$7,$8,$9,$10,$11,$12,$13,$14,$1,$2,$15*%
%AMOutline8P*
0 Free polygon, 8 corners , with rotation*
0 The origin of the aperture is its center*
0 number of corners: always 8*
0 $1 to $16 corner X, Y*
0 $17 Rotation angle, in degrees counterclockwise*
0 create outline with 8 corners*
4,1,8,$1,$2,$3,$4,$5,$6,$7,$8,$9,$10,$11,$12,$13,$14,$15,$16,$1,$2,$17*%
G04 Aperture macros list end*
%ADD10C,0.400000*%
%ADD11C,0.150000*%
%ADD12C,0.101600*%
%ADD13C,0.120000*%
%ADD14C,0.100000*%
%ADD15C,0.152400*%
%ADD16C,0.127000*%
%ADD17C,0.254000*%
%ADD18C,0.025400*%
%ADD19C,1.701800*%
%ADD20C,3.987800*%
%ADD21C,2.300000*%
%ADD22R,1.700000X1.700000*%
%ADD23O,1.700000X1.700000*%
%ADD24R,2.000000X2.000000*%
%ADD25C,2.000000*%
%ADD26R,3.200000X2.000000*%
%ADD27RoundRect,0.225000X-0.375000X0.225000X-0.375000X-0.225000X0.375000X-0.225000X0.375000X0.225000X0*%
%ADD28R,1.800000X0.820000*%
%ADD29Outline5P,-0.900000X0.410000X0.900000X0.410000X0.900000X-0.246000X0.736000X-0.410000X-0.900000X-0.410000X180.000000*%
%ADD30RoundRect,0.250000X0.625000X-0.312500X0.625000X0.312500X-0.625000X0.312500X-0.625000X-0.312500X0*%
%ADD31RoundRect,0.250000X0.312500X0.625000X-0.312500X0.625000X-0.312500X-0.625000X0.312500X-0.625000X0*%
%ADD32RoundRect,0.225000X0.225000X0.375000X-0.225000X0.375000X-0.225000X-0.375000X0.225000X-0.375000X0*%
%ADD33RoundRect,0.102000X-0.901700X-0.266700X0.901700X-0.266700X0.901700X0.266700X-0.901700X0.266700X0*%
%ADD34RoundRect,0.225000X-0.225000X-0.375000X0.225000X-0.375000X0.225000X0.375000X-0.225000X0.375000X0*%
%ADD35RoundRect,0.250000X-0.312500X-0.625000X0.312500X-0.625000X0.312500X0.625000X-0.312500X0.625000X0*%
%ADD36R,1.700000X3.500000*%
%ADD37O,1.700000X3.600000*%
%ADD38O,1.700000X3.700000*%
G04 APERTURE END LIST*
D10*
X146260652Y-126484438D02*
X146260652Y-124484438D01*
X146260652Y-125246342D02*
X146070176Y-125151104D01*
X146070176Y-125151104D02*
X145689223Y-125151104D01*
X145689223Y-125151104D02*
X145498747Y-125246342D01*
X145498747Y-125246342D02*
X145403509Y-125341580D01*
X145403509Y-125341580D02*
X145308271Y-125532057D01*
X145308271Y-125532057D02*
X145308271Y-126103485D01*
X145308271Y-126103485D02*
X145403509Y-126293961D01*
X145403509Y-126293961D02*
X145498747Y-126389200D01*
X145498747Y-126389200D02*
X145689223Y-126484438D01*
X145689223Y-126484438D02*
X146070176Y-126484438D01*
X146070176Y-126484438D02*
X146260652Y-126389200D01*
X143593985Y-126484438D02*
X143593985Y-125436819D01*
X143593985Y-125436819D02*
X143689223Y-125246342D01*
X143689223Y-125246342D02*
X143879699Y-125151104D01*
X143879699Y-125151104D02*
X144260652Y-125151104D01*
X144260652Y-125151104D02*
X144451128Y-125246342D01*
X143593985Y-126389200D02*
X143784461Y-126484438D01*
X143784461Y-126484438D02*
X144260652Y-126484438D01*
X144260652Y-126484438D02*
X144451128Y-126389200D01*
X144451128Y-126389200D02*
X144546366Y-126198723D01*
X144546366Y-126198723D02*
X144546366Y-126008247D01*
X144546366Y-126008247D02*
X144451128Y-125817771D01*
X144451128Y-125817771D02*
X144260652Y-125722533D01*
X144260652Y-125722533D02*
X143784461Y-125722533D01*
X143784461Y-125722533D02*
X143593985Y-125627295D01*
X141784461Y-126484438D02*
X141784461Y-124484438D01*
X141784461Y-126389200D02*
X141974937Y-126484438D01*
X141974937Y-126484438D02*
X142355890Y-126484438D01*
X142355890Y-126484438D02*
X142546366Y-126389200D01*
X142546366Y-126389200D02*
X142641604Y-126293961D01*
X142641604Y-126293961D02*
X142736842Y-126103485D01*
X142736842Y-126103485D02*
X142736842Y-125532057D01*
X142736842Y-125532057D02*
X142641604Y-125341580D01*
X142641604Y-125341580D02*
X142546366Y-125246342D01*
X142546366Y-125246342D02*
X142355890Y-125151104D01*
X142355890Y-125151104D02*
X141974937Y-125151104D01*
X141974937Y-125151104D02*
X141784461Y-125246342D01*
X140832080Y-126484438D02*
X140832080Y-124484438D01*
X140832080Y-125246342D02*
X140641604Y-125151104D01*
X140641604Y-125151104D02*
X140260651Y-125151104D01*
X140260651Y-125151104D02*
X140070175Y-125246342D01*
X140070175Y-125246342D02*
X139974937Y-125341580D01*
X139974937Y-125341580D02*
X139879699Y-125532057D01*
X139879699Y-125532057D02*
X139879699Y-126103485D01*
X139879699Y-126103485D02*
X139974937Y-126293961D01*
X139974937Y-126293961D02*
X140070175Y-126389200D01*
X140070175Y-126389200D02*
X140260651Y-126484438D01*
X140260651Y-126484438D02*
X140641604Y-126484438D01*
X140641604Y-126484438D02*
X140832080Y-126389200D01*
X139022556Y-126484438D02*
X139022556Y-125151104D01*
X139022556Y-124484438D02*
X139117794Y-124579676D01*
X139117794Y-124579676D02*
X139022556Y-124674914D01*
X139022556Y-124674914D02*
X138927318Y-124579676D01*
X138927318Y-124579676D02*
X139022556Y-124484438D01*
X139022556Y-124484438D02*
X139022556Y-124674914D01*
X138070175Y-126484438D02*
X138070175Y-125151104D01*
X138070175Y-125532057D02*
X137974937Y-125341580D01*
X137974937Y-125341580D02*
X137879699Y-125246342D01*
X137879699Y-125246342D02*
X137689223Y-125151104D01*
X137689223Y-125151104D02*
X137498746Y-125151104D01*
X135974937Y-126484438D02*
X135974937Y-124484438D01*
X135974937Y-126389200D02*
X136165413Y-126484438D01*
X136165413Y-126484438D02*
X136546366Y-126484438D01*
X136546366Y-126484438D02*
X136736842Y-126389200D01*
X136736842Y-126389200D02*
X136832080Y-126293961D01*
X136832080Y-126293961D02*
X136927318Y-126103485D01*
X136927318Y-126103485D02*
X136927318Y-125532057D01*
X136927318Y-125532057D02*
X136832080Y-125341580D01*
X136832080Y-125341580D02*
X136736842Y-125246342D01*
X136736842Y-125246342D02*
X136546366Y-125151104D01*
X136546366Y-125151104D02*
X136165413Y-125151104D01*
X136165413Y-125151104D02*
X135974937Y-125246342D01*
X135022556Y-126293961D02*
X134927318Y-126389200D01*
X134927318Y-126389200D02*
X135022556Y-126484438D01*
X135022556Y-126484438D02*
X135117794Y-126389200D01*
X135117794Y-126389200D02*
X135022556Y-126293961D01*
X135022556Y-126293961D02*
X135022556Y-126484438D01*
X133213032Y-126484438D02*
X133213032Y-124484438D01*
X133213032Y-126389200D02*
X133403508Y-126484438D01*
X133403508Y-126484438D02*
X133784461Y-126484438D01*
X133784461Y-126484438D02*
X133974937Y-126389200D01*
X133974937Y-126389200D02*
X134070175Y-126293961D01*
X134070175Y-126293961D02*
X134165413Y-126103485D01*
X134165413Y-126103485D02*
X134165413Y-125532057D01*
X134165413Y-125532057D02*
X134070175Y-125341580D01*
X134070175Y-125341580D02*
X133974937Y-125246342D01*
X133974937Y-125246342D02*
X133784461Y-125151104D01*
X133784461Y-125151104D02*
X133403508Y-125151104D01*
X133403508Y-125151104D02*
X133213032Y-125246342D01*
X131498746Y-126389200D02*
X131689222Y-126484438D01*
X131689222Y-126484438D02*
X132070175Y-126484438D01*
X132070175Y-126484438D02*
X132260651Y-126389200D01*
X132260651Y-126389200D02*
X132355889Y-126198723D01*
X132355889Y-126198723D02*
X132355889Y-125436819D01*
X132355889Y-125436819D02*
X132260651Y-125246342D01*
X132260651Y-125246342D02*
X132070175Y-125151104D01*
X132070175Y-125151104D02*
X131689222Y-125151104D01*
X131689222Y-125151104D02*
X131498746Y-125246342D01*
X131498746Y-125246342D02*
X131403508Y-125436819D01*
X131403508Y-125436819D02*
X131403508Y-125627295D01*
X131403508Y-125627295D02*
X132355889Y-125817771D01*
X130736841Y-125151104D02*
X130260651Y-126484438D01*
X130260651Y-126484438D02*
X129784460Y-125151104D01*
X127593984Y-124389200D02*
X129308269Y-126960628D01*
X126927317Y-126484438D02*
X126927317Y-125151104D01*
X126927317Y-125341580D02*
X126832079Y-125246342D01*
X126832079Y-125246342D02*
X126641603Y-125151104D01*
X126641603Y-125151104D02*
X126355888Y-125151104D01*
X126355888Y-125151104D02*
X126165412Y-125246342D01*
X126165412Y-125246342D02*
X126070174Y-125436819D01*
X126070174Y-125436819D02*
X126070174Y-126484438D01*
X126070174Y-125436819D02*
X125974936Y-125246342D01*
X125974936Y-125246342D02*
X125784460Y-125151104D01*
X125784460Y-125151104D02*
X125498746Y-125151104D01*
X125498746Y-125151104D02*
X125308269Y-125246342D01*
X125308269Y-125246342D02*
X125213031Y-125436819D01*
X125213031Y-125436819D02*
X125213031Y-126484438D01*
X123403507Y-126484438D02*
X123403507Y-125436819D01*
X123403507Y-125436819D02*
X123498745Y-125246342D01*
X123498745Y-125246342D02*
X123689221Y-125151104D01*
X123689221Y-125151104D02*
X124070174Y-125151104D01*
X124070174Y-125151104D02*
X124260650Y-125246342D01*
X123403507Y-126389200D02*
X123593983Y-126484438D01*
X123593983Y-126484438D02*
X124070174Y-126484438D01*
X124070174Y-126484438D02*
X124260650Y-126389200D01*
X124260650Y-126389200D02*
X124355888Y-126198723D01*
X124355888Y-126198723D02*
X124355888Y-126008247D01*
X124355888Y-126008247D02*
X124260650Y-125817771D01*
X124260650Y-125817771D02*
X124070174Y-125722533D01*
X124070174Y-125722533D02*
X123593983Y-125722533D01*
X123593983Y-125722533D02*
X123403507Y-125627295D01*
X122451126Y-126484438D02*
X122451126Y-124484438D01*
X122260650Y-125722533D02*
X121689221Y-126484438D01*
X121689221Y-125151104D02*
X122451126Y-125913009D01*
X120832078Y-126484438D02*
X120832078Y-125151104D01*
X120832078Y-125532057D02*
X120736840Y-125341580D01*
X120736840Y-125341580D02*
X120641602Y-125246342D01*
X120641602Y-125246342D02*
X120451126Y-125151104D01*
X120451126Y-125151104D02*
X120260649Y-125151104D01*
X119308269Y-126484438D02*
X119498745Y-126389200D01*
X119498745Y-126389200D02*
X119593983Y-126293961D01*
X119593983Y-126293961D02*
X119689221Y-126103485D01*
X119689221Y-126103485D02*
X119689221Y-125532057D01*
X119689221Y-125532057D02*
X119593983Y-125341580D01*
X119593983Y-125341580D02*
X119498745Y-125246342D01*
X119498745Y-125246342D02*
X119308269Y-125151104D01*
X119308269Y-125151104D02*
X119022554Y-125151104D01*
X119022554Y-125151104D02*
X118832078Y-125246342D01*
X118832078Y-125246342D02*
X118736840Y-125341580D01*
X118736840Y-125341580D02*
X118641602Y-125532057D01*
X118641602Y-125532057D02*
X118641602Y-126103485D01*
X118641602Y-126103485D02*
X118736840Y-126293961D01*
X118736840Y-126293961D02*
X118832078Y-126389200D01*
X118832078Y-126389200D02*
X119022554Y-126484438D01*
X119022554Y-126484438D02*
X119308269Y-126484438D01*
X117784459Y-125151104D02*
X117784459Y-127151104D01*
X117784459Y-125246342D02*
X117593983Y-125151104D01*
X117593983Y-125151104D02*
X117213030Y-125151104D01*
X117213030Y-125151104D02*
X117022554Y-125246342D01*
X117022554Y-125246342D02*
X116927316Y-125341580D01*
X116927316Y-125341580D02*
X116832078Y-125532057D01*
X116832078Y-125532057D02*
X116832078Y-126103485D01*
X116832078Y-126103485D02*
X116927316Y-126293961D01*
X116927316Y-126293961D02*
X117022554Y-126389200D01*
X117022554Y-126389200D02*
X117213030Y-126484438D01*
X117213030Y-126484438D02*
X117593983Y-126484438D01*
X117593983Y-126484438D02*
X117784459Y-126389200D01*
X115117792Y-126484438D02*
X115117792Y-125436819D01*
X115117792Y-125436819D02*
X115213030Y-125246342D01*
X115213030Y-125246342D02*
X115403506Y-125151104D01*
X115403506Y-125151104D02*
X115784459Y-125151104D01*
X115784459Y-125151104D02*
X115974935Y-125246342D01*
X115117792Y-126389200D02*
X115308268Y-126484438D01*
X115308268Y-126484438D02*
X115784459Y-126484438D01*
X115784459Y-126484438D02*
X115974935Y-126389200D01*
X115974935Y-126389200D02*
X116070173Y-126198723D01*
X116070173Y-126198723D02*
X116070173Y-126008247D01*
X116070173Y-126008247D02*
X115974935Y-125817771D01*
X115974935Y-125817771D02*
X115784459Y-125722533D01*
X115784459Y-125722533D02*
X115308268Y-125722533D01*
X115308268Y-125722533D02*
X115117792Y-125627295D01*
X113308268Y-126484438D02*
X113308268Y-124484438D01*
X113308268Y-126389200D02*
X113498744Y-126484438D01*
X113498744Y-126484438D02*
X113879697Y-126484438D01*
X113879697Y-126484438D02*
X114070173Y-126389200D01*
X114070173Y-126389200D02*
X114165411Y-126293961D01*
X114165411Y-126293961D02*
X114260649Y-126103485D01*
X114260649Y-126103485D02*
X114260649Y-125532057D01*
X114260649Y-125532057D02*
X114165411Y-125341580D01*
X114165411Y-125341580D02*
X114070173Y-125246342D01*
X114070173Y-125246342D02*
X113879697Y-125151104D01*
X113879697Y-125151104D02*
X113498744Y-125151104D01*
X113498744Y-125151104D02*
X113308268Y-125246342D01*
X191605890Y-124674914D02*
X191510652Y-124579676D01*
X191510652Y-124579676D02*
X191320176Y-124484438D01*
X191320176Y-124484438D02*
X190843985Y-124484438D01*
X190843985Y-124484438D02*
X190653509Y-124579676D01*
X190653509Y-124579676D02*
X190558271Y-124674914D01*
X190558271Y-124674914D02*
X190463033Y-124865390D01*
X190463033Y-124865390D02*
X190463033Y-125055866D01*
X190463033Y-125055866D02*
X190558271Y-125341580D01*
X190558271Y-125341580D02*
X191701128Y-126484438D01*
X191701128Y-126484438D02*
X190463033Y-126484438D01*
X188177319Y-124389200D02*
X189891604Y-126960628D01*
X187415414Y-126484438D02*
X187034462Y-126484438D01*
X187034462Y-126484438D02*
X186843985Y-126389200D01*
X186843985Y-126389200D02*
X186748747Y-126293961D01*
X186748747Y-126293961D02*
X186558271Y-126008247D01*
X186558271Y-126008247D02*
X186463033Y-125627295D01*
X186463033Y-125627295D02*
X186463033Y-124865390D01*
X186463033Y-124865390D02*
X186558271Y-124674914D01*
X186558271Y-124674914D02*
X186653509Y-124579676D01*
X186653509Y-124579676D02*
X186843985Y-124484438D01*
X186843985Y-124484438D02*
X187224938Y-124484438D01*
X187224938Y-124484438D02*
X187415414Y-124579676D01*
X187415414Y-124579676D02*
X187510652Y-124674914D01*
X187510652Y-124674914D02*
X187605890Y-124865390D01*
X187605890Y-124865390D02*
X187605890Y-125341580D01*
X187605890Y-125341580D02*
X187510652Y-125532057D01*
X187510652Y-125532057D02*
X187415414Y-125627295D01*
X187415414Y-125627295D02*
X187224938Y-125722533D01*
X187224938Y-125722533D02*
X186843985Y-125722533D01*
X186843985Y-125722533D02*
X186653509Y-125627295D01*
X186653509Y-125627295D02*
X186558271Y-125532057D01*
X186558271Y-125532057D02*
X186463033Y-125341580D01*
X184177319Y-124389200D02*
X185891604Y-126960628D01*
X183605890Y-124674914D02*
X183510652Y-124579676D01*
X183510652Y-124579676D02*
X183320176Y-124484438D01*
X183320176Y-124484438D02*
X182843985Y-124484438D01*
X182843985Y-124484438D02*
X182653509Y-124579676D01*
X182653509Y-124579676D02*
X182558271Y-124674914D01*
X182558271Y-124674914D02*
X182463033Y-124865390D01*
X182463033Y-124865390D02*
X182463033Y-125055866D01*
X182463033Y-125055866D02*
X182558271Y-125341580D01*
X182558271Y-125341580D02*
X183701128Y-126484438D01*
X183701128Y-126484438D02*
X182463033Y-126484438D01*
X181224938Y-124484438D02*
X181034461Y-124484438D01*
X181034461Y-124484438D02*
X180843985Y-124579676D01*
X180843985Y-124579676D02*
X180748747Y-124674914D01*
X180748747Y-124674914D02*
X180653509Y-124865390D01*
X180653509Y-124865390D02*
X180558271Y-125246342D01*
X180558271Y-125246342D02*
X180558271Y-125722533D01*
X180558271Y-125722533D02*
X180653509Y-126103485D01*
X180653509Y-126103485D02*
X180748747Y-126293961D01*
X180748747Y-126293961D02*
X180843985Y-126389200D01*
X180843985Y-126389200D02*
X181034461Y-126484438D01*
X181034461Y-126484438D02*
X181224938Y-126484438D01*
X181224938Y-126484438D02*
X181415414Y-126389200D01*
X181415414Y-126389200D02*
X181510652Y-126293961D01*
X181510652Y-126293961D02*
X181605890Y-126103485D01*
X181605890Y-126103485D02*
X181701128Y-125722533D01*
X181701128Y-125722533D02*
X181701128Y-125246342D01*
X181701128Y-125246342D02*
X181605890Y-124865390D01*
X181605890Y-124865390D02*
X181510652Y-124674914D01*
X181510652Y-124674914D02*
X181415414Y-124579676D01*
X181415414Y-124579676D02*
X181224938Y-124484438D01*
X179796366Y-124674914D02*
X179701128Y-124579676D01*
X179701128Y-124579676D02*
X179510652Y-124484438D01*
X179510652Y-124484438D02*
X179034461Y-124484438D01*
X179034461Y-124484438D02*
X178843985Y-124579676D01*
X178843985Y-124579676D02*
X178748747Y-124674914D01*
X178748747Y-124674914D02*
X178653509Y-124865390D01*
X178653509Y-124865390D02*
X178653509Y-125055866D01*
X178653509Y-125055866D02*
X178748747Y-125341580D01*
X178748747Y-125341580D02*
X179891604Y-126484438D01*
X179891604Y-126484438D02*
X178653509Y-126484438D01*
X176843985Y-124484438D02*
X177796366Y-124484438D01*
X177796366Y-124484438D02*
X177891604Y-125436819D01*
X177891604Y-125436819D02*
X177796366Y-125341580D01*
X177796366Y-125341580D02*
X177605890Y-125246342D01*
X177605890Y-125246342D02*
X177129699Y-125246342D01*
X177129699Y-125246342D02*
X176939223Y-125341580D01*
X176939223Y-125341580D02*
X176843985Y-125436819D01*
X176843985Y-125436819D02*
X176748747Y-125627295D01*
X176748747Y-125627295D02*
X176748747Y-126103485D01*
X176748747Y-126103485D02*
X176843985Y-126293961D01*
X176843985Y-126293961D02*
X176939223Y-126389200D01*
X176939223Y-126389200D02*
X177129699Y-126484438D01*
X177129699Y-126484438D02*
X177605890Y-126484438D01*
X177605890Y-126484438D02*
X177796366Y-126389200D01*
X177796366Y-126389200D02*
X177891604Y-126293961D01*
D11*
X130704819Y-67111905D02*
X129704819Y-67111905D01*
X129704819Y-67111905D02*
X129704819Y-67350000D01*
X129704819Y-67350000D02*
X129752438Y-67492857D01*
X129752438Y-67492857D02*
X129847676Y-67588095D01*
X129847676Y-67588095D02*
X129942914Y-67635714D01*
X129942914Y-67635714D02*
X130133390Y-67683333D01*
X130133390Y-67683333D02*
X130276247Y-67683333D01*
X130276247Y-67683333D02*
X130466723Y-67635714D01*
X130466723Y-67635714D02*
X130561961Y-67588095D01*
X130561961Y-67588095D02*
X130657200Y-67492857D01*
X130657200Y-67492857D02*
X130704819Y-67350000D01*
X130704819Y-67350000D02*
X130704819Y-67111905D01*
X129704819Y-68588095D02*
X129704819Y-68111905D01*
X129704819Y-68111905D02*
X130181009Y-68064286D01*
X130181009Y-68064286D02*
X130133390Y-68111905D01*
X130133390Y-68111905D02*
X130085771Y-68207143D01*
X130085771Y-68207143D02*
X130085771Y-68445238D01*
X130085771Y-68445238D02*
X130133390Y-68540476D01*
X130133390Y-68540476D02*
X130181009Y-68588095D01*
X130181009Y-68588095D02*
X130276247Y-68635714D01*
X130276247Y-68635714D02*
X130514342Y-68635714D01*
X130514342Y-68635714D02*
X130609580Y-68588095D01*
X130609580Y-68588095D02*
X130657200Y-68540476D01*
X130657200Y-68540476D02*
X130704819Y-68445238D01*
X130704819Y-68445238D02*
X130704819Y-68207143D01*
X130704819Y-68207143D02*
X130657200Y-68111905D01*
X130657200Y-68111905D02*
X130609580Y-68064286D01*
X162850000Y-82066033D02*
X162850000Y-81366033D01*
X162850000Y-81366033D02*
X162683333Y-81366033D01*
X162683333Y-81366033D02*
X162583333Y-81399366D01*
X162583333Y-81399366D02*
X162516667Y-81466033D01*
X162516667Y-81466033D02*
X162483333Y-81532700D01*
X162483333Y-81532700D02*
X162450000Y-81666033D01*
X162450000Y-81666033D02*
X162450000Y-81766033D01*
X162450000Y-81766033D02*
X162483333Y-81899366D01*
X162483333Y-81899366D02*
X162516667Y-81966033D01*
X162516667Y-81966033D02*
X162583333Y-82032700D01*
X162583333Y-82032700D02*
X162683333Y-82066033D01*
X162683333Y-82066033D02*
X162850000Y-82066033D01*
X161783333Y-82066033D02*
X162183333Y-82066033D01*
X161983333Y-82066033D02*
X161983333Y-81366033D01*
X161983333Y-81366033D02*
X162050000Y-81466033D01*
X162050000Y-81466033D02*
X162116667Y-81532700D01*
X162116667Y-81532700D02*
X162183333Y-81566033D01*
X161450000Y-82066033D02*
X161316666Y-82066033D01*
X161316666Y-82066033D02*
X161250000Y-82032700D01*
X161250000Y-82032700D02*
X161216666Y-81999366D01*
X161216666Y-81999366D02*
X161150000Y-81899366D01*
X161150000Y-81899366D02*
X161116666Y-81766033D01*
X161116666Y-81766033D02*
X161116666Y-81499366D01*
X161116666Y-81499366D02*
X161150000Y-81432700D01*
X161150000Y-81432700D02*
X161183333Y-81399366D01*
X161183333Y-81399366D02*
X161250000Y-81366033D01*
X161250000Y-81366033D02*
X161383333Y-81366033D01*
X161383333Y-81366033D02*
X161450000Y-81399366D01*
X161450000Y-81399366D02*
X161483333Y-81432700D01*
X161483333Y-81432700D02*
X161516666Y-81499366D01*
X161516666Y-81499366D02*
X161516666Y-81666033D01*
X161516666Y-81666033D02*
X161483333Y-81732700D01*
X161483333Y-81732700D02*
X161450000Y-81766033D01*
X161450000Y-81766033D02*
X161383333Y-81799366D01*
X161383333Y-81799366D02*
X161250000Y-81799366D01*
X161250000Y-81799366D02*
X161183333Y-81766033D01*
X161183333Y-81766033D02*
X161150000Y-81732700D01*
X161150000Y-81732700D02*
X161116666Y-81666033D01*
X123774819Y-104873833D02*
X123298628Y-104540500D01*
X123774819Y-104302405D02*
X122774819Y-104302405D01*
X122774819Y-104302405D02*
X122774819Y-104683357D01*
X122774819Y-104683357D02*
X122822438Y-104778595D01*
X122822438Y-104778595D02*
X122870057Y-104826214D01*
X122870057Y-104826214D02*
X122965295Y-104873833D01*
X122965295Y-104873833D02*
X123108152Y-104873833D01*
X123108152Y-104873833D02*
X123203390Y-104826214D01*
X123203390Y-104826214D02*
X123251009Y-104778595D01*
X123251009Y-104778595D02*
X123298628Y-104683357D01*
X123298628Y-104683357D02*
X123298628Y-104302405D01*
X123108152Y-105730976D02*
X123774819Y-105730976D01*
X122727200Y-105492881D02*
X123441485Y-105254786D01*
X123441485Y-105254786D02*
X123441485Y-105873833D01*
X130704819Y-48111905D02*
X129704819Y-48111905D01*
X129704819Y-48111905D02*
X129704819Y-48350000D01*
X129704819Y-48350000D02*
X129752438Y-48492857D01*
X129752438Y-48492857D02*
X129847676Y-48588095D01*
X129847676Y-48588095D02*
X129942914Y-48635714D01*
X129942914Y-48635714D02*
X130133390Y-48683333D01*
X130133390Y-48683333D02*
X130276247Y-48683333D01*
X130276247Y-48683333D02*
X130466723Y-48635714D01*
X130466723Y-48635714D02*
X130561961Y-48588095D01*
X130561961Y-48588095D02*
X130657200Y-48492857D01*
X130657200Y-48492857D02*
X130704819Y-48350000D01*
X130704819Y-48350000D02*
X130704819Y-48111905D01*
X130704819Y-49635714D02*
X130704819Y-49064286D01*
X130704819Y-49350000D02*
X129704819Y-49350000D01*
X129704819Y-49350000D02*
X129847676Y-49254762D01*
X129847676Y-49254762D02*
X129942914Y-49159524D01*
X129942914Y-49159524D02*
X129990533Y-49064286D01*
X143820000Y-122197933D02*
X143820000Y-121497933D01*
X143820000Y-121497933D02*
X143653333Y-121497933D01*
X143653333Y-121497933D02*
X143553333Y-121531266D01*
X143553333Y-121531266D02*
X143486667Y-121597933D01*
X143486667Y-121597933D02*
X143453333Y-121664600D01*
X143453333Y-121664600D02*
X143420000Y-121797933D01*
X143420000Y-121797933D02*
X143420000Y-121897933D01*
X143420000Y-121897933D02*
X143453333Y-122031266D01*
X143453333Y-122031266D02*
X143486667Y-122097933D01*
X143486667Y-122097933D02*
X143553333Y-122164600D01*
X143553333Y-122164600D02*
X143653333Y-122197933D01*
X143653333Y-122197933D02*
X143820000Y-122197933D01*
X143153333Y-121564600D02*
X143120000Y-121531266D01*
X143120000Y-121531266D02*
X143053333Y-121497933D01*
X143053333Y-121497933D02*
X142886667Y-121497933D01*
X142886667Y-121497933D02*
X142820000Y-121531266D01*
X142820000Y-121531266D02*
X142786667Y-121564600D01*
X142786667Y-121564600D02*
X142753333Y-121631266D01*
X142753333Y-121631266D02*
X142753333Y-121697933D01*
X142753333Y-121697933D02*
X142786667Y-121797933D01*
X142786667Y-121797933D02*
X143186667Y-122197933D01*
X143186667Y-122197933D02*
X142753333Y-122197933D01*
X142086666Y-122197933D02*
X142486666Y-122197933D01*
X142286666Y-122197933D02*
X142286666Y-121497933D01*
X142286666Y-121497933D02*
X142353333Y-121597933D01*
X142353333Y-121597933D02*
X142420000Y-121664600D01*
X142420000Y-121664600D02*
X142486666Y-121697933D01*
X137204819Y-107385714D02*
X136204819Y-107385714D01*
X136204819Y-107385714D02*
X136204819Y-107623809D01*
X136204819Y-107623809D02*
X136252438Y-107766666D01*
X136252438Y-107766666D02*
X136347676Y-107861904D01*
X136347676Y-107861904D02*
X136442914Y-107909523D01*
X136442914Y-107909523D02*
X136633390Y-107957142D01*
X136633390Y-107957142D02*
X136776247Y-107957142D01*
X136776247Y-107957142D02*
X136966723Y-107909523D01*
X136966723Y-107909523D02*
X137061961Y-107861904D01*
X137061961Y-107861904D02*
X137157200Y-107766666D01*
X137157200Y-107766666D02*
X137204819Y-107623809D01*
X137204819Y-107623809D02*
X137204819Y-107385714D01*
X137204819Y-108909523D02*
X137204819Y-108338095D01*
X137204819Y-108623809D02*
X136204819Y-108623809D01*
X136204819Y-108623809D02*
X136347676Y-108528571D01*
X136347676Y-108528571D02*
X136442914Y-108433333D01*
X136442914Y-108433333D02*
X136490533Y-108338095D01*
X136204819Y-109528571D02*
X136204819Y-109623809D01*
X136204819Y-109623809D02*
X136252438Y-109719047D01*
X136252438Y-109719047D02*
X136300057Y-109766666D01*
X136300057Y-109766666D02*
X136395295Y-109814285D01*
X136395295Y-109814285D02*
X136585771Y-109861904D01*
X136585771Y-109861904D02*
X136823866Y-109861904D01*
X136823866Y-109861904D02*
X137014342Y-109814285D01*
X137014342Y-109814285D02*
X137109580Y-109766666D01*
X137109580Y-109766666D02*
X137157200Y-109719047D01*
X137157200Y-109719047D02*
X137204819Y-109623809D01*
X137204819Y-109623809D02*
X137204819Y-109528571D01*
X137204819Y-109528571D02*
X137157200Y-109433333D01*
X137157200Y-109433333D02*
X137109580Y-109385714D01*
X137109580Y-109385714D02*
X137014342Y-109338095D01*
X137014342Y-109338095D02*
X136823866Y-109290476D01*
X136823866Y-109290476D02*
X136585771Y-109290476D01*
X136585771Y-109290476D02*
X136395295Y-109338095D01*
X136395295Y-109338095D02*
X136300057Y-109385714D01*
X136300057Y-109385714D02*
X136252438Y-109433333D01*
X136252438Y-109433333D02*
X136204819Y-109528571D01*
X141166666Y-102754819D02*
X141499999Y-102278628D01*
X141738094Y-102754819D02*
X141738094Y-101754819D01*
X141738094Y-101754819D02*
X141357142Y-101754819D01*
X141357142Y-101754819D02*
X141261904Y-101802438D01*
X141261904Y-101802438D02*
X141214285Y-101850057D01*
X141214285Y-101850057D02*
X141166666Y-101945295D01*
X141166666Y-101945295D02*
X141166666Y-102088152D01*
X141166666Y-102088152D02*
X141214285Y-102183390D01*
X141214285Y-102183390D02*
X141261904Y-102231009D01*
X141261904Y-102231009D02*
X141357142Y-102278628D01*
X141357142Y-102278628D02*
X141738094Y-102278628D01*
X140214285Y-102754819D02*
X140785713Y-102754819D01*
X140499999Y-102754819D02*
X140499999Y-101754819D01*
X140499999Y-101754819D02*
X140595237Y-101897676D01*
X140595237Y-101897676D02*
X140690475Y-101992914D01*
X140690475Y-101992914D02*
X140785713Y-102040533D01*
X181950000Y-62866033D02*
X181950000Y-62166033D01*
X181950000Y-62166033D02*
X181783333Y-62166033D01*
X181783333Y-62166033D02*
X181683333Y-62199366D01*
X181683333Y-62199366D02*
X181616667Y-62266033D01*
X181616667Y-62266033D02*
X181583333Y-62332700D01*
X181583333Y-62332700D02*
X181550000Y-62466033D01*
X181550000Y-62466033D02*
X181550000Y-62566033D01*
X181550000Y-62566033D02*
X181583333Y-62699366D01*
X181583333Y-62699366D02*
X181616667Y-62766033D01*
X181616667Y-62766033D02*
X181683333Y-62832700D01*
X181683333Y-62832700D02*
X181783333Y-62866033D01*
X181783333Y-62866033D02*
X181950000Y-62866033D01*
X180883333Y-62866033D02*
X181283333Y-62866033D01*
X181083333Y-62866033D02*
X181083333Y-62166033D01*
X181083333Y-62166033D02*
X181150000Y-62266033D01*
X181150000Y-62266033D02*
X181216667Y-62332700D01*
X181216667Y-62332700D02*
X181283333Y-62366033D01*
X180283333Y-62166033D02*
X180416666Y-62166033D01*
X180416666Y-62166033D02*
X180483333Y-62199366D01*
X180483333Y-62199366D02*
X180516666Y-62232700D01*
X180516666Y-62232700D02*
X180583333Y-62332700D01*
X180583333Y-62332700D02*
X180616666Y-62466033D01*
X180616666Y-62466033D02*
X180616666Y-62732700D01*
X180616666Y-62732700D02*
X180583333Y-62799366D01*
X180583333Y-62799366D02*
X180550000Y-62832700D01*
X180550000Y-62832700D02*
X180483333Y-62866033D01*
X180483333Y-62866033D02*
X180350000Y-62866033D01*
X180350000Y-62866033D02*
X180283333Y-62832700D01*
X180283333Y-62832700D02*
X180250000Y-62799366D01*
X180250000Y-62799366D02*
X180216666Y-62732700D01*
X180216666Y-62732700D02*
X180216666Y-62566033D01*
X180216666Y-62566033D02*
X180250000Y-62499366D01*
X180250000Y-62499366D02*
X180283333Y-62466033D01*
X180283333Y-62466033D02*
X180350000Y-62432700D01*
X180350000Y-62432700D02*
X180483333Y-62432700D01*
X180483333Y-62432700D02*
X180550000Y-62466033D01*
X180550000Y-62466033D02*
X180583333Y-62499366D01*
X180583333Y-62499366D02*
X180616666Y-62566033D01*
X181950000Y-81916033D02*
X181950000Y-81216033D01*
X181950000Y-81216033D02*
X181783333Y-81216033D01*
X181783333Y-81216033D02*
X181683333Y-81249366D01*
X181683333Y-81249366D02*
X181616667Y-81316033D01*
X181616667Y-81316033D02*
X181583333Y-81382700D01*
X181583333Y-81382700D02*
X181550000Y-81516033D01*
X181550000Y-81516033D02*
X181550000Y-81616033D01*
X181550000Y-81616033D02*
X181583333Y-81749366D01*
X181583333Y-81749366D02*
X181616667Y-81816033D01*
X181616667Y-81816033D02*
X181683333Y-81882700D01*
X181683333Y-81882700D02*
X181783333Y-81916033D01*
X181783333Y-81916033D02*
X181950000Y-81916033D01*
X181283333Y-81282700D02*
X181250000Y-81249366D01*
X181250000Y-81249366D02*
X181183333Y-81216033D01*
X181183333Y-81216033D02*
X181016667Y-81216033D01*
X181016667Y-81216033D02*
X180950000Y-81249366D01*
X180950000Y-81249366D02*
X180916667Y-81282700D01*
X180916667Y-81282700D02*
X180883333Y-81349366D01*
X180883333Y-81349366D02*
X180883333Y-81416033D01*
X180883333Y-81416033D02*
X180916667Y-81516033D01*
X180916667Y-81516033D02*
X181316667Y-81916033D01*
X181316667Y-81916033D02*
X180883333Y-81916033D01*
X180450000Y-81216033D02*
X180383333Y-81216033D01*
X180383333Y-81216033D02*
X180316666Y-81249366D01*
X180316666Y-81249366D02*
X180283333Y-81282700D01*
X180283333Y-81282700D02*
X180250000Y-81349366D01*
X180250000Y-81349366D02*
X180216666Y-81482700D01*
X180216666Y-81482700D02*
X180216666Y-81649366D01*
X180216666Y-81649366D02*
X180250000Y-81782700D01*
X180250000Y-81782700D02*
X180283333Y-81849366D01*
X180283333Y-81849366D02*
X180316666Y-81882700D01*
X180316666Y-81882700D02*
X180383333Y-81916033D01*
X180383333Y-81916033D02*
X180450000Y-81916033D01*
X180450000Y-81916033D02*
X180516666Y-81882700D01*
X180516666Y-81882700D02*
X180550000Y-81849366D01*
X180550000Y-81849366D02*
X180583333Y-81782700D01*
X180583333Y-81782700D02*
X180616666Y-81649366D01*
X180616666Y-81649366D02*
X180616666Y-81482700D01*
X180616666Y-81482700D02*
X180583333Y-81349366D01*
X180583333Y-81349366D02*
X180550000Y-81282700D01*
X180550000Y-81282700D02*
X180516666Y-81249366D01*
X180516666Y-81249366D02*
X180450000Y-81216033D01*
X121954819Y-104856333D02*
X121478628Y-104523000D01*
X121954819Y-104284905D02*
X120954819Y-104284905D01*
X120954819Y-104284905D02*
X120954819Y-104665857D01*
X120954819Y-104665857D02*
X121002438Y-104761095D01*
X121002438Y-104761095D02*
X121050057Y-104808714D01*
X121050057Y-104808714D02*
X121145295Y-104856333D01*
X121145295Y-104856333D02*
X121288152Y-104856333D01*
X121288152Y-104856333D02*
X121383390Y-104808714D01*
X121383390Y-104808714D02*
X121431009Y-104761095D01*
X121431009Y-104761095D02*
X121478628Y-104665857D01*
X121478628Y-104665857D02*
X121478628Y-104284905D01*
X120954819Y-105761095D02*
X120954819Y-105284905D01*
X120954819Y-105284905D02*
X121431009Y-105237286D01*
X121431009Y-105237286D02*
X121383390Y-105284905D01*
X121383390Y-105284905D02*
X121335771Y-105380143D01*
X121335771Y-105380143D02*
X121335771Y-105618238D01*
X121335771Y-105618238D02*
X121383390Y-105713476D01*
X121383390Y-105713476D02*
X121431009Y-105761095D01*
X121431009Y-105761095D02*
X121526247Y-105808714D01*
X121526247Y-105808714D02*
X121764342Y-105808714D01*
X121764342Y-105808714D02*
X121859580Y-105761095D01*
X121859580Y-105761095D02*
X121907200Y-105713476D01*
X121907200Y-105713476D02*
X121954819Y-105618238D01*
X121954819Y-105618238D02*
X121954819Y-105380143D01*
X121954819Y-105380143D02*
X121907200Y-105284905D01*
X121907200Y-105284905D02*
X121859580Y-105237286D01*
X149704819Y-48111905D02*
X148704819Y-48111905D01*
X148704819Y-48111905D02*
X148704819Y-48350000D01*
X148704819Y-48350000D02*
X148752438Y-48492857D01*
X148752438Y-48492857D02*
X148847676Y-48588095D01*
X148847676Y-48588095D02*
X148942914Y-48635714D01*
X148942914Y-48635714D02*
X149133390Y-48683333D01*
X149133390Y-48683333D02*
X149276247Y-48683333D01*
X149276247Y-48683333D02*
X149466723Y-48635714D01*
X149466723Y-48635714D02*
X149561961Y-48588095D01*
X149561961Y-48588095D02*
X149657200Y-48492857D01*
X149657200Y-48492857D02*
X149704819Y-48350000D01*
X149704819Y-48350000D02*
X149704819Y-48111905D01*
X148800057Y-49064286D02*
X148752438Y-49111905D01*
X148752438Y-49111905D02*
X148704819Y-49207143D01*
X148704819Y-49207143D02*
X148704819Y-49445238D01*
X148704819Y-49445238D02*
X148752438Y-49540476D01*
X148752438Y-49540476D02*
X148800057Y-49588095D01*
X148800057Y-49588095D02*
X148895295Y-49635714D01*
X148895295Y-49635714D02*
X148990533Y-49635714D01*
X148990533Y-49635714D02*
X149133390Y-49588095D01*
X149133390Y-49588095D02*
X149704819Y-49016667D01*
X149704819Y-49016667D02*
X149704819Y-49635714D01*
X168854819Y-67161905D02*
X167854819Y-67161905D01*
X167854819Y-67161905D02*
X167854819Y-67400000D01*
X167854819Y-67400000D02*
X167902438Y-67542857D01*
X167902438Y-67542857D02*
X167997676Y-67638095D01*
X167997676Y-67638095D02*
X168092914Y-67685714D01*
X168092914Y-67685714D02*
X168283390Y-67733333D01*
X168283390Y-67733333D02*
X168426247Y-67733333D01*
X168426247Y-67733333D02*
X168616723Y-67685714D01*
X168616723Y-67685714D02*
X168711961Y-67638095D01*
X168711961Y-67638095D02*
X168807200Y-67542857D01*
X168807200Y-67542857D02*
X168854819Y-67400000D01*
X168854819Y-67400000D02*
X168854819Y-67161905D01*
X167854819Y-68066667D02*
X167854819Y-68733333D01*
X167854819Y-68733333D02*
X168854819Y-68304762D01*
X115554819Y-104856333D02*
X115078628Y-104523000D01*
X115554819Y-104284905D02*
X114554819Y-104284905D01*
X114554819Y-104284905D02*
X114554819Y-104665857D01*
X114554819Y-104665857D02*
X114602438Y-104761095D01*
X114602438Y-104761095D02*
X114650057Y-104808714D01*
X114650057Y-104808714D02*
X114745295Y-104856333D01*
X114745295Y-104856333D02*
X114888152Y-104856333D01*
X114888152Y-104856333D02*
X114983390Y-104808714D01*
X114983390Y-104808714D02*
X115031009Y-104761095D01*
X115031009Y-104761095D02*
X115078628Y-104665857D01*
X115078628Y-104665857D02*
X115078628Y-104284905D01*
X114554819Y-105713476D02*
X114554819Y-105523000D01*
X114554819Y-105523000D02*
X114602438Y-105427762D01*
X114602438Y-105427762D02*
X114650057Y-105380143D01*
X114650057Y-105380143D02*
X114792914Y-105284905D01*
X114792914Y-105284905D02*
X114983390Y-105237286D01*
X114983390Y-105237286D02*
X115364342Y-105237286D01*
X115364342Y-105237286D02*
X115459580Y-105284905D01*
X115459580Y-105284905D02*
X115507200Y-105332524D01*
X115507200Y-105332524D02*
X115554819Y-105427762D01*
X115554819Y-105427762D02*
X115554819Y-105618238D01*
X115554819Y-105618238D02*
X115507200Y-105713476D01*
X115507200Y-105713476D02*
X115459580Y-105761095D01*
X115459580Y-105761095D02*
X115364342Y-105808714D01*
X115364342Y-105808714D02*
X115126247Y-105808714D01*
X115126247Y-105808714D02*
X115031009Y-105761095D01*
X115031009Y-105761095D02*
X114983390Y-105713476D01*
X114983390Y-105713476D02*
X114935771Y-105618238D01*
X114935771Y-105618238D02*
X114935771Y-105427762D01*
X114935771Y-105427762D02*
X114983390Y-105332524D01*
X114983390Y-105332524D02*
X115031009Y-105284905D01*
X115031009Y-105284905D02*
X115126247Y-105237286D01*
X187754819Y-67261905D02*
X186754819Y-67261905D01*
X186754819Y-67261905D02*
X186754819Y-67500000D01*
X186754819Y-67500000D02*
X186802438Y-67642857D01*
X186802438Y-67642857D02*
X186897676Y-67738095D01*
X186897676Y-67738095D02*
X186992914Y-67785714D01*
X186992914Y-67785714D02*
X187183390Y-67833333D01*
X187183390Y-67833333D02*
X187326247Y-67833333D01*
X187326247Y-67833333D02*
X187516723Y-67785714D01*
X187516723Y-67785714D02*
X187611961Y-67738095D01*
X187611961Y-67738095D02*
X187707200Y-67642857D01*
X187707200Y-67642857D02*
X187754819Y-67500000D01*
X187754819Y-67500000D02*
X187754819Y-67261905D01*
X187183390Y-68404762D02*
X187135771Y-68309524D01*
X187135771Y-68309524D02*
X187088152Y-68261905D01*
X187088152Y-68261905D02*
X186992914Y-68214286D01*
X186992914Y-68214286D02*
X186945295Y-68214286D01*
X186945295Y-68214286D02*
X186850057Y-68261905D01*
X186850057Y-68261905D02*
X186802438Y-68309524D01*
X186802438Y-68309524D02*
X186754819Y-68404762D01*
X186754819Y-68404762D02*
X186754819Y-68595238D01*
X186754819Y-68595238D02*
X186802438Y-68690476D01*
X186802438Y-68690476D02*
X186850057Y-68738095D01*
X186850057Y-68738095D02*
X186945295Y-68785714D01*
X186945295Y-68785714D02*
X186992914Y-68785714D01*
X186992914Y-68785714D02*
X187088152Y-68738095D01*
X187088152Y-68738095D02*
X187135771Y-68690476D01*
X187135771Y-68690476D02*
X187183390Y-68595238D01*
X187183390Y-68595238D02*
X187183390Y-68404762D01*
X187183390Y-68404762D02*
X187231009Y-68309524D01*
X187231009Y-68309524D02*
X187278628Y-68261905D01*
X187278628Y-68261905D02*
X187373866Y-68214286D01*
X187373866Y-68214286D02*
X187564342Y-68214286D01*
X187564342Y-68214286D02*
X187659580Y-68261905D01*
X187659580Y-68261905D02*
X187707200Y-68309524D01*
X187707200Y-68309524D02*
X187754819Y-68404762D01*
X187754819Y-68404762D02*
X187754819Y-68595238D01*
X187754819Y-68595238D02*
X187707200Y-68690476D01*
X187707200Y-68690476D02*
X187659580Y-68738095D01*
X187659580Y-68738095D02*
X187564342Y-68785714D01*
X187564342Y-68785714D02*
X187373866Y-68785714D01*
X187373866Y-68785714D02*
X187278628Y-68738095D01*
X187278628Y-68738095D02*
X187231009Y-68690476D01*
X187231009Y-68690476D02*
X187183390Y-68595238D01*
X168954819Y-48111905D02*
X167954819Y-48111905D01*
X167954819Y-48111905D02*
X167954819Y-48350000D01*
X167954819Y-48350000D02*
X168002438Y-48492857D01*
X168002438Y-48492857D02*
X168097676Y-48588095D01*
X168097676Y-48588095D02*
X168192914Y-48635714D01*
X168192914Y-48635714D02*
X168383390Y-48683333D01*
X168383390Y-48683333D02*
X168526247Y-48683333D01*
X168526247Y-48683333D02*
X168716723Y-48635714D01*
X168716723Y-48635714D02*
X168811961Y-48588095D01*
X168811961Y-48588095D02*
X168907200Y-48492857D01*
X168907200Y-48492857D02*
X168954819Y-48350000D01*
X168954819Y-48350000D02*
X168954819Y-48111905D01*
X167954819Y-49016667D02*
X167954819Y-49635714D01*
X167954819Y-49635714D02*
X168335771Y-49302381D01*
X168335771Y-49302381D02*
X168335771Y-49445238D01*
X168335771Y-49445238D02*
X168383390Y-49540476D01*
X168383390Y-49540476D02*
X168431009Y-49588095D01*
X168431009Y-49588095D02*
X168526247Y-49635714D01*
X168526247Y-49635714D02*
X168764342Y-49635714D01*
X168764342Y-49635714D02*
X168859580Y-49588095D01*
X168859580Y-49588095D02*
X168907200Y-49540476D01*
X168907200Y-49540476D02*
X168954819Y-49445238D01*
X168954819Y-49445238D02*
X168954819Y-49159524D01*
X168954819Y-49159524D02*
X168907200Y-49064286D01*
X168907200Y-49064286D02*
X168859580Y-49016667D01*
X143850000Y-81916033D02*
X143850000Y-81216033D01*
X143850000Y-81216033D02*
X143683333Y-81216033D01*
X143683333Y-81216033D02*
X143583333Y-81249366D01*
X143583333Y-81249366D02*
X143516667Y-81316033D01*
X143516667Y-81316033D02*
X143483333Y-81382700D01*
X143483333Y-81382700D02*
X143450000Y-81516033D01*
X143450000Y-81516033D02*
X143450000Y-81616033D01*
X143450000Y-81616033D02*
X143483333Y-81749366D01*
X143483333Y-81749366D02*
X143516667Y-81816033D01*
X143516667Y-81816033D02*
X143583333Y-81882700D01*
X143583333Y-81882700D02*
X143683333Y-81916033D01*
X143683333Y-81916033D02*
X143850000Y-81916033D01*
X142783333Y-81916033D02*
X143183333Y-81916033D01*
X142983333Y-81916033D02*
X142983333Y-81216033D01*
X142983333Y-81216033D02*
X143050000Y-81316033D01*
X143050000Y-81316033D02*
X143116667Y-81382700D01*
X143116667Y-81382700D02*
X143183333Y-81416033D01*
X142383333Y-81516033D02*
X142450000Y-81482700D01*
X142450000Y-81482700D02*
X142483333Y-81449366D01*
X142483333Y-81449366D02*
X142516666Y-81382700D01*
X142516666Y-81382700D02*
X142516666Y-81349366D01*
X142516666Y-81349366D02*
X142483333Y-81282700D01*
X142483333Y-81282700D02*
X142450000Y-81249366D01*
X142450000Y-81249366D02*
X142383333Y-81216033D01*
X142383333Y-81216033D02*
X142250000Y-81216033D01*
X142250000Y-81216033D02*
X142183333Y-81249366D01*
X142183333Y-81249366D02*
X142150000Y-81282700D01*
X142150000Y-81282700D02*
X142116666Y-81349366D01*
X142116666Y-81349366D02*
X142116666Y-81382700D01*
X142116666Y-81382700D02*
X142150000Y-81449366D01*
X142150000Y-81449366D02*
X142183333Y-81482700D01*
X142183333Y-81482700D02*
X142250000Y-81516033D01*
X142250000Y-81516033D02*
X142383333Y-81516033D01*
X142383333Y-81516033D02*
X142450000Y-81549366D01*
X142450000Y-81549366D02*
X142483333Y-81582700D01*
X142483333Y-81582700D02*
X142516666Y-81649366D01*
X142516666Y-81649366D02*
X142516666Y-81782700D01*
X142516666Y-81782700D02*
X142483333Y-81849366D01*
X142483333Y-81849366D02*
X142450000Y-81882700D01*
X142450000Y-81882700D02*
X142383333Y-81916033D01*
X142383333Y-81916033D02*
X142250000Y-81916033D01*
X142250000Y-81916033D02*
X142183333Y-81882700D01*
X142183333Y-81882700D02*
X142150000Y-81849366D01*
X142150000Y-81849366D02*
X142116666Y-81782700D01*
X142116666Y-81782700D02*
X142116666Y-81649366D01*
X142116666Y-81649366D02*
X142150000Y-81582700D01*
X142150000Y-81582700D02*
X142183333Y-81549366D01*
X142183333Y-81549366D02*
X142250000Y-81516033D01*
X143850000Y-62866033D02*
X143850000Y-62166033D01*
X143850000Y-62166033D02*
X143683333Y-62166033D01*
X143683333Y-62166033D02*
X143583333Y-62199366D01*
X143583333Y-62199366D02*
X143516667Y-62266033D01*
X143516667Y-62266033D02*
X143483333Y-62332700D01*
X143483333Y-62332700D02*
X143450000Y-62466033D01*
X143450000Y-62466033D02*
X143450000Y-62566033D01*
X143450000Y-62566033D02*
X143483333Y-62699366D01*
X143483333Y-62699366D02*
X143516667Y-62766033D01*
X143516667Y-62766033D02*
X143583333Y-62832700D01*
X143583333Y-62832700D02*
X143683333Y-62866033D01*
X143683333Y-62866033D02*
X143850000Y-62866033D01*
X142783333Y-62866033D02*
X143183333Y-62866033D01*
X142983333Y-62866033D02*
X142983333Y-62166033D01*
X142983333Y-62166033D02*
X143050000Y-62266033D01*
X143050000Y-62266033D02*
X143116667Y-62332700D01*
X143116667Y-62332700D02*
X143183333Y-62366033D01*
X142183333Y-62399366D02*
X142183333Y-62866033D01*
X142350000Y-62132700D02*
X142516666Y-62632700D01*
X142516666Y-62632700D02*
X142083333Y-62632700D01*
X124800000Y-62866033D02*
X124800000Y-62166033D01*
X124800000Y-62166033D02*
X124633333Y-62166033D01*
X124633333Y-62166033D02*
X124533333Y-62199366D01*
X124533333Y-62199366D02*
X124466667Y-62266033D01*
X124466667Y-62266033D02*
X124433333Y-62332700D01*
X124433333Y-62332700D02*
X124400000Y-62466033D01*
X124400000Y-62466033D02*
X124400000Y-62566033D01*
X124400000Y-62566033D02*
X124433333Y-62699366D01*
X124433333Y-62699366D02*
X124466667Y-62766033D01*
X124466667Y-62766033D02*
X124533333Y-62832700D01*
X124533333Y-62832700D02*
X124633333Y-62866033D01*
X124633333Y-62866033D02*
X124800000Y-62866033D01*
X123733333Y-62866033D02*
X124133333Y-62866033D01*
X123933333Y-62866033D02*
X123933333Y-62166033D01*
X123933333Y-62166033D02*
X124000000Y-62266033D01*
X124000000Y-62266033D02*
X124066667Y-62332700D01*
X124066667Y-62332700D02*
X124133333Y-62366033D01*
X123500000Y-62166033D02*
X123066666Y-62166033D01*
X123066666Y-62166033D02*
X123300000Y-62432700D01*
X123300000Y-62432700D02*
X123200000Y-62432700D01*
X123200000Y-62432700D02*
X123133333Y-62466033D01*
X123133333Y-62466033D02*
X123100000Y-62499366D01*
X123100000Y-62499366D02*
X123066666Y-62566033D01*
X123066666Y-62566033D02*
X123066666Y-62732700D01*
X123066666Y-62732700D02*
X123100000Y-62799366D01*
X123100000Y-62799366D02*
X123133333Y-62832700D01*
X123133333Y-62832700D02*
X123200000Y-62866033D01*
X123200000Y-62866033D02*
X123400000Y-62866033D01*
X123400000Y-62866033D02*
X123466666Y-62832700D01*
X123466666Y-62832700D02*
X123500000Y-62799366D01*
X124800000Y-81916033D02*
X124800000Y-81216033D01*
X124800000Y-81216033D02*
X124633333Y-81216033D01*
X124633333Y-81216033D02*
X124533333Y-81249366D01*
X124533333Y-81249366D02*
X124466667Y-81316033D01*
X124466667Y-81316033D02*
X124433333Y-81382700D01*
X124433333Y-81382700D02*
X124400000Y-81516033D01*
X124400000Y-81516033D02*
X124400000Y-81616033D01*
X124400000Y-81616033D02*
X124433333Y-81749366D01*
X124433333Y-81749366D02*
X124466667Y-81816033D01*
X124466667Y-81816033D02*
X124533333Y-81882700D01*
X124533333Y-81882700D02*
X124633333Y-81916033D01*
X124633333Y-81916033D02*
X124800000Y-81916033D01*
X123733333Y-81916033D02*
X124133333Y-81916033D01*
X123933333Y-81916033D02*
X123933333Y-81216033D01*
X123933333Y-81216033D02*
X124000000Y-81316033D01*
X124000000Y-81316033D02*
X124066667Y-81382700D01*
X124066667Y-81382700D02*
X124133333Y-81416033D01*
X123500000Y-81216033D02*
X123033333Y-81216033D01*
X123033333Y-81216033D02*
X123333333Y-81916033D01*
X164738094Y-106454819D02*
X164738094Y-105454819D01*
X164738094Y-105454819D02*
X164499999Y-105454819D01*
X164499999Y-105454819D02*
X164357142Y-105502438D01*
X164357142Y-105502438D02*
X164261904Y-105597676D01*
X164261904Y-105597676D02*
X164214285Y-105692914D01*
X164214285Y-105692914D02*
X164166666Y-105883390D01*
X164166666Y-105883390D02*
X164166666Y-106026247D01*
X164166666Y-106026247D02*
X164214285Y-106216723D01*
X164214285Y-106216723D02*
X164261904Y-106311961D01*
X164261904Y-106311961D02*
X164357142Y-106407200D01*
X164357142Y-106407200D02*
X164499999Y-106454819D01*
X164499999Y-106454819D02*
X164738094Y-106454819D01*
X163690475Y-106454819D02*
X163499999Y-106454819D01*
X163499999Y-106454819D02*
X163404761Y-106407200D01*
X163404761Y-106407200D02*
X163357142Y-106359580D01*
X163357142Y-106359580D02*
X163261904Y-106216723D01*
X163261904Y-106216723D02*
X163214285Y-106026247D01*
X163214285Y-106026247D02*
X163214285Y-105645295D01*
X163214285Y-105645295D02*
X163261904Y-105550057D01*
X163261904Y-105550057D02*
X163309523Y-105502438D01*
X163309523Y-105502438D02*
X163404761Y-105454819D01*
X163404761Y-105454819D02*
X163595237Y-105454819D01*
X163595237Y-105454819D02*
X163690475Y-105502438D01*
X163690475Y-105502438D02*
X163738094Y-105550057D01*
X163738094Y-105550057D02*
X163785713Y-105645295D01*
X163785713Y-105645295D02*
X163785713Y-105883390D01*
X163785713Y-105883390D02*
X163738094Y-105978628D01*
X163738094Y-105978628D02*
X163690475Y-106026247D01*
X163690475Y-106026247D02*
X163595237Y-106073866D01*
X163595237Y-106073866D02*
X163404761Y-106073866D01*
X163404761Y-106073866D02*
X163309523Y-106026247D01*
X163309523Y-106026247D02*
X163261904Y-105978628D01*
X163261904Y-105978628D02*
X163214285Y-105883390D01*
X117850849Y-98309961D02*
X117850849Y-99638988D01*
X117850849Y-99638988D02*
X117772671Y-99795344D01*
X117772671Y-99795344D02*
X117694493Y-99873523D01*
X117694493Y-99873523D02*
X117538137Y-99951701D01*
X117538137Y-99951701D02*
X117225424Y-99951701D01*
X117225424Y-99951701D02*
X117069068Y-99873523D01*
X117069068Y-99873523D02*
X116990890Y-99795344D01*
X116990890Y-99795344D02*
X116912712Y-99638988D01*
X116912712Y-99638988D02*
X116912712Y-98309961D01*
X115270972Y-99951701D02*
X116209109Y-99951701D01*
X115740041Y-99951701D02*
X115740041Y-98309961D01*
X115740041Y-98309961D02*
X115896397Y-98544495D01*
X115896397Y-98544495D02*
X116052753Y-98700851D01*
X116052753Y-98700851D02*
X116209109Y-98779029D01*
X162900000Y-62866033D02*
X162900000Y-62166033D01*
X162900000Y-62166033D02*
X162733333Y-62166033D01*
X162733333Y-62166033D02*
X162633333Y-62199366D01*
X162633333Y-62199366D02*
X162566667Y-62266033D01*
X162566667Y-62266033D02*
X162533333Y-62332700D01*
X162533333Y-62332700D02*
X162500000Y-62466033D01*
X162500000Y-62466033D02*
X162500000Y-62566033D01*
X162500000Y-62566033D02*
X162533333Y-62699366D01*
X162533333Y-62699366D02*
X162566667Y-62766033D01*
X162566667Y-62766033D02*
X162633333Y-62832700D01*
X162633333Y-62832700D02*
X162733333Y-62866033D01*
X162733333Y-62866033D02*
X162900000Y-62866033D01*
X161833333Y-62866033D02*
X162233333Y-62866033D01*
X162033333Y-62866033D02*
X162033333Y-62166033D01*
X162033333Y-62166033D02*
X162100000Y-62266033D01*
X162100000Y-62266033D02*
X162166667Y-62332700D01*
X162166667Y-62332700D02*
X162233333Y-62366033D01*
X161200000Y-62166033D02*
X161533333Y-62166033D01*
X161533333Y-62166033D02*
X161566666Y-62499366D01*
X161566666Y-62499366D02*
X161533333Y-62466033D01*
X161533333Y-62466033D02*
X161466666Y-62432700D01*
X161466666Y-62432700D02*
X161300000Y-62432700D01*
X161300000Y-62432700D02*
X161233333Y-62466033D01*
X161233333Y-62466033D02*
X161200000Y-62499366D01*
X161200000Y-62499366D02*
X161166666Y-62566033D01*
X161166666Y-62566033D02*
X161166666Y-62732700D01*
X161166666Y-62732700D02*
X161200000Y-62799366D01*
X161200000Y-62799366D02*
X161233333Y-62832700D01*
X161233333Y-62832700D02*
X161300000Y-62866033D01*
X161300000Y-62866033D02*
X161466666Y-62866033D01*
X161466666Y-62866033D02*
X161533333Y-62832700D01*
X161533333Y-62832700D02*
X161566666Y-62799366D01*
X170014285Y-106354819D02*
X170014285Y-105354819D01*
X170014285Y-105354819D02*
X169776190Y-105354819D01*
X169776190Y-105354819D02*
X169633333Y-105402438D01*
X169633333Y-105402438D02*
X169538095Y-105497676D01*
X169538095Y-105497676D02*
X169490476Y-105592914D01*
X169490476Y-105592914D02*
X169442857Y-105783390D01*
X169442857Y-105783390D02*
X169442857Y-105926247D01*
X169442857Y-105926247D02*
X169490476Y-106116723D01*
X169490476Y-106116723D02*
X169538095Y-106211961D01*
X169538095Y-106211961D02*
X169633333Y-106307200D01*
X169633333Y-106307200D02*
X169776190Y-106354819D01*
X169776190Y-106354819D02*
X170014285Y-106354819D01*
X168490476Y-106354819D02*
X169061904Y-106354819D01*
X168776190Y-106354819D02*
X168776190Y-105354819D01*
X168776190Y-105354819D02*
X168871428Y-105497676D01*
X168871428Y-105497676D02*
X168966666Y-105592914D01*
X168966666Y-105592914D02*
X169061904Y-105640533D01*
X167538095Y-106354819D02*
X168109523Y-106354819D01*
X167823809Y-106354819D02*
X167823809Y-105354819D01*
X167823809Y-105354819D02*
X167919047Y-105497676D01*
X167919047Y-105497676D02*
X168014285Y-105592914D01*
X168014285Y-105592914D02*
X168109523Y-105640533D01*
X136166666Y-102754819D02*
X136499999Y-102278628D01*
X136738094Y-102754819D02*
X136738094Y-101754819D01*
X136738094Y-101754819D02*
X136357142Y-101754819D01*
X136357142Y-101754819D02*
X136261904Y-101802438D01*
X136261904Y-101802438D02*
X136214285Y-101850057D01*
X136214285Y-101850057D02*
X136166666Y-101945295D01*
X136166666Y-101945295D02*
X136166666Y-102088152D01*
X136166666Y-102088152D02*
X136214285Y-102183390D01*
X136214285Y-102183390D02*
X136261904Y-102231009D01*
X136261904Y-102231009D02*
X136357142Y-102278628D01*
X136357142Y-102278628D02*
X136738094Y-102278628D01*
X135785713Y-101850057D02*
X135738094Y-101802438D01*
X135738094Y-101802438D02*
X135642856Y-101754819D01*
X135642856Y-101754819D02*
X135404761Y-101754819D01*
X135404761Y-101754819D02*
X135309523Y-101802438D01*
X135309523Y-101802438D02*
X135261904Y-101850057D01*
X135261904Y-101850057D02*
X135214285Y-101945295D01*
X135214285Y-101945295D02*
X135214285Y-102040533D01*
X135214285Y-102040533D02*
X135261904Y-102183390D01*
X135261904Y-102183390D02*
X135833332Y-102754819D01*
X135833332Y-102754819D02*
X135214285Y-102754819D01*
X187954819Y-48111905D02*
X186954819Y-48111905D01*
X186954819Y-48111905D02*
X186954819Y-48350000D01*
X186954819Y-48350000D02*
X187002438Y-48492857D01*
X187002438Y-48492857D02*
X187097676Y-48588095D01*
X187097676Y-48588095D02*
X187192914Y-48635714D01*
X187192914Y-48635714D02*
X187383390Y-48683333D01*
X187383390Y-48683333D02*
X187526247Y-48683333D01*
X187526247Y-48683333D02*
X187716723Y-48635714D01*
X187716723Y-48635714D02*
X187811961Y-48588095D01*
X187811961Y-48588095D02*
X187907200Y-48492857D01*
X187907200Y-48492857D02*
X187954819Y-48350000D01*
X187954819Y-48350000D02*
X187954819Y-48111905D01*
X187288152Y-49540476D02*
X187954819Y-49540476D01*
X186907200Y-49302381D02*
X187621485Y-49064286D01*
X187621485Y-49064286D02*
X187621485Y-49683333D01*
X130654819Y-107385714D02*
X129654819Y-107385714D01*
X129654819Y-107385714D02*
X129654819Y-107623809D01*
X129654819Y-107623809D02*
X129702438Y-107766666D01*
X129702438Y-107766666D02*
X129797676Y-107861904D01*
X129797676Y-107861904D02*
X129892914Y-107909523D01*
X129892914Y-107909523D02*
X130083390Y-107957142D01*
X130083390Y-107957142D02*
X130226247Y-107957142D01*
X130226247Y-107957142D02*
X130416723Y-107909523D01*
X130416723Y-107909523D02*
X130511961Y-107861904D01*
X130511961Y-107861904D02*
X130607200Y-107766666D01*
X130607200Y-107766666D02*
X130654819Y-107623809D01*
X130654819Y-107623809D02*
X130654819Y-107385714D01*
X130654819Y-108909523D02*
X130654819Y-108338095D01*
X130654819Y-108623809D02*
X129654819Y-108623809D01*
X129654819Y-108623809D02*
X129797676Y-108528571D01*
X129797676Y-108528571D02*
X129892914Y-108433333D01*
X129892914Y-108433333D02*
X129940533Y-108338095D01*
X129750057Y-109290476D02*
X129702438Y-109338095D01*
X129702438Y-109338095D02*
X129654819Y-109433333D01*
X129654819Y-109433333D02*
X129654819Y-109671428D01*
X129654819Y-109671428D02*
X129702438Y-109766666D01*
X129702438Y-109766666D02*
X129750057Y-109814285D01*
X129750057Y-109814285D02*
X129845295Y-109861904D01*
X129845295Y-109861904D02*
X129940533Y-109861904D01*
X129940533Y-109861904D02*
X130083390Y-109814285D01*
X130083390Y-109814285D02*
X130654819Y-109242857D01*
X130654819Y-109242857D02*
X130654819Y-109861904D01*
X130074819Y-104911333D02*
X129598628Y-104578000D01*
X130074819Y-104339905D02*
X129074819Y-104339905D01*
X129074819Y-104339905D02*
X129074819Y-104720857D01*
X129074819Y-104720857D02*
X129122438Y-104816095D01*
X129122438Y-104816095D02*
X129170057Y-104863714D01*
X129170057Y-104863714D02*
X129265295Y-104911333D01*
X129265295Y-104911333D02*
X129408152Y-104911333D01*
X129408152Y-104911333D02*
X129503390Y-104863714D01*
X129503390Y-104863714D02*
X129551009Y-104816095D01*
X129551009Y-104816095D02*
X129598628Y-104720857D01*
X129598628Y-104720857D02*
X129598628Y-104339905D01*
X129074819Y-105244667D02*
X129074819Y-105863714D01*
X129074819Y-105863714D02*
X129455771Y-105530381D01*
X129455771Y-105530381D02*
X129455771Y-105673238D01*
X129455771Y-105673238D02*
X129503390Y-105768476D01*
X129503390Y-105768476D02*
X129551009Y-105816095D01*
X129551009Y-105816095D02*
X129646247Y-105863714D01*
X129646247Y-105863714D02*
X129884342Y-105863714D01*
X129884342Y-105863714D02*
X129979580Y-105816095D01*
X129979580Y-105816095D02*
X130027200Y-105768476D01*
X130027200Y-105768476D02*
X130074819Y-105673238D01*
X130074819Y-105673238D02*
X130074819Y-105387524D01*
X130074819Y-105387524D02*
X130027200Y-105292286D01*
X130027200Y-105292286D02*
X129979580Y-105244667D01*
D12*
X180356985Y-94297666D02*
X181076652Y-94297666D01*
X181076652Y-94297666D02*
X181161318Y-94340000D01*
X181161318Y-94340000D02*
X181203652Y-94382333D01*
X181203652Y-94382333D02*
X181245985Y-94467000D01*
X181245985Y-94467000D02*
X181245985Y-94636333D01*
X181245985Y-94636333D02*
X181203652Y-94721000D01*
X181203652Y-94721000D02*
X181161318Y-94763333D01*
X181161318Y-94763333D02*
X181076652Y-94805666D01*
X181076652Y-94805666D02*
X180356985Y-94805666D01*
X180441652Y-95186666D02*
X180399318Y-95228999D01*
X180399318Y-95228999D02*
X180356985Y-95313666D01*
X180356985Y-95313666D02*
X180356985Y-95525333D01*
X180356985Y-95525333D02*
X180399318Y-95609999D01*
X180399318Y-95609999D02*
X180441652Y-95652333D01*
X180441652Y-95652333D02*
X180526318Y-95694666D01*
X180526318Y-95694666D02*
X180610985Y-95694666D01*
X180610985Y-95694666D02*
X180737985Y-95652333D01*
X180737985Y-95652333D02*
X181245985Y-95144333D01*
X181245985Y-95144333D02*
X181245985Y-95694666D01*
D11*
X184472800Y-99736904D02*
X184425180Y-99594047D01*
X184425180Y-99594047D02*
X184425180Y-99355952D01*
X184425180Y-99355952D02*
X184472800Y-99260714D01*
X184472800Y-99260714D02*
X184520419Y-99213095D01*
X184520419Y-99213095D02*
X184615657Y-99165476D01*
X184615657Y-99165476D02*
X184710895Y-99165476D01*
X184710895Y-99165476D02*
X184806133Y-99213095D01*
X184806133Y-99213095D02*
X184853752Y-99260714D01*
X184853752Y-99260714D02*
X184901371Y-99355952D01*
X184901371Y-99355952D02*
X184948990Y-99546428D01*
X184948990Y-99546428D02*
X184996609Y-99641666D01*
X184996609Y-99641666D02*
X185044228Y-99689285D01*
X185044228Y-99689285D02*
X185139466Y-99736904D01*
X185139466Y-99736904D02*
X185234704Y-99736904D01*
X185234704Y-99736904D02*
X185329942Y-99689285D01*
X185329942Y-99689285D02*
X185377561Y-99641666D01*
X185377561Y-99641666D02*
X185425180Y-99546428D01*
X185425180Y-99546428D02*
X185425180Y-99308333D01*
X185425180Y-99308333D02*
X185377561Y-99165476D01*
X184472800Y-98355952D02*
X184425180Y-98451190D01*
X184425180Y-98451190D02*
X184425180Y-98641666D01*
X184425180Y-98641666D02*
X184472800Y-98736904D01*
X184472800Y-98736904D02*
X184568038Y-98784523D01*
X184568038Y-98784523D02*
X184948990Y-98784523D01*
X184948990Y-98784523D02*
X185044228Y-98736904D01*
X185044228Y-98736904D02*
X185091847Y-98641666D01*
X185091847Y-98641666D02*
X185091847Y-98451190D01*
X185091847Y-98451190D02*
X185044228Y-98355952D01*
X185044228Y-98355952D02*
X184948990Y-98308333D01*
X184948990Y-98308333D02*
X184853752Y-98308333D01*
X184853752Y-98308333D02*
X184758514Y-98784523D01*
X184472800Y-97498809D02*
X184425180Y-97594047D01*
X184425180Y-97594047D02*
X184425180Y-97784523D01*
X184425180Y-97784523D02*
X184472800Y-97879761D01*
X184472800Y-97879761D02*
X184568038Y-97927380D01*
X184568038Y-97927380D02*
X184948990Y-97927380D01*
X184948990Y-97927380D02*
X185044228Y-97879761D01*
X185044228Y-97879761D02*
X185091847Y-97784523D01*
X185091847Y-97784523D02*
X185091847Y-97594047D01*
X185091847Y-97594047D02*
X185044228Y-97498809D01*
X185044228Y-97498809D02*
X184948990Y-97451190D01*
X184948990Y-97451190D02*
X184853752Y-97451190D01*
X184853752Y-97451190D02*
X184758514Y-97927380D01*
X184472800Y-96641666D02*
X184425180Y-96736904D01*
X184425180Y-96736904D02*
X184425180Y-96927380D01*
X184425180Y-96927380D02*
X184472800Y-97022618D01*
X184472800Y-97022618D02*
X184568038Y-97070237D01*
X184568038Y-97070237D02*
X184948990Y-97070237D01*
X184948990Y-97070237D02*
X185044228Y-97022618D01*
X185044228Y-97022618D02*
X185091847Y-96927380D01*
X185091847Y-96927380D02*
X185091847Y-96736904D01*
X185091847Y-96736904D02*
X185044228Y-96641666D01*
X185044228Y-96641666D02*
X184948990Y-96594047D01*
X184948990Y-96594047D02*
X184853752Y-96594047D01*
X184853752Y-96594047D02*
X184758514Y-97070237D01*
X184425180Y-95736904D02*
X185425180Y-95736904D01*
X184472800Y-95736904D02*
X184425180Y-95832142D01*
X184425180Y-95832142D02*
X184425180Y-96022618D01*
X184425180Y-96022618D02*
X184472800Y-96117856D01*
X184472800Y-96117856D02*
X184520419Y-96165475D01*
X184520419Y-96165475D02*
X184615657Y-96213094D01*
X184615657Y-96213094D02*
X184901371Y-96213094D01*
X184901371Y-96213094D02*
X184996609Y-96165475D01*
X184996609Y-96165475D02*
X185044228Y-96117856D01*
X185044228Y-96117856D02*
X185091847Y-96022618D01*
X185091847Y-96022618D02*
X185091847Y-95832142D01*
X185091847Y-95832142D02*
X185044228Y-95736904D01*
X184472800Y-94546427D02*
X184425180Y-94403570D01*
X184425180Y-94403570D02*
X184425180Y-94165475D01*
X184425180Y-94165475D02*
X184472800Y-94070237D01*
X184472800Y-94070237D02*
X184520419Y-94022618D01*
X184520419Y-94022618D02*
X184615657Y-93974999D01*
X184615657Y-93974999D02*
X184710895Y-93974999D01*
X184710895Y-93974999D02*
X184806133Y-94022618D01*
X184806133Y-94022618D02*
X184853752Y-94070237D01*
X184853752Y-94070237D02*
X184901371Y-94165475D01*
X184901371Y-94165475D02*
X184948990Y-94355951D01*
X184948990Y-94355951D02*
X184996609Y-94451189D01*
X184996609Y-94451189D02*
X185044228Y-94498808D01*
X185044228Y-94498808D02*
X185139466Y-94546427D01*
X185139466Y-94546427D02*
X185234704Y-94546427D01*
X185234704Y-94546427D02*
X185329942Y-94498808D01*
X185329942Y-94498808D02*
X185377561Y-94451189D01*
X185377561Y-94451189D02*
X185425180Y-94355951D01*
X185425180Y-94355951D02*
X185425180Y-94117856D01*
X185425180Y-94117856D02*
X185377561Y-93974999D01*
X185091847Y-93689284D02*
X185091847Y-93308332D01*
X185425180Y-93546427D02*
X184568038Y-93546427D01*
X184568038Y-93546427D02*
X184472800Y-93498808D01*
X184472800Y-93498808D02*
X184425180Y-93403570D01*
X184425180Y-93403570D02*
X184425180Y-93308332D01*
X185091847Y-92546427D02*
X184425180Y-92546427D01*
X185091847Y-92974998D02*
X184568038Y-92974998D01*
X184568038Y-92974998D02*
X184472800Y-92927379D01*
X184472800Y-92927379D02*
X184425180Y-92832141D01*
X184425180Y-92832141D02*
X184425180Y-92689284D01*
X184425180Y-92689284D02*
X184472800Y-92594046D01*
X184472800Y-92594046D02*
X184520419Y-92546427D01*
X184425180Y-91641665D02*
X185425180Y-91641665D01*
X184472800Y-91641665D02*
X184425180Y-91736903D01*
X184425180Y-91736903D02*
X184425180Y-91927379D01*
X184425180Y-91927379D02*
X184472800Y-92022617D01*
X184472800Y-92022617D02*
X184520419Y-92070236D01*
X184520419Y-92070236D02*
X184615657Y-92117855D01*
X184615657Y-92117855D02*
X184901371Y-92117855D01*
X184901371Y-92117855D02*
X184996609Y-92070236D01*
X184996609Y-92070236D02*
X185044228Y-92022617D01*
X185044228Y-92022617D02*
X185091847Y-91927379D01*
X185091847Y-91927379D02*
X185091847Y-91736903D01*
X185091847Y-91736903D02*
X185044228Y-91641665D01*
X184425180Y-91165474D02*
X185091847Y-91165474D01*
X185425180Y-91165474D02*
X185377561Y-91213093D01*
X185377561Y-91213093D02*
X185329942Y-91165474D01*
X185329942Y-91165474D02*
X185377561Y-91117855D01*
X185377561Y-91117855D02*
X185425180Y-91165474D01*
X185425180Y-91165474D02*
X185329942Y-91165474D01*
X184425180Y-90546427D02*
X184472800Y-90641665D01*
X184472800Y-90641665D02*
X184520419Y-90689284D01*
X184520419Y-90689284D02*
X184615657Y-90736903D01*
X184615657Y-90736903D02*
X184901371Y-90736903D01*
X184901371Y-90736903D02*
X184996609Y-90689284D01*
X184996609Y-90689284D02*
X185044228Y-90641665D01*
X185044228Y-90641665D02*
X185091847Y-90546427D01*
X185091847Y-90546427D02*
X185091847Y-90403570D01*
X185091847Y-90403570D02*
X185044228Y-90308332D01*
X185044228Y-90308332D02*
X184996609Y-90260713D01*
X184996609Y-90260713D02*
X184901371Y-90213094D01*
X184901371Y-90213094D02*
X184615657Y-90213094D01*
X184615657Y-90213094D02*
X184520419Y-90260713D01*
X184520419Y-90260713D02*
X184472800Y-90308332D01*
X184472800Y-90308332D02*
X184425180Y-90403570D01*
X184425180Y-90403570D02*
X184425180Y-90546427D01*
X183425180Y-96498808D02*
X182425180Y-95832142D01*
X183425180Y-95832142D02*
X182425180Y-96498808D01*
X182425180Y-95451189D02*
X183425180Y-95451189D01*
X182710895Y-95022618D02*
X182710895Y-94546428D01*
X182425180Y-95117856D02*
X183425180Y-94784523D01*
X183425180Y-94784523D02*
X182425180Y-94451190D01*
X183425180Y-93927380D02*
X183425180Y-93736904D01*
X183425180Y-93736904D02*
X183377561Y-93641666D01*
X183377561Y-93641666D02*
X183282323Y-93546428D01*
X183282323Y-93546428D02*
X183091847Y-93498809D01*
X183091847Y-93498809D02*
X182758514Y-93498809D01*
X182758514Y-93498809D02*
X182568038Y-93546428D01*
X182568038Y-93546428D02*
X182472800Y-93641666D01*
X182472800Y-93641666D02*
X182425180Y-93736904D01*
X182425180Y-93736904D02*
X182425180Y-93927380D01*
X182425180Y-93927380D02*
X182472800Y-94022618D01*
X182472800Y-94022618D02*
X182568038Y-94117856D01*
X182568038Y-94117856D02*
X182758514Y-94165475D01*
X182758514Y-94165475D02*
X183091847Y-94165475D01*
X183091847Y-94165475D02*
X183282323Y-94117856D01*
X183282323Y-94117856D02*
X183377561Y-94022618D01*
X183377561Y-94022618D02*
X183425180Y-93927380D01*
X162820000Y-122197933D02*
X162820000Y-121497933D01*
X162820000Y-121497933D02*
X162653333Y-121497933D01*
X162653333Y-121497933D02*
X162553333Y-121531266D01*
X162553333Y-121531266D02*
X162486667Y-121597933D01*
X162486667Y-121597933D02*
X162453333Y-121664600D01*
X162453333Y-121664600D02*
X162420000Y-121797933D01*
X162420000Y-121797933D02*
X162420000Y-121897933D01*
X162420000Y-121897933D02*
X162453333Y-122031266D01*
X162453333Y-122031266D02*
X162486667Y-122097933D01*
X162486667Y-122097933D02*
X162553333Y-122164600D01*
X162553333Y-122164600D02*
X162653333Y-122197933D01*
X162653333Y-122197933D02*
X162820000Y-122197933D01*
X162153333Y-121564600D02*
X162120000Y-121531266D01*
X162120000Y-121531266D02*
X162053333Y-121497933D01*
X162053333Y-121497933D02*
X161886667Y-121497933D01*
X161886667Y-121497933D02*
X161820000Y-121531266D01*
X161820000Y-121531266D02*
X161786667Y-121564600D01*
X161786667Y-121564600D02*
X161753333Y-121631266D01*
X161753333Y-121631266D02*
X161753333Y-121697933D01*
X161753333Y-121697933D02*
X161786667Y-121797933D01*
X161786667Y-121797933D02*
X162186667Y-122197933D01*
X162186667Y-122197933D02*
X161753333Y-122197933D01*
X161486666Y-121564600D02*
X161453333Y-121531266D01*
X161453333Y-121531266D02*
X161386666Y-121497933D01*
X161386666Y-121497933D02*
X161220000Y-121497933D01*
X161220000Y-121497933D02*
X161153333Y-121531266D01*
X161153333Y-121531266D02*
X161120000Y-121564600D01*
X161120000Y-121564600D02*
X161086666Y-121631266D01*
X161086666Y-121631266D02*
X161086666Y-121697933D01*
X161086666Y-121697933D02*
X161120000Y-121797933D01*
X161120000Y-121797933D02*
X161520000Y-122197933D01*
X161520000Y-122197933D02*
X161086666Y-122197933D01*
X149754819Y-67161905D02*
X148754819Y-67161905D01*
X148754819Y-67161905D02*
X148754819Y-67400000D01*
X148754819Y-67400000D02*
X148802438Y-67542857D01*
X148802438Y-67542857D02*
X148897676Y-67638095D01*
X148897676Y-67638095D02*
X148992914Y-67685714D01*
X148992914Y-67685714D02*
X149183390Y-67733333D01*
X149183390Y-67733333D02*
X149326247Y-67733333D01*
X149326247Y-67733333D02*
X149516723Y-67685714D01*
X149516723Y-67685714D02*
X149611961Y-67638095D01*
X149611961Y-67638095D02*
X149707200Y-67542857D01*
X149707200Y-67542857D02*
X149754819Y-67400000D01*
X149754819Y-67400000D02*
X149754819Y-67161905D01*
X148754819Y-68590476D02*
X148754819Y-68400000D01*
X148754819Y-68400000D02*
X148802438Y-68304762D01*
X148802438Y-68304762D02*
X148850057Y-68257143D01*
X148850057Y-68257143D02*
X148992914Y-68161905D01*
X148992914Y-68161905D02*
X149183390Y-68114286D01*
X149183390Y-68114286D02*
X149564342Y-68114286D01*
X149564342Y-68114286D02*
X149659580Y-68161905D01*
X149659580Y-68161905D02*
X149707200Y-68209524D01*
X149707200Y-68209524D02*
X149754819Y-68304762D01*
X149754819Y-68304762D02*
X149754819Y-68495238D01*
X149754819Y-68495238D02*
X149707200Y-68590476D01*
X149707200Y-68590476D02*
X149659580Y-68638095D01*
X149659580Y-68638095D02*
X149564342Y-68685714D01*
X149564342Y-68685714D02*
X149326247Y-68685714D01*
X149326247Y-68685714D02*
X149231009Y-68638095D01*
X149231009Y-68638095D02*
X149183390Y-68590476D01*
X149183390Y-68590476D02*
X149135771Y-68495238D01*
X149135771Y-68495238D02*
X149135771Y-68304762D01*
X149135771Y-68304762D02*
X149183390Y-68209524D01*
X149183390Y-68209524D02*
X149231009Y-68161905D01*
X149231009Y-68161905D02*
X149326247Y-68114286D01*
D13*
%TO.C,D5*%
X131250000Y-69500000D02*
X131250000Y-65490000D01*
X133250000Y-65490000D02*
X131250000Y-65490000D01*
X133250000Y-69500000D02*
X133250000Y-65490000D01*
D14*
%TO.C,D19*%
X159850000Y-78100000D02*
X159250000Y-78100000D01*
X159850000Y-77500000D01*
X159850000Y-78100000D01*
G36*
X159850000Y-78100000D02*
G01*
X159250000Y-78100000D01*
X159850000Y-77500000D01*
X159850000Y-78100000D01*
G37*
D13*
%TO.C,R4*%
X124290000Y-104433436D02*
X124290000Y-105887564D01*
X126110000Y-104433436D02*
X126110000Y-105887564D01*
%TO.C,D1*%
X131250000Y-50500000D02*
X131250000Y-46490000D01*
X133250000Y-46490000D02*
X131250000Y-46490000D01*
X133250000Y-50500000D02*
X133250000Y-46490000D01*
D14*
%TO.C,D21*%
X140770000Y-118381900D02*
X140170000Y-118381900D01*
X140770000Y-117781900D01*
X140770000Y-118381900D01*
G36*
X140770000Y-118381900D02*
G01*
X140170000Y-118381900D01*
X140770000Y-117781900D01*
X140770000Y-118381900D01*
G37*
D13*
%TO.C,D10*%
X133600000Y-110250000D02*
X133600000Y-106240000D01*
X135600000Y-106240000D02*
X133600000Y-106240000D01*
X135600000Y-110250000D02*
X135600000Y-106240000D01*
%TO.C,R1*%
X140272936Y-103090000D02*
X141727064Y-103090000D01*
X140272936Y-104910000D02*
X141727064Y-104910000D01*
D14*
%TO.C,D16*%
X178900000Y-59050000D02*
X178300000Y-59050000D01*
X178900000Y-58450000D01*
X178900000Y-59050000D01*
G36*
X178900000Y-59050000D02*
G01*
X178300000Y-59050000D01*
X178900000Y-58450000D01*
X178900000Y-59050000D01*
G37*
%TO.C,D20*%
X178900000Y-78100000D02*
X178300000Y-78100000D01*
X178900000Y-77500000D01*
X178900000Y-78100000D01*
G36*
X178900000Y-78100000D02*
G01*
X178300000Y-78100000D01*
X178900000Y-77500000D01*
X178900000Y-78100000D01*
G37*
D13*
%TO.C,R5*%
X118590000Y-104233436D02*
X118590000Y-105687564D01*
X120410000Y-104233436D02*
X120410000Y-105687564D01*
%TO.C,D2*%
X150250000Y-50500000D02*
X150250000Y-46490000D01*
X152250000Y-46490000D02*
X150250000Y-46490000D01*
X152250000Y-50500000D02*
X152250000Y-46490000D01*
%TO.C,D7*%
X169400000Y-69550000D02*
X169400000Y-65540000D01*
X171400000Y-65540000D02*
X169400000Y-65540000D01*
X171400000Y-69550000D02*
X171400000Y-65540000D01*
%TO.C,R6*%
X116190000Y-104233436D02*
X116190000Y-105687564D01*
X118010000Y-104233436D02*
X118010000Y-105687564D01*
%TO.C,D8*%
X188300000Y-69650000D02*
X188300000Y-65640000D01*
X190300000Y-65640000D02*
X188300000Y-65640000D01*
X190300000Y-69650000D02*
X190300000Y-65640000D01*
%TO.C,D3*%
X169500000Y-50500000D02*
X169500000Y-46490000D01*
X171500000Y-46490000D02*
X169500000Y-46490000D01*
X171500000Y-50500000D02*
X171500000Y-46490000D01*
D14*
%TO.C,D18*%
X140800000Y-78100000D02*
X140200000Y-78100000D01*
X140800000Y-77500000D01*
X140800000Y-78100000D01*
G36*
X140800000Y-78100000D02*
G01*
X140200000Y-78100000D01*
X140800000Y-77500000D01*
X140800000Y-78100000D01*
G37*
%TO.C,D14*%
X140800000Y-59050000D02*
X140200000Y-59050000D01*
X140800000Y-58450000D01*
X140800000Y-59050000D01*
G36*
X140800000Y-59050000D02*
G01*
X140200000Y-59050000D01*
X140800000Y-58450000D01*
X140800000Y-59050000D01*
G37*
%TO.C,D13*%
X121750000Y-59050000D02*
X121150000Y-59050000D01*
X121750000Y-58450000D01*
X121750000Y-59050000D01*
G36*
X121750000Y-59050000D02*
G01*
X121150000Y-59050000D01*
X121750000Y-58450000D01*
X121750000Y-59050000D01*
G37*
%TO.C,D17*%
X121750000Y-78100000D02*
X121150000Y-78100000D01*
X121750000Y-77500000D01*
X121750000Y-78100000D01*
G36*
X121750000Y-78100000D02*
G01*
X121150000Y-78100000D01*
X121750000Y-77500000D01*
X121750000Y-78100000D01*
G37*
D13*
%TO.C,D9*%
X162350000Y-102900000D02*
X166360000Y-102900000D01*
X162350000Y-104900000D02*
X166360000Y-104900000D01*
X166360000Y-104900000D02*
X166360000Y-102900000D01*
D15*
%TO.C,U1*%
X120414800Y-90187200D02*
X120414800Y-90415800D01*
X120414800Y-100474200D02*
X120414800Y-100702800D01*
X120414800Y-100702800D02*
X123920000Y-100702800D01*
X123920000Y-100702800D02*
X124529600Y-100702800D01*
X124529600Y-100702800D02*
X128034800Y-100702800D01*
X128034800Y-90187200D02*
X120414800Y-90187200D01*
X128034800Y-90415800D02*
X128034800Y-90187200D01*
X128034800Y-100702800D02*
X128034800Y-100474200D01*
X123920000Y-100702800D02*
G75*
G02*
X124529600Y-100702800I304800J0D01*
G01*
D14*
%TO.C,D15*%
X159850000Y-59050000D02*
X159250000Y-59050000D01*
X159850000Y-58450000D01*
X159850000Y-59050000D01*
G36*
X159850000Y-59050000D02*
G01*
X159250000Y-59050000D01*
X159850000Y-58450000D01*
X159850000Y-59050000D01*
G37*
D13*
%TO.C,D11*%
X166440000Y-102900000D02*
X166440000Y-104900000D01*
X170450000Y-102900000D02*
X166440000Y-102900000D01*
X170450000Y-104900000D02*
X166440000Y-104900000D01*
%TO.C,R2*%
X136727064Y-103090000D02*
X135272936Y-103090000D01*
X136727064Y-104910000D02*
X135272936Y-104910000D01*
%TO.C,D4*%
X188500000Y-50500000D02*
X188500000Y-46490000D01*
X190500000Y-46490000D02*
X188500000Y-46490000D01*
X190500000Y-50500000D02*
X190500000Y-46490000D01*
%TO.C,D12*%
X131200000Y-110250000D02*
X131200000Y-106240000D01*
X133200000Y-106240000D02*
X131200000Y-106240000D01*
X133200000Y-110250000D02*
X133200000Y-106240000D01*
%TO.C,R3*%
X126690000Y-104433436D02*
X126690000Y-105887564D01*
X128510000Y-104433436D02*
X128510000Y-105887564D01*
D16*
%TO.C,U2*%
X172880000Y-88075000D02*
X172880000Y-101875000D01*
X174880000Y-103875000D02*
X191880000Y-103875000D01*
X187950730Y-90475000D02*
X195304030Y-90475000D01*
X187950730Y-99475000D02*
X187950730Y-90475000D01*
X191880000Y-86075000D02*
X174880000Y-86075000D01*
X193879090Y-101875000D02*
X193879090Y-88075000D01*
X195304030Y-90475000D02*
X195304030Y-99475000D01*
X195304030Y-99475000D02*
X187950730Y-99475000D01*
D13*
X172880000Y-88075000D02*
G75*
G02*
X174880000Y-86075000I2000000J0D01*
G01*
X174880000Y-103875000D02*
G75*
G02*
X172880000Y-101875000I44857J2044857D01*
G01*
X191880000Y-86075000D02*
G75*
G02*
X193880000Y-88075000I-44600J-2044600D01*
G01*
X193880000Y-101875000D02*
G75*
G02*
X191880000Y-103875000I-2044612J44612D01*
G01*
D17*
X192307000Y-105975000D02*
G75*
G02*
X192053000Y-105975000I-127000J0D01*
G01*
X192053000Y-105975000D02*
G75*
G02*
X192307000Y-105975000I127000J0D01*
G01*
D18*
X191990473Y-103859667D02*
X191941705Y-103862715D01*
X192039494Y-103855603D01*
X191990473Y-103859667D01*
X174469045Y-86132752D02*
X174517050Y-86122847D01*
X174565310Y-86113956D01*
X174613825Y-86106336D01*
X174662593Y-86099732D01*
X174711361Y-86094399D01*
X174760382Y-86090335D01*
X174809150Y-86087287D01*
X174858426Y-86085508D01*
X174469045Y-86132752D01*
D14*
%TO.C,D22*%
X159770000Y-118381900D02*
X159170000Y-118381900D01*
X159770000Y-117781900D01*
X159770000Y-118381900D01*
G36*
X159770000Y-118381900D02*
G01*
X159170000Y-118381900D01*
X159770000Y-117781900D01*
X159770000Y-118381900D01*
G37*
D13*
%TO.C,D6*%
X150300000Y-69550000D02*
X150300000Y-65540000D01*
X152300000Y-65540000D02*
X150300000Y-65540000D01*
X152300000Y-69550000D02*
X152300000Y-65540000D01*
%TD*%
%LPC*%
D19*
%TO.C,SW4*%
X176020000Y-55370000D03*
D20*
X181100000Y-55370000D03*
D19*
X186180000Y-55370000D03*
D21*
X177290000Y-52830000D03*
X183640000Y-50290000D03*
%TD*%
D19*
%TO.C,SW10*%
X156890000Y-115500000D03*
D20*
X161970000Y-115500000D03*
D19*
X167050000Y-115500000D03*
D21*
X158160000Y-112960000D03*
X164510000Y-110420000D03*
%TD*%
D19*
%TO.C,SW1*%
X118870000Y-55370000D03*
D20*
X123950000Y-55370000D03*
D19*
X129030000Y-55370000D03*
D21*
X120140000Y-52830000D03*
X126490000Y-50290000D03*
%TD*%
D22*
%TO.C,J5*%
X191925000Y-61000000D03*
D23*
X191925000Y-63540000D03*
X191925000Y-66080000D03*
X191925000Y-68620000D03*
%TD*%
D22*
%TO.C,J1*%
X134300000Y-98700000D03*
D23*
X134300000Y-96160000D03*
X134300000Y-93620000D03*
X134300000Y-91080000D03*
%TD*%
D22*
%TO.C,J2*%
X112925000Y-61000000D03*
D23*
X112925000Y-63540000D03*
X112925000Y-66080000D03*
X112925000Y-68620000D03*
%TD*%
D24*
%TO.C,SW12*%
X174250000Y-113000000D03*
D25*
X174250000Y-118000000D03*
X174250000Y-115500000D03*
D26*
X181750000Y-109900000D03*
X181750000Y-121100000D03*
D25*
X188750000Y-118000000D03*
X188750000Y-113000000D03*
%TD*%
D19*
%TO.C,SW6*%
X137920000Y-74420000D03*
D20*
X143000000Y-74420000D03*
D19*
X148080000Y-74420000D03*
D21*
X139190000Y-71880000D03*
X145540000Y-69340000D03*
%TD*%
D22*
%TO.C,J3*%
X148900000Y-44475000D03*
D23*
X151440000Y-44475000D03*
X153980000Y-44475000D03*
X156520000Y-44475000D03*
%TD*%
D19*
%TO.C,SW2*%
X137920000Y-55370000D03*
D20*
X143000000Y-55370000D03*
D19*
X148080000Y-55370000D03*
D21*
X139190000Y-52830000D03*
X145540000Y-50290000D03*
%TD*%
D19*
%TO.C,SW7*%
X156970000Y-74420000D03*
D20*
X162050000Y-74420000D03*
D19*
X167130000Y-74420000D03*
D21*
X158240000Y-71880000D03*
X164590000Y-69340000D03*
%TD*%
D24*
%TO.C,SW11*%
X116250000Y-113000000D03*
D25*
X116250000Y-118000000D03*
X116250000Y-115500000D03*
D26*
X123750000Y-109900000D03*
X123750000Y-121100000D03*
D25*
X130750000Y-118000000D03*
X130750000Y-113000000D03*
%TD*%
D19*
%TO.C,SW5*%
X118870000Y-74420000D03*
D20*
X123950000Y-74420000D03*
D19*
X129030000Y-74420000D03*
D21*
X120140000Y-71880000D03*
X126490000Y-69340000D03*
%TD*%
D22*
%TO.C,J4*%
X148900000Y-126575000D03*
D23*
X151440000Y-126575000D03*
X153980000Y-126575000D03*
X156520000Y-126575000D03*
%TD*%
D19*
%TO.C,SW8*%
X176020000Y-74420000D03*
D20*
X181100000Y-74420000D03*
D19*
X186180000Y-74420000D03*
D21*
X177290000Y-71880000D03*
X183640000Y-69340000D03*
%TD*%
D19*
%TO.C,SW3*%
X156970000Y-55370000D03*
D20*
X162050000Y-55370000D03*
D19*
X167130000Y-55370000D03*
D21*
X158240000Y-52830000D03*
X164590000Y-50290000D03*
%TD*%
D19*
%TO.C,SW9*%
X137840000Y-115500000D03*
D20*
X142920000Y-115500000D03*
D19*
X148000000Y-115500000D03*
D21*
X139110000Y-112960000D03*
X145460000Y-110420000D03*
%TD*%
D27*
%TO.C,D5*%
X132250000Y-66200000D03*
X132250000Y-69500000D03*
%TD*%
D28*
%TO.C,D19*%
X164650000Y-78750000D03*
D29*
X159450000Y-78750000D03*
D28*
X159450000Y-80250000D03*
X164650000Y-80250000D03*
%TD*%
D30*
%TO.C,R4*%
X125200000Y-106623000D03*
X125200000Y-103698000D03*
%TD*%
D27*
%TO.C,D1*%
X132250000Y-47200000D03*
X132250000Y-50500000D03*
%TD*%
D28*
%TO.C,D21*%
X145570000Y-119031900D03*
D29*
X140370000Y-119031900D03*
D28*
X140370000Y-120531900D03*
X145570000Y-120531900D03*
%TD*%
D27*
%TO.C,D10*%
X134600000Y-106950000D03*
X134600000Y-110250000D03*
%TD*%
D31*
%TO.C,R1*%
X142462500Y-104000000D03*
X139537500Y-104000000D03*
%TD*%
D28*
%TO.C,D16*%
X183700000Y-59700000D03*
D29*
X178500000Y-59700000D03*
D28*
X178500000Y-61200000D03*
X183700000Y-61200000D03*
%TD*%
%TO.C,D20*%
X183700000Y-78750000D03*
D29*
X178500000Y-78750000D03*
D28*
X178500000Y-80250000D03*
X183700000Y-80250000D03*
%TD*%
D30*
%TO.C,R5*%
X119500000Y-106423000D03*
X119500000Y-103498000D03*
%TD*%
D27*
%TO.C,D2*%
X151250000Y-47200000D03*
X151250000Y-50500000D03*
%TD*%
%TO.C,D7*%
X170400000Y-66250000D03*
X170400000Y-69550000D03*
%TD*%
D30*
%TO.C,R6*%
X117100000Y-106423000D03*
X117100000Y-103498000D03*
%TD*%
D27*
%TO.C,D8*%
X189300000Y-66350000D03*
X189300000Y-69650000D03*
%TD*%
%TO.C,D3*%
X170500000Y-47200000D03*
X170500000Y-50500000D03*
%TD*%
D28*
%TO.C,D18*%
X145600000Y-78750000D03*
D29*
X140400000Y-78750000D03*
D28*
X140400000Y-80250000D03*
X145600000Y-80250000D03*
%TD*%
%TO.C,D14*%
X145600000Y-59700000D03*
D29*
X140400000Y-59700000D03*
D28*
X140400000Y-61200000D03*
X145600000Y-61200000D03*
%TD*%
%TO.C,D13*%
X126550000Y-59700000D03*
D29*
X121350000Y-59700000D03*
D28*
X121350000Y-61200000D03*
X126550000Y-61200000D03*
%TD*%
%TO.C,D17*%
X126550000Y-78750000D03*
D29*
X121350000Y-78750000D03*
D28*
X121350000Y-80250000D03*
X126550000Y-80250000D03*
%TD*%
D32*
%TO.C,D9*%
X165650000Y-103900000D03*
X162350000Y-103900000D03*
%TD*%
D33*
%TO.C,U1*%
X119449600Y-99890000D03*
X119449600Y-98620000D03*
X119449600Y-97350000D03*
X119449600Y-96080000D03*
X119449600Y-94810000D03*
X119449600Y-93540000D03*
X119449600Y-92270000D03*
X119449600Y-91000000D03*
X129000000Y-91000000D03*
X129000000Y-92270000D03*
X129000000Y-93540000D03*
X129000000Y-94810000D03*
X129000000Y-96080000D03*
X129000000Y-97350000D03*
X129000000Y-98620000D03*
X129000000Y-99890000D03*
%TD*%
D28*
%TO.C,D15*%
X164650000Y-59700000D03*
D29*
X159450000Y-59700000D03*
D28*
X159450000Y-61200000D03*
X164650000Y-61200000D03*
%TD*%
D34*
%TO.C,D11*%
X167150000Y-103900000D03*
X170450000Y-103900000D03*
%TD*%
D35*
%TO.C,R2*%
X134537500Y-104000000D03*
X137462500Y-104000000D03*
%TD*%
D27*
%TO.C,D4*%
X189500000Y-47200000D03*
X189500000Y-50500000D03*
%TD*%
%TO.C,D12*%
X132200000Y-106950000D03*
X132200000Y-110250000D03*
%TD*%
D30*
%TO.C,R3*%
X127600000Y-106623000D03*
X127600000Y-103698000D03*
%TD*%
D36*
%TO.C,U2*%
X191000000Y-103600000D03*
D37*
X188460000Y-103600000D03*
X185920000Y-103600000D03*
X183380000Y-103600000D03*
X180840000Y-103600000D03*
X178300000Y-103600000D03*
X175760000Y-103600000D03*
X175760000Y-86350000D03*
X178300000Y-86350000D03*
X180840000Y-86350000D03*
D38*
X183380000Y-86350000D03*
X185920000Y-86350000D03*
X188460000Y-86350000D03*
X191000000Y-86350000D03*
%TD*%
D28*
%TO.C,D22*%
X164570000Y-119031900D03*
D29*
X159370000Y-119031900D03*
D28*
X159370000Y-120531900D03*
X164570000Y-120531900D03*
%TD*%
D27*
%TO.C,D6*%
X151300000Y-66250000D03*
X151300000Y-69550000D03*
%TD*%
%LPD*%
M02*
