%TF.GenerationSoftware,KiCad,Pcbnew,8.0.7*%
%TF.CreationDate,2025-02-09T12:27:28-05:00*%
%TF.ProjectId,makropad,6d616b72-6f70-4616-942e-6b696361645f,rev?*%
%TF.SameCoordinates,Original*%
%TF.FileFunction,Legend,Top*%
%TF.FilePolarity,Positive*%
%FSLAX46Y46*%
G04 Gerber Fmt 4.6, Leading zero omitted, Abs format (unit mm)*
G04 Created by KiCad (PCBNEW 8.0.7) date 2025-02-09 12:27:28*
%MOMM*%
%LPD*%
G01*
G04 APERTURE LIST*
%ADD10C,0.200000*%
%ADD11C,0.150000*%
%ADD12C,0.120000*%
%ADD13C,0.040000*%
%ADD14R,1.500000X1.000000*%
%ADD15C,1.701800*%
%ADD16C,3.987800*%
%ADD17R,1.700000X1.700000*%
%ADD18O,1.700000X1.700000*%
%ADD19R,2.000000X2.000000*%
%ADD20C,2.000000*%
%ADD21R,3.200000X2.000000*%
%ADD22R,1.700000X3.500000*%
%ADD23O,1.700000X3.600000*%
%ADD24O,1.700000X3.700000*%
G04 APERTURE END LIST*
D10*
G36*
X186116957Y-126660000D02*
G01*
X185607955Y-125119804D01*
X185968946Y-125119804D01*
X186261549Y-126056231D01*
X186289902Y-126152453D01*
X186310886Y-126229644D01*
X186335425Y-126327074D01*
X186345568Y-126371793D01*
X186370222Y-126277029D01*
X186382205Y-126229644D01*
X186408033Y-126131240D01*
X186428122Y-126057697D01*
X186715352Y-125119804D01*
X187071946Y-125119804D01*
X186566364Y-126660000D01*
X186116957Y-126660000D01*
G37*
G36*
X187413886Y-126660000D02*
G01*
X187413886Y-126351765D01*
X187945359Y-126351765D01*
X187945359Y-124927341D01*
X187410956Y-125325457D01*
X187410956Y-124955673D01*
X187882833Y-124616175D01*
X188295603Y-124616175D01*
X188295603Y-126351765D01*
X188723028Y-126351765D01*
X188723028Y-126660000D01*
X187413886Y-126660000D01*
G37*
G36*
X189697069Y-126687843D02*
G01*
X189595496Y-126672387D01*
X189510575Y-126621829D01*
X189506071Y-126617501D01*
X189452581Y-126534825D01*
X189434821Y-126435799D01*
X189434752Y-126428457D01*
X189448403Y-126331418D01*
X189497434Y-126244560D01*
X189506071Y-126235505D01*
X189589480Y-126182016D01*
X189689636Y-126164256D01*
X189697069Y-126164187D01*
X189799479Y-126179857D01*
X189884109Y-126231118D01*
X189888555Y-126235505D01*
X189941311Y-126319159D01*
X189958828Y-126420875D01*
X189958897Y-126428457D01*
X189943441Y-126528871D01*
X189892883Y-126613028D01*
X189888555Y-126617501D01*
X189805512Y-126670258D01*
X189704591Y-126687774D01*
X189697069Y-126687843D01*
G37*
G36*
X191474708Y-125469148D02*
G01*
X191509351Y-125495938D01*
X191555685Y-125584920D01*
X191559665Y-125628806D01*
X191537786Y-125727131D01*
X191508862Y-125767048D01*
X191419880Y-125815181D01*
X191375994Y-125819316D01*
X191280675Y-125796806D01*
X191241660Y-125767048D01*
X191195819Y-125679248D01*
X191190858Y-125628806D01*
X191214870Y-125530092D01*
X191241660Y-125495450D01*
X191331597Y-125449115D01*
X191375994Y-125445136D01*
X191474708Y-125469148D01*
G37*
G36*
X191483505Y-124593832D02*
G01*
X191583106Y-124611800D01*
X191683351Y-124645813D01*
X191720376Y-124663558D01*
X191804402Y-124716891D01*
X191882173Y-124789442D01*
X191944591Y-124876538D01*
X191986580Y-124966698D01*
X192013017Y-125066208D01*
X192023515Y-125163761D01*
X192024214Y-125197962D01*
X192024214Y-126077725D01*
X192017877Y-126177605D01*
X191995972Y-126279881D01*
X191958420Y-126372999D01*
X191944103Y-126399148D01*
X191881627Y-126486245D01*
X191803682Y-126558795D01*
X191719399Y-126612128D01*
X191623525Y-126652056D01*
X191528346Y-126675347D01*
X191424743Y-126686660D01*
X191375994Y-126687843D01*
X191268570Y-126681854D01*
X191169416Y-126663886D01*
X191068942Y-126629874D01*
X191031612Y-126612128D01*
X190947023Y-126558795D01*
X190868743Y-126486245D01*
X190805931Y-126399148D01*
X190763942Y-126308778D01*
X190737505Y-126209249D01*
X190727008Y-126111842D01*
X190726308Y-126077725D01*
X190726308Y-125197962D01*
X191057013Y-125197962D01*
X191057013Y-126077725D01*
X191069171Y-126174674D01*
X191114091Y-126267986D01*
X191143475Y-126301451D01*
X191230776Y-126358886D01*
X191331935Y-126383419D01*
X191375994Y-126385471D01*
X191477019Y-126373655D01*
X191567238Y-126334189D01*
X191607536Y-126301451D01*
X191666307Y-126217275D01*
X191691411Y-126120023D01*
X191693510Y-126077725D01*
X191693510Y-125197962D01*
X191679321Y-125093957D01*
X191632304Y-125002328D01*
X191607536Y-124974724D01*
X191521049Y-124916955D01*
X191419810Y-124892279D01*
X191375505Y-124890216D01*
X191273816Y-124902100D01*
X191183033Y-124941795D01*
X191142498Y-124974724D01*
X191084061Y-125058806D01*
X191059100Y-125155804D01*
X191057013Y-125197962D01*
X190726308Y-125197962D01*
X190732606Y-125097884D01*
X190754378Y-124995569D01*
X190791702Y-124902604D01*
X190805931Y-124876538D01*
X190868522Y-124789442D01*
X190946813Y-124716891D01*
X191031612Y-124663558D01*
X191127906Y-124623630D01*
X191223137Y-124600339D01*
X191326481Y-124589026D01*
X191375017Y-124587843D01*
X191483505Y-124593832D01*
G37*
G36*
X113157292Y-126660000D02*
G01*
X113157292Y-124616175D01*
X113571039Y-124616175D01*
X113769364Y-125266838D01*
X113798754Y-125364811D01*
X113819190Y-125444159D01*
X113841080Y-125540879D01*
X113845080Y-125562372D01*
X113866130Y-125463637D01*
X113870481Y-125444159D01*
X113894455Y-125347833D01*
X113917376Y-125265861D01*
X114108862Y-124616175D01*
X114523098Y-124616175D01*
X114523098Y-126660000D01*
X114196301Y-126660000D01*
X114196301Y-126024480D01*
X114197167Y-125924711D01*
X114199764Y-125819516D01*
X114203628Y-125719176D01*
X114208942Y-125616403D01*
X114215115Y-125513249D01*
X114222147Y-125409713D01*
X114223656Y-125388960D01*
X114231737Y-125286664D01*
X114240104Y-125187994D01*
X114249639Y-125083644D01*
X114250523Y-125074375D01*
X114260194Y-124976784D01*
X114270581Y-124873058D01*
X114276413Y-124815478D01*
X114001884Y-125780237D01*
X113683391Y-125780237D01*
X113401046Y-124815478D01*
X113413108Y-124915615D01*
X113423595Y-125013205D01*
X113428890Y-125066071D01*
X113438341Y-125167508D01*
X113447214Y-125273679D01*
X113454780Y-125374305D01*
X113462031Y-125477269D01*
X113468518Y-125580996D01*
X113474243Y-125685486D01*
X113475296Y-125706475D01*
X113479675Y-125809525D01*
X113482433Y-125909235D01*
X113483592Y-126015060D01*
X113483600Y-126024480D01*
X113483600Y-126660000D01*
X113157292Y-126660000D01*
G37*
G36*
X115638935Y-125096941D02*
G01*
X115747170Y-125115340D01*
X115844139Y-125147297D01*
X115941164Y-125200420D01*
X115984159Y-125233621D01*
X116056180Y-125310375D01*
X116107623Y-125399462D01*
X116138490Y-125500884D01*
X116148618Y-125599746D01*
X116148778Y-125614640D01*
X116148778Y-126660000D01*
X115809281Y-126660000D01*
X115809281Y-126390355D01*
X115801518Y-126390355D01*
X115798343Y-126416071D01*
X115756049Y-126510373D01*
X115683740Y-126587704D01*
X115596461Y-126640512D01*
X115492773Y-126673761D01*
X115385422Y-126686963D01*
X115346685Y-126687843D01*
X115247589Y-126681859D01*
X115146014Y-126660366D01*
X115046632Y-126617501D01*
X114971528Y-126562791D01*
X114905174Y-126485142D01*
X114860537Y-126393428D01*
X114837614Y-126287648D01*
X114834263Y-126222805D01*
X114837138Y-126190565D01*
X115184508Y-126190565D01*
X115202948Y-126288018D01*
X115258269Y-126362512D01*
X115346685Y-126409773D01*
X115447290Y-126425280D01*
X115463433Y-126425526D01*
X115566221Y-126414879D01*
X115660676Y-126379313D01*
X115704256Y-126349811D01*
X115768704Y-126275052D01*
X115797705Y-126176069D01*
X115798534Y-126153928D01*
X115798534Y-125966350D01*
X115421912Y-125966350D01*
X115324703Y-125981615D01*
X115248988Y-126027411D01*
X115195149Y-126114386D01*
X115184508Y-126190565D01*
X114837138Y-126190565D01*
X114843758Y-126116345D01*
X114872243Y-126022648D01*
X114926987Y-125932492D01*
X114986182Y-125873538D01*
X115070110Y-125819255D01*
X115169487Y-125780481D01*
X115269113Y-125759277D01*
X115380568Y-125749947D01*
X115414584Y-125749462D01*
X115798534Y-125749462D01*
X115798534Y-125618060D01*
X115780460Y-125518775D01*
X115726238Y-125443670D01*
X115640265Y-125396043D01*
X115542598Y-125380415D01*
X115526936Y-125380167D01*
X115428497Y-125391222D01*
X115336915Y-125430481D01*
X115268294Y-125502565D01*
X115246545Y-125566769D01*
X114904605Y-125566769D01*
X114926221Y-125463240D01*
X114966154Y-125371008D01*
X115024406Y-125290072D01*
X115100976Y-125220432D01*
X115192537Y-125164226D01*
X115295760Y-125124078D01*
X115395647Y-125102123D01*
X115504464Y-125092462D01*
X115537194Y-125091960D01*
X115638935Y-125096941D01*
G37*
G36*
X116580111Y-126660000D02*
G01*
X116580111Y-124616175D01*
X116930355Y-124616175D01*
X116930355Y-125724549D01*
X117175087Y-125724549D01*
X117549267Y-125119804D01*
X117942498Y-125119804D01*
X117476971Y-125865233D01*
X117950802Y-126660000D01*
X117550244Y-126660000D01*
X117174598Y-126021549D01*
X116930355Y-126021549D01*
X116930355Y-126660000D01*
X116580111Y-126660000D01*
G37*
G36*
X118298604Y-126660000D02*
G01*
X118298604Y-125119804D01*
X118630286Y-125119804D01*
X118630286Y-125413872D01*
X118716748Y-125413872D01*
X118612700Y-125594612D01*
X118618053Y-125491296D01*
X118637279Y-125387645D01*
X118675623Y-125289431D01*
X118724563Y-125218478D01*
X118804830Y-125151760D01*
X118894771Y-125112841D01*
X119001481Y-125093937D01*
X119054291Y-125091960D01*
X119158570Y-125099300D01*
X119265151Y-125125663D01*
X119358299Y-125171199D01*
X119438014Y-125235908D01*
X119447034Y-125245345D01*
X119509438Y-125329456D01*
X119554012Y-125428405D01*
X119578389Y-125527157D01*
X119589114Y-125637269D01*
X119589672Y-125670816D01*
X119589672Y-125782679D01*
X119222819Y-125782679D01*
X119222819Y-125696217D01*
X119212034Y-125594024D01*
X119172190Y-125498936D01*
X119146127Y-125466140D01*
X119061455Y-125407937D01*
X118959380Y-125385765D01*
X118934612Y-125385052D01*
X118834037Y-125398515D01*
X118743233Y-125447509D01*
X118723586Y-125466629D01*
X118672496Y-125550725D01*
X118650673Y-125651586D01*
X118648848Y-125696217D01*
X118648848Y-126660000D01*
X118298604Y-126660000D01*
G37*
G36*
X120660898Y-125100276D02*
G01*
X120759198Y-125117896D01*
X120858269Y-125151250D01*
X120894905Y-125168653D01*
X120978368Y-125220812D01*
X121055630Y-125292182D01*
X121117655Y-125378213D01*
X121159386Y-125467762D01*
X121185661Y-125566662D01*
X121196480Y-125674911D01*
X121196789Y-125697683D01*
X121196789Y-126081144D01*
X121190530Y-126180711D01*
X121168891Y-126282548D01*
X121131797Y-126375132D01*
X121117655Y-126401102D01*
X121055630Y-126487469D01*
X120978368Y-126559175D01*
X120894905Y-126611639D01*
X120800109Y-126650795D01*
X120694626Y-126675448D01*
X120590556Y-126685237D01*
X120553942Y-126685889D01*
X120447579Y-126680016D01*
X120349408Y-126662396D01*
X120249936Y-126629042D01*
X120212979Y-126611639D01*
X120129259Y-126559175D01*
X120051823Y-126487469D01*
X119989741Y-126401102D01*
X119948010Y-126311295D01*
X119921735Y-126212234D01*
X119910916Y-126103918D01*
X119910607Y-126081144D01*
X119910607Y-125698660D01*
X120260851Y-125698660D01*
X120260851Y-126081144D01*
X120271704Y-126180337D01*
X120311802Y-126271753D01*
X120338032Y-126302916D01*
X120424156Y-126357964D01*
X120520328Y-126378410D01*
X120553942Y-126379609D01*
X120657290Y-126366951D01*
X120750291Y-126320891D01*
X120770341Y-126302916D01*
X120825038Y-126215991D01*
X120845355Y-126116345D01*
X120846545Y-126081144D01*
X120846545Y-125698660D01*
X120835829Y-125598711D01*
X120796239Y-125507282D01*
X120770341Y-125476399D01*
X120684840Y-125421702D01*
X120587991Y-125401386D01*
X120553942Y-125400195D01*
X120451618Y-125412771D01*
X120358395Y-125458538D01*
X120338032Y-125476399D01*
X120282633Y-125562945D01*
X120262057Y-125663130D01*
X120260851Y-125698660D01*
X119910607Y-125698660D01*
X119916866Y-125598659D01*
X119938505Y-125496612D01*
X119975599Y-125404105D01*
X119989741Y-125378213D01*
X120051823Y-125292182D01*
X120129259Y-125220812D01*
X120212979Y-125168653D01*
X120308406Y-125129497D01*
X120413945Y-125104844D01*
X120517578Y-125095055D01*
X120553942Y-125094403D01*
X120660898Y-125100276D01*
G37*
G36*
X122474210Y-125101913D02*
G01*
X122572976Y-125131772D01*
X122660079Y-125181536D01*
X122735519Y-125251207D01*
X122796641Y-125337791D01*
X122840300Y-125438297D01*
X122864175Y-125537660D01*
X122874681Y-125647682D01*
X122875226Y-125681074D01*
X122875226Y-126097752D01*
X122869073Y-126205525D01*
X122850611Y-126304138D01*
X122816089Y-126402033D01*
X122812212Y-126410383D01*
X122757738Y-126501516D01*
X122688838Y-126575614D01*
X122634891Y-126615547D01*
X122543186Y-126659603D01*
X122439528Y-126683325D01*
X122363782Y-126687843D01*
X122263472Y-126679342D01*
X122166157Y-126649957D01*
X122076300Y-126593390D01*
X122061898Y-126580376D01*
X121997654Y-126496691D01*
X121962391Y-126404184D01*
X121957714Y-126365931D01*
X121947103Y-126365931D01*
X121957362Y-126732295D01*
X121957362Y-127164117D01*
X121607117Y-127164117D01*
X121607117Y-125696217D01*
X121957362Y-125696217D01*
X121957362Y-126083586D01*
X121968009Y-126181635D01*
X122007346Y-126273451D01*
X122033077Y-126305359D01*
X122116647Y-126362160D01*
X122216531Y-126383798D01*
X122240683Y-126384494D01*
X122340310Y-126371594D01*
X122430620Y-126324654D01*
X122450244Y-126306336D01*
X122503889Y-126218466D01*
X122523814Y-126118696D01*
X122524982Y-126083586D01*
X122524982Y-125696217D01*
X122514472Y-125596360D01*
X122475643Y-125504343D01*
X122450244Y-125472979D01*
X122366975Y-125417581D01*
X122265434Y-125396477D01*
X122240683Y-125395799D01*
X122143029Y-125408859D01*
X122052990Y-125456386D01*
X122033077Y-125474933D01*
X121978731Y-125562968D01*
X121958545Y-125661664D01*
X121957362Y-125696217D01*
X121607117Y-125696217D01*
X121607117Y-125119804D01*
X121949057Y-125119804D01*
X121949057Y-125413872D01*
X121956345Y-125413872D01*
X121957945Y-125395856D01*
X121988666Y-125299972D01*
X122047804Y-125213122D01*
X122061409Y-125199427D01*
X122147829Y-125138243D01*
X122242320Y-125104659D01*
X122340333Y-125092380D01*
X122363782Y-125091960D01*
X122474210Y-125101913D01*
G37*
G36*
X124031119Y-125096941D02*
G01*
X124139354Y-125115340D01*
X124236323Y-125147297D01*
X124333348Y-125200420D01*
X124376343Y-125233621D01*
X124448364Y-125310375D01*
X124499808Y-125399462D01*
X124530674Y-125500884D01*
X124540802Y-125599746D01*
X124540963Y-125614640D01*
X124540963Y-126660000D01*
X124201465Y-126660000D01*
X124201465Y-126390355D01*
X124193702Y-126390355D01*
X124190527Y-126416071D01*
X124148233Y-126510373D01*
X124075924Y-126587704D01*
X123988645Y-126640512D01*
X123884957Y-126673761D01*
X123777606Y-126686963D01*
X123738869Y-126687843D01*
X123639773Y-126681859D01*
X123538199Y-126660366D01*
X123438817Y-126617501D01*
X123363712Y-126562791D01*
X123297359Y-126485142D01*
X123252721Y-126393428D01*
X123229799Y-126287648D01*
X123226448Y-126222805D01*
X123229323Y-126190565D01*
X123576692Y-126190565D01*
X123595132Y-126288018D01*
X123650453Y-126362512D01*
X123738869Y-126409773D01*
X123839474Y-126425280D01*
X123855617Y-126425526D01*
X123958405Y-126414879D01*
X124052860Y-126379313D01*
X124096441Y-126349811D01*
X124160888Y-126275052D01*
X124189890Y-126176069D01*
X124190718Y-126153928D01*
X124190718Y-125966350D01*
X123814096Y-125966350D01*
X123716887Y-125981615D01*
X123641172Y-126027411D01*
X123587333Y-126114386D01*
X123576692Y-126190565D01*
X123229323Y-126190565D01*
X123235942Y-126116345D01*
X123264427Y-126022648D01*
X123319172Y-125932492D01*
X123378367Y-125873538D01*
X123462295Y-125819255D01*
X123561671Y-125780481D01*
X123661298Y-125759277D01*
X123772752Y-125749947D01*
X123806769Y-125749462D01*
X124190718Y-125749462D01*
X124190718Y-125618060D01*
X124172644Y-125518775D01*
X124118422Y-125443670D01*
X124032449Y-125396043D01*
X123934782Y-125380415D01*
X123919120Y-125380167D01*
X123820681Y-125391222D01*
X123729099Y-125430481D01*
X123660478Y-125502565D01*
X123638729Y-125566769D01*
X123296789Y-125566769D01*
X123318405Y-125463240D01*
X123358339Y-125371008D01*
X123416591Y-125290072D01*
X123493161Y-125220432D01*
X123584721Y-125164226D01*
X123687944Y-125124078D01*
X123787832Y-125102123D01*
X123896648Y-125092462D01*
X123929378Y-125091960D01*
X124031119Y-125096941D01*
G37*
G36*
X126214026Y-126660000D02*
G01*
X125872086Y-126660000D01*
X125872086Y-126365931D01*
X125864873Y-126365931D01*
X125863237Y-126384436D01*
X125832650Y-126480320D01*
X125773769Y-126567170D01*
X125760223Y-126580865D01*
X125674302Y-126641771D01*
X125579963Y-126675202D01*
X125481843Y-126687425D01*
X125458339Y-126687843D01*
X125348460Y-126677921D01*
X125249877Y-126648154D01*
X125162591Y-126598542D01*
X125086601Y-126529085D01*
X125025052Y-126442654D01*
X124981088Y-126342117D01*
X124957045Y-126242578D01*
X124946467Y-126132238D01*
X124945917Y-126098729D01*
X124945917Y-125696217D01*
X125296161Y-125696217D01*
X125296161Y-126083586D01*
X125306740Y-126182688D01*
X125345823Y-126274691D01*
X125371388Y-126306336D01*
X125455115Y-126362435D01*
X125557083Y-126383807D01*
X125581926Y-126384494D01*
X125679655Y-126371433D01*
X125768977Y-126323906D01*
X125788555Y-126305359D01*
X125842551Y-126217217D01*
X125862606Y-126118254D01*
X125863782Y-126083586D01*
X125863782Y-125696217D01*
X125853203Y-125598467D01*
X125814120Y-125506824D01*
X125788555Y-125474933D01*
X125705930Y-125418132D01*
X125606153Y-125396494D01*
X125581926Y-125395799D01*
X125481902Y-125408698D01*
X125391134Y-125455638D01*
X125371388Y-125473956D01*
X125317392Y-125561476D01*
X125297337Y-125661115D01*
X125296161Y-125696217D01*
X124945917Y-125696217D01*
X124945917Y-125682540D01*
X124950846Y-125584789D01*
X124969055Y-125480644D01*
X125000681Y-125387158D01*
X125053254Y-125293369D01*
X125086113Y-125251695D01*
X125161950Y-125181811D01*
X125249267Y-125131894D01*
X125348063Y-125101944D01*
X125458339Y-125091960D01*
X125559241Y-125100500D01*
X125656671Y-125130019D01*
X125745992Y-125186843D01*
X125760223Y-125199916D01*
X125823911Y-125283381D01*
X125858868Y-125375888D01*
X125863464Y-125413872D01*
X125874040Y-125413872D01*
X125863782Y-125047508D01*
X125863782Y-124616175D01*
X126214026Y-124616175D01*
X126214026Y-126660000D01*
G37*
D11*
X121835714Y-98854819D02*
X121835714Y-97854819D01*
X121835714Y-97854819D02*
X122073809Y-97854819D01*
X122073809Y-97854819D02*
X122216666Y-97902438D01*
X122216666Y-97902438D02*
X122311904Y-97997676D01*
X122311904Y-97997676D02*
X122359523Y-98092914D01*
X122359523Y-98092914D02*
X122407142Y-98283390D01*
X122407142Y-98283390D02*
X122407142Y-98426247D01*
X122407142Y-98426247D02*
X122359523Y-98616723D01*
X122359523Y-98616723D02*
X122311904Y-98711961D01*
X122311904Y-98711961D02*
X122216666Y-98807200D01*
X122216666Y-98807200D02*
X122073809Y-98854819D01*
X122073809Y-98854819D02*
X121835714Y-98854819D01*
X122788095Y-97950057D02*
X122835714Y-97902438D01*
X122835714Y-97902438D02*
X122930952Y-97854819D01*
X122930952Y-97854819D02*
X123169047Y-97854819D01*
X123169047Y-97854819D02*
X123264285Y-97902438D01*
X123264285Y-97902438D02*
X123311904Y-97950057D01*
X123311904Y-97950057D02*
X123359523Y-98045295D01*
X123359523Y-98045295D02*
X123359523Y-98140533D01*
X123359523Y-98140533D02*
X123311904Y-98283390D01*
X123311904Y-98283390D02*
X122740476Y-98854819D01*
X122740476Y-98854819D02*
X123359523Y-98854819D01*
X124264285Y-97854819D02*
X123788095Y-97854819D01*
X123788095Y-97854819D02*
X123740476Y-98331009D01*
X123740476Y-98331009D02*
X123788095Y-98283390D01*
X123788095Y-98283390D02*
X123883333Y-98235771D01*
X123883333Y-98235771D02*
X124121428Y-98235771D01*
X124121428Y-98235771D02*
X124216666Y-98283390D01*
X124216666Y-98283390D02*
X124264285Y-98331009D01*
X124264285Y-98331009D02*
X124311904Y-98426247D01*
X124311904Y-98426247D02*
X124311904Y-98664342D01*
X124311904Y-98664342D02*
X124264285Y-98759580D01*
X124264285Y-98759580D02*
X124216666Y-98807200D01*
X124216666Y-98807200D02*
X124121428Y-98854819D01*
X124121428Y-98854819D02*
X123883333Y-98854819D01*
X123883333Y-98854819D02*
X123788095Y-98807200D01*
X123788095Y-98807200D02*
X123740476Y-98759580D01*
X181235714Y-98854819D02*
X181235714Y-97854819D01*
X181235714Y-97854819D02*
X181473809Y-97854819D01*
X181473809Y-97854819D02*
X181616666Y-97902438D01*
X181616666Y-97902438D02*
X181711904Y-97997676D01*
X181711904Y-97997676D02*
X181759523Y-98092914D01*
X181759523Y-98092914D02*
X181807142Y-98283390D01*
X181807142Y-98283390D02*
X181807142Y-98426247D01*
X181807142Y-98426247D02*
X181759523Y-98616723D01*
X181759523Y-98616723D02*
X181711904Y-98711961D01*
X181711904Y-98711961D02*
X181616666Y-98807200D01*
X181616666Y-98807200D02*
X181473809Y-98854819D01*
X181473809Y-98854819D02*
X181235714Y-98854819D01*
X182188095Y-97950057D02*
X182235714Y-97902438D01*
X182235714Y-97902438D02*
X182330952Y-97854819D01*
X182330952Y-97854819D02*
X182569047Y-97854819D01*
X182569047Y-97854819D02*
X182664285Y-97902438D01*
X182664285Y-97902438D02*
X182711904Y-97950057D01*
X182711904Y-97950057D02*
X182759523Y-98045295D01*
X182759523Y-98045295D02*
X182759523Y-98140533D01*
X182759523Y-98140533D02*
X182711904Y-98283390D01*
X182711904Y-98283390D02*
X182140476Y-98854819D01*
X182140476Y-98854819D02*
X182759523Y-98854819D01*
X183330952Y-98283390D02*
X183235714Y-98235771D01*
X183235714Y-98235771D02*
X183188095Y-98188152D01*
X183188095Y-98188152D02*
X183140476Y-98092914D01*
X183140476Y-98092914D02*
X183140476Y-98045295D01*
X183140476Y-98045295D02*
X183188095Y-97950057D01*
X183188095Y-97950057D02*
X183235714Y-97902438D01*
X183235714Y-97902438D02*
X183330952Y-97854819D01*
X183330952Y-97854819D02*
X183521428Y-97854819D01*
X183521428Y-97854819D02*
X183616666Y-97902438D01*
X183616666Y-97902438D02*
X183664285Y-97950057D01*
X183664285Y-97950057D02*
X183711904Y-98045295D01*
X183711904Y-98045295D02*
X183711904Y-98092914D01*
X183711904Y-98092914D02*
X183664285Y-98188152D01*
X183664285Y-98188152D02*
X183616666Y-98235771D01*
X183616666Y-98235771D02*
X183521428Y-98283390D01*
X183521428Y-98283390D02*
X183330952Y-98283390D01*
X183330952Y-98283390D02*
X183235714Y-98331009D01*
X183235714Y-98331009D02*
X183188095Y-98378628D01*
X183188095Y-98378628D02*
X183140476Y-98473866D01*
X183140476Y-98473866D02*
X183140476Y-98664342D01*
X183140476Y-98664342D02*
X183188095Y-98759580D01*
X183188095Y-98759580D02*
X183235714Y-98807200D01*
X183235714Y-98807200D02*
X183330952Y-98854819D01*
X183330952Y-98854819D02*
X183521428Y-98854819D01*
X183521428Y-98854819D02*
X183616666Y-98807200D01*
X183616666Y-98807200D02*
X183664285Y-98759580D01*
X183664285Y-98759580D02*
X183711904Y-98664342D01*
X183711904Y-98664342D02*
X183711904Y-98473866D01*
X183711904Y-98473866D02*
X183664285Y-98378628D01*
X183664285Y-98378628D02*
X183616666Y-98331009D01*
X183616666Y-98331009D02*
X183521428Y-98283390D01*
X135889164Y-97159999D02*
X136639164Y-96909999D01*
X136639164Y-96909999D02*
X135889164Y-96659999D01*
X136567735Y-95981428D02*
X136603450Y-96017142D01*
X136603450Y-96017142D02*
X136639164Y-96124285D01*
X136639164Y-96124285D02*
X136639164Y-96195713D01*
X136639164Y-96195713D02*
X136603450Y-96302856D01*
X136603450Y-96302856D02*
X136532021Y-96374285D01*
X136532021Y-96374285D02*
X136460592Y-96409999D01*
X136460592Y-96409999D02*
X136317735Y-96445713D01*
X136317735Y-96445713D02*
X136210592Y-96445713D01*
X136210592Y-96445713D02*
X136067735Y-96409999D01*
X136067735Y-96409999D02*
X135996307Y-96374285D01*
X135996307Y-96374285D02*
X135924878Y-96302856D01*
X135924878Y-96302856D02*
X135889164Y-96195713D01*
X135889164Y-96195713D02*
X135889164Y-96124285D01*
X135889164Y-96124285D02*
X135924878Y-96017142D01*
X135924878Y-96017142D02*
X135960592Y-95981428D01*
X136567735Y-95231428D02*
X136603450Y-95267142D01*
X136603450Y-95267142D02*
X136639164Y-95374285D01*
X136639164Y-95374285D02*
X136639164Y-95445713D01*
X136639164Y-95445713D02*
X136603450Y-95552856D01*
X136603450Y-95552856D02*
X136532021Y-95624285D01*
X136532021Y-95624285D02*
X136460592Y-95659999D01*
X136460592Y-95659999D02*
X136317735Y-95695713D01*
X136317735Y-95695713D02*
X136210592Y-95695713D01*
X136210592Y-95695713D02*
X136067735Y-95659999D01*
X136067735Y-95659999D02*
X135996307Y-95624285D01*
X135996307Y-95624285D02*
X135924878Y-95552856D01*
X135924878Y-95552856D02*
X135889164Y-95445713D01*
X135889164Y-95445713D02*
X135889164Y-95374285D01*
X135889164Y-95374285D02*
X135924878Y-95267142D01*
X135924878Y-95267142D02*
X135960592Y-95231428D01*
X136603450Y-91990713D02*
X136639164Y-91883571D01*
X136639164Y-91883571D02*
X136639164Y-91704999D01*
X136639164Y-91704999D02*
X136603450Y-91633571D01*
X136603450Y-91633571D02*
X136567735Y-91597856D01*
X136567735Y-91597856D02*
X136496307Y-91562142D01*
X136496307Y-91562142D02*
X136424878Y-91562142D01*
X136424878Y-91562142D02*
X136353450Y-91597856D01*
X136353450Y-91597856D02*
X136317735Y-91633571D01*
X136317735Y-91633571D02*
X136282021Y-91704999D01*
X136282021Y-91704999D02*
X136246307Y-91847856D01*
X136246307Y-91847856D02*
X136210592Y-91919285D01*
X136210592Y-91919285D02*
X136174878Y-91954999D01*
X136174878Y-91954999D02*
X136103450Y-91990713D01*
X136103450Y-91990713D02*
X136032021Y-91990713D01*
X136032021Y-91990713D02*
X135960592Y-91954999D01*
X135960592Y-91954999D02*
X135924878Y-91919285D01*
X135924878Y-91919285D02*
X135889164Y-91847856D01*
X135889164Y-91847856D02*
X135889164Y-91669285D01*
X135889164Y-91669285D02*
X135924878Y-91562142D01*
X136639164Y-91240713D02*
X135889164Y-91240713D01*
X135889164Y-91240713D02*
X135889164Y-91062142D01*
X135889164Y-91062142D02*
X135924878Y-90954999D01*
X135924878Y-90954999D02*
X135996307Y-90883570D01*
X135996307Y-90883570D02*
X136067735Y-90847856D01*
X136067735Y-90847856D02*
X136210592Y-90812142D01*
X136210592Y-90812142D02*
X136317735Y-90812142D01*
X136317735Y-90812142D02*
X136460592Y-90847856D01*
X136460592Y-90847856D02*
X136532021Y-90883570D01*
X136532021Y-90883570D02*
X136603450Y-90954999D01*
X136603450Y-90954999D02*
X136639164Y-91062142D01*
X136639164Y-91062142D02*
X136639164Y-91240713D01*
X136424878Y-90526427D02*
X136424878Y-90169285D01*
X136639164Y-90597856D02*
X135889164Y-90347856D01*
X135889164Y-90347856D02*
X136639164Y-90097856D01*
X135924878Y-99271428D02*
X135889164Y-99342857D01*
X135889164Y-99342857D02*
X135889164Y-99449999D01*
X135889164Y-99449999D02*
X135924878Y-99557142D01*
X135924878Y-99557142D02*
X135996307Y-99628571D01*
X135996307Y-99628571D02*
X136067735Y-99664285D01*
X136067735Y-99664285D02*
X136210592Y-99699999D01*
X136210592Y-99699999D02*
X136317735Y-99699999D01*
X136317735Y-99699999D02*
X136460592Y-99664285D01*
X136460592Y-99664285D02*
X136532021Y-99628571D01*
X136532021Y-99628571D02*
X136603450Y-99557142D01*
X136603450Y-99557142D02*
X136639164Y-99449999D01*
X136639164Y-99449999D02*
X136639164Y-99378571D01*
X136639164Y-99378571D02*
X136603450Y-99271428D01*
X136603450Y-99271428D02*
X136567735Y-99235714D01*
X136567735Y-99235714D02*
X136317735Y-99235714D01*
X136317735Y-99235714D02*
X136317735Y-99378571D01*
X136639164Y-98914285D02*
X135889164Y-98914285D01*
X135889164Y-98914285D02*
X136639164Y-98485714D01*
X136639164Y-98485714D02*
X135889164Y-98485714D01*
X136639164Y-98128571D02*
X135889164Y-98128571D01*
X135889164Y-98128571D02*
X135889164Y-97950000D01*
X135889164Y-97950000D02*
X135924878Y-97842857D01*
X135924878Y-97842857D02*
X135996307Y-97771428D01*
X135996307Y-97771428D02*
X136067735Y-97735714D01*
X136067735Y-97735714D02*
X136210592Y-97700000D01*
X136210592Y-97700000D02*
X136317735Y-97700000D01*
X136317735Y-97700000D02*
X136460592Y-97735714D01*
X136460592Y-97735714D02*
X136532021Y-97771428D01*
X136532021Y-97771428D02*
X136603450Y-97842857D01*
X136603450Y-97842857D02*
X136639164Y-97950000D01*
X136639164Y-97950000D02*
X136639164Y-98128571D01*
X136603450Y-94512856D02*
X136639164Y-94405714D01*
X136639164Y-94405714D02*
X136639164Y-94227142D01*
X136639164Y-94227142D02*
X136603450Y-94155714D01*
X136603450Y-94155714D02*
X136567735Y-94119999D01*
X136567735Y-94119999D02*
X136496307Y-94084285D01*
X136496307Y-94084285D02*
X136424878Y-94084285D01*
X136424878Y-94084285D02*
X136353450Y-94119999D01*
X136353450Y-94119999D02*
X136317735Y-94155714D01*
X136317735Y-94155714D02*
X136282021Y-94227142D01*
X136282021Y-94227142D02*
X136246307Y-94369999D01*
X136246307Y-94369999D02*
X136210592Y-94441428D01*
X136210592Y-94441428D02*
X136174878Y-94477142D01*
X136174878Y-94477142D02*
X136103450Y-94512856D01*
X136103450Y-94512856D02*
X136032021Y-94512856D01*
X136032021Y-94512856D02*
X135960592Y-94477142D01*
X135960592Y-94477142D02*
X135924878Y-94441428D01*
X135924878Y-94441428D02*
X135889164Y-94369999D01*
X135889164Y-94369999D02*
X135889164Y-94191428D01*
X135889164Y-94191428D02*
X135924878Y-94084285D01*
X136567735Y-93334285D02*
X136603450Y-93369999D01*
X136603450Y-93369999D02*
X136639164Y-93477142D01*
X136639164Y-93477142D02*
X136639164Y-93548570D01*
X136639164Y-93548570D02*
X136603450Y-93655713D01*
X136603450Y-93655713D02*
X136532021Y-93727142D01*
X136532021Y-93727142D02*
X136460592Y-93762856D01*
X136460592Y-93762856D02*
X136317735Y-93798570D01*
X136317735Y-93798570D02*
X136210592Y-93798570D01*
X136210592Y-93798570D02*
X136067735Y-93762856D01*
X136067735Y-93762856D02*
X135996307Y-93727142D01*
X135996307Y-93727142D02*
X135924878Y-93655713D01*
X135924878Y-93655713D02*
X135889164Y-93548570D01*
X135889164Y-93548570D02*
X135889164Y-93477142D01*
X135889164Y-93477142D02*
X135924878Y-93369999D01*
X135924878Y-93369999D02*
X135960592Y-93334285D01*
X136639164Y-92655713D02*
X136639164Y-93012856D01*
X136639164Y-93012856D02*
X135889164Y-93012856D01*
X186785714Y-92054819D02*
X186785714Y-91054819D01*
X186785714Y-91054819D02*
X187023809Y-91054819D01*
X187023809Y-91054819D02*
X187166666Y-91102438D01*
X187166666Y-91102438D02*
X187261904Y-91197676D01*
X187261904Y-91197676D02*
X187309523Y-91292914D01*
X187309523Y-91292914D02*
X187357142Y-91483390D01*
X187357142Y-91483390D02*
X187357142Y-91626247D01*
X187357142Y-91626247D02*
X187309523Y-91816723D01*
X187309523Y-91816723D02*
X187261904Y-91911961D01*
X187261904Y-91911961D02*
X187166666Y-92007200D01*
X187166666Y-92007200D02*
X187023809Y-92054819D01*
X187023809Y-92054819D02*
X186785714Y-92054819D01*
X187738095Y-91150057D02*
X187785714Y-91102438D01*
X187785714Y-91102438D02*
X187880952Y-91054819D01*
X187880952Y-91054819D02*
X188119047Y-91054819D01*
X188119047Y-91054819D02*
X188214285Y-91102438D01*
X188214285Y-91102438D02*
X188261904Y-91150057D01*
X188261904Y-91150057D02*
X188309523Y-91245295D01*
X188309523Y-91245295D02*
X188309523Y-91340533D01*
X188309523Y-91340533D02*
X188261904Y-91483390D01*
X188261904Y-91483390D02*
X187690476Y-92054819D01*
X187690476Y-92054819D02*
X188309523Y-92054819D01*
X188642857Y-91054819D02*
X189309523Y-91054819D01*
X189309523Y-91054819D02*
X188880952Y-92054819D01*
X176090476Y-111857200D02*
X176233333Y-111904819D01*
X176233333Y-111904819D02*
X176471428Y-111904819D01*
X176471428Y-111904819D02*
X176566666Y-111857200D01*
X176566666Y-111857200D02*
X176614285Y-111809580D01*
X176614285Y-111809580D02*
X176661904Y-111714342D01*
X176661904Y-111714342D02*
X176661904Y-111619104D01*
X176661904Y-111619104D02*
X176614285Y-111523866D01*
X176614285Y-111523866D02*
X176566666Y-111476247D01*
X176566666Y-111476247D02*
X176471428Y-111428628D01*
X176471428Y-111428628D02*
X176280952Y-111381009D01*
X176280952Y-111381009D02*
X176185714Y-111333390D01*
X176185714Y-111333390D02*
X176138095Y-111285771D01*
X176138095Y-111285771D02*
X176090476Y-111190533D01*
X176090476Y-111190533D02*
X176090476Y-111095295D01*
X176090476Y-111095295D02*
X176138095Y-111000057D01*
X176138095Y-111000057D02*
X176185714Y-110952438D01*
X176185714Y-110952438D02*
X176280952Y-110904819D01*
X176280952Y-110904819D02*
X176519047Y-110904819D01*
X176519047Y-110904819D02*
X176661904Y-110952438D01*
X176995238Y-110904819D02*
X177233333Y-111904819D01*
X177233333Y-111904819D02*
X177423809Y-111190533D01*
X177423809Y-111190533D02*
X177614285Y-111904819D01*
X177614285Y-111904819D02*
X177852381Y-110904819D01*
X178757142Y-111904819D02*
X178185714Y-111904819D01*
X178471428Y-111904819D02*
X178471428Y-110904819D01*
X178471428Y-110904819D02*
X178376190Y-111047676D01*
X178376190Y-111047676D02*
X178280952Y-111142914D01*
X178280952Y-111142914D02*
X178185714Y-111190533D01*
X179138095Y-111000057D02*
X179185714Y-110952438D01*
X179185714Y-110952438D02*
X179280952Y-110904819D01*
X179280952Y-110904819D02*
X179519047Y-110904819D01*
X179519047Y-110904819D02*
X179614285Y-110952438D01*
X179614285Y-110952438D02*
X179661904Y-111000057D01*
X179661904Y-111000057D02*
X179709523Y-111095295D01*
X179709523Y-111095295D02*
X179709523Y-111190533D01*
X179709523Y-111190533D02*
X179661904Y-111333390D01*
X179661904Y-111333390D02*
X179090476Y-111904819D01*
X179090476Y-111904819D02*
X179709523Y-111904819D01*
X127385714Y-92054819D02*
X127385714Y-91054819D01*
X127385714Y-91054819D02*
X127623809Y-91054819D01*
X127623809Y-91054819D02*
X127766666Y-91102438D01*
X127766666Y-91102438D02*
X127861904Y-91197676D01*
X127861904Y-91197676D02*
X127909523Y-91292914D01*
X127909523Y-91292914D02*
X127957142Y-91483390D01*
X127957142Y-91483390D02*
X127957142Y-91626247D01*
X127957142Y-91626247D02*
X127909523Y-91816723D01*
X127909523Y-91816723D02*
X127861904Y-91911961D01*
X127861904Y-91911961D02*
X127766666Y-92007200D01*
X127766666Y-92007200D02*
X127623809Y-92054819D01*
X127623809Y-92054819D02*
X127385714Y-92054819D01*
X128338095Y-91150057D02*
X128385714Y-91102438D01*
X128385714Y-91102438D02*
X128480952Y-91054819D01*
X128480952Y-91054819D02*
X128719047Y-91054819D01*
X128719047Y-91054819D02*
X128814285Y-91102438D01*
X128814285Y-91102438D02*
X128861904Y-91150057D01*
X128861904Y-91150057D02*
X128909523Y-91245295D01*
X128909523Y-91245295D02*
X128909523Y-91340533D01*
X128909523Y-91340533D02*
X128861904Y-91483390D01*
X128861904Y-91483390D02*
X128290476Y-92054819D01*
X128290476Y-92054819D02*
X128909523Y-92054819D01*
X129766666Y-91388152D02*
X129766666Y-92054819D01*
X129528571Y-91007200D02*
X129290476Y-91721485D01*
X129290476Y-91721485D02*
X129909523Y-91721485D01*
X175235714Y-92054819D02*
X175235714Y-91054819D01*
X175235714Y-91054819D02*
X175473809Y-91054819D01*
X175473809Y-91054819D02*
X175616666Y-91102438D01*
X175616666Y-91102438D02*
X175711904Y-91197676D01*
X175711904Y-91197676D02*
X175759523Y-91292914D01*
X175759523Y-91292914D02*
X175807142Y-91483390D01*
X175807142Y-91483390D02*
X175807142Y-91626247D01*
X175807142Y-91626247D02*
X175759523Y-91816723D01*
X175759523Y-91816723D02*
X175711904Y-91911961D01*
X175711904Y-91911961D02*
X175616666Y-92007200D01*
X175616666Y-92007200D02*
X175473809Y-92054819D01*
X175473809Y-92054819D02*
X175235714Y-92054819D01*
X176188095Y-91150057D02*
X176235714Y-91102438D01*
X176235714Y-91102438D02*
X176330952Y-91054819D01*
X176330952Y-91054819D02*
X176569047Y-91054819D01*
X176569047Y-91054819D02*
X176664285Y-91102438D01*
X176664285Y-91102438D02*
X176711904Y-91150057D01*
X176711904Y-91150057D02*
X176759523Y-91245295D01*
X176759523Y-91245295D02*
X176759523Y-91340533D01*
X176759523Y-91340533D02*
X176711904Y-91483390D01*
X176711904Y-91483390D02*
X176140476Y-92054819D01*
X176140476Y-92054819D02*
X176759523Y-92054819D01*
X177616666Y-91054819D02*
X177426190Y-91054819D01*
X177426190Y-91054819D02*
X177330952Y-91102438D01*
X177330952Y-91102438D02*
X177283333Y-91150057D01*
X177283333Y-91150057D02*
X177188095Y-91292914D01*
X177188095Y-91292914D02*
X177140476Y-91483390D01*
X177140476Y-91483390D02*
X177140476Y-91864342D01*
X177140476Y-91864342D02*
X177188095Y-91959580D01*
X177188095Y-91959580D02*
X177235714Y-92007200D01*
X177235714Y-92007200D02*
X177330952Y-92054819D01*
X177330952Y-92054819D02*
X177521428Y-92054819D01*
X177521428Y-92054819D02*
X177616666Y-92007200D01*
X177616666Y-92007200D02*
X177664285Y-91959580D01*
X177664285Y-91959580D02*
X177711904Y-91864342D01*
X177711904Y-91864342D02*
X177711904Y-91626247D01*
X177711904Y-91626247D02*
X177664285Y-91531009D01*
X177664285Y-91531009D02*
X177616666Y-91483390D01*
X177616666Y-91483390D02*
X177521428Y-91435771D01*
X177521428Y-91435771D02*
X177330952Y-91435771D01*
X177330952Y-91435771D02*
X177235714Y-91483390D01*
X177235714Y-91483390D02*
X177188095Y-91531009D01*
X177188095Y-91531009D02*
X177140476Y-91626247D01*
X115835714Y-92054819D02*
X115835714Y-91054819D01*
X115835714Y-91054819D02*
X116073809Y-91054819D01*
X116073809Y-91054819D02*
X116216666Y-91102438D01*
X116216666Y-91102438D02*
X116311904Y-91197676D01*
X116311904Y-91197676D02*
X116359523Y-91292914D01*
X116359523Y-91292914D02*
X116407142Y-91483390D01*
X116407142Y-91483390D02*
X116407142Y-91626247D01*
X116407142Y-91626247D02*
X116359523Y-91816723D01*
X116359523Y-91816723D02*
X116311904Y-91911961D01*
X116311904Y-91911961D02*
X116216666Y-92007200D01*
X116216666Y-92007200D02*
X116073809Y-92054819D01*
X116073809Y-92054819D02*
X115835714Y-92054819D01*
X116788095Y-91150057D02*
X116835714Y-91102438D01*
X116835714Y-91102438D02*
X116930952Y-91054819D01*
X116930952Y-91054819D02*
X117169047Y-91054819D01*
X117169047Y-91054819D02*
X117264285Y-91102438D01*
X117264285Y-91102438D02*
X117311904Y-91150057D01*
X117311904Y-91150057D02*
X117359523Y-91245295D01*
X117359523Y-91245295D02*
X117359523Y-91340533D01*
X117359523Y-91340533D02*
X117311904Y-91483390D01*
X117311904Y-91483390D02*
X116740476Y-92054819D01*
X116740476Y-92054819D02*
X117359523Y-92054819D01*
X117692857Y-91054819D02*
X118311904Y-91054819D01*
X118311904Y-91054819D02*
X117978571Y-91435771D01*
X117978571Y-91435771D02*
X118121428Y-91435771D01*
X118121428Y-91435771D02*
X118216666Y-91483390D01*
X118216666Y-91483390D02*
X118264285Y-91531009D01*
X118264285Y-91531009D02*
X118311904Y-91626247D01*
X118311904Y-91626247D02*
X118311904Y-91864342D01*
X118311904Y-91864342D02*
X118264285Y-91959580D01*
X118264285Y-91959580D02*
X118216666Y-92007200D01*
X118216666Y-92007200D02*
X118121428Y-92054819D01*
X118121428Y-92054819D02*
X117835714Y-92054819D01*
X117835714Y-92054819D02*
X117740476Y-92007200D01*
X117740476Y-92007200D02*
X117692857Y-91959580D01*
X118040476Y-111957200D02*
X118183333Y-112004819D01*
X118183333Y-112004819D02*
X118421428Y-112004819D01*
X118421428Y-112004819D02*
X118516666Y-111957200D01*
X118516666Y-111957200D02*
X118564285Y-111909580D01*
X118564285Y-111909580D02*
X118611904Y-111814342D01*
X118611904Y-111814342D02*
X118611904Y-111719104D01*
X118611904Y-111719104D02*
X118564285Y-111623866D01*
X118564285Y-111623866D02*
X118516666Y-111576247D01*
X118516666Y-111576247D02*
X118421428Y-111528628D01*
X118421428Y-111528628D02*
X118230952Y-111481009D01*
X118230952Y-111481009D02*
X118135714Y-111433390D01*
X118135714Y-111433390D02*
X118088095Y-111385771D01*
X118088095Y-111385771D02*
X118040476Y-111290533D01*
X118040476Y-111290533D02*
X118040476Y-111195295D01*
X118040476Y-111195295D02*
X118088095Y-111100057D01*
X118088095Y-111100057D02*
X118135714Y-111052438D01*
X118135714Y-111052438D02*
X118230952Y-111004819D01*
X118230952Y-111004819D02*
X118469047Y-111004819D01*
X118469047Y-111004819D02*
X118611904Y-111052438D01*
X118945238Y-111004819D02*
X119183333Y-112004819D01*
X119183333Y-112004819D02*
X119373809Y-111290533D01*
X119373809Y-111290533D02*
X119564285Y-112004819D01*
X119564285Y-112004819D02*
X119802381Y-111004819D01*
X120707142Y-112004819D02*
X120135714Y-112004819D01*
X120421428Y-112004819D02*
X120421428Y-111004819D01*
X120421428Y-111004819D02*
X120326190Y-111147676D01*
X120326190Y-111147676D02*
X120230952Y-111242914D01*
X120230952Y-111242914D02*
X120135714Y-111290533D01*
X121659523Y-112004819D02*
X121088095Y-112004819D01*
X121373809Y-112004819D02*
X121373809Y-111004819D01*
X121373809Y-111004819D02*
X121278571Y-111147676D01*
X121278571Y-111147676D02*
X121183333Y-111242914D01*
X121183333Y-111242914D02*
X121088095Y-111290533D01*
D12*
%TO.C,D25*%
X119550000Y-96100000D02*
X119550000Y-101150000D01*
X120000000Y-95650000D02*
X119550000Y-96100000D01*
X120350000Y-97500000D02*
X120350000Y-99300000D01*
X125750000Y-97500000D02*
X125750000Y-99300000D01*
X126550000Y-95650000D02*
X120000000Y-95650000D01*
X126550000Y-101150000D02*
X119550000Y-101150000D01*
X126550000Y-101150000D02*
X126550000Y-95650000D01*
%TO.C,D28*%
X178950000Y-96100000D02*
X178950000Y-101150000D01*
X179400000Y-95650000D02*
X178950000Y-96100000D01*
X179750000Y-97500000D02*
X179750000Y-99300000D01*
X185150000Y-97500000D02*
X185150000Y-99300000D01*
X185950000Y-95650000D02*
X179400000Y-95650000D01*
X185950000Y-101150000D02*
X178950000Y-101150000D01*
X185950000Y-101150000D02*
X185950000Y-95650000D01*
%TO.C,J5*%
X190595000Y-62270000D02*
X190595000Y-69950000D01*
X190595000Y-62270000D02*
X193255000Y-62270000D01*
X190595000Y-69950000D02*
X193255000Y-69950000D01*
X191925000Y-59670000D02*
X193255000Y-59670000D01*
X193255000Y-59670000D02*
X193255000Y-61000000D01*
X193255000Y-62270000D02*
X193255000Y-69950000D01*
D13*
%TO.C,J1*%
X132800000Y-88890000D02*
X132800000Y-100890000D01*
X132800000Y-100890000D02*
X170800000Y-100890000D01*
X137800000Y-100890000D02*
X137800000Y-88890000D01*
X167300000Y-100890000D02*
X167300000Y-88890000D01*
X170800000Y-88890000D02*
X132800000Y-88890000D01*
X170800000Y-100890000D02*
X170800000Y-88890000D01*
D12*
%TO.C,D27*%
X184500000Y-89300000D02*
X184500000Y-94350000D01*
X184950000Y-88850000D02*
X184500000Y-89300000D01*
X185300000Y-90700000D02*
X185300000Y-92500000D01*
X190700000Y-90700000D02*
X190700000Y-92500000D01*
X191500000Y-88850000D02*
X184950000Y-88850000D01*
X191500000Y-94350000D02*
X184500000Y-94350000D01*
X191500000Y-94350000D02*
X191500000Y-88850000D01*
%TO.C,J2*%
X111595000Y-62270000D02*
X111595000Y-69950000D01*
X111595000Y-62270000D02*
X114255000Y-62270000D01*
X111595000Y-69950000D02*
X114255000Y-69950000D01*
X112925000Y-59670000D02*
X114255000Y-59670000D01*
X114255000Y-59670000D02*
X114255000Y-61000000D01*
X114255000Y-62270000D02*
X114255000Y-69950000D01*
%TO.C,SW12*%
X173950000Y-111400000D02*
X174550000Y-111400000D01*
X174250000Y-111700000D02*
X173950000Y-111400000D01*
X174550000Y-111400000D02*
X174250000Y-111700000D01*
X175650000Y-109600000D02*
X175650000Y-121400000D01*
X179750000Y-109600000D02*
X175650000Y-109600000D01*
X179750000Y-121400000D02*
X175650000Y-121400000D01*
X181250000Y-115500000D02*
X182250000Y-115500000D01*
X181750000Y-115000000D02*
X181750000Y-116000000D01*
X183750000Y-109600000D02*
X187850000Y-109600000D01*
X187850000Y-109600000D02*
X187850000Y-112000000D01*
X187850000Y-114200000D02*
X187850000Y-116800000D01*
X187850000Y-119000000D02*
X187850000Y-121400000D01*
X187850000Y-121400000D02*
X183750000Y-121400000D01*
X184750000Y-115500000D02*
G75*
G02*
X178750000Y-115500000I-3000000J0D01*
G01*
X178750000Y-115500000D02*
G75*
G02*
X184750000Y-115500000I3000000J0D01*
G01*
%TO.C,D24*%
X125100000Y-89300000D02*
X125100000Y-94350000D01*
X125550000Y-88850000D02*
X125100000Y-89300000D01*
X125900000Y-90700000D02*
X125900000Y-92500000D01*
X131300000Y-90700000D02*
X131300000Y-92500000D01*
X132100000Y-88850000D02*
X125550000Y-88850000D01*
X132100000Y-94350000D02*
X125100000Y-94350000D01*
X132100000Y-94350000D02*
X132100000Y-88850000D01*
%TO.C,D26*%
X172950000Y-89300000D02*
X172950000Y-94350000D01*
X173400000Y-88850000D02*
X172950000Y-89300000D01*
X173750000Y-90700000D02*
X173750000Y-92500000D01*
X179150000Y-90700000D02*
X179150000Y-92500000D01*
X179950000Y-88850000D02*
X173400000Y-88850000D01*
X179950000Y-94350000D02*
X172950000Y-94350000D01*
X179950000Y-94350000D02*
X179950000Y-88850000D01*
%TO.C,D23*%
X113550000Y-89300000D02*
X113550000Y-94350000D01*
X114000000Y-88850000D02*
X113550000Y-89300000D01*
X114350000Y-90700000D02*
X114350000Y-92500000D01*
X119750000Y-90700000D02*
X119750000Y-92500000D01*
X120550000Y-88850000D02*
X114000000Y-88850000D01*
X120550000Y-94350000D02*
X113550000Y-94350000D01*
X120550000Y-94350000D02*
X120550000Y-88850000D01*
%TO.C,J3*%
X147570000Y-43145000D02*
X148900000Y-43145000D01*
X147570000Y-44475000D02*
X147570000Y-43145000D01*
X150170000Y-43145000D02*
X157850000Y-43145000D01*
X150170000Y-45805000D02*
X150170000Y-43145000D01*
X150170000Y-45805000D02*
X157850000Y-45805000D01*
X157850000Y-45805000D02*
X157850000Y-43145000D01*
%TO.C,SW11*%
X115950000Y-111400000D02*
X116550000Y-111400000D01*
X116250000Y-111700000D02*
X115950000Y-111400000D01*
X116550000Y-111400000D02*
X116250000Y-111700000D01*
X117650000Y-109600000D02*
X117650000Y-121400000D01*
X121750000Y-109600000D02*
X117650000Y-109600000D01*
X121750000Y-121400000D02*
X117650000Y-121400000D01*
X123250000Y-115500000D02*
X124250000Y-115500000D01*
X123750000Y-115000000D02*
X123750000Y-116000000D01*
X125750000Y-109600000D02*
X129850000Y-109600000D01*
X129850000Y-109600000D02*
X129850000Y-112000000D01*
X129850000Y-114200000D02*
X129850000Y-116800000D01*
X129850000Y-119000000D02*
X129850000Y-121400000D01*
X129850000Y-121400000D02*
X125750000Y-121400000D01*
X126750000Y-115500000D02*
G75*
G02*
X120750000Y-115500000I-3000000J0D01*
G01*
X120750000Y-115500000D02*
G75*
G02*
X126750000Y-115500000I3000000J0D01*
G01*
%TO.C,J4*%
X147570000Y-125245000D02*
X148900000Y-125245000D01*
X147570000Y-126575000D02*
X147570000Y-125245000D01*
X150170000Y-125245000D02*
X157850000Y-125245000D01*
X150170000Y-127905000D02*
X150170000Y-125245000D01*
X150170000Y-127905000D02*
X157850000Y-127905000D01*
X157850000Y-127905000D02*
X157850000Y-125245000D01*
%TD*%
%LPC*%
D14*
%TO.C,D25*%
X120600000Y-96800000D03*
X120600000Y-100000000D03*
X125500000Y-100000000D03*
X125500000Y-96800000D03*
%TD*%
%TO.C,D28*%
X180000000Y-96800000D03*
X180000000Y-100000000D03*
X184900000Y-100000000D03*
X184900000Y-96800000D03*
%TD*%
D15*
%TO.C,SW4*%
X176020000Y-55370000D03*
D16*
X181100000Y-55370000D03*
D15*
X186180000Y-55370000D03*
%TD*%
%TO.C,SW10*%
X156890000Y-115500000D03*
D16*
X161970000Y-115500000D03*
D15*
X167050000Y-115500000D03*
%TD*%
%TO.C,SW1*%
X118870000Y-55370000D03*
D16*
X123950000Y-55370000D03*
D15*
X129030000Y-55370000D03*
%TD*%
D17*
%TO.C,J5*%
X191925000Y-61000000D03*
D18*
X191925000Y-63540000D03*
X191925000Y-66080000D03*
X191925000Y-68620000D03*
%TD*%
D17*
%TO.C,J1*%
X134300000Y-98700000D03*
D18*
X134300000Y-96160000D03*
X134300000Y-93620000D03*
X134300000Y-91080000D03*
%TD*%
D14*
%TO.C,D27*%
X185550000Y-90000000D03*
X185550000Y-93200000D03*
X190450000Y-93200000D03*
X190450000Y-90000000D03*
%TD*%
D17*
%TO.C,J2*%
X112925000Y-61000000D03*
D18*
X112925000Y-63540000D03*
X112925000Y-66080000D03*
X112925000Y-68620000D03*
%TD*%
D19*
%TO.C,SW12*%
X174250000Y-113000000D03*
D20*
X174250000Y-118000000D03*
X174250000Y-115500000D03*
D21*
X181750000Y-109900000D03*
X181750000Y-121100000D03*
D20*
X188750000Y-118000000D03*
X188750000Y-113000000D03*
%TD*%
D14*
%TO.C,D24*%
X126150000Y-90000000D03*
X126150000Y-93200000D03*
X131050000Y-93200000D03*
X131050000Y-90000000D03*
%TD*%
%TO.C,D26*%
X174000000Y-90000000D03*
X174000000Y-93200000D03*
X178900000Y-93200000D03*
X178900000Y-90000000D03*
%TD*%
%TO.C,D23*%
X114600000Y-90000000D03*
X114600000Y-93200000D03*
X119500000Y-93200000D03*
X119500000Y-90000000D03*
%TD*%
D15*
%TO.C,SW6*%
X137920000Y-74420000D03*
D16*
X143000000Y-74420000D03*
D15*
X148080000Y-74420000D03*
%TD*%
D17*
%TO.C,J3*%
X148900000Y-44475000D03*
D18*
X151440000Y-44475000D03*
X153980000Y-44475000D03*
X156520000Y-44475000D03*
%TD*%
D15*
%TO.C,SW2*%
X137920000Y-55370000D03*
D16*
X143000000Y-55370000D03*
D15*
X148080000Y-55370000D03*
%TD*%
%TO.C,SW7*%
X156970000Y-74420000D03*
D16*
X162050000Y-74420000D03*
D15*
X167130000Y-74420000D03*
%TD*%
D19*
%TO.C,SW11*%
X116250000Y-113000000D03*
D20*
X116250000Y-118000000D03*
X116250000Y-115500000D03*
D21*
X123750000Y-109900000D03*
X123750000Y-121100000D03*
D20*
X130750000Y-118000000D03*
X130750000Y-113000000D03*
%TD*%
D15*
%TO.C,SW5*%
X118870000Y-74420000D03*
D16*
X123950000Y-74420000D03*
D15*
X129030000Y-74420000D03*
%TD*%
D17*
%TO.C,J4*%
X148900000Y-126575000D03*
D18*
X151440000Y-126575000D03*
X153980000Y-126575000D03*
X156520000Y-126575000D03*
%TD*%
D15*
%TO.C,SW8*%
X176020000Y-74420000D03*
D16*
X181100000Y-74420000D03*
D15*
X186180000Y-74420000D03*
%TD*%
%TO.C,SW3*%
X156970000Y-55370000D03*
D16*
X162050000Y-55370000D03*
D15*
X167130000Y-55370000D03*
%TD*%
%TO.C,SW9*%
X137840000Y-115500000D03*
D16*
X142920000Y-115500000D03*
D15*
X148000000Y-115500000D03*
%TD*%
D22*
%TO.C,U2*%
X191000000Y-103600000D03*
D23*
X188460000Y-103600000D03*
X185920000Y-103600000D03*
X183380000Y-103600000D03*
X180840000Y-103600000D03*
X178300000Y-103600000D03*
X175760000Y-103600000D03*
X175760000Y-86350000D03*
X178300000Y-86350000D03*
X180840000Y-86350000D03*
D24*
X183380000Y-86350000D03*
X185920000Y-86350000D03*
X188460000Y-86350000D03*
X191000000Y-86350000D03*
%TD*%
%LPD*%
M02*
