M48
; DRILL file {KiCad 8.0.7} date 2025-02-14T00:11:11-0500
; FORMAT={-:-/ absolute / inch / decimal}
; #@! TF.CreationDate,2025-02-14T00:11:11-05:00
; #@! TF.GenerationSoftware,Kicad,Pcbnew,8.0.7
; #@! TF.FileFunction,Plated,1,2,PTH
FMAT,2
INCH
; #@! TA.AperFunction,Plated,PTH,ViaDrill
T1C0.0118
; #@! TA.AperFunction,Plated,PTH,ComponentDrill
T2C0.0354
; #@! TA.AperFunction,Plated,PTH,ComponentDrill
T3C0.0394
; #@! TA.AperFunction,Plated,PTH,ComponentDrill
T4C0.0591
%
G90
G05
T1
X4.4833Y-4.5984
X4.5394Y-3.6407
X4.5768Y-4.0601
X4.5965Y-3.9862
X4.642Y-3.9727
X4.7027Y-3.9327
X4.7717Y-3.4961
X4.7756Y-3.8396
X4.7756Y-3.9085
X4.7874Y-3.6104
X4.9469Y-3.4488
X4.9606Y-3.6142
X4.9705Y-3.7205
X4.9903Y-3.9314
X5.0551Y-2.6063
X5.0591Y-2.2441
X5.0984Y-4.0748
X5.1339Y-3.4488
X5.1969Y-2.9921
X5.2115Y-3.7617
X5.2205Y-3.5354
X5.2854Y-3.9764
X5.3415Y-2.1189
X5.3415Y-2.8317
X5.3622Y-2.0157
X5.3642Y-4.1339
X5.3937Y-2.7559
X5.4077Y-3.9724
X5.4299Y-3.617
X5.4535Y-3.9566
X5.4969Y-4.3732
X5.502Y-4.2717
X5.5118Y-4.4685
X5.5136Y-2.5827
X5.5591Y-4.1102
X5.6398Y-3.81
X5.6398Y-4.065
X5.7016Y-4.3732
X5.748Y-3.4213
X5.7874Y-3.6713
X5.7884Y-4.311
X5.812Y-2.2146
X5.8642Y-4.4685
X5.8819Y-3.8061
X5.8819Y-4.1496
X5.9449Y-2.9823
X5.9642Y-3.996
X5.9724Y-3.872
X6.0138Y-3.6713
X6.0148Y-4.4291
X6.0236Y-4.311
X6.063Y-2.7559
X6.0642Y-3.9055
X6.0787Y-2.0079
X6.2035Y-3.9408
X6.2469Y-4.3142
X6.25Y-2.6969
X6.4488Y-3.4213
X6.4567Y-3.8268
X6.5118Y-4.0236
X6.5197Y-4.1181
X6.5669Y-4.189
X6.6397Y-3.4766
X6.6397Y-4.0582
X6.7037Y-4.5482
X6.7106Y-2.2057
X6.7224Y-2.8976
X6.7553Y-3.7381
X6.7913Y-2.0177
X6.8175Y-3.5419
X6.8504Y-3.9055
X6.948Y-3.9561
X6.9528Y-2.5512
X7.0Y-2.6969
X7.0Y-3.252
X7.0945Y-3.7244
X7.1811Y-3.8346
X7.2441Y-2.0709
X7.2785Y-3.748
X7.3327Y-3.6407
X7.4252Y-3.2441
X7.498Y-3.8189
T3
X4.5768Y-4.4488
X4.5768Y-4.5472
X4.5768Y-4.6457
X5.1476Y-4.4488
X5.1476Y-4.6457
X5.2874Y-3.5858
X5.2874Y-3.6858
X5.2874Y-3.7858
X5.2874Y-3.8858
X5.8642Y-4.9793
X5.9642Y-4.9793
X6.0642Y-4.9793
X6.1642Y-4.9793
X6.8602Y-4.4488
X6.8602Y-4.5472
X6.8602Y-4.6457
X6.9197Y-3.439
X6.9197Y-4.0394
X7.0197Y-3.439
X7.0197Y-4.0394
X7.1197Y-3.439
X7.1197Y-4.0394
X7.2197Y-3.439
X7.2197Y-4.0394
X7.3197Y-3.439
X7.3197Y-4.0394
X7.4197Y-3.439
X7.4197Y-4.0394
X7.4311Y-4.4488
X7.4311Y-4.6457
X7.5197Y-3.439
X7.5197Y-4.0394
T2
G00X4.7067Y-2.3758
M15
G01X4.7067Y-2.3541
M16
G05
G00X4.7067Y-3.1258
M15
G01X4.7067Y-3.1041
M16
G05
G00X4.9715Y-2.4063
M15
G01X4.9931Y-2.4063
M16
G05
G00X4.9715Y-3.1563
M15
G01X4.9931Y-3.1563
M16
G05
G00X5.4535Y-4.7431
M15
G01X5.4535Y-4.7215
M16
G05
G00X5.4567Y-2.3758
M15
G01X5.4567Y-2.3541
M16
G05
G00X5.4567Y-3.1258
M15
G01X5.4567Y-3.1041
M16
G05
G00X5.7183Y-4.7736
M15
G01X5.74Y-4.7736
M16
G05
G00X5.7215Y-2.4063
M15
G01X5.7431Y-2.4063
M16
G05
G00X5.7215Y-3.1563
M15
G01X5.7431Y-3.1563
M16
G05
G00X6.2035Y-4.7431
M15
G01X6.2035Y-4.7215
M16
G05
G00X6.2067Y-2.3758
M15
G01X6.2067Y-2.3541
M16
G05
G00X6.2067Y-3.1258
M15
G01X6.2067Y-3.1041
M16
G05
G00X6.4683Y-4.7736
M15
G01X6.49Y-4.7736
M16
G05
G00X6.4715Y-2.4063
M15
G01X6.4931Y-2.4063
M16
G05
G00X6.4715Y-3.1563
M15
G01X6.4931Y-3.1563
M16
G05
G00X6.9567Y-2.3758
M15
G01X6.9567Y-2.3541
M16
G05
G00X6.9567Y-3.1258
M15
G01X6.9567Y-3.1041
M16
G05
G00X7.2215Y-2.4063
M15
G01X7.2431Y-2.4063
M16
G05
G00X7.2215Y-3.1563
M15
G01X7.2431Y-3.1563
M16
G05
T4
G00X4.8465Y-4.3268
M15
G01X4.8976Y-4.3268
M16
G05
G00X4.8465Y-4.7677
M15
G01X4.8976Y-4.7677
M16
G05
G00X7.1299Y-4.3268
M15
G01X7.1811Y-4.3268
M16
G05
G00X7.1299Y-4.7677
M15
G01X7.1811Y-4.7677
M16
G05
M30
