M48
; DRILL file {KiCad 8.0.7} date 2025-02-09T11:28:35-0500
; FORMAT={-:-/ absolute / inch / decimal}
; #@! TF.CreationDate,2025-02-09T11:28:35-05:00
; #@! TF.GenerationSoftware,Kicad,Pcbnew,8.0.7
; #@! TF.FileFunction,NonPlated,1,2,NPTH
FMAT,2
INCH
; #@! TA.AperFunction,NonPlated,NPTH,ComponentDrill
T1C0.0670
; #@! TA.AperFunction,NonPlated,NPTH,ComponentDrill
T2C0.1570
%
G90
G05
T1
X4.6799Y-2.1799
X4.6799Y-2.9299
X5.0799Y-2.1799
X5.0799Y-2.9299
X5.4268Y-4.5472
X5.4299Y-2.1799
X5.4299Y-2.9299
X5.8268Y-4.5472
X5.8299Y-2.1799
X5.8299Y-2.9299
X6.1768Y-4.5472
X6.1799Y-2.1799
X6.1799Y-2.9299
X6.5768Y-4.5472
X6.5799Y-2.1799
X6.5799Y-2.9299
X6.9299Y-2.1799
X6.9299Y-2.9299
X7.3299Y-2.1799
X7.3299Y-2.9299
T2
X4.8799Y-2.1799
X4.8799Y-2.9299
X5.6268Y-4.5472
X5.6299Y-2.1799
X5.6299Y-2.9299
X6.3768Y-4.5472
X6.3799Y-2.1799
X6.3799Y-2.9299
X7.1299Y-2.1799
X7.1299Y-2.9299
M30
