%TF.GenerationSoftware,KiCad,Pcbnew,8.0.7*%
%TF.CreationDate,2025-02-14T00:11:11-05:00*%
%TF.ProjectId,makropad,6d616b72-6f70-4616-942e-6b696361645f,rev?*%
%TF.SameCoordinates,Original*%
%TF.FileFunction,Legend,Top*%
%TF.FilePolarity,Positive*%
%FSLAX46Y46*%
G04 Gerber Fmt 4.6, Leading zero omitted, Abs format (unit mm)*
G04 Created by KiCad (PCBNEW 8.0.7) date 2025-02-14 00:11:11*
%MOMM*%
%LPD*%
G01*
G04 APERTURE LIST*
%ADD10C,0.200000*%
%ADD11C,0.150000*%
%ADD12C,0.120000*%
%ADD13C,0.040000*%
%ADD14R,1.600000X0.850000*%
%ADD15C,5.100000*%
%ADD16O,1.900000X2.450000*%
%ADD17O,2.450000X1.900000*%
%ADD18C,3.200000*%
%ADD19R,1.700000X1.700000*%
%ADD20O,1.700000X1.700000*%
%ADD21R,2.000000X2.000000*%
%ADD22C,2.000000*%
%ADD23R,3.200000X2.000000*%
%ADD24R,1.700000X3.500000*%
%ADD25O,1.700000X3.600000*%
%ADD26O,1.700000X3.700000*%
G04 APERTURE END LIST*
D10*
G36*
X146407292Y-103410000D02*
G01*
X146407292Y-101366175D01*
X146821039Y-101366175D01*
X147019364Y-102016838D01*
X147048754Y-102114811D01*
X147069190Y-102194159D01*
X147091080Y-102290879D01*
X147095080Y-102312372D01*
X147116130Y-102213637D01*
X147120481Y-102194159D01*
X147144455Y-102097833D01*
X147167376Y-102015861D01*
X147358862Y-101366175D01*
X147773098Y-101366175D01*
X147773098Y-103410000D01*
X147446301Y-103410000D01*
X147446301Y-102774480D01*
X147447167Y-102674711D01*
X147449764Y-102569516D01*
X147453628Y-102469176D01*
X147458942Y-102366403D01*
X147465115Y-102263249D01*
X147472147Y-102159713D01*
X147473656Y-102138960D01*
X147481737Y-102036664D01*
X147490104Y-101937994D01*
X147499639Y-101833644D01*
X147500523Y-101824375D01*
X147510194Y-101726784D01*
X147520581Y-101623058D01*
X147526413Y-101565478D01*
X147251884Y-102530237D01*
X146933391Y-102530237D01*
X146651046Y-101565478D01*
X146663108Y-101665615D01*
X146673595Y-101763205D01*
X146678890Y-101816071D01*
X146688341Y-101917508D01*
X146697214Y-102023679D01*
X146704780Y-102124305D01*
X146712031Y-102227269D01*
X146718518Y-102330996D01*
X146724243Y-102435486D01*
X146725296Y-102456475D01*
X146729675Y-102559525D01*
X146732433Y-102659235D01*
X146733592Y-102765060D01*
X146733600Y-102774480D01*
X146733600Y-103410000D01*
X146407292Y-103410000D01*
G37*
G36*
X148888935Y-101846941D02*
G01*
X148997170Y-101865340D01*
X149094139Y-101897297D01*
X149191164Y-101950420D01*
X149234159Y-101983621D01*
X149306180Y-102060375D01*
X149357623Y-102149462D01*
X149388490Y-102250884D01*
X149398618Y-102349746D01*
X149398778Y-102364640D01*
X149398778Y-103410000D01*
X149059281Y-103410000D01*
X149059281Y-103140355D01*
X149051518Y-103140355D01*
X149048343Y-103166071D01*
X149006049Y-103260373D01*
X148933740Y-103337704D01*
X148846461Y-103390512D01*
X148742773Y-103423761D01*
X148635422Y-103436963D01*
X148596685Y-103437843D01*
X148497589Y-103431859D01*
X148396014Y-103410366D01*
X148296632Y-103367501D01*
X148221528Y-103312791D01*
X148155174Y-103235142D01*
X148110537Y-103143428D01*
X148087614Y-103037648D01*
X148084263Y-102972805D01*
X148087138Y-102940565D01*
X148434508Y-102940565D01*
X148452948Y-103038018D01*
X148508269Y-103112512D01*
X148596685Y-103159773D01*
X148697290Y-103175280D01*
X148713433Y-103175526D01*
X148816221Y-103164879D01*
X148910676Y-103129313D01*
X148954256Y-103099811D01*
X149018704Y-103025052D01*
X149047705Y-102926069D01*
X149048534Y-102903928D01*
X149048534Y-102716350D01*
X148671912Y-102716350D01*
X148574703Y-102731615D01*
X148498988Y-102777411D01*
X148445149Y-102864386D01*
X148434508Y-102940565D01*
X148087138Y-102940565D01*
X148093758Y-102866345D01*
X148122243Y-102772648D01*
X148176987Y-102682492D01*
X148236182Y-102623538D01*
X148320110Y-102569255D01*
X148419487Y-102530481D01*
X148519113Y-102509277D01*
X148630568Y-102499947D01*
X148664584Y-102499462D01*
X149048534Y-102499462D01*
X149048534Y-102368060D01*
X149030460Y-102268775D01*
X148976238Y-102193670D01*
X148890265Y-102146043D01*
X148792598Y-102130415D01*
X148776936Y-102130167D01*
X148678497Y-102141222D01*
X148586915Y-102180481D01*
X148518294Y-102252565D01*
X148496545Y-102316769D01*
X148154605Y-102316769D01*
X148176221Y-102213240D01*
X148216154Y-102121008D01*
X148274406Y-102040072D01*
X148350976Y-101970432D01*
X148442537Y-101914226D01*
X148545760Y-101874078D01*
X148645647Y-101852123D01*
X148754464Y-101842462D01*
X148787194Y-101841960D01*
X148888935Y-101846941D01*
G37*
G36*
X149830111Y-103410000D02*
G01*
X149830111Y-101366175D01*
X150180355Y-101366175D01*
X150180355Y-102474549D01*
X150425087Y-102474549D01*
X150799267Y-101869804D01*
X151192498Y-101869804D01*
X150726971Y-102615233D01*
X151200802Y-103410000D01*
X150800244Y-103410000D01*
X150424598Y-102771549D01*
X150180355Y-102771549D01*
X150180355Y-103410000D01*
X149830111Y-103410000D01*
G37*
G36*
X151548604Y-103410000D02*
G01*
X151548604Y-101869804D01*
X151880286Y-101869804D01*
X151880286Y-102163872D01*
X151966748Y-102163872D01*
X151862700Y-102344612D01*
X151868053Y-102241296D01*
X151887279Y-102137645D01*
X151925623Y-102039431D01*
X151974563Y-101968478D01*
X152054830Y-101901760D01*
X152144771Y-101862841D01*
X152251481Y-101843937D01*
X152304291Y-101841960D01*
X152408570Y-101849300D01*
X152515151Y-101875663D01*
X152608299Y-101921199D01*
X152688014Y-101985908D01*
X152697034Y-101995345D01*
X152759438Y-102079456D01*
X152804012Y-102178405D01*
X152828389Y-102277157D01*
X152839114Y-102387269D01*
X152839672Y-102420816D01*
X152839672Y-102532679D01*
X152472819Y-102532679D01*
X152472819Y-102446217D01*
X152462034Y-102344024D01*
X152422190Y-102248936D01*
X152396127Y-102216140D01*
X152311455Y-102157937D01*
X152209380Y-102135765D01*
X152184612Y-102135052D01*
X152084037Y-102148515D01*
X151993233Y-102197509D01*
X151973586Y-102216629D01*
X151922496Y-102300725D01*
X151900673Y-102401586D01*
X151898848Y-102446217D01*
X151898848Y-103410000D01*
X151548604Y-103410000D01*
G37*
G36*
X153910898Y-101850276D02*
G01*
X154009198Y-101867896D01*
X154108269Y-101901250D01*
X154144905Y-101918653D01*
X154228368Y-101970812D01*
X154305630Y-102042182D01*
X154367655Y-102128213D01*
X154409386Y-102217762D01*
X154435661Y-102316662D01*
X154446480Y-102424911D01*
X154446789Y-102447683D01*
X154446789Y-102831144D01*
X154440530Y-102930711D01*
X154418891Y-103032548D01*
X154381797Y-103125132D01*
X154367655Y-103151102D01*
X154305630Y-103237469D01*
X154228368Y-103309175D01*
X154144905Y-103361639D01*
X154050109Y-103400795D01*
X153944626Y-103425448D01*
X153840556Y-103435237D01*
X153803942Y-103435889D01*
X153697579Y-103430016D01*
X153599408Y-103412396D01*
X153499936Y-103379042D01*
X153462979Y-103361639D01*
X153379259Y-103309175D01*
X153301823Y-103237469D01*
X153239741Y-103151102D01*
X153198010Y-103061295D01*
X153171735Y-102962234D01*
X153160916Y-102853918D01*
X153160607Y-102831144D01*
X153160607Y-102448660D01*
X153510851Y-102448660D01*
X153510851Y-102831144D01*
X153521704Y-102930337D01*
X153561802Y-103021753D01*
X153588032Y-103052916D01*
X153674156Y-103107964D01*
X153770328Y-103128410D01*
X153803942Y-103129609D01*
X153907290Y-103116951D01*
X154000291Y-103070891D01*
X154020341Y-103052916D01*
X154075038Y-102965991D01*
X154095355Y-102866345D01*
X154096545Y-102831144D01*
X154096545Y-102448660D01*
X154085829Y-102348711D01*
X154046239Y-102257282D01*
X154020341Y-102226399D01*
X153934840Y-102171702D01*
X153837991Y-102151386D01*
X153803942Y-102150195D01*
X153701618Y-102162771D01*
X153608395Y-102208538D01*
X153588032Y-102226399D01*
X153532633Y-102312945D01*
X153512057Y-102413130D01*
X153510851Y-102448660D01*
X153160607Y-102448660D01*
X153166866Y-102348659D01*
X153188505Y-102246612D01*
X153225599Y-102154105D01*
X153239741Y-102128213D01*
X153301823Y-102042182D01*
X153379259Y-101970812D01*
X153462979Y-101918653D01*
X153558406Y-101879497D01*
X153663945Y-101854844D01*
X153767578Y-101845055D01*
X153803942Y-101844403D01*
X153910898Y-101850276D01*
G37*
G36*
X155724210Y-101851913D02*
G01*
X155822976Y-101881772D01*
X155910079Y-101931536D01*
X155985519Y-102001207D01*
X156046641Y-102087791D01*
X156090300Y-102188297D01*
X156114175Y-102287660D01*
X156124681Y-102397682D01*
X156125226Y-102431074D01*
X156125226Y-102847752D01*
X156119073Y-102955525D01*
X156100611Y-103054138D01*
X156066089Y-103152033D01*
X156062212Y-103160383D01*
X156007738Y-103251516D01*
X155938838Y-103325614D01*
X155884891Y-103365547D01*
X155793186Y-103409603D01*
X155689528Y-103433325D01*
X155613782Y-103437843D01*
X155513472Y-103429342D01*
X155416157Y-103399957D01*
X155326300Y-103343390D01*
X155311898Y-103330376D01*
X155247654Y-103246691D01*
X155212391Y-103154184D01*
X155207714Y-103115931D01*
X155197103Y-103115931D01*
X155207362Y-103482295D01*
X155207362Y-103914117D01*
X154857117Y-103914117D01*
X154857117Y-102446217D01*
X155207362Y-102446217D01*
X155207362Y-102833586D01*
X155218009Y-102931635D01*
X155257346Y-103023451D01*
X155283077Y-103055359D01*
X155366647Y-103112160D01*
X155466531Y-103133798D01*
X155490683Y-103134494D01*
X155590310Y-103121594D01*
X155680620Y-103074654D01*
X155700244Y-103056336D01*
X155753889Y-102968466D01*
X155773814Y-102868696D01*
X155774982Y-102833586D01*
X155774982Y-102446217D01*
X155764472Y-102346360D01*
X155725643Y-102254343D01*
X155700244Y-102222979D01*
X155616975Y-102167581D01*
X155515434Y-102146477D01*
X155490683Y-102145799D01*
X155393029Y-102158859D01*
X155302990Y-102206386D01*
X155283077Y-102224933D01*
X155228731Y-102312968D01*
X155208545Y-102411664D01*
X155207362Y-102446217D01*
X154857117Y-102446217D01*
X154857117Y-101869804D01*
X155199057Y-101869804D01*
X155199057Y-102163872D01*
X155206345Y-102163872D01*
X155207945Y-102145856D01*
X155238666Y-102049972D01*
X155297804Y-101963122D01*
X155311409Y-101949427D01*
X155397829Y-101888243D01*
X155492320Y-101854659D01*
X155590333Y-101842380D01*
X155613782Y-101841960D01*
X155724210Y-101851913D01*
G37*
G36*
X157281119Y-101846941D02*
G01*
X157389354Y-101865340D01*
X157486323Y-101897297D01*
X157583348Y-101950420D01*
X157626343Y-101983621D01*
X157698364Y-102060375D01*
X157749808Y-102149462D01*
X157780674Y-102250884D01*
X157790802Y-102349746D01*
X157790963Y-102364640D01*
X157790963Y-103410000D01*
X157451465Y-103410000D01*
X157451465Y-103140355D01*
X157443702Y-103140355D01*
X157440527Y-103166071D01*
X157398233Y-103260373D01*
X157325924Y-103337704D01*
X157238645Y-103390512D01*
X157134957Y-103423761D01*
X157027606Y-103436963D01*
X156988869Y-103437843D01*
X156889773Y-103431859D01*
X156788199Y-103410366D01*
X156688817Y-103367501D01*
X156613712Y-103312791D01*
X156547359Y-103235142D01*
X156502721Y-103143428D01*
X156479799Y-103037648D01*
X156476448Y-102972805D01*
X156479323Y-102940565D01*
X156826692Y-102940565D01*
X156845132Y-103038018D01*
X156900453Y-103112512D01*
X156988869Y-103159773D01*
X157089474Y-103175280D01*
X157105617Y-103175526D01*
X157208405Y-103164879D01*
X157302860Y-103129313D01*
X157346441Y-103099811D01*
X157410888Y-103025052D01*
X157439890Y-102926069D01*
X157440718Y-102903928D01*
X157440718Y-102716350D01*
X157064096Y-102716350D01*
X156966887Y-102731615D01*
X156891172Y-102777411D01*
X156837333Y-102864386D01*
X156826692Y-102940565D01*
X156479323Y-102940565D01*
X156485942Y-102866345D01*
X156514427Y-102772648D01*
X156569172Y-102682492D01*
X156628367Y-102623538D01*
X156712295Y-102569255D01*
X156811671Y-102530481D01*
X156911298Y-102509277D01*
X157022752Y-102499947D01*
X157056769Y-102499462D01*
X157440718Y-102499462D01*
X157440718Y-102368060D01*
X157422644Y-102268775D01*
X157368422Y-102193670D01*
X157282449Y-102146043D01*
X157184782Y-102130415D01*
X157169120Y-102130167D01*
X157070681Y-102141222D01*
X156979099Y-102180481D01*
X156910478Y-102252565D01*
X156888729Y-102316769D01*
X156546789Y-102316769D01*
X156568405Y-102213240D01*
X156608339Y-102121008D01*
X156666591Y-102040072D01*
X156743161Y-101970432D01*
X156834721Y-101914226D01*
X156937944Y-101874078D01*
X157037832Y-101852123D01*
X157146648Y-101842462D01*
X157179378Y-101841960D01*
X157281119Y-101846941D01*
G37*
G36*
X159464026Y-103410000D02*
G01*
X159122086Y-103410000D01*
X159122086Y-103115931D01*
X159114873Y-103115931D01*
X159113237Y-103134436D01*
X159082650Y-103230320D01*
X159023769Y-103317170D01*
X159010223Y-103330865D01*
X158924302Y-103391771D01*
X158829963Y-103425202D01*
X158731843Y-103437425D01*
X158708339Y-103437843D01*
X158598460Y-103427921D01*
X158499877Y-103398154D01*
X158412591Y-103348542D01*
X158336601Y-103279085D01*
X158275052Y-103192654D01*
X158231088Y-103092117D01*
X158207045Y-102992578D01*
X158196467Y-102882238D01*
X158195917Y-102848729D01*
X158195917Y-102446217D01*
X158546161Y-102446217D01*
X158546161Y-102833586D01*
X158556740Y-102932688D01*
X158595823Y-103024691D01*
X158621388Y-103056336D01*
X158705115Y-103112435D01*
X158807083Y-103133807D01*
X158831926Y-103134494D01*
X158929655Y-103121433D01*
X159018977Y-103073906D01*
X159038555Y-103055359D01*
X159092551Y-102967217D01*
X159112606Y-102868254D01*
X159113782Y-102833586D01*
X159113782Y-102446217D01*
X159103203Y-102348467D01*
X159064120Y-102256824D01*
X159038555Y-102224933D01*
X158955930Y-102168132D01*
X158856153Y-102146494D01*
X158831926Y-102145799D01*
X158731902Y-102158698D01*
X158641134Y-102205638D01*
X158621388Y-102223956D01*
X158567392Y-102311476D01*
X158547337Y-102411115D01*
X158546161Y-102446217D01*
X158195917Y-102446217D01*
X158195917Y-102432540D01*
X158200846Y-102334789D01*
X158219055Y-102230644D01*
X158250681Y-102137158D01*
X158303254Y-102043369D01*
X158336113Y-102001695D01*
X158411950Y-101931811D01*
X158499267Y-101881894D01*
X158598063Y-101851944D01*
X158708339Y-101841960D01*
X158809241Y-101850500D01*
X158906671Y-101880019D01*
X158995992Y-101936843D01*
X159010223Y-101949916D01*
X159073911Y-102033381D01*
X159108868Y-102125888D01*
X159113464Y-102163872D01*
X159124040Y-102163872D01*
X159113782Y-101797508D01*
X159113782Y-101366175D01*
X159464026Y-101366175D01*
X159464026Y-103410000D01*
G37*
G36*
X150462718Y-105495000D02*
G01*
X150080966Y-104339853D01*
X150351709Y-104339853D01*
X150571161Y-105042173D01*
X150592426Y-105114340D01*
X150608164Y-105172233D01*
X150626568Y-105245305D01*
X150634176Y-105278845D01*
X150652666Y-105207772D01*
X150661653Y-105172233D01*
X150681025Y-105098430D01*
X150696092Y-105043272D01*
X150911514Y-104339853D01*
X151178960Y-104339853D01*
X150799773Y-105495000D01*
X150462718Y-105495000D01*
G37*
G36*
X151435415Y-105495000D02*
G01*
X151435415Y-105263824D01*
X151834019Y-105263824D01*
X151834019Y-104195505D01*
X151433217Y-104494092D01*
X151433217Y-104216755D01*
X151787124Y-103962131D01*
X152096702Y-103962131D01*
X152096702Y-105263824D01*
X152417271Y-105263824D01*
X152417271Y-105495000D01*
X151435415Y-105495000D01*
G37*
G36*
X153147801Y-105515882D02*
G01*
X153071622Y-105504290D01*
X153007931Y-105466372D01*
X153004553Y-105463126D01*
X152964436Y-105401119D01*
X152951116Y-105326849D01*
X152951064Y-105321343D01*
X152961302Y-105248564D01*
X152998076Y-105183420D01*
X153004553Y-105176629D01*
X153067110Y-105136512D01*
X153142227Y-105123192D01*
X153147801Y-105123140D01*
X153224609Y-105134893D01*
X153288082Y-105173338D01*
X153291416Y-105176629D01*
X153330983Y-105239369D01*
X153344121Y-105315656D01*
X153344173Y-105321343D01*
X153332581Y-105396653D01*
X153294662Y-105459771D01*
X153291416Y-105463126D01*
X153229134Y-105502693D01*
X153153443Y-105515831D01*
X153147801Y-105515882D01*
G37*
G36*
X154481031Y-104601861D02*
G01*
X154507013Y-104621953D01*
X154541763Y-104688690D01*
X154544748Y-104721605D01*
X154528339Y-104795348D01*
X154506646Y-104825286D01*
X154439910Y-104861386D01*
X154406995Y-104864487D01*
X154335506Y-104847604D01*
X154306245Y-104825286D01*
X154271864Y-104759436D01*
X154268143Y-104721605D01*
X154286152Y-104647569D01*
X154306245Y-104621587D01*
X154373697Y-104586836D01*
X154406995Y-104583852D01*
X154481031Y-104601861D01*
G37*
G36*
X154487629Y-103945374D02*
G01*
X154562329Y-103958850D01*
X154637513Y-103984359D01*
X154665282Y-103997669D01*
X154728301Y-104037668D01*
X154786630Y-104092081D01*
X154833443Y-104157404D01*
X154864935Y-104225024D01*
X154884763Y-104299656D01*
X154892636Y-104372821D01*
X154893161Y-104398471D01*
X154893161Y-105058293D01*
X154888408Y-105133203D01*
X154871979Y-105209911D01*
X154843815Y-105279749D01*
X154833077Y-105299361D01*
X154786220Y-105364683D01*
X154727762Y-105419096D01*
X154664549Y-105459096D01*
X154592643Y-105489042D01*
X154521259Y-105506510D01*
X154443557Y-105514995D01*
X154406995Y-105515882D01*
X154326428Y-105511390D01*
X154252062Y-105497915D01*
X154176707Y-105472405D01*
X154148709Y-105459096D01*
X154085267Y-105419096D01*
X154026557Y-105364683D01*
X153979448Y-105299361D01*
X153947957Y-105231584D01*
X153928129Y-105156937D01*
X153920256Y-105083882D01*
X153919731Y-105058293D01*
X153919731Y-104398471D01*
X154167759Y-104398471D01*
X154167759Y-105058293D01*
X154176878Y-105131005D01*
X154210568Y-105200989D01*
X154232606Y-105226088D01*
X154298082Y-105269165D01*
X154373951Y-105287564D01*
X154406995Y-105289103D01*
X154482764Y-105280241D01*
X154550428Y-105250642D01*
X154580652Y-105226088D01*
X154624730Y-105162956D01*
X154643558Y-105090017D01*
X154645132Y-105058293D01*
X154645132Y-104398471D01*
X154634490Y-104320467D01*
X154599228Y-104251746D01*
X154580652Y-104231043D01*
X154515787Y-104187716D01*
X154439858Y-104169209D01*
X154406629Y-104167662D01*
X154330362Y-104176575D01*
X154262275Y-104206346D01*
X154231873Y-104231043D01*
X154188045Y-104294105D01*
X154169325Y-104366853D01*
X154167759Y-104398471D01*
X153919731Y-104398471D01*
X153924455Y-104323413D01*
X153940784Y-104246677D01*
X153968776Y-104176953D01*
X153979448Y-104157404D01*
X154026391Y-104092081D01*
X154085110Y-104037668D01*
X154148709Y-103997669D01*
X154220929Y-103967723D01*
X154292352Y-103950254D01*
X154369861Y-103941770D01*
X154406263Y-103940882D01*
X154487629Y-103945374D01*
G37*
D11*
X121835714Y-96104819D02*
X121835714Y-95104819D01*
X121835714Y-95104819D02*
X122073809Y-95104819D01*
X122073809Y-95104819D02*
X122216666Y-95152438D01*
X122216666Y-95152438D02*
X122311904Y-95247676D01*
X122311904Y-95247676D02*
X122359523Y-95342914D01*
X122359523Y-95342914D02*
X122407142Y-95533390D01*
X122407142Y-95533390D02*
X122407142Y-95676247D01*
X122407142Y-95676247D02*
X122359523Y-95866723D01*
X122359523Y-95866723D02*
X122311904Y-95961961D01*
X122311904Y-95961961D02*
X122216666Y-96057200D01*
X122216666Y-96057200D02*
X122073809Y-96104819D01*
X122073809Y-96104819D02*
X121835714Y-96104819D01*
X122788095Y-95200057D02*
X122835714Y-95152438D01*
X122835714Y-95152438D02*
X122930952Y-95104819D01*
X122930952Y-95104819D02*
X123169047Y-95104819D01*
X123169047Y-95104819D02*
X123264285Y-95152438D01*
X123264285Y-95152438D02*
X123311904Y-95200057D01*
X123311904Y-95200057D02*
X123359523Y-95295295D01*
X123359523Y-95295295D02*
X123359523Y-95390533D01*
X123359523Y-95390533D02*
X123311904Y-95533390D01*
X123311904Y-95533390D02*
X122740476Y-96104819D01*
X122740476Y-96104819D02*
X123359523Y-96104819D01*
X124264285Y-95104819D02*
X123788095Y-95104819D01*
X123788095Y-95104819D02*
X123740476Y-95581009D01*
X123740476Y-95581009D02*
X123788095Y-95533390D01*
X123788095Y-95533390D02*
X123883333Y-95485771D01*
X123883333Y-95485771D02*
X124121428Y-95485771D01*
X124121428Y-95485771D02*
X124216666Y-95533390D01*
X124216666Y-95533390D02*
X124264285Y-95581009D01*
X124264285Y-95581009D02*
X124311904Y-95676247D01*
X124311904Y-95676247D02*
X124311904Y-95914342D01*
X124311904Y-95914342D02*
X124264285Y-96009580D01*
X124264285Y-96009580D02*
X124216666Y-96057200D01*
X124216666Y-96057200D02*
X124121428Y-96104819D01*
X124121428Y-96104819D02*
X123883333Y-96104819D01*
X123883333Y-96104819D02*
X123788095Y-96057200D01*
X123788095Y-96057200D02*
X123740476Y-96009580D01*
X120078571Y-97887295D02*
X119621428Y-97887295D01*
X119850000Y-97887295D02*
X119850000Y-97087295D01*
X119850000Y-97087295D02*
X119773809Y-97201580D01*
X119773809Y-97201580D02*
X119697619Y-97277771D01*
X119697619Y-97277771D02*
X119621428Y-97315866D01*
X181235714Y-96104819D02*
X181235714Y-95104819D01*
X181235714Y-95104819D02*
X181473809Y-95104819D01*
X181473809Y-95104819D02*
X181616666Y-95152438D01*
X181616666Y-95152438D02*
X181711904Y-95247676D01*
X181711904Y-95247676D02*
X181759523Y-95342914D01*
X181759523Y-95342914D02*
X181807142Y-95533390D01*
X181807142Y-95533390D02*
X181807142Y-95676247D01*
X181807142Y-95676247D02*
X181759523Y-95866723D01*
X181759523Y-95866723D02*
X181711904Y-95961961D01*
X181711904Y-95961961D02*
X181616666Y-96057200D01*
X181616666Y-96057200D02*
X181473809Y-96104819D01*
X181473809Y-96104819D02*
X181235714Y-96104819D01*
X182188095Y-95200057D02*
X182235714Y-95152438D01*
X182235714Y-95152438D02*
X182330952Y-95104819D01*
X182330952Y-95104819D02*
X182569047Y-95104819D01*
X182569047Y-95104819D02*
X182664285Y-95152438D01*
X182664285Y-95152438D02*
X182711904Y-95200057D01*
X182711904Y-95200057D02*
X182759523Y-95295295D01*
X182759523Y-95295295D02*
X182759523Y-95390533D01*
X182759523Y-95390533D02*
X182711904Y-95533390D01*
X182711904Y-95533390D02*
X182140476Y-96104819D01*
X182140476Y-96104819D02*
X182759523Y-96104819D01*
X183330952Y-95533390D02*
X183235714Y-95485771D01*
X183235714Y-95485771D02*
X183188095Y-95438152D01*
X183188095Y-95438152D02*
X183140476Y-95342914D01*
X183140476Y-95342914D02*
X183140476Y-95295295D01*
X183140476Y-95295295D02*
X183188095Y-95200057D01*
X183188095Y-95200057D02*
X183235714Y-95152438D01*
X183235714Y-95152438D02*
X183330952Y-95104819D01*
X183330952Y-95104819D02*
X183521428Y-95104819D01*
X183521428Y-95104819D02*
X183616666Y-95152438D01*
X183616666Y-95152438D02*
X183664285Y-95200057D01*
X183664285Y-95200057D02*
X183711904Y-95295295D01*
X183711904Y-95295295D02*
X183711904Y-95342914D01*
X183711904Y-95342914D02*
X183664285Y-95438152D01*
X183664285Y-95438152D02*
X183616666Y-95485771D01*
X183616666Y-95485771D02*
X183521428Y-95533390D01*
X183521428Y-95533390D02*
X183330952Y-95533390D01*
X183330952Y-95533390D02*
X183235714Y-95581009D01*
X183235714Y-95581009D02*
X183188095Y-95628628D01*
X183188095Y-95628628D02*
X183140476Y-95723866D01*
X183140476Y-95723866D02*
X183140476Y-95914342D01*
X183140476Y-95914342D02*
X183188095Y-96009580D01*
X183188095Y-96009580D02*
X183235714Y-96057200D01*
X183235714Y-96057200D02*
X183330952Y-96104819D01*
X183330952Y-96104819D02*
X183521428Y-96104819D01*
X183521428Y-96104819D02*
X183616666Y-96057200D01*
X183616666Y-96057200D02*
X183664285Y-96009580D01*
X183664285Y-96009580D02*
X183711904Y-95914342D01*
X183711904Y-95914342D02*
X183711904Y-95723866D01*
X183711904Y-95723866D02*
X183664285Y-95628628D01*
X183664285Y-95628628D02*
X183616666Y-95581009D01*
X183616666Y-95581009D02*
X183521428Y-95533390D01*
X179478571Y-97887295D02*
X179021428Y-97887295D01*
X179250000Y-97887295D02*
X179250000Y-97087295D01*
X179250000Y-97087295D02*
X179173809Y-97201580D01*
X179173809Y-97201580D02*
X179097619Y-97277771D01*
X179097619Y-97277771D02*
X179021428Y-97315866D01*
X175266667Y-49777200D02*
X175409524Y-49824819D01*
X175409524Y-49824819D02*
X175647619Y-49824819D01*
X175647619Y-49824819D02*
X175742857Y-49777200D01*
X175742857Y-49777200D02*
X175790476Y-49729580D01*
X175790476Y-49729580D02*
X175838095Y-49634342D01*
X175838095Y-49634342D02*
X175838095Y-49539104D01*
X175838095Y-49539104D02*
X175790476Y-49443866D01*
X175790476Y-49443866D02*
X175742857Y-49396247D01*
X175742857Y-49396247D02*
X175647619Y-49348628D01*
X175647619Y-49348628D02*
X175457143Y-49301009D01*
X175457143Y-49301009D02*
X175361905Y-49253390D01*
X175361905Y-49253390D02*
X175314286Y-49205771D01*
X175314286Y-49205771D02*
X175266667Y-49110533D01*
X175266667Y-49110533D02*
X175266667Y-49015295D01*
X175266667Y-49015295D02*
X175314286Y-48920057D01*
X175314286Y-48920057D02*
X175361905Y-48872438D01*
X175361905Y-48872438D02*
X175457143Y-48824819D01*
X175457143Y-48824819D02*
X175695238Y-48824819D01*
X175695238Y-48824819D02*
X175838095Y-48872438D01*
X176171429Y-48824819D02*
X176409524Y-49824819D01*
X176409524Y-49824819D02*
X176600000Y-49110533D01*
X176600000Y-49110533D02*
X176790476Y-49824819D01*
X176790476Y-49824819D02*
X177028572Y-48824819D01*
X177838095Y-49158152D02*
X177838095Y-49824819D01*
X177600000Y-48777200D02*
X177361905Y-49491485D01*
X177361905Y-49491485D02*
X177980952Y-49491485D01*
X155660476Y-109907200D02*
X155803333Y-109954819D01*
X155803333Y-109954819D02*
X156041428Y-109954819D01*
X156041428Y-109954819D02*
X156136666Y-109907200D01*
X156136666Y-109907200D02*
X156184285Y-109859580D01*
X156184285Y-109859580D02*
X156231904Y-109764342D01*
X156231904Y-109764342D02*
X156231904Y-109669104D01*
X156231904Y-109669104D02*
X156184285Y-109573866D01*
X156184285Y-109573866D02*
X156136666Y-109526247D01*
X156136666Y-109526247D02*
X156041428Y-109478628D01*
X156041428Y-109478628D02*
X155850952Y-109431009D01*
X155850952Y-109431009D02*
X155755714Y-109383390D01*
X155755714Y-109383390D02*
X155708095Y-109335771D01*
X155708095Y-109335771D02*
X155660476Y-109240533D01*
X155660476Y-109240533D02*
X155660476Y-109145295D01*
X155660476Y-109145295D02*
X155708095Y-109050057D01*
X155708095Y-109050057D02*
X155755714Y-109002438D01*
X155755714Y-109002438D02*
X155850952Y-108954819D01*
X155850952Y-108954819D02*
X156089047Y-108954819D01*
X156089047Y-108954819D02*
X156231904Y-109002438D01*
X156565238Y-108954819D02*
X156803333Y-109954819D01*
X156803333Y-109954819D02*
X156993809Y-109240533D01*
X156993809Y-109240533D02*
X157184285Y-109954819D01*
X157184285Y-109954819D02*
X157422381Y-108954819D01*
X158327142Y-109954819D02*
X157755714Y-109954819D01*
X158041428Y-109954819D02*
X158041428Y-108954819D01*
X158041428Y-108954819D02*
X157946190Y-109097676D01*
X157946190Y-109097676D02*
X157850952Y-109192914D01*
X157850952Y-109192914D02*
X157755714Y-109240533D01*
X158946190Y-108954819D02*
X159041428Y-108954819D01*
X159041428Y-108954819D02*
X159136666Y-109002438D01*
X159136666Y-109002438D02*
X159184285Y-109050057D01*
X159184285Y-109050057D02*
X159231904Y-109145295D01*
X159231904Y-109145295D02*
X159279523Y-109335771D01*
X159279523Y-109335771D02*
X159279523Y-109573866D01*
X159279523Y-109573866D02*
X159231904Y-109764342D01*
X159231904Y-109764342D02*
X159184285Y-109859580D01*
X159184285Y-109859580D02*
X159136666Y-109907200D01*
X159136666Y-109907200D02*
X159041428Y-109954819D01*
X159041428Y-109954819D02*
X158946190Y-109954819D01*
X158946190Y-109954819D02*
X158850952Y-109907200D01*
X158850952Y-109907200D02*
X158803333Y-109859580D01*
X158803333Y-109859580D02*
X158755714Y-109764342D01*
X158755714Y-109764342D02*
X158708095Y-109573866D01*
X158708095Y-109573866D02*
X158708095Y-109335771D01*
X158708095Y-109335771D02*
X158755714Y-109145295D01*
X158755714Y-109145295D02*
X158803333Y-109050057D01*
X158803333Y-109050057D02*
X158850952Y-109002438D01*
X158850952Y-109002438D02*
X158946190Y-108954819D01*
X118116667Y-49777200D02*
X118259524Y-49824819D01*
X118259524Y-49824819D02*
X118497619Y-49824819D01*
X118497619Y-49824819D02*
X118592857Y-49777200D01*
X118592857Y-49777200D02*
X118640476Y-49729580D01*
X118640476Y-49729580D02*
X118688095Y-49634342D01*
X118688095Y-49634342D02*
X118688095Y-49539104D01*
X118688095Y-49539104D02*
X118640476Y-49443866D01*
X118640476Y-49443866D02*
X118592857Y-49396247D01*
X118592857Y-49396247D02*
X118497619Y-49348628D01*
X118497619Y-49348628D02*
X118307143Y-49301009D01*
X118307143Y-49301009D02*
X118211905Y-49253390D01*
X118211905Y-49253390D02*
X118164286Y-49205771D01*
X118164286Y-49205771D02*
X118116667Y-49110533D01*
X118116667Y-49110533D02*
X118116667Y-49015295D01*
X118116667Y-49015295D02*
X118164286Y-48920057D01*
X118164286Y-48920057D02*
X118211905Y-48872438D01*
X118211905Y-48872438D02*
X118307143Y-48824819D01*
X118307143Y-48824819D02*
X118545238Y-48824819D01*
X118545238Y-48824819D02*
X118688095Y-48872438D01*
X119021429Y-48824819D02*
X119259524Y-49824819D01*
X119259524Y-49824819D02*
X119450000Y-49110533D01*
X119450000Y-49110533D02*
X119640476Y-49824819D01*
X119640476Y-49824819D02*
X119878572Y-48824819D01*
X120783333Y-49824819D02*
X120211905Y-49824819D01*
X120497619Y-49824819D02*
X120497619Y-48824819D01*
X120497619Y-48824819D02*
X120402381Y-48967676D01*
X120402381Y-48967676D02*
X120307143Y-49062914D01*
X120307143Y-49062914D02*
X120211905Y-49110533D01*
X135889164Y-97159999D02*
X136639164Y-96909999D01*
X136639164Y-96909999D02*
X135889164Y-96659999D01*
X136567735Y-95981428D02*
X136603450Y-96017142D01*
X136603450Y-96017142D02*
X136639164Y-96124285D01*
X136639164Y-96124285D02*
X136639164Y-96195713D01*
X136639164Y-96195713D02*
X136603450Y-96302856D01*
X136603450Y-96302856D02*
X136532021Y-96374285D01*
X136532021Y-96374285D02*
X136460592Y-96409999D01*
X136460592Y-96409999D02*
X136317735Y-96445713D01*
X136317735Y-96445713D02*
X136210592Y-96445713D01*
X136210592Y-96445713D02*
X136067735Y-96409999D01*
X136067735Y-96409999D02*
X135996307Y-96374285D01*
X135996307Y-96374285D02*
X135924878Y-96302856D01*
X135924878Y-96302856D02*
X135889164Y-96195713D01*
X135889164Y-96195713D02*
X135889164Y-96124285D01*
X135889164Y-96124285D02*
X135924878Y-96017142D01*
X135924878Y-96017142D02*
X135960592Y-95981428D01*
X136567735Y-95231428D02*
X136603450Y-95267142D01*
X136603450Y-95267142D02*
X136639164Y-95374285D01*
X136639164Y-95374285D02*
X136639164Y-95445713D01*
X136639164Y-95445713D02*
X136603450Y-95552856D01*
X136603450Y-95552856D02*
X136532021Y-95624285D01*
X136532021Y-95624285D02*
X136460592Y-95659999D01*
X136460592Y-95659999D02*
X136317735Y-95695713D01*
X136317735Y-95695713D02*
X136210592Y-95695713D01*
X136210592Y-95695713D02*
X136067735Y-95659999D01*
X136067735Y-95659999D02*
X135996307Y-95624285D01*
X135996307Y-95624285D02*
X135924878Y-95552856D01*
X135924878Y-95552856D02*
X135889164Y-95445713D01*
X135889164Y-95445713D02*
X135889164Y-95374285D01*
X135889164Y-95374285D02*
X135924878Y-95267142D01*
X135924878Y-95267142D02*
X135960592Y-95231428D01*
X136603450Y-91990713D02*
X136639164Y-91883571D01*
X136639164Y-91883571D02*
X136639164Y-91704999D01*
X136639164Y-91704999D02*
X136603450Y-91633571D01*
X136603450Y-91633571D02*
X136567735Y-91597856D01*
X136567735Y-91597856D02*
X136496307Y-91562142D01*
X136496307Y-91562142D02*
X136424878Y-91562142D01*
X136424878Y-91562142D02*
X136353450Y-91597856D01*
X136353450Y-91597856D02*
X136317735Y-91633571D01*
X136317735Y-91633571D02*
X136282021Y-91704999D01*
X136282021Y-91704999D02*
X136246307Y-91847856D01*
X136246307Y-91847856D02*
X136210592Y-91919285D01*
X136210592Y-91919285D02*
X136174878Y-91954999D01*
X136174878Y-91954999D02*
X136103450Y-91990713D01*
X136103450Y-91990713D02*
X136032021Y-91990713D01*
X136032021Y-91990713D02*
X135960592Y-91954999D01*
X135960592Y-91954999D02*
X135924878Y-91919285D01*
X135924878Y-91919285D02*
X135889164Y-91847856D01*
X135889164Y-91847856D02*
X135889164Y-91669285D01*
X135889164Y-91669285D02*
X135924878Y-91562142D01*
X136639164Y-91240713D02*
X135889164Y-91240713D01*
X135889164Y-91240713D02*
X135889164Y-91062142D01*
X135889164Y-91062142D02*
X135924878Y-90954999D01*
X135924878Y-90954999D02*
X135996307Y-90883570D01*
X135996307Y-90883570D02*
X136067735Y-90847856D01*
X136067735Y-90847856D02*
X136210592Y-90812142D01*
X136210592Y-90812142D02*
X136317735Y-90812142D01*
X136317735Y-90812142D02*
X136460592Y-90847856D01*
X136460592Y-90847856D02*
X136532021Y-90883570D01*
X136532021Y-90883570D02*
X136603450Y-90954999D01*
X136603450Y-90954999D02*
X136639164Y-91062142D01*
X136639164Y-91062142D02*
X136639164Y-91240713D01*
X136424878Y-90526427D02*
X136424878Y-90169285D01*
X136639164Y-90597856D02*
X135889164Y-90347856D01*
X135889164Y-90347856D02*
X136639164Y-90097856D01*
X135924878Y-99271428D02*
X135889164Y-99342857D01*
X135889164Y-99342857D02*
X135889164Y-99449999D01*
X135889164Y-99449999D02*
X135924878Y-99557142D01*
X135924878Y-99557142D02*
X135996307Y-99628571D01*
X135996307Y-99628571D02*
X136067735Y-99664285D01*
X136067735Y-99664285D02*
X136210592Y-99699999D01*
X136210592Y-99699999D02*
X136317735Y-99699999D01*
X136317735Y-99699999D02*
X136460592Y-99664285D01*
X136460592Y-99664285D02*
X136532021Y-99628571D01*
X136532021Y-99628571D02*
X136603450Y-99557142D01*
X136603450Y-99557142D02*
X136639164Y-99449999D01*
X136639164Y-99449999D02*
X136639164Y-99378571D01*
X136639164Y-99378571D02*
X136603450Y-99271428D01*
X136603450Y-99271428D02*
X136567735Y-99235714D01*
X136567735Y-99235714D02*
X136317735Y-99235714D01*
X136317735Y-99235714D02*
X136317735Y-99378571D01*
X136639164Y-98914285D02*
X135889164Y-98914285D01*
X135889164Y-98914285D02*
X136639164Y-98485714D01*
X136639164Y-98485714D02*
X135889164Y-98485714D01*
X136639164Y-98128571D02*
X135889164Y-98128571D01*
X135889164Y-98128571D02*
X135889164Y-97950000D01*
X135889164Y-97950000D02*
X135924878Y-97842857D01*
X135924878Y-97842857D02*
X135996307Y-97771428D01*
X135996307Y-97771428D02*
X136067735Y-97735714D01*
X136067735Y-97735714D02*
X136210592Y-97700000D01*
X136210592Y-97700000D02*
X136317735Y-97700000D01*
X136317735Y-97700000D02*
X136460592Y-97735714D01*
X136460592Y-97735714D02*
X136532021Y-97771428D01*
X136532021Y-97771428D02*
X136603450Y-97842857D01*
X136603450Y-97842857D02*
X136639164Y-97950000D01*
X136639164Y-97950000D02*
X136639164Y-98128571D01*
X136603450Y-94512856D02*
X136639164Y-94405714D01*
X136639164Y-94405714D02*
X136639164Y-94227142D01*
X136639164Y-94227142D02*
X136603450Y-94155714D01*
X136603450Y-94155714D02*
X136567735Y-94119999D01*
X136567735Y-94119999D02*
X136496307Y-94084285D01*
X136496307Y-94084285D02*
X136424878Y-94084285D01*
X136424878Y-94084285D02*
X136353450Y-94119999D01*
X136353450Y-94119999D02*
X136317735Y-94155714D01*
X136317735Y-94155714D02*
X136282021Y-94227142D01*
X136282021Y-94227142D02*
X136246307Y-94369999D01*
X136246307Y-94369999D02*
X136210592Y-94441428D01*
X136210592Y-94441428D02*
X136174878Y-94477142D01*
X136174878Y-94477142D02*
X136103450Y-94512856D01*
X136103450Y-94512856D02*
X136032021Y-94512856D01*
X136032021Y-94512856D02*
X135960592Y-94477142D01*
X135960592Y-94477142D02*
X135924878Y-94441428D01*
X135924878Y-94441428D02*
X135889164Y-94369999D01*
X135889164Y-94369999D02*
X135889164Y-94191428D01*
X135889164Y-94191428D02*
X135924878Y-94084285D01*
X136567735Y-93334285D02*
X136603450Y-93369999D01*
X136603450Y-93369999D02*
X136639164Y-93477142D01*
X136639164Y-93477142D02*
X136639164Y-93548570D01*
X136639164Y-93548570D02*
X136603450Y-93655713D01*
X136603450Y-93655713D02*
X136532021Y-93727142D01*
X136532021Y-93727142D02*
X136460592Y-93762856D01*
X136460592Y-93762856D02*
X136317735Y-93798570D01*
X136317735Y-93798570D02*
X136210592Y-93798570D01*
X136210592Y-93798570D02*
X136067735Y-93762856D01*
X136067735Y-93762856D02*
X135996307Y-93727142D01*
X135996307Y-93727142D02*
X135924878Y-93655713D01*
X135924878Y-93655713D02*
X135889164Y-93548570D01*
X135889164Y-93548570D02*
X135889164Y-93477142D01*
X135889164Y-93477142D02*
X135924878Y-93369999D01*
X135924878Y-93369999D02*
X135960592Y-93334285D01*
X136639164Y-92655713D02*
X136639164Y-93012856D01*
X136639164Y-93012856D02*
X135889164Y-93012856D01*
X186785714Y-89304819D02*
X186785714Y-88304819D01*
X186785714Y-88304819D02*
X187023809Y-88304819D01*
X187023809Y-88304819D02*
X187166666Y-88352438D01*
X187166666Y-88352438D02*
X187261904Y-88447676D01*
X187261904Y-88447676D02*
X187309523Y-88542914D01*
X187309523Y-88542914D02*
X187357142Y-88733390D01*
X187357142Y-88733390D02*
X187357142Y-88876247D01*
X187357142Y-88876247D02*
X187309523Y-89066723D01*
X187309523Y-89066723D02*
X187261904Y-89161961D01*
X187261904Y-89161961D02*
X187166666Y-89257200D01*
X187166666Y-89257200D02*
X187023809Y-89304819D01*
X187023809Y-89304819D02*
X186785714Y-89304819D01*
X187738095Y-88400057D02*
X187785714Y-88352438D01*
X187785714Y-88352438D02*
X187880952Y-88304819D01*
X187880952Y-88304819D02*
X188119047Y-88304819D01*
X188119047Y-88304819D02*
X188214285Y-88352438D01*
X188214285Y-88352438D02*
X188261904Y-88400057D01*
X188261904Y-88400057D02*
X188309523Y-88495295D01*
X188309523Y-88495295D02*
X188309523Y-88590533D01*
X188309523Y-88590533D02*
X188261904Y-88733390D01*
X188261904Y-88733390D02*
X187690476Y-89304819D01*
X187690476Y-89304819D02*
X188309523Y-89304819D01*
X188642857Y-88304819D02*
X189309523Y-88304819D01*
X189309523Y-88304819D02*
X188880952Y-89304819D01*
X185028571Y-91087295D02*
X184571428Y-91087295D01*
X184800000Y-91087295D02*
X184800000Y-90287295D01*
X184800000Y-90287295D02*
X184723809Y-90401580D01*
X184723809Y-90401580D02*
X184647619Y-90477771D01*
X184647619Y-90477771D02*
X184571428Y-90515866D01*
X176090476Y-111857200D02*
X176233333Y-111904819D01*
X176233333Y-111904819D02*
X176471428Y-111904819D01*
X176471428Y-111904819D02*
X176566666Y-111857200D01*
X176566666Y-111857200D02*
X176614285Y-111809580D01*
X176614285Y-111809580D02*
X176661904Y-111714342D01*
X176661904Y-111714342D02*
X176661904Y-111619104D01*
X176661904Y-111619104D02*
X176614285Y-111523866D01*
X176614285Y-111523866D02*
X176566666Y-111476247D01*
X176566666Y-111476247D02*
X176471428Y-111428628D01*
X176471428Y-111428628D02*
X176280952Y-111381009D01*
X176280952Y-111381009D02*
X176185714Y-111333390D01*
X176185714Y-111333390D02*
X176138095Y-111285771D01*
X176138095Y-111285771D02*
X176090476Y-111190533D01*
X176090476Y-111190533D02*
X176090476Y-111095295D01*
X176090476Y-111095295D02*
X176138095Y-111000057D01*
X176138095Y-111000057D02*
X176185714Y-110952438D01*
X176185714Y-110952438D02*
X176280952Y-110904819D01*
X176280952Y-110904819D02*
X176519047Y-110904819D01*
X176519047Y-110904819D02*
X176661904Y-110952438D01*
X176995238Y-110904819D02*
X177233333Y-111904819D01*
X177233333Y-111904819D02*
X177423809Y-111190533D01*
X177423809Y-111190533D02*
X177614285Y-111904819D01*
X177614285Y-111904819D02*
X177852381Y-110904819D01*
X178757142Y-111904819D02*
X178185714Y-111904819D01*
X178471428Y-111904819D02*
X178471428Y-110904819D01*
X178471428Y-110904819D02*
X178376190Y-111047676D01*
X178376190Y-111047676D02*
X178280952Y-111142914D01*
X178280952Y-111142914D02*
X178185714Y-111190533D01*
X179138095Y-111000057D02*
X179185714Y-110952438D01*
X179185714Y-110952438D02*
X179280952Y-110904819D01*
X179280952Y-110904819D02*
X179519047Y-110904819D01*
X179519047Y-110904819D02*
X179614285Y-110952438D01*
X179614285Y-110952438D02*
X179661904Y-111000057D01*
X179661904Y-111000057D02*
X179709523Y-111095295D01*
X179709523Y-111095295D02*
X179709523Y-111190533D01*
X179709523Y-111190533D02*
X179661904Y-111333390D01*
X179661904Y-111333390D02*
X179090476Y-111904819D01*
X179090476Y-111904819D02*
X179709523Y-111904819D01*
X127385714Y-89304819D02*
X127385714Y-88304819D01*
X127385714Y-88304819D02*
X127623809Y-88304819D01*
X127623809Y-88304819D02*
X127766666Y-88352438D01*
X127766666Y-88352438D02*
X127861904Y-88447676D01*
X127861904Y-88447676D02*
X127909523Y-88542914D01*
X127909523Y-88542914D02*
X127957142Y-88733390D01*
X127957142Y-88733390D02*
X127957142Y-88876247D01*
X127957142Y-88876247D02*
X127909523Y-89066723D01*
X127909523Y-89066723D02*
X127861904Y-89161961D01*
X127861904Y-89161961D02*
X127766666Y-89257200D01*
X127766666Y-89257200D02*
X127623809Y-89304819D01*
X127623809Y-89304819D02*
X127385714Y-89304819D01*
X128338095Y-88400057D02*
X128385714Y-88352438D01*
X128385714Y-88352438D02*
X128480952Y-88304819D01*
X128480952Y-88304819D02*
X128719047Y-88304819D01*
X128719047Y-88304819D02*
X128814285Y-88352438D01*
X128814285Y-88352438D02*
X128861904Y-88400057D01*
X128861904Y-88400057D02*
X128909523Y-88495295D01*
X128909523Y-88495295D02*
X128909523Y-88590533D01*
X128909523Y-88590533D02*
X128861904Y-88733390D01*
X128861904Y-88733390D02*
X128290476Y-89304819D01*
X128290476Y-89304819D02*
X128909523Y-89304819D01*
X129766666Y-88638152D02*
X129766666Y-89304819D01*
X129528571Y-88257200D02*
X129290476Y-88971485D01*
X129290476Y-88971485D02*
X129909523Y-88971485D01*
X125628571Y-91087295D02*
X125171428Y-91087295D01*
X125400000Y-91087295D02*
X125400000Y-90287295D01*
X125400000Y-90287295D02*
X125323809Y-90401580D01*
X125323809Y-90401580D02*
X125247619Y-90477771D01*
X125247619Y-90477771D02*
X125171428Y-90515866D01*
X175235714Y-89304819D02*
X175235714Y-88304819D01*
X175235714Y-88304819D02*
X175473809Y-88304819D01*
X175473809Y-88304819D02*
X175616666Y-88352438D01*
X175616666Y-88352438D02*
X175711904Y-88447676D01*
X175711904Y-88447676D02*
X175759523Y-88542914D01*
X175759523Y-88542914D02*
X175807142Y-88733390D01*
X175807142Y-88733390D02*
X175807142Y-88876247D01*
X175807142Y-88876247D02*
X175759523Y-89066723D01*
X175759523Y-89066723D02*
X175711904Y-89161961D01*
X175711904Y-89161961D02*
X175616666Y-89257200D01*
X175616666Y-89257200D02*
X175473809Y-89304819D01*
X175473809Y-89304819D02*
X175235714Y-89304819D01*
X176188095Y-88400057D02*
X176235714Y-88352438D01*
X176235714Y-88352438D02*
X176330952Y-88304819D01*
X176330952Y-88304819D02*
X176569047Y-88304819D01*
X176569047Y-88304819D02*
X176664285Y-88352438D01*
X176664285Y-88352438D02*
X176711904Y-88400057D01*
X176711904Y-88400057D02*
X176759523Y-88495295D01*
X176759523Y-88495295D02*
X176759523Y-88590533D01*
X176759523Y-88590533D02*
X176711904Y-88733390D01*
X176711904Y-88733390D02*
X176140476Y-89304819D01*
X176140476Y-89304819D02*
X176759523Y-89304819D01*
X177616666Y-88304819D02*
X177426190Y-88304819D01*
X177426190Y-88304819D02*
X177330952Y-88352438D01*
X177330952Y-88352438D02*
X177283333Y-88400057D01*
X177283333Y-88400057D02*
X177188095Y-88542914D01*
X177188095Y-88542914D02*
X177140476Y-88733390D01*
X177140476Y-88733390D02*
X177140476Y-89114342D01*
X177140476Y-89114342D02*
X177188095Y-89209580D01*
X177188095Y-89209580D02*
X177235714Y-89257200D01*
X177235714Y-89257200D02*
X177330952Y-89304819D01*
X177330952Y-89304819D02*
X177521428Y-89304819D01*
X177521428Y-89304819D02*
X177616666Y-89257200D01*
X177616666Y-89257200D02*
X177664285Y-89209580D01*
X177664285Y-89209580D02*
X177711904Y-89114342D01*
X177711904Y-89114342D02*
X177711904Y-88876247D01*
X177711904Y-88876247D02*
X177664285Y-88781009D01*
X177664285Y-88781009D02*
X177616666Y-88733390D01*
X177616666Y-88733390D02*
X177521428Y-88685771D01*
X177521428Y-88685771D02*
X177330952Y-88685771D01*
X177330952Y-88685771D02*
X177235714Y-88733390D01*
X177235714Y-88733390D02*
X177188095Y-88781009D01*
X177188095Y-88781009D02*
X177140476Y-88876247D01*
X173478571Y-91087295D02*
X173021428Y-91087295D01*
X173250000Y-91087295D02*
X173250000Y-90287295D01*
X173250000Y-90287295D02*
X173173809Y-90401580D01*
X173173809Y-90401580D02*
X173097619Y-90477771D01*
X173097619Y-90477771D02*
X173021428Y-90515866D01*
X115835714Y-89304819D02*
X115835714Y-88304819D01*
X115835714Y-88304819D02*
X116073809Y-88304819D01*
X116073809Y-88304819D02*
X116216666Y-88352438D01*
X116216666Y-88352438D02*
X116311904Y-88447676D01*
X116311904Y-88447676D02*
X116359523Y-88542914D01*
X116359523Y-88542914D02*
X116407142Y-88733390D01*
X116407142Y-88733390D02*
X116407142Y-88876247D01*
X116407142Y-88876247D02*
X116359523Y-89066723D01*
X116359523Y-89066723D02*
X116311904Y-89161961D01*
X116311904Y-89161961D02*
X116216666Y-89257200D01*
X116216666Y-89257200D02*
X116073809Y-89304819D01*
X116073809Y-89304819D02*
X115835714Y-89304819D01*
X116788095Y-88400057D02*
X116835714Y-88352438D01*
X116835714Y-88352438D02*
X116930952Y-88304819D01*
X116930952Y-88304819D02*
X117169047Y-88304819D01*
X117169047Y-88304819D02*
X117264285Y-88352438D01*
X117264285Y-88352438D02*
X117311904Y-88400057D01*
X117311904Y-88400057D02*
X117359523Y-88495295D01*
X117359523Y-88495295D02*
X117359523Y-88590533D01*
X117359523Y-88590533D02*
X117311904Y-88733390D01*
X117311904Y-88733390D02*
X116740476Y-89304819D01*
X116740476Y-89304819D02*
X117359523Y-89304819D01*
X117692857Y-88304819D02*
X118311904Y-88304819D01*
X118311904Y-88304819D02*
X117978571Y-88685771D01*
X117978571Y-88685771D02*
X118121428Y-88685771D01*
X118121428Y-88685771D02*
X118216666Y-88733390D01*
X118216666Y-88733390D02*
X118264285Y-88781009D01*
X118264285Y-88781009D02*
X118311904Y-88876247D01*
X118311904Y-88876247D02*
X118311904Y-89114342D01*
X118311904Y-89114342D02*
X118264285Y-89209580D01*
X118264285Y-89209580D02*
X118216666Y-89257200D01*
X118216666Y-89257200D02*
X118121428Y-89304819D01*
X118121428Y-89304819D02*
X117835714Y-89304819D01*
X117835714Y-89304819D02*
X117740476Y-89257200D01*
X117740476Y-89257200D02*
X117692857Y-89209580D01*
X114078571Y-91087295D02*
X113621428Y-91087295D01*
X113850000Y-91087295D02*
X113850000Y-90287295D01*
X113850000Y-90287295D02*
X113773809Y-90401580D01*
X113773809Y-90401580D02*
X113697619Y-90477771D01*
X113697619Y-90477771D02*
X113621428Y-90515866D01*
X137166667Y-68827200D02*
X137309524Y-68874819D01*
X137309524Y-68874819D02*
X137547619Y-68874819D01*
X137547619Y-68874819D02*
X137642857Y-68827200D01*
X137642857Y-68827200D02*
X137690476Y-68779580D01*
X137690476Y-68779580D02*
X137738095Y-68684342D01*
X137738095Y-68684342D02*
X137738095Y-68589104D01*
X137738095Y-68589104D02*
X137690476Y-68493866D01*
X137690476Y-68493866D02*
X137642857Y-68446247D01*
X137642857Y-68446247D02*
X137547619Y-68398628D01*
X137547619Y-68398628D02*
X137357143Y-68351009D01*
X137357143Y-68351009D02*
X137261905Y-68303390D01*
X137261905Y-68303390D02*
X137214286Y-68255771D01*
X137214286Y-68255771D02*
X137166667Y-68160533D01*
X137166667Y-68160533D02*
X137166667Y-68065295D01*
X137166667Y-68065295D02*
X137214286Y-67970057D01*
X137214286Y-67970057D02*
X137261905Y-67922438D01*
X137261905Y-67922438D02*
X137357143Y-67874819D01*
X137357143Y-67874819D02*
X137595238Y-67874819D01*
X137595238Y-67874819D02*
X137738095Y-67922438D01*
X138071429Y-67874819D02*
X138309524Y-68874819D01*
X138309524Y-68874819D02*
X138500000Y-68160533D01*
X138500000Y-68160533D02*
X138690476Y-68874819D01*
X138690476Y-68874819D02*
X138928572Y-67874819D01*
X139738095Y-67874819D02*
X139547619Y-67874819D01*
X139547619Y-67874819D02*
X139452381Y-67922438D01*
X139452381Y-67922438D02*
X139404762Y-67970057D01*
X139404762Y-67970057D02*
X139309524Y-68112914D01*
X139309524Y-68112914D02*
X139261905Y-68303390D01*
X139261905Y-68303390D02*
X139261905Y-68684342D01*
X139261905Y-68684342D02*
X139309524Y-68779580D01*
X139309524Y-68779580D02*
X139357143Y-68827200D01*
X139357143Y-68827200D02*
X139452381Y-68874819D01*
X139452381Y-68874819D02*
X139642857Y-68874819D01*
X139642857Y-68874819D02*
X139738095Y-68827200D01*
X139738095Y-68827200D02*
X139785714Y-68779580D01*
X139785714Y-68779580D02*
X139833333Y-68684342D01*
X139833333Y-68684342D02*
X139833333Y-68446247D01*
X139833333Y-68446247D02*
X139785714Y-68351009D01*
X139785714Y-68351009D02*
X139738095Y-68303390D01*
X139738095Y-68303390D02*
X139642857Y-68255771D01*
X139642857Y-68255771D02*
X139452381Y-68255771D01*
X139452381Y-68255771D02*
X139357143Y-68303390D01*
X139357143Y-68303390D02*
X139309524Y-68351009D01*
X139309524Y-68351009D02*
X139261905Y-68446247D01*
X136416667Y-49657200D02*
X136559524Y-49704819D01*
X136559524Y-49704819D02*
X136797619Y-49704819D01*
X136797619Y-49704819D02*
X136892857Y-49657200D01*
X136892857Y-49657200D02*
X136940476Y-49609580D01*
X136940476Y-49609580D02*
X136988095Y-49514342D01*
X136988095Y-49514342D02*
X136988095Y-49419104D01*
X136988095Y-49419104D02*
X136940476Y-49323866D01*
X136940476Y-49323866D02*
X136892857Y-49276247D01*
X136892857Y-49276247D02*
X136797619Y-49228628D01*
X136797619Y-49228628D02*
X136607143Y-49181009D01*
X136607143Y-49181009D02*
X136511905Y-49133390D01*
X136511905Y-49133390D02*
X136464286Y-49085771D01*
X136464286Y-49085771D02*
X136416667Y-48990533D01*
X136416667Y-48990533D02*
X136416667Y-48895295D01*
X136416667Y-48895295D02*
X136464286Y-48800057D01*
X136464286Y-48800057D02*
X136511905Y-48752438D01*
X136511905Y-48752438D02*
X136607143Y-48704819D01*
X136607143Y-48704819D02*
X136845238Y-48704819D01*
X136845238Y-48704819D02*
X136988095Y-48752438D01*
X137321429Y-48704819D02*
X137559524Y-49704819D01*
X137559524Y-49704819D02*
X137750000Y-48990533D01*
X137750000Y-48990533D02*
X137940476Y-49704819D01*
X137940476Y-49704819D02*
X138178572Y-48704819D01*
X138511905Y-48800057D02*
X138559524Y-48752438D01*
X138559524Y-48752438D02*
X138654762Y-48704819D01*
X138654762Y-48704819D02*
X138892857Y-48704819D01*
X138892857Y-48704819D02*
X138988095Y-48752438D01*
X138988095Y-48752438D02*
X139035714Y-48800057D01*
X139035714Y-48800057D02*
X139083333Y-48895295D01*
X139083333Y-48895295D02*
X139083333Y-48990533D01*
X139083333Y-48990533D02*
X139035714Y-49133390D01*
X139035714Y-49133390D02*
X138464286Y-49704819D01*
X138464286Y-49704819D02*
X139083333Y-49704819D01*
X156216667Y-68827200D02*
X156359524Y-68874819D01*
X156359524Y-68874819D02*
X156597619Y-68874819D01*
X156597619Y-68874819D02*
X156692857Y-68827200D01*
X156692857Y-68827200D02*
X156740476Y-68779580D01*
X156740476Y-68779580D02*
X156788095Y-68684342D01*
X156788095Y-68684342D02*
X156788095Y-68589104D01*
X156788095Y-68589104D02*
X156740476Y-68493866D01*
X156740476Y-68493866D02*
X156692857Y-68446247D01*
X156692857Y-68446247D02*
X156597619Y-68398628D01*
X156597619Y-68398628D02*
X156407143Y-68351009D01*
X156407143Y-68351009D02*
X156311905Y-68303390D01*
X156311905Y-68303390D02*
X156264286Y-68255771D01*
X156264286Y-68255771D02*
X156216667Y-68160533D01*
X156216667Y-68160533D02*
X156216667Y-68065295D01*
X156216667Y-68065295D02*
X156264286Y-67970057D01*
X156264286Y-67970057D02*
X156311905Y-67922438D01*
X156311905Y-67922438D02*
X156407143Y-67874819D01*
X156407143Y-67874819D02*
X156645238Y-67874819D01*
X156645238Y-67874819D02*
X156788095Y-67922438D01*
X157121429Y-67874819D02*
X157359524Y-68874819D01*
X157359524Y-68874819D02*
X157550000Y-68160533D01*
X157550000Y-68160533D02*
X157740476Y-68874819D01*
X157740476Y-68874819D02*
X157978572Y-67874819D01*
X158264286Y-67874819D02*
X158930952Y-67874819D01*
X158930952Y-67874819D02*
X158502381Y-68874819D01*
X118040476Y-111957200D02*
X118183333Y-112004819D01*
X118183333Y-112004819D02*
X118421428Y-112004819D01*
X118421428Y-112004819D02*
X118516666Y-111957200D01*
X118516666Y-111957200D02*
X118564285Y-111909580D01*
X118564285Y-111909580D02*
X118611904Y-111814342D01*
X118611904Y-111814342D02*
X118611904Y-111719104D01*
X118611904Y-111719104D02*
X118564285Y-111623866D01*
X118564285Y-111623866D02*
X118516666Y-111576247D01*
X118516666Y-111576247D02*
X118421428Y-111528628D01*
X118421428Y-111528628D02*
X118230952Y-111481009D01*
X118230952Y-111481009D02*
X118135714Y-111433390D01*
X118135714Y-111433390D02*
X118088095Y-111385771D01*
X118088095Y-111385771D02*
X118040476Y-111290533D01*
X118040476Y-111290533D02*
X118040476Y-111195295D01*
X118040476Y-111195295D02*
X118088095Y-111100057D01*
X118088095Y-111100057D02*
X118135714Y-111052438D01*
X118135714Y-111052438D02*
X118230952Y-111004819D01*
X118230952Y-111004819D02*
X118469047Y-111004819D01*
X118469047Y-111004819D02*
X118611904Y-111052438D01*
X118945238Y-111004819D02*
X119183333Y-112004819D01*
X119183333Y-112004819D02*
X119373809Y-111290533D01*
X119373809Y-111290533D02*
X119564285Y-112004819D01*
X119564285Y-112004819D02*
X119802381Y-111004819D01*
X120707142Y-112004819D02*
X120135714Y-112004819D01*
X120421428Y-112004819D02*
X120421428Y-111004819D01*
X120421428Y-111004819D02*
X120326190Y-111147676D01*
X120326190Y-111147676D02*
X120230952Y-111242914D01*
X120230952Y-111242914D02*
X120135714Y-111290533D01*
X121659523Y-112004819D02*
X121088095Y-112004819D01*
X121373809Y-112004819D02*
X121373809Y-111004819D01*
X121373809Y-111004819D02*
X121278571Y-111147676D01*
X121278571Y-111147676D02*
X121183333Y-111242914D01*
X121183333Y-111242914D02*
X121088095Y-111290533D01*
X118116667Y-68827200D02*
X118259524Y-68874819D01*
X118259524Y-68874819D02*
X118497619Y-68874819D01*
X118497619Y-68874819D02*
X118592857Y-68827200D01*
X118592857Y-68827200D02*
X118640476Y-68779580D01*
X118640476Y-68779580D02*
X118688095Y-68684342D01*
X118688095Y-68684342D02*
X118688095Y-68589104D01*
X118688095Y-68589104D02*
X118640476Y-68493866D01*
X118640476Y-68493866D02*
X118592857Y-68446247D01*
X118592857Y-68446247D02*
X118497619Y-68398628D01*
X118497619Y-68398628D02*
X118307143Y-68351009D01*
X118307143Y-68351009D02*
X118211905Y-68303390D01*
X118211905Y-68303390D02*
X118164286Y-68255771D01*
X118164286Y-68255771D02*
X118116667Y-68160533D01*
X118116667Y-68160533D02*
X118116667Y-68065295D01*
X118116667Y-68065295D02*
X118164286Y-67970057D01*
X118164286Y-67970057D02*
X118211905Y-67922438D01*
X118211905Y-67922438D02*
X118307143Y-67874819D01*
X118307143Y-67874819D02*
X118545238Y-67874819D01*
X118545238Y-67874819D02*
X118688095Y-67922438D01*
X119021429Y-67874819D02*
X119259524Y-68874819D01*
X119259524Y-68874819D02*
X119450000Y-68160533D01*
X119450000Y-68160533D02*
X119640476Y-68874819D01*
X119640476Y-68874819D02*
X119878572Y-67874819D01*
X120735714Y-67874819D02*
X120259524Y-67874819D01*
X120259524Y-67874819D02*
X120211905Y-68351009D01*
X120211905Y-68351009D02*
X120259524Y-68303390D01*
X120259524Y-68303390D02*
X120354762Y-68255771D01*
X120354762Y-68255771D02*
X120592857Y-68255771D01*
X120592857Y-68255771D02*
X120688095Y-68303390D01*
X120688095Y-68303390D02*
X120735714Y-68351009D01*
X120735714Y-68351009D02*
X120783333Y-68446247D01*
X120783333Y-68446247D02*
X120783333Y-68684342D01*
X120783333Y-68684342D02*
X120735714Y-68779580D01*
X120735714Y-68779580D02*
X120688095Y-68827200D01*
X120688095Y-68827200D02*
X120592857Y-68874819D01*
X120592857Y-68874819D02*
X120354762Y-68874819D01*
X120354762Y-68874819D02*
X120259524Y-68827200D01*
X120259524Y-68827200D02*
X120211905Y-68779580D01*
X175266667Y-68827200D02*
X175409524Y-68874819D01*
X175409524Y-68874819D02*
X175647619Y-68874819D01*
X175647619Y-68874819D02*
X175742857Y-68827200D01*
X175742857Y-68827200D02*
X175790476Y-68779580D01*
X175790476Y-68779580D02*
X175838095Y-68684342D01*
X175838095Y-68684342D02*
X175838095Y-68589104D01*
X175838095Y-68589104D02*
X175790476Y-68493866D01*
X175790476Y-68493866D02*
X175742857Y-68446247D01*
X175742857Y-68446247D02*
X175647619Y-68398628D01*
X175647619Y-68398628D02*
X175457143Y-68351009D01*
X175457143Y-68351009D02*
X175361905Y-68303390D01*
X175361905Y-68303390D02*
X175314286Y-68255771D01*
X175314286Y-68255771D02*
X175266667Y-68160533D01*
X175266667Y-68160533D02*
X175266667Y-68065295D01*
X175266667Y-68065295D02*
X175314286Y-67970057D01*
X175314286Y-67970057D02*
X175361905Y-67922438D01*
X175361905Y-67922438D02*
X175457143Y-67874819D01*
X175457143Y-67874819D02*
X175695238Y-67874819D01*
X175695238Y-67874819D02*
X175838095Y-67922438D01*
X176171429Y-67874819D02*
X176409524Y-68874819D01*
X176409524Y-68874819D02*
X176600000Y-68160533D01*
X176600000Y-68160533D02*
X176790476Y-68874819D01*
X176790476Y-68874819D02*
X177028572Y-67874819D01*
X177552381Y-68303390D02*
X177457143Y-68255771D01*
X177457143Y-68255771D02*
X177409524Y-68208152D01*
X177409524Y-68208152D02*
X177361905Y-68112914D01*
X177361905Y-68112914D02*
X177361905Y-68065295D01*
X177361905Y-68065295D02*
X177409524Y-67970057D01*
X177409524Y-67970057D02*
X177457143Y-67922438D01*
X177457143Y-67922438D02*
X177552381Y-67874819D01*
X177552381Y-67874819D02*
X177742857Y-67874819D01*
X177742857Y-67874819D02*
X177838095Y-67922438D01*
X177838095Y-67922438D02*
X177885714Y-67970057D01*
X177885714Y-67970057D02*
X177933333Y-68065295D01*
X177933333Y-68065295D02*
X177933333Y-68112914D01*
X177933333Y-68112914D02*
X177885714Y-68208152D01*
X177885714Y-68208152D02*
X177838095Y-68255771D01*
X177838095Y-68255771D02*
X177742857Y-68303390D01*
X177742857Y-68303390D02*
X177552381Y-68303390D01*
X177552381Y-68303390D02*
X177457143Y-68351009D01*
X177457143Y-68351009D02*
X177409524Y-68398628D01*
X177409524Y-68398628D02*
X177361905Y-68493866D01*
X177361905Y-68493866D02*
X177361905Y-68684342D01*
X177361905Y-68684342D02*
X177409524Y-68779580D01*
X177409524Y-68779580D02*
X177457143Y-68827200D01*
X177457143Y-68827200D02*
X177552381Y-68874819D01*
X177552381Y-68874819D02*
X177742857Y-68874819D01*
X177742857Y-68874819D02*
X177838095Y-68827200D01*
X177838095Y-68827200D02*
X177885714Y-68779580D01*
X177885714Y-68779580D02*
X177933333Y-68684342D01*
X177933333Y-68684342D02*
X177933333Y-68493866D01*
X177933333Y-68493866D02*
X177885714Y-68398628D01*
X177885714Y-68398628D02*
X177838095Y-68351009D01*
X177838095Y-68351009D02*
X177742857Y-68303390D01*
X156216667Y-49777200D02*
X156359524Y-49824819D01*
X156359524Y-49824819D02*
X156597619Y-49824819D01*
X156597619Y-49824819D02*
X156692857Y-49777200D01*
X156692857Y-49777200D02*
X156740476Y-49729580D01*
X156740476Y-49729580D02*
X156788095Y-49634342D01*
X156788095Y-49634342D02*
X156788095Y-49539104D01*
X156788095Y-49539104D02*
X156740476Y-49443866D01*
X156740476Y-49443866D02*
X156692857Y-49396247D01*
X156692857Y-49396247D02*
X156597619Y-49348628D01*
X156597619Y-49348628D02*
X156407143Y-49301009D01*
X156407143Y-49301009D02*
X156311905Y-49253390D01*
X156311905Y-49253390D02*
X156264286Y-49205771D01*
X156264286Y-49205771D02*
X156216667Y-49110533D01*
X156216667Y-49110533D02*
X156216667Y-49015295D01*
X156216667Y-49015295D02*
X156264286Y-48920057D01*
X156264286Y-48920057D02*
X156311905Y-48872438D01*
X156311905Y-48872438D02*
X156407143Y-48824819D01*
X156407143Y-48824819D02*
X156645238Y-48824819D01*
X156645238Y-48824819D02*
X156788095Y-48872438D01*
X157121429Y-48824819D02*
X157359524Y-49824819D01*
X157359524Y-49824819D02*
X157550000Y-49110533D01*
X157550000Y-49110533D02*
X157740476Y-49824819D01*
X157740476Y-49824819D02*
X157978572Y-48824819D01*
X158264286Y-48824819D02*
X158883333Y-48824819D01*
X158883333Y-48824819D02*
X158550000Y-49205771D01*
X158550000Y-49205771D02*
X158692857Y-49205771D01*
X158692857Y-49205771D02*
X158788095Y-49253390D01*
X158788095Y-49253390D02*
X158835714Y-49301009D01*
X158835714Y-49301009D02*
X158883333Y-49396247D01*
X158883333Y-49396247D02*
X158883333Y-49634342D01*
X158883333Y-49634342D02*
X158835714Y-49729580D01*
X158835714Y-49729580D02*
X158788095Y-49777200D01*
X158788095Y-49777200D02*
X158692857Y-49824819D01*
X158692857Y-49824819D02*
X158407143Y-49824819D01*
X158407143Y-49824819D02*
X158311905Y-49777200D01*
X158311905Y-49777200D02*
X158264286Y-49729580D01*
X137086667Y-109907200D02*
X137229524Y-109954819D01*
X137229524Y-109954819D02*
X137467619Y-109954819D01*
X137467619Y-109954819D02*
X137562857Y-109907200D01*
X137562857Y-109907200D02*
X137610476Y-109859580D01*
X137610476Y-109859580D02*
X137658095Y-109764342D01*
X137658095Y-109764342D02*
X137658095Y-109669104D01*
X137658095Y-109669104D02*
X137610476Y-109573866D01*
X137610476Y-109573866D02*
X137562857Y-109526247D01*
X137562857Y-109526247D02*
X137467619Y-109478628D01*
X137467619Y-109478628D02*
X137277143Y-109431009D01*
X137277143Y-109431009D02*
X137181905Y-109383390D01*
X137181905Y-109383390D02*
X137134286Y-109335771D01*
X137134286Y-109335771D02*
X137086667Y-109240533D01*
X137086667Y-109240533D02*
X137086667Y-109145295D01*
X137086667Y-109145295D02*
X137134286Y-109050057D01*
X137134286Y-109050057D02*
X137181905Y-109002438D01*
X137181905Y-109002438D02*
X137277143Y-108954819D01*
X137277143Y-108954819D02*
X137515238Y-108954819D01*
X137515238Y-108954819D02*
X137658095Y-109002438D01*
X137991429Y-108954819D02*
X138229524Y-109954819D01*
X138229524Y-109954819D02*
X138420000Y-109240533D01*
X138420000Y-109240533D02*
X138610476Y-109954819D01*
X138610476Y-109954819D02*
X138848572Y-108954819D01*
X139277143Y-109954819D02*
X139467619Y-109954819D01*
X139467619Y-109954819D02*
X139562857Y-109907200D01*
X139562857Y-109907200D02*
X139610476Y-109859580D01*
X139610476Y-109859580D02*
X139705714Y-109716723D01*
X139705714Y-109716723D02*
X139753333Y-109526247D01*
X139753333Y-109526247D02*
X139753333Y-109145295D01*
X139753333Y-109145295D02*
X139705714Y-109050057D01*
X139705714Y-109050057D02*
X139658095Y-109002438D01*
X139658095Y-109002438D02*
X139562857Y-108954819D01*
X139562857Y-108954819D02*
X139372381Y-108954819D01*
X139372381Y-108954819D02*
X139277143Y-109002438D01*
X139277143Y-109002438D02*
X139229524Y-109050057D01*
X139229524Y-109050057D02*
X139181905Y-109145295D01*
X139181905Y-109145295D02*
X139181905Y-109383390D01*
X139181905Y-109383390D02*
X139229524Y-109478628D01*
X139229524Y-109478628D02*
X139277143Y-109526247D01*
X139277143Y-109526247D02*
X139372381Y-109573866D01*
X139372381Y-109573866D02*
X139562857Y-109573866D01*
X139562857Y-109573866D02*
X139658095Y-109526247D01*
X139658095Y-109526247D02*
X139705714Y-109478628D01*
X139705714Y-109478628D02*
X139753333Y-109383390D01*
D12*
%TO.C,D25*%
X120250000Y-96400000D02*
X120250000Y-100400000D01*
X120250000Y-96400000D02*
X125850000Y-96400000D01*
X120250000Y-100400000D02*
X125250000Y-100400000D01*
X125850000Y-99800000D02*
X125250000Y-100400000D01*
X125850000Y-99800000D02*
X125850000Y-96400000D01*
%TO.C,D28*%
X179650000Y-96400000D02*
X179650000Y-100400000D01*
X179650000Y-96400000D02*
X185250000Y-96400000D01*
X179650000Y-100400000D02*
X184650000Y-100400000D01*
X185250000Y-99800000D02*
X184650000Y-100400000D01*
X185250000Y-99800000D02*
X185250000Y-96400000D01*
%TO.C,SW4*%
X174100000Y-48370000D02*
X174100000Y-49370000D01*
X174100000Y-48370000D02*
X175100000Y-48370000D01*
X174100000Y-62370000D02*
X174100000Y-61370000D01*
X175100000Y-62370000D02*
X174100000Y-62370000D01*
X187100000Y-48370000D02*
X188100000Y-48370000D01*
X188100000Y-48370000D02*
X188100000Y-49370000D01*
X188100000Y-61370000D02*
X188100000Y-62370000D01*
X188100000Y-62370000D02*
X187100000Y-62370000D01*
%TO.C,SW10*%
X154970000Y-108500000D02*
X154970000Y-109500000D01*
X154970000Y-108500000D02*
X155970000Y-108500000D01*
X154970000Y-122500000D02*
X154970000Y-121500000D01*
X155970000Y-122500000D02*
X154970000Y-122500000D01*
X167970000Y-108500000D02*
X168970000Y-108500000D01*
X168970000Y-108500000D02*
X168970000Y-109500000D01*
X168970000Y-121500000D02*
X168970000Y-122500000D01*
X168970000Y-122500000D02*
X167970000Y-122500000D01*
%TO.C,SW1*%
X116950000Y-48370000D02*
X116950000Y-49370000D01*
X116950000Y-48370000D02*
X117950000Y-48370000D01*
X116950000Y-62370000D02*
X116950000Y-61370000D01*
X117950000Y-62370000D02*
X116950000Y-62370000D01*
X129950000Y-48370000D02*
X130950000Y-48370000D01*
X130950000Y-48370000D02*
X130950000Y-49370000D01*
X130950000Y-61370000D02*
X130950000Y-62370000D01*
X130950000Y-62370000D02*
X129950000Y-62370000D01*
D13*
%TO.C,J1*%
X132800000Y-88890000D02*
X132800000Y-100890000D01*
X132800000Y-100890000D02*
X170800000Y-100890000D01*
X137800000Y-100890000D02*
X137800000Y-88890000D01*
X167300000Y-100890000D02*
X167300000Y-88890000D01*
X170800000Y-88890000D02*
X132800000Y-88890000D01*
X170800000Y-100890000D02*
X170800000Y-88890000D01*
D12*
%TO.C,D27*%
X185200000Y-89600000D02*
X185200000Y-93600000D01*
X185200000Y-89600000D02*
X190800000Y-89600000D01*
X185200000Y-93600000D02*
X190200000Y-93600000D01*
X190800000Y-93000000D02*
X190200000Y-93600000D01*
X190800000Y-93000000D02*
X190800000Y-89600000D01*
%TO.C,SW12*%
X173950000Y-111400000D02*
X174550000Y-111400000D01*
X174250000Y-111700000D02*
X173950000Y-111400000D01*
X174550000Y-111400000D02*
X174250000Y-111700000D01*
X175650000Y-109600000D02*
X175650000Y-121400000D01*
X179750000Y-109600000D02*
X175650000Y-109600000D01*
X179750000Y-121400000D02*
X175650000Y-121400000D01*
X181250000Y-115500000D02*
X182250000Y-115500000D01*
X181750000Y-115000000D02*
X181750000Y-116000000D01*
X183750000Y-109600000D02*
X187850000Y-109600000D01*
X187850000Y-109600000D02*
X187850000Y-112000000D01*
X187850000Y-114200000D02*
X187850000Y-116800000D01*
X187850000Y-119000000D02*
X187850000Y-121400000D01*
X187850000Y-121400000D02*
X183750000Y-121400000D01*
X184750000Y-115500000D02*
G75*
G02*
X178750000Y-115500000I-3000000J0D01*
G01*
X178750000Y-115500000D02*
G75*
G02*
X184750000Y-115500000I3000000J0D01*
G01*
%TO.C,D24*%
X125800000Y-89600000D02*
X125800000Y-93600000D01*
X125800000Y-89600000D02*
X131400000Y-89600000D01*
X125800000Y-93600000D02*
X130800000Y-93600000D01*
X131400000Y-93000000D02*
X130800000Y-93600000D01*
X131400000Y-93000000D02*
X131400000Y-89600000D01*
%TO.C,D26*%
X173650000Y-89600000D02*
X173650000Y-93600000D01*
X173650000Y-89600000D02*
X179250000Y-89600000D01*
X173650000Y-93600000D02*
X178650000Y-93600000D01*
X179250000Y-93000000D02*
X178650000Y-93600000D01*
X179250000Y-93000000D02*
X179250000Y-89600000D01*
%TO.C,D23*%
X114250000Y-89600000D02*
X114250000Y-93600000D01*
X114250000Y-89600000D02*
X119850000Y-89600000D01*
X114250000Y-93600000D02*
X119250000Y-93600000D01*
X119850000Y-93000000D02*
X119250000Y-93600000D01*
X119850000Y-93000000D02*
X119850000Y-89600000D01*
%TO.C,SW6*%
X136000000Y-67420000D02*
X136000000Y-68420000D01*
X136000000Y-67420000D02*
X137000000Y-67420000D01*
X136000000Y-81420000D02*
X136000000Y-80420000D01*
X137000000Y-81420000D02*
X136000000Y-81420000D01*
X149000000Y-67420000D02*
X150000000Y-67420000D01*
X150000000Y-67420000D02*
X150000000Y-68420000D01*
X150000000Y-80420000D02*
X150000000Y-81420000D01*
X150000000Y-81420000D02*
X149000000Y-81420000D01*
%TO.C,SW2*%
X136000000Y-48370000D02*
X136000000Y-49370000D01*
X136000000Y-48370000D02*
X137000000Y-48370000D01*
X136000000Y-62370000D02*
X136000000Y-61370000D01*
X137000000Y-62370000D02*
X136000000Y-62370000D01*
X149000000Y-48370000D02*
X150000000Y-48370000D01*
X150000000Y-48370000D02*
X150000000Y-49370000D01*
X150000000Y-61370000D02*
X150000000Y-62370000D01*
X150000000Y-62370000D02*
X149000000Y-62370000D01*
%TO.C,SW7*%
X155050000Y-67420000D02*
X155050000Y-68420000D01*
X155050000Y-67420000D02*
X156050000Y-67420000D01*
X155050000Y-81420000D02*
X155050000Y-80420000D01*
X156050000Y-81420000D02*
X155050000Y-81420000D01*
X168050000Y-67420000D02*
X169050000Y-67420000D01*
X169050000Y-67420000D02*
X169050000Y-68420000D01*
X169050000Y-80420000D02*
X169050000Y-81420000D01*
X169050000Y-81420000D02*
X168050000Y-81420000D01*
%TO.C,SW11*%
X115950000Y-111400000D02*
X116550000Y-111400000D01*
X116250000Y-111700000D02*
X115950000Y-111400000D01*
X116550000Y-111400000D02*
X116250000Y-111700000D01*
X117650000Y-109600000D02*
X117650000Y-121400000D01*
X121750000Y-109600000D02*
X117650000Y-109600000D01*
X121750000Y-121400000D02*
X117650000Y-121400000D01*
X123250000Y-115500000D02*
X124250000Y-115500000D01*
X123750000Y-115000000D02*
X123750000Y-116000000D01*
X125750000Y-109600000D02*
X129850000Y-109600000D01*
X129850000Y-109600000D02*
X129850000Y-112000000D01*
X129850000Y-114200000D02*
X129850000Y-116800000D01*
X129850000Y-119000000D02*
X129850000Y-121400000D01*
X129850000Y-121400000D02*
X125750000Y-121400000D01*
X126750000Y-115500000D02*
G75*
G02*
X120750000Y-115500000I-3000000J0D01*
G01*
X120750000Y-115500000D02*
G75*
G02*
X126750000Y-115500000I3000000J0D01*
G01*
%TO.C,SW5*%
X116950000Y-67420000D02*
X116950000Y-68420000D01*
X116950000Y-67420000D02*
X117950000Y-67420000D01*
X116950000Y-81420000D02*
X116950000Y-80420000D01*
X117950000Y-81420000D02*
X116950000Y-81420000D01*
X129950000Y-67420000D02*
X130950000Y-67420000D01*
X130950000Y-67420000D02*
X130950000Y-68420000D01*
X130950000Y-80420000D02*
X130950000Y-81420000D01*
X130950000Y-81420000D02*
X129950000Y-81420000D01*
%TO.C,SW8*%
X174100000Y-67420000D02*
X174100000Y-68420000D01*
X174100000Y-67420000D02*
X175100000Y-67420000D01*
X174100000Y-81420000D02*
X174100000Y-80420000D01*
X175100000Y-81420000D02*
X174100000Y-81420000D01*
X187100000Y-67420000D02*
X188100000Y-67420000D01*
X188100000Y-67420000D02*
X188100000Y-68420000D01*
X188100000Y-80420000D02*
X188100000Y-81420000D01*
X188100000Y-81420000D02*
X187100000Y-81420000D01*
%TO.C,J2*%
X147620000Y-125145000D02*
X148950000Y-125145000D01*
X147620000Y-126475000D02*
X147620000Y-125145000D01*
X150220000Y-125145000D02*
X157900000Y-125145000D01*
X150220000Y-127805000D02*
X150220000Y-125145000D01*
X150220000Y-127805000D02*
X157900000Y-127805000D01*
X157900000Y-127805000D02*
X157900000Y-125145000D01*
%TO.C,SW3*%
X155050000Y-48370000D02*
X155050000Y-49370000D01*
X155050000Y-48370000D02*
X156050000Y-48370000D01*
X155050000Y-62370000D02*
X155050000Y-61370000D01*
X156050000Y-62370000D02*
X155050000Y-62370000D01*
X168050000Y-48370000D02*
X169050000Y-48370000D01*
X169050000Y-48370000D02*
X169050000Y-49370000D01*
X169050000Y-61370000D02*
X169050000Y-62370000D01*
X169050000Y-62370000D02*
X168050000Y-62370000D01*
%TO.C,SW9*%
X135920000Y-108500000D02*
X135920000Y-109500000D01*
X135920000Y-108500000D02*
X136920000Y-108500000D01*
X135920000Y-122500000D02*
X135920000Y-121500000D01*
X136920000Y-122500000D02*
X135920000Y-122500000D01*
X148920000Y-108500000D02*
X149920000Y-108500000D01*
X149920000Y-108500000D02*
X149920000Y-109500000D01*
X149920000Y-121500000D02*
X149920000Y-122500000D01*
X149920000Y-122500000D02*
X148920000Y-122500000D01*
%TD*%
%LPC*%
D14*
%TO.C,D25*%
X121300000Y-97525000D03*
X121300000Y-99275000D03*
X124800000Y-99275000D03*
X124800000Y-97525000D03*
%TD*%
%TO.C,D28*%
X180700000Y-97525000D03*
X180700000Y-99275000D03*
X184200000Y-99275000D03*
X184200000Y-97525000D03*
%TD*%
D15*
%TO.C,SW4*%
X181100000Y-55370000D03*
D16*
X176700000Y-60070000D03*
D17*
X183700000Y-61120000D03*
%TD*%
D15*
%TO.C,SW10*%
X161970000Y-115500000D03*
D16*
X157570000Y-120200000D03*
D17*
X164570000Y-121250000D03*
%TD*%
D18*
%TO.C,MH3*%
X115500000Y-124000000D03*
%TD*%
D15*
%TO.C,SW1*%
X123950000Y-55370000D03*
D16*
X119550000Y-60070000D03*
D17*
X126550000Y-61120000D03*
%TD*%
D18*
%TO.C,MH1*%
X115500000Y-47000000D03*
%TD*%
%TO.C,MH2*%
X189500000Y-47000000D03*
%TD*%
D19*
%TO.C,J1*%
X134300000Y-98700000D03*
D20*
X134300000Y-96160000D03*
X134300000Y-93620000D03*
X134300000Y-91080000D03*
%TD*%
D14*
%TO.C,D27*%
X186250000Y-90725000D03*
X186250000Y-92475000D03*
X189750000Y-92475000D03*
X189750000Y-90725000D03*
%TD*%
D21*
%TO.C,SW12*%
X174250000Y-113000000D03*
D22*
X174250000Y-118000000D03*
X174250000Y-115500000D03*
D23*
X181750000Y-109900000D03*
X181750000Y-121100000D03*
D22*
X188750000Y-118000000D03*
X188750000Y-113000000D03*
%TD*%
D14*
%TO.C,D24*%
X126850000Y-90725000D03*
X126850000Y-92475000D03*
X130350000Y-92475000D03*
X130350000Y-90725000D03*
%TD*%
%TO.C,D26*%
X174700000Y-90725000D03*
X174700000Y-92475000D03*
X178200000Y-92475000D03*
X178200000Y-90725000D03*
%TD*%
%TO.C,D23*%
X115300000Y-90725000D03*
X115300000Y-92475000D03*
X118800000Y-92475000D03*
X118800000Y-90725000D03*
%TD*%
D15*
%TO.C,SW6*%
X143000000Y-74420000D03*
D16*
X138600000Y-79120000D03*
D17*
X145600000Y-80170000D03*
%TD*%
D18*
%TO.C,MH4*%
X189500000Y-124000000D03*
%TD*%
D15*
%TO.C,SW2*%
X143000000Y-55370000D03*
D16*
X138600000Y-60070000D03*
D17*
X145600000Y-61120000D03*
%TD*%
D15*
%TO.C,SW7*%
X162050000Y-74420000D03*
D16*
X157650000Y-79120000D03*
D17*
X164650000Y-80170000D03*
%TD*%
D21*
%TO.C,SW11*%
X116250000Y-113000000D03*
D22*
X116250000Y-118000000D03*
X116250000Y-115500000D03*
D23*
X123750000Y-109900000D03*
X123750000Y-121100000D03*
D22*
X130750000Y-118000000D03*
X130750000Y-113000000D03*
%TD*%
D15*
%TO.C,SW5*%
X123950000Y-74420000D03*
D16*
X119550000Y-79120000D03*
D17*
X126550000Y-80170000D03*
%TD*%
D15*
%TO.C,SW8*%
X181100000Y-74420000D03*
D16*
X176700000Y-79120000D03*
D17*
X183700000Y-80170000D03*
%TD*%
D19*
%TO.C,J2*%
X148950000Y-126475000D03*
D20*
X151490000Y-126475000D03*
X154030000Y-126475000D03*
X156570000Y-126475000D03*
%TD*%
D15*
%TO.C,SW3*%
X162050000Y-55370000D03*
D16*
X157650000Y-60070000D03*
D17*
X164650000Y-61120000D03*
%TD*%
D15*
%TO.C,SW9*%
X142920000Y-115500000D03*
D16*
X138520000Y-120200000D03*
D17*
X145520000Y-121250000D03*
%TD*%
D24*
%TO.C,U2*%
X191000000Y-103600000D03*
D25*
X188460000Y-103600000D03*
X185920000Y-103600000D03*
X183380000Y-103600000D03*
X180840000Y-103600000D03*
X178300000Y-103600000D03*
X175760000Y-103600000D03*
X175760000Y-86350000D03*
X178300000Y-86350000D03*
X180840000Y-86350000D03*
D26*
X183380000Y-86350000D03*
X185920000Y-86350000D03*
X188460000Y-86350000D03*
X191000000Y-86350000D03*
%TD*%
D18*
%TO.C,MH5*%
X152000000Y-87500000D03*
%TD*%
%LPD*%
M02*
