%TF.GenerationSoftware,KiCad,Pcbnew,8.0.7*%
%TF.CreationDate,2025-02-14T00:11:11-05:00*%
%TF.ProjectId,makropad,6d616b72-6f70-4616-942e-6b696361645f,rev?*%
%TF.SameCoordinates,Original*%
%TF.FileFunction,Other,Comment*%
%FSLAX46Y46*%
G04 Gerber Fmt 4.6, Leading zero omitted, Abs format (unit mm)*
G04 Created by KiCad (PCBNEW 8.0.7) date 2025-02-14 00:11:11*
%MOMM*%
%LPD*%
G01*
G04 APERTURE LIST*
%ADD10C,0.150000*%
%ADD11C,0.120000*%
G04 APERTURE END LIST*
D10*
%TO.C,MH3*%
X118700000Y-124000000D02*
G75*
G02*
X112300000Y-124000000I-3200000J0D01*
G01*
X112300000Y-124000000D02*
G75*
G02*
X118700000Y-124000000I3200000J0D01*
G01*
%TO.C,MH1*%
X118700000Y-47000000D02*
G75*
G02*
X112300000Y-47000000I-3200000J0D01*
G01*
X112300000Y-47000000D02*
G75*
G02*
X118700000Y-47000000I3200000J0D01*
G01*
%TO.C,MH2*%
X192700000Y-47000000D02*
G75*
G02*
X186300000Y-47000000I-3200000J0D01*
G01*
X186300000Y-47000000D02*
G75*
G02*
X192700000Y-47000000I3200000J0D01*
G01*
%TO.C,MH4*%
X192700000Y-124000000D02*
G75*
G02*
X186300000Y-124000000I-3200000J0D01*
G01*
X186300000Y-124000000D02*
G75*
G02*
X192700000Y-124000000I3200000J0D01*
G01*
D11*
%TO.C,D19*%
X159750000Y-67850000D02*
X162950000Y-67850000D01*
X159750000Y-70650000D02*
X159750000Y-67850000D01*
X162950000Y-67850000D02*
X162950000Y-70650000D01*
X162950000Y-70650000D02*
X159750000Y-70650000D01*
%TO.C,D21*%
X140620000Y-108930000D02*
X143820000Y-108930000D01*
X140620000Y-111730000D02*
X140620000Y-108930000D01*
X143820000Y-108930000D02*
X143820000Y-111730000D01*
X143820000Y-111730000D02*
X140620000Y-111730000D01*
%TO.C,D16*%
X178800000Y-48800000D02*
X182000000Y-48800000D01*
X178800000Y-51600000D02*
X178800000Y-48800000D01*
X182000000Y-48800000D02*
X182000000Y-51600000D01*
X182000000Y-51600000D02*
X178800000Y-51600000D01*
%TO.C,D20*%
X178800000Y-67850000D02*
X182000000Y-67850000D01*
X178800000Y-70650000D02*
X178800000Y-67850000D01*
X182000000Y-67850000D02*
X182000000Y-70650000D01*
X182000000Y-70650000D02*
X178800000Y-70650000D01*
%TO.C,D18*%
X140700000Y-67850000D02*
X143900000Y-67850000D01*
X140700000Y-70650000D02*
X140700000Y-67850000D01*
X143900000Y-67850000D02*
X143900000Y-70650000D01*
X143900000Y-70650000D02*
X140700000Y-70650000D01*
%TO.C,D14*%
X140700000Y-48800000D02*
X143900000Y-48800000D01*
X140700000Y-51600000D02*
X140700000Y-48800000D01*
X143900000Y-48800000D02*
X143900000Y-51600000D01*
X143900000Y-51600000D02*
X140700000Y-51600000D01*
%TO.C,D13*%
X121650000Y-48800000D02*
X124850000Y-48800000D01*
X121650000Y-51600000D02*
X121650000Y-48800000D01*
X124850000Y-48800000D02*
X124850000Y-51600000D01*
X124850000Y-51600000D02*
X121650000Y-51600000D01*
%TO.C,D17*%
X121650000Y-67850000D02*
X124850000Y-67850000D01*
X121650000Y-70650000D02*
X121650000Y-67850000D01*
X124850000Y-67850000D02*
X124850000Y-70650000D01*
X124850000Y-70650000D02*
X121650000Y-70650000D01*
%TO.C,D15*%
X159750000Y-48800000D02*
X162950000Y-48800000D01*
X159750000Y-51600000D02*
X159750000Y-48800000D01*
X162950000Y-48800000D02*
X162950000Y-51600000D01*
X162950000Y-51600000D02*
X159750000Y-51600000D01*
%TO.C,D22*%
X159670000Y-108930000D02*
X162870000Y-108930000D01*
X159670000Y-111730000D02*
X159670000Y-108930000D01*
X162870000Y-108930000D02*
X162870000Y-111730000D01*
X162870000Y-111730000D02*
X159670000Y-111730000D01*
D10*
%TO.C,MH5*%
X155200000Y-87500000D02*
G75*
G02*
X148800000Y-87500000I-3200000J0D01*
G01*
X148800000Y-87500000D02*
G75*
G02*
X155200000Y-87500000I3200000J0D01*
G01*
%TD*%
M02*
