%TF.GenerationSoftware,KiCad,Pcbnew,8.0.7*%
%TF.CreationDate,2025-02-14T00:11:11-05:00*%
%TF.ProjectId,makropad,6d616b72-6f70-4616-942e-6b696361645f,rev?*%
%TF.SameCoordinates,Original*%
%TF.FileFunction,Legend,Bot*%
%TF.FilePolarity,Positive*%
%FSLAX46Y46*%
G04 Gerber Fmt 4.6, Leading zero omitted, Abs format (unit mm)*
G04 Created by KiCad (PCBNEW 8.0.7) date 2025-02-14 00:11:11*
%MOMM*%
%LPD*%
G01*
G04 APERTURE LIST*
G04 Aperture macros list*
%AMRoundRect*
0 Rectangle with rounded corners*
0 $1 Rounding radius*
0 $2 $3 $4 $5 $6 $7 $8 $9 X,Y pos of 4 corners*
0 Add a 4 corners polygon primitive as box body*
4,1,4,$2,$3,$4,$5,$6,$7,$8,$9,$2,$3,0*
0 Add four circle primitives for the rounded corners*
1,1,$1+$1,$2,$3*
1,1,$1+$1,$4,$5*
1,1,$1+$1,$6,$7*
1,1,$1+$1,$8,$9*
0 Add four rect primitives between the rounded corners*
20,1,$1+$1,$2,$3,$4,$5,0*
20,1,$1+$1,$4,$5,$6,$7,0*
20,1,$1+$1,$6,$7,$8,$9,0*
20,1,$1+$1,$8,$9,$2,$3,0*%
%AMOutline5P*
0 Free polygon, 5 corners , with rotation*
0 The origin of the aperture is its center*
0 number of corners: always 5*
0 $1 to $10 corner X, Y*
0 $11 Rotation angle, in degrees counterclockwise*
0 create outline with 5 corners*
4,1,5,$1,$2,$3,$4,$5,$6,$7,$8,$9,$10,$1,$2,$11*%
%AMOutline6P*
0 Free polygon, 6 corners , with rotation*
0 The origin of the aperture is its center*
0 number of corners: always 6*
0 $1 to $12 corner X, Y*
0 $13 Rotation angle, in degrees counterclockwise*
0 create outline with 6 corners*
4,1,6,$1,$2,$3,$4,$5,$6,$7,$8,$9,$10,$11,$12,$1,$2,$13*%
%AMOutline7P*
0 Free polygon, 7 corners , with rotation*
0 The origin of the aperture is its center*
0 number of corners: always 7*
0 $1 to $14 corner X, Y*
0 $15 Rotation angle, in degrees counterclockwise*
0 create outline with 7 corners*
4,1,7,$1,$2,$3,$4,$5,$6,$7,$8,$9,$10,$11,$12,$13,$14,$1,$2,$15*%
%AMOutline8P*
0 Free polygon, 8 corners , with rotation*
0 The origin of the aperture is its center*
0 number of corners: always 8*
0 $1 to $16 corner X, Y*
0 $17 Rotation angle, in degrees counterclockwise*
0 create outline with 8 corners*
4,1,8,$1,$2,$3,$4,$5,$6,$7,$8,$9,$10,$11,$12,$13,$14,$15,$16,$1,$2,$17*%
G04 Aperture macros list end*
%ADD10C,0.400000*%
%ADD11C,0.150000*%
%ADD12C,0.101600*%
%ADD13C,0.120000*%
%ADD14C,0.100000*%
%ADD15C,0.152400*%
%ADD16C,0.127000*%
%ADD17C,0.254000*%
%ADD18C,0.025400*%
%ADD19C,5.100000*%
%ADD20O,1.900000X2.450000*%
%ADD21O,2.450000X1.900000*%
%ADD22C,3.200000*%
%ADD23R,1.700000X1.700000*%
%ADD24O,1.700000X1.700000*%
%ADD25R,2.000000X2.000000*%
%ADD26C,2.000000*%
%ADD27R,3.200000X2.000000*%
%ADD28RoundRect,0.225000X0.375000X-0.225000X0.375000X0.225000X-0.375000X0.225000X-0.375000X-0.225000X0*%
%ADD29RoundRect,0.250000X-0.650000X0.325000X-0.650000X-0.325000X0.650000X-0.325000X0.650000X0.325000X0*%
%ADD30RoundRect,0.250000X0.325000X0.650000X-0.325000X0.650000X-0.325000X-0.650000X0.325000X-0.650000X0*%
%ADD31R,1.800000X0.820000*%
%ADD32Outline5P,-0.900000X0.410000X0.900000X0.410000X0.900000X-0.246000X0.736000X-0.410000X-0.900000X-0.410000X180.000000*%
%ADD33RoundRect,0.225000X-0.375000X0.225000X-0.375000X-0.225000X0.375000X-0.225000X0.375000X0.225000X0*%
%ADD34RoundRect,0.250000X0.625000X-0.312500X0.625000X0.312500X-0.625000X0.312500X-0.625000X-0.312500X0*%
%ADD35RoundRect,0.250000X0.650000X-0.325000X0.650000X0.325000X-0.650000X0.325000X-0.650000X-0.325000X0*%
%ADD36RoundRect,0.225000X-0.225000X-0.375000X0.225000X-0.375000X0.225000X0.375000X-0.225000X0.375000X0*%
%ADD37RoundRect,0.102000X-0.901700X-0.266700X0.901700X-0.266700X0.901700X0.266700X-0.901700X0.266700X0*%
%ADD38RoundRect,0.250000X0.312500X0.625000X-0.312500X0.625000X-0.312500X-0.625000X0.312500X-0.625000X0*%
%ADD39R,1.700000X3.500000*%
%ADD40O,1.700000X3.600000*%
%ADD41O,1.700000X3.700000*%
G04 APERTURE END LIST*
D10*
G36*
X158028227Y-95160000D02*
G01*
X158028227Y-94821967D01*
X157389288Y-94179609D01*
X157319800Y-94104956D01*
X157255553Y-94026722D01*
X157196465Y-93939390D01*
X157192428Y-93932435D01*
X157150996Y-93841372D01*
X157129999Y-93741141D01*
X157128436Y-93704801D01*
X157139359Y-93606615D01*
X157179710Y-93514291D01*
X157206106Y-93482051D01*
X157291021Y-93424549D01*
X157392935Y-93402644D01*
X157417620Y-93401939D01*
X157519698Y-93413961D01*
X157610128Y-93454115D01*
X157650139Y-93487424D01*
X157707574Y-93574325D01*
X157732107Y-93677456D01*
X157734159Y-93722875D01*
X158084403Y-93722875D01*
X158076653Y-93617413D01*
X158056153Y-93520298D01*
X158018419Y-93422181D01*
X157998918Y-93385819D01*
X157940433Y-93303273D01*
X157868782Y-93233320D01*
X157783965Y-93175961D01*
X157765422Y-93166001D01*
X157666332Y-93124785D01*
X157568504Y-93100742D01*
X157462484Y-93089064D01*
X157412735Y-93087843D01*
X157308218Y-93093639D01*
X157211738Y-93111027D01*
X157113965Y-93143943D01*
X157077634Y-93161116D01*
X156987190Y-93218140D01*
X156911984Y-93289132D01*
X156856838Y-93365792D01*
X156812062Y-93461903D01*
X156787485Y-93559295D01*
X156778269Y-93666227D01*
X156778192Y-93677445D01*
X156785766Y-93782619D01*
X156808486Y-93886015D01*
X156846353Y-93987634D01*
X156873935Y-94043321D01*
X156928951Y-94133844D01*
X156989211Y-94216106D01*
X157060785Y-94301221D01*
X157131138Y-94376446D01*
X157182658Y-94427759D01*
X157608129Y-94843461D01*
X156750837Y-94843461D01*
X156750837Y-95160000D01*
X158028227Y-95160000D01*
G37*
G36*
X156402547Y-95468234D02*
G01*
X155425087Y-92835785D01*
X155060676Y-92835785D01*
X156038136Y-95468234D01*
X156402547Y-95468234D01*
G37*
G36*
X154117269Y-93089871D02*
G01*
X154224190Y-93103738D01*
X154323074Y-93130743D01*
X154413921Y-93170886D01*
X154432949Y-93181459D01*
X154520075Y-93241938D01*
X154593844Y-93315105D01*
X154654256Y-93400963D01*
X154679024Y-93448327D01*
X154713027Y-93539956D01*
X154733429Y-93639776D01*
X154740230Y-93747787D01*
X154739642Y-93782721D01*
X154730819Y-93882472D01*
X154708598Y-93984424D01*
X154673307Y-94077027D01*
X154625833Y-94158800D01*
X154561268Y-94234536D01*
X154483775Y-94295380D01*
X154403585Y-94336338D01*
X154306450Y-94363871D01*
X154199965Y-94373049D01*
X154178006Y-94372650D01*
X154080980Y-94360228D01*
X153986985Y-94327620D01*
X153901378Y-94272299D01*
X153834089Y-94197194D01*
X153817969Y-94207452D01*
X154421737Y-95160000D01*
X154032414Y-95160000D01*
X153550767Y-94378422D01*
X153539872Y-94360762D01*
X153490088Y-94270230D01*
X153448128Y-94175978D01*
X153413991Y-94078004D01*
X153388489Y-93979438D01*
X153371345Y-93874653D01*
X153365631Y-93773677D01*
X153366607Y-93744368D01*
X153709525Y-93744368D01*
X153715448Y-93822159D01*
X153746543Y-93923734D01*
X153804291Y-94007173D01*
X153862114Y-94055108D01*
X153954117Y-94094618D01*
X154053419Y-94106336D01*
X154127058Y-94100138D01*
X154223320Y-94067600D01*
X154302547Y-94007173D01*
X154348120Y-93946294D01*
X154385684Y-93849253D01*
X154396824Y-93744368D01*
X154390932Y-93667279D01*
X154359997Y-93566643D01*
X154302547Y-93484005D01*
X154244488Y-93436542D01*
X154152290Y-93397421D01*
X154052930Y-93385819D01*
X153979291Y-93391956D01*
X153883029Y-93424173D01*
X153803803Y-93484005D01*
X153758229Y-93544296D01*
X153720665Y-93640433D01*
X153709525Y-93744368D01*
X153366607Y-93744368D01*
X153367742Y-93710265D01*
X153382180Y-93602734D01*
X153410297Y-93503704D01*
X153452093Y-93413175D01*
X153463107Y-93394265D01*
X153526190Y-93307616D01*
X153602631Y-93234133D01*
X153692428Y-93173817D01*
X153752185Y-93144599D01*
X153848841Y-93112107D01*
X153953920Y-93093217D01*
X154054396Y-93087843D01*
X154117269Y-93089871D01*
G37*
G36*
X153045673Y-95468234D02*
G01*
X152068213Y-92835785D01*
X151703803Y-92835785D01*
X152681263Y-95468234D01*
X153045673Y-95468234D01*
G37*
G36*
X151314480Y-95160000D02*
G01*
X151314480Y-94821967D01*
X150675540Y-94179609D01*
X150606053Y-94104956D01*
X150541805Y-94026722D01*
X150482718Y-93939390D01*
X150478681Y-93932435D01*
X150437249Y-93841372D01*
X150416251Y-93741141D01*
X150414689Y-93704801D01*
X150425611Y-93606615D01*
X150465963Y-93514291D01*
X150492358Y-93482051D01*
X150577273Y-93424549D01*
X150679187Y-93402644D01*
X150703872Y-93401939D01*
X150805951Y-93413961D01*
X150896381Y-93454115D01*
X150936392Y-93487424D01*
X150993827Y-93574325D01*
X151018360Y-93677456D01*
X151020411Y-93722875D01*
X151370655Y-93722875D01*
X151362906Y-93617413D01*
X151342405Y-93520298D01*
X151304672Y-93422181D01*
X151285170Y-93385819D01*
X151226686Y-93303273D01*
X151155035Y-93233320D01*
X151070218Y-93175961D01*
X151051674Y-93166001D01*
X150952584Y-93124785D01*
X150854756Y-93100742D01*
X150748737Y-93089064D01*
X150698988Y-93087843D01*
X150594471Y-93093639D01*
X150497991Y-93111027D01*
X150400218Y-93143943D01*
X150363886Y-93161116D01*
X150273442Y-93218140D01*
X150198236Y-93289132D01*
X150143091Y-93365792D01*
X150098315Y-93461903D01*
X150073738Y-93559295D01*
X150064522Y-93666227D01*
X150064445Y-93677445D01*
X150072018Y-93782619D01*
X150094738Y-93886015D01*
X150132606Y-93987634D01*
X150160188Y-94043321D01*
X150215204Y-94133844D01*
X150275464Y-94216106D01*
X150347038Y-94301221D01*
X150417391Y-94376446D01*
X150468911Y-94427759D01*
X150894382Y-94843461D01*
X150037090Y-94843461D01*
X150037090Y-95160000D01*
X151314480Y-95160000D01*
G37*
G36*
X149061529Y-93949115D02*
G01*
X149151465Y-93995450D01*
X149178255Y-94030092D01*
X149202267Y-94128806D01*
X149197306Y-94179248D01*
X149151465Y-94267048D01*
X149112451Y-94296806D01*
X149017131Y-94319316D01*
X148973245Y-94315181D01*
X148884263Y-94267048D01*
X148855340Y-94227131D01*
X148833461Y-94128806D01*
X148837441Y-94084920D01*
X148883775Y-93995938D01*
X148918417Y-93969148D01*
X149017131Y-93945136D01*
X149061529Y-93949115D01*
G37*
G36*
X149066644Y-93089026D02*
G01*
X149169989Y-93100339D01*
X149265219Y-93123630D01*
X149361514Y-93163558D01*
X149446312Y-93216891D01*
X149524603Y-93289442D01*
X149587194Y-93376538D01*
X149601424Y-93402604D01*
X149638747Y-93495569D01*
X149660519Y-93597884D01*
X149666817Y-93697962D01*
X149666817Y-94577725D01*
X149666118Y-94611842D01*
X149655620Y-94709249D01*
X149629183Y-94808778D01*
X149587194Y-94899148D01*
X149524383Y-94986245D01*
X149446102Y-95058795D01*
X149361514Y-95112128D01*
X149324183Y-95129874D01*
X149223709Y-95163886D01*
X149124555Y-95181854D01*
X149017131Y-95187843D01*
X148968382Y-95186660D01*
X148864780Y-95175347D01*
X148769601Y-95152056D01*
X148673726Y-95112128D01*
X148589443Y-95058795D01*
X148511498Y-94986245D01*
X148449023Y-94899148D01*
X148434706Y-94872999D01*
X148397153Y-94779881D01*
X148375248Y-94677605D01*
X148368911Y-94577725D01*
X148368911Y-93697962D01*
X148699616Y-93697962D01*
X148699616Y-94577725D01*
X148701715Y-94620023D01*
X148726818Y-94717275D01*
X148785589Y-94801451D01*
X148825887Y-94834189D01*
X148916106Y-94873655D01*
X149017131Y-94885471D01*
X149061191Y-94883419D01*
X149162349Y-94858886D01*
X149249651Y-94801451D01*
X149279034Y-94767986D01*
X149323954Y-94674674D01*
X149336113Y-94577725D01*
X149336113Y-93697962D01*
X149334026Y-93655804D01*
X149309065Y-93558806D01*
X149250628Y-93474724D01*
X149210092Y-93441795D01*
X149119309Y-93402100D01*
X149017620Y-93390216D01*
X148973315Y-93392279D01*
X148872076Y-93416955D01*
X148785589Y-93474724D01*
X148760821Y-93502328D01*
X148713805Y-93593957D01*
X148699616Y-93697962D01*
X148368911Y-93697962D01*
X148369611Y-93663761D01*
X148380108Y-93566208D01*
X148406545Y-93466698D01*
X148448534Y-93376538D01*
X148510952Y-93289442D01*
X148588724Y-93216891D01*
X148672749Y-93163558D01*
X148709775Y-93145813D01*
X148810019Y-93111800D01*
X148909620Y-93093832D01*
X149018108Y-93087843D01*
X149066644Y-93089026D01*
G37*
G36*
X147957606Y-95160000D02*
G01*
X147957606Y-94821967D01*
X147318667Y-94179609D01*
X147249179Y-94104956D01*
X147184932Y-94026722D01*
X147125844Y-93939390D01*
X147121807Y-93932435D01*
X147080375Y-93841372D01*
X147059378Y-93741141D01*
X147057815Y-93704801D01*
X147068738Y-93606615D01*
X147109089Y-93514291D01*
X147135484Y-93482051D01*
X147220399Y-93424549D01*
X147322314Y-93402644D01*
X147346999Y-93401939D01*
X147449077Y-93413961D01*
X147539507Y-93454115D01*
X147579518Y-93487424D01*
X147636953Y-93574325D01*
X147661486Y-93677456D01*
X147663538Y-93722875D01*
X148013782Y-93722875D01*
X148006032Y-93617413D01*
X147985532Y-93520298D01*
X147947798Y-93422181D01*
X147928297Y-93385819D01*
X147869812Y-93303273D01*
X147798161Y-93233320D01*
X147713344Y-93175961D01*
X147694801Y-93166001D01*
X147595711Y-93124785D01*
X147497883Y-93100742D01*
X147391863Y-93089064D01*
X147342114Y-93087843D01*
X147237597Y-93093639D01*
X147141117Y-93111027D01*
X147043344Y-93143943D01*
X147007013Y-93161116D01*
X146916568Y-93218140D01*
X146841363Y-93289132D01*
X146786217Y-93365792D01*
X146741441Y-93461903D01*
X146716864Y-93559295D01*
X146707648Y-93666227D01*
X146707571Y-93677445D01*
X146715144Y-93782619D01*
X146737865Y-93886015D01*
X146775732Y-93987634D01*
X146803314Y-94043321D01*
X146858330Y-94133844D01*
X146918590Y-94216106D01*
X146990164Y-94301221D01*
X147060517Y-94376446D01*
X147112037Y-94427759D01*
X147537508Y-94843461D01*
X146680216Y-94843461D01*
X146680216Y-95160000D01*
X147957606Y-95160000D01*
G37*
G36*
X145665143Y-95187843D02*
G01*
X145766940Y-95182863D01*
X145875850Y-95164464D01*
X145974148Y-95132507D01*
X146061833Y-95086993D01*
X146117969Y-95046182D01*
X146193715Y-94968910D01*
X146249982Y-94879242D01*
X146286771Y-94777179D01*
X146302983Y-94677706D01*
X146304082Y-94662721D01*
X145953838Y-94662721D01*
X145925503Y-94760174D01*
X145869818Y-94824410D01*
X145780669Y-94867641D01*
X145679824Y-94881826D01*
X145663677Y-94882051D01*
X145564690Y-94871335D01*
X145474036Y-94831745D01*
X145443370Y-94805847D01*
X145389374Y-94720639D01*
X145368804Y-94617095D01*
X145368143Y-94591891D01*
X145368143Y-94393077D01*
X145380397Y-94290604D01*
X145424991Y-94198812D01*
X145442393Y-94179120D01*
X145527780Y-94125475D01*
X145627308Y-94105550D01*
X145662700Y-94104382D01*
X145760588Y-94117125D01*
X145818039Y-94140530D01*
X145895478Y-94206877D01*
X145916713Y-94240669D01*
X146258653Y-94240669D01*
X146244487Y-93116175D01*
X145092637Y-93116175D01*
X145092637Y-93432226D01*
X145912316Y-93432226D01*
X145919155Y-94026224D01*
X145836113Y-94026224D01*
X145921109Y-94097055D01*
X145904340Y-94000591D01*
X145848775Y-93917082D01*
X145819504Y-93892379D01*
X145732973Y-93846835D01*
X145636154Y-93823553D01*
X145544487Y-93817641D01*
X145440776Y-93824530D01*
X145335187Y-93850320D01*
X145243397Y-93895223D01*
X145165407Y-93959237D01*
X145156629Y-93968583D01*
X145095935Y-94052083D01*
X145052581Y-94150666D01*
X145028873Y-94249298D01*
X145018441Y-94359476D01*
X145017899Y-94393077D01*
X145017899Y-94591891D01*
X145023927Y-94691467D01*
X145046196Y-94797265D01*
X145084875Y-94891890D01*
X145139963Y-94975341D01*
X145189357Y-95028108D01*
X145270562Y-95090349D01*
X145364575Y-95137302D01*
X145471398Y-95168968D01*
X145573156Y-95183943D01*
X145665143Y-95187843D01*
G37*
G36*
X169285066Y-91660000D02*
G01*
X168943126Y-91660000D01*
X168943126Y-91365931D01*
X168935068Y-91365931D01*
X168929965Y-91404903D01*
X168895161Y-91497562D01*
X168831751Y-91580865D01*
X168817461Y-91593819D01*
X168727883Y-91650129D01*
X168630319Y-91679381D01*
X168529378Y-91687843D01*
X168418920Y-91677921D01*
X168320062Y-91648154D01*
X168232807Y-91598542D01*
X168157152Y-91529085D01*
X168124294Y-91487633D01*
X168071721Y-91394149D01*
X168040095Y-91300780D01*
X168021886Y-91196612D01*
X168016957Y-91098729D01*
X168016957Y-90696217D01*
X168367201Y-90696217D01*
X168367201Y-91083586D01*
X168368377Y-91118696D01*
X168388432Y-91218466D01*
X168442428Y-91306336D01*
X168462173Y-91324654D01*
X168552942Y-91371594D01*
X168652965Y-91384494D01*
X168677027Y-91383798D01*
X168776483Y-91362160D01*
X168859595Y-91305359D01*
X168885160Y-91273451D01*
X168924243Y-91181635D01*
X168934822Y-91083586D01*
X168934822Y-90696217D01*
X168933646Y-90661664D01*
X168913591Y-90562968D01*
X168859595Y-90474933D01*
X168839803Y-90456386D01*
X168750223Y-90408859D01*
X168652965Y-90395799D01*
X168628123Y-90396485D01*
X168526155Y-90417857D01*
X168442428Y-90473956D01*
X168416863Y-90505435D01*
X168377780Y-90597184D01*
X168367201Y-90696217D01*
X168016957Y-90696217D01*
X168016957Y-90682540D01*
X168017505Y-90649086D01*
X168028047Y-90538850D01*
X168052006Y-90439274D01*
X168095817Y-90338524D01*
X168157152Y-90251695D01*
X168232807Y-90181811D01*
X168320062Y-90131894D01*
X168418920Y-90101944D01*
X168529378Y-90091960D01*
X168552709Y-90092382D01*
X168650284Y-90104717D01*
X168744470Y-90138453D01*
X168830774Y-90199916D01*
X168844379Y-90213666D01*
X168903517Y-90300615D01*
X168934239Y-90396290D01*
X168935807Y-90413872D01*
X168945080Y-90413872D01*
X168934822Y-90047508D01*
X168934822Y-89616175D01*
X169285066Y-89616175D01*
X169285066Y-91660000D01*
G37*
G36*
X166995535Y-90092462D02*
G01*
X167104352Y-90102123D01*
X167204239Y-90124078D01*
X167307462Y-90164226D01*
X167399023Y-90220432D01*
X167475593Y-90290072D01*
X167533845Y-90371008D01*
X167573778Y-90463240D01*
X167595394Y-90566769D01*
X167253454Y-90566769D01*
X167231705Y-90502565D01*
X167163084Y-90430481D01*
X167071502Y-90391222D01*
X166973063Y-90380167D01*
X166957401Y-90380415D01*
X166859734Y-90396043D01*
X166773761Y-90443670D01*
X166719539Y-90518775D01*
X166701465Y-90618060D01*
X166701465Y-90749462D01*
X167085415Y-90749462D01*
X167119431Y-90749947D01*
X167230886Y-90759277D01*
X167330512Y-90780481D01*
X167429889Y-90819255D01*
X167513817Y-90873538D01*
X167573012Y-90932492D01*
X167627756Y-91022648D01*
X167656241Y-91116345D01*
X167665736Y-91222805D01*
X167662385Y-91287648D01*
X167639462Y-91393428D01*
X167594825Y-91485142D01*
X167528471Y-91562791D01*
X167453367Y-91617501D01*
X167353985Y-91660366D01*
X167252410Y-91681859D01*
X167153314Y-91687843D01*
X167114577Y-91686963D01*
X167007226Y-91673761D01*
X166903538Y-91640512D01*
X166816259Y-91587704D01*
X166743950Y-91510373D01*
X166701656Y-91416071D01*
X166698481Y-91390355D01*
X166690718Y-91390355D01*
X166690718Y-91660000D01*
X166351221Y-91660000D01*
X166351221Y-91153928D01*
X166701465Y-91153928D01*
X166702294Y-91176069D01*
X166731295Y-91275052D01*
X166795743Y-91349811D01*
X166839323Y-91379313D01*
X166933778Y-91414879D01*
X167036566Y-91425526D01*
X167052709Y-91425280D01*
X167153314Y-91409773D01*
X167241730Y-91362512D01*
X167297051Y-91288018D01*
X167315491Y-91190565D01*
X167304850Y-91114386D01*
X167251011Y-91027411D01*
X167175296Y-90981615D01*
X167078087Y-90966350D01*
X166701465Y-90966350D01*
X166701465Y-91153928D01*
X166351221Y-91153928D01*
X166351221Y-90614640D01*
X166351381Y-90599746D01*
X166361509Y-90500884D01*
X166392376Y-90399462D01*
X166443819Y-90310375D01*
X166515840Y-90233621D01*
X166558835Y-90200420D01*
X166655860Y-90147297D01*
X166752829Y-90115340D01*
X166861064Y-90096941D01*
X166962805Y-90091960D01*
X166995535Y-90092462D01*
G37*
G36*
X165028401Y-90047508D02*
G01*
X165018143Y-90413872D01*
X165028719Y-90413872D01*
X165033315Y-90375888D01*
X165068273Y-90283381D01*
X165131960Y-90199916D01*
X165146191Y-90186843D01*
X165235513Y-90130019D01*
X165332943Y-90100500D01*
X165433845Y-90091960D01*
X165544120Y-90101944D01*
X165642916Y-90131894D01*
X165730233Y-90181811D01*
X165806071Y-90251695D01*
X165838929Y-90293369D01*
X165891502Y-90387158D01*
X165923128Y-90480644D01*
X165941337Y-90584789D01*
X165946266Y-90682540D01*
X165946266Y-91098729D01*
X165945717Y-91132238D01*
X165935138Y-91242578D01*
X165911095Y-91342117D01*
X165867131Y-91442654D01*
X165805582Y-91529085D01*
X165729592Y-91598542D01*
X165642306Y-91648154D01*
X165543723Y-91677921D01*
X165433845Y-91687843D01*
X165410340Y-91687425D01*
X165312220Y-91675202D01*
X165217881Y-91641771D01*
X165131960Y-91580865D01*
X165118414Y-91567170D01*
X165059533Y-91480320D01*
X165028946Y-91384436D01*
X165027310Y-91365931D01*
X165020097Y-91365931D01*
X165020097Y-91660000D01*
X164678157Y-91660000D01*
X164678157Y-90696217D01*
X165028401Y-90696217D01*
X165028401Y-91083586D01*
X165029577Y-91118254D01*
X165049632Y-91217217D01*
X165103628Y-91305359D01*
X165123206Y-91323906D01*
X165212529Y-91371433D01*
X165310258Y-91384494D01*
X165335100Y-91383807D01*
X165437068Y-91362435D01*
X165520795Y-91306336D01*
X165546360Y-91274691D01*
X165585443Y-91182688D01*
X165596022Y-91083586D01*
X165596022Y-90696217D01*
X165594846Y-90661115D01*
X165574791Y-90561476D01*
X165520795Y-90473956D01*
X165501050Y-90455638D01*
X165410281Y-90408698D01*
X165310258Y-90395799D01*
X165286030Y-90396494D01*
X165186253Y-90418132D01*
X165103628Y-90474933D01*
X165078063Y-90506824D01*
X165038980Y-90598467D01*
X165028401Y-90696217D01*
X164678157Y-90696217D01*
X164678157Y-89616175D01*
X165028401Y-89616175D01*
X165028401Y-90047508D01*
G37*
G36*
X164249755Y-91660000D02*
G01*
X163907815Y-91660000D01*
X163907815Y-91365931D01*
X163899758Y-91365931D01*
X163894655Y-91404903D01*
X163859850Y-91497562D01*
X163796441Y-91580865D01*
X163782150Y-91593819D01*
X163692572Y-91650129D01*
X163595008Y-91679381D01*
X163494068Y-91687843D01*
X163383609Y-91677921D01*
X163284752Y-91648154D01*
X163197496Y-91598542D01*
X163121842Y-91529085D01*
X163088983Y-91487633D01*
X163036410Y-91394149D01*
X163004784Y-91300780D01*
X162986575Y-91196612D01*
X162981646Y-91098729D01*
X162981646Y-90696217D01*
X163331891Y-90696217D01*
X163331891Y-91083586D01*
X163333066Y-91118696D01*
X163353122Y-91218466D01*
X163407117Y-91306336D01*
X163426863Y-91324654D01*
X163517631Y-91371594D01*
X163617655Y-91384494D01*
X163641716Y-91383798D01*
X163741172Y-91362160D01*
X163824284Y-91305359D01*
X163849850Y-91273451D01*
X163888932Y-91181635D01*
X163899511Y-91083586D01*
X163899511Y-90696217D01*
X163898336Y-90661664D01*
X163878280Y-90562968D01*
X163824284Y-90474933D01*
X163804493Y-90456386D01*
X163714913Y-90408859D01*
X163617655Y-90395799D01*
X163592812Y-90396485D01*
X163490845Y-90417857D01*
X163407117Y-90473956D01*
X163381552Y-90505435D01*
X163342469Y-90597184D01*
X163331891Y-90696217D01*
X162981646Y-90696217D01*
X162981646Y-90682540D01*
X162982194Y-90649086D01*
X162992736Y-90538850D01*
X163016695Y-90439274D01*
X163060506Y-90338524D01*
X163121842Y-90251695D01*
X163197496Y-90181811D01*
X163284752Y-90131894D01*
X163383609Y-90101944D01*
X163494068Y-90091960D01*
X163517399Y-90092382D01*
X163614973Y-90104717D01*
X163709159Y-90138453D01*
X163795464Y-90199916D01*
X163809069Y-90213666D01*
X163868207Y-90300615D01*
X163898928Y-90396290D01*
X163900496Y-90413872D01*
X163909769Y-90413872D01*
X163899511Y-90047508D01*
X163899511Y-89616175D01*
X164249755Y-89616175D01*
X164249755Y-91660000D01*
G37*
G36*
X162572784Y-91660000D02*
G01*
X162572784Y-91341995D01*
X162034961Y-91341995D01*
X162034961Y-90436343D01*
X162502930Y-90436343D01*
X162502930Y-90119804D01*
X161701325Y-90119804D01*
X161701325Y-91341995D01*
X161224075Y-91341995D01*
X161224075Y-91660000D01*
X162572784Y-91660000D01*
G37*
G36*
X161895743Y-89862372D02*
G01*
X161995718Y-89847069D01*
X162063782Y-89808150D01*
X162117095Y-89725489D01*
X162125819Y-89661605D01*
X162103949Y-89564007D01*
X162063782Y-89513105D01*
X161974377Y-89467424D01*
X161895743Y-89458394D01*
X161795905Y-89473835D01*
X161728192Y-89513105D01*
X161674878Y-89596758D01*
X161666154Y-89661605D01*
X161688025Y-89757807D01*
X161728192Y-89808150D01*
X161817189Y-89853423D01*
X161895743Y-89862372D01*
G37*
G36*
X160844521Y-91660000D02*
G01*
X160844521Y-90119804D01*
X160512840Y-90119804D01*
X160512840Y-90413872D01*
X160426378Y-90413872D01*
X160530425Y-90594612D01*
X160525072Y-90491296D01*
X160505846Y-90387645D01*
X160467502Y-90289431D01*
X160418562Y-90218478D01*
X160338296Y-90151760D01*
X160248355Y-90112841D01*
X160141644Y-90093937D01*
X160088834Y-90091960D01*
X159984556Y-90099300D01*
X159877974Y-90125663D01*
X159784826Y-90171199D01*
X159705111Y-90235908D01*
X159696092Y-90245345D01*
X159633688Y-90329456D01*
X159589113Y-90428405D01*
X159564737Y-90527157D01*
X159554011Y-90637269D01*
X159553454Y-90670816D01*
X159553454Y-90782679D01*
X159920307Y-90782679D01*
X159920307Y-90696217D01*
X159931091Y-90594024D01*
X159970935Y-90498936D01*
X159996999Y-90466140D01*
X160081670Y-90407937D01*
X160183745Y-90385765D01*
X160208513Y-90385052D01*
X160309089Y-90398515D01*
X160399893Y-90447509D01*
X160419539Y-90466629D01*
X160470630Y-90550725D01*
X160492453Y-90651586D01*
X160494277Y-90696217D01*
X160494277Y-91660000D01*
X160844521Y-91660000D01*
G37*
G36*
X158314654Y-90047508D02*
G01*
X158304396Y-90413872D01*
X158314972Y-90413872D01*
X158319568Y-90375888D01*
X158354525Y-90283381D01*
X158418213Y-90199916D01*
X158432444Y-90186843D01*
X158521765Y-90130019D01*
X158619195Y-90100500D01*
X158720097Y-90091960D01*
X158830373Y-90101944D01*
X158929169Y-90131894D01*
X159016486Y-90181811D01*
X159092323Y-90251695D01*
X159125182Y-90293369D01*
X159177755Y-90387158D01*
X159209381Y-90480644D01*
X159227590Y-90584789D01*
X159232519Y-90682540D01*
X159232519Y-91098729D01*
X159231969Y-91132238D01*
X159221390Y-91242578D01*
X159197348Y-91342117D01*
X159153384Y-91442654D01*
X159091835Y-91529085D01*
X159015845Y-91598542D01*
X158928558Y-91648154D01*
X158829976Y-91677921D01*
X158720097Y-91687843D01*
X158696593Y-91687425D01*
X158598473Y-91675202D01*
X158504134Y-91641771D01*
X158418213Y-91580865D01*
X158404667Y-91567170D01*
X158345786Y-91480320D01*
X158315198Y-91384436D01*
X158313562Y-91365931D01*
X158306350Y-91365931D01*
X158306350Y-91660000D01*
X157964410Y-91660000D01*
X157964410Y-90696217D01*
X158314654Y-90696217D01*
X158314654Y-91083586D01*
X158315829Y-91118254D01*
X158335885Y-91217217D01*
X158389881Y-91305359D01*
X158409458Y-91323906D01*
X158498781Y-91371433D01*
X158596510Y-91384494D01*
X158621353Y-91383807D01*
X158723321Y-91362435D01*
X158807048Y-91306336D01*
X158832613Y-91274691D01*
X158871696Y-91182688D01*
X158882274Y-91083586D01*
X158882274Y-90696217D01*
X158881099Y-90661115D01*
X158861043Y-90561476D01*
X158807048Y-90473956D01*
X158787302Y-90455638D01*
X158696534Y-90408698D01*
X158596510Y-90395799D01*
X158572283Y-90396494D01*
X158472506Y-90418132D01*
X158389881Y-90474933D01*
X158364316Y-90506824D01*
X158325233Y-90598467D01*
X158314654Y-90696217D01*
X157964410Y-90696217D01*
X157964410Y-89616175D01*
X158314654Y-89616175D01*
X158314654Y-90047508D01*
G37*
G36*
X156910746Y-91687843D02*
G01*
X157012319Y-91672387D01*
X157097239Y-91621829D01*
X157101744Y-91617501D01*
X157155233Y-91534825D01*
X157172993Y-91435799D01*
X157173063Y-91428457D01*
X157159412Y-91331418D01*
X157110380Y-91244560D01*
X157101744Y-91235505D01*
X157018335Y-91182016D01*
X156918179Y-91164256D01*
X156910746Y-91164187D01*
X156808336Y-91179857D01*
X156723706Y-91231118D01*
X156719260Y-91235505D01*
X156666503Y-91319159D01*
X156648987Y-91420875D01*
X156648918Y-91428457D01*
X156664374Y-91528871D01*
X156714932Y-91613028D01*
X156719260Y-91617501D01*
X156802302Y-91670258D01*
X156903224Y-91687774D01*
X156910746Y-91687843D01*
G37*
G36*
X154957780Y-90047508D02*
G01*
X154947522Y-90413872D01*
X154958098Y-90413872D01*
X154962694Y-90375888D01*
X154997652Y-90283381D01*
X155061339Y-90199916D01*
X155075570Y-90186843D01*
X155164892Y-90130019D01*
X155262322Y-90100500D01*
X155363224Y-90091960D01*
X155473499Y-90101944D01*
X155572295Y-90131894D01*
X155659612Y-90181811D01*
X155735450Y-90251695D01*
X155768308Y-90293369D01*
X155820881Y-90387158D01*
X155852507Y-90480644D01*
X155870716Y-90584789D01*
X155875645Y-90682540D01*
X155875645Y-91098729D01*
X155875095Y-91132238D01*
X155864517Y-91242578D01*
X155840474Y-91342117D01*
X155796510Y-91442654D01*
X155734961Y-91529085D01*
X155658971Y-91598542D01*
X155571685Y-91648154D01*
X155473102Y-91677921D01*
X155363224Y-91687843D01*
X155339719Y-91687425D01*
X155241599Y-91675202D01*
X155147260Y-91641771D01*
X155061339Y-91580865D01*
X155047793Y-91567170D01*
X154988912Y-91480320D01*
X154958325Y-91384436D01*
X154956689Y-91365931D01*
X154949476Y-91365931D01*
X154949476Y-91660000D01*
X154607536Y-91660000D01*
X154607536Y-90696217D01*
X154957780Y-90696217D01*
X154957780Y-91083586D01*
X154958956Y-91118254D01*
X154979011Y-91217217D01*
X155033007Y-91305359D01*
X155052585Y-91323906D01*
X155141908Y-91371433D01*
X155239637Y-91384494D01*
X155264479Y-91383807D01*
X155366447Y-91362435D01*
X155450174Y-91306336D01*
X155475739Y-91274691D01*
X155514822Y-91182688D01*
X155525401Y-91083586D01*
X155525401Y-90696217D01*
X155524225Y-90661115D01*
X155504170Y-90561476D01*
X155450174Y-90473956D01*
X155430428Y-90455638D01*
X155339660Y-90408698D01*
X155239637Y-90395799D01*
X155215409Y-90396494D01*
X155115632Y-90418132D01*
X155033007Y-90474933D01*
X155007442Y-90506824D01*
X154968359Y-90598467D01*
X154957780Y-90696217D01*
X154607536Y-90696217D01*
X154607536Y-89616175D01*
X154957780Y-89616175D01*
X154957780Y-90047508D01*
G37*
G36*
X153588523Y-90092622D02*
G01*
X153691717Y-90102539D01*
X153797314Y-90127517D01*
X153893370Y-90167187D01*
X153977863Y-90220119D01*
X154055818Y-90292009D01*
X154118073Y-90378213D01*
X154132216Y-90404083D01*
X154169310Y-90496209D01*
X154190948Y-90597398D01*
X154197208Y-90696217D01*
X154197208Y-91083586D01*
X154196899Y-91106064D01*
X154186080Y-91213188D01*
X154159805Y-91311534D01*
X154118073Y-91401102D01*
X154055818Y-91487585D01*
X153977863Y-91559637D01*
X153893370Y-91612616D01*
X153856092Y-91630248D01*
X153756220Y-91664041D01*
X153658178Y-91681893D01*
X153552407Y-91687843D01*
X153537062Y-91687727D01*
X153433736Y-91680424D01*
X153324406Y-91658168D01*
X153224419Y-91621073D01*
X153133775Y-91569141D01*
X153073783Y-91521663D01*
X153001311Y-91440012D01*
X152949860Y-91345842D01*
X152921772Y-91251625D01*
X153267131Y-91251625D01*
X153286799Y-91300474D01*
X153358967Y-91370327D01*
X153448602Y-91402344D01*
X153548988Y-91411360D01*
X153594979Y-91409321D01*
X153697812Y-91384931D01*
X153781507Y-91327829D01*
X153816128Y-91281240D01*
X153851291Y-91184956D01*
X153860642Y-91083586D01*
X153860642Y-90972700D01*
X152911025Y-90972700D01*
X152911025Y-90696217D01*
X152911065Y-90693286D01*
X153247592Y-90693286D01*
X153247592Y-90751547D01*
X153860642Y-90754836D01*
X153860642Y-90696217D01*
X153857877Y-90639225D01*
X153835757Y-90540490D01*
X153781995Y-90450997D01*
X153749961Y-90421448D01*
X153655447Y-90376274D01*
X153552407Y-90364047D01*
X153506640Y-90366122D01*
X153405060Y-90390940D01*
X153323796Y-90449043D01*
X153290457Y-90496182D01*
X153256597Y-90592578D01*
X153247592Y-90693286D01*
X152911065Y-90693286D01*
X152911334Y-90673623D01*
X152922154Y-90566089D01*
X152948429Y-90467619D01*
X152990160Y-90378213D01*
X153052242Y-90292009D01*
X153129678Y-90220119D01*
X153213398Y-90167187D01*
X153250218Y-90149556D01*
X153349212Y-90115763D01*
X153446791Y-90097911D01*
X153552407Y-90091960D01*
X153588523Y-90092622D01*
G37*
G36*
X152098674Y-91660000D02*
G01*
X152607676Y-90119804D01*
X152246685Y-90119804D01*
X151954082Y-91056231D01*
X151925729Y-91152453D01*
X151904745Y-91229644D01*
X151880206Y-91327074D01*
X151870062Y-91371793D01*
X151845409Y-91277029D01*
X151833426Y-91229644D01*
X151807597Y-91131240D01*
X151787508Y-91057697D01*
X151500279Y-90119804D01*
X151143684Y-90119804D01*
X151649267Y-91660000D01*
X152098674Y-91660000D01*
G37*
G36*
X150868178Y-91968234D02*
G01*
X149890718Y-89335785D01*
X149526308Y-89335785D01*
X150503768Y-91968234D01*
X150868178Y-91968234D01*
G37*
G36*
X149213189Y-91660000D02*
G01*
X149213189Y-90119804D01*
X148928401Y-90119804D01*
X148928401Y-90327899D01*
X148867829Y-90327899D01*
X148915212Y-90378702D01*
X148903281Y-90281357D01*
X148859861Y-90190474D01*
X148842916Y-90170118D01*
X148759752Y-90111500D01*
X148662930Y-90092037D01*
X148655826Y-90091960D01*
X148557919Y-90111128D01*
X148476675Y-90174204D01*
X148463363Y-90192100D01*
X148419085Y-90285314D01*
X148399249Y-90382701D01*
X148394975Y-90464187D01*
X148456036Y-90327899D01*
X148361270Y-90327899D01*
X148397906Y-90378702D01*
X148386055Y-90281357D01*
X148342928Y-90190474D01*
X148326099Y-90170118D01*
X148241591Y-90111500D01*
X148140182Y-90092037D01*
X148132658Y-90091960D01*
X148034221Y-90107004D01*
X147946030Y-90157255D01*
X147906489Y-90198939D01*
X147855290Y-90289248D01*
X147829116Y-90390376D01*
X147822470Y-90486168D01*
X147822470Y-91660000D01*
X148130216Y-91660000D01*
X148130216Y-90501311D01*
X148148900Y-90405049D01*
X148163433Y-90381632D01*
X148252763Y-90339300D01*
X148260642Y-90339134D01*
X148352977Y-90376057D01*
X148357362Y-90381144D01*
X148390721Y-90477074D01*
X148391556Y-90500334D01*
X148391556Y-91660000D01*
X148644103Y-91660000D01*
X148644103Y-90501311D01*
X148663612Y-90404408D01*
X148678785Y-90381144D01*
X148768659Y-90339298D01*
X148776482Y-90339134D01*
X148868503Y-90376057D01*
X148872714Y-90381144D01*
X148904644Y-90477074D01*
X148905443Y-90500334D01*
X148905443Y-91660000D01*
X149213189Y-91660000D01*
G37*
G36*
X146854293Y-90092462D02*
G01*
X146963109Y-90102123D01*
X147062997Y-90124078D01*
X147166220Y-90164226D01*
X147257780Y-90220432D01*
X147334351Y-90290072D01*
X147392602Y-90371008D01*
X147432536Y-90463240D01*
X147454152Y-90566769D01*
X147112212Y-90566769D01*
X147090463Y-90502565D01*
X147021842Y-90430481D01*
X146930260Y-90391222D01*
X146831821Y-90380167D01*
X146816159Y-90380415D01*
X146718492Y-90396043D01*
X146632519Y-90443670D01*
X146578297Y-90518775D01*
X146560223Y-90618060D01*
X146560223Y-90749462D01*
X146944173Y-90749462D01*
X146978189Y-90749947D01*
X147089644Y-90759277D01*
X147189270Y-90780481D01*
X147288647Y-90819255D01*
X147372575Y-90873538D01*
X147431770Y-90932492D01*
X147486514Y-91022648D01*
X147514999Y-91116345D01*
X147524494Y-91222805D01*
X147521142Y-91287648D01*
X147498220Y-91393428D01*
X147453583Y-91485142D01*
X147387229Y-91562791D01*
X147312124Y-91617501D01*
X147212742Y-91660366D01*
X147111168Y-91681859D01*
X147012072Y-91687843D01*
X146973335Y-91686963D01*
X146865984Y-91673761D01*
X146762296Y-91640512D01*
X146675017Y-91587704D01*
X146602708Y-91510373D01*
X146560414Y-91416071D01*
X146557239Y-91390355D01*
X146549476Y-91390355D01*
X146549476Y-91660000D01*
X146209979Y-91660000D01*
X146209979Y-91153928D01*
X146560223Y-91153928D01*
X146561051Y-91176069D01*
X146590053Y-91275052D01*
X146654501Y-91349811D01*
X146698081Y-91379313D01*
X146792536Y-91414879D01*
X146895324Y-91425526D01*
X146911467Y-91425280D01*
X147012072Y-91409773D01*
X147100488Y-91362512D01*
X147155809Y-91288018D01*
X147174249Y-91190565D01*
X147163608Y-91114386D01*
X147109769Y-91027411D01*
X147034054Y-90981615D01*
X146936845Y-90966350D01*
X146560223Y-90966350D01*
X146560223Y-91153928D01*
X146209979Y-91153928D01*
X146209979Y-90614640D01*
X146210139Y-90599746D01*
X146220267Y-90500884D01*
X146251133Y-90399462D01*
X146302577Y-90310375D01*
X146374598Y-90233621D01*
X146417593Y-90200420D01*
X146514618Y-90147297D01*
X146611587Y-90115340D01*
X146719822Y-90096941D01*
X146821563Y-90091960D01*
X146854293Y-90092462D01*
G37*
G36*
X145778646Y-91660000D02*
G01*
X145778646Y-89616175D01*
X145428401Y-89616175D01*
X145428401Y-90724549D01*
X145183670Y-90724549D01*
X144809490Y-90119804D01*
X144416259Y-90119804D01*
X144881786Y-90865233D01*
X144407955Y-91660000D01*
X144808513Y-91660000D01*
X145184159Y-91021549D01*
X145428401Y-91021549D01*
X145428401Y-91660000D01*
X145778646Y-91660000D01*
G37*
G36*
X144060153Y-91660000D02*
G01*
X144060153Y-90119804D01*
X143728471Y-90119804D01*
X143728471Y-90413872D01*
X143642009Y-90413872D01*
X143746057Y-90594612D01*
X143740704Y-90491296D01*
X143721477Y-90387645D01*
X143683134Y-90289431D01*
X143634193Y-90218478D01*
X143553927Y-90151760D01*
X143463986Y-90112841D01*
X143357276Y-90093937D01*
X143304466Y-90091960D01*
X143200187Y-90099300D01*
X143093606Y-90125663D01*
X143000458Y-90171199D01*
X142920743Y-90235908D01*
X142911723Y-90245345D01*
X142849319Y-90329456D01*
X142804745Y-90428405D01*
X142780368Y-90527157D01*
X142769643Y-90637269D01*
X142769085Y-90670816D01*
X142769085Y-90782679D01*
X143135938Y-90782679D01*
X143135938Y-90696217D01*
X143146723Y-90594024D01*
X143186567Y-90498936D01*
X143212630Y-90466140D01*
X143297302Y-90407937D01*
X143399376Y-90385765D01*
X143424145Y-90385052D01*
X143524720Y-90398515D01*
X143615524Y-90447509D01*
X143635170Y-90466629D01*
X143686261Y-90550725D01*
X143708084Y-90651586D01*
X143709909Y-90696217D01*
X143709909Y-91660000D01*
X144060153Y-91660000D01*
G37*
G36*
X141841179Y-90095055D02*
G01*
X141944812Y-90104844D01*
X142050351Y-90129497D01*
X142145778Y-90168653D01*
X142229498Y-90220812D01*
X142306934Y-90292182D01*
X142369016Y-90378213D01*
X142383158Y-90404105D01*
X142420252Y-90496612D01*
X142441891Y-90598659D01*
X142448150Y-90698660D01*
X142448150Y-91081144D01*
X142447841Y-91103918D01*
X142437022Y-91212234D01*
X142410747Y-91311295D01*
X142369016Y-91401102D01*
X142306934Y-91487469D01*
X142229498Y-91559175D01*
X142145778Y-91611639D01*
X142108821Y-91629042D01*
X142009349Y-91662396D01*
X141911178Y-91680016D01*
X141804815Y-91685889D01*
X141768201Y-91685237D01*
X141664131Y-91675448D01*
X141558648Y-91650795D01*
X141463852Y-91611639D01*
X141380389Y-91559175D01*
X141303126Y-91487469D01*
X141241102Y-91401102D01*
X141226960Y-91375132D01*
X141189865Y-91282548D01*
X141168227Y-91180711D01*
X141161967Y-91081144D01*
X141161967Y-90698660D01*
X141512212Y-90698660D01*
X141512212Y-91081144D01*
X141513402Y-91116345D01*
X141533718Y-91215991D01*
X141588415Y-91302916D01*
X141608466Y-91320891D01*
X141701467Y-91366951D01*
X141804815Y-91379609D01*
X141838428Y-91378410D01*
X141934601Y-91357964D01*
X142020725Y-91302916D01*
X142046955Y-91271753D01*
X142087052Y-91180337D01*
X142097906Y-91081144D01*
X142097906Y-90698660D01*
X142096700Y-90663130D01*
X142076124Y-90562945D01*
X142020725Y-90476399D01*
X142000362Y-90458538D01*
X141907139Y-90412771D01*
X141804815Y-90400195D01*
X141770766Y-90401386D01*
X141673917Y-90421702D01*
X141588415Y-90476399D01*
X141562518Y-90507282D01*
X141522928Y-90598711D01*
X141512212Y-90698660D01*
X141161967Y-90698660D01*
X141161967Y-90697683D01*
X141162277Y-90674911D01*
X141173096Y-90566662D01*
X141199371Y-90467762D01*
X141241102Y-90378213D01*
X141303126Y-90292182D01*
X141380389Y-90220812D01*
X141463852Y-90168653D01*
X141500488Y-90151250D01*
X141599559Y-90117896D01*
X141697859Y-90100276D01*
X141804815Y-90094403D01*
X141841179Y-90095055D01*
G37*
G36*
X140018424Y-90092380D02*
G01*
X140116437Y-90104659D01*
X140210928Y-90138243D01*
X140297348Y-90199427D01*
X140310953Y-90213122D01*
X140370091Y-90299972D01*
X140400812Y-90395856D01*
X140402412Y-90413872D01*
X140409699Y-90413872D01*
X140409699Y-90119804D01*
X140751639Y-90119804D01*
X140751639Y-92164117D01*
X140401395Y-92164117D01*
X140401395Y-91732295D01*
X140411653Y-91365931D01*
X140401043Y-91365931D01*
X140396366Y-91404184D01*
X140361103Y-91496691D01*
X140296859Y-91580376D01*
X140282457Y-91593390D01*
X140192600Y-91649957D01*
X140095284Y-91679342D01*
X139994975Y-91687843D01*
X139919229Y-91683325D01*
X139815571Y-91659603D01*
X139723866Y-91615547D01*
X139669918Y-91575614D01*
X139601019Y-91501516D01*
X139546545Y-91410383D01*
X139542668Y-91402033D01*
X139508146Y-91304138D01*
X139489684Y-91205525D01*
X139483531Y-91097752D01*
X139483531Y-90696217D01*
X139833775Y-90696217D01*
X139833775Y-91083586D01*
X139834943Y-91118696D01*
X139854868Y-91218466D01*
X139908513Y-91306336D01*
X139928136Y-91324654D01*
X140018447Y-91371594D01*
X140118073Y-91384494D01*
X140142226Y-91383798D01*
X140242110Y-91362160D01*
X140325680Y-91305359D01*
X140351411Y-91273451D01*
X140390748Y-91181635D01*
X140401395Y-91083586D01*
X140401395Y-90696217D01*
X140400212Y-90661664D01*
X140380026Y-90562968D01*
X140325680Y-90474933D01*
X140305766Y-90456386D01*
X140215728Y-90408859D01*
X140118073Y-90395799D01*
X140093322Y-90396477D01*
X139991782Y-90417581D01*
X139908513Y-90472979D01*
X139883114Y-90504343D01*
X139844285Y-90596360D01*
X139833775Y-90696217D01*
X139483531Y-90696217D01*
X139483531Y-90681074D01*
X139484076Y-90647682D01*
X139494582Y-90537660D01*
X139518457Y-90438297D01*
X139562116Y-90337791D01*
X139623237Y-90251207D01*
X139698678Y-90181536D01*
X139785781Y-90131772D01*
X139884547Y-90101913D01*
X139994975Y-90091960D01*
X140018424Y-90092380D01*
G37*
G36*
X138462109Y-90092462D02*
G01*
X138570925Y-90102123D01*
X138670812Y-90124078D01*
X138774036Y-90164226D01*
X138865596Y-90220432D01*
X138942166Y-90290072D01*
X139000418Y-90371008D01*
X139040352Y-90463240D01*
X139061967Y-90566769D01*
X138720027Y-90566769D01*
X138698279Y-90502565D01*
X138629658Y-90430481D01*
X138538076Y-90391222D01*
X138439637Y-90380167D01*
X138423975Y-90380415D01*
X138326308Y-90396043D01*
X138240334Y-90443670D01*
X138186113Y-90518775D01*
X138168039Y-90618060D01*
X138168039Y-90749462D01*
X138551988Y-90749462D01*
X138586005Y-90749947D01*
X138697459Y-90759277D01*
X138797086Y-90780481D01*
X138896462Y-90819255D01*
X138980390Y-90873538D01*
X139039585Y-90932492D01*
X139094330Y-91022648D01*
X139122814Y-91116345D01*
X139132309Y-91222805D01*
X139128958Y-91287648D01*
X139106036Y-91393428D01*
X139061398Y-91485142D01*
X138995045Y-91562791D01*
X138919940Y-91617501D01*
X138820558Y-91660366D01*
X138718984Y-91681859D01*
X138619888Y-91687843D01*
X138581151Y-91686963D01*
X138473800Y-91673761D01*
X138370111Y-91640512D01*
X138282833Y-91587704D01*
X138210523Y-91510373D01*
X138168229Y-91416071D01*
X138165054Y-91390355D01*
X138157292Y-91390355D01*
X138157292Y-91660000D01*
X137817794Y-91660000D01*
X137817794Y-91153928D01*
X138168039Y-91153928D01*
X138168867Y-91176069D01*
X138197869Y-91275052D01*
X138262316Y-91349811D01*
X138305897Y-91379313D01*
X138400352Y-91414879D01*
X138503140Y-91425526D01*
X138519283Y-91425280D01*
X138619888Y-91409773D01*
X138708304Y-91362512D01*
X138763625Y-91288018D01*
X138782065Y-91190565D01*
X138771423Y-91114386D01*
X138717585Y-91027411D01*
X138641870Y-90981615D01*
X138544661Y-90966350D01*
X138168039Y-90966350D01*
X138168039Y-91153928D01*
X137817794Y-91153928D01*
X137817794Y-90614640D01*
X137817955Y-90599746D01*
X137828083Y-90500884D01*
X137858949Y-90399462D01*
X137910393Y-90310375D01*
X137982414Y-90233621D01*
X138025408Y-90200420D01*
X138122434Y-90147297D01*
X138219403Y-90115340D01*
X138327638Y-90096941D01*
X138429378Y-90091960D01*
X138462109Y-90092462D01*
G37*
G36*
X136494975Y-90047508D02*
G01*
X136484717Y-90413872D01*
X136495293Y-90413872D01*
X136499889Y-90375888D01*
X136534846Y-90283381D01*
X136598534Y-90199916D01*
X136612765Y-90186843D01*
X136702086Y-90130019D01*
X136799516Y-90100500D01*
X136900418Y-90091960D01*
X137010694Y-90101944D01*
X137109490Y-90131894D01*
X137196807Y-90181811D01*
X137272644Y-90251695D01*
X137305503Y-90293369D01*
X137358076Y-90387158D01*
X137389702Y-90480644D01*
X137407911Y-90584789D01*
X137412840Y-90682540D01*
X137412840Y-91098729D01*
X137412290Y-91132238D01*
X137401711Y-91242578D01*
X137377669Y-91342117D01*
X137333705Y-91442654D01*
X137272156Y-91529085D01*
X137196166Y-91598542D01*
X137108879Y-91648154D01*
X137010297Y-91677921D01*
X136900418Y-91687843D01*
X136876914Y-91687425D01*
X136778794Y-91675202D01*
X136684455Y-91641771D01*
X136598534Y-91580865D01*
X136584988Y-91567170D01*
X136526107Y-91480320D01*
X136495519Y-91384436D01*
X136493883Y-91365931D01*
X136486671Y-91365931D01*
X136486671Y-91660000D01*
X136144731Y-91660000D01*
X136144731Y-90696217D01*
X136494975Y-90696217D01*
X136494975Y-91083586D01*
X136496150Y-91118254D01*
X136516206Y-91217217D01*
X136570202Y-91305359D01*
X136589779Y-91323906D01*
X136679102Y-91371433D01*
X136776831Y-91384494D01*
X136801674Y-91383807D01*
X136903642Y-91362435D01*
X136987369Y-91306336D01*
X137012934Y-91274691D01*
X137052017Y-91182688D01*
X137062595Y-91083586D01*
X137062595Y-90696217D01*
X137061420Y-90661115D01*
X137041364Y-90561476D01*
X136987369Y-90473956D01*
X136967623Y-90455638D01*
X136876855Y-90408698D01*
X136776831Y-90395799D01*
X136752604Y-90396494D01*
X136652827Y-90418132D01*
X136570202Y-90474933D01*
X136544637Y-90506824D01*
X136505554Y-90598467D01*
X136494975Y-90696217D01*
X136144731Y-90696217D01*
X136144731Y-89616175D01*
X136494975Y-89616175D01*
X136494975Y-90047508D01*
G37*
D11*
X132988094Y-79304819D02*
X132988094Y-78304819D01*
X132988094Y-78304819D02*
X132749999Y-78304819D01*
X132749999Y-78304819D02*
X132607142Y-78352438D01*
X132607142Y-78352438D02*
X132511904Y-78447676D01*
X132511904Y-78447676D02*
X132464285Y-78542914D01*
X132464285Y-78542914D02*
X132416666Y-78733390D01*
X132416666Y-78733390D02*
X132416666Y-78876247D01*
X132416666Y-78876247D02*
X132464285Y-79066723D01*
X132464285Y-79066723D02*
X132511904Y-79161961D01*
X132511904Y-79161961D02*
X132607142Y-79257200D01*
X132607142Y-79257200D02*
X132749999Y-79304819D01*
X132749999Y-79304819D02*
X132988094Y-79304819D01*
X131511904Y-78304819D02*
X131988094Y-78304819D01*
X131988094Y-78304819D02*
X132035713Y-78781009D01*
X132035713Y-78781009D02*
X131988094Y-78733390D01*
X131988094Y-78733390D02*
X131892856Y-78685771D01*
X131892856Y-78685771D02*
X131654761Y-78685771D01*
X131654761Y-78685771D02*
X131559523Y-78733390D01*
X131559523Y-78733390D02*
X131511904Y-78781009D01*
X131511904Y-78781009D02*
X131464285Y-78876247D01*
X131464285Y-78876247D02*
X131464285Y-79114342D01*
X131464285Y-79114342D02*
X131511904Y-79209580D01*
X131511904Y-79209580D02*
X131559523Y-79257200D01*
X131559523Y-79257200D02*
X131654761Y-79304819D01*
X131654761Y-79304819D02*
X131892856Y-79304819D01*
X131892856Y-79304819D02*
X131988094Y-79257200D01*
X131988094Y-79257200D02*
X132035713Y-79209580D01*
X124842857Y-103559580D02*
X124890476Y-103607200D01*
X124890476Y-103607200D02*
X125033333Y-103654819D01*
X125033333Y-103654819D02*
X125128571Y-103654819D01*
X125128571Y-103654819D02*
X125271428Y-103607200D01*
X125271428Y-103607200D02*
X125366666Y-103511961D01*
X125366666Y-103511961D02*
X125414285Y-103416723D01*
X125414285Y-103416723D02*
X125461904Y-103226247D01*
X125461904Y-103226247D02*
X125461904Y-103083390D01*
X125461904Y-103083390D02*
X125414285Y-102892914D01*
X125414285Y-102892914D02*
X125366666Y-102797676D01*
X125366666Y-102797676D02*
X125271428Y-102702438D01*
X125271428Y-102702438D02*
X125128571Y-102654819D01*
X125128571Y-102654819D02*
X125033333Y-102654819D01*
X125033333Y-102654819D02*
X124890476Y-102702438D01*
X124890476Y-102702438D02*
X124842857Y-102750057D01*
X123890476Y-103654819D02*
X124461904Y-103654819D01*
X124176190Y-103654819D02*
X124176190Y-102654819D01*
X124176190Y-102654819D02*
X124271428Y-102797676D01*
X124271428Y-102797676D02*
X124366666Y-102892914D01*
X124366666Y-102892914D02*
X124461904Y-102940533D01*
X123557142Y-102654819D02*
X122938095Y-102654819D01*
X122938095Y-102654819D02*
X123271428Y-103035771D01*
X123271428Y-103035771D02*
X123128571Y-103035771D01*
X123128571Y-103035771D02*
X123033333Y-103083390D01*
X123033333Y-103083390D02*
X122985714Y-103131009D01*
X122985714Y-103131009D02*
X122938095Y-103226247D01*
X122938095Y-103226247D02*
X122938095Y-103464342D01*
X122938095Y-103464342D02*
X122985714Y-103559580D01*
X122985714Y-103559580D02*
X123033333Y-103607200D01*
X123033333Y-103607200D02*
X123128571Y-103654819D01*
X123128571Y-103654819D02*
X123414285Y-103654819D01*
X123414285Y-103654819D02*
X123509523Y-103607200D01*
X123509523Y-103607200D02*
X123557142Y-103559580D01*
X176867857Y-90009580D02*
X176915476Y-90057200D01*
X176915476Y-90057200D02*
X177058333Y-90104819D01*
X177058333Y-90104819D02*
X177153571Y-90104819D01*
X177153571Y-90104819D02*
X177296428Y-90057200D01*
X177296428Y-90057200D02*
X177391666Y-89961961D01*
X177391666Y-89961961D02*
X177439285Y-89866723D01*
X177439285Y-89866723D02*
X177486904Y-89676247D01*
X177486904Y-89676247D02*
X177486904Y-89533390D01*
X177486904Y-89533390D02*
X177439285Y-89342914D01*
X177439285Y-89342914D02*
X177391666Y-89247676D01*
X177391666Y-89247676D02*
X177296428Y-89152438D01*
X177296428Y-89152438D02*
X177153571Y-89104819D01*
X177153571Y-89104819D02*
X177058333Y-89104819D01*
X177058333Y-89104819D02*
X176915476Y-89152438D01*
X176915476Y-89152438D02*
X176867857Y-89200057D01*
X175915476Y-90104819D02*
X176486904Y-90104819D01*
X176201190Y-90104819D02*
X176201190Y-89104819D01*
X176201190Y-89104819D02*
X176296428Y-89247676D01*
X176296428Y-89247676D02*
X176391666Y-89342914D01*
X176391666Y-89342914D02*
X176486904Y-89390533D01*
X175058333Y-89438152D02*
X175058333Y-90104819D01*
X175296428Y-89057200D02*
X175534523Y-89771485D01*
X175534523Y-89771485D02*
X174915476Y-89771485D01*
X162200000Y-71666033D02*
X162200000Y-70966033D01*
X162200000Y-70966033D02*
X162033333Y-70966033D01*
X162033333Y-70966033D02*
X161933333Y-70999366D01*
X161933333Y-70999366D02*
X161866667Y-71066033D01*
X161866667Y-71066033D02*
X161833333Y-71132700D01*
X161833333Y-71132700D02*
X161800000Y-71266033D01*
X161800000Y-71266033D02*
X161800000Y-71366033D01*
X161800000Y-71366033D02*
X161833333Y-71499366D01*
X161833333Y-71499366D02*
X161866667Y-71566033D01*
X161866667Y-71566033D02*
X161933333Y-71632700D01*
X161933333Y-71632700D02*
X162033333Y-71666033D01*
X162033333Y-71666033D02*
X162200000Y-71666033D01*
X161133333Y-71666033D02*
X161533333Y-71666033D01*
X161333333Y-71666033D02*
X161333333Y-70966033D01*
X161333333Y-70966033D02*
X161400000Y-71066033D01*
X161400000Y-71066033D02*
X161466667Y-71132700D01*
X161466667Y-71132700D02*
X161533333Y-71166033D01*
X160800000Y-71666033D02*
X160666666Y-71666033D01*
X160666666Y-71666033D02*
X160600000Y-71632700D01*
X160600000Y-71632700D02*
X160566666Y-71599366D01*
X160566666Y-71599366D02*
X160500000Y-71499366D01*
X160500000Y-71499366D02*
X160466666Y-71366033D01*
X160466666Y-71366033D02*
X160466666Y-71099366D01*
X160466666Y-71099366D02*
X160500000Y-71032700D01*
X160500000Y-71032700D02*
X160533333Y-70999366D01*
X160533333Y-70999366D02*
X160600000Y-70966033D01*
X160600000Y-70966033D02*
X160733333Y-70966033D01*
X160733333Y-70966033D02*
X160800000Y-70999366D01*
X160800000Y-70999366D02*
X160833333Y-71032700D01*
X160833333Y-71032700D02*
X160866666Y-71099366D01*
X160866666Y-71099366D02*
X160866666Y-71266033D01*
X160866666Y-71266033D02*
X160833333Y-71332700D01*
X160833333Y-71332700D02*
X160800000Y-71366033D01*
X160800000Y-71366033D02*
X160733333Y-71399366D01*
X160733333Y-71399366D02*
X160600000Y-71399366D01*
X160600000Y-71399366D02*
X160533333Y-71366033D01*
X160533333Y-71366033D02*
X160500000Y-71332700D01*
X160500000Y-71332700D02*
X160466666Y-71266033D01*
X132988094Y-60304819D02*
X132988094Y-59304819D01*
X132988094Y-59304819D02*
X132749999Y-59304819D01*
X132749999Y-59304819D02*
X132607142Y-59352438D01*
X132607142Y-59352438D02*
X132511904Y-59447676D01*
X132511904Y-59447676D02*
X132464285Y-59542914D01*
X132464285Y-59542914D02*
X132416666Y-59733390D01*
X132416666Y-59733390D02*
X132416666Y-59876247D01*
X132416666Y-59876247D02*
X132464285Y-60066723D01*
X132464285Y-60066723D02*
X132511904Y-60161961D01*
X132511904Y-60161961D02*
X132607142Y-60257200D01*
X132607142Y-60257200D02*
X132749999Y-60304819D01*
X132749999Y-60304819D02*
X132988094Y-60304819D01*
X131464285Y-60304819D02*
X132035713Y-60304819D01*
X131749999Y-60304819D02*
X131749999Y-59304819D01*
X131749999Y-59304819D02*
X131845237Y-59447676D01*
X131845237Y-59447676D02*
X131940475Y-59542914D01*
X131940475Y-59542914D02*
X132035713Y-59590533D01*
X143070000Y-112746033D02*
X143070000Y-112046033D01*
X143070000Y-112046033D02*
X142903333Y-112046033D01*
X142903333Y-112046033D02*
X142803333Y-112079366D01*
X142803333Y-112079366D02*
X142736667Y-112146033D01*
X142736667Y-112146033D02*
X142703333Y-112212700D01*
X142703333Y-112212700D02*
X142670000Y-112346033D01*
X142670000Y-112346033D02*
X142670000Y-112446033D01*
X142670000Y-112446033D02*
X142703333Y-112579366D01*
X142703333Y-112579366D02*
X142736667Y-112646033D01*
X142736667Y-112646033D02*
X142803333Y-112712700D01*
X142803333Y-112712700D02*
X142903333Y-112746033D01*
X142903333Y-112746033D02*
X143070000Y-112746033D01*
X142403333Y-112112700D02*
X142370000Y-112079366D01*
X142370000Y-112079366D02*
X142303333Y-112046033D01*
X142303333Y-112046033D02*
X142136667Y-112046033D01*
X142136667Y-112046033D02*
X142070000Y-112079366D01*
X142070000Y-112079366D02*
X142036667Y-112112700D01*
X142036667Y-112112700D02*
X142003333Y-112179366D01*
X142003333Y-112179366D02*
X142003333Y-112246033D01*
X142003333Y-112246033D02*
X142036667Y-112346033D01*
X142036667Y-112346033D02*
X142436667Y-112746033D01*
X142436667Y-112746033D02*
X142003333Y-112746033D01*
X141336666Y-112746033D02*
X141736666Y-112746033D01*
X141536666Y-112746033D02*
X141536666Y-112046033D01*
X141536666Y-112046033D02*
X141603333Y-112146033D01*
X141603333Y-112146033D02*
X141670000Y-112212700D01*
X141670000Y-112212700D02*
X141736666Y-112246033D01*
X154009580Y-112107142D02*
X154057200Y-112059523D01*
X154057200Y-112059523D02*
X154104819Y-111916666D01*
X154104819Y-111916666D02*
X154104819Y-111821428D01*
X154104819Y-111821428D02*
X154057200Y-111678571D01*
X154057200Y-111678571D02*
X153961961Y-111583333D01*
X153961961Y-111583333D02*
X153866723Y-111535714D01*
X153866723Y-111535714D02*
X153676247Y-111488095D01*
X153676247Y-111488095D02*
X153533390Y-111488095D01*
X153533390Y-111488095D02*
X153342914Y-111535714D01*
X153342914Y-111535714D02*
X153247676Y-111583333D01*
X153247676Y-111583333D02*
X153152438Y-111678571D01*
X153152438Y-111678571D02*
X153104819Y-111821428D01*
X153104819Y-111821428D02*
X153104819Y-111916666D01*
X153104819Y-111916666D02*
X153152438Y-112059523D01*
X153152438Y-112059523D02*
X153200057Y-112107142D01*
X154104819Y-113059523D02*
X154104819Y-112488095D01*
X154104819Y-112773809D02*
X153104819Y-112773809D01*
X153104819Y-112773809D02*
X153247676Y-112678571D01*
X153247676Y-112678571D02*
X153342914Y-112583333D01*
X153342914Y-112583333D02*
X153390533Y-112488095D01*
X153104819Y-113678571D02*
X153104819Y-113773809D01*
X153104819Y-113773809D02*
X153152438Y-113869047D01*
X153152438Y-113869047D02*
X153200057Y-113916666D01*
X153200057Y-113916666D02*
X153295295Y-113964285D01*
X153295295Y-113964285D02*
X153485771Y-114011904D01*
X153485771Y-114011904D02*
X153723866Y-114011904D01*
X153723866Y-114011904D02*
X153914342Y-113964285D01*
X153914342Y-113964285D02*
X154009580Y-113916666D01*
X154009580Y-113916666D02*
X154057200Y-113869047D01*
X154057200Y-113869047D02*
X154104819Y-113773809D01*
X154104819Y-113773809D02*
X154104819Y-113678571D01*
X154104819Y-113678571D02*
X154057200Y-113583333D01*
X154057200Y-113583333D02*
X154009580Y-113535714D01*
X154009580Y-113535714D02*
X153914342Y-113488095D01*
X153914342Y-113488095D02*
X153723866Y-113440476D01*
X153723866Y-113440476D02*
X153485771Y-113440476D01*
X153485771Y-113440476D02*
X153295295Y-113488095D01*
X153295295Y-113488095D02*
X153200057Y-113535714D01*
X153200057Y-113535714D02*
X153152438Y-113583333D01*
X153152438Y-113583333D02*
X153104819Y-113678571D01*
X137204819Y-107385714D02*
X136204819Y-107385714D01*
X136204819Y-107385714D02*
X136204819Y-107623809D01*
X136204819Y-107623809D02*
X136252438Y-107766666D01*
X136252438Y-107766666D02*
X136347676Y-107861904D01*
X136347676Y-107861904D02*
X136442914Y-107909523D01*
X136442914Y-107909523D02*
X136633390Y-107957142D01*
X136633390Y-107957142D02*
X136776247Y-107957142D01*
X136776247Y-107957142D02*
X136966723Y-107909523D01*
X136966723Y-107909523D02*
X137061961Y-107861904D01*
X137061961Y-107861904D02*
X137157200Y-107766666D01*
X137157200Y-107766666D02*
X137204819Y-107623809D01*
X137204819Y-107623809D02*
X137204819Y-107385714D01*
X137204819Y-108909523D02*
X137204819Y-108338095D01*
X137204819Y-108623809D02*
X136204819Y-108623809D01*
X136204819Y-108623809D02*
X136347676Y-108528571D01*
X136347676Y-108528571D02*
X136442914Y-108433333D01*
X136442914Y-108433333D02*
X136490533Y-108338095D01*
X136204819Y-109528571D02*
X136204819Y-109623809D01*
X136204819Y-109623809D02*
X136252438Y-109719047D01*
X136252438Y-109719047D02*
X136300057Y-109766666D01*
X136300057Y-109766666D02*
X136395295Y-109814285D01*
X136395295Y-109814285D02*
X136585771Y-109861904D01*
X136585771Y-109861904D02*
X136823866Y-109861904D01*
X136823866Y-109861904D02*
X137014342Y-109814285D01*
X137014342Y-109814285D02*
X137109580Y-109766666D01*
X137109580Y-109766666D02*
X137157200Y-109719047D01*
X137157200Y-109719047D02*
X137204819Y-109623809D01*
X137204819Y-109623809D02*
X137204819Y-109528571D01*
X137204819Y-109528571D02*
X137157200Y-109433333D01*
X137157200Y-109433333D02*
X137109580Y-109385714D01*
X137109580Y-109385714D02*
X137014342Y-109338095D01*
X137014342Y-109338095D02*
X136823866Y-109290476D01*
X136823866Y-109290476D02*
X136585771Y-109290476D01*
X136585771Y-109290476D02*
X136395295Y-109338095D01*
X136395295Y-109338095D02*
X136300057Y-109385714D01*
X136300057Y-109385714D02*
X136252438Y-109433333D01*
X136252438Y-109433333D02*
X136204819Y-109528571D01*
X151554819Y-97970833D02*
X151078628Y-97637500D01*
X151554819Y-97399405D02*
X150554819Y-97399405D01*
X150554819Y-97399405D02*
X150554819Y-97780357D01*
X150554819Y-97780357D02*
X150602438Y-97875595D01*
X150602438Y-97875595D02*
X150650057Y-97923214D01*
X150650057Y-97923214D02*
X150745295Y-97970833D01*
X150745295Y-97970833D02*
X150888152Y-97970833D01*
X150888152Y-97970833D02*
X150983390Y-97923214D01*
X150983390Y-97923214D02*
X151031009Y-97875595D01*
X151031009Y-97875595D02*
X151078628Y-97780357D01*
X151078628Y-97780357D02*
X151078628Y-97399405D01*
X151554819Y-98923214D02*
X151554819Y-98351786D01*
X151554819Y-98637500D02*
X150554819Y-98637500D01*
X150554819Y-98637500D02*
X150697676Y-98542262D01*
X150697676Y-98542262D02*
X150792914Y-98447024D01*
X150792914Y-98447024D02*
X150840533Y-98351786D01*
X181250000Y-52616033D02*
X181250000Y-51916033D01*
X181250000Y-51916033D02*
X181083333Y-51916033D01*
X181083333Y-51916033D02*
X180983333Y-51949366D01*
X180983333Y-51949366D02*
X180916667Y-52016033D01*
X180916667Y-52016033D02*
X180883333Y-52082700D01*
X180883333Y-52082700D02*
X180850000Y-52216033D01*
X180850000Y-52216033D02*
X180850000Y-52316033D01*
X180850000Y-52316033D02*
X180883333Y-52449366D01*
X180883333Y-52449366D02*
X180916667Y-52516033D01*
X180916667Y-52516033D02*
X180983333Y-52582700D01*
X180983333Y-52582700D02*
X181083333Y-52616033D01*
X181083333Y-52616033D02*
X181250000Y-52616033D01*
X180183333Y-52616033D02*
X180583333Y-52616033D01*
X180383333Y-52616033D02*
X180383333Y-51916033D01*
X180383333Y-51916033D02*
X180450000Y-52016033D01*
X180450000Y-52016033D02*
X180516667Y-52082700D01*
X180516667Y-52082700D02*
X180583333Y-52116033D01*
X179583333Y-51916033D02*
X179716666Y-51916033D01*
X179716666Y-51916033D02*
X179783333Y-51949366D01*
X179783333Y-51949366D02*
X179816666Y-51982700D01*
X179816666Y-51982700D02*
X179883333Y-52082700D01*
X179883333Y-52082700D02*
X179916666Y-52216033D01*
X179916666Y-52216033D02*
X179916666Y-52482700D01*
X179916666Y-52482700D02*
X179883333Y-52549366D01*
X179883333Y-52549366D02*
X179850000Y-52582700D01*
X179850000Y-52582700D02*
X179783333Y-52616033D01*
X179783333Y-52616033D02*
X179650000Y-52616033D01*
X179650000Y-52616033D02*
X179583333Y-52582700D01*
X179583333Y-52582700D02*
X179550000Y-52549366D01*
X179550000Y-52549366D02*
X179516666Y-52482700D01*
X179516666Y-52482700D02*
X179516666Y-52316033D01*
X179516666Y-52316033D02*
X179550000Y-52249366D01*
X179550000Y-52249366D02*
X179583333Y-52216033D01*
X179583333Y-52216033D02*
X179650000Y-52182700D01*
X179650000Y-52182700D02*
X179783333Y-52182700D01*
X179783333Y-52182700D02*
X179850000Y-52216033D01*
X179850000Y-52216033D02*
X179883333Y-52249366D01*
X179883333Y-52249366D02*
X179916666Y-52316033D01*
X181250000Y-71666033D02*
X181250000Y-70966033D01*
X181250000Y-70966033D02*
X181083333Y-70966033D01*
X181083333Y-70966033D02*
X180983333Y-70999366D01*
X180983333Y-70999366D02*
X180916667Y-71066033D01*
X180916667Y-71066033D02*
X180883333Y-71132700D01*
X180883333Y-71132700D02*
X180850000Y-71266033D01*
X180850000Y-71266033D02*
X180850000Y-71366033D01*
X180850000Y-71366033D02*
X180883333Y-71499366D01*
X180883333Y-71499366D02*
X180916667Y-71566033D01*
X180916667Y-71566033D02*
X180983333Y-71632700D01*
X180983333Y-71632700D02*
X181083333Y-71666033D01*
X181083333Y-71666033D02*
X181250000Y-71666033D01*
X180583333Y-71032700D02*
X180550000Y-70999366D01*
X180550000Y-70999366D02*
X180483333Y-70966033D01*
X180483333Y-70966033D02*
X180316667Y-70966033D01*
X180316667Y-70966033D02*
X180250000Y-70999366D01*
X180250000Y-70999366D02*
X180216667Y-71032700D01*
X180216667Y-71032700D02*
X180183333Y-71099366D01*
X180183333Y-71099366D02*
X180183333Y-71166033D01*
X180183333Y-71166033D02*
X180216667Y-71266033D01*
X180216667Y-71266033D02*
X180616667Y-71666033D01*
X180616667Y-71666033D02*
X180183333Y-71666033D01*
X179750000Y-70966033D02*
X179683333Y-70966033D01*
X179683333Y-70966033D02*
X179616666Y-70999366D01*
X179616666Y-70999366D02*
X179583333Y-71032700D01*
X179583333Y-71032700D02*
X179550000Y-71099366D01*
X179550000Y-71099366D02*
X179516666Y-71232700D01*
X179516666Y-71232700D02*
X179516666Y-71399366D01*
X179516666Y-71399366D02*
X179550000Y-71532700D01*
X179550000Y-71532700D02*
X179583333Y-71599366D01*
X179583333Y-71599366D02*
X179616666Y-71632700D01*
X179616666Y-71632700D02*
X179683333Y-71666033D01*
X179683333Y-71666033D02*
X179750000Y-71666033D01*
X179750000Y-71666033D02*
X179816666Y-71632700D01*
X179816666Y-71632700D02*
X179850000Y-71599366D01*
X179850000Y-71599366D02*
X179883333Y-71532700D01*
X179883333Y-71532700D02*
X179916666Y-71399366D01*
X179916666Y-71399366D02*
X179916666Y-71232700D01*
X179916666Y-71232700D02*
X179883333Y-71099366D01*
X179883333Y-71099366D02*
X179850000Y-71032700D01*
X179850000Y-71032700D02*
X179816666Y-70999366D01*
X179816666Y-70999366D02*
X179750000Y-70966033D01*
X151916666Y-109859580D02*
X151964285Y-109907200D01*
X151964285Y-109907200D02*
X152107142Y-109954819D01*
X152107142Y-109954819D02*
X152202380Y-109954819D01*
X152202380Y-109954819D02*
X152345237Y-109907200D01*
X152345237Y-109907200D02*
X152440475Y-109811961D01*
X152440475Y-109811961D02*
X152488094Y-109716723D01*
X152488094Y-109716723D02*
X152535713Y-109526247D01*
X152535713Y-109526247D02*
X152535713Y-109383390D01*
X152535713Y-109383390D02*
X152488094Y-109192914D01*
X152488094Y-109192914D02*
X152440475Y-109097676D01*
X152440475Y-109097676D02*
X152345237Y-109002438D01*
X152345237Y-109002438D02*
X152202380Y-108954819D01*
X152202380Y-108954819D02*
X152107142Y-108954819D01*
X152107142Y-108954819D02*
X151964285Y-109002438D01*
X151964285Y-109002438D02*
X151916666Y-109050057D01*
X151440475Y-109954819D02*
X151249999Y-109954819D01*
X151249999Y-109954819D02*
X151154761Y-109907200D01*
X151154761Y-109907200D02*
X151107142Y-109859580D01*
X151107142Y-109859580D02*
X151011904Y-109716723D01*
X151011904Y-109716723D02*
X150964285Y-109526247D01*
X150964285Y-109526247D02*
X150964285Y-109145295D01*
X150964285Y-109145295D02*
X151011904Y-109050057D01*
X151011904Y-109050057D02*
X151059523Y-109002438D01*
X151059523Y-109002438D02*
X151154761Y-108954819D01*
X151154761Y-108954819D02*
X151345237Y-108954819D01*
X151345237Y-108954819D02*
X151440475Y-109002438D01*
X151440475Y-109002438D02*
X151488094Y-109050057D01*
X151488094Y-109050057D02*
X151535713Y-109145295D01*
X151535713Y-109145295D02*
X151535713Y-109383390D01*
X151535713Y-109383390D02*
X151488094Y-109478628D01*
X151488094Y-109478628D02*
X151440475Y-109526247D01*
X151440475Y-109526247D02*
X151345237Y-109573866D01*
X151345237Y-109573866D02*
X151154761Y-109573866D01*
X151154761Y-109573866D02*
X151059523Y-109526247D01*
X151059523Y-109526247D02*
X151011904Y-109478628D01*
X151011904Y-109478628D02*
X150964285Y-109383390D01*
X189159580Y-71433333D02*
X189207200Y-71385714D01*
X189207200Y-71385714D02*
X189254819Y-71242857D01*
X189254819Y-71242857D02*
X189254819Y-71147619D01*
X189254819Y-71147619D02*
X189207200Y-71004762D01*
X189207200Y-71004762D02*
X189111961Y-70909524D01*
X189111961Y-70909524D02*
X189016723Y-70861905D01*
X189016723Y-70861905D02*
X188826247Y-70814286D01*
X188826247Y-70814286D02*
X188683390Y-70814286D01*
X188683390Y-70814286D02*
X188492914Y-70861905D01*
X188492914Y-70861905D02*
X188397676Y-70909524D01*
X188397676Y-70909524D02*
X188302438Y-71004762D01*
X188302438Y-71004762D02*
X188254819Y-71147619D01*
X188254819Y-71147619D02*
X188254819Y-71242857D01*
X188254819Y-71242857D02*
X188302438Y-71385714D01*
X188302438Y-71385714D02*
X188350057Y-71433333D01*
X188683390Y-72004762D02*
X188635771Y-71909524D01*
X188635771Y-71909524D02*
X188588152Y-71861905D01*
X188588152Y-71861905D02*
X188492914Y-71814286D01*
X188492914Y-71814286D02*
X188445295Y-71814286D01*
X188445295Y-71814286D02*
X188350057Y-71861905D01*
X188350057Y-71861905D02*
X188302438Y-71909524D01*
X188302438Y-71909524D02*
X188254819Y-72004762D01*
X188254819Y-72004762D02*
X188254819Y-72195238D01*
X188254819Y-72195238D02*
X188302438Y-72290476D01*
X188302438Y-72290476D02*
X188350057Y-72338095D01*
X188350057Y-72338095D02*
X188445295Y-72385714D01*
X188445295Y-72385714D02*
X188492914Y-72385714D01*
X188492914Y-72385714D02*
X188588152Y-72338095D01*
X188588152Y-72338095D02*
X188635771Y-72290476D01*
X188635771Y-72290476D02*
X188683390Y-72195238D01*
X188683390Y-72195238D02*
X188683390Y-72004762D01*
X188683390Y-72004762D02*
X188731009Y-71909524D01*
X188731009Y-71909524D02*
X188778628Y-71861905D01*
X188778628Y-71861905D02*
X188873866Y-71814286D01*
X188873866Y-71814286D02*
X189064342Y-71814286D01*
X189064342Y-71814286D02*
X189159580Y-71861905D01*
X189159580Y-71861905D02*
X189207200Y-71909524D01*
X189207200Y-71909524D02*
X189254819Y-72004762D01*
X189254819Y-72004762D02*
X189254819Y-72195238D01*
X189254819Y-72195238D02*
X189207200Y-72290476D01*
X189207200Y-72290476D02*
X189159580Y-72338095D01*
X189159580Y-72338095D02*
X189064342Y-72385714D01*
X189064342Y-72385714D02*
X188873866Y-72385714D01*
X188873866Y-72385714D02*
X188778628Y-72338095D01*
X188778628Y-72338095D02*
X188731009Y-72290476D01*
X188731009Y-72290476D02*
X188683390Y-72195238D01*
X151988094Y-60204819D02*
X151988094Y-59204819D01*
X151988094Y-59204819D02*
X151749999Y-59204819D01*
X151749999Y-59204819D02*
X151607142Y-59252438D01*
X151607142Y-59252438D02*
X151511904Y-59347676D01*
X151511904Y-59347676D02*
X151464285Y-59442914D01*
X151464285Y-59442914D02*
X151416666Y-59633390D01*
X151416666Y-59633390D02*
X151416666Y-59776247D01*
X151416666Y-59776247D02*
X151464285Y-59966723D01*
X151464285Y-59966723D02*
X151511904Y-60061961D01*
X151511904Y-60061961D02*
X151607142Y-60157200D01*
X151607142Y-60157200D02*
X151749999Y-60204819D01*
X151749999Y-60204819D02*
X151988094Y-60204819D01*
X151035713Y-59300057D02*
X150988094Y-59252438D01*
X150988094Y-59252438D02*
X150892856Y-59204819D01*
X150892856Y-59204819D02*
X150654761Y-59204819D01*
X150654761Y-59204819D02*
X150559523Y-59252438D01*
X150559523Y-59252438D02*
X150511904Y-59300057D01*
X150511904Y-59300057D02*
X150464285Y-59395295D01*
X150464285Y-59395295D02*
X150464285Y-59490533D01*
X150464285Y-59490533D02*
X150511904Y-59633390D01*
X150511904Y-59633390D02*
X151083332Y-60204819D01*
X151083332Y-60204819D02*
X150464285Y-60204819D01*
X171238094Y-79204819D02*
X171238094Y-78204819D01*
X171238094Y-78204819D02*
X170999999Y-78204819D01*
X170999999Y-78204819D02*
X170857142Y-78252438D01*
X170857142Y-78252438D02*
X170761904Y-78347676D01*
X170761904Y-78347676D02*
X170714285Y-78442914D01*
X170714285Y-78442914D02*
X170666666Y-78633390D01*
X170666666Y-78633390D02*
X170666666Y-78776247D01*
X170666666Y-78776247D02*
X170714285Y-78966723D01*
X170714285Y-78966723D02*
X170761904Y-79061961D01*
X170761904Y-79061961D02*
X170857142Y-79157200D01*
X170857142Y-79157200D02*
X170999999Y-79204819D01*
X170999999Y-79204819D02*
X171238094Y-79204819D01*
X170333332Y-78204819D02*
X169666666Y-78204819D01*
X169666666Y-78204819D02*
X170095237Y-79204819D01*
X184042857Y-93709580D02*
X184090476Y-93757200D01*
X184090476Y-93757200D02*
X184233333Y-93804819D01*
X184233333Y-93804819D02*
X184328571Y-93804819D01*
X184328571Y-93804819D02*
X184471428Y-93757200D01*
X184471428Y-93757200D02*
X184566666Y-93661961D01*
X184566666Y-93661961D02*
X184614285Y-93566723D01*
X184614285Y-93566723D02*
X184661904Y-93376247D01*
X184661904Y-93376247D02*
X184661904Y-93233390D01*
X184661904Y-93233390D02*
X184614285Y-93042914D01*
X184614285Y-93042914D02*
X184566666Y-92947676D01*
X184566666Y-92947676D02*
X184471428Y-92852438D01*
X184471428Y-92852438D02*
X184328571Y-92804819D01*
X184328571Y-92804819D02*
X184233333Y-92804819D01*
X184233333Y-92804819D02*
X184090476Y-92852438D01*
X184090476Y-92852438D02*
X184042857Y-92900057D01*
X183090476Y-93804819D02*
X183661904Y-93804819D01*
X183376190Y-93804819D02*
X183376190Y-92804819D01*
X183376190Y-92804819D02*
X183471428Y-92947676D01*
X183471428Y-92947676D02*
X183566666Y-93042914D01*
X183566666Y-93042914D02*
X183661904Y-93090533D01*
X182185714Y-92804819D02*
X182661904Y-92804819D01*
X182661904Y-92804819D02*
X182709523Y-93281009D01*
X182709523Y-93281009D02*
X182661904Y-93233390D01*
X182661904Y-93233390D02*
X182566666Y-93185771D01*
X182566666Y-93185771D02*
X182328571Y-93185771D01*
X182328571Y-93185771D02*
X182233333Y-93233390D01*
X182233333Y-93233390D02*
X182185714Y-93281009D01*
X182185714Y-93281009D02*
X182138095Y-93376247D01*
X182138095Y-93376247D02*
X182138095Y-93614342D01*
X182138095Y-93614342D02*
X182185714Y-93709580D01*
X182185714Y-93709580D02*
X182233333Y-93757200D01*
X182233333Y-93757200D02*
X182328571Y-93804819D01*
X182328571Y-93804819D02*
X182566666Y-93804819D01*
X182566666Y-93804819D02*
X182661904Y-93757200D01*
X182661904Y-93757200D02*
X182709523Y-93709580D01*
X131759580Y-71233333D02*
X131807200Y-71185714D01*
X131807200Y-71185714D02*
X131854819Y-71042857D01*
X131854819Y-71042857D02*
X131854819Y-70947619D01*
X131854819Y-70947619D02*
X131807200Y-70804762D01*
X131807200Y-70804762D02*
X131711961Y-70709524D01*
X131711961Y-70709524D02*
X131616723Y-70661905D01*
X131616723Y-70661905D02*
X131426247Y-70614286D01*
X131426247Y-70614286D02*
X131283390Y-70614286D01*
X131283390Y-70614286D02*
X131092914Y-70661905D01*
X131092914Y-70661905D02*
X130997676Y-70709524D01*
X130997676Y-70709524D02*
X130902438Y-70804762D01*
X130902438Y-70804762D02*
X130854819Y-70947619D01*
X130854819Y-70947619D02*
X130854819Y-71042857D01*
X130854819Y-71042857D02*
X130902438Y-71185714D01*
X130902438Y-71185714D02*
X130950057Y-71233333D01*
X130854819Y-72138095D02*
X130854819Y-71661905D01*
X130854819Y-71661905D02*
X131331009Y-71614286D01*
X131331009Y-71614286D02*
X131283390Y-71661905D01*
X131283390Y-71661905D02*
X131235771Y-71757143D01*
X131235771Y-71757143D02*
X131235771Y-71995238D01*
X131235771Y-71995238D02*
X131283390Y-72090476D01*
X131283390Y-72090476D02*
X131331009Y-72138095D01*
X131331009Y-72138095D02*
X131426247Y-72185714D01*
X131426247Y-72185714D02*
X131664342Y-72185714D01*
X131664342Y-72185714D02*
X131759580Y-72138095D01*
X131759580Y-72138095D02*
X131807200Y-72090476D01*
X131807200Y-72090476D02*
X131854819Y-71995238D01*
X131854819Y-71995238D02*
X131854819Y-71757143D01*
X131854819Y-71757143D02*
X131807200Y-71661905D01*
X131807200Y-71661905D02*
X131759580Y-71614286D01*
X131759580Y-52433333D02*
X131807200Y-52385714D01*
X131807200Y-52385714D02*
X131854819Y-52242857D01*
X131854819Y-52242857D02*
X131854819Y-52147619D01*
X131854819Y-52147619D02*
X131807200Y-52004762D01*
X131807200Y-52004762D02*
X131711961Y-51909524D01*
X131711961Y-51909524D02*
X131616723Y-51861905D01*
X131616723Y-51861905D02*
X131426247Y-51814286D01*
X131426247Y-51814286D02*
X131283390Y-51814286D01*
X131283390Y-51814286D02*
X131092914Y-51861905D01*
X131092914Y-51861905D02*
X130997676Y-51909524D01*
X130997676Y-51909524D02*
X130902438Y-52004762D01*
X130902438Y-52004762D02*
X130854819Y-52147619D01*
X130854819Y-52147619D02*
X130854819Y-52242857D01*
X130854819Y-52242857D02*
X130902438Y-52385714D01*
X130902438Y-52385714D02*
X130950057Y-52433333D01*
X131854819Y-53385714D02*
X131854819Y-52814286D01*
X131854819Y-53100000D02*
X130854819Y-53100000D01*
X130854819Y-53100000D02*
X130997676Y-53004762D01*
X130997676Y-53004762D02*
X131092914Y-52909524D01*
X131092914Y-52909524D02*
X131140533Y-52814286D01*
X173738094Y-79204819D02*
X173738094Y-78204819D01*
X173738094Y-78204819D02*
X173499999Y-78204819D01*
X173499999Y-78204819D02*
X173357142Y-78252438D01*
X173357142Y-78252438D02*
X173261904Y-78347676D01*
X173261904Y-78347676D02*
X173214285Y-78442914D01*
X173214285Y-78442914D02*
X173166666Y-78633390D01*
X173166666Y-78633390D02*
X173166666Y-78776247D01*
X173166666Y-78776247D02*
X173214285Y-78966723D01*
X173214285Y-78966723D02*
X173261904Y-79061961D01*
X173261904Y-79061961D02*
X173357142Y-79157200D01*
X173357142Y-79157200D02*
X173499999Y-79204819D01*
X173499999Y-79204819D02*
X173738094Y-79204819D01*
X172595237Y-78633390D02*
X172690475Y-78585771D01*
X172690475Y-78585771D02*
X172738094Y-78538152D01*
X172738094Y-78538152D02*
X172785713Y-78442914D01*
X172785713Y-78442914D02*
X172785713Y-78395295D01*
X172785713Y-78395295D02*
X172738094Y-78300057D01*
X172738094Y-78300057D02*
X172690475Y-78252438D01*
X172690475Y-78252438D02*
X172595237Y-78204819D01*
X172595237Y-78204819D02*
X172404761Y-78204819D01*
X172404761Y-78204819D02*
X172309523Y-78252438D01*
X172309523Y-78252438D02*
X172261904Y-78300057D01*
X172261904Y-78300057D02*
X172214285Y-78395295D01*
X172214285Y-78395295D02*
X172214285Y-78442914D01*
X172214285Y-78442914D02*
X172261904Y-78538152D01*
X172261904Y-78538152D02*
X172309523Y-78585771D01*
X172309523Y-78585771D02*
X172404761Y-78633390D01*
X172404761Y-78633390D02*
X172595237Y-78633390D01*
X172595237Y-78633390D02*
X172690475Y-78681009D01*
X172690475Y-78681009D02*
X172738094Y-78728628D01*
X172738094Y-78728628D02*
X172785713Y-78823866D01*
X172785713Y-78823866D02*
X172785713Y-79014342D01*
X172785713Y-79014342D02*
X172738094Y-79109580D01*
X172738094Y-79109580D02*
X172690475Y-79157200D01*
X172690475Y-79157200D02*
X172595237Y-79204819D01*
X172595237Y-79204819D02*
X172404761Y-79204819D01*
X172404761Y-79204819D02*
X172309523Y-79157200D01*
X172309523Y-79157200D02*
X172261904Y-79109580D01*
X172261904Y-79109580D02*
X172214285Y-79014342D01*
X172214285Y-79014342D02*
X172214285Y-78823866D01*
X172214285Y-78823866D02*
X172261904Y-78728628D01*
X172261904Y-78728628D02*
X172309523Y-78681009D01*
X172309523Y-78681009D02*
X172404761Y-78633390D01*
X150959580Y-71633333D02*
X151007200Y-71585714D01*
X151007200Y-71585714D02*
X151054819Y-71442857D01*
X151054819Y-71442857D02*
X151054819Y-71347619D01*
X151054819Y-71347619D02*
X151007200Y-71204762D01*
X151007200Y-71204762D02*
X150911961Y-71109524D01*
X150911961Y-71109524D02*
X150816723Y-71061905D01*
X150816723Y-71061905D02*
X150626247Y-71014286D01*
X150626247Y-71014286D02*
X150483390Y-71014286D01*
X150483390Y-71014286D02*
X150292914Y-71061905D01*
X150292914Y-71061905D02*
X150197676Y-71109524D01*
X150197676Y-71109524D02*
X150102438Y-71204762D01*
X150102438Y-71204762D02*
X150054819Y-71347619D01*
X150054819Y-71347619D02*
X150054819Y-71442857D01*
X150054819Y-71442857D02*
X150102438Y-71585714D01*
X150102438Y-71585714D02*
X150150057Y-71633333D01*
X150054819Y-72490476D02*
X150054819Y-72300000D01*
X150054819Y-72300000D02*
X150102438Y-72204762D01*
X150102438Y-72204762D02*
X150150057Y-72157143D01*
X150150057Y-72157143D02*
X150292914Y-72061905D01*
X150292914Y-72061905D02*
X150483390Y-72014286D01*
X150483390Y-72014286D02*
X150864342Y-72014286D01*
X150864342Y-72014286D02*
X150959580Y-72061905D01*
X150959580Y-72061905D02*
X151007200Y-72109524D01*
X151007200Y-72109524D02*
X151054819Y-72204762D01*
X151054819Y-72204762D02*
X151054819Y-72395238D01*
X151054819Y-72395238D02*
X151007200Y-72490476D01*
X151007200Y-72490476D02*
X150959580Y-72538095D01*
X150959580Y-72538095D02*
X150864342Y-72585714D01*
X150864342Y-72585714D02*
X150626247Y-72585714D01*
X150626247Y-72585714D02*
X150531009Y-72538095D01*
X150531009Y-72538095D02*
X150483390Y-72490476D01*
X150483390Y-72490476D02*
X150435771Y-72395238D01*
X150435771Y-72395238D02*
X150435771Y-72204762D01*
X150435771Y-72204762D02*
X150483390Y-72109524D01*
X150483390Y-72109524D02*
X150531009Y-72061905D01*
X150531009Y-72061905D02*
X150626247Y-72014286D01*
X170988094Y-60204819D02*
X170988094Y-59204819D01*
X170988094Y-59204819D02*
X170749999Y-59204819D01*
X170749999Y-59204819D02*
X170607142Y-59252438D01*
X170607142Y-59252438D02*
X170511904Y-59347676D01*
X170511904Y-59347676D02*
X170464285Y-59442914D01*
X170464285Y-59442914D02*
X170416666Y-59633390D01*
X170416666Y-59633390D02*
X170416666Y-59776247D01*
X170416666Y-59776247D02*
X170464285Y-59966723D01*
X170464285Y-59966723D02*
X170511904Y-60061961D01*
X170511904Y-60061961D02*
X170607142Y-60157200D01*
X170607142Y-60157200D02*
X170749999Y-60204819D01*
X170749999Y-60204819D02*
X170988094Y-60204819D01*
X170083332Y-59204819D02*
X169464285Y-59204819D01*
X169464285Y-59204819D02*
X169797618Y-59585771D01*
X169797618Y-59585771D02*
X169654761Y-59585771D01*
X169654761Y-59585771D02*
X169559523Y-59633390D01*
X169559523Y-59633390D02*
X169511904Y-59681009D01*
X169511904Y-59681009D02*
X169464285Y-59776247D01*
X169464285Y-59776247D02*
X169464285Y-60014342D01*
X169464285Y-60014342D02*
X169511904Y-60109580D01*
X169511904Y-60109580D02*
X169559523Y-60157200D01*
X169559523Y-60157200D02*
X169654761Y-60204819D01*
X169654761Y-60204819D02*
X169940475Y-60204819D01*
X169940475Y-60204819D02*
X170035713Y-60157200D01*
X170035713Y-60157200D02*
X170083332Y-60109580D01*
X115359580Y-91107142D02*
X115407200Y-91059523D01*
X115407200Y-91059523D02*
X115454819Y-90916666D01*
X115454819Y-90916666D02*
X115454819Y-90821428D01*
X115454819Y-90821428D02*
X115407200Y-90678571D01*
X115407200Y-90678571D02*
X115311961Y-90583333D01*
X115311961Y-90583333D02*
X115216723Y-90535714D01*
X115216723Y-90535714D02*
X115026247Y-90488095D01*
X115026247Y-90488095D02*
X114883390Y-90488095D01*
X114883390Y-90488095D02*
X114692914Y-90535714D01*
X114692914Y-90535714D02*
X114597676Y-90583333D01*
X114597676Y-90583333D02*
X114502438Y-90678571D01*
X114502438Y-90678571D02*
X114454819Y-90821428D01*
X114454819Y-90821428D02*
X114454819Y-90916666D01*
X114454819Y-90916666D02*
X114502438Y-91059523D01*
X114502438Y-91059523D02*
X114550057Y-91107142D01*
X115454819Y-92059523D02*
X115454819Y-91488095D01*
X115454819Y-91773809D02*
X114454819Y-91773809D01*
X114454819Y-91773809D02*
X114597676Y-91678571D01*
X114597676Y-91678571D02*
X114692914Y-91583333D01*
X114692914Y-91583333D02*
X114740533Y-91488095D01*
X115454819Y-93011904D02*
X115454819Y-92440476D01*
X115454819Y-92726190D02*
X114454819Y-92726190D01*
X114454819Y-92726190D02*
X114597676Y-92630952D01*
X114597676Y-92630952D02*
X114692914Y-92535714D01*
X114692914Y-92535714D02*
X114740533Y-92440476D01*
X170359580Y-52633333D02*
X170407200Y-52585714D01*
X170407200Y-52585714D02*
X170454819Y-52442857D01*
X170454819Y-52442857D02*
X170454819Y-52347619D01*
X170454819Y-52347619D02*
X170407200Y-52204762D01*
X170407200Y-52204762D02*
X170311961Y-52109524D01*
X170311961Y-52109524D02*
X170216723Y-52061905D01*
X170216723Y-52061905D02*
X170026247Y-52014286D01*
X170026247Y-52014286D02*
X169883390Y-52014286D01*
X169883390Y-52014286D02*
X169692914Y-52061905D01*
X169692914Y-52061905D02*
X169597676Y-52109524D01*
X169597676Y-52109524D02*
X169502438Y-52204762D01*
X169502438Y-52204762D02*
X169454819Y-52347619D01*
X169454819Y-52347619D02*
X169454819Y-52442857D01*
X169454819Y-52442857D02*
X169502438Y-52585714D01*
X169502438Y-52585714D02*
X169550057Y-52633333D01*
X169454819Y-52966667D02*
X169454819Y-53585714D01*
X169454819Y-53585714D02*
X169835771Y-53252381D01*
X169835771Y-53252381D02*
X169835771Y-53395238D01*
X169835771Y-53395238D02*
X169883390Y-53490476D01*
X169883390Y-53490476D02*
X169931009Y-53538095D01*
X169931009Y-53538095D02*
X170026247Y-53585714D01*
X170026247Y-53585714D02*
X170264342Y-53585714D01*
X170264342Y-53585714D02*
X170359580Y-53538095D01*
X170359580Y-53538095D02*
X170407200Y-53490476D01*
X170407200Y-53490476D02*
X170454819Y-53395238D01*
X170454819Y-53395238D02*
X170454819Y-53109524D01*
X170454819Y-53109524D02*
X170407200Y-53014286D01*
X170407200Y-53014286D02*
X170359580Y-52966667D01*
X143150000Y-71666033D02*
X143150000Y-70966033D01*
X143150000Y-70966033D02*
X142983333Y-70966033D01*
X142983333Y-70966033D02*
X142883333Y-70999366D01*
X142883333Y-70999366D02*
X142816667Y-71066033D01*
X142816667Y-71066033D02*
X142783333Y-71132700D01*
X142783333Y-71132700D02*
X142750000Y-71266033D01*
X142750000Y-71266033D02*
X142750000Y-71366033D01*
X142750000Y-71366033D02*
X142783333Y-71499366D01*
X142783333Y-71499366D02*
X142816667Y-71566033D01*
X142816667Y-71566033D02*
X142883333Y-71632700D01*
X142883333Y-71632700D02*
X142983333Y-71666033D01*
X142983333Y-71666033D02*
X143150000Y-71666033D01*
X142083333Y-71666033D02*
X142483333Y-71666033D01*
X142283333Y-71666033D02*
X142283333Y-70966033D01*
X142283333Y-70966033D02*
X142350000Y-71066033D01*
X142350000Y-71066033D02*
X142416667Y-71132700D01*
X142416667Y-71132700D02*
X142483333Y-71166033D01*
X141683333Y-71266033D02*
X141750000Y-71232700D01*
X141750000Y-71232700D02*
X141783333Y-71199366D01*
X141783333Y-71199366D02*
X141816666Y-71132700D01*
X141816666Y-71132700D02*
X141816666Y-71099366D01*
X141816666Y-71099366D02*
X141783333Y-71032700D01*
X141783333Y-71032700D02*
X141750000Y-70999366D01*
X141750000Y-70999366D02*
X141683333Y-70966033D01*
X141683333Y-70966033D02*
X141550000Y-70966033D01*
X141550000Y-70966033D02*
X141483333Y-70999366D01*
X141483333Y-70999366D02*
X141450000Y-71032700D01*
X141450000Y-71032700D02*
X141416666Y-71099366D01*
X141416666Y-71099366D02*
X141416666Y-71132700D01*
X141416666Y-71132700D02*
X141450000Y-71199366D01*
X141450000Y-71199366D02*
X141483333Y-71232700D01*
X141483333Y-71232700D02*
X141550000Y-71266033D01*
X141550000Y-71266033D02*
X141683333Y-71266033D01*
X141683333Y-71266033D02*
X141750000Y-71299366D01*
X141750000Y-71299366D02*
X141783333Y-71332700D01*
X141783333Y-71332700D02*
X141816666Y-71399366D01*
X141816666Y-71399366D02*
X141816666Y-71532700D01*
X141816666Y-71532700D02*
X141783333Y-71599366D01*
X141783333Y-71599366D02*
X141750000Y-71632700D01*
X141750000Y-71632700D02*
X141683333Y-71666033D01*
X141683333Y-71666033D02*
X141550000Y-71666033D01*
X141550000Y-71666033D02*
X141483333Y-71632700D01*
X141483333Y-71632700D02*
X141450000Y-71599366D01*
X141450000Y-71599366D02*
X141416666Y-71532700D01*
X141416666Y-71532700D02*
X141416666Y-71399366D01*
X141416666Y-71399366D02*
X141450000Y-71332700D01*
X141450000Y-71332700D02*
X141483333Y-71299366D01*
X141483333Y-71299366D02*
X141550000Y-71266033D01*
X143150000Y-52616033D02*
X143150000Y-51916033D01*
X143150000Y-51916033D02*
X142983333Y-51916033D01*
X142983333Y-51916033D02*
X142883333Y-51949366D01*
X142883333Y-51949366D02*
X142816667Y-52016033D01*
X142816667Y-52016033D02*
X142783333Y-52082700D01*
X142783333Y-52082700D02*
X142750000Y-52216033D01*
X142750000Y-52216033D02*
X142750000Y-52316033D01*
X142750000Y-52316033D02*
X142783333Y-52449366D01*
X142783333Y-52449366D02*
X142816667Y-52516033D01*
X142816667Y-52516033D02*
X142883333Y-52582700D01*
X142883333Y-52582700D02*
X142983333Y-52616033D01*
X142983333Y-52616033D02*
X143150000Y-52616033D01*
X142083333Y-52616033D02*
X142483333Y-52616033D01*
X142283333Y-52616033D02*
X142283333Y-51916033D01*
X142283333Y-51916033D02*
X142350000Y-52016033D01*
X142350000Y-52016033D02*
X142416667Y-52082700D01*
X142416667Y-52082700D02*
X142483333Y-52116033D01*
X141483333Y-52149366D02*
X141483333Y-52616033D01*
X141650000Y-51882700D02*
X141816666Y-52382700D01*
X141816666Y-52382700D02*
X141383333Y-52382700D01*
X124100000Y-52616033D02*
X124100000Y-51916033D01*
X124100000Y-51916033D02*
X123933333Y-51916033D01*
X123933333Y-51916033D02*
X123833333Y-51949366D01*
X123833333Y-51949366D02*
X123766667Y-52016033D01*
X123766667Y-52016033D02*
X123733333Y-52082700D01*
X123733333Y-52082700D02*
X123700000Y-52216033D01*
X123700000Y-52216033D02*
X123700000Y-52316033D01*
X123700000Y-52316033D02*
X123733333Y-52449366D01*
X123733333Y-52449366D02*
X123766667Y-52516033D01*
X123766667Y-52516033D02*
X123833333Y-52582700D01*
X123833333Y-52582700D02*
X123933333Y-52616033D01*
X123933333Y-52616033D02*
X124100000Y-52616033D01*
X123033333Y-52616033D02*
X123433333Y-52616033D01*
X123233333Y-52616033D02*
X123233333Y-51916033D01*
X123233333Y-51916033D02*
X123300000Y-52016033D01*
X123300000Y-52016033D02*
X123366667Y-52082700D01*
X123366667Y-52082700D02*
X123433333Y-52116033D01*
X122800000Y-51916033D02*
X122366666Y-51916033D01*
X122366666Y-51916033D02*
X122600000Y-52182700D01*
X122600000Y-52182700D02*
X122500000Y-52182700D01*
X122500000Y-52182700D02*
X122433333Y-52216033D01*
X122433333Y-52216033D02*
X122400000Y-52249366D01*
X122400000Y-52249366D02*
X122366666Y-52316033D01*
X122366666Y-52316033D02*
X122366666Y-52482700D01*
X122366666Y-52482700D02*
X122400000Y-52549366D01*
X122400000Y-52549366D02*
X122433333Y-52582700D01*
X122433333Y-52582700D02*
X122500000Y-52616033D01*
X122500000Y-52616033D02*
X122700000Y-52616033D01*
X122700000Y-52616033D02*
X122766666Y-52582700D01*
X122766666Y-52582700D02*
X122800000Y-52549366D01*
X124100000Y-71666033D02*
X124100000Y-70966033D01*
X124100000Y-70966033D02*
X123933333Y-70966033D01*
X123933333Y-70966033D02*
X123833333Y-70999366D01*
X123833333Y-70999366D02*
X123766667Y-71066033D01*
X123766667Y-71066033D02*
X123733333Y-71132700D01*
X123733333Y-71132700D02*
X123700000Y-71266033D01*
X123700000Y-71266033D02*
X123700000Y-71366033D01*
X123700000Y-71366033D02*
X123733333Y-71499366D01*
X123733333Y-71499366D02*
X123766667Y-71566033D01*
X123766667Y-71566033D02*
X123833333Y-71632700D01*
X123833333Y-71632700D02*
X123933333Y-71666033D01*
X123933333Y-71666033D02*
X124100000Y-71666033D01*
X123033333Y-71666033D02*
X123433333Y-71666033D01*
X123233333Y-71666033D02*
X123233333Y-70966033D01*
X123233333Y-70966033D02*
X123300000Y-71066033D01*
X123300000Y-71066033D02*
X123366667Y-71132700D01*
X123366667Y-71132700D02*
X123433333Y-71166033D01*
X122800000Y-70966033D02*
X122333333Y-70966033D01*
X122333333Y-70966033D02*
X122633333Y-71666033D01*
X162388094Y-102254819D02*
X162388094Y-101254819D01*
X162388094Y-101254819D02*
X162149999Y-101254819D01*
X162149999Y-101254819D02*
X162007142Y-101302438D01*
X162007142Y-101302438D02*
X161911904Y-101397676D01*
X161911904Y-101397676D02*
X161864285Y-101492914D01*
X161864285Y-101492914D02*
X161816666Y-101683390D01*
X161816666Y-101683390D02*
X161816666Y-101826247D01*
X161816666Y-101826247D02*
X161864285Y-102016723D01*
X161864285Y-102016723D02*
X161911904Y-102111961D01*
X161911904Y-102111961D02*
X162007142Y-102207200D01*
X162007142Y-102207200D02*
X162149999Y-102254819D01*
X162149999Y-102254819D02*
X162388094Y-102254819D01*
X161340475Y-102254819D02*
X161149999Y-102254819D01*
X161149999Y-102254819D02*
X161054761Y-102207200D01*
X161054761Y-102207200D02*
X161007142Y-102159580D01*
X161007142Y-102159580D02*
X160911904Y-102016723D01*
X160911904Y-102016723D02*
X160864285Y-101826247D01*
X160864285Y-101826247D02*
X160864285Y-101445295D01*
X160864285Y-101445295D02*
X160911904Y-101350057D01*
X160911904Y-101350057D02*
X160959523Y-101302438D01*
X160959523Y-101302438D02*
X161054761Y-101254819D01*
X161054761Y-101254819D02*
X161245237Y-101254819D01*
X161245237Y-101254819D02*
X161340475Y-101302438D01*
X161340475Y-101302438D02*
X161388094Y-101350057D01*
X161388094Y-101350057D02*
X161435713Y-101445295D01*
X161435713Y-101445295D02*
X161435713Y-101683390D01*
X161435713Y-101683390D02*
X161388094Y-101778628D01*
X161388094Y-101778628D02*
X161340475Y-101826247D01*
X161340475Y-101826247D02*
X161245237Y-101873866D01*
X161245237Y-101873866D02*
X161054761Y-101873866D01*
X161054761Y-101873866D02*
X160959523Y-101826247D01*
X160959523Y-101826247D02*
X160911904Y-101778628D01*
X160911904Y-101778628D02*
X160864285Y-101683390D01*
X117850849Y-98309961D02*
X117850849Y-99638988D01*
X117850849Y-99638988D02*
X117772671Y-99795344D01*
X117772671Y-99795344D02*
X117694493Y-99873523D01*
X117694493Y-99873523D02*
X117538137Y-99951701D01*
X117538137Y-99951701D02*
X117225424Y-99951701D01*
X117225424Y-99951701D02*
X117069068Y-99873523D01*
X117069068Y-99873523D02*
X116990890Y-99795344D01*
X116990890Y-99795344D02*
X116912712Y-99638988D01*
X116912712Y-99638988D02*
X116912712Y-98309961D01*
X115270972Y-99951701D02*
X116209109Y-99951701D01*
X115740041Y-99951701D02*
X115740041Y-98309961D01*
X115740041Y-98309961D02*
X115896397Y-98544495D01*
X115896397Y-98544495D02*
X116052753Y-98700851D01*
X116052753Y-98700851D02*
X116209109Y-98779029D01*
X162200000Y-52616033D02*
X162200000Y-51916033D01*
X162200000Y-51916033D02*
X162033333Y-51916033D01*
X162033333Y-51916033D02*
X161933333Y-51949366D01*
X161933333Y-51949366D02*
X161866667Y-52016033D01*
X161866667Y-52016033D02*
X161833333Y-52082700D01*
X161833333Y-52082700D02*
X161800000Y-52216033D01*
X161800000Y-52216033D02*
X161800000Y-52316033D01*
X161800000Y-52316033D02*
X161833333Y-52449366D01*
X161833333Y-52449366D02*
X161866667Y-52516033D01*
X161866667Y-52516033D02*
X161933333Y-52582700D01*
X161933333Y-52582700D02*
X162033333Y-52616033D01*
X162033333Y-52616033D02*
X162200000Y-52616033D01*
X161133333Y-52616033D02*
X161533333Y-52616033D01*
X161333333Y-52616033D02*
X161333333Y-51916033D01*
X161333333Y-51916033D02*
X161400000Y-52016033D01*
X161400000Y-52016033D02*
X161466667Y-52082700D01*
X161466667Y-52082700D02*
X161533333Y-52116033D01*
X160500000Y-51916033D02*
X160833333Y-51916033D01*
X160833333Y-51916033D02*
X160866666Y-52249366D01*
X160866666Y-52249366D02*
X160833333Y-52216033D01*
X160833333Y-52216033D02*
X160766666Y-52182700D01*
X160766666Y-52182700D02*
X160600000Y-52182700D01*
X160600000Y-52182700D02*
X160533333Y-52216033D01*
X160533333Y-52216033D02*
X160500000Y-52249366D01*
X160500000Y-52249366D02*
X160466666Y-52316033D01*
X160466666Y-52316033D02*
X160466666Y-52482700D01*
X160466666Y-52482700D02*
X160500000Y-52549366D01*
X160500000Y-52549366D02*
X160533333Y-52582700D01*
X160533333Y-52582700D02*
X160600000Y-52616033D01*
X160600000Y-52616033D02*
X160766666Y-52616033D01*
X160766666Y-52616033D02*
X160833333Y-52582700D01*
X160833333Y-52582700D02*
X160866666Y-52549366D01*
X170014285Y-106354819D02*
X170014285Y-105354819D01*
X170014285Y-105354819D02*
X169776190Y-105354819D01*
X169776190Y-105354819D02*
X169633333Y-105402438D01*
X169633333Y-105402438D02*
X169538095Y-105497676D01*
X169538095Y-105497676D02*
X169490476Y-105592914D01*
X169490476Y-105592914D02*
X169442857Y-105783390D01*
X169442857Y-105783390D02*
X169442857Y-105926247D01*
X169442857Y-105926247D02*
X169490476Y-106116723D01*
X169490476Y-106116723D02*
X169538095Y-106211961D01*
X169538095Y-106211961D02*
X169633333Y-106307200D01*
X169633333Y-106307200D02*
X169776190Y-106354819D01*
X169776190Y-106354819D02*
X170014285Y-106354819D01*
X168490476Y-106354819D02*
X169061904Y-106354819D01*
X168776190Y-106354819D02*
X168776190Y-105354819D01*
X168776190Y-105354819D02*
X168871428Y-105497676D01*
X168871428Y-105497676D02*
X168966666Y-105592914D01*
X168966666Y-105592914D02*
X169061904Y-105640533D01*
X167538095Y-106354819D02*
X168109523Y-106354819D01*
X167823809Y-106354819D02*
X167823809Y-105354819D01*
X167823809Y-105354819D02*
X167919047Y-105497676D01*
X167919047Y-105497676D02*
X168014285Y-105592914D01*
X168014285Y-105592914D02*
X168109523Y-105640533D01*
X151159580Y-52358333D02*
X151207200Y-52310714D01*
X151207200Y-52310714D02*
X151254819Y-52167857D01*
X151254819Y-52167857D02*
X151254819Y-52072619D01*
X151254819Y-52072619D02*
X151207200Y-51929762D01*
X151207200Y-51929762D02*
X151111961Y-51834524D01*
X151111961Y-51834524D02*
X151016723Y-51786905D01*
X151016723Y-51786905D02*
X150826247Y-51739286D01*
X150826247Y-51739286D02*
X150683390Y-51739286D01*
X150683390Y-51739286D02*
X150492914Y-51786905D01*
X150492914Y-51786905D02*
X150397676Y-51834524D01*
X150397676Y-51834524D02*
X150302438Y-51929762D01*
X150302438Y-51929762D02*
X150254819Y-52072619D01*
X150254819Y-52072619D02*
X150254819Y-52167857D01*
X150254819Y-52167857D02*
X150302438Y-52310714D01*
X150302438Y-52310714D02*
X150350057Y-52358333D01*
X150350057Y-52739286D02*
X150302438Y-52786905D01*
X150302438Y-52786905D02*
X150254819Y-52882143D01*
X150254819Y-52882143D02*
X150254819Y-53120238D01*
X150254819Y-53120238D02*
X150302438Y-53215476D01*
X150302438Y-53215476D02*
X150350057Y-53263095D01*
X150350057Y-53263095D02*
X150445295Y-53310714D01*
X150445295Y-53310714D02*
X150540533Y-53310714D01*
X150540533Y-53310714D02*
X150683390Y-53263095D01*
X150683390Y-53263095D02*
X151254819Y-52691667D01*
X151254819Y-52691667D02*
X151254819Y-53310714D01*
X155304166Y-98954819D02*
X155637499Y-98478628D01*
X155875594Y-98954819D02*
X155875594Y-97954819D01*
X155875594Y-97954819D02*
X155494642Y-97954819D01*
X155494642Y-97954819D02*
X155399404Y-98002438D01*
X155399404Y-98002438D02*
X155351785Y-98050057D01*
X155351785Y-98050057D02*
X155304166Y-98145295D01*
X155304166Y-98145295D02*
X155304166Y-98288152D01*
X155304166Y-98288152D02*
X155351785Y-98383390D01*
X155351785Y-98383390D02*
X155399404Y-98431009D01*
X155399404Y-98431009D02*
X155494642Y-98478628D01*
X155494642Y-98478628D02*
X155875594Y-98478628D01*
X154923213Y-98050057D02*
X154875594Y-98002438D01*
X154875594Y-98002438D02*
X154780356Y-97954819D01*
X154780356Y-97954819D02*
X154542261Y-97954819D01*
X154542261Y-97954819D02*
X154447023Y-98002438D01*
X154447023Y-98002438D02*
X154399404Y-98050057D01*
X154399404Y-98050057D02*
X154351785Y-98145295D01*
X154351785Y-98145295D02*
X154351785Y-98240533D01*
X154351785Y-98240533D02*
X154399404Y-98383390D01*
X154399404Y-98383390D02*
X154970832Y-98954819D01*
X154970832Y-98954819D02*
X154351785Y-98954819D01*
X187642857Y-90009580D02*
X187690476Y-90057200D01*
X187690476Y-90057200D02*
X187833333Y-90104819D01*
X187833333Y-90104819D02*
X187928571Y-90104819D01*
X187928571Y-90104819D02*
X188071428Y-90057200D01*
X188071428Y-90057200D02*
X188166666Y-89961961D01*
X188166666Y-89961961D02*
X188214285Y-89866723D01*
X188214285Y-89866723D02*
X188261904Y-89676247D01*
X188261904Y-89676247D02*
X188261904Y-89533390D01*
X188261904Y-89533390D02*
X188214285Y-89342914D01*
X188214285Y-89342914D02*
X188166666Y-89247676D01*
X188166666Y-89247676D02*
X188071428Y-89152438D01*
X188071428Y-89152438D02*
X187928571Y-89104819D01*
X187928571Y-89104819D02*
X187833333Y-89104819D01*
X187833333Y-89104819D02*
X187690476Y-89152438D01*
X187690476Y-89152438D02*
X187642857Y-89200057D01*
X186690476Y-90104819D02*
X187261904Y-90104819D01*
X186976190Y-90104819D02*
X186976190Y-89104819D01*
X186976190Y-89104819D02*
X187071428Y-89247676D01*
X187071428Y-89247676D02*
X187166666Y-89342914D01*
X187166666Y-89342914D02*
X187261904Y-89390533D01*
X185833333Y-89104819D02*
X186023809Y-89104819D01*
X186023809Y-89104819D02*
X186119047Y-89152438D01*
X186119047Y-89152438D02*
X186166666Y-89200057D01*
X186166666Y-89200057D02*
X186261904Y-89342914D01*
X186261904Y-89342914D02*
X186309523Y-89533390D01*
X186309523Y-89533390D02*
X186309523Y-89914342D01*
X186309523Y-89914342D02*
X186261904Y-90009580D01*
X186261904Y-90009580D02*
X186214285Y-90057200D01*
X186214285Y-90057200D02*
X186119047Y-90104819D01*
X186119047Y-90104819D02*
X185928571Y-90104819D01*
X185928571Y-90104819D02*
X185833333Y-90057200D01*
X185833333Y-90057200D02*
X185785714Y-90009580D01*
X185785714Y-90009580D02*
X185738095Y-89914342D01*
X185738095Y-89914342D02*
X185738095Y-89676247D01*
X185738095Y-89676247D02*
X185785714Y-89581009D01*
X185785714Y-89581009D02*
X185833333Y-89533390D01*
X185833333Y-89533390D02*
X185928571Y-89485771D01*
X185928571Y-89485771D02*
X186119047Y-89485771D01*
X186119047Y-89485771D02*
X186214285Y-89533390D01*
X186214285Y-89533390D02*
X186261904Y-89581009D01*
X186261904Y-89581009D02*
X186309523Y-89676247D01*
X173738094Y-60204819D02*
X173738094Y-59204819D01*
X173738094Y-59204819D02*
X173499999Y-59204819D01*
X173499999Y-59204819D02*
X173357142Y-59252438D01*
X173357142Y-59252438D02*
X173261904Y-59347676D01*
X173261904Y-59347676D02*
X173214285Y-59442914D01*
X173214285Y-59442914D02*
X173166666Y-59633390D01*
X173166666Y-59633390D02*
X173166666Y-59776247D01*
X173166666Y-59776247D02*
X173214285Y-59966723D01*
X173214285Y-59966723D02*
X173261904Y-60061961D01*
X173261904Y-60061961D02*
X173357142Y-60157200D01*
X173357142Y-60157200D02*
X173499999Y-60204819D01*
X173499999Y-60204819D02*
X173738094Y-60204819D01*
X172309523Y-59538152D02*
X172309523Y-60204819D01*
X172547618Y-59157200D02*
X172785713Y-59871485D01*
X172785713Y-59871485D02*
X172166666Y-59871485D01*
X170159580Y-71433333D02*
X170207200Y-71385714D01*
X170207200Y-71385714D02*
X170254819Y-71242857D01*
X170254819Y-71242857D02*
X170254819Y-71147619D01*
X170254819Y-71147619D02*
X170207200Y-71004762D01*
X170207200Y-71004762D02*
X170111961Y-70909524D01*
X170111961Y-70909524D02*
X170016723Y-70861905D01*
X170016723Y-70861905D02*
X169826247Y-70814286D01*
X169826247Y-70814286D02*
X169683390Y-70814286D01*
X169683390Y-70814286D02*
X169492914Y-70861905D01*
X169492914Y-70861905D02*
X169397676Y-70909524D01*
X169397676Y-70909524D02*
X169302438Y-71004762D01*
X169302438Y-71004762D02*
X169254819Y-71147619D01*
X169254819Y-71147619D02*
X169254819Y-71242857D01*
X169254819Y-71242857D02*
X169302438Y-71385714D01*
X169302438Y-71385714D02*
X169350057Y-71433333D01*
X169254819Y-71766667D02*
X169254819Y-72433333D01*
X169254819Y-72433333D02*
X170254819Y-72004762D01*
X129454819Y-107385714D02*
X128454819Y-107385714D01*
X128454819Y-107385714D02*
X128454819Y-107623809D01*
X128454819Y-107623809D02*
X128502438Y-107766666D01*
X128502438Y-107766666D02*
X128597676Y-107861904D01*
X128597676Y-107861904D02*
X128692914Y-107909523D01*
X128692914Y-107909523D02*
X128883390Y-107957142D01*
X128883390Y-107957142D02*
X129026247Y-107957142D01*
X129026247Y-107957142D02*
X129216723Y-107909523D01*
X129216723Y-107909523D02*
X129311961Y-107861904D01*
X129311961Y-107861904D02*
X129407200Y-107766666D01*
X129407200Y-107766666D02*
X129454819Y-107623809D01*
X129454819Y-107623809D02*
X129454819Y-107385714D01*
X129454819Y-108909523D02*
X129454819Y-108338095D01*
X129454819Y-108623809D02*
X128454819Y-108623809D01*
X128454819Y-108623809D02*
X128597676Y-108528571D01*
X128597676Y-108528571D02*
X128692914Y-108433333D01*
X128692914Y-108433333D02*
X128740533Y-108338095D01*
X128550057Y-109290476D02*
X128502438Y-109338095D01*
X128502438Y-109338095D02*
X128454819Y-109433333D01*
X128454819Y-109433333D02*
X128454819Y-109671428D01*
X128454819Y-109671428D02*
X128502438Y-109766666D01*
X128502438Y-109766666D02*
X128550057Y-109814285D01*
X128550057Y-109814285D02*
X128645295Y-109861904D01*
X128645295Y-109861904D02*
X128740533Y-109861904D01*
X128740533Y-109861904D02*
X128883390Y-109814285D01*
X128883390Y-109814285D02*
X129454819Y-109242857D01*
X129454819Y-109242857D02*
X129454819Y-109861904D01*
X127767857Y-86109580D02*
X127815476Y-86157200D01*
X127815476Y-86157200D02*
X127958333Y-86204819D01*
X127958333Y-86204819D02*
X128053571Y-86204819D01*
X128053571Y-86204819D02*
X128196428Y-86157200D01*
X128196428Y-86157200D02*
X128291666Y-86061961D01*
X128291666Y-86061961D02*
X128339285Y-85966723D01*
X128339285Y-85966723D02*
X128386904Y-85776247D01*
X128386904Y-85776247D02*
X128386904Y-85633390D01*
X128386904Y-85633390D02*
X128339285Y-85442914D01*
X128339285Y-85442914D02*
X128291666Y-85347676D01*
X128291666Y-85347676D02*
X128196428Y-85252438D01*
X128196428Y-85252438D02*
X128053571Y-85204819D01*
X128053571Y-85204819D02*
X127958333Y-85204819D01*
X127958333Y-85204819D02*
X127815476Y-85252438D01*
X127815476Y-85252438D02*
X127767857Y-85300057D01*
X126815476Y-86204819D02*
X127386904Y-86204819D01*
X127101190Y-86204819D02*
X127101190Y-85204819D01*
X127101190Y-85204819D02*
X127196428Y-85347676D01*
X127196428Y-85347676D02*
X127291666Y-85442914D01*
X127291666Y-85442914D02*
X127386904Y-85490533D01*
X126434523Y-85300057D02*
X126386904Y-85252438D01*
X126386904Y-85252438D02*
X126291666Y-85204819D01*
X126291666Y-85204819D02*
X126053571Y-85204819D01*
X126053571Y-85204819D02*
X125958333Y-85252438D01*
X125958333Y-85252438D02*
X125910714Y-85300057D01*
X125910714Y-85300057D02*
X125863095Y-85395295D01*
X125863095Y-85395295D02*
X125863095Y-85490533D01*
X125863095Y-85490533D02*
X125910714Y-85633390D01*
X125910714Y-85633390D02*
X126482142Y-86204819D01*
X126482142Y-86204819D02*
X125863095Y-86204819D01*
D12*
X180356985Y-94297666D02*
X181076652Y-94297666D01*
X181076652Y-94297666D02*
X181161318Y-94340000D01*
X181161318Y-94340000D02*
X181203652Y-94382333D01*
X181203652Y-94382333D02*
X181245985Y-94467000D01*
X181245985Y-94467000D02*
X181245985Y-94636333D01*
X181245985Y-94636333D02*
X181203652Y-94721000D01*
X181203652Y-94721000D02*
X181161318Y-94763333D01*
X181161318Y-94763333D02*
X181076652Y-94805666D01*
X181076652Y-94805666D02*
X180356985Y-94805666D01*
X180441652Y-95186666D02*
X180399318Y-95228999D01*
X180399318Y-95228999D02*
X180356985Y-95313666D01*
X180356985Y-95313666D02*
X180356985Y-95525333D01*
X180356985Y-95525333D02*
X180399318Y-95609999D01*
X180399318Y-95609999D02*
X180441652Y-95652333D01*
X180441652Y-95652333D02*
X180526318Y-95694666D01*
X180526318Y-95694666D02*
X180610985Y-95694666D01*
X180610985Y-95694666D02*
X180737985Y-95652333D01*
X180737985Y-95652333D02*
X181245985Y-95144333D01*
X181245985Y-95144333D02*
X181245985Y-95694666D01*
D11*
X191842800Y-99736904D02*
X191795180Y-99594047D01*
X191795180Y-99594047D02*
X191795180Y-99355952D01*
X191795180Y-99355952D02*
X191842800Y-99260714D01*
X191842800Y-99260714D02*
X191890419Y-99213095D01*
X191890419Y-99213095D02*
X191985657Y-99165476D01*
X191985657Y-99165476D02*
X192080895Y-99165476D01*
X192080895Y-99165476D02*
X192176133Y-99213095D01*
X192176133Y-99213095D02*
X192223752Y-99260714D01*
X192223752Y-99260714D02*
X192271371Y-99355952D01*
X192271371Y-99355952D02*
X192318990Y-99546428D01*
X192318990Y-99546428D02*
X192366609Y-99641666D01*
X192366609Y-99641666D02*
X192414228Y-99689285D01*
X192414228Y-99689285D02*
X192509466Y-99736904D01*
X192509466Y-99736904D02*
X192604704Y-99736904D01*
X192604704Y-99736904D02*
X192699942Y-99689285D01*
X192699942Y-99689285D02*
X192747561Y-99641666D01*
X192747561Y-99641666D02*
X192795180Y-99546428D01*
X192795180Y-99546428D02*
X192795180Y-99308333D01*
X192795180Y-99308333D02*
X192747561Y-99165476D01*
X191842800Y-98355952D02*
X191795180Y-98451190D01*
X191795180Y-98451190D02*
X191795180Y-98641666D01*
X191795180Y-98641666D02*
X191842800Y-98736904D01*
X191842800Y-98736904D02*
X191938038Y-98784523D01*
X191938038Y-98784523D02*
X192318990Y-98784523D01*
X192318990Y-98784523D02*
X192414228Y-98736904D01*
X192414228Y-98736904D02*
X192461847Y-98641666D01*
X192461847Y-98641666D02*
X192461847Y-98451190D01*
X192461847Y-98451190D02*
X192414228Y-98355952D01*
X192414228Y-98355952D02*
X192318990Y-98308333D01*
X192318990Y-98308333D02*
X192223752Y-98308333D01*
X192223752Y-98308333D02*
X192128514Y-98784523D01*
X191842800Y-97498809D02*
X191795180Y-97594047D01*
X191795180Y-97594047D02*
X191795180Y-97784523D01*
X191795180Y-97784523D02*
X191842800Y-97879761D01*
X191842800Y-97879761D02*
X191938038Y-97927380D01*
X191938038Y-97927380D02*
X192318990Y-97927380D01*
X192318990Y-97927380D02*
X192414228Y-97879761D01*
X192414228Y-97879761D02*
X192461847Y-97784523D01*
X192461847Y-97784523D02*
X192461847Y-97594047D01*
X192461847Y-97594047D02*
X192414228Y-97498809D01*
X192414228Y-97498809D02*
X192318990Y-97451190D01*
X192318990Y-97451190D02*
X192223752Y-97451190D01*
X192223752Y-97451190D02*
X192128514Y-97927380D01*
X191842800Y-96641666D02*
X191795180Y-96736904D01*
X191795180Y-96736904D02*
X191795180Y-96927380D01*
X191795180Y-96927380D02*
X191842800Y-97022618D01*
X191842800Y-97022618D02*
X191938038Y-97070237D01*
X191938038Y-97070237D02*
X192318990Y-97070237D01*
X192318990Y-97070237D02*
X192414228Y-97022618D01*
X192414228Y-97022618D02*
X192461847Y-96927380D01*
X192461847Y-96927380D02*
X192461847Y-96736904D01*
X192461847Y-96736904D02*
X192414228Y-96641666D01*
X192414228Y-96641666D02*
X192318990Y-96594047D01*
X192318990Y-96594047D02*
X192223752Y-96594047D01*
X192223752Y-96594047D02*
X192128514Y-97070237D01*
X191795180Y-95736904D02*
X192795180Y-95736904D01*
X191842800Y-95736904D02*
X191795180Y-95832142D01*
X191795180Y-95832142D02*
X191795180Y-96022618D01*
X191795180Y-96022618D02*
X191842800Y-96117856D01*
X191842800Y-96117856D02*
X191890419Y-96165475D01*
X191890419Y-96165475D02*
X191985657Y-96213094D01*
X191985657Y-96213094D02*
X192271371Y-96213094D01*
X192271371Y-96213094D02*
X192366609Y-96165475D01*
X192366609Y-96165475D02*
X192414228Y-96117856D01*
X192414228Y-96117856D02*
X192461847Y-96022618D01*
X192461847Y-96022618D02*
X192461847Y-95832142D01*
X192461847Y-95832142D02*
X192414228Y-95736904D01*
X191842800Y-94546427D02*
X191795180Y-94403570D01*
X191795180Y-94403570D02*
X191795180Y-94165475D01*
X191795180Y-94165475D02*
X191842800Y-94070237D01*
X191842800Y-94070237D02*
X191890419Y-94022618D01*
X191890419Y-94022618D02*
X191985657Y-93974999D01*
X191985657Y-93974999D02*
X192080895Y-93974999D01*
X192080895Y-93974999D02*
X192176133Y-94022618D01*
X192176133Y-94022618D02*
X192223752Y-94070237D01*
X192223752Y-94070237D02*
X192271371Y-94165475D01*
X192271371Y-94165475D02*
X192318990Y-94355951D01*
X192318990Y-94355951D02*
X192366609Y-94451189D01*
X192366609Y-94451189D02*
X192414228Y-94498808D01*
X192414228Y-94498808D02*
X192509466Y-94546427D01*
X192509466Y-94546427D02*
X192604704Y-94546427D01*
X192604704Y-94546427D02*
X192699942Y-94498808D01*
X192699942Y-94498808D02*
X192747561Y-94451189D01*
X192747561Y-94451189D02*
X192795180Y-94355951D01*
X192795180Y-94355951D02*
X192795180Y-94117856D01*
X192795180Y-94117856D02*
X192747561Y-93974999D01*
X192461847Y-93689284D02*
X192461847Y-93308332D01*
X192795180Y-93546427D02*
X191938038Y-93546427D01*
X191938038Y-93546427D02*
X191842800Y-93498808D01*
X191842800Y-93498808D02*
X191795180Y-93403570D01*
X191795180Y-93403570D02*
X191795180Y-93308332D01*
X192461847Y-92546427D02*
X191795180Y-92546427D01*
X192461847Y-92974998D02*
X191938038Y-92974998D01*
X191938038Y-92974998D02*
X191842800Y-92927379D01*
X191842800Y-92927379D02*
X191795180Y-92832141D01*
X191795180Y-92832141D02*
X191795180Y-92689284D01*
X191795180Y-92689284D02*
X191842800Y-92594046D01*
X191842800Y-92594046D02*
X191890419Y-92546427D01*
X191795180Y-91641665D02*
X192795180Y-91641665D01*
X191842800Y-91641665D02*
X191795180Y-91736903D01*
X191795180Y-91736903D02*
X191795180Y-91927379D01*
X191795180Y-91927379D02*
X191842800Y-92022617D01*
X191842800Y-92022617D02*
X191890419Y-92070236D01*
X191890419Y-92070236D02*
X191985657Y-92117855D01*
X191985657Y-92117855D02*
X192271371Y-92117855D01*
X192271371Y-92117855D02*
X192366609Y-92070236D01*
X192366609Y-92070236D02*
X192414228Y-92022617D01*
X192414228Y-92022617D02*
X192461847Y-91927379D01*
X192461847Y-91927379D02*
X192461847Y-91736903D01*
X192461847Y-91736903D02*
X192414228Y-91641665D01*
X191795180Y-91165474D02*
X192461847Y-91165474D01*
X192795180Y-91165474D02*
X192747561Y-91213093D01*
X192747561Y-91213093D02*
X192699942Y-91165474D01*
X192699942Y-91165474D02*
X192747561Y-91117855D01*
X192747561Y-91117855D02*
X192795180Y-91165474D01*
X192795180Y-91165474D02*
X192699942Y-91165474D01*
X191795180Y-90546427D02*
X191842800Y-90641665D01*
X191842800Y-90641665D02*
X191890419Y-90689284D01*
X191890419Y-90689284D02*
X191985657Y-90736903D01*
X191985657Y-90736903D02*
X192271371Y-90736903D01*
X192271371Y-90736903D02*
X192366609Y-90689284D01*
X192366609Y-90689284D02*
X192414228Y-90641665D01*
X192414228Y-90641665D02*
X192461847Y-90546427D01*
X192461847Y-90546427D02*
X192461847Y-90403570D01*
X192461847Y-90403570D02*
X192414228Y-90308332D01*
X192414228Y-90308332D02*
X192366609Y-90260713D01*
X192366609Y-90260713D02*
X192271371Y-90213094D01*
X192271371Y-90213094D02*
X191985657Y-90213094D01*
X191985657Y-90213094D02*
X191890419Y-90260713D01*
X191890419Y-90260713D02*
X191842800Y-90308332D01*
X191842800Y-90308332D02*
X191795180Y-90403570D01*
X191795180Y-90403570D02*
X191795180Y-90546427D01*
X191295180Y-96523808D02*
X190295180Y-95857142D01*
X191295180Y-95857142D02*
X190295180Y-96523808D01*
X190295180Y-95476189D02*
X191295180Y-95476189D01*
X190580895Y-95047618D02*
X190580895Y-94571428D01*
X190295180Y-95142856D02*
X191295180Y-94809523D01*
X191295180Y-94809523D02*
X190295180Y-94476190D01*
X191295180Y-93952380D02*
X191295180Y-93761904D01*
X191295180Y-93761904D02*
X191247561Y-93666666D01*
X191247561Y-93666666D02*
X191152323Y-93571428D01*
X191152323Y-93571428D02*
X190961847Y-93523809D01*
X190961847Y-93523809D02*
X190628514Y-93523809D01*
X190628514Y-93523809D02*
X190438038Y-93571428D01*
X190438038Y-93571428D02*
X190342800Y-93666666D01*
X190342800Y-93666666D02*
X190295180Y-93761904D01*
X190295180Y-93761904D02*
X190295180Y-93952380D01*
X190295180Y-93952380D02*
X190342800Y-94047618D01*
X190342800Y-94047618D02*
X190438038Y-94142856D01*
X190438038Y-94142856D02*
X190628514Y-94190475D01*
X190628514Y-94190475D02*
X190961847Y-94190475D01*
X190961847Y-94190475D02*
X191152323Y-94142856D01*
X191152323Y-94142856D02*
X191247561Y-94047618D01*
X191247561Y-94047618D02*
X191295180Y-93952380D01*
X185509580Y-52558333D02*
X185557200Y-52510714D01*
X185557200Y-52510714D02*
X185604819Y-52367857D01*
X185604819Y-52367857D02*
X185604819Y-52272619D01*
X185604819Y-52272619D02*
X185557200Y-52129762D01*
X185557200Y-52129762D02*
X185461961Y-52034524D01*
X185461961Y-52034524D02*
X185366723Y-51986905D01*
X185366723Y-51986905D02*
X185176247Y-51939286D01*
X185176247Y-51939286D02*
X185033390Y-51939286D01*
X185033390Y-51939286D02*
X184842914Y-51986905D01*
X184842914Y-51986905D02*
X184747676Y-52034524D01*
X184747676Y-52034524D02*
X184652438Y-52129762D01*
X184652438Y-52129762D02*
X184604819Y-52272619D01*
X184604819Y-52272619D02*
X184604819Y-52367857D01*
X184604819Y-52367857D02*
X184652438Y-52510714D01*
X184652438Y-52510714D02*
X184700057Y-52558333D01*
X184938152Y-53415476D02*
X185604819Y-53415476D01*
X184557200Y-53177381D02*
X185271485Y-52939286D01*
X185271485Y-52939286D02*
X185271485Y-53558333D01*
X162120000Y-112746033D02*
X162120000Y-112046033D01*
X162120000Y-112046033D02*
X161953333Y-112046033D01*
X161953333Y-112046033D02*
X161853333Y-112079366D01*
X161853333Y-112079366D02*
X161786667Y-112146033D01*
X161786667Y-112146033D02*
X161753333Y-112212700D01*
X161753333Y-112212700D02*
X161720000Y-112346033D01*
X161720000Y-112346033D02*
X161720000Y-112446033D01*
X161720000Y-112446033D02*
X161753333Y-112579366D01*
X161753333Y-112579366D02*
X161786667Y-112646033D01*
X161786667Y-112646033D02*
X161853333Y-112712700D01*
X161853333Y-112712700D02*
X161953333Y-112746033D01*
X161953333Y-112746033D02*
X162120000Y-112746033D01*
X161453333Y-112112700D02*
X161420000Y-112079366D01*
X161420000Y-112079366D02*
X161353333Y-112046033D01*
X161353333Y-112046033D02*
X161186667Y-112046033D01*
X161186667Y-112046033D02*
X161120000Y-112079366D01*
X161120000Y-112079366D02*
X161086667Y-112112700D01*
X161086667Y-112112700D02*
X161053333Y-112179366D01*
X161053333Y-112179366D02*
X161053333Y-112246033D01*
X161053333Y-112246033D02*
X161086667Y-112346033D01*
X161086667Y-112346033D02*
X161486667Y-112746033D01*
X161486667Y-112746033D02*
X161053333Y-112746033D01*
X160786666Y-112112700D02*
X160753333Y-112079366D01*
X160753333Y-112079366D02*
X160686666Y-112046033D01*
X160686666Y-112046033D02*
X160520000Y-112046033D01*
X160520000Y-112046033D02*
X160453333Y-112079366D01*
X160453333Y-112079366D02*
X160420000Y-112112700D01*
X160420000Y-112112700D02*
X160386666Y-112179366D01*
X160386666Y-112179366D02*
X160386666Y-112246033D01*
X160386666Y-112246033D02*
X160420000Y-112346033D01*
X160420000Y-112346033D02*
X160820000Y-112746033D01*
X160820000Y-112746033D02*
X160386666Y-112746033D01*
X152238094Y-77954819D02*
X152238094Y-76954819D01*
X152238094Y-76954819D02*
X151999999Y-76954819D01*
X151999999Y-76954819D02*
X151857142Y-77002438D01*
X151857142Y-77002438D02*
X151761904Y-77097676D01*
X151761904Y-77097676D02*
X151714285Y-77192914D01*
X151714285Y-77192914D02*
X151666666Y-77383390D01*
X151666666Y-77383390D02*
X151666666Y-77526247D01*
X151666666Y-77526247D02*
X151714285Y-77716723D01*
X151714285Y-77716723D02*
X151761904Y-77811961D01*
X151761904Y-77811961D02*
X151857142Y-77907200D01*
X151857142Y-77907200D02*
X151999999Y-77954819D01*
X151999999Y-77954819D02*
X152238094Y-77954819D01*
X150809523Y-76954819D02*
X150999999Y-76954819D01*
X150999999Y-76954819D02*
X151095237Y-77002438D01*
X151095237Y-77002438D02*
X151142856Y-77050057D01*
X151142856Y-77050057D02*
X151238094Y-77192914D01*
X151238094Y-77192914D02*
X151285713Y-77383390D01*
X151285713Y-77383390D02*
X151285713Y-77764342D01*
X151285713Y-77764342D02*
X151238094Y-77859580D01*
X151238094Y-77859580D02*
X151190475Y-77907200D01*
X151190475Y-77907200D02*
X151095237Y-77954819D01*
X151095237Y-77954819D02*
X150904761Y-77954819D01*
X150904761Y-77954819D02*
X150809523Y-77907200D01*
X150809523Y-77907200D02*
X150761904Y-77859580D01*
X150761904Y-77859580D02*
X150714285Y-77764342D01*
X150714285Y-77764342D02*
X150714285Y-77526247D01*
X150714285Y-77526247D02*
X150761904Y-77431009D01*
X150761904Y-77431009D02*
X150809523Y-77383390D01*
X150809523Y-77383390D02*
X150904761Y-77335771D01*
X150904761Y-77335771D02*
X151095237Y-77335771D01*
X151095237Y-77335771D02*
X151190475Y-77383390D01*
X151190475Y-77383390D02*
X151238094Y-77431009D01*
X151238094Y-77431009D02*
X151285713Y-77526247D01*
D13*
%TO.C,D5*%
X131250000Y-80200000D02*
X131250000Y-84210000D01*
X131250000Y-84210000D02*
X133250000Y-84210000D01*
X133250000Y-80200000D02*
X133250000Y-84210000D01*
%TO.C,C13*%
X125890000Y-103911252D02*
X125890000Y-102488748D01*
X127710000Y-103911252D02*
X127710000Y-102488748D01*
%TO.C,C14*%
X175513748Y-90590000D02*
X176936252Y-90590000D01*
X175513748Y-92410000D02*
X176936252Y-92410000D01*
D14*
%TO.C,D19*%
X159150000Y-67850000D02*
X158550000Y-67850000D01*
X159150000Y-67250000D01*
X159150000Y-67850000D01*
G36*
X159150000Y-67850000D02*
G01*
X158550000Y-67850000D01*
X159150000Y-67250000D01*
X159150000Y-67850000D01*
G37*
D13*
%TO.C,D1*%
X131250000Y-61200000D02*
X131250000Y-65210000D01*
X131250000Y-65210000D02*
X133250000Y-65210000D01*
X133250000Y-61200000D02*
X133250000Y-65210000D01*
D14*
%TO.C,D21*%
X140020000Y-108930000D02*
X139420000Y-108930000D01*
X140020000Y-108330000D01*
X140020000Y-108930000D01*
G36*
X140020000Y-108930000D02*
G01*
X139420000Y-108930000D01*
X140020000Y-108330000D01*
X140020000Y-108930000D01*
G37*
D13*
%TO.C,C10*%
X154590000Y-113461252D02*
X154590000Y-112038748D01*
X156410000Y-113461252D02*
X156410000Y-112038748D01*
%TO.C,D10*%
X133600000Y-110250000D02*
X133600000Y-106240000D01*
X135600000Y-106240000D02*
X133600000Y-106240000D01*
X135600000Y-110250000D02*
X135600000Y-106240000D01*
%TO.C,R1*%
X148490000Y-97410436D02*
X148490000Y-98864564D01*
X150310000Y-97410436D02*
X150310000Y-98864564D01*
D14*
%TO.C,D16*%
X178200000Y-48800000D02*
X177600000Y-48800000D01*
X178200000Y-48200000D01*
X178200000Y-48800000D01*
G36*
X178200000Y-48800000D02*
G01*
X177600000Y-48800000D01*
X178200000Y-48200000D01*
X178200000Y-48800000D01*
G37*
%TO.C,D20*%
X178200000Y-67850000D02*
X177600000Y-67850000D01*
X178200000Y-67250000D01*
X178200000Y-67850000D01*
G36*
X178200000Y-67850000D02*
G01*
X177600000Y-67850000D01*
X178200000Y-67250000D01*
X178200000Y-67850000D01*
G37*
D13*
%TO.C,C9*%
X147788748Y-108590000D02*
X149211252Y-108590000D01*
X147788748Y-110410000D02*
X149211252Y-110410000D01*
%TO.C,C8*%
X186090000Y-72311252D02*
X186090000Y-70888748D01*
X187910000Y-72311252D02*
X187910000Y-70888748D01*
%TO.C,D2*%
X150250000Y-61200000D02*
X150250000Y-65210000D01*
X150250000Y-65210000D02*
X152250000Y-65210000D01*
X152250000Y-61200000D02*
X152250000Y-65210000D01*
%TO.C,D7*%
X169500000Y-80200000D02*
X169500000Y-84210000D01*
X169500000Y-84210000D02*
X171500000Y-84210000D01*
X171500000Y-80200000D02*
X171500000Y-84210000D01*
%TO.C,C15*%
X182688748Y-94290000D02*
X184111252Y-94290000D01*
X182688748Y-96110000D02*
X184111252Y-96110000D01*
%TO.C,C5*%
X128890000Y-72111252D02*
X128890000Y-70688748D01*
X130710000Y-72111252D02*
X130710000Y-70688748D01*
%TO.C,C1*%
X128490000Y-53236252D02*
X128490000Y-51813748D01*
X130310000Y-53236252D02*
X130310000Y-51813748D01*
%TO.C,D8*%
X172000000Y-80200000D02*
X172000000Y-84210000D01*
X172000000Y-84210000D02*
X174000000Y-84210000D01*
X174000000Y-80200000D02*
X174000000Y-84210000D01*
%TO.C,C6*%
X147890000Y-72311252D02*
X147890000Y-70888748D01*
X149710000Y-72311252D02*
X149710000Y-70888748D01*
%TO.C,D3*%
X169250000Y-61200000D02*
X169250000Y-65210000D01*
X169250000Y-65210000D02*
X171250000Y-65210000D01*
X171250000Y-61200000D02*
X171250000Y-65210000D01*
%TO.C,C11*%
X115840000Y-91038748D02*
X115840000Y-92461252D01*
X117660000Y-91038748D02*
X117660000Y-92461252D01*
%TO.C,C3*%
X166890000Y-53436252D02*
X166890000Y-52013748D01*
X168710000Y-53436252D02*
X168710000Y-52013748D01*
D14*
%TO.C,D18*%
X140100000Y-67850000D02*
X139500000Y-67850000D01*
X140100000Y-67250000D01*
X140100000Y-67850000D01*
G36*
X140100000Y-67850000D02*
G01*
X139500000Y-67850000D01*
X140100000Y-67250000D01*
X140100000Y-67850000D01*
G37*
%TO.C,D14*%
X140100000Y-48800000D02*
X139500000Y-48800000D01*
X140100000Y-48200000D01*
X140100000Y-48800000D01*
G36*
X140100000Y-48800000D02*
G01*
X139500000Y-48800000D01*
X140100000Y-48200000D01*
X140100000Y-48800000D01*
G37*
%TO.C,D13*%
X121050000Y-48800000D02*
X120450000Y-48800000D01*
X121050000Y-48200000D01*
X121050000Y-48800000D01*
G36*
X121050000Y-48800000D02*
G01*
X120450000Y-48800000D01*
X121050000Y-48200000D01*
X121050000Y-48800000D01*
G37*
%TO.C,D17*%
X121050000Y-67850000D02*
X120450000Y-67850000D01*
X121050000Y-67250000D01*
X121050000Y-67850000D01*
G36*
X121050000Y-67850000D02*
G01*
X120450000Y-67850000D01*
X121050000Y-67250000D01*
X121050000Y-67850000D01*
G37*
D13*
%TO.C,D9*%
X159290000Y-102900000D02*
X159290000Y-104900000D01*
X163300000Y-102900000D02*
X159290000Y-102900000D01*
X163300000Y-104900000D02*
X159290000Y-104900000D01*
D15*
%TO.C,U1*%
X120414800Y-90187200D02*
X120414800Y-90415800D01*
X120414800Y-100474200D02*
X120414800Y-100702800D01*
X120414800Y-100702800D02*
X123920000Y-100702800D01*
X123920000Y-100702800D02*
X124529600Y-100702800D01*
X124529600Y-100702800D02*
X128034800Y-100702800D01*
X128034800Y-90187200D02*
X120414800Y-90187200D01*
X128034800Y-90415800D02*
X128034800Y-90187200D01*
X128034800Y-100702800D02*
X128034800Y-100474200D01*
X123920000Y-100702800D02*
G75*
G02*
X124529600Y-100702800I304800J0D01*
G01*
D14*
%TO.C,D15*%
X159150000Y-48800000D02*
X158550000Y-48800000D01*
X159150000Y-48200000D01*
X159150000Y-48800000D01*
G36*
X159150000Y-48800000D02*
G01*
X158550000Y-48800000D01*
X159150000Y-48200000D01*
X159150000Y-48800000D01*
G37*
D13*
%TO.C,D11*%
X166440000Y-102900000D02*
X166440000Y-104900000D01*
X170450000Y-102900000D02*
X166440000Y-102900000D01*
X170450000Y-104900000D02*
X166440000Y-104900000D01*
%TO.C,C2*%
X147890000Y-53236252D02*
X147890000Y-51813748D01*
X149710000Y-53236252D02*
X149710000Y-51813748D01*
%TO.C,R2*%
X154410436Y-95890000D02*
X155864564Y-95890000D01*
X154410436Y-97710000D02*
X155864564Y-97710000D01*
%TO.C,C16*%
X186288748Y-90590000D02*
X187711252Y-90590000D01*
X186288748Y-92410000D02*
X187711252Y-92410000D01*
%TO.C,D4*%
X172000000Y-61200000D02*
X172000000Y-65210000D01*
X172000000Y-65210000D02*
X174000000Y-65210000D01*
X174000000Y-61200000D02*
X174000000Y-65210000D01*
%TO.C,C7*%
X166890000Y-72311252D02*
X166890000Y-70888748D01*
X168710000Y-72311252D02*
X168710000Y-70888748D01*
%TO.C,D12*%
X130000000Y-110250000D02*
X130000000Y-106240000D01*
X132000000Y-106240000D02*
X130000000Y-106240000D01*
X132000000Y-110250000D02*
X132000000Y-106240000D01*
%TO.C,C12*%
X126413748Y-86690000D02*
X127836252Y-86690000D01*
X126413748Y-88510000D02*
X127836252Y-88510000D01*
D16*
%TO.C,U2*%
X172880000Y-88075000D02*
X172880000Y-101875000D01*
X174880000Y-103875000D02*
X191880000Y-103875000D01*
X187950730Y-90475000D02*
X195304030Y-90475000D01*
X187950730Y-99475000D02*
X187950730Y-90475000D01*
X191880000Y-86075000D02*
X174880000Y-86075000D01*
X193879090Y-101875000D02*
X193879090Y-88075000D01*
X195304030Y-90475000D02*
X195304030Y-99475000D01*
X195304030Y-99475000D02*
X187950730Y-99475000D01*
D13*
X172880000Y-88075000D02*
G75*
G02*
X174880000Y-86075000I2000000J0D01*
G01*
X174880000Y-103875000D02*
G75*
G02*
X172880000Y-101875000I44857J2044857D01*
G01*
X191880000Y-86075000D02*
G75*
G02*
X193880000Y-88075000I-44610J-2044610D01*
G01*
X193880000Y-101875000D02*
G75*
G02*
X191880000Y-103875000I-2044612J44612D01*
G01*
D17*
X192307000Y-105975000D02*
G75*
G02*
X192053000Y-105975000I-127000J0D01*
G01*
X192053000Y-105975000D02*
G75*
G02*
X192307000Y-105975000I127000J0D01*
G01*
D18*
X191990473Y-103859667D02*
X191941705Y-103862715D01*
X192039494Y-103855603D01*
X191990473Y-103859667D01*
X174469045Y-86132752D02*
X174517050Y-86122847D01*
X174565310Y-86113956D01*
X174613825Y-86106336D01*
X174662593Y-86099732D01*
X174711361Y-86094399D01*
X174760382Y-86090335D01*
X174809150Y-86087287D01*
X174858426Y-86085508D01*
X174469045Y-86132752D01*
D13*
%TO.C,C4*%
X186090000Y-53436252D02*
X186090000Y-52013748D01*
X187910000Y-53436252D02*
X187910000Y-52013748D01*
D14*
%TO.C,D22*%
X159070000Y-108930000D02*
X158470000Y-108930000D01*
X159070000Y-108330000D01*
X159070000Y-108930000D01*
G36*
X159070000Y-108930000D02*
G01*
X158470000Y-108930000D01*
X159070000Y-108330000D01*
X159070000Y-108930000D01*
G37*
D13*
%TO.C,D6*%
X150500000Y-78850000D02*
X150500000Y-82860000D01*
X150500000Y-82860000D02*
X152500000Y-82860000D01*
X152500000Y-78850000D02*
X152500000Y-82860000D01*
%TD*%
%LPC*%
D19*
%TO.C,SW4*%
X181100000Y-55370000D03*
D20*
X176700000Y-60070000D03*
D21*
X183700000Y-61120000D03*
%TD*%
D19*
%TO.C,SW10*%
X161970000Y-115500000D03*
D20*
X157570000Y-120200000D03*
D21*
X164570000Y-121250000D03*
%TD*%
D22*
%TO.C,MH3*%
X115500000Y-124000000D03*
%TD*%
D19*
%TO.C,SW1*%
X123950000Y-55370000D03*
D20*
X119550000Y-60070000D03*
D21*
X126550000Y-61120000D03*
%TD*%
D22*
%TO.C,MH1*%
X115500000Y-47000000D03*
%TD*%
%TO.C,MH2*%
X189500000Y-47000000D03*
%TD*%
D23*
%TO.C,J1*%
X134300000Y-98700000D03*
D24*
X134300000Y-96160000D03*
X134300000Y-93620000D03*
X134300000Y-91080000D03*
%TD*%
D25*
%TO.C,SW12*%
X174250000Y-113000000D03*
D26*
X174250000Y-118000000D03*
X174250000Y-115500000D03*
D27*
X181750000Y-109900000D03*
X181750000Y-121100000D03*
D26*
X188750000Y-118000000D03*
X188750000Y-113000000D03*
%TD*%
D19*
%TO.C,SW6*%
X143000000Y-74420000D03*
D20*
X138600000Y-79120000D03*
D21*
X145600000Y-80170000D03*
%TD*%
D22*
%TO.C,MH4*%
X189500000Y-124000000D03*
%TD*%
D19*
%TO.C,SW2*%
X143000000Y-55370000D03*
D20*
X138600000Y-60070000D03*
D21*
X145600000Y-61120000D03*
%TD*%
D19*
%TO.C,SW7*%
X162050000Y-74420000D03*
D20*
X157650000Y-79120000D03*
D21*
X164650000Y-80170000D03*
%TD*%
D25*
%TO.C,SW11*%
X116250000Y-113000000D03*
D26*
X116250000Y-118000000D03*
X116250000Y-115500000D03*
D27*
X123750000Y-109900000D03*
X123750000Y-121100000D03*
D26*
X130750000Y-118000000D03*
X130750000Y-113000000D03*
%TD*%
D19*
%TO.C,SW5*%
X123950000Y-74420000D03*
D20*
X119550000Y-79120000D03*
D21*
X126550000Y-80170000D03*
%TD*%
D19*
%TO.C,SW8*%
X181100000Y-74420000D03*
D20*
X176700000Y-79120000D03*
D21*
X183700000Y-80170000D03*
%TD*%
D23*
%TO.C,J2*%
X148950000Y-126475000D03*
D24*
X151490000Y-126475000D03*
X154030000Y-126475000D03*
X156570000Y-126475000D03*
%TD*%
D19*
%TO.C,SW3*%
X162050000Y-55370000D03*
D20*
X157650000Y-60070000D03*
D21*
X164650000Y-61120000D03*
%TD*%
D19*
%TO.C,SW9*%
X142920000Y-115500000D03*
D20*
X138520000Y-120200000D03*
D21*
X145520000Y-121250000D03*
%TD*%
D28*
%TO.C,D5*%
X132250000Y-83500000D03*
X132250000Y-80200000D03*
%TD*%
D29*
%TO.C,C13*%
X126800000Y-101725000D03*
X126800000Y-104675000D03*
%TD*%
D30*
%TO.C,C14*%
X177700000Y-91500000D03*
X174750000Y-91500000D03*
%TD*%
D31*
%TO.C,D19*%
X163950000Y-68500000D03*
D32*
X158750000Y-68500000D03*
D31*
X158750000Y-70000000D03*
X163950000Y-70000000D03*
%TD*%
D28*
%TO.C,D1*%
X132250000Y-64500000D03*
X132250000Y-61200000D03*
%TD*%
D31*
%TO.C,D21*%
X144820000Y-109580000D03*
D32*
X139620000Y-109580000D03*
D31*
X139620000Y-111080000D03*
X144820000Y-111080000D03*
%TD*%
D29*
%TO.C,C10*%
X155500000Y-111275000D03*
X155500000Y-114225000D03*
%TD*%
D33*
%TO.C,D10*%
X134600000Y-106950000D03*
X134600000Y-110250000D03*
%TD*%
D34*
%TO.C,R1*%
X149400000Y-99600000D03*
X149400000Y-96675000D03*
%TD*%
D31*
%TO.C,D16*%
X183000000Y-49450000D03*
D32*
X177800000Y-49450000D03*
D31*
X177800000Y-50950000D03*
X183000000Y-50950000D03*
%TD*%
%TO.C,D20*%
X183000000Y-68500000D03*
D32*
X177800000Y-68500000D03*
D31*
X177800000Y-70000000D03*
X183000000Y-70000000D03*
%TD*%
D30*
%TO.C,C9*%
X149975000Y-109500000D03*
X147025000Y-109500000D03*
%TD*%
D29*
%TO.C,C8*%
X187000000Y-70125000D03*
X187000000Y-73075000D03*
%TD*%
D28*
%TO.C,D2*%
X151250000Y-64500000D03*
X151250000Y-61200000D03*
%TD*%
%TO.C,D7*%
X170500000Y-83500000D03*
X170500000Y-80200000D03*
%TD*%
D30*
%TO.C,C15*%
X184875000Y-95200000D03*
X181925000Y-95200000D03*
%TD*%
D29*
%TO.C,C5*%
X129800000Y-69925000D03*
X129800000Y-72875000D03*
%TD*%
%TO.C,C1*%
X129400000Y-51050000D03*
X129400000Y-54000000D03*
%TD*%
D28*
%TO.C,D8*%
X173000000Y-83500000D03*
X173000000Y-80200000D03*
%TD*%
D29*
%TO.C,C6*%
X148800000Y-70125000D03*
X148800000Y-73075000D03*
%TD*%
D28*
%TO.C,D3*%
X170250000Y-64500000D03*
X170250000Y-61200000D03*
%TD*%
D35*
%TO.C,C11*%
X116750000Y-93225000D03*
X116750000Y-90275000D03*
%TD*%
D29*
%TO.C,C3*%
X167800000Y-51250000D03*
X167800000Y-54200000D03*
%TD*%
D31*
%TO.C,D18*%
X144900000Y-68500000D03*
D32*
X139700000Y-68500000D03*
D31*
X139700000Y-70000000D03*
X144900000Y-70000000D03*
%TD*%
%TO.C,D14*%
X144900000Y-49450000D03*
D32*
X139700000Y-49450000D03*
D31*
X139700000Y-50950000D03*
X144900000Y-50950000D03*
%TD*%
%TO.C,D13*%
X125850000Y-49450000D03*
D32*
X120650000Y-49450000D03*
D31*
X120650000Y-50950000D03*
X125850000Y-50950000D03*
%TD*%
%TO.C,D17*%
X125850000Y-68500000D03*
D32*
X120650000Y-68500000D03*
D31*
X120650000Y-70000000D03*
X125850000Y-70000000D03*
%TD*%
D36*
%TO.C,D9*%
X160000000Y-103900000D03*
X163300000Y-103900000D03*
%TD*%
D37*
%TO.C,U1*%
X119449600Y-99890000D03*
X119449600Y-98620000D03*
X119449600Y-97350000D03*
X119449600Y-96080000D03*
X119449600Y-94810000D03*
X119449600Y-93540000D03*
X119449600Y-92270000D03*
X119449600Y-91000000D03*
X129000000Y-91000000D03*
X129000000Y-92270000D03*
X129000000Y-93540000D03*
X129000000Y-94810000D03*
X129000000Y-96080000D03*
X129000000Y-97350000D03*
X129000000Y-98620000D03*
X129000000Y-99890000D03*
%TD*%
D31*
%TO.C,D15*%
X163950000Y-49450000D03*
D32*
X158750000Y-49450000D03*
D31*
X158750000Y-50950000D03*
X163950000Y-50950000D03*
%TD*%
D36*
%TO.C,D11*%
X167150000Y-103900000D03*
X170450000Y-103900000D03*
%TD*%
D29*
%TO.C,C2*%
X148800000Y-51050000D03*
X148800000Y-54000000D03*
%TD*%
D38*
%TO.C,R2*%
X156600000Y-96800000D03*
X153675000Y-96800000D03*
%TD*%
D30*
%TO.C,C16*%
X188475000Y-91500000D03*
X185525000Y-91500000D03*
%TD*%
D28*
%TO.C,D4*%
X173000000Y-64500000D03*
X173000000Y-61200000D03*
%TD*%
D29*
%TO.C,C7*%
X167800000Y-70125000D03*
X167800000Y-73075000D03*
%TD*%
D33*
%TO.C,D12*%
X131000000Y-106950000D03*
X131000000Y-110250000D03*
%TD*%
D30*
%TO.C,C12*%
X128600000Y-87600000D03*
X125650000Y-87600000D03*
%TD*%
D39*
%TO.C,U2*%
X191000000Y-103600000D03*
D40*
X188460000Y-103600000D03*
X185920000Y-103600000D03*
X183380000Y-103600000D03*
X180840000Y-103600000D03*
X178300000Y-103600000D03*
X175760000Y-103600000D03*
X175760000Y-86350000D03*
X178300000Y-86350000D03*
X180840000Y-86350000D03*
D41*
X183380000Y-86350000D03*
X185920000Y-86350000D03*
X188460000Y-86350000D03*
X191000000Y-86350000D03*
%TD*%
D29*
%TO.C,C4*%
X187000000Y-51250000D03*
X187000000Y-54200000D03*
%TD*%
D31*
%TO.C,D22*%
X163870000Y-109580000D03*
D32*
X158670000Y-109580000D03*
D31*
X158670000Y-111080000D03*
X163870000Y-111080000D03*
%TD*%
D22*
%TO.C,MH5*%
X152000000Y-87500000D03*
%TD*%
D28*
%TO.C,D6*%
X151500000Y-82150000D03*
X151500000Y-78850000D03*
%TD*%
%LPD*%
M02*
