M48
; DRILL file {KiCad 8.0.7} date 2025-02-13T02:08:45-0500
; FORMAT={-:-/ absolute / inch / decimal}
; #@! TF.CreationDate,2025-02-13T02:08:45-05:00
; #@! TF.GenerationSoftware,Kicad,Pcbnew,8.0.7
; #@! TF.FileFunction,Plated,1,2,PTH
FMAT,2
INCH
; #@! TA.AperFunction,Plated,PTH,ViaDrill
T1C0.0118
; #@! TA.AperFunction,Plated,PTH,ComponentDrill
T2C0.0354
; #@! TA.AperFunction,Plated,PTH,ComponentDrill
T3C0.0394
; #@! TA.AperFunction,Plated,PTH,ComponentDrill
T4C0.0591
%
G90
G05
T1
X4.5592Y-3.4738
X4.6572Y-2.7973
X4.6715Y-1.9472
X4.7539Y-2.0657
X4.7927Y-4.0922
X4.793Y-3.6589
X4.9824Y-3.7602
X5.3705Y-4.0413
X5.4028Y-3.8985
X5.4287Y-4.248
X5.4535Y-4.0123
X5.5011Y-3.6327
X5.5011Y-4.2769
X5.8306Y-4.4151
X5.9642Y-4.05
X6.0642Y-3.9665
X6.3506Y-4.0787
X6.5242Y-4.1377
X6.5832Y-4.0384
X6.7553Y-2.6554
X6.7707Y-4.0546
X6.7717Y-1.8799
X6.8918Y-3.4897
X6.8918Y-3.7312
X6.9613Y-3.8092
X6.9807Y-3.9485
X7.0024Y-2.5394
X7.224Y-3.9716
X7.5197Y-3.3065
T3
X4.5768Y-4.4488
X4.5768Y-4.5472
X4.5768Y-4.6457
X5.1476Y-4.4488
X5.1476Y-4.6457
X5.2874Y-3.5858
X5.2874Y-3.6858
X5.2874Y-3.7858
X5.2874Y-3.8858
X5.8642Y-4.9793
X5.9642Y-4.9793
X6.0642Y-4.9793
X6.1642Y-4.9793
X6.8602Y-4.4488
X6.8602Y-4.5472
X6.8602Y-4.6457
X6.9197Y-3.439
X6.9197Y-4.0394
X7.0197Y-3.439
X7.0197Y-4.0394
X7.1197Y-3.439
X7.1197Y-4.0394
X7.2197Y-3.439
X7.2197Y-4.0394
X7.3197Y-3.439
X7.3197Y-4.0394
X7.4197Y-3.439
X7.4197Y-4.0394
X7.4311Y-4.4488
X7.4311Y-4.6457
X7.5197Y-3.439
X7.5197Y-4.0394
T2
G00X4.7067Y-2.3758
M15
G01X4.7067Y-2.3541
M16
G05
G00X4.7067Y-3.1258
M15
G01X4.7067Y-3.1041
M16
G05
G00X4.9715Y-2.4063
M15
G01X4.9931Y-2.4063
M16
G05
G00X4.9715Y-3.1563
M15
G01X4.9931Y-3.1563
M16
G05
G00X5.4535Y-4.7431
M15
G01X5.4535Y-4.7215
M16
G05
G00X5.4567Y-2.3758
M15
G01X5.4567Y-2.3541
M16
G05
G00X5.4567Y-3.1258
M15
G01X5.4567Y-3.1041
M16
G05
G00X5.7183Y-4.7736
M15
G01X5.74Y-4.7736
M16
G05
G00X5.7215Y-2.4063
M15
G01X5.7431Y-2.4063
M16
G05
G00X5.7215Y-3.1563
M15
G01X5.7431Y-3.1563
M16
G05
G00X6.2035Y-4.7431
M15
G01X6.2035Y-4.7215
M16
G05
G00X6.2067Y-2.3758
M15
G01X6.2067Y-2.3541
M16
G05
G00X6.2067Y-3.1258
M15
G01X6.2067Y-3.1041
M16
G05
G00X6.4683Y-4.7736
M15
G01X6.49Y-4.7736
M16
G05
G00X6.4715Y-2.4063
M15
G01X6.4931Y-2.4063
M16
G05
G00X6.4715Y-3.1563
M15
G01X6.4931Y-3.1563
M16
G05
G00X6.9567Y-2.3758
M15
G01X6.9567Y-2.3541
M16
G05
G00X6.9567Y-3.1258
M15
G01X6.9567Y-3.1041
M16
G05
G00X7.2215Y-2.4063
M15
G01X7.2431Y-2.4063
M16
G05
G00X7.2215Y-3.1563
M15
G01X7.2431Y-3.1563
M16
G05
T4
G00X4.8465Y-4.3268
M15
G01X4.8976Y-4.3268
M16
G05
G00X4.8465Y-4.7677
M15
G01X4.8976Y-4.7677
M16
G05
G00X7.1299Y-4.3268
M15
G01X7.1811Y-4.3268
M16
G05
G00X7.1299Y-4.7677
M15
G01X7.1811Y-4.7677
M16
G05
M30
