M48
; DRILL file {KiCad 8.0.7} date 2025-02-09T12:27:28-0500
; FORMAT={-:-/ absolute / inch / decimal}
; #@! TF.CreationDate,2025-02-09T12:27:28-05:00
; #@! TF.GenerationSoftware,Kicad,Pcbnew,8.0.7
; #@! TF.FileFunction,Plated,1,2,PTH
FMAT,2
INCH
; #@! TA.AperFunction,Plated,PTH,ViaDrill
T1C0.0118
; #@! TA.AperFunction,Plated,PTH,ComponentDrill
T2C0.0394
; #@! TA.AperFunction,Plated,PTH,ComponentDrill
T3C0.0591
; #@! TA.AperFunction,Plated,PTH,ComponentDrill
T4C0.0600
%
G90
G05
T1
X4.5118Y-3.5433
X4.6063Y-3.2283
X4.795Y-3.7246
X4.795Y-4.0983
X4.8235Y-3.7076
X4.8366Y-3.4114
X4.9409Y-4.0118
X5.0079Y-3.7839
X5.008Y-3.6051
X5.0394Y-3.0906
X5.1546Y-3.9327
X5.2264Y-4.498
X5.4554Y-3.9656
X5.479Y-3.9419
X5.495Y-4.6063
X5.6772Y-3.3465
X5.9233Y-2.4724
X5.9622Y-2.5
X5.9622Y-3.9892
X6.063Y-2.5252
X6.063Y-4.0049
X6.1181Y-2.2854
X6.1378Y-4.6575
X6.2354Y-3.9564
X6.5551Y-4.0276
X6.6397Y-3.4824
X6.6437Y-2.1358
X6.6772Y-4.1654
X6.7789Y-3.6962
X6.9685Y-3.0315
X7.0581Y-3.2283
X7.0866Y-2.7728
X7.2835Y-3.2283
X7.2891Y-2.4409
X7.4027Y-2.6721
X7.4263Y-3.1083
X7.4409Y-2.4016
X7.4409Y-3.189
X7.4606Y-1.8681
T2
X4.4459Y-2.4016
X4.4459Y-2.5016
X4.4459Y-2.6016
X4.4459Y-2.7016
X4.5768Y-4.4488
X4.5768Y-4.5472
X4.5768Y-4.6457
X5.1476Y-4.4488
X5.1476Y-4.6457
X5.2874Y-3.5858
X5.2874Y-3.6858
X5.2874Y-3.7858
X5.2874Y-3.8858
X5.8622Y-1.751
X5.8622Y-4.9833
X5.9622Y-1.751
X5.9622Y-4.9833
X6.0622Y-1.751
X6.0622Y-4.9833
X6.1622Y-1.751
X6.1622Y-4.9833
X6.8602Y-4.4488
X6.8602Y-4.5472
X6.8602Y-4.6457
X6.9197Y-3.439
X6.9197Y-4.0394
X7.0197Y-3.439
X7.0197Y-4.0394
X7.1197Y-3.439
X7.1197Y-4.0394
X7.2197Y-3.439
X7.2197Y-4.0394
X7.3197Y-3.439
X7.3197Y-4.0394
X7.4197Y-3.439
X7.4197Y-4.0394
X7.4311Y-4.4488
X7.4311Y-4.6457
X7.5197Y-3.439
X7.5197Y-4.0394
X7.5561Y-2.4016
X7.5561Y-2.5016
X7.5561Y-2.6016
X7.5561Y-2.7016
T4
X4.7299Y-2.0799
X4.7299Y-2.8299
X4.9799Y-1.9799
X4.9799Y-2.7299
X5.4768Y-4.4472
X5.4799Y-2.0799
X5.4799Y-2.8299
X5.7268Y-4.3472
X5.7299Y-1.9799
X5.7299Y-2.7299
X6.2268Y-4.4472
X6.2299Y-2.0799
X6.2299Y-2.8299
X6.4768Y-4.3472
X6.4799Y-1.9799
X6.4799Y-2.7299
X6.9799Y-2.0799
X6.9799Y-2.8299
X7.2299Y-1.9799
X7.2299Y-2.7299
T3
G00X4.8465Y-4.3268
M15
G01X4.8976Y-4.3268
M16
G05
G00X4.8465Y-4.7677
M15
G01X4.8976Y-4.7677
M16
G05
G00X7.1299Y-4.3268
M15
G01X7.1811Y-4.3268
M16
G05
G00X7.1299Y-4.7677
M15
G01X7.1811Y-4.7677
M16
G05
M30
